<?xml version="1.0" encoding="UTF-8" standalone="no"?>
<!-- Created with Inkscape (http://www.inkscape.org/) -->

<svg
   xmlns:dc="http://purl.org/dc/elements/1.1/"
   xmlns:cc="http://creativecommons.org/ns#"
   xmlns:rdf="http://www.w3.org/1999/02/22-rdf-syntax-ns#"
   xmlns:svg="http://www.w3.org/2000/svg"
   xmlns="http://www.w3.org/2000/svg"
   xmlns:sodipodi="http://sodipodi.sourceforge.net/DTD/sodipodi-0.dtd"
   xmlns:inkscape="http://www.inkscape.org/namespaces/inkscape"
   version="1.0"
   width="324.51389"
   height="324.72635"
   id="svg2"
   sodipodi:version="0.32"
   inkscape:version="0.48.2 r9819"
   sodipodi:docname="Chile IAA-6.svg"
   inkscape:output_extension="org.inkscape.output.svg.inkscape">
  <metadata
     id="metadata12">
    <rdf:RDF>
      <cc:Work
         rdf:about="">
        <dc:format>image/svg+xml</dc:format>
        <dc:type
           rdf:resource="http://purl.org/dc/dcmitype/StillImage" />
        <dc:title></dc:title>
      </cc:Work>
    </rdf:RDF>
  </metadata>
  <sodipodi:namedview
     inkscape:window-height="1003"
     inkscape:window-width="1280"
     inkscape:pageshadow="2"
     inkscape:pageopacity="0.0"
     guidetolerance="10.0"
     gridtolerance="10.0"
     objecttolerance="10.0"
     borderopacity="1.0"
     bordercolor="#666666"
     pagecolor="#ffffff"
     id="base"
     inkscape:zoom="1"
     inkscape:cx="112.95727"
     inkscape:cy="77.659693"
     inkscape:window-x="-4"
     inkscape:window-y="-4"
     inkscape:current-layer="svg2"
     width="200px"
     height="200px"
     showgrid="false"
     inkscape:showpageshadow="false"
     inkscape:window-maximized="0"
     fit-margin-top="0"
     fit-margin-left="0"
     fit-margin-right="0"
     fit-margin-bottom="0"
     showguides="true"
     inkscape:guide-bbox="true" />
  <defs
     id="defs4" />
  <path
     inkscape:connector-curvature="0"
     d="m 0,310.41692 1.099765,5.50299 3.299296,4.39906 4.40321,3.30346 5.49882,1.10393 295.911699,0 5.49882,-1.10393 4.95311,-3.30346 2.74941,-4.39906 1.09977,-5.50299 0,-296.103315 L 323.41413,8.806449 320.66472,3.857508 315.71161,1.108097 310.21279,0 14.301091,0 8.802271,1.108097 4.399061,3.857508 1.099765,8.806449 0,14.313605 0,310.41692"
     style="fill:#244ba6;fill-opacity:1;fill-rule:evenodd;stroke:none"
     id="path4507" />
  <path
     inkscape:connector-curvature="0"
     d="m 9.902041,310.41692 0.54988,2.19537 1.64965,1.65381 2.19952,0.54988 295.911699,0 2.19953,-0.54988 2.19952,-1.65381 0.54989,-2.19537 0,-296.103315 -0.54989,-2.19953 -2.19952,-2.203695 -2.19953,-0.549882 -295.911699,0 -2.19952,0.549882 -1.64965,2.203695 -0.54988,2.19953 0,296.103315 z m -6.60275,0 1.09977,3.84918 2.19953,3.85334 3.85333,2.19953 3.84917,1.10393 295.911699,0 4.39905,-1.10393 3.85335,-2.19953 2.19953,-3.85334 1.09976,-3.84918 0,-296.103315 -1.09976,-4.403225 -2.19953,-3.853342 -3.85335,-2.19953 -4.39905,-1.10393 -295.911699,0 -3.84917,1.10393 -3.85333,2.19953 -2.19953,3.853342 -1.09977,4.403225 0,296.103315"
     style="fill:#ffffff;fill-opacity:1;fill-rule:evenodd;stroke:none"
     id="path4509" />
  <path
     inkscape:connector-curvature="0"
     d="m 71.130611,196.47046 0.37075,4.96977 3.30346,21.46208 3.29929,9.35633 5.49883,8.81061 6.60275,7.15264 8.24824,6.05287 9.352159,4.4074 9.89788,2.19536 10.45193,0.55404 1.09977,-17.05884 -1.09977,-17.06302 -2.7494,-16.51314 -8.25241,-1.65381 -7.14847,-3.2993 -3.84917,-2.20369 -2.75358,-3.30345 -1.09977,-3.84919 0,-0.0166 -31.172489,0 z m 135.666799,0 2.21203,2.76608 5.49882,3.85334 6.05287,2.75357 6.59859,1.09977 6.5986,-1.09977 6.60274,-2.75357 5.49883,-3.85334 1.93709,-2.76608 -40.99957,0 z m -66.53993,14.3261 -10.45193,0 3.2993,16.51314 1.09977,17.06302 -2.19954,17.05884 6.04871,0 5.50299,-2.20369 1.09976,-15.96325 -1.09976,-16.5048 -3.2993,-15.96326 z m 59.3998,74.85066 2.19952,5.50299 3.30347,5.50299 4.39905,3.85334 5.49882,3.29929 6.05288,2.2037 6.0487,0.54989 7.14847,-0.54989 6.60276,-2.2037 5.49883,-4.39905 4.39905,-4.95311 2.20369,-6.05287 1.09977,-6.60692 -1.09977,-6.60692 -2.75357,-6.05288 -3.84917,-5.50298 -5.49883,-3.85335 -6.60276,-2.19953 -12.09741,-2.19952 -3.30346,-1.65382 -2.19953,-2.74941 -1.09976,-3.85334 1.09976,-3.85751 2.19953,-3.84917 3.30346,-2.75358 3.84918,-1.09561 4.39906,0.54573 3.84917,1.65381 3.30347,2.74941 1.64965,3.85751 12.0974,-3.30347 -2.74941,-6.60691 -4.39906,-5.50716 -6.0487,-3.84917 -6.60276,-2.2037 -7.14847,0 -5.50299,1.65382 -5.49882,2.75357 -4.39906,3.85334 -3.29929,4.94895 -1.64965,5.50715 -1.10393,5.50299 1.10393,7.15263 3.84917,6.05288 4.94895,4.95727 6.59859,2.19953 12.65146,2.75358 3.29929,1.09977 3.30346,2.75357 2.19953,3.84917 0.54988,3.85335 -1.09977,4.95311 -2.7494,3.85334 -4.40323,2.20369 -6.04871,1.09977 -5.49882,-0.54989 -4.95311,-2.75357 -3.29929,-3.85334 -2.19953,-5.50299 -11.55169,4.40322"
     style="fill:#ffffff;fill-opacity:1;fill-rule:evenodd;stroke:none"
     id="path4511" />
  <path
     inkscape:connector-curvature="0"
     d="m 102.3031,196.47046 -2.19952,-31.90151 1.09975,-31.37661 2.19954,-6.60276 3.30345,-5.50298 5.49883,-4.40323 6.04871,-2.75358 6.60275,-0.54988 3.29929,-12.10574 1.09977,-12.659794 0,-12.10991 -2.19953,-12.655626 -11.5517,0.549883 -11.00181,2.749411 -10.447769,4.953108 -9.35216,6.606919 -6.59859,11.005979 -2.74941,12.10991 -4.95311,25.8653 -1.64965,25.86946 1.09977,25.8653 1.2789,17.04635 31.172489,0 z m 145.49388,0 1.91208,-2.73691 2.75358,-6.05287 2.74941,-11.01015 0.54989,-12.10158 -0.54989,-11.56002 -2.74941,-11.01014 -2.75358,-6.60276 -3.84917,-4.9531 -5.49883,-4.40739 -6.60274,-2.19537 -6.5986,-1.10393 -6.59859,1.10393 -6.05287,2.19537 -5.49882,4.40739 -4.39906,5.50299 -2.75358,6.05287 -2.19952,11.01014 -1.09977,11.56002 1.09977,12.10158 2.19952,11.01015 2.75358,6.05287 2.18703,2.73691 40.99957,0 z m -119.0912,-84.19031 2.19954,0.54988 1.64965,0 3.84917,0.54988 3.30346,0 0.54988,-0.54988 3.2993,-15.963253 0.54988,-15.95492 -1.64965,-15.963252 -2.74941,-1.099765 -3.30346,0 -2.19952,-0.554048 -2.74942,0.554048 1.64965,16.508969 -1.09977,15.959085 -3.2993,15.963256 z m 70.9515,-26.969235 2.19952,6.052872 3.30347,4.953107 4.39905,4.407386 5.49882,3.30346 6.05288,1.64549 6.0487,1.10393 7.14847,-1.10393 6.60276,-2.19953 5.49883,-3.853346 4.39905,-4.953107 2.20369,-6.052871 1.09977,-6.602755 -1.09977,-6.60692 -2.75357,-6.60692 -3.84917,-4.948941 -5.49883,-3.857508 -6.60276,-2.199529 -12.09741,-2.749412 -3.30346,-1.653813 -2.19953,-2.749412 -1.09976,-3.303459 1.09976,-4.403225 2.19953,-3.30346 3.30346,-2.753578 3.84918,-1.095599 4.39906,0 3.84917,1.649647 3.30347,3.303461 1.64965,3.853341 12.0974,-3.303459 -2.74941,-6.60692 -4.39906,-5.50299 -6.0487,-3.853342 -6.60276,-2.203695 -7.14847,0 -5.50299,1.103931 -5.49882,2.753577 -4.39906,3.853342 -3.29929,4.953107 -1.64965,5.50299 -1.10393,6.052872 1.10393,7.152636 3.84917,6.052872 4.94895,4.40739 6.59859,2.753578 12.65146,2.199529 3.29929,1.649648 3.30346,2.753577 2.19953,3.299293 0.54988,4.407391 -1.09977,4.403225 -2.7494,3.849176 -4.40323,2.753578 -6.04871,1.099764 -5.49882,-1.099764 -4.95311,-2.753578 -3.29929,-3.849176 -2.19953,-4.953107 -11.55169,3.849176 z m 14.3011,99.070465 2.74941,4.94895 4.95311,3.30345 5.49882,1.64965 5.49883,-1.64965 4.95311,-3.30345 2.7494,-4.94895 2.19953,-13.20967 0,-13.21384 -2.19953,-12.65562 -2.7494,-4.95727 -4.95311,-3.84918 -5.49883,-1.09977 -5.49882,1.64965 -4.95311,3.2993 -2.74941,4.95727 -2.19953,13.20967 0,12.65979 2.19953,13.20967"
     style="fill:#ffffff;fill-opacity:1;fill-rule:evenodd;stroke:none"
     id="path4513" />
</svg>
