<?xml version="1.0" encoding="UTF-8" standalone="no"?>
<!-- Created with Inkscape (http://www.inkscape.org/) -->

<svg
   xmlns:dc="http://purl.org/dc/elements/1.1/"
   xmlns:cc="http://creativecommons.org/ns#"
   xmlns:rdf="http://www.w3.org/1999/02/22-rdf-syntax-ns#"
   xmlns:svg="http://www.w3.org/2000/svg"
   xmlns="http://www.w3.org/2000/svg"
   xmlns:sodipodi="http://sodipodi.sourceforge.net/DTD/sodipodi-0.dtd"
   xmlns:inkscape="http://www.inkscape.org/namespaces/inkscape"
   version="1.0"
   width="324.22971"
   height="324.23383"
   id="svg2"
   sodipodi:version="0.32"
   inkscape:version="0.48.2 r9819"
   sodipodi:docname="AJAX1.svg"
   inkscape:output_extension="org.inkscape.output.svg.inkscape">
  <metadata
     id="metadata12">
    <rdf:RDF>
      <cc:Work
         rdf:about="">
        <dc:format>image/svg+xml</dc:format>
        <dc:type
           rdf:resource="http://purl.org/dc/dcmitype/StillImage" />
        <dc:title></dc:title>
      </cc:Work>
    </rdf:RDF>
  </metadata>
  <sodipodi:namedview
     inkscape:window-height="1003"
     inkscape:window-width="1280"
     inkscape:pageshadow="2"
     inkscape:pageopacity="0.0"
     guidetolerance="10.0"
     gridtolerance="10.0"
     objecttolerance="10.0"
     borderopacity="1.0"
     bordercolor="#666666"
     pagecolor="#ffffff"
     id="base"
     inkscape:zoom="1.2445079"
     inkscape:cx="121.35814"
     inkscape:cy="97.030287"
     inkscape:window-x="-4"
     inkscape:window-y="-4"
     inkscape:current-layer="svg2"
     width="200px"
     height="200px"
     showgrid="false"
     inkscape:showpageshadow="false"
     inkscape:window-maximized="0"
     fit-margin-top="0"
     fit-margin-left="0"
     fit-margin-right="0"
     fit-margin-bottom="0" />
  <defs
     id="defs4" />
  <path
     inkscape:connector-curvature="0"
     d="m 0,309.94489 1.0958,5.49478 3.2993,4.39916 4.3949,3.2952 5.495,1.09979 295.6557,0 5.495,-1.09979 4.949,-3.2952 2.7451,-4.39916 1.0999,-5.49478 0,-295.65595 -1.0999,-5.49479 -2.7451,-4.94489 -4.949,-2.74948 L 309.9407,0 14.285,0 8.79,1.09978 4.3951,3.84926 1.0958,8.79415 0,14.28894 0,309.94489"
     style="fill:#244ba6;fill-opacity:1;fill-rule:evenodd;stroke:none"
     id="path3135" />
  <path
     inkscape:connector-curvature="0"
     d="m 155.5203,135.19081 -27.4781,0.54573 -26.9282,2.74947 -51.6568,133.54113 106.0631,0 0,-136.83633 z m 13.739,-83.52986 0,46.70774 39.0175,0 -18.1338,-46.15784 -20.8837,-0.5499 z m -13.739,0 0,46.70774 -39.5675,0 18.1342,-46.15784 21.4333,-0.5499 z m 0,75.8355 -26.3783,0.5499 -26.3783,2.7453 -26.3783,3.84927 0,-27.47808 172.0088,0 0,27.47808 -26.3783,-3.84927 -26.3783,-2.7453 -26.3783,-0.5499 -13.739,0 z m 13.739,144.53069 106.063,0 -51.6568,-133.54113 -27.478,-2.74947 -26.9282,-0.54573 0,136.83633"
     style="fill:#ffffff;fill-opacity:1;fill-rule:evenodd;stroke:none"
     id="path3137" />
  <path
     inkscape:connector-curvature="0"
     d="m 9.8897,309.94489 0.55,2.19958 1.6497,1.64551 2.1956,0.5499 295.6557,0 2.1996,-0.5499 2.1996,-1.64551 0.5498,-2.19958 0,-295.65595 -0.5498,-2.19542 -2.1996,-2.19958 -2.1996,-0.5499 -295.6557,0 -2.1956,0.5499 -1.6497,2.19958 -0.55,2.19542 0,295.65595 z m -6.5943,0 1.0997,3.84509 2.1996,3.84927 3.845,2.19958 3.8453,1.09562 295.6557,0 4.3992,-1.09562 3.8453,-2.19958 2.1995,-3.84927 1.0998,-3.84509 0,-295.65595 -1.0998,-4.395 -2.1995,-3.84926 -3.8453,-2.19542 -4.3992,-1.10395 -295.6557,0 -3.8453,1.10395 -3.845,2.19542 -2.1996,3.84926 -1.0997,4.395 0,295.65595"
     style="fill:#ffffff;fill-opacity:1;fill-rule:evenodd;stroke:none"
     id="path3139" />
</svg>
