<?xml version="1.0" encoding="UTF-8" standalone="no"?>
<!-- Created with Inkscape (http://www.inkscape.org/) -->

<svg
   xmlns:dc="http://purl.org/dc/elements/1.1/"
   xmlns:cc="http://creativecommons.org/ns#"
   xmlns:rdf="http://www.w3.org/1999/02/22-rdf-syntax-ns#"
   xmlns:svg="http://www.w3.org/2000/svg"
   xmlns="http://www.w3.org/2000/svg"
   xmlns:sodipodi="http://sodipodi.sourceforge.net/DTD/sodipodi-0.dtd"
   xmlns:inkscape="http://www.inkscape.org/namespaces/inkscape"
   version="1.0"
   width="324.78885"
   height="324.08469"
   id="svg2"
   sodipodi:version="0.32"
   inkscape:version="0.48.2 r9819"
   sodipodi:docname="Chile IAA-1.svg"
   inkscape:output_extension="org.inkscape.output.svg.inkscape">
  <metadata
     id="metadata12">
    <rdf:RDF>
      <cc:Work
         rdf:about="">
        <dc:format>image/svg+xml</dc:format>
        <dc:type
           rdf:resource="http://purl.org/dc/dcmitype/StillImage" />
        <dc:title></dc:title>
      </cc:Work>
    </rdf:RDF>
  </metadata>
  <sodipodi:namedview
     inkscape:window-height="1003"
     inkscape:window-width="1280"
     inkscape:pageshadow="2"
     inkscape:pageopacity="0.0"
     guidetolerance="10.0"
     gridtolerance="10.0"
     objecttolerance="10.0"
     borderopacity="1.0"
     bordercolor="#666666"
     pagecolor="#ffffff"
     id="base"
     inkscape:zoom="0.87999999"
     inkscape:cx="116.7248"
     inkscape:cy="130.31398"
     inkscape:window-x="-4"
     inkscape:window-y="-4"
     inkscape:current-layer="svg2"
     width="200px"
     height="200px"
     showgrid="false"
     inkscape:showpageshadow="false"
     inkscape:window-maximized="0"
     fit-margin-top="0"
     fit-margin-left="0"
     fit-margin-right="0"
     fit-margin-bottom="0"
     showguides="true"
     inkscape:guide-bbox="true" />
  <defs
     id="defs4" />
  <path
     inkscape:connector-curvature="0"
     d="m 0,309.80149 1.10416,5.49578 3.29997,4.39163 4.40413,3.29997 5.50412,1.09582 296.16411,0 5.50411,-1.09582 4.95413,-3.29997 2.74997,-4.39163 1.10416,-5.49578 0,-295.51828 L 323.6847,8.7915907 320.93473,3.8458001 315.9806,1.0999904 310.47649,0 14.31238,0 8.80826,1.0999904 4.40413,3.8458001 1.10416,8.7915907 0,14.28321 0,309.80149"
     style="fill:#244ba6;fill-opacity:1;fill-rule:evenodd;stroke:none"
     id="path3193" />
  <path
     inkscape:connector-curvature="0"
     d="m 9.90825,309.80149 0.55416,2.1958 1.64999,1.64999 2.19998,0.55 296.16411,0 2.19997,-0.55 2.19998,-1.64999 0.55417,-2.1958 0,-295.51828 -0.55417,-2.195815 -2.19998,-2.1958139 -2.19997,-0.5499952 -296.16411,0 -2.19998,0.5499952 -1.64999,2.1958139 -0.55416,2.195815 0,295.51828 z m -6.60411,0 1.09999,3.84579 2.20414,3.84164 3.85414,2.19998 3.84997,1.09999 296.16411,0 4.39995,-1.09999 3.85414,-2.19998 2.20415,-3.84164 1.09999,-3.84579 0,-295.51828 -1.09999,-4.3916289 -2.20415,-3.8458 -3.85414,-2.199981 -4.39995,-1.0999905 -296.16411,0 -3.84997,1.0999905 -3.85414,2.199981 -2.20414,3.8458 -1.09999,4.3916289 0,295.51828"
     style="fill:#ffffff;fill-opacity:1;fill-rule:evenodd;stroke:none"
     id="path3195" />
  <path
     inkscape:connector-curvature="0"
     d="m 169.5527,160.99028 0,110.91153 106.24075,0 -51.74539,-133.47801 -29.40807,-3.12497 -25.08729,25.69145"
     style="fill:#ffffff;fill-opacity:1;fill-rule:nonzero;stroke:none"
     id="path3201" />
  <path
     inkscape:connector-curvature="0"
     d="m 206.67322,91.745041 -16.20404,-39.562158 -20.91648,-0.549995 0,46.691263 28.71642,0 8.4041,-6.57911"
     style="fill:#ffffff;fill-opacity:1;fill-rule:nonzero;stroke:none"
     id="path3207" />
  <path
     inkscape:connector-curvature="0"
     d="m 67.16192,225.21471 34.12887,-86.79091 26.97477,-2.74581 27.52476,-0.55 0,136.77382 -92.48253,0 3.85413,-46.6871"
     style="fill:#ffffff;fill-opacity:1;fill-rule:nonzero;stroke:none"
     id="path3209" />
  <path
     inkscape:connector-curvature="0"
     d="m 166.24857,127.4364 -10.45825,0 -26.42477,0.55415 -26.42477,2.74581 -26.42061,3.84164 0,-27.46226 79.27015,0 31.37473,0.0458 61.65364,-0.0458 0,27.46226 -42.38714,-5.49162 -40.18298,-1.64998"
     style="fill:#ffffff;fill-opacity:1;fill-rule:nonzero;stroke:none"
     id="path3211" />
  <path
     inkscape:connector-curvature="0"
     d="m 155.79032,98.324151 -39.63716,0 18.71651,-46.141268 20.92065,-0.549995 0,46.691263"
     style="fill:#ffffff;fill-opacity:1;fill-rule:evenodd;stroke:none"
     id="path3213" />
  <path
     inkscape:connector-curvature="0"
     d="M 30.27891,262.0144 51.74539,283.43504 284.05172,51.087059 264.23522,30.762235 30.27891,262.0144"
     style="fill:#ef2c30;fill-opacity:1;fill-rule:evenodd;stroke:none"
     id="path3215" />
</svg>
