<?xml version="1.0" encoding="UTF-8" standalone="no"?>
<!-- Created with Inkscape (http://www.inkscape.org/) -->

<svg
   xmlns:dc="http://purl.org/dc/elements/1.1/"
   xmlns:cc="http://creativecommons.org/ns#"
   xmlns:rdf="http://www.w3.org/1999/02/22-rdf-syntax-ns#"
   xmlns:svg="http://www.w3.org/2000/svg"
   xmlns="http://www.w3.org/2000/svg"
   xmlns:sodipodi="http://sodipodi.sourceforge.net/DTD/sodipodi-0.dtd"
   xmlns:inkscape="http://www.inkscape.org/namespaces/inkscape"
   version="1.0"
   width="324.52621"
   height="324.24289"
   id="svg2"
   sodipodi:version="0.32"
   inkscape:version="0.48.2 r9819"
   sodipodi:docname="Chile IAA-4.svg"
   inkscape:output_extension="org.inkscape.output.svg.inkscape">
  <metadata
     id="metadata12">
    <rdf:RDF>
      <cc:Work
         rdf:about="">
        <dc:format>image/svg+xml</dc:format>
        <dc:type
           rdf:resource="http://purl.org/dc/dcmitype/StillImage" />
        <dc:title></dc:title>
      </cc:Work>
    </rdf:RDF>
  </metadata>
  <sodipodi:namedview
     inkscape:window-height="1003"
     inkscape:window-width="1280"
     inkscape:pageshadow="2"
     inkscape:pageopacity="0.0"
     guidetolerance="10.0"
     gridtolerance="10.0"
     objecttolerance="10.0"
     borderopacity="1.0"
     bordercolor="#666666"
     pagecolor="#ffffff"
     id="base"
     inkscape:zoom="1.4142136"
     inkscape:cx="85.420866"
     inkscape:cy="151.20709"
     inkscape:window-x="-4"
     inkscape:window-y="-4"
     inkscape:current-layer="svg2"
     width="200px"
     height="200px"
     showgrid="false"
     inkscape:showpageshadow="false"
     inkscape:window-maximized="0"
     fit-margin-top="0"
     fit-margin-left="0"
     fit-margin-right="0"
     fit-margin-bottom="0"
     showguides="true"
     inkscape:guide-bbox="true" />
  <defs
     id="defs4" />
  <path
     inkscape:connector-curvature="0"
     d="m 0,309.94959 1.09981,5.49486 3.30359,4.39923 4.39922,3.29525 5.49904,1.10397 295.9229,0 5.5032,-1.10397 4.94912,-3.29525 2.74952,-4.39923 1.09981,-5.49486 0,-295.656273 L 323.4264,8.794285 320.67688,3.849323 315.72776,1.103973 310.22456,0 14.30166,0 8.80262,1.103973 4.4034,3.849323 1.09981,8.794285 0,14.293317 0,309.94959"
     style="fill:#244ba6;fill-opacity:1;fill-rule:evenodd;stroke:none"
     id="path4381" />
  <path
     inkscape:connector-curvature="0"
     d="m 9.90243,309.94959 0.5499,2.19961 1.64971,1.64971 2.19962,0.5499 295.9229,0 2.20377,-0.5499 2.19962,-1.64971 0.5499,-2.19961 0,-295.656273 -0.5499,-2.199612 -2.19962,-2.199614 -2.20377,-0.549903 -295.9229,0 -2.19962,0.549903 -1.64971,2.199614 -0.5499,2.199612 0,295.656273 z m -6.59884,0 1.09981,3.84932 2.19961,3.84516 3.84932,2.19961 3.84933,1.09564 295.9229,0 4.40339,-1.09564 3.84932,-2.19961 2.19961,-3.84516 1.09981,-3.84932 0,-295.656273 -1.09981,-4.399226 -2.19961,-3.845156 -3.84932,-2.199612 -4.40339,-1.099807 -295.9229,0 -3.84933,1.099807 -3.84932,2.199612 -2.19961,3.845156 -1.09981,4.399226 0,295.656273"
     style="fill:#ffffff;fill-opacity:1;fill-rule:evenodd;stroke:none"
     id="path4383" />
  <path
     inkscape:connector-curvature="0"
     d="m 140.88354,140.42944 -4.4034,4.39923 -2.74952,6.04477 -2.7495,15.38895 0,15.93886 1.6497,15.9347 8.25272,0 0,-57.70651 z m 116.05873,131.89344 -21.4504,-58.80214 20.35059,-10.98973 19.25078,-13.73925 3.84932,-2.74951 3.29942,-3.29526 2.75369,-3.29526 2.74951,-3.30358 1.64971,-4.39089 2.19962,-7.69448 0,-4.39922 -0.54991,-3.84516 -0.5499,-4.39923 -1.64971,-3.84098 -2.19962,-3.85349 -2.19961,-3.29526 -6.603,-6.59051 -3.84933,-2.74951 -3.84932,-2.19961 -4.95329,-1.64972 -21.4504,-8.24437 -22.00028,-5.49071 -22.55437,-3.84932 -23.1001,-1.64971 -23.10427,1.09981 -22.55019,2.74535 -10.45232,2.19961 -9.89826,3.84932 -8.80262,5.49487 -7.69865,7.14041 -6.603,8.24438 -4.94913,9.34836 -3.29942,10.43982 -8.25271,46.70845 -21.45039,0 49.50378,51.10766 56.65669,-51.10766 -28.05339,0 -2.74952,-14.28499 -0.5499,-13.73924 0.5499,-14.29332 2.74952,-13.73508 2.74952,-7.14458 4.94912,-5.4907 6.05311,-3.85349 6.59883,-2.74535 7.70281,0 18.70088,-0.5499 18.70088,1.64971 18.70087,3.29941 18.15097,4.94497 17.60107,6.5905 3.84932,3.29943 2.75368,2.74534 1.64971,3.29943 0.5499,3.29941 -0.5499,3.84516 -2.19961,3.29525 -3.30358,3.29942 -3.84933,2.74952 -4.94913,2.74535 -6.0531,2.19961 -12.09787,3.84516 -14.30165,-40.11794 -18.15097,-2.74535 -17.60106,-1.09564 -18.15097,0.54573 0,61.00177 18.70087,0 -18.70087,17.0345 0,57.7065 102.30698,-0.55407 z m -116.05873,-45.0629 0,45.61697 -107.8102,0 20.90049,-52.76154 44.55466,46.1627 42.35505,-39.01813 z m -11.55214,-122.54925 -13.20184,3.29525 -12.10204,5.49903 -10.99806,8.24022 26.39952,-67.592264 21.45456,0 0,48.908054 -11.55214,1.64971 z m 64.90524,-2.74535 -19.80068,-0.55407 -19.80067,0.55407 0,-47.812414 21.45038,0 18.15097,47.812414"
     style="fill:#ffffff;fill-opacity:1;fill-rule:evenodd;stroke:none"
     id="path4385" />
</svg>
