<?xml version="1.0" encoding="UTF-8" standalone="no"?>
<!-- Created with Inkscape (http://www.inkscape.org/) -->

<svg
   xmlns:dc="http://purl.org/dc/elements/1.1/"
   xmlns:cc="http://creativecommons.org/ns#"
   xmlns:rdf="http://www.w3.org/1999/02/22-rdf-syntax-ns#"
   xmlns:svg="http://www.w3.org/2000/svg"
   xmlns="http://www.w3.org/2000/svg"
   xmlns:sodipodi="http://sodipodi.sourceforge.net/DTD/sodipodi-0.dtd"
   xmlns:inkscape="http://www.inkscape.org/namespaces/inkscape"
   version="1.0"
   width="324.29025"
   height="324.78189"
   id="svg2"
   sodipodi:version="0.32"
   inkscape:version="0.48.2 r9819"
   sodipodi:docname="Chile IAA-3.svg"
   inkscape:output_extension="org.inkscape.output.svg.inkscape">
  <metadata
     id="metadata12">
    <rdf:RDF>
      <cc:Work
         rdf:about="">
        <dc:format>image/svg+xml</dc:format>
        <dc:type
           rdf:resource="http://purl.org/dc/dcmitype/StillImage" />
        <dc:title></dc:title>
      </cc:Work>
    </rdf:RDF>
  </metadata>
  <sodipodi:namedview
     inkscape:window-height="1003"
     inkscape:window-width="1280"
     inkscape:pageshadow="2"
     inkscape:pageopacity="0.0"
     guidetolerance="10.0"
     gridtolerance="10.0"
     objecttolerance="10.0"
     borderopacity="1.0"
     bordercolor="#666666"
     pagecolor="#ffffff"
     id="base"
     inkscape:zoom="1.4142136"
     inkscape:cx="133.77664"
     inkscape:cy="67.247324"
     inkscape:window-x="-4"
     inkscape:window-y="-4"
     inkscape:current-layer="svg2"
     width="200px"
     height="200px"
     showgrid="false"
     inkscape:showpageshadow="false"
     inkscape:window-maximized="0"
     fit-margin-top="0"
     fit-margin-left="0"
     fit-margin-right="0"
     fit-margin-bottom="0"
     showguides="true"
     inkscape:guide-bbox="true" />
  <defs
     id="defs4" />
  <path
     inkscape:connector-curvature="0"
     d="m 0,310.46963 1.09998,5.50824 3.29578,4.39993 4.39992,3.30411 5.49575,1.09998 295.70738,0 5.49575,-1.09998 4.94574,-3.30411 2.74996,-4.39993 1.09998,-5.50824 0,-296.15737 L 323.19026,8.80402 320.4403,3.8541 315.49456,1.09998 309.99881,0 14.29143,0 8.79568,1.09998 4.39576,3.8541 1.09998,8.80402 0,14.31226 0,310.46963"
     style="fill:#244ba6;fill-opacity:1;fill-rule:evenodd;stroke:none"
     id="path3335" />
  <path
     inkscape:connector-curvature="0"
     d="m 9.89566,310.46963 0.54583,2.20413 1.64997,1.64997 2.19997,0.54583 295.70738,0 2.1958,-0.54583 2.19996,-1.64997 0.55,-2.20413 0,-296.15737 -0.55,-2.19997 -2.19996,-2.20412 -2.1958,-0.55 -295.70738,0 -2.19997,0.55 -1.64997,2.20412 -0.54583,2.19997 0,296.15737 z m -6.59571,0 1.09581,3.8541 2.19997,3.84993 3.84576,2.20414 3.84994,1.10414 295.70738,0 4.39576,-1.10414 3.84993,-2.20414 2.1958,-3.84993 1.09998,-3.8541 0,-296.15737 -1.09998,-4.40409 -2.1958,-3.85411 -3.84993,-2.19996 -4.39576,-1.10414 -295.70738,0 -3.84994,1.10414 -3.84576,2.19996 -2.19997,3.85411 -1.09581,4.40409 0,296.15737"
     style="fill:#ffffff;fill-opacity:1;fill-rule:evenodd;stroke:none"
     id="path3337" />
  <path
     inkscape:connector-curvature="0"
     d="m 272.11614,161.71388 -9.8915,13.76226 -8.79568,14.31224 -6.59572,15.96223 -5.49573,15.96639 16.48721,50.64496 -95.63585,0 0,-147.53078 46.17003,0 14.29143,44.5909 9.3415,-4.40826 8.24569,-7.15404 8.79569,-15.41224 -17.04138,-14.31642 50.56996,-4.39992 4.39575,50.64079 -14.8414,-12.65811 z M 162.73886,52.71992 l 19.78715,0 15.3914,37.982683 -35.17855,0 0,-37.982683 z m -12.64145,0 -19.78716,0 -15.3914,37.982683 35.17856,0 0,-37.982683 z m 78.04865,67.70717 -28.58283,-3.30411 -28.57868,-2.19996 -29.13283,0 -28.57868,2.19996 -28.58283,3.8541 0,-23.670424 143.45585,0 0,23.670424 0,-0.54999 z M 71.49877,221.717 l 32.97859,-96.88582 46.17004,0 0,147.53078 -95.64002,0 16.49139,-50.64496"
     style="fill:#ffffff;fill-opacity:1;fill-rule:evenodd;stroke:none"
     id="path3339" />
</svg>
