<?xml version="1.0" encoding="UTF-8" standalone="no"?>
<!-- Created with Inkscape (http://www.inkscape.org/) -->

<svg
   xmlns:dc="http://purl.org/dc/elements/1.1/"
   xmlns:cc="http://creativecommons.org/ns#"
   xmlns:rdf="http://www.w3.org/1999/02/22-rdf-syntax-ns#"
   xmlns:svg="http://www.w3.org/2000/svg"
   xmlns="http://www.w3.org/2000/svg"
   xmlns:sodipodi="http://sodipodi.sourceforge.net/DTD/sodipodi-0.dtd"
   xmlns:inkscape="http://www.inkscape.org/namespaces/inkscape"
   version="1.0"
   width="324.78949"
   height="324.78531"
   id="svg2"
   sodipodi:version="0.32"
   inkscape:version="0.48.2 r9819"
   sodipodi:docname="Chile IAA-5.svg"
   inkscape:output_extension="org.inkscape.output.svg.inkscape">
  <metadata
     id="metadata12">
    <rdf:RDF>
      <cc:Work
         rdf:about="">
        <dc:format>image/svg+xml</dc:format>
        <dc:type
           rdf:resource="http://purl.org/dc/dcmitype/StillImage" />
        <dc:title></dc:title>
      </cc:Work>
    </rdf:RDF>
  </metadata>
  <sodipodi:namedview
     inkscape:window-height="1003"
     inkscape:window-width="1280"
     inkscape:pageshadow="2"
     inkscape:pageopacity="0.0"
     guidetolerance="10.0"
     gridtolerance="10.0"
     objecttolerance="10.0"
     borderopacity="1.0"
     bordercolor="#666666"
     pagecolor="#ffffff"
     id="base"
     inkscape:zoom="1.4142136"
     inkscape:cx="109.09858"
     inkscape:cy="126.54971"
     inkscape:window-x="-4"
     inkscape:window-y="-4"
     inkscape:current-layer="svg2"
     width="200px"
     height="200px"
     showgrid="false"
     inkscape:showpageshadow="false"
     inkscape:window-maximized="0"
     fit-margin-top="0"
     fit-margin-left="0"
     fit-margin-right="0"
     fit-margin-bottom="0"
     showguides="true"
     inkscape:guide-bbox="true" />
  <defs
     id="defs4" />
  <path
     inkscape:connector-curvature="0"
     d="m 0,310.4729 1.10416,5.50413 3.299977,4.40414 4.404137,3.30414 5.50413,1.09999 296.164676,0 5.50413,-1.09999 4.95413,-3.30414 2.75415,-4.40414 1.09999,-5.50413 0,-296.160496 -1.09999,-5.50413 -2.75415,-4.9583 L 315.98121,1.099993 310.47708,0 14.312404,0 8.808274,1.099993 4.404137,3.849974 1.10416,8.808274 0,14.312404 0,310.4729"
     style="fill:#244ba6;fill-opacity:1;fill-rule:evenodd;stroke:none"
     id="path4439" />
  <path
     inkscape:connector-curvature="0"
     d="m 9.912433,310.4729 0.549996,2.20415 1.649989,1.65 2.199986,0.55416 296.164676,0 2.19998,-0.55416 2.20416,-1.65 0.54999,-2.20415 0,-296.160496 -0.54999,-2.199986 -2.20416,-2.204151 -2.19998,-0.549996 -296.164676,0 -2.199986,0.549996 -1.649989,2.204151 -0.549996,2.199986 0,296.160496 z m -6.608288,0 1.099992,3.85415 2.204152,3.85414 3.85414,2.19998 3.849975,1.10416 296.164676,0 4.40414,-1.10416 3.84997,-2.19998 2.20415,-3.85414 1.1,-3.85415 0,-296.160496 -1.1,-4.404137 -2.20415,-3.854141 -3.84997,-2.204152 -4.40414,-1.095825 -296.164676,0 -3.849975,1.095825 -3.85414,2.204152 -2.204152,3.854141 -1.099992,4.404137 0,296.160496"
     style="fill:#ffffff;fill-opacity:1;fill-rule:evenodd;stroke:none"
     id="path4441" />
  <path
     inkscape:connector-curvature="0"
     d="m 123.47833,42.374714 85.32444,0 0,23.120677 -62.75792,0 0,35.778929 43.49137,0 0,22.57068 -43.49137,0 0,41.83722 66.61206,0 0,23.12067 -89.17858,0 0,-146.428176"
     style="fill:#ffffff;fill-opacity:1;fill-rule:nonzero;stroke:none"
     id="path4443" />
  <path
     inkscape:connector-curvature="0"
     d="m 161.11558,255.4566 0,-28.6248 -11.00825,3.85414 0,55.04963 11.00825,0 0,-13.76241 5.50413,-6.05413 9.35826,19.81654 12.11243,0 -13.76241,-28.62481 13.76241,-15.41239 -14.8624,0 -12.11242,13.75823 0,-28.6248 0,28.6248"
     style="fill:#ffffff;fill-opacity:1;fill-rule:evenodd;stroke:none"
     id="path4445" />
  <path
     inkscape:connector-curvature="0"
     d="m 86.799409,259.86074 -5.50412,2.20415 -4.95413,3.85414 -4.40415,4.95414 -2.75414,5.50413 29.17897,0 0,9.35827 -39.63723,0 0.54999,-7.70829 2.75415,-7.70411 3.85414,-6.60828 4.95413,-5.5083 6.60413,-4.39997 7.15828,-2.75415 3.29998,-2.19998 1.65415,-3.85415 -0.54999,-3.85414 -2.20416,-3.30415 -3.85414,-2.19998 -4.40413,-0.54999 -4.39997,1.10415 -3.85414,3.29998 -2.20416,4.39997 -8.80827,-2.19581 2.75415,-6.0583 4.40414,-4.95413 5.50412,-3.30414 6.60413,-1.1 7.15828,1.1 6.60413,3.30414 3.85414,4.40414 2.20415,6.05412 0,5.50413 -2.20415,6.05412 -3.85414,4.40831 -5.50414,2.74998"
     style="fill:#ffffff;fill-opacity:1;fill-rule:nonzero;stroke:none"
     id="path4447" />
  <path
     inkscape:connector-curvature="0"
     d="m 266.26071,259.31492 -1.65416,-7.71246 -3.30414,-5.50412 -5.50413,-3.84998 -6.60412,-1.10416 -6.60829,1.65416 -4.95413,3.84997 -4.40414,-3.29998 -5.50413,-2.20415 -5.50413,0 -4.95414,2.20415 0,-1.64998 -11.00826,0 0,44.0372 11.00826,0 0,-26.42065 0.55,-3.30415 2.75415,-2.20415 3.29998,-1.10417 3.30414,1.10417 2.75415,2.20415 0.55,3.30415 0,26.42065 11.00826,0 0,-26.42065 1.09999,-3.30415 2.20415,-2.20415 3.85414,-1.10417 3.29998,1.10417 2.20415,2.20415 1.1,3.30415 0,26.42065 11.01242,0 0,-26.42065"
     style="fill:#ffffff;fill-opacity:1;fill-rule:evenodd;stroke:none"
     id="path4449" />
</svg>
