<?xml version="1.0" encoding="UTF-8" standalone="no"?>
<!-- Created with Inkscape (http://www.inkscape.org/) -->

<svg
   xmlns:dc="http://purl.org/dc/elements/1.1/"
   xmlns:cc="http://creativecommons.org/ns#"
   xmlns:rdf="http://www.w3.org/1999/02/22-rdf-syntax-ns#"
   xmlns:svg="http://www.w3.org/2000/svg"
   xmlns="http://www.w3.org/2000/svg"
   xmlns:sodipodi="http://sodipodi.sourceforge.net/DTD/sodipodi-0.dtd"
   xmlns:inkscape="http://www.inkscape.org/namespaces/inkscape"
   version="1.0"
   width="324.25098"
   height="324.74673"
   id="svg2"
   sodipodi:version="0.32"
   inkscape:version="0.48.2 r9819"
   sodipodi:docname="Chile IAA-2.svg"
   inkscape:output_extension="org.inkscape.output.svg.inkscape">
  <metadata
     id="metadata12">
    <rdf:RDF>
      <cc:Work
         rdf:about="">
        <dc:format>image/svg+xml</dc:format>
        <dc:type
           rdf:resource="http://purl.org/dc/dcmitype/StillImage" />
        <dc:title></dc:title>
      </cc:Work>
    </rdf:RDF>
  </metadata>
  <sodipodi:namedview
     inkscape:window-height="1003"
     inkscape:window-width="1280"
     inkscape:pageshadow="2"
     inkscape:pageopacity="0.0"
     guidetolerance="10.0"
     gridtolerance="10.0"
     objecttolerance="10.0"
     borderopacity="1.0"
     bordercolor="#666666"
     pagecolor="#ffffff"
     id="base"
     inkscape:zoom="1.4142136"
     inkscape:cx="117.2247"
     inkscape:cy="184.83925"
     inkscape:window-x="-4"
     inkscape:window-y="-4"
     inkscape:current-layer="svg2"
     width="200px"
     height="200px"
     showgrid="false"
     inkscape:showpageshadow="false"
     inkscape:window-maximized="0"
     fit-margin-top="0"
     fit-margin-left="0"
     fit-margin-right="0"
     fit-margin-bottom="0"
     showguides="true"
     inkscape:guide-bbox="true" />
  <defs
     id="defs4" />
  <path
     inkscape:connector-curvature="0"
     d="m 0,310.43602 1.095695,5.50347 3.299587,4.40362 4.39528,3.30375 5.495144,1.09986 295.675394,0 5.49515,-1.09986 4.94937,-3.30375 2.74549,-4.40362 1.09986,-5.50347 0,-296.12949 L 323.15111,8.80306 320.40562,3.85367 315.45625,1.09986 309.9611,0 14.285706,0 8.790562,1.09986 4.395282,3.85367 1.095695,8.80306 0,14.30653 0,310.43602"
     style="fill:#244ba6;fill-opacity:1;fill-rule:evenodd;stroke:none"
     id="path3269" />
  <path
     inkscape:connector-curvature="0"
     d="m 9.890425,310.43602 0.549931,2.19972 1.649793,1.65397 2.195557,0.54993 295.675394,0 2.19972,-0.54993 2.19973,-1.65397 0.54576,-2.19972 0,-296.12949 -0.54576,-2.19972 -2.19973,-2.19973 -2.19972,-0.54992 -295.675394,0 -2.195557,0.54992 -1.649793,2.19973 -0.549931,2.19972 0,296.12949 z m -6.595006,0 1.099863,3.85369 2.199723,3.84951 3.845351,2.20389 3.84535,1.09986 295.675394,0 4.39945,-1.09986 3.84535,-2.20389 2.19972,-3.84951 1.0957,-3.85369 0,-296.12949 -1.0957,-4.39945 -2.19972,-3.85368 -3.84535,-2.19973 -4.39945,-1.10402 -295.675394,0 -3.84535,1.10402 -3.845351,2.19973 -2.199723,3.85368 -1.099863,4.39945 0,296.12949"
     style="fill:#ffffff;fill-opacity:1;fill-rule:evenodd;stroke:none"
     id="path3271" />
  <path
     inkscape:connector-curvature="0"
     d="m 297.82929,145.69837 -6.595,-56.69288 -57.70527,6.053406 21.43482,17.064524 -8.79474,11.01112 -10.44035,9.90292 -12.09015,7.70737 -33.52496,-88.06811 -21.98474,0 0,219.61825 106.61996,0 -25.8301,-67.70399 -0.54993,-9.35299 0.54993,-8.80723 2.19556,-8.80723 28.02982,-46.23586 18.68515,14.3107 z m -164.32521,-93.02165 21.43481,0 0,219.61825 -107.719818,0 86.285008,-219.61825"
     style="fill:#ffffff;fill-opacity:1;fill-rule:evenodd;stroke:none"
     id="path3273" />
</svg>
