<?xml version="1.0" encoding="UTF-8" standalone="no"?>
<!-- Created with Inkscape (http://www.inkscape.org/) -->

<svg
   xmlns:dc="http://purl.org/dc/elements/1.1/"
   xmlns:cc="http://creativecommons.org/ns#"
   xmlns:rdf="http://www.w3.org/1999/02/22-rdf-syntax-ns#"
   xmlns:svg="http://www.w3.org/2000/svg"
   xmlns="http://www.w3.org/2000/svg"
   xmlns:sodipodi="http://sodipodi.sourceforge.net/DTD/sodipodi-0.dtd"
   xmlns:inkscape="http://www.inkscape.org/namespaces/inkscape"
   id="svg17624"
   version="1.1"
   inkscape:version="0.48.2 r9819"
   width="679.17218"
   height="270.25626"
   xml:space="preserve"
   sodipodi:docname="Chile ID-1a.svg"><metadata
     id="metadata17630"><rdf:RDF><cc:Work
         rdf:about=""><dc:format>image/svg+xml</dc:format><dc:type
           rdf:resource="http://purl.org/dc/dcmitype/StillImage" /><dc:title></dc:title></cc:Work></rdf:RDF></metadata><defs
     id="defs17628"><inkscape:perspective
       sodipodi:type="inkscape:persp3d"
       inkscape:vp_x="0 : 0.5 : 1"
       inkscape:vp_y="0 : 1000 : 0"
       inkscape:vp_z="1 : 0.5 : 1"
       inkscape:persp3d-origin="0.5 : 0.33333333 : 1"
       id="perspective17632" /><clipPath
       clipPathUnits="userSpaceOnUse"
       id="clipPath17642"><path
         d="m -2,710 501,0 0,-711 -501,0 0,711 z"
         id="path17644"
         inkscape:connector-curvature="0" /></clipPath><clipPath
       clipPathUnits="userSpaceOnUse"
       id="clipPath17648"><path
         d="m 0,708.06 498,0 0,-708 -498,0 0,708 z"
         id="path17650"
         inkscape:connector-curvature="0" /></clipPath><clipPath
       clipPathUnits="userSpaceOnUse"
       id="clipPath17798"><path
         d="m -2,710 501,0 0,-711 -501,0 0,711 z"
         id="path17800"
         inkscape:connector-curvature="0" /></clipPath><clipPath
       clipPathUnits="userSpaceOnUse"
       id="clipPath17804"><path
         d="m 0,708.06 498,0 0,-708 -498,0 0,708 z"
         id="path17806"
         inkscape:connector-curvature="0" /></clipPath></defs><sodipodi:namedview
     pagecolor="#ffffff"
     bordercolor="#666666"
     borderopacity="1"
     objecttolerance="10"
     gridtolerance="10"
     guidetolerance="10"
     inkscape:pageopacity="0"
     inkscape:pageshadow="2"
     inkscape:window-width="1280"
     inkscape:window-height="1004"
     id="namedview17626"
     showgrid="false"
     inkscape:zoom="0.70710678"
     inkscape:cx="326.85191"
     inkscape:cy="108.52353"
     inkscape:window-x="-8"
     inkscape:window-y="-8"
     inkscape:window-maximized="1"
     inkscape:current-layer="g17634"
     fit-margin-top="0"
     fit-margin-left="0"
     fit-margin-right="0"
     fit-margin-bottom="0"
     showguides="true"
     inkscape:guide-bbox="true" /><g
     id="g17634"
     inkscape:groupmode="layer"
     inkscape:label="GG1999P002"
     transform="matrix(1.25,0,0,-1.25,-1040.6395,749.94209)"><path
       inkscape:connector-curvature="0"
       d="m 1371.2557,482.65552 3.4469,4.60033 1.1467,4.59364 -1.1467,4.60032 -3.4469,4.60033 -142.4399,98.90353 -377.92629,0 -9.19064,-2.30016 -6.89048,-6.90047 -2.29682,-8.05056 0,-185.1462 2.29682,-6.90048 4.59365,-5.7504 6.89381,-1.15674 382.51995,0 142.4399,98.90686"
       style="fill:#00a888;fill-opacity:1;fill-rule:nonzero;stroke:none"
       id="path4132" /><path
       inkscape:connector-curvature="0"
       d="m 1212.7347,405.60684 8.0405,-10.35072 140.1431,96.59337 -140.1431,97.75347 -8.0405,-11.5008 124.0585,-86.25267 -124.0585,-86.24265"
       style="fill:#ffffff;fill-opacity:1;fill-rule:nonzero;stroke:none"
       id="path4134" /><path
       inkscape:connector-curvature="0"
       d="m 876.16126,474.5983 3.44691,-6.89381 4.59365,-5.7504 6.89381,-3.45025 8.04056,-1.15007 8.04056,1.15007 8.04056,4.60033 4.59366,6.89381 2.30015,8.05722 -2.30015,9.20065 -5.74374,6.89381 -9.1873,3.45691 -10.34072,2.29349 -3.44358,2.30016 -1.15007,4.60032 1.15007,4.60032 2.29683,3.45023 4.59365,1.15008 6.89382,-1.15008 4.59364,-5.7504 10.3374,2.30017 -3.44358,6.90048 -5.74373,5.7504 -6.89381,2.30016 -6.89048,1.15007 -6.89381,-2.30015 -5.74374,-4.60033 -3.4469,-6.90047 -2.29683,-6.90048 2.29683,-8.05056 4.59698,-5.74373 6.89048,-3.45691 10.34072,-2.29349 5.7404,-3.45025 2.30016,-5.7504 -2.30016,-6.90714 -4.59365,-2.29349 -4.59366,-1.15008 -5.74373,1.15008 -4.59698,3.45024 -3.44358,5.75039 -9.19064,-3.4569 z m 221.70204,-16.09446 9.1873,1.15009 8.0439,5.74373 5.7437,6.90715 3.4436,12.6442 0,13.80097 -3.4436,12.65088 -5.7437,8.05056 -8.0439,4.60032 -9.1873,2.30016 -18.3812,0 0,-67.84806 18.3812,0 z m 0,10.35073 8.0406,2.29349 4.5936,5.75706 3.4469,10.35073 0,10.35072 -3.4469,9.19397 -4.5936,5.7504 -8.0406,2.30015 -8.0405,0 0,-45.99652 8.0405,0 z m 73.5185,18.40128 -6.8938,19.54469 -6.8938,-19.54469 13.7876,0 z m -172.30866,39.09605 10.33736,0 0,-57.49733 31.0155,0 0,-10.35073 -41.35286,0 0,67.84806 z m 53.99036,0 10.3375,0 0,-67.84806 -10.3375,0 0,67.84806 z m 106.8308,0 10.3374,0 22.975,-67.84806 -11.4876,0 -5.7437,18.40128 -21.8248,0 -6.8939,-18.40128 -10.3373,0 22.9749,67.84806 z m -202.17403,0 9.19063,0 24.12168,-67.84806 -11.48747,0 -5.74373,18.40128 -21.82485,0 -6.89381,-18.40128 -10.33738,0 22.97493,67.84806 z m 11.48746,-39.09605 -6.89382,19.54469 -6.89048,-19.54469 13.7843,0"
       style="fill:#ffffff;fill-opacity:1;fill-rule:evenodd;stroke:none"
       id="path4136" /></g></svg>