<?xml version="1.0" encoding="UTF-8" standalone="no"?>
<!-- Created with Inkscape (http://www.inkscape.org/) -->

<svg
   xmlns:dc="http://purl.org/dc/elements/1.1/"
   xmlns:cc="http://creativecommons.org/ns#"
   xmlns:rdf="http://www.w3.org/1999/02/22-rdf-syntax-ns#"
   xmlns:svg="http://www.w3.org/2000/svg"
   xmlns="http://www.w3.org/2000/svg"
   xmlns:sodipodi="http://sodipodi.sourceforge.net/DTD/sodipodi-0.dtd"
   xmlns:inkscape="http://www.inkscape.org/namespaces/inkscape"
   version="1.0"
   width="323.8829"
   height="324.35324"
   id="svg2"
   sodipodi:version="0.32"
   inkscape:version="0.48.2 r9819"
   sodipodi:docname="AJAX1.svg"
   inkscape:output_extension="org.inkscape.output.svg.inkscape">
  <metadata
     id="metadata12">
    <rdf:RDF>
      <cc:Work
         rdf:about="">
        <dc:format>image/svg+xml</dc:format>
        <dc:type
           rdf:resource="http://purl.org/dc/dcmitype/StillImage" />
        <dc:title />
      </cc:Work>
    </rdf:RDF>
  </metadata>
  <sodipodi:namedview
     inkscape:window-height="1004"
     inkscape:window-width="1280"
     inkscape:pageshadow="2"
     inkscape:pageopacity="0.0"
     guidetolerance="10.0"
     gridtolerance="10.0"
     objecttolerance="10.0"
     borderopacity="1.0"
     bordercolor="#666666"
     pagecolor="#ffffff"
     id="base"
     inkscape:zoom="1"
     inkscape:cx="-45.251385"
     inkscape:cy="2.0060742"
     inkscape:window-x="-8"
     inkscape:window-y="-8"
     inkscape:current-layer="svg2"
     width="200px"
     height="200px"
     showgrid="false"
     inkscape:showpageshadow="false"
     inkscape:window-maximized="1"
     fit-margin-top="0"
     fit-margin-left="0"
     fit-margin-right="0"
     fit-margin-bottom="0"
     showguides="true"
     inkscape:guide-bbox="true" />
  <defs
     id="defs4" />
  <path
     inkscape:connector-curvature="0"
     d="m 0,309.85132 0.3841,4.58182 2.28504,4.19771 3.04932,3.04933 4.18988,1.90877 4.18988,0.76429 295.30628,0 4.57399,-0.76429 3.80969,-1.90877 3.42951,-3.04933 1.90485,-4.19771 0.76037,-4.58182 0,-295.349394 -0.76037,-4.193801 L 321.21769,6.1104062 317.78818,3.0532437 313.97849,0.7642903 309.4045,0 14.09822,0 9.90834,0.7642903 5.71846,3.0532437 2.66914,6.1104062 0.3841,10.308125 0,14.501926 0,309.85132"
     style="fill:#244ba6;fill-opacity:1;fill-rule:evenodd;stroke:none"
     id="path3133" />
  <path
     inkscape:connector-curvature="0"
     d="m 6.47883,309.85132 0.38019,3.05324 1.90485,2.67305 2.28895,1.90877 3.0454,0.38018 295.30628,0 3.04933,-0.38018 2.66521,-1.90877 1.52466,-2.67305 0.76429,-3.05324 0,-295.349394 -0.76429,-3.049323 -1.52466,-2.288953 -2.66521,-1.9087671 -3.04933,-0.7642903 -295.30628,0 -3.0454,0.7642903 -2.28895,1.9087671 -1.90485,2.288953 -0.38019,3.049323 0,295.349394 z m -4.57006,0 0.76037,3.81753 1.52466,3.43342 3.04932,2.67306 3.04541,1.90485 3.80969,0.38411 295.30628,0 3.8097,-0.38411 3.4295,-1.90485 2.66914,-2.67306 1.90485,-3.43342 0.38019,-3.81753 0,-295.349394 -0.38019,-3.813614 -1.90485,-3.4334291 -2.66914,-2.6730585 -3.4295,-1.5285807 -3.8097,-0.7603717 -295.30628,0 -3.80969,0.7603717 -3.04541,1.5285807 -3.04932,2.6730585 -1.52466,3.4334291 -0.76037,3.813614 0,295.349394"
     style="fill:#ffffff;fill-opacity:1;fill-rule:evenodd;stroke:none"
     id="path3135" />
  <path
     inkscape:connector-curvature="0"
     d="m 161.18303,187.74509 48.38941,-10.30421 -10.28852,48.45995 -1.14056,2.29287 -1.90485,1.14448 -2.66914,0 -1.90484,-1.14448 -1.52466,-1.90876 -1.90486,-8.01133 -62.49155,62.57778 -19.43257,-19.84414 62.11135,-62.19759 -7.62331,-2.28895 -2.28503,-1.14448 -1.14448,-2.28895 0,-2.28896 1.52466,-1.90875 2.28895,-1.14448 z m -126.50775,-74.02646 1.14448,3.81361 2.28503,3.43344 3.04933,2.67305 3.42951,2.28895 4.18988,1.52466 4.1938,0.38411 4.57007,-0.38411 4.19379,-1.90876 3.8097,-2.28895 3.04932,-3.43344 1.52075,-4.19771 0.76429,-4.19773 -1.14448,-5.72238 -2.66522,-4.962 -4.1938,-3.433436 -5.33435,-2.28896 -7.99958,-1.528578 -2.28895,-1.14448 -1.52075,-1.90484 -0.3841,-2.288957 0.3841,-2.673058 1.52075,-2.288953 2.28895,-1.908767 2.66522,-0.76429 2.66914,0 2.66522,1.144475 2.28895,1.908769 1.14055,2.673057 8.0035,-1.908767 -1.90485,-4.581826 -2.66914,-3.433428 -4.18988,-2.669138 -4.1938,-1.524663 -4.95025,0 -4.57399,1.140558 -3.80969,2.673057 -3.04932,3.43343 -1.90485,4.19772 -0.76037,4.581824 0.76037,4.577906 2.28503,4.197729 3.42951,3.04932 4.57399,1.908766 7.99957,1.52466 2.66914,1.1484 1.90485,1.52466 1.52466,2.29287 0.38019,3.04932 -0.76038,3.05325 -1.90484,2.67306 -3.04933,1.52466 -3.80969,0.76429 -4.95417,-1.14448 -3.8097,-3.05324 -2.28895,-4.19773 -7.23921,2.67307 z m 72.78008,-15.266216 0.38019,-2.28896 -0.76037,-2.288949 -1.90877,-1.14448 -2.28504,-0.384109 -6.85902,0.384109 -6.47491,2.66914 -3.81361,-7.631151 4.95417,-3.053244 5.71454,-1.908767 6.47883,-0.380186 4.95418,0.764291 4.18988,1.904849 3.42951,3.057162 2.28895,3.813617 1.14056,4.577898 0,29.764236 -11.0489,0 0,-1.14448 -3.8097,1.14448 -4.1938,0.76429 -4.18988,-0.38019 -3.8097,-1.52858 -3.42951,-1.90876 -3.04932,-3.04933 -2.28503,-3.81753 -0.76429,-4.57792 0.76429,-4.5779 2.28503,-4.20163 3.04932,-3.053246 3.8097,-1.904851 4.18988,-1.144469 4.1938,-0.38412 6.85902,1.90878 z m 106.69106,-14.882119 -5.33435,-0.764292 -4.1938,0.764292 -3.80969,1.908766 -2.66522,3.053243 -3.04933,5.342201 -1.90484,6.102569 -0.38019,5.342206 0.38019,5.3461 1.52466,5.72239 3.0454,4.95809 5.71846,4.96201 5.33436,1.52858 5.33435,-1.14448 3.8097,-1.52858 0,1.52858 11.0489,0 0,-57.619683 -11.0489,3.813614 0,12.209056 -3.8097,-1.524662 z m 0,11.448679 -2.66913,-0.764289 -2.66522,0.764289 -2.28896,1.90878 -1.52466,3.04932 -1.14055,5.342206 1.14055,5.3461 1.52466,2.66915 2.28896,1.90876 2.66522,0.76037 2.66913,-0.38018 3.8097,-2.28895 0,-16.026596 -3.8097,-2.28896 z m 54.86825,3.43344 0.38019,-2.28896 -1.14056,-2.288949 -1.90485,-1.14448 -2.28896,-0.384109 -6.85902,0.384109 -6.09472,2.66914 -3.8097,-7.631151 4.95026,-3.053244 5.33827,-1.908767 6.47491,-0.380186 5.33437,0.764291 4.19379,1.904849 3.42952,3.057162 2.28503,3.813617 0.76037,4.577898 0,29.764236 -10.66871,0 0,-1.14448 -4.18989,1.14448 -3.80969,0.76429 -4.19381,-0.38019 -3.80969,-1.52858 -3.8097,-1.90876 -3.04932,-3.04933 -1.90484,-3.81753 -1.14448,-4.57792 0.76429,-4.5779 2.66522,-4.20163 3.04932,-3.053246 3.8097,-1.904851 3.81361,-1.144469 4.18988,-0.38412 7.23921,1.90878 z m -91.06818,-22.893454 -0.76037,-2.673059 -1.90485,-1.904847 -2.66914,-0.764292 -2.66914,0.764292 -2.28503,1.904847 -0.76038,2.673059 0.76038,2.669137 2.28503,1.908768 2.66914,0.760371 2.66914,-0.760371 1.90485,-1.908768 0.76037,-2.669137 z m 91.44837,39.30415 0,-7.25097 -4.57007,-1.90877 -4.57399,0.38019 -3.04933,1.90876 -1.52466,3.43343 0.76429,2.67307 2.28503,1.90484 3.42952,1.1484 3.80969,-0.38411 3.42952,-1.90484 z m -161.55931,0 0,-7.25097 -4.18989,-1.90877 -4.95417,0.38019 -3.04932,1.90876 -1.52466,3.43343 1.14447,2.67307 1.90485,1.90484 3.8097,1.1484 3.4295,-0.38411 3.42952,-1.90484 z m 59.06203,11.82886 11.04891,0 0,-43.121675 -11.04891,0 0,43.121675 z m -29.34092,0 11.0489,0 0,-57.619683 -11.0489,3.813614 0,53.806069"
     style="fill:#ffffff;fill-opacity:1;fill-rule:evenodd;stroke:none"
     id="path3137" />
</svg>
