<?xml version="1.0" encoding="UTF-8" standalone="no"?>
<!-- Created with Inkscape (http://www.inkscape.org/) -->

<svg
   xmlns:dc="http://purl.org/dc/elements/1.1/"
   xmlns:cc="http://creativecommons.org/ns#"
   xmlns:rdf="http://www.w3.org/1999/02/22-rdf-syntax-ns#"
   xmlns:svg="http://www.w3.org/2000/svg"
   xmlns="http://www.w3.org/2000/svg"
   xmlns:sodipodi="http://sodipodi.sourceforge.net/DTD/sodipodi-0.dtd"
   xmlns:inkscape="http://www.inkscape.org/namespaces/inkscape"
   id="svg17624"
   version="1.1"
   inkscape:version="0.48.2 r9819"
   width="939.26239"
   height="709.2052"
   xml:space="preserve"
   sodipodi:docname="AJAX1.svg"><metadata
     id="metadata17630"><rdf:RDF><cc:Work
         rdf:about=""><dc:format>image/svg+xml</dc:format><dc:type
           rdf:resource="http://purl.org/dc/dcmitype/StillImage" /><dc:title></dc:title></cc:Work></rdf:RDF></metadata><defs
     id="defs17628"><inkscape:perspective
       sodipodi:type="inkscape:persp3d"
       inkscape:vp_x="0 : 0.5 : 1"
       inkscape:vp_y="0 : 1000 : 0"
       inkscape:vp_z="1 : 0.5 : 1"
       inkscape:persp3d-origin="0.5 : 0.33333333 : 1"
       id="perspective17632" /><clipPath
       clipPathUnits="userSpaceOnUse"
       id="clipPath17642"><path
         d="m -2,710 501,0 0,-711 -501,0 0,711 z"
         id="path17644"
         inkscape:connector-curvature="0" /></clipPath><clipPath
       clipPathUnits="userSpaceOnUse"
       id="clipPath17648"><path
         d="m 0,708.06 498,0 0,-708 -498,0 0,708 z"
         id="path17650"
         inkscape:connector-curvature="0" /></clipPath><clipPath
       clipPathUnits="userSpaceOnUse"
       id="clipPath17798"><path
         d="m -2,710 501,0 0,-711 -501,0 0,711 z"
         id="path17800"
         inkscape:connector-curvature="0" /></clipPath><clipPath
       clipPathUnits="userSpaceOnUse"
       id="clipPath17804"><path
         d="m 0,708.06 498,0 0,-708 -498,0 0,708 z"
         id="path17806"
         inkscape:connector-curvature="0" /></clipPath></defs><sodipodi:namedview
     pagecolor="#ffffff"
     bordercolor="#666666"
     borderopacity="1"
     objecttolerance="10"
     gridtolerance="10"
     guidetolerance="10"
     inkscape:pageopacity="0"
     inkscape:pageshadow="2"
     inkscape:window-width="1280"
     inkscape:window-height="1004"
     id="namedview17626"
     showgrid="false"
     inkscape:zoom="0.5"
     inkscape:cx="466.34177"
     inkscape:cy="308.09976"
     inkscape:window-x="-8"
     inkscape:window-y="-8"
     inkscape:window-maximized="1"
     inkscape:current-layer="g17634"
     fit-margin-top="0"
     fit-margin-left="0"
     fit-margin-right="0"
     fit-margin-bottom="0"
     showguides="true"
     inkscape:guide-bbox="true" /><g
     id="g17634"
     inkscape:groupmode="layer"
     inkscape:label="GG1999P002"
     transform="matrix(1.25,0,0,-1.25,-297.78074,423.39495)"><path
       inkscape:connector-curvature="0"
       d="m 961.69082,-228.6482 8.5401,0.78001 7.76011,3.88005 6.21009,6.20676 3.88337,7.76343 1.55002,8.53677 0,513.03346 -1.55002,8.54011 -3.88337,7.7601 -6.21009,6.20342 -7.76011,3.88339 -8.5401,0.77666 -695.5192,0 -8.54011,-0.77666 -7.76345,-3.88339 -6.21008,-6.20342 -3.88005,-7.7601 -1.55334,-8.54011 0,-513.03346 1.55334,-8.53677 3.88005,-7.76343 6.21008,-6.20676 7.76345,-3.88005 8.54011,-0.78001 695.5192,0"
       style="fill:#00a888;fill-opacity:1;fill-rule:evenodd;stroke:none"
       id="path3123" /><path
       inkscape:connector-curvature="0"
       d="m 266.17162,-220.10475 695.5192,0 7.76342,1.55002 5.43342,3.88004 3.88005,6.21009 1.55335,6.98342 0,513.03346 -1.55335,6.98342 -3.88005,6.21009 -5.43342,3.88004 -7.76342,1.55336 -695.5192,0 -6.98676,-1.55336 -6.21009,-3.88004 -3.88338,-6.21009 -1.55002,-6.98342 0,-513.03346 1.55002,-6.98342 3.88338,-6.21009 6.21009,-3.88004 6.98676,-1.55002"
       style="fill:#ffffff;fill-opacity:1;fill-rule:evenodd;stroke:none"
       id="path3125" /><path
       inkscape:connector-curvature="0"
       d="m 426.07706,318.01902 0,-84.08111 -169.6089,0 0,83.82112 169.6089,0.25999"
       style="fill:#00a888;fill-opacity:1;fill-rule:nonzero;stroke:none"
       id="path3135" /><path
       inkscape:connector-curvature="0"
       d="m 526.99173,233.93791 210.36279,0 0,84.08111 -210.36279,0 0,-84.08111 z"
       style="fill:#00a888;fill-opacity:1;fill-rule:nonzero;stroke:none"
       id="path3137" /><path
       inkscape:connector-curvature="0"
       d="m 968.1609,233.93791 -129.89505,0 0,84.08111 127.05167,0.0667 2.84338,-84.14778"
       style="fill:#00a888;fill-opacity:1;fill-rule:nonzero;stroke:none"
       id="path3139" /><path
       inkscape:connector-curvature="0"
       d="m 259.70153,-207.43124 0,340.47116 166.37553,0 0,-340.99118 -166.37553,0.52002"
       style="fill:#00a888;fill-opacity:1;fill-rule:nonzero;stroke:none"
       id="path3141" /><path
       inkscape:connector-curvature="0"
       d="m 526.99173,-22.96548 210.36279,0 0,156.0054 -210.36279,0 0,-156.0054 z"
       style="fill:#00a888;fill-opacity:1;fill-rule:nonzero;stroke:none"
       id="path3143" /><path
       inkscape:connector-curvature="0"
       d="m 838.26585,-22.96548 129.89171,0 0,156.0054 -129.89171,0 0,-156.0054 z"
       style="fill:#00a888;fill-opacity:1;fill-rule:nonzero;stroke:none"
       id="path3145" /><path
       inkscape:connector-curvature="0"
       d="m 966.61087,-208.07792 -439.61914,0.12666 0,84.08445 441.16917,0 -1.55003,-84.21111"
       style="fill:#00a888;fill-opacity:1;fill-rule:nonzero;stroke:none"
       id="path3147" /><path
       inkscape:connector-curvature="0"
       d="m 485.84785,-201.48118 0,100.90134 1.55335,6.983425 3.88006,6.210083 5.43674,3.880051 6.98342,1.553355 256.94008,0 9.31678,0.776677 8.53678,3.880051 7.76343,5.433405 6.21009,7.760102 3.10337,9.313457 1.55335,9.313456 0,201.025988 -1.55335,10.08347 -3.10337,8.54012 -6.21009,7.76009 -7.76343,5.43342 -8.53678,3.88337 -9.31678,1.55002 -334.56444,0 3.10672,12.41683 0,3.10671 -3.10672,2.32671 -3.88004,-0.77335 -38.81386,-26.39035 38.81386,-27.16702 3.88004,-0.77002 3.10672,2.32337 0,3.88004 -3.10672,12.42018 334.56444,0 6.98675,-1.55336 6.21008,-3.88005 3.88005,-6.21009 0.77668,-6.98009 0,-201.025988 -0.77668,-6.983426 -3.88005,-6.210081 -6.21008,-3.883386 -6.98675,-1.55002 -256.94008,0 -9.31345,-0.776677 -8.54012,-3.880051 -7.7601,-6.210082 -5.4334,-6.983425 -3.88339,-9.313457 -1.55336,-9.313457 0,-100.90134 18.63025,0"
       style="fill:#000000;fill-opacity:1;fill-rule:nonzero;stroke:none"
       id="path3149" /></g></svg>