<?xml version="1.0" encoding="UTF-8" standalone="no"?>
<svg
   xmlns:dc="http://purl.org/dc/elements/1.1/"
   xmlns:cc="http://creativecommons.org/ns#"
   xmlns:rdf="http://www.w3.org/1999/02/22-rdf-syntax-ns#"
   xmlns:svg="http://www.w3.org/2000/svg"
   xmlns="http://www.w3.org/2000/svg"
   xmlns:sodipodi="http://sodipodi.sourceforge.net/DTD/sodipodi-0.dtd"
   xmlns:inkscape="http://www.inkscape.org/namespaces/inkscape"
   xml:space="preserve"
   width="101.04748"
   height="101.01624"
   style="fill-rule:evenodd"
   viewBox="0 0 28.517843 28.509024"
   id="svg2"
   version="1.1"
   inkscape:version="0.48.2 r9819"
   sodipodi:docname="AJAX1.svg"><metadata
   id="metadata25"><rdf:RDF><cc:Work
       rdf:about=""><dc:format>image/svg+xml</dc:format><dc:type
         rdf:resource="http://purl.org/dc/dcmitype/StillImage" /><dc:title></dc:title></cc:Work></rdf:RDF></metadata><sodipodi:namedview
   pagecolor="#ffffff"
   bordercolor="#666666"
   borderopacity="1"
   objecttolerance="10"
   gridtolerance="10"
   guidetolerance="10"
   inkscape:pageopacity="0"
   inkscape:pageshadow="2"
   inkscape:window-width="1280"
   inkscape:window-height="1004"
   id="namedview23"
   showgrid="false"
   fit-margin-top="0"
   fit-margin-left="0"
   fit-margin-right="0"
   fit-margin-bottom="0"
   inkscape:zoom="4.572726"
   inkscape:cx="38.331273"
   inkscape:cy="21.032866"
   inkscape:window-x="-8"
   inkscape:window-y="-8"
   inkscape:window-maximized="1"
   inkscape:current-layer="Layer_x0020_1" />
 <defs
   id="defs4">
  <style
   type="text/css"
   id="style6">
   
    .fil0 {fill:red}
    .fil1 {fill:white}
    .fil2 {fill:white;fill-rule:nonzero}
   
  </style>
 </defs>
 <g
   id="Layer_x0020_1"
   style="stroke:none"
   transform="translate(76.994935,-45.970743)">
  <metadata
   id="CorelCorpID_0Corel-Layer" />
  
  
  
  
  
 <path
   inkscape:connector-curvature="0"
   d="m -48.862322,61.217092 0.207433,-0.295981 0.148167,-0.325614 0.02963,-0.355247 -0.02963,-0.355247 -0.148167,-0.355247 -0.207433,-0.296334 -12.895439,-12.848166 -0.2667,-0.20708 -0.355953,-0.147814 -0.3556,-0.05962 -0.3556,0.05962 -0.355952,0.147814 -0.2667,0.20708 -12.865806,12.848166 -0.237066,0.296334 -0.148167,0.355247 -0.02963,0.355247 0.02963,0.355247 0.148167,0.325614 0.237066,0.295981 12.865806,12.848166 0.2667,0.236714 0.355952,0.148166 0.3556,0.02963 0.3556,-0.02963 0.355953,-0.148166 0.2667,-0.236714 12.895439,-12.848166"
   style="fill:#fde012;fill-opacity:1;fill-rule:nonzero;stroke:none"
   id="path3026" /><path
   inkscape:connector-curvature="0"
   d="m -56.421644,56.154731 -0.50412,-0.118181 -0.296333,0.325614 -0.02963,0.414161 0.385234,0.325614 0.415219,-0.384881 0.02963,-0.562327"
   style="fill:#000000;fill-opacity:1;fill-rule:nonzero;stroke:none"
   id="path3028" /><path
   inkscape:connector-curvature="0"
   d="m -57.963283,57.043025 0.148166,0.08855 -0.681919,1.184275 -0.148167,-0.118533 0.68192,-1.154289"
   style="fill:#000000;fill-opacity:1;fill-rule:evenodd;stroke:none"
   id="path3030" /><path
   inkscape:connector-curvature="0"
   d="m -60.779508,56.03655 0.118533,0.08855 -0.978253,1.628422 -0.148166,-0.0889 1.007886,-1.628069"
   style="fill:#000000;fill-opacity:1;fill-rule:evenodd;stroke:none"
   id="path3032" /><path
   inkscape:connector-curvature="0"
   d="m -62.43968,55.85875 0.148166,0.0889 -0.978253,1.628069 -0.148166,-0.0889 0.978253,-1.628069"
   style="fill:#000000;fill-opacity:1;fill-rule:evenodd;stroke:none"
   id="path3034" /><path
   inkscape:connector-curvature="0"
   d="m -64.069866,59.588669 0.148166,0.0889 -0.741186,1.184275 -0.148167,-0.0889 0.741187,-1.184275"
   style="fill:#000000;fill-opacity:1;fill-rule:evenodd;stroke:none"
   id="path3036" /><path
   inkscape:connector-curvature="0"
   d="m -64.129133,62.2532 -0.622653,0.0889 -0.504119,0.414514 0.237419,0.828675 0.740833,0.148166 0.444853,-0.829027 -0.296333,-0.651228"
   style="fill:#000000;fill-opacity:1;fill-rule:evenodd;stroke:none"
   id="path3038" /><path
   inkscape:connector-curvature="0"
   d="m -66.678658,62.0754 0.118533,0.05927 -0.652286,1.125008 -0.148166,-0.0889 0.681919,-1.095375"
   style="fill:#000000;fill-opacity:1;fill-rule:evenodd;stroke:none"
   id="path3040" /><path
   inkscape:connector-curvature="0"
   d="m -65.848572,58.907808 0.148167,0.0889 -0.978253,1.62807 -0.148167,-0.08855 0.978253,-1.628422"
   style="fill:#000000;fill-opacity:1;fill-rule:evenodd;stroke:none"
   id="path3042" /><path
   inkscape:connector-curvature="0"
   d="m -66.945358,60.684044 -0.533753,0.1778 -0.296333,0.591961 0.296333,0.384881 0.50412,-0.0889 0.296333,-0.710494 -0.2667,-0.355248"
   style="fill:#000000;fill-opacity:1;fill-rule:evenodd;stroke:none"
   id="path3044" /><path
   inkscape:connector-curvature="0"
   d="m -65.255905,60.891478 -0.414867,0.355247 -0.207433,0 -0.0889,0.828675 0.385233,0.3556 0.622653,-0.207433 0.148166,-0.680862 -0.02963,-0.473427 -0.415219,-0.1778"
   style="fill:#000000;fill-opacity:1;fill-rule:evenodd;stroke:none"
   id="path3046" /><path
   inkscape:connector-curvature="0"
   d="m -62.43968,61.542705 -0.7112,0.651228 0.325966,0.740128 0.5334,0.0889 0.50412,-0.444147 0,-0.680861 -0.652286,-0.355248"
   style="fill:#000000;fill-opacity:1;fill-rule:evenodd;stroke:none"
   id="path3048" /><path
   inkscape:connector-curvature="0"
   d="m -60.305022,57.990233 0.148167,0.0889 -0.85972,1.391356 -0.148167,-0.0889 0.85972,-1.391356"
   style="fill:#000000;fill-opacity:1;fill-rule:evenodd;stroke:none"
   id="path3050" /><path
   inkscape:connector-curvature="0"
   d="m -59.949422,61.424172 -0.474486,0.0889 -0.503767,0.769761 0.3556,0.473781 0.652286,-0.207434 0.1778,-0.799394 -0.207433,-0.325614"
   style="fill:#000000;fill-opacity:1;fill-rule:evenodd;stroke:none"
   id="path3052" /><path
   inkscape:connector-curvature="0"
   d="m -61.491061,59.381589 -0.740833,0.444147 -0.05962,0.887942 0.50412,0.296333 0.652286,-0.3556 0.148166,-0.769408 -0.504119,-0.503414"
   style="fill:#000000;fill-opacity:1;fill-rule:evenodd;stroke:none"
   id="path3054" /><path
   inkscape:connector-curvature="0"
   d="m -63.269767,60.713678 0.118887,0.0889 -0.800453,1.332089 -0.148167,-0.0889 0.829733,-1.332089"
   style="fill:#000000;fill-opacity:1;fill-rule:evenodd;stroke:none"
   id="path3056" /><path
   inkscape:connector-curvature="0"
   d="m -61.965194,57.694253 -0.59302,0.38488 -0.237066,0.562328 0.1778,0.414514 0.504119,-0.05927 0.4445,-0.769761 -0.296333,-0.532694"
   style="fill:#000000;fill-opacity:1;fill-rule:evenodd;stroke:none"
   id="path3058" /><path
   inkscape:connector-curvature="0"
   d="m -63.506833,57.694253 -0.94862,0.11818 -0.2667,1.006828 0.296334,0.325614 0.593019,0 0.5334,-0.384881 0,-0.621947 -0.207433,-0.443794"
   style="fill:#000000;fill-opacity:1;fill-rule:evenodd;stroke:none"
   id="path3060" /><path
   inkscape:connector-curvature="0"
   d="m -59.208236,60.15135 0.148167,0.0889 -0.68192,1.125008 -0.148166,-0.08925 0.681919,-1.124655"
   style="fill:#000000;fill-opacity:1;fill-rule:evenodd;stroke:none"
   id="path3062" /><path
   inkscape:connector-curvature="0"
   d="m -60.038322,59.322322 -0.533753,0.414514 -0.1778,0.621594 0.50412,0.1778 0.2667,-0.1778 0.296333,-0.562327 -0.3556,-0.473781"
   style="fill:#000000;fill-opacity:1;fill-rule:evenodd;stroke:none"
   id="path3064" /><path
   inkscape:connector-curvature="0"
   d="m -58.585936,58.493647 -0.503767,-0.118533 -0.296686,0.325614 -0.02963,0.414514 0.385586,0.325614 0.414867,-0.384881 0.02963,-0.562328"
   style="fill:#000000;fill-opacity:1;fill-rule:evenodd;stroke:none"
   id="path3066" /><path
   inkscape:connector-curvature="0"
   d="m -63.240133,56.154731 0.118886,0.0889 -0.770819,1.272822 -0.148167,-0.08855 0.8001,-1.273175"
   style="fill:#000000;fill-opacity:1;fill-rule:evenodd;stroke:none"
   id="path3068" /><path
   inkscape:connector-curvature="0"
   d="m -58.141083,54.112148 0.148166,0.08855 -0.711552,1.125008 -0.118534,-0.118181 0.68192,-1.095375"
   style="fill:#000000;fill-opacity:1;fill-rule:evenodd;stroke:none"
   id="path3070" /><path
   inkscape:connector-curvature="0"
   d="m -59.297136,55.799484 -0.770819,0.177447 -0.474487,0.769761 0.474487,0.710494 0.711552,-0.325614 0.3556,-0.621594 -0.296333,-0.710494"
   style="fill:#000000;fill-opacity:1;fill-rule:evenodd;stroke:none"
   id="path3072" /><path
   inkscape:connector-curvature="0"
   d="m -56.807231,58.582194 -0.325966,0.503414 0.237066,0.473428 -0.5334,0.237067 -0.02963,0.355247 0.237067,0.266347 -0.05927,0.562681 -0.593019,0.20708 -0.148167,0.414514 0.3556,0.917575 -0.325967,0.414514 -0.0889,1.006475 -0.474486,0.148167 0,0.47378 -0.414866,0.680861 -0.444853,0 -0.563033,-1.095375 -7.381522,0 -1.600906,2.753078 10.079214,0 5.425016,-9.532408 -1.689805,-1.687336 -0.68192,0.473428 0.148167,1.006475 -0.563033,0.503413 0.237066,0.710495 -0.2667,0.20708 -0.533753,0"
   style="fill:#000000;fill-opacity:1;fill-rule:nonzero;stroke:none"
   id="path3074" /><path
   inkscape:connector-curvature="0"
   d="m -62.97308,73.32513 -12.865806,-12.848166 -0.0889,-0.148167 0,-0.177447 0.0889,-0.177447 12.865806,-12.848519 0.148166,-0.08855 0.1778,0 0.148167,0.08855 12.895438,12.848519 0.0889,0.177447 0,0.177447 -0.0889,0.148167 -12.895438,12.848166 -0.148167,0.0889 -0.1778,0 -0.148166,-0.0889 z m -0.50412,0.503414 0.2667,0.207081 0.32632,0.0889 0.325966,0 0.296334,-0.0889 0.267052,-0.207081 12.865453,-12.848166 0.207433,-0.2667 0.08925,-0.325614 0,-0.325614 -0.08925,-0.295981 -0.207433,-0.266347 -12.865453,-12.877799 -0.267052,-0.1778 -0.296334,-0.0889 -0.325966,0 -0.32632,0.0889 -0.2667,0.1778 -12.865452,12.877799 -0.207786,0.266347 -0.0889,0.295981 0,0.325614 0.0889,0.325614 0.207786,0.2667 12.865452,12.848166"
   style="fill:#000000;fill-opacity:1;fill-rule:evenodd;stroke:none"
   id="path3076" /></g>
</svg>