<?xml version="1.0" encoding="UTF-8" standalone="no"?>
<svg
   xmlns:dc="http://purl.org/dc/elements/1.1/"
   xmlns:cc="http://creativecommons.org/ns#"
   xmlns:rdf="http://www.w3.org/1999/02/22-rdf-syntax-ns#"
   xmlns:svg="http://www.w3.org/2000/svg"
   xmlns="http://www.w3.org/2000/svg"
   xmlns:sodipodi="http://sodipodi.sourceforge.net/DTD/sodipodi-0.dtd"
   xmlns:inkscape="http://www.inkscape.org/namespaces/inkscape"
   xml:space="preserve"
   width="101.015"
   height="101.165"
   style="fill-rule:evenodd"
   viewBox="0 0 28.508677 28.551009"
   id="svg2"
   version="1.1"
   inkscape:version="0.48.2 r9819"
   sodipodi:docname="Chile PE-1.svg"><metadata
   id="metadata25"><rdf:RDF><cc:Work
       rdf:about=""><dc:format>image/svg+xml</dc:format><dc:type
         rdf:resource="http://purl.org/dc/dcmitype/StillImage" /><dc:title></dc:title></cc:Work></rdf:RDF></metadata><sodipodi:namedview
   pagecolor="#ffffff"
   bordercolor="#666666"
   borderopacity="1"
   objecttolerance="10"
   gridtolerance="10"
   guidetolerance="10"
   inkscape:pageopacity="0"
   inkscape:pageshadow="2"
   inkscape:window-width="1280"
   inkscape:window-height="1004"
   id="namedview23"
   showgrid="false"
   fit-margin-top="0"
   fit-margin-left="0"
   fit-margin-right="0"
   fit-margin-bottom="0"
   inkscape:zoom="4.572726"
   inkscape:cx="42.023089"
   inkscape:cy="34.628834"
   inkscape:window-x="-8"
   inkscape:window-y="-8"
   inkscape:window-maximized="1"
   inkscape:current-layer="Layer_x0020_1" />
 <defs
   id="defs4">
  <style
   type="text/css"
   id="style6">
   
    .fil0 {fill:red}
    .fil1 {fill:white}
    .fil2 {fill:white;fill-rule:nonzero}
   
  </style>
 </defs>
 <g
   id="Layer_x0020_1"
   style="stroke:none"
   transform="translate(74.955565,-49.280072)">
  <metadata
   id="CorelCorpID_0Corel-Layer" />
  
  
  
  
  
 <path
   inkscape:connector-curvature="0"
   d="m -61.692888,77.415865 0.295981,0.237419 0.325614,0.148167 0.355247,0.02963 0.355247,-0.02963 0.355247,-0.148167 0.295981,-0.237419 12.848166,-12.867216 0.207434,-0.296334 0.147813,-0.325966 0.05927,-0.355953 -0.05927,-0.3556 -0.147813,-0.355953 -0.207434,-0.296333 -12.848166,-12.867217 -0.295981,-0.207433 -0.355247,-0.148519 -0.355247,-0.05927 -0.355247,0.05927 -0.325614,0.148519 -0.295981,0.207433 -12.848166,12.867217 -0.237067,0.296333 -0.147814,0.355953 -0.02963,0.3556 0.02963,0.355953 0.147814,0.325966 0.237067,0.296334 12.848166,12.867216"
   style="fill:#fde012;fill-opacity:1;fill-rule:nonzero;stroke:none"
   id="path4969" /><path
   inkscape:connector-curvature="0"
   d="m -60.95276,76.674679 -12.848166,-12.866864 -0.0889,-0.148519 0,-0.1778 0.0889,-0.1778 12.848166,-12.867216 0.147814,-0.0889 0.1778,0 0.177447,0.0889 12.848519,12.867216 0.08855,0.1778 0,0.1778 -0.08855,0.148519 -12.848519,12.866864 -0.177447,0.08925 -0.1778,0 -0.147814,-0.08925 z m -0.503414,0.504119 -12.848166,-12.867216 -0.177447,-0.2667 -0.118534,-0.326319 0,-0.325967 0.118534,-0.296686 0.177447,-0.2667 12.848166,-12.867217 0.266347,-0.207433 0.325967,-0.0889 0.325614,0 0.29598,0.0889 0.266348,0.207433 12.848166,12.867217 0.207433,0.2667 0.08855,0.296686 0,0.325967 -0.08855,0.326319 -0.207433,0.2667 -12.848166,12.867216 -0.266348,0.207434 -0.29598,0.08925 -0.325614,0 -0.325967,-0.08925 -0.266347,-0.207434"
   style="fill:#000000;fill-opacity:1;fill-rule:evenodd;stroke:none"
   id="path4971" /><path
   inkscape:connector-curvature="0"
   d="m -59.354324,62.858843 0.414514,-0.444853 -0.769761,-0.207433 -0.651228,0.474486 -0.177447,0.1778 -0.0889,0.2667 0,0.267053 0.0889,0.237067 0.177447,0.178152 3.049411,2.164292 0.236714,0.207433 0.148167,0.2667 0.05891,0.296334 -0.02963,0.326319 -0.11818,0.296333 -0.1778,0.23742 -0.976842,0.859719 2.457097,1.926872 1.273175,-2.075391 0.207081,-0.4445 0.05927,-0.474134 -0.05927,-0.474486 -0.1778,-0.415219 -0.295981,-0.385233 -0.414161,-0.267053 -4.115153,-2.164292 -0.148166,-0.118533 -0.08855,-0.148167 -0.02963,-0.207433 0.02963,-0.178153 0.11818,-0.1778"
   style="fill:#000000;fill-opacity:1;fill-rule:nonzero;stroke:none"
   id="path4973" /><path
   inkscape:connector-curvature="0"
   d="m -67.110496,68.462365 2.457097,1.926872 2.486731,-2.756958 0.266347,-0.355953 0.148167,-0.415219 0.02963,-0.4445 -0.05927,-0.4445 -0.177447,-0.41522 -0.296333,-0.355952 -0.355248,-0.2667 -2.575277,-1.482372 -0.148167,-0.118534 -0.0889,-0.178153 -0.02963,-0.1778 0.02963,-0.1778 0.118533,-0.1778 1.450623,-1.452738 -0.799395,-0.207787 -2.220383,1.601259 -0.177447,0.1778 -0.0889,0.237066 0,0.267053 0.0889,0.237067 0.177447,0.207433 2.013303,1.482372 0.236714,0.207786 0.148166,0.296334 0.05891,0.325966 -0.05891,0.32632 -0.148166,0.296333 -0.236714,0.237067 -2.250017,1.601258"
   style="fill:#000000;fill-opacity:1;fill-rule:nonzero;stroke:none"
   id="path4975" /><path
   inkscape:connector-curvature="0"
   d="m -57.962968,57.107154 -2.131484,-0.563386 -2.161116,-0.5334 -0.621595,1.156406 4.943828,1.274586 -0.02963,-1.334206 z m -3.078692,3.172178 2.042583,0.504119 -0.20708,0.830439 0.829027,0.207434 0.207081,-0.800806 0.533047,-0.325967 0.414161,-1.630891 -0.325614,-0.5334 0.02963,-1.749072 -4.943828,-1.274939 -0.829028,1.541639 -0.532694,0.325966 -0.414514,1.630892 0.325614,0.5334 -0.236714,0.800806 0.828675,0.237066 0.207433,-0.830086 2.072217,0.5334"
   style="fill:#000000;fill-opacity:1;fill-rule:evenodd;stroke:none"
   id="path4977" /></g>
</svg>