<?xml version="1.0" encoding="UTF-8" standalone="no"?>
<svg
   xmlns:dc="http://purl.org/dc/elements/1.1/"
   xmlns:cc="http://creativecommons.org/ns#"
   xmlns:rdf="http://www.w3.org/1999/02/22-rdf-syntax-ns#"
   xmlns:svg="http://www.w3.org/2000/svg"
   xmlns="http://www.w3.org/2000/svg"
   xmlns:sodipodi="http://sodipodi.sourceforge.net/DTD/sodipodi-0.dtd"
   xmlns:inkscape="http://www.inkscape.org/namespaces/inkscape"
   xml:space="preserve"
   width="101.04748"
   height="101.17752"
   style="fill-rule:evenodd"
   viewBox="0 0 28.517843 28.554542"
   id="svg2"
   version="1.1"
   inkscape:version="0.48.2 r9819"
   sodipodi:docname="Chile PE-2.svg"><metadata
   id="metadata25"><rdf:RDF><cc:Work
       rdf:about=""><dc:format>image/svg+xml</dc:format><dc:type
         rdf:resource="http://purl.org/dc/dcmitype/StillImage" /><dc:title></dc:title></cc:Work></rdf:RDF></metadata><sodipodi:namedview
   pagecolor="#ffffff"
   bordercolor="#666666"
   borderopacity="1"
   objecttolerance="10"
   gridtolerance="10"
   guidetolerance="10"
   inkscape:pageopacity="0"
   inkscape:pageshadow="2"
   inkscape:window-width="1280"
   inkscape:window-height="1004"
   id="namedview23"
   showgrid="false"
   fit-margin-top="0"
   fit-margin-left="0"
   fit-margin-right="0"
   fit-margin-bottom="0"
   inkscape:zoom="4.572726"
   inkscape:cx="52.526936"
   inkscape:cy="47.603285"
   inkscape:window-x="-8"
   inkscape:window-y="-8"
   inkscape:window-maximized="1"
   inkscape:current-layer="Layer_x0020_1" />
 <defs
   id="defs4">
  <style
   type="text/css"
   id="style6">
   
    .fil0 {fill:red}
    .fil1 {fill:white}
    .fil2 {fill:white;fill-rule:nonzero}
   
  </style>
 </defs>
 <g
   id="Layer_x0020_1"
   style="stroke:none"
   transform="translate(77.919984,-52.938212)">
  <metadata
   id="CorelCorpID_0Corel-Layer" />
  
  
  
  
  
 <path
   inkscape:connector-curvature="0"
   d="m -77.50512,66.222414 -0.237067,0.296333 -0.148167,0.325967 -0.02963,0.355952 0.02963,0.385234 0.148167,0.326319 0.237067,0.296686 12.865805,12.868628 0.2667,0.207786 0.355953,0.148167 0.3556,0.05927 0.3556,-0.05927 0.355952,-0.148167 0.2667,-0.207786 12.865806,-12.868628 0.237066,-0.296686 0.148167,-0.326319 0.02963,-0.385234 -0.02963,-0.355952 -0.148167,-0.325967 -0.237066,-0.296333 -12.865806,-12.868981 -0.2667,-0.237066 -0.355952,-0.118886 -0.3556,-0.05927 -0.3556,0.05927 -0.355953,0.118886 -0.2667,0.237066 -12.865805,12.868981"
   style="fill:#fde012;fill-opacity:1;fill-rule:nonzero;stroke:none"
   id="path6898" /><path
   inkscape:connector-curvature="0"
   d="m -73.384323,69.869078 5.958416,0 0,1.779411 1.778706,0 0,-1.779411 0.889353,-0.889353 0,-3.528483 -0.889353,-0.889706 -0.889353,-3.558117 -3.290711,0 -0.889,0.889706 3.497792,0 0.681919,2.668411 -6.847769,0 -2.638425,2.63913 2.638425,2.668412"
   style="fill:#000000;fill-opacity:1;fill-rule:nonzero;stroke:none"
   id="path6900" /><path
   inkscape:connector-curvature="0"
   d="m -64.965282,71.500322 7.173736,-1.927578 0.05927,0.1778 -7.203369,1.927578 -0.02963,-0.1778"
   style="fill:#000000;fill-opacity:1;fill-rule:nonzero;stroke:none"
   id="path6902" /><path
   inkscape:connector-curvature="0"
   d="m -59.214299,69.394944 -0.355952,0.05927 -0.118534,-0.148167 0.118534,-0.207786 0.267052,-0.118533 0.207434,0.148166 -0.118534,0.267053"
   style="fill:#000000;fill-opacity:1;fill-rule:nonzero;stroke:none"
   id="path6904" /><path
   inkscape:connector-curvature="0"
   d="m -58.058246,68.535225 0.118534,-0.207786 0.2667,-0.118534 0.207433,0.148167 -0.118533,0.2667 -0.3556,0.05927 -0.118534,-0.147814"
   style="fill:#000000;fill-opacity:1;fill-rule:nonzero;stroke:none"
   id="path6906" /><path
   inkscape:connector-curvature="0"
   d="m -57.939712,67.082133 -0.118534,-0.148167 0.118534,-0.207786 0.2667,-0.118533 0.207433,0.148167 -0.118533,0.267052 -0.3556,0.05927"
   style="fill:#000000;fill-opacity:1;fill-rule:nonzero;stroke:none"
   id="path6908" /><path
   inkscape:connector-curvature="0"
   d="m -59.688785,67.704786 0.118534,-0.207786 0.267052,-0.118534 0.207434,0.14852 -0.118534,0.2667 -0.355952,0.05927 -0.118534,-0.148167"
   style="fill:#000000;fill-opacity:1;fill-rule:nonzero;stroke:none"
   id="path6910" /><path
   inkscape:connector-curvature="0"
   d="m -60.696671,65.807194 0.118534,-0.207786 0.2667,-0.118533 0.207786,0.148167 -0.118534,0.267052 -0.355952,0.05927 -0.118534,-0.148167"
   style="fill:#000000;fill-opacity:1;fill-rule:nonzero;stroke:none"
   id="path6912" /><path
   inkscape:connector-curvature="0"
   d="m -60.844837,64.591169 0.2667,-0.118533 0.207433,0.148167 -0.118533,0.267052 -0.3556,0.05927 -0.118534,-0.148167 0.118534,-0.207786"
   style="fill:#000000;fill-opacity:1;fill-rule:nonzero;stroke:none"
   id="path6914" /><path
   inkscape:connector-curvature="0"
   d="m -62.445743,63.879617 0.267053,-0.118534 0.207433,0.148167 -0.118533,0.267053 -0.355953,0.05927 -0.118533,-0.148166 0.118533,-0.207786"
   style="fill:#000000;fill-opacity:1;fill-rule:nonzero;stroke:none"
   id="path6916" /><path
   inkscape:connector-curvature="0"
   d="m -65.291601,71.144369 0.148167,0.05927 2.282824,-6.226881 -0.1778,-0.05927 -2.253191,6.22688"
   style="fill:#000000;fill-opacity:1;fill-rule:nonzero;stroke:none"
   id="path6918" /><path
   inkscape:connector-curvature="0"
   d="m -65.143434,71.233269 3.853744,-4.595989 0.148519,0.118534 -3.883377,4.595988 -0.118886,-0.118533"
   style="fill:#000000;fill-opacity:1;fill-rule:nonzero;stroke:none"
   id="path6920" /><path
   inkscape:connector-curvature="0"
   d="m -63.898129,80.336347 0.148167,0.0889 0.1778,0 0.148166,-0.0889 12.865806,-12.868981 0.0889,-0.1778 0,-0.178152 -0.0889,-0.148167 -12.865806,-12.868627 -0.148166,-0.0889 -0.1778,0 -0.148167,0.0889 -12.865805,12.868627 -0.0889,0.148167 0,0.178152 0.0889,0.1778 12.865805,12.868981 z m -0.504119,0.504119 -12.865453,-12.898613 -0.207786,-0.237067 -0.0889,-0.32632 0,-0.325966 0.0889,-0.32632 0.207786,-0.2667 12.865453,-12.86898 0.2667,-0.1778 0.296686,-0.118533 0.3556,0 0.296333,0.118533 0.267053,0.1778 12.865452,12.86898 0.207434,0.2667 0.08925,0.32632 0,0.325966 -0.08925,0.32632 -0.207434,0.237067 -12.865452,12.898613 -0.267053,0.1778 -0.296333,0.118534 -0.3556,0 -0.296686,-0.118534 -0.2667,-0.1778"
   style="fill:#000000;fill-opacity:1;fill-rule:evenodd;stroke:none"
   id="path6922" /></g>
</svg>