<?xml version="1.0" encoding="UTF-8" standalone="no"?>
<svg
   xmlns:dc="http://purl.org/dc/elements/1.1/"
   xmlns:cc="http://creativecommons.org/ns#"
   xmlns:rdf="http://www.w3.org/1999/02/22-rdf-syntax-ns#"
   xmlns:svg="http://www.w3.org/2000/svg"
   xmlns="http://www.w3.org/2000/svg"
   xmlns:sodipodi="http://sodipodi.sourceforge.net/DTD/sodipodi-0.dtd"
   xmlns:inkscape="http://www.inkscape.org/namespaces/inkscape"
   xml:space="preserve"
   width="101.04748"
   height="101.16502"
   style="fill-rule:evenodd"
   viewBox="0 0 28.517843 28.551015"
   id="svg2"
   version="1.1"
   inkscape:version="0.48.2 r9819"
   sodipodi:docname="Chile PE-3.svg"><metadata
   id="metadata25"><rdf:RDF><cc:Work
       rdf:about=""><dc:format>image/svg+xml</dc:format><dc:type
         rdf:resource="http://purl.org/dc/dcmitype/StillImage" /><dc:title></dc:title></cc:Work></rdf:RDF></metadata><sodipodi:namedview
   pagecolor="#ffffff"
   bordercolor="#666666"
   borderopacity="1"
   objecttolerance="10"
   gridtolerance="10"
   guidetolerance="10"
   inkscape:pageopacity="0"
   inkscape:pageshadow="2"
   inkscape:window-width="1280"
   inkscape:window-height="1004"
   id="namedview23"
   showgrid="false"
   fit-margin-top="0"
   fit-margin-left="0"
   fit-margin-right="0"
   fit-margin-bottom="0"
   inkscape:zoom="4.572726"
   inkscape:cx="35.257413"
   inkscape:cy="43.7325"
   inkscape:window-x="-8"
   inkscape:window-y="-8"
   inkscape:window-maximized="1"
   inkscape:current-layer="Layer_x0020_1" />
 <defs
   id="defs4">
  <style
   type="text/css"
   id="style6">
   
    .fil0 {fill:red}
    .fil1 {fill:white}
    .fil2 {fill:white;fill-rule:nonzero}
   
  </style>
 </defs>
 <g
   id="Layer_x0020_1"
   style="stroke:none"
   transform="translate(73.046141,-51.849318)">
  <metadata
   id="CorelCorpID_0Corel-Layer" />
  
  
  
  
  
 <path
   inkscape:connector-curvature="0"
   d="m -59.765472,79.985111 0.2667,0.207786 0.355953,0.148167 0.3556,0.05927 0.3556,-0.05927 0.355952,-0.148167 0.2667,-0.207786 12.865806,-12.867216 0.237066,-0.296334 0.148167,-0.325966 0.02963,-0.385586 -0.02963,-0.355953 -0.148167,-0.325967 -0.237066,-0.296686 -12.865806,-12.867216 -0.2667,-0.237067 -0.355952,-0.118533 -0.3556,-0.05927 -0.3556,0.05927 -0.355953,0.118533 -0.2667,0.237067 -12.865805,12.867216 -0.237067,0.296686 -0.148167,0.325967 -0.02963,0.355953 0.02963,0.385586 0.148167,0.325966 0.237067,0.296334 12.865805,12.867216"
   style="fill:#fde012;fill-opacity:1;fill-rule:nonzero;stroke:none"
   id="path7925" /><path
   d="m -60.698922,58.282928 1.541639,0 m -1.541639,-0.355953 1.541639,0 m -1.541639,1.393473 1.541639,0 m -1.541639,-0.3556 1.541639,0 m -1.541639,-0.32632 1.541639,0 m -1.541639,1.037872 1.541639,0 m -1.393472,0.3556 1.244952,0 m -1.333852,-4.091163 1.512005,0 m -1.571272,0.948619 1.541639,0 m -1.541639,-0.355953 1.541639,0 m -1.541639,1.037872 1.541639,0 m -1.541639,-0.355952 1.541639,0"
   style="fill:none;stroke:#000000;stroke-width:0.11288888;stroke-linecap:round;stroke-linejoin:round;stroke-miterlimit:10;stroke-opacity:1;stroke-dasharray:none"
   id="path7927"
   inkscape:connector-curvature="0" /><path
   inkscape:connector-curvature="0"
   d="m -59.172453,55.91085 -0.148519,-0.207433 -0.237067,-0.0889 0,0.207786 -0.711553,0 0,-0.202847 -0.237066,0.08396 -0.148167,0.207433 1.482372,0 z"
   style="fill:#000000;fill-opacity:1;fill-rule:nonzero;stroke:#000000;stroke-width:0.05926666;stroke-linecap:round;stroke-linejoin:round;stroke-miterlimit:10;stroke-opacity:1;stroke-dasharray:none"
   id="path7929" /><path
   inkscape:connector-curvature="0"
   d="m -60.536292,60.032 1.244953,0 0,-4.091516 -1.244953,0 0,4.091516 z"
   style="fill:#000000;fill-opacity:1;fill-rule:nonzero;stroke:#000000;stroke-width:0.05926666;stroke-linecap:round;stroke-linejoin:round;stroke-miterlimit:10;stroke-opacity:1;stroke-dasharray:none"
   id="path7931" /><path
   inkscape:connector-curvature="0"
   d="m -59.291339,60.032 -0.2667,0.148167 -0.711553,-0.0025 -0.2667,-0.145698 1.244953,0 z"
   style="fill:#000000;fill-opacity:1;fill-rule:nonzero;stroke:#000000;stroke-width:0.05926666;stroke-linecap:round;stroke-linejoin:round;stroke-miterlimit:10;stroke-opacity:1;stroke-dasharray:none"
   id="path7933" /><path
   inkscape:connector-curvature="0"
   d="m -57.7497,75.211675 -8.033455,-11.206691 8.389055,2.105025 -2.430639,-5.247923 8.033456,6.996995 -8.745009,0 2.786592,7.352594"
   style="fill:#000000;fill-opacity:1;fill-rule:nonzero;stroke:none"
   id="path7935" /><path
   inkscape:connector-curvature="0"
   d="m -71.890091,65.872942 -0.0889,0.147814 0,0.178153 0.0889,0.1778 12.865805,12.867216 0.148167,0.0889 0.1778,0 0.148166,-0.0889 12.865806,-12.867216 0.0889,-0.1778 0,-0.178153 -0.0889,-0.147814 -12.865806,-12.867569 -0.148166,-0.0889 -0.1778,0 -0.148167,0.0889 -12.865805,12.867569 z m 12.361686,13.845469 -12.865453,-12.867216 -0.207786,-0.267053 -0.0889,-0.296333 0,-0.32632 0.0889,-0.325967 0.207786,-0.2667 12.865453,-12.867216 0.267052,-0.178153 0.296334,-0.118533 0.3556,0 0.296333,0.118533 0.267053,0.178153 12.865452,12.867216 0.207786,0.2667 0.0889,0.325967 0,0.32632 -0.0889,0.296333 -0.207786,0.267053 -12.865452,12.867216 -0.267053,0.207433 -0.296333,0.0889 -0.3556,0 -0.296334,-0.0889 -0.267052,-0.207433"
   style="fill:#000000;fill-opacity:1;fill-rule:evenodd;stroke:none"
   id="path7937" /></g>
</svg>