<?xml version="1.0" encoding="UTF-8" standalone="no"?>
<svg
   xmlns:dc="http://purl.org/dc/elements/1.1/"
   xmlns:cc="http://creativecommons.org/ns#"
   xmlns:rdf="http://www.w3.org/1999/02/22-rdf-syntax-ns#"
   xmlns:svg="http://www.w3.org/2000/svg"
   xmlns="http://www.w3.org/2000/svg"
   xmlns:sodipodi="http://sodipodi.sourceforge.net/DTD/sodipodi-0.dtd"
   xmlns:inkscape="http://www.inkscape.org/namespaces/inkscape"
   xml:space="preserve"
   width="100.91"
   height="101.165"
   style="fill-rule:evenodd"
   viewBox="0 0 28.479045 28.551009"
   id="svg2"
   version="1.1"
   inkscape:version="0.48.2 r9819"
   sodipodi:docname="Chile PE-4.svg"><metadata
   id="metadata25"><rdf:RDF><cc:Work
       rdf:about=""><dc:format>image/svg+xml</dc:format><dc:type
         rdf:resource="http://purl.org/dc/dcmitype/StillImage" /><dc:title></dc:title></cc:Work></rdf:RDF></metadata><sodipodi:namedview
   pagecolor="#ffffff"
   bordercolor="#666666"
   borderopacity="1"
   objecttolerance="10"
   gridtolerance="10"
   guidetolerance="10"
   inkscape:pageopacity="0"
   inkscape:pageshadow="2"
   inkscape:window-width="1280"
   inkscape:window-height="1004"
   id="namedview23"
   showgrid="false"
   fit-margin-top="0"
   fit-margin-left="0"
   fit-margin-right="0"
   fit-margin-bottom="0"
   inkscape:zoom="4.572726"
   inkscape:cx="49.847594"
   inkscape:cy="44.454138"
   inkscape:window-x="-8"
   inkscape:window-y="-8"
   inkscape:window-maximized="1"
   inkscape:current-layer="Layer_x0020_1" />
 <defs
   id="defs4">
  <style
   type="text/css"
   id="style6">
   
    .fil0 {fill:red}
    .fil1 {fill:white}
    .fil2 {fill:white;fill-rule:nonzero}
   
  </style>
 </defs>
 <g
   id="Layer_x0020_1"
   style="stroke:none"
   transform="translate(77.163814,-52.052991)">
  <metadata
   id="CorelCorpID_0Corel-Layer" />
  
  
  
  
  
 <path
   inkscape:connector-curvature="0"
   d="m -63.93077,80.189137 0.29598,0.237066 0.325614,0.148167 0.384881,0.02963 0.355247,-0.02963 0.325614,-0.148167 0.295981,-0.237066 12.848166,-12.867569 0.207433,-0.296334 0.147814,-0.326319 0.05927,-0.3556 -0.05927,-0.355953 -0.147814,-0.3556 -0.207433,-0.296686 -12.848166,-12.866864 -0.295981,-0.207786 -0.325614,-0.148166 -0.355247,-0.05927 -0.384881,0.05927 -0.325614,0.148166 -0.29598,0.207786 -12.848166,12.866864 -0.207434,0.296686 -0.147814,0.3556 -0.02963,0.355953 0.02963,0.3556 0.147814,0.326319 0.207434,0.296334 12.848166,12.867569"
   style="fill:#fde012;fill-opacity:1;fill-rule:nonzero;stroke:none"
   id="path9689" /><path
   inkscape:connector-curvature="0"
   d="m -58.809495,69.960345 2.427816,0 m -2.48673,-1.808339 2.427464,0 m -2.516364,-1.779058 2.457097,0 m -0.0889,-1.808339 -2.427464,0.3556 m 2.368197,-2.075391 -2.634544,1.097139 m 1.598436,-2.846211 -2.220383,1.837972 m 2.220383,-1.837972 -4.1148,0 m -7.786158,10.673291 13.292314,0 m -2.693811,-6.344708 0.236713,6.285089 m -8.141052,-6.285089 -0.236714,6.344708 m -2.102203,-8.924219 -0.355247,8.924219 m 0.148167,-3.617031 2.457097,0 m -2.516364,1.808339 2.427464,0 m 8.082139,-4.506383 -0.05927,-0.681919 -0.177447,-0.652286 -0.296334,-0.622653 -0.38488,-0.563386 -0.503061,-0.503767 -0.562681,-0.385586 -0.621594,-0.296686 -0.651228,-0.177447 -0.680861,-0.05962 -0.680861,0.05962 -0.680861,0.177447 -0.621948,0.296686 -0.562327,0.385586 -0.473781,0.503767 -0.414514,0.563386 -0.29598,0.622653 -0.177447,0.652286 -0.05927,0.681919 m 0.917575,-2.520244 -2.19075,-1.837972 m 2.013303,0 0.858308,1.185686 m -2.871611,-1.185686 4.085519,0 m -5.151261,1.749072 2.664531,1.097139 m -2.782711,2.430991 2.427464,0 m -2.368198,-1.808339 2.457098,0.3556 m -1.332442,-3.824463 -1.065742,1.749072 m 5.062361,-2.105025 2.457097,0 m -2.457097,0 0.237067,0.889353 m 2.22003,-0.889353 -0.236713,0.889353 m 2.250016,-0.5334 -0.888294,1.185686 m 3.937352,0.563386 0.355248,8.924219 m -0.355248,-8.924219 -1.036108,-1.749072"
   style="fill:none;stroke:#000000;stroke-width:0.16933332;stroke-linecap:round;stroke-linejoin:round;stroke-miterlimit:10;stroke-opacity:1;stroke-dasharray:none"
   id="path9691" /><path
   inkscape:connector-curvature="0"
   d="m -59.786337,71.769037 -0.236714,-6.315075 -0.05927,-0.563386 -0.1778,-0.533753 -0.266348,-0.503766 -0.355247,-0.444853 -0.444147,-0.355953 -0.503061,-0.2667 -0.533047,-0.178153 -0.562328,-0.05891 -0.562681,0.05891 -0.562327,0.178153 -0.503414,0.2667 -0.443795,0.355953 -0.355247,0.444853 -0.2667,0.503766 -0.147814,0.533753 -0.05927,0.563386 -0.266347,6.315075 6.30555,0 z"
   style="fill:#000000;fill-opacity:1;fill-rule:nonzero;stroke:none"
   id="path9693" /><path
   inkscape:connector-curvature="0"
   d="m -76.038809,66.076262 -0.0889,0.178153 0,0.1778 0.0889,0.148167 12.848167,12.867216 0.177447,0.0889 0.1778,0 0.147814,-0.0889 12.848166,-12.867216 0.0889,-0.148167 0,-0.1778 -0.0889,-0.178153 -12.848166,-12.866863 -0.147814,-0.08925 -0.1778,0 -0.177447,0.08925 -12.848167,12.866863 z m 12.374386,13.875455 -12.848166,-12.867216 -0.207434,-0.267053 -0.08855,-0.325966 0,-0.325967 0.08855,-0.296686 0.207434,-0.2667 12.848166,-12.867217 0.266347,-0.207433 0.295981,-0.0889 0.325614,0 0.325966,0.0889 0.266348,0.207433 12.848166,12.867217 0.177447,0.2667 0.0889,0.296686 0,0.325967 -0.0889,0.325966 -0.177447,0.267053 -12.848166,12.867216 -0.266348,0.207434 -0.325966,0.0889 -0.325614,0 -0.295981,-0.0889 -0.266347,-0.207434"
   style="fill:#000000;fill-opacity:1;fill-rule:evenodd;stroke:none"
   id="path9695" /></g>
</svg>