<?xml version="1.0" encoding="UTF-8" standalone="no"?>
<svg
   xmlns:dc="http://purl.org/dc/elements/1.1/"
   xmlns:cc="http://creativecommons.org/ns#"
   xmlns:rdf="http://www.w3.org/1999/02/22-rdf-syntax-ns#"
   xmlns:svg="http://www.w3.org/2000/svg"
   xmlns="http://www.w3.org/2000/svg"
   xmlns:sodipodi="http://sodipodi.sourceforge.net/DTD/sodipodi-0.dtd"
   xmlns:inkscape="http://www.inkscape.org/namespaces/inkscape"
   xml:space="preserve"
   width="101.0275"
   height="101.05997"
   style="fill-rule:evenodd"
   viewBox="0 0 28.512204 28.52137"
   id="svg2"
   version="1.1"
   inkscape:version="0.48.2 r9819"
   sodipodi:docname="Chile PE-5.svg"><metadata
   id="metadata25"><rdf:RDF><cc:Work
       rdf:about=""><dc:format>image/svg+xml</dc:format><dc:type
         rdf:resource="http://purl.org/dc/dcmitype/StillImage" /><dc:title></dc:title></cc:Work></rdf:RDF></metadata><sodipodi:namedview
   pagecolor="#ffffff"
   bordercolor="#666666"
   borderopacity="1"
   objecttolerance="10"
   gridtolerance="10"
   guidetolerance="10"
   inkscape:pageopacity="0"
   inkscape:pageshadow="2"
   inkscape:window-width="1280"
   inkscape:window-height="1004"
   id="namedview23"
   showgrid="false"
   fit-margin-top="0"
   fit-margin-left="0"
   fit-margin-right="0"
   fit-margin-bottom="0"
   inkscape:zoom="4.572726"
   inkscape:cx="25.132697"
   inkscape:cy="57.369818"
   inkscape:window-x="-8"
   inkscape:window-y="-8"
   inkscape:window-maximized="1"
   inkscape:current-layer="Layer_x0020_1" />
 <defs
   id="defs4">
  <style
   type="text/css"
   id="style6">
   
    .fil0 {fill:red}
    .fil1 {fill:white}
    .fil2 {fill:white;fill-rule:nonzero}
   
  </style>
 </defs>
 <g
   id="Layer_x0020_1"
   style="stroke:none"
   transform="translate(70.188721,-55.727717)">
  <metadata
   id="CorelCorpID_0Corel-Layer" />
  
  
  
  
  
 <path
   inkscape:connector-curvature="0"
   d="m -56.924633,83.863858 0.296334,0.207433 0.325614,0.148167 0.355247,0.02963 0.355247,-0.02963 0.355247,-0.148167 0.296334,-0.207433 12.849577,-12.897203 0.207434,-0.2667 0.147813,-0.355952 0.05927,-0.3556 -0.05927,-0.355953 -0.147813,-0.3556 -0.207434,-0.2667 -12.849577,-12.867217 -0.296334,-0.237419 -0.355247,-0.148167 -0.355247,-0.02963 -0.355247,0.02963 -0.325614,0.148167 -0.296334,0.237419 -12.849577,12.867217 -0.237067,0.2667 -0.147814,0.3556 -0.02963,0.355953 0.02963,0.3556 0.147814,0.355952 0.237067,0.2667 12.849577,12.897203"
   style="fill:#fde012;fill-opacity:1;fill-rule:nonzero;stroke:none"
   id="path11374" /><path
   inkscape:connector-curvature="0"
   d="m -54.881696,76.095691 0.02963,0.207787 0.118533,0.148166 0.1778,0.118534 0.177447,0.05927 0.207434,-0.05927 0.177447,-0.118534 0.118533,-0.148166 0.02963,-0.207787 m -1.036461,0.978606 0.02963,0.1778 0.118533,0.1778 0.1778,0.118533 0.177447,0.02999 0.207434,-0.02999 0.177447,-0.118533 0.118533,-0.1778 0.02963,-0.1778 m -1.036461,-1.927225 0.02963,0.207786 0.118533,0.148167 0.1778,0.118533 0.177447,0.02963 0.207434,-0.02963 0.177447,-0.118533 0.118533,-0.148167 0.02963,-0.207786 m -3.138311,1.927225 0.02963,0.1778 0.11818,0.1778 0.1778,0.118533 0.207081,0.02999 0.1778,-0.02999 0.177447,-0.118533 0.118534,-0.1778 0.02963,-0.1778 m -1.036108,-0.978606 0.02963,0.207787 0.11818,0.148166 0.1778,0.118534 0.207081,0.05927 0.1778,-0.05927 0.177447,-0.118534 0.118534,-0.148166 0.02963,-0.207787 m -2.102203,0.978606 0.05927,0.1778 0.118533,0.1778 0.147814,0.118533 0.207433,0.02999 0.207081,-0.02999 0.1778,-0.118533 0.0889,-0.1778 0.05927,-0.1778 m -1.066095,-0.978606 0.05927,0.207787 0.118533,0.148166 0.147814,0.118534 0.207433,0.05927 0.207081,-0.05927 0.1778,-0.118534 0.0889,-0.148166 0.05927,-0.207787 m 1.036108,0.978606 0.05927,0.1778 0.0889,0.1778 0.177447,0.118533 0.207433,0.02999 0.207081,-0.02999 0.1778,-0.118533 0.0889,-0.1778 0.05891,-0.1778 m -1.065742,-0.978606 0.05927,0.207787 0.0889,0.148166 0.177447,0.118534 0.207433,0.05927 0.207081,-0.05927 0.1778,-0.118534 0.0889,-0.148166 0.05891,-0.207787 m -2.10185,-0.948619 0.02963,0.207786 0.11818,0.148167 0.1778,0.118533 0.207081,0.02963 0.1778,-0.02963 0.177447,-0.118533 0.118534,-0.148167 0.02963,-0.207786 m -2.102203,0 0.05927,0.207786 0.118533,0.148167 0.147814,0.118533 0.207433,0.02963 0.207081,-0.02963 0.1778,-0.118533 0.0889,-0.148167 0.05927,-0.207786 m 1.036108,0 0.05927,0.207786 0.0889,0.148167 0.177447,0.118533 0.207433,0.02963 0.207081,-0.02963 0.1778,-0.118533 0.0889,-0.148167 0.05891,-0.207786 m 2.102202,1.927225 0.02963,0.1778 0.118533,0.1778 0.148167,0.118533 0.20708,0.02999 0.207433,-0.02999 0.177448,-0.118533 0.118533,-0.1778 0.02963,-0.1778 m -1.036461,-0.978606 0.02963,0.207787 0.118533,0.148166 0.148167,0.118534 0.20708,0.05927 0.207433,-0.05927 0.177448,-0.118534 0.118533,-0.148166 0.02963,-0.207787 m -2.102202,0.978606 0.02963,0.1778 0.118533,0.1778 0.177447,0.118533 0.207434,0.02999 0.20708,-0.02999 0.148167,-0.118533 0.118181,-0.1778 0.05927,-0.1778"
   style="fill:none;stroke:#000000;stroke-width:0.16933332;stroke-linecap:round;stroke-linejoin:round;stroke-miterlimit:10;stroke-opacity:1;stroke-dasharray:none"
   id="path11376" /><path
   inkscape:connector-curvature="0"
   d="m -53.845235,76.095691 0.02963,0.207787 0.118533,0.148166 0.177447,0.118534 0.207434,0.05927 0.20708,-0.05927 0.148167,-0.118534 0.118181,-0.148166 0.05927,-0.207787 m 1.036461,0.978606 0.02963,0.1778 0.11818,0.1778 0.1778,0.118533 0.207434,0.02999 0.177447,-0.02999 0.1778,-0.118533 0.11818,-0.1778 0.02963,-0.1778 m -1.036109,-0.978606 0.02963,0.207787 0.11818,0.148166 0.1778,0.118534 0.207434,0.05927 0.177447,-0.05927 0.1778,-0.118534 0.11818,-0.148166 0.02963,-0.207787 m -2.07257,-0.948619 0.02963,0.207786 0.118533,0.148167 0.148167,0.118533 0.20708,0.02963 0.207433,-0.02963 0.177448,-0.118533 0.118533,-0.148167 0.02963,-0.207786 m -2.102202,0 0.02963,0.207786 0.118533,0.148167 0.177447,0.118533 0.207434,0.02963 0.20708,-0.02963 0.148167,-0.118533 0.118181,-0.148167 0.05927,-0.207786 m 1.036461,0 0.02963,0.207786 0.11818,0.148167 0.1778,0.118533 0.207434,0.02963 0.177447,-0.02963 0.1778,-0.118533 0.11818,-0.148167 0.02963,-0.207786"
   style="fill:none;stroke:#000000;stroke-width:0.16933332;stroke-linecap:round;stroke-linejoin:round;stroke-miterlimit:10;stroke-opacity:1;stroke-dasharray:none"
   id="path11378" /><path
   inkscape:connector-curvature="0"
   d="m -58.049641,67.616325 0,9.368719 -3.493558,0 -6.957836,-6.967008 2.36855,-2.401711 8.082844,0"
   style="fill:#000000;fill-opacity:1;fill-rule:nonzero;stroke:none"
   id="path11380" /><path
   inkscape:connector-curvature="0"
   d="m -69.034082,69.750983 -0.0889,0.14852 0,0.1778 0.0889,0.148166 12.84993,12.897203 0.147814,0.08855 0.1778,0 0.177447,-0.08855 12.84993,-12.897203 0.0889,-0.148166 0,-0.1778 -0.0889,-0.14852 -12.84993,-12.866863 -0.177447,-0.08925 -0.1778,0 -0.147814,0.08925 -12.84993,12.866863 z m -0.503414,-0.503766 -0.207081,0.2667 -0.0889,0.326319 0,0.325967 0.0889,0.296333 0.207081,0.267053 12.84993,12.867216 0.266347,0.207434 0.325614,0.0889 0.325967,0 0.29598,-0.0889 0.266348,-0.207434 12.879563,-12.867216 0.177448,-0.267053 0.0889,-0.296333 0,-0.325967 -0.0889,-0.326319 -0.177448,-0.2667 L -55.20731,56.38 l -0.266348,-0.207433 -0.29598,-0.0889 -0.325967,0 -0.325614,0.0889 -0.266347,0.207433 -12.84993,12.867217"
   style="fill:#000000;fill-opacity:1;fill-rule:evenodd;stroke:none"
   id="path11382" /><path
   inkscape:connector-curvature="0"
   d="m -53.252922,69.662436 -0.05927,-0.326319 -0.1778,-0.2667 -0.266347,-0.178153 -0.325614,-0.0889 -0.325967,0.0889 -0.266347,0.178153 -0.1778,0.2667 -0.05891,0.326319 0.05891,0.325967 0.1778,0.2667 0.266347,0.178152 0.325967,0.05927 0.325614,-0.05927 0.266347,-0.178152 0.1778,-0.2667 0.05927,-0.325967 z m -0.2667,0 -0.02963,-0.207786 -0.147814,-0.207433 -0.1778,-0.118534 -0.20708,-0.02963 -0.207434,0.02963 -0.1778,0.118534 -0.11818,0.207433 -0.05927,0.207786 0.05927,0.207433 0.11818,0.1778 0.1778,0.118534 0.207434,0.05927 0.20708,-0.05927 0.1778,-0.118534 0.147814,-0.1778 0.02963,-0.207433"
   style="fill:#000000;fill-opacity:1;fill-rule:evenodd;stroke:none"
   id="path11384" /><path
   inkscape:connector-curvature="0"
   d="m -59.500263,66.578805 -0.02963,-0.207433 -0.118534,-0.1778 -0.1778,-0.118533 -0.236714,-0.05962 -0.20708,0.05962 -0.1778,0.118533 -0.118533,0.1778 -0.05927,0.207433 0.05927,0.207787 0.118533,0.207433 0.1778,0.118533 0.20708,0.02963 0.236714,-0.02963 0.1778,-0.118533 0.118534,-0.207433 0.02963,-0.207787 z m 0.29598,0 -0.05927,-0.325966 -0.207081,-0.267053 -0.2667,-0.1778 -0.325614,-0.05927 -0.29598,0.05927 -0.295981,0.1778 -0.1778,0.267053 -0.05927,0.325966 0.05927,0.32632 0.1778,0.2667 0.295981,0.1778 0.29598,0.0889 0.325614,-0.0889 0.2667,-0.1778 0.207081,-0.2667 0.05927,-0.32632"
   style="fill:#000000;fill-opacity:1;fill-rule:evenodd;stroke:none"
   id="path11386" /><path
   inkscape:connector-curvature="0"
   d="m -58.168174,64.414514 -1.125009,0.355953 5.063067,2.608791 -1.125008,-1.512005 -2.81305,-1.452739 z m 4.944533,5.662789 0.0889,-0.2667 0,-0.296686 -0.0889,-0.296334 -0.177447,-0.237066 -0.237067,-0.178153 -0.29598,-0.0889 -0.295981,0 -0.266347,0.0889 -0.2667,0.178153 -0.177447,0.237066 -4.263673,-2.193925 0.0889,-0.296686 0,-0.296333 -0.0889,-0.267053 -0.1778,-0.237067 -0.236713,-0.1778 -0.295981,-0.0889 -0.296333,-0.02963 -0.266347,0.118533 -0.236714,0.148167 -0.1778,0.2667 -1.154642,-0.592667 0.888294,-1.749072 1.509889,0.770467 1.509889,-0.503767 2.990497,1.541639 1.450975,2.016125 1.746603,1.541639 0.118533,1.007886 -0.266347,0.474486 -1.125361,-0.593019"
   style="fill:#000000;fill-opacity:1;fill-rule:evenodd;stroke:none"
   id="path11388" /></g>
</svg>