<?xml version="1.0" encoding="UTF-8" standalone="no"?>
<svg
   xmlns:dc="http://purl.org/dc/elements/1.1/"
   xmlns:cc="http://creativecommons.org/ns#"
   xmlns:rdf="http://www.w3.org/1999/02/22-rdf-syntax-ns#"
   xmlns:svg="http://www.w3.org/2000/svg"
   xmlns="http://www.w3.org/2000/svg"
   xmlns:sodipodi="http://sodipodi.sourceforge.net/DTD/sodipodi-0.dtd"
   xmlns:inkscape="http://www.inkscape.org/namespaces/inkscape"
   xml:space="preserve"
   width="101.01502"
   height="101.05997"
   style="fill-rule:evenodd"
   viewBox="0 0 28.508684 28.52137"
   id="svg2"
   version="1.1"
   inkscape:version="0.48.2 r9819"
   sodipodi:docname="Chile PE-6.svg"><metadata
   id="metadata25"><rdf:RDF><cc:Work
       rdf:about=""><dc:format>image/svg+xml</dc:format><dc:type
         rdf:resource="http://purl.org/dc/dcmitype/StillImage" /><dc:title></dc:title></cc:Work></rdf:RDF></metadata><sodipodi:namedview
   pagecolor="#ffffff"
   bordercolor="#666666"
   borderopacity="1"
   objecttolerance="10"
   gridtolerance="10"
   guidetolerance="10"
   inkscape:pageopacity="0"
   inkscape:pageshadow="2"
   inkscape:window-width="1280"
   inkscape:window-height="1004"
   id="namedview23"
   showgrid="false"
   fit-margin-top="0"
   fit-margin-left="0"
   fit-margin-right="0"
   fit-margin-bottom="0"
   inkscape:zoom="4.572726"
   inkscape:cx="42.399643"
   inkscape:cy="42.512124"
   inkscape:window-x="-8"
   inkscape:window-y="-8"
   inkscape:window-maximized="1"
   inkscape:current-layer="Layer_x0020_1" />
 <defs
   id="defs4">
  <style
   type="text/css"
   id="style6">
   
    .fil0 {fill:red}
    .fil1 {fill:white}
    .fil2 {fill:white;fill-rule:nonzero}
   
  </style>
 </defs>
 <g
   id="Layer_x0020_1"
   style="stroke:none"
   transform="translate(75.061837,-51.534543)">
  <metadata
   id="CorelCorpID_0Corel-Layer" />
  
  
  
  
  
 <path
   inkscape:connector-curvature="0"
   d="m -61.799154,79.670331 -12.848166,-12.866864 -0.207433,-0.296686 -0.147814,-0.3556 -0.05927,-0.355952 0.05927,-0.3556 0.147814,-0.32632 0.207433,-0.296333 12.848166,-12.867217 0.295981,-0.237419 0.325614,-0.148167 0.38488,-0.02963 0.355248,0.02963 0.325613,0.148167 0.295981,0.237419 12.848166,12.867217 0.237067,0.296333 0.118181,0.32632 0.05927,0.3556 -0.05927,0.355952 -0.118181,0.3556 -0.237067,0.296686 -12.848166,12.866864 -0.295981,0.207786 -0.325613,0.148167 -0.355248,0.02963 -0.38488,-0.02963 -0.325614,-0.148167 -0.295981,-0.207786"
   style="fill:#fde012;fill-opacity:1;fill-rule:nonzero;stroke:none"
   id="path14027" /><path
   inkscape:connector-curvature="0"
   d="m -73.907192,65.558162 -0.0889,0.148167 0,0.1778 0.0889,0.178152 12.848166,12.867217 0.177447,0.0889 0.1778,0 0.147814,-0.0889 12.848167,-12.867217 0.0889,-0.178152 0,-0.1778 -0.0889,-0.148167 -12.848167,-12.867216 -0.147814,-0.0889 -0.1778,0 -0.177447,0.0889 -12.848166,12.867216 z m 13.854641,-13.371336 -0.266347,-0.1778 -0.325614,-0.118533 -0.325614,0 -0.325967,0.118533 -0.236713,0.1778 -12.8778,12.867217 -0.177447,0.267052 -0.0889,0.325967 0,0.325967 0.0889,0.296686 0.177447,0.2667 12.8778,12.867216 0.236713,0.207433 0.325967,0.0889 0.325614,0 0.325614,-0.0889 0.266347,-0.207433 12.848166,-12.867216 0.1778,-0.2667 0.118181,-0.296686 0,-0.325967 -0.118181,-0.325967 -0.1778,-0.267052 -12.848166,-12.867217"
   style="fill:#000000;fill-opacity:1;fill-rule:evenodd;stroke:none"
   id="path14029" /><path
   inkscape:connector-curvature="0"
   d="m -64.434051,60.992512 -0.414514,-0.118886 -0.443794,-0.05927 -0.414514,0.0889 -0.05927,0.41522 0.02963,0.415219 0.11818,0.414867 0.325967,0.593019 0.473428,0.474486 1.746602,1.571273 -1.243189,6.996641 0.947209,0.948972 2.27965,-6.078008 2.57563,2.431344 -0.38488,2.401359 0.740127,0.741186 1.391356,-2.371725 2.368197,-1.423458 -0.740128,-0.740834 -2.368197,0.414867 -2.427464,-2.608792 6.039203,-2.253544 -0.947561,-0.94862 -6.986411,1.245306 -1.539522,-1.779058 -0.473428,-0.4445 -0.592314,-0.325967"
   style="fill:#000000;fill-opacity:1;fill-rule:nonzero;stroke:none"
   id="path14031" /></g>
</svg>