<?xml version="1.0" encoding="UTF-8" standalone="no"?>
<svg
   xmlns:dc="http://purl.org/dc/elements/1.1/"
   xmlns:cc="http://creativecommons.org/ns#"
   xmlns:rdf="http://www.w3.org/1999/02/22-rdf-syntax-ns#"
   xmlns:svg="http://www.w3.org/2000/svg"
   xmlns="http://www.w3.org/2000/svg"
   xmlns:sodipodi="http://sodipodi.sourceforge.net/DTD/sodipodi-0.dtd"
   xmlns:inkscape="http://www.inkscape.org/namespaces/inkscape"
   xml:space="preserve"
   width="100.91"
   height="101.01498"
   style="fill-rule:evenodd"
   viewBox="0 0 28.479043 28.50867"
   id="svg2"
   version="1.1"
   inkscape:version="0.48.2 r9819"
   sodipodi:docname="Chile PE-7.svg"><metadata
   id="metadata25"><rdf:RDF><cc:Work
       rdf:about=""><dc:format>image/svg+xml</dc:format><dc:type
         rdf:resource="http://purl.org/dc/dcmitype/StillImage" /><dc:title></dc:title></cc:Work></rdf:RDF></metadata><sodipodi:namedview
   pagecolor="#ffffff"
   bordercolor="#666666"
   borderopacity="1"
   objecttolerance="10"
   gridtolerance="10"
   guidetolerance="10"
   inkscape:pageopacity="0"
   inkscape:pageshadow="2"
   inkscape:window-width="1280"
   inkscape:window-height="1004"
   id="namedview23"
   showgrid="false"
   fit-margin-top="0"
   fit-margin-left="0"
   fit-margin-right="0"
   fit-margin-bottom="0"
   inkscape:zoom="4.572726"
   inkscape:cx="41.900355"
   inkscape:cy="31.568309"
   inkscape:window-x="-8"
   inkscape:window-y="-8"
   inkscape:window-maximized="1"
   inkscape:current-layer="Layer_x0020_1" />
 <defs
   id="defs4">
  <style
   type="text/css"
   id="style6">
   
    .fil0 {fill:red}
    .fil1 {fill:white}
    .fil2 {fill:white;fill-rule:nonzero}
   
  </style>
 </defs>
 <g
   id="Layer_x0020_1"
   style="stroke:none"
   transform="translate(74.920926,-48.458654)">
  <metadata
   id="CorelCorpID_0Corel-Layer" />
  
  
  
  
  
 <path
   inkscape:connector-curvature="0"
   d="m -61.658243,76.582447 -12.848167,-12.8778 -0.237067,-0.2667 -0.11818,-0.354894 -0.05927,-0.355247 0.05927,-0.355248 0.11818,-0.355247 0.237067,-0.296333 12.848167,-12.848167 0.29598,-0.20708 0.325614,-0.148167 0.355247,-0.05891 0.355247,0.05891 0.355248,0.148167 0.29598,0.20708 12.848167,12.848167 0.207433,0.296333 0.147814,0.355247 0.02963,0.355248 -0.02963,0.355247 -0.147814,0.354894 -0.207433,0.2667 -12.848167,12.8778 -0.29598,0.207081 -0.355248,0.148166 -0.355247,0.02963 -0.355247,-0.02963 -0.325614,-0.148166 -0.29598,-0.207081"
   style="fill:#fde012;fill-opacity:1;fill-rule:nonzero;stroke:none"
   id="path15352" /><path
   inkscape:connector-curvature="0"
   d="m -62.753618,66.783339 -0.0889,1.361722 0,1.332442 0.118533,1.361722 0.20708,1.332089 m -0.562327,0 0.05927,-1.835503 -0.05927,-1.864783 -0.148167,-1.835503 m 0.710494,5.535789 -0.562327,0 m 0.325614,-5.387975 10.183636,-2.812345 m -10.479617,-5.150908 10.331803,1.243189 m -6.00957,5.329061 0.207081,-0.977194 0.118533,-0.977195 -0.02963,-0.976489 -0.118533,-0.977194 -0.266348,-0.976842 -0.355247,-0.917575 m 0.769761,5.713236 0.177447,-0.947208 0.0889,-0.976842 0,-0.947208 -0.148166,-0.947561 -0.236714,-0.947208 -0.325614,-0.888295 m -1.805869,6.246636 0.29598,-0.917928 0.148167,-0.947208 0.05927,-0.947208 -0.05927,-0.947209 -0.148167,-0.947561 -0.29598,-0.917927 -0.355248,-0.887942 m 0.710495,6.424083 0.236714,-0.887941 0.148166,-0.917928 0.05927,-0.947209 -0.05927,-0.947561 -0.1778,-0.917575 -0.236714,-0.888294 -0.355247,-0.887942 m -2.368197,-0.591961 -0.355247,0.947208 -0.2667,0.976842 -0.147814,1.006475 -0.05927,1.006828 m 1.125009,4.0259 0.414513,-0.828675 0.295981,-0.888295 0.177447,-0.917575 0.0889,-0.917927 -0.02963,-0.947209 -0.147814,-0.917927 -0.2667,-0.887942 -0.355247,-0.858661 -0.473428,-0.799042 m -0.829028,3.937353 0.266347,1.953683 0.384881,1.924403 0.473781,0.147814 m 7.193844,-2.279297 0.177447,-0.740128 0.118534,-0.740128 0.02963,-0.769761 -0.05927,-0.769761 -0.1778,-0.740128 -0.236714,-0.710494 m -1.539522,4.943827 0.2667,-0.828675 0.177447,-0.888294 0.02963,-0.858308 -0.05927,-0.888295 -0.207081,-0.858308 -0.29598,-0.829028 m 0.414514,5.062361 0.236714,-0.829028 0.147814,-0.829027 0.05927,-0.858309 -0.08855,-0.858661 -0.1778,-0.828675 -0.266347,-0.829028 m 1.746603,4.558948 0.20708,-0.858661 0.118533,-0.887942 -0.02963,-0.888295 -0.148167,-0.858308 -0.266347,-0.858661 m 1.509889,3.966986 0.207081,-0.740128 0.118533,-0.769761 0,-0.769761 -0.148167,-0.769408 -0.236714,-0.740128 m 0.384881,3.729919 0.1778,-0.740127 0.08855,-0.740128 0,-0.740128 -0.11818,-0.739775 -0.207434,-0.74048 m 1.036109,3.700638 0.207433,-0.769761 0.0889,-0.799041 -0.02963,-0.799395 -0.148167,-0.769761 -0.266347,-0.769761"
   style="fill:none;stroke:#000000;stroke-width:0.42333335;stroke-linecap:round;stroke-linejoin:round;stroke-miterlimit:10;stroke-opacity:1;stroke-dasharray:none"
   id="path15354" /><path
   inkscape:connector-curvature="0"
   d="m -60.918116,75.842319 0.147814,0.0889 0.1778,0 0.177447,-0.0889 12.848167,-12.8778 0.0889,-0.148166 0,-0.177447 -0.0889,-0.148167 -12.848167,-12.8778 -0.177447,-0.08855 -0.1778,0 -0.147814,0.08855 -12.848166,12.8778 -0.0889,0.148167 0,0.177447 0.0889,0.148166 12.848166,12.8778 z m -13.35158,-13.854641 -0.177447,0.266347 -0.118534,0.295981 0,0.325613 0.118534,0.325614 0.177447,0.2667 12.848166,12.848167 0.266348,0.20708 0.325614,0.0889 0.325966,0 0.295981,-0.0889 0.266347,-0.20708 12.848167,-12.848167 0.20708,-0.2667 0.0889,-0.325614 0,-0.325613 -0.0889,-0.295981 -0.20708,-0.266347 -12.848167,-12.848167 -0.266347,-0.207433 -0.295981,-0.0889 -0.325966,0 -0.325614,0.0889 -0.266348,0.207433 -12.848166,12.848167"
   style="fill:#000000;fill-opacity:1;fill-rule:evenodd;stroke:none"
   id="path15356" /></g>
</svg>