<?xml version="1.0" encoding="UTF-8" standalone="no"?>
<svg
   xmlns:dc="http://purl.org/dc/elements/1.1/"
   xmlns:cc="http://creativecommons.org/ns#"
   xmlns:rdf="http://www.w3.org/1999/02/22-rdf-syntax-ns#"
   xmlns:svg="http://www.w3.org/2000/svg"
   xmlns="http://www.w3.org/2000/svg"
   xmlns:sodipodi="http://sodipodi.sourceforge.net/DTD/sodipodi-0.dtd"
   xmlns:inkscape="http://www.inkscape.org/namespaces/inkscape"
   xml:space="preserve"
   width="101.01499"
   height="101.05997"
   style="fill-rule:evenodd"
   viewBox="0 0 28.508673 28.521369"
   id="svg2"
   version="1.1"
   inkscape:version="0.48.2 r9819"
   sodipodi:docname="Chile PE-8.svg"><metadata
   id="metadata25"><rdf:RDF><cc:Work
       rdf:about=""><dc:format>image/svg+xml</dc:format><dc:type
         rdf:resource="http://purl.org/dc/dcmitype/StillImage" /><dc:title></dc:title></cc:Work></rdf:RDF></metadata><sodipodi:namedview
   pagecolor="#ffffff"
   bordercolor="#666666"
   borderopacity="1"
   objecttolerance="10"
   gridtolerance="10"
   guidetolerance="10"
   inkscape:pageopacity="0"
   inkscape:pageshadow="2"
   inkscape:window-width="1280"
   inkscape:window-height="1004"
   id="namedview23"
   showgrid="false"
   fit-margin-top="0"
   fit-margin-left="0"
   fit-margin-right="0"
   fit-margin-bottom="0"
   inkscape:zoom="4.572726"
   inkscape:cx="42.765692"
   inkscape:cy="24.80207"
   inkscape:window-x="-8"
   inkscape:window-y="-8"
   inkscape:window-maximized="1"
   inkscape:current-layer="Layer_x0020_1" />
 <defs
   id="defs4">
  <style
   type="text/css"
   id="style6">
   
    .fil0 {fill:red}
    .fil1 {fill:white}
    .fil2 {fill:white;fill-rule:nonzero}
   
  </style>
 </defs>
 <g
   id="Layer_x0020_1"
   style="stroke:none"
   transform="translate(75.165144,-46.536368)">
  <metadata
   id="CorelCorpID_0Corel-Layer" />
  
  
  
  
  
 <path
   inkscape:connector-curvature="0"
   d="m -61.902468,74.672156 -12.848166,-12.896497 -0.237067,-0.267053 -0.147814,-0.3556 -0.02963,-0.355953 0.02963,-0.355952 0.147814,-0.3556 0.237067,-0.2667 12.848166,-12.89685 0.295981,-0.207786 0.325613,-0.148167 0.355248,-0.02963 0.355247,0.02963 0.355247,0.148167 0.295981,0.207786 12.848166,12.89685 0.207433,0.2667 0.147814,0.3556 0.05927,0.355952 -0.05927,0.355953 -0.147814,0.3556 -0.207433,0.267053 -12.848166,12.896497 -0.295981,0.207786 -0.355247,0.148166 -0.355247,0.02963 -0.355248,-0.02963 -0.325613,-0.148166 -0.295981,-0.207786"
   style="fill:#fde012;fill-opacity:1;fill-rule:nonzero;stroke:none"
   id="path16909" /><path
   inkscape:connector-curvature="0"
   d="m -60.925626,61.508606 -9.088614,0 0,1.541639 8.052505,0 0,0.889353 9.591675,0 0,-0.85972 -8.555566,0 0,-1.571272"
   style="fill:#000000;fill-opacity:1;fill-rule:evenodd;stroke:none"
   id="path16911" /><path
   inkscape:connector-curvature="0"
   d="m -63.14601,57.298556 6.09847,1.571272 -0.02963,-1.630538 -2.634544,-0.68192 -2.664531,-0.681919 -0.769761,1.423105 z m -0.266347,3.202164 -0.266347,1.007886 -1.036108,-0.267053 0.266347,-1.007886 -0.384881,-0.652286 0.532695,-2.015772 0.65158,-0.385586 1.006475,-1.897592 6.098469,1.541639 0,2.164292 0.384881,0.652286 -0.533047,2.045758 -0.651228,0.355953 -0.236714,1.037519 -1.036108,-0.2667 0.266347,-1.008239 -5.062361,-1.304219"
   style="fill:#000000;fill-opacity:1;fill-rule:evenodd;stroke:none"
   id="path16913" /><path
   inkscape:connector-curvature="0"
   d="m -61.16234,73.901689 0.147814,0.118533 0.1778,0 0.177447,-0.118533 12.848166,-12.867569 0.0889,-0.148167 0,-0.1778 -0.0889,-0.148166 -12.848166,-12.89685 -0.177447,-0.0889 -0.1778,0 -0.147814,0.0889 -12.848166,12.89685 -0.0889,0.148166 0,0.1778 0.0889,0.148167 12.848166,12.867569 z m -13.35158,-13.845822 -0.1778,0.2667 -0.118181,0.296686 0,0.3556 0.118181,0.296686 0.1778,0.2667 12.848166,12.867217 0.266347,0.207433 0.325614,0.0889 0.325614,0 0.296333,-0.0889 0.266347,-0.207433 12.848167,-12.867217 0.20708,-0.2667 0.0889,-0.296686 0,-0.3556 -0.0889,-0.296686 -0.20708,-0.2667 -12.848167,-12.867216 -0.266347,-0.207786 -0.296333,-0.08855 -0.325614,0 -0.325614,0.08855 -0.266347,0.207786 -12.848166,12.867216"
   style="fill:#000000;fill-opacity:1;fill-rule:evenodd;stroke:none"
   id="path16915" /></g>
</svg>