<?xml version="1.0" encoding="UTF-8" standalone="no"?>
<!-- Created with Inkscape (http://www.inkscape.org/) -->

<svg
   xmlns:dc="http://purl.org/dc/elements/1.1/"
   xmlns:cc="http://creativecommons.org/ns#"
   xmlns:rdf="http://www.w3.org/1999/02/22-rdf-syntax-ns#"
   xmlns:svg="http://www.w3.org/2000/svg"
   xmlns="http://www.w3.org/2000/svg"
   xmlns:sodipodi="http://sodipodi.sourceforge.net/DTD/sodipodi-0.dtd"
   xmlns:inkscape="http://www.inkscape.org/namespaces/inkscape"
   version="1.1"
   width="100.91125"
   height="101.015"
   id="svg2"
   xml:space="preserve"
   inkscape:version="0.48.2 r9819"
   sodipodi:docname="Chile PF-1a.svg"><sodipodi:namedview
     pagecolor="#ffffff"
     bordercolor="#666666"
     borderopacity="1"
     objecttolerance="10"
     gridtolerance="10"
     guidetolerance="10"
     inkscape:pageopacity="0"
     inkscape:pageshadow="2"
     inkscape:window-width="1280"
     inkscape:window-height="1004"
     id="namedview19"
     showgrid="false"
     inkscape:zoom="5.7374441"
     inkscape:cx="78.489734"
     inkscape:cy="36.328337"
     inkscape:window-x="-8"
     inkscape:window-y="-8"
     inkscape:window-maximized="1"
     inkscape:current-layer="svg2"
     fit-margin-top="0"
     fit-margin-left="0"
     fit-margin-right="0"
     fit-margin-bottom="0" /><defs
     id="defs20" /><metadata
     id="metadata8"><rdf:RDF><cc:Work
         rdf:about=""><dc:format>image/svg+xml</dc:format><dc:type
           rdf:resource="http://purl.org/dc/dcmitype/StillImage" /><dc:title></dc:title></cc:Work></rdf:RDF></metadata><path
     inkscape:connector-curvature="0"
     d="m 99.5475,54.02125 0.73375,-1.04875 0.525,-1.15375 0.105,-1.25875 -0.105,-1.25875 -0.525,-1.25875 -0.73375,-1.04875 -45.63,-45.525 -0.94375,-0.735 L 51.715,0.21 50.45625,0 l -1.26,0.21 -1.2575,0.52375 -0.945,0.735 -45.5250005,45.525 -0.83875,1.04875 L 0.105,49.30125 0,50.56 l 0.105,1.25875 0.5249995,1.15375 0.83875,1.04875 45.5250005,45.52625 0.945,0.83875 1.2575,0.52375 1.26,0.105 1.25875,-0.105 1.25875,-0.52375 0.94375,-0.83875 45.63,-45.52625"
     style="fill:#fde012;fill-opacity:1;fill-rule:nonzero;stroke:none"
     id="path4037" /><path
     inkscape:connector-curvature="0"
     d="M 49.61625,96.925 4.0912495,51.4 l -0.315,-0.525 0,-0.62875 0.315,-0.63 45.5250005,-45.525 0.525,-0.315 0.62875,0 0.525,0.315 45.63,45.525 0.315,0.63 0,0.62875 -0.315,0.525 -45.63,45.525 -0.525,0.31375 -0.62875,0 -0.525,-0.31375 z m -1.7825,1.7825 0.94375,0.73375 1.15375,0.315 1.15375,0 1.04875,-0.315 0.94375,-0.73375 45.52625,-45.525 0.73375,-0.94375 0.315,-1.15375 0,-1.15375 -0.315,-1.05 L 98.60375,47.9375 53.0775,2.3075 52.13375,1.67875 51.085,1.36375 l -1.15375,0 -1.15375,0.315 -0.94375,0.62875 -45.5250005,45.63 -0.735,0.94375 -0.315,1.05 0,1.15375 0.315,1.15375 0.735,0.94375 45.5250005,45.525"
     style="fill:#000000;fill-opacity:1;fill-rule:evenodd;stroke:none"
     id="path4039" /><path
     inkscape:connector-curvature="0"
     d="m 41.955,25.63125 4.93,0 0,49.51125 -4.93,0 0,-49.51125 z"
     style="fill:#000000;fill-opacity:1;fill-rule:evenodd;stroke:none"
     id="path4041" /><path
     inkscape:connector-curvature="0"
     d="m 64.1925,75.14375 -4.93,0 0,-19.82625 -4.93,-9.965 0,-19.72125 4.93,0 0,18.5675 4.93,9.86 0,21.085"
     style="fill:#000000;fill-opacity:1;fill-rule:evenodd;stroke:none"
     id="path4043" /></svg>