<?xml version="1.0" encoding="UTF-8" standalone="no"?>
<!-- Created with Inkscape (http://www.inkscape.org/) -->

<svg
   xmlns:dc="http://purl.org/dc/elements/1.1/"
   xmlns:cc="http://creativecommons.org/ns#"
   xmlns:rdf="http://www.w3.org/1999/02/22-rdf-syntax-ns#"
   xmlns:svg="http://www.w3.org/2000/svg"
   xmlns="http://www.w3.org/2000/svg"
   xmlns:sodipodi="http://sodipodi.sourceforge.net/DTD/sodipodi-0.dtd"
   xmlns:inkscape="http://www.inkscape.org/namespaces/inkscape"
   version="1.1"
   width="100.91"
   height="101.01625"
   id="svg2"
   xml:space="preserve"
   inkscape:version="0.48.2 r9819"
   sodipodi:docname="AJAX1.svg"><sodipodi:namedview
     pagecolor="#ffffff"
     bordercolor="#666666"
     borderopacity="1"
     objecttolerance="10"
     gridtolerance="10"
     guidetolerance="10"
     inkscape:pageopacity="0"
     inkscape:pageshadow="2"
     inkscape:window-width="1280"
     inkscape:window-height="1004"
     id="namedview19"
     showgrid="false"
     inkscape:zoom="5.7374441"
     inkscape:cx="68.121646"
     inkscape:cy="46.629181"
     inkscape:window-x="-8"
     inkscape:window-y="-8"
     inkscape:window-maximized="1"
     inkscape:current-layer="svg2"
     fit-margin-top="0"
     fit-margin-left="0"
     fit-margin-right="0"
     fit-margin-bottom="0" /><defs
     id="defs20" /><metadata
     id="metadata8"><rdf:RDF><cc:Work
         rdf:about=""><dc:format>image/svg+xml</dc:format><dc:type
           rdf:resource="http://purl.org/dc/dcmitype/StillImage" /><dc:title></dc:title></cc:Work></rdf:RDF></metadata><path
     inkscape:connector-curvature="0"
     d="m 99.54625,54.0225 0.735,-1.05 0.52375,-1.15375 0.105,-1.25875 -0.105,-1.2575 -0.52375,-1.25875 -0.735,-1.05 -45.63,-45.525 L 52.9725,0.735 51.71375,0.21 50.455,0 49.19625,0.21 47.9375,0.735 l -0.94375,0.73375 -45.525,45.525 -0.84,1.05 L 0.105,49.3025 0,50.56 l 0.105,1.25875 0.52375,1.15375 0.84,1.05 45.525,45.525 0.94375,0.83875 1.25875,0.525 1.25875,0.105 1.25875,-0.105 1.25875,-0.525 0.94375,-0.83875 45.63,-45.525"
     style="fill:#fde012;fill-opacity:1;fill-rule:nonzero;stroke:none"
     id="path3027" /><path
     inkscape:connector-curvature="0"
     d="M 49.61625,96.925 4.09125,51.4 l -0.315,-0.525 0,-0.62875 0.315,-0.63 45.525,-45.525 0.52375,-0.31375 0.63,0 0.52375,0.31375 45.63,45.525 0.315,0.63 0,0.62875 -0.315,0.525 -45.63,45.525 -0.52375,0.31375 -0.63,0 -0.52375,-0.31375 z m -1.78375,1.78375 0.94375,0.73375 1.155,0.315 1.15375,0 1.04875,-0.315 0.94375,-0.73375 45.525,-45.525 0.735,-0.945 0.31375,-1.15375 0,-1.15375 L 99.3375,48.8825 98.6025,47.93875 53.0775,2.3075 52.13375,1.67875 51.085,1.36375 l -1.15375,0 -1.155,0.315 -0.94375,0.62875 -45.525,45.63125 -0.73375,0.94375 -0.315,1.04875 0,1.15375 0.315,1.15375 0.73375,0.945 45.525,45.525"
     style="fill:#000000;fill-opacity:1;fill-rule:evenodd;stroke:none"
     id="path3029" /><path
     inkscape:connector-curvature="0"
     d="m 59.71625,75.15625 5.45375,0 0,-22.6575 -4.825,-14.895 0,-16.88875 -5.455,0 0,17.8325 4.82625,14.79 0,21.81875"
     style="fill:#000000;fill-opacity:1;fill-rule:evenodd;stroke:none"
     id="path3031" /><path
     inkscape:connector-curvature="0"
     d="m 41.14875,75.15625 -5.455,0 0,-22.6575 4.82625,-14.895 0,-16.88875 5.45375,0 0,17.8325 -4.825,14.79 0,21.81875"
     style="fill:#000000;fill-opacity:1;fill-rule:evenodd;stroke:none"
     id="path3033" /></svg>