<?xml version="1.0" encoding="UTF-8" standalone="no"?>
<!-- Created with Inkscape (http://www.inkscape.org/) -->

<svg
   xmlns:dc="http://purl.org/dc/elements/1.1/"
   xmlns:cc="http://creativecommons.org/ns#"
   xmlns:rdf="http://www.w3.org/1999/02/22-rdf-syntax-ns#"
   xmlns:svg="http://www.w3.org/2000/svg"
   xmlns="http://www.w3.org/2000/svg"
   xmlns:sodipodi="http://sodipodi.sourceforge.net/DTD/sodipodi-0.dtd"
   xmlns:inkscape="http://www.inkscape.org/namespaces/inkscape"
   version="1.1"
   width="100.91125"
   height="101.165"
   id="svg2"
   xml:space="preserve"
   inkscape:version="0.48.2 r9819"
   sodipodi:docname="Chile PF-1c.svg"><sodipodi:namedview
     pagecolor="#ffffff"
     bordercolor="#666666"
     borderopacity="1"
     objecttolerance="10"
     gridtolerance="10"
     guidetolerance="10"
     inkscape:pageopacity="0"
     inkscape:pageshadow="2"
     inkscape:window-width="1280"
     inkscape:window-height="1004"
     id="namedview19"
     showgrid="false"
     inkscape:zoom="5.7374441"
     inkscape:cx="76.460533"
     inkscape:cy="55.812684"
     inkscape:window-x="-8"
     inkscape:window-y="-8"
     inkscape:window-maximized="1"
     inkscape:current-layer="svg2"
     fit-margin-top="0"
     fit-margin-left="0"
     fit-margin-right="0"
     fit-margin-bottom="0" /><defs
     id="defs20" /><metadata
     id="metadata8"><rdf:RDF><cc:Work
         rdf:about=""><dc:format>image/svg+xml</dc:format><dc:type
           rdf:resource="http://purl.org/dc/dcmitype/StillImage" /><dc:title></dc:title></cc:Work></rdf:RDF></metadata><path
     inkscape:connector-curvature="0"
     d="m 99.5475,54.10125 0.73375,-1.05 0.525,-1.15625 0.105,-1.26 -0.105,-1.26125 -0.525,-1.26 -0.73375,-1.05 L 53.917499,1.47125 52.973749,0.735 51.714999,0.21 50.456249,0 l -1.25875,0.21 -1.258749,0.525 -0.945,0.73625 -45.525,45.5925 -0.83875,1.05 -0.525,1.26 L 0,50.635 l 0.105,1.26 0.525,1.15625 0.83875,1.05 45.525,45.59375 0.945,0.84 1.258749,0.525 1.25875,0.105 1.25875,-0.105 1.25875,-0.525 0.94375,-0.84 L 99.5475,54.10125"
     style="fill:#fde012;fill-opacity:1;fill-rule:nonzero;stroke:none"
     id="path4876" /><path
     inkscape:connector-curvature="0"
     d="M 49.616249,97.0675 4.09125,51.475 l -0.315,-0.525 0,-0.63 0.315,-0.63 45.524999,-45.5925 0.525,-0.31625 0.62875,0 0.525,0.31625 L 96.925,49.69 l 0.315,0.63 0,0.63 -0.315,0.525 -45.630001,45.5925 -0.525,0.315 -0.62875,0 -0.525,-0.315 z m -1.782499,1.78625 0.943749,0.735 1.15375,0.315 1.15375,0 1.04875,-0.315 0.945,-0.735 45.525001,-45.5925 0.73375,-0.94625 0.315,-1.155 0,-1.155 -0.315,-1.05125 -0.73375,-0.945 -45.525001,-45.6975 -0.945,-0.63 -1.04875,-0.315 -1.15375,0 -1.15375,0.315 -0.943749,0.63 -45.525,45.6975 -0.735,0.945 -0.315,1.05125 0,1.155 0.315,1.155 0.735,0.94625 45.525,45.5925"
     style="fill:#000000;fill-opacity:1;fill-rule:evenodd;stroke:none"
     id="path4878" /><path
     inkscape:connector-curvature="0"
     d="m 58.077499,50.70875 0,-13.76125 4.30125,-10.50625 6.922501,2.8375 -3.881251,9.13875 0,24.4775 3.881251,9.13875 -6.922501,2.8375 -4.30125,-10.50625 0,-13.65625"
     style="fill:#000000;fill-opacity:1;fill-rule:nonzero;stroke:none"
     id="path4880" /><path
     inkscape:connector-curvature="0"
     d="m 38.77625,74.87125 -6.9225,-2.8375 3.88125,-9.13875 0,-24.4775 -3.88125,-9.13875 6.9225,-2.8375 4.40625,10.50625 0,27.4175 -4.40625,10.50625"
     style="fill:#000000;fill-opacity:1;fill-rule:nonzero;stroke:none"
     id="path4882" /></svg>