<?xml version="1.0" encoding="UTF-8" standalone="no"?>
<!-- Created with Inkscape (http://www.inkscape.org/) -->

<svg
   xmlns:dc="http://purl.org/dc/elements/1.1/"
   xmlns:cc="http://creativecommons.org/ns#"
   xmlns:rdf="http://www.w3.org/1999/02/22-rdf-syntax-ns#"
   xmlns:svg="http://www.w3.org/2000/svg"
   xmlns="http://www.w3.org/2000/svg"
   xmlns:sodipodi="http://sodipodi.sourceforge.net/DTD/sodipodi-0.dtd"
   xmlns:inkscape="http://www.inkscape.org/namespaces/inkscape"
   version="1.1"
   width="100.91125"
   height="101.015"
   id="svg2"
   xml:space="preserve"
   inkscape:version="0.48.2 r9819"
   sodipodi:docname="Chile PF-3b.svg"><sodipodi:namedview
     pagecolor="#ffffff"
     bordercolor="#666666"
     borderopacity="1"
     objecttolerance="10"
     gridtolerance="10"
     guidetolerance="10"
     inkscape:pageopacity="0"
     inkscape:pageshadow="2"
     inkscape:window-width="1280"
     inkscape:window-height="1004"
     id="namedview19"
     showgrid="false"
     inkscape:zoom="5.7374441"
     inkscape:cx="76.280848"
     inkscape:cy="56.238492"
     inkscape:window-x="-8"
     inkscape:window-y="-8"
     inkscape:window-maximized="1"
     inkscape:current-layer="svg2"
     fit-margin-top="0"
     fit-margin-left="0"
     fit-margin-right="0"
     fit-margin-bottom="0" /><defs
     id="defs20" /><metadata
     id="metadata8"><rdf:RDF><cc:Work
         rdf:about=""><dc:format>image/svg+xml</dc:format><dc:type
           rdf:resource="http://purl.org/dc/dcmitype/StillImage" /><dc:title></dc:title></cc:Work></rdf:RDF></metadata><path
     inkscape:connector-curvature="0"
     d="M 1.36375,54.021249 0.63,52.973749 0.105,51.818749 0,50.559999 l 0.105,-1.25875 0.525,-1.25875 0.73375,-1.04875 45.63,-45.524999 0.945,-0.735 L 49.1975,0.21 50.45625,0 51.715,0.21 l 1.25875,0.52375 0.94375,0.735 45.525,45.524999 0.83875,1.04875 0.525,1.25875 0.105,1.25875 -0.105,1.25875 -0.525,1.155 -0.83875,1.0475 -45.525,45.526252 -0.94375,0.838749 -1.25875,0.52375 -1.25875,0.105 -1.25875,-0.105 -1.25875,-0.52375 -0.945,-0.838749 -45.63,-45.526252"
     style="fill:#fde012;fill-opacity:1;fill-rule:nonzero;stroke:none"
     id="path6772" /><path
     inkscape:connector-curvature="0"
     d="m 51.295,96.924999 45.525,-45.525 0.315,-0.525 0,-0.62875 -0.315,-0.63 -45.525,-45.524999 -0.525,-0.315 -0.62875,0 -0.525,0.315 -45.63,45.524999 -0.31375,0.63 0,0.62875 0.31375,0.525 45.63,45.525 0.525,0.31375 0.62875,0 0.525,-0.31375 z m 1.78375,1.782502 -0.945,0.73375 -1.15375,0.31625 -1.15375,0 -1.04875,-0.31625 -0.94375,-0.73375 -45.525,-45.525002 -0.735,-0.94375 -0.315,-1.15375 0,-1.15375 0.315,-1.05 0.735,-0.94375 45.525,-45.629999 0.94375,-0.62875 1.04875,-0.315 1.15375,0 1.15375,0.315 0.945,0.62875 45.525,45.629999 0.73375,0.94375 0.315,1.05 0,1.15375 -0.315,1.15375 -0.73375,0.94375 -45.525,45.525002"
     style="fill:#000000;fill-opacity:1;fill-rule:evenodd;stroke:none"
     id="path6774" /><path
     inkscape:connector-curvature="0"
     d="m 58.92,75.184999 -4.93,0 0,-49.51125 4.93,0 0,49.51125 z"
     style="fill:#000000;fill-opacity:1;fill-rule:evenodd;stroke:none"
     id="path6776" /><path
     inkscape:connector-curvature="0"
     d="m 36.5775,25.672499 5.034999,0 0,19.93 4.930001,9.86125 0,19.72125 -4.930001,0 0,-18.5675 -5.034999,-9.86 0,-21.085"
     style="fill:#000000;fill-opacity:1;fill-rule:evenodd;stroke:none"
     id="path6778" /></svg>