<?xml version="1.0" encoding="UTF-8" standalone="no"?>
<!-- Created with Inkscape (http://www.inkscape.org/) -->

<svg
   xmlns:dc="http://purl.org/dc/elements/1.1/"
   xmlns:cc="http://creativecommons.org/ns#"
   xmlns:rdf="http://www.w3.org/1999/02/22-rdf-syntax-ns#"
   xmlns:svg="http://www.w3.org/2000/svg"
   xmlns="http://www.w3.org/2000/svg"
   xmlns:sodipodi="http://sodipodi.sourceforge.net/DTD/sodipodi-0.dtd"
   xmlns:inkscape="http://www.inkscape.org/namespaces/inkscape"
   version="1.1"
   width="100.91"
   height="101.165"
   id="svg2"
   xml:space="preserve"
   inkscape:version="0.48.2 r9819"
   sodipodi:docname="Chile PF-2.svg"><sodipodi:namedview
     pagecolor="#ffffff"
     bordercolor="#666666"
     borderopacity="1"
     objecttolerance="10"
     gridtolerance="10"
     guidetolerance="10"
     inkscape:pageopacity="0"
     inkscape:pageshadow="2"
     inkscape:window-width="1280"
     inkscape:window-height="1004"
     id="namedview19"
     showgrid="false"
     inkscape:zoom="5.7374441"
     inkscape:cx="74.801735"
     inkscape:cy="54.707499"
     inkscape:window-x="-8"
     inkscape:window-y="-8"
     inkscape:window-maximized="1"
     inkscape:current-layer="svg2"
     fit-margin-top="0"
     fit-margin-left="0"
     fit-margin-right="0"
     fit-margin-bottom="0" /><defs
     id="defs20" /><metadata
     id="metadata8"><rdf:RDF><cc:Work
         rdf:about=""><dc:format>image/svg+xml</dc:format><dc:type
           rdf:resource="http://purl.org/dc/dcmitype/StillImage" /><dc:title></dc:title></cc:Work></rdf:RDF></metadata><path
     inkscape:connector-curvature="0"
     d="m 99.546252,54.101251 0.734998,-1.05 0.52375,-1.155001 0.105,-1.26125 -0.105,-1.26 -0.52375,-1.26125 -0.734998,-1.05 L 53.91625,1.47125 52.9725,0.73625 51.71375,0.21 50.455,0 49.19625,0.21 47.9375,0.73625 l -0.94375,0.735 -45.525,45.5925 -0.84,1.05 L 0.105,49.375 0,50.635 l 0.105,1.26125 0.52375,1.155001 0.84,1.05 45.525,45.592502 0.94375,0.841247 1.25875,0.525 1.25875,0.105 1.25875,-0.105 1.25875,-0.525 0.94375,-0.841247 45.630002,-45.592502"
     style="fill:#fde012;fill-opacity:1;fill-rule:nonzero;stroke:none"
     id="path5799" /><path
     inkscape:connector-curvature="0"
     d="M 49.61625,97.067503 4.09125,51.47625 3.77625,50.95 l 0,-0.63 0.315,-0.63 45.525,-45.5925 0.52375,-0.315 0.63,0 0.52375,0.315 45.63,45.5925 0.315,0.63 0,0.63 -0.315,0.52625 -45.63,45.591253 -0.52375,0.31625 -0.63,0 -0.52375,-0.31625 z m -1.78375,1.78625 0.94375,0.735 1.15375,0.31625 1.155,0 1.04875,-0.31625 0.94375,-0.735 45.525002,-45.592502 0.735,-0.945001 0.31375,-1.15625 0,-1.155 -0.31375,-1.05 -0.735,-0.94625 -45.525002,-45.6975 -0.94375,-0.63 -1.04875,-0.315 -1.155,0 -1.15375,0.315 -0.94375,0.63 -45.525,45.6975 -0.73375,0.94625 -0.315,1.05 0,1.155 0.315,1.15625 0.73375,0.945001 45.525,45.592502"
     style="fill:#000000;fill-opacity:1;fill-rule:evenodd;stroke:none"
     id="path5801" /><path
     inkscape:connector-curvature="0"
     d="m 59.7425,20.78625 5.455,0 0,27.61125 -4.825,14.935001 0,11.976249 -5.455,0 0,-12.816249 4.825,-14.917501 0,-26.78875"
     style="fill:#000000;fill-opacity:1;fill-rule:evenodd;stroke:none"
     id="path5803" /><path
     inkscape:connector-curvature="0"
     d="m 41.17625,20.78625 -5.455,0 0,27.62875 4.82625,14.917501 0,11.976249 5.45375,0 0,-12.816249 -4.825,-14.917501 0,-26.78875"
     style="fill:#000000;fill-opacity:1;fill-rule:evenodd;stroke:none"
     id="path5805" /></svg>