<?xml version="1.0" encoding="UTF-8" standalone="no"?>
<!-- Created with Inkscape (http://www.inkscape.org/) -->

<svg
   xmlns:dc="http://purl.org/dc/elements/1.1/"
   xmlns:cc="http://creativecommons.org/ns#"
   xmlns:rdf="http://www.w3.org/1999/02/22-rdf-syntax-ns#"
   xmlns:svg="http://www.w3.org/2000/svg"
   xmlns="http://www.w3.org/2000/svg"
   xmlns:sodipodi="http://sodipodi.sourceforge.net/DTD/sodipodi-0.dtd"
   xmlns:inkscape="http://www.inkscape.org/namespaces/inkscape"
   version="1.1"
   width="100.91125"
   height="101.165"
   id="svg2"
   xml:space="preserve"
   inkscape:version="0.48.2 r9819"
   sodipodi:docname="AJAX1.svg"><sodipodi:namedview
     pagecolor="#ffffff"
     bordercolor="#666666"
     borderopacity="1"
     objecttolerance="10"
     gridtolerance="10"
     guidetolerance="10"
     inkscape:pageopacity="0"
     inkscape:pageshadow="2"
     inkscape:window-width="1280"
     inkscape:window-height="1004"
     id="namedview19"
     showgrid="false"
     inkscape:zoom="5.6568543"
     inkscape:cx="76.703861"
     inkscape:cy="36.902482"
     inkscape:window-x="-8"
     inkscape:window-y="-8"
     inkscape:window-maximized="1"
     inkscape:current-layer="svg2"
     fit-margin-top="0"
     fit-margin-left="0"
     fit-margin-right="0"
     fit-margin-bottom="0" /><defs
     id="defs20" /><metadata
     id="metadata8"><rdf:RDF><cc:Work
         rdf:about=""><dc:format>image/svg+xml</dc:format><dc:type
           rdf:resource="http://purl.org/dc/dcmitype/StillImage" /><dc:title></dc:title></cc:Work></rdf:RDF></metadata><path
     inkscape:connector-curvature="0"
     d="m 99.5475,54.10125 0.73375,-1.05 0.525,-1.15625 0.105,-1.26 -0.105,-1.26125 -0.525,-1.26 -0.73375,-1.05 L 53.9175,1.47125 52.97375,0.735 51.715,0.21 50.45625,0 49.1975,0.21 l -1.25875,0.525 -0.945,0.73625 -45.525,45.5925 -0.83875,1.05 -0.525,1.26 L 0,50.635 l 0.105,1.26 0.525,1.15625 0.83875,1.05 45.525,45.5925 0.945,0.84 1.25875,0.52625 1.25875,0.105 1.25875,-0.105 1.25875,-0.52625 0.94375,-0.84 45.63,-45.5925"
     style="fill:#fde012;fill-opacity:1;fill-rule:nonzero;stroke:none"
     id="path3023" /><path
     inkscape:connector-curvature="0"
     d="m 49.61625,97.0675 -45.525,-45.5925 -0.315,-0.525 0,-0.63 0.315,-0.63 45.525,-45.5925 0.525,-0.31625 0.62875,0 0.525,0.31625 45.63,45.5925 0.315,0.63 0,0.63 -0.315,0.525 -45.63,45.5925 -0.525,0.315 -0.62875,0 -0.525,-0.315 z m -1.7825,1.78625 0.94375,0.735 1.15375,0.315 1.15375,0 1.04875,-0.315 0.94375,-0.735 45.52625,-45.5925 0.73375,-0.945 0.315,-1.15625 0,-1.155 -0.315,-1.05125 -0.73375,-0.945 -45.52625,-45.6975 -0.94375,-0.63 -1.04875,-0.315 -1.15375,0 -1.15375,0.315 -0.94375,0.63 -45.525,45.6975 -0.735,0.945 -0.315,1.05125 0,1.155 0.315,1.15625 0.735,0.945 45.525,45.5925"
     style="fill:#000000;fill-opacity:1;fill-rule:evenodd;stroke:none"
     id="path3025" /><path
     inkscape:connector-curvature="0"
     d="m 59.06625,77.6475 -8.49625,-8.51 -8.49625,8.51 16.9925,0"
     style="fill:#000000;fill-opacity:1;fill-rule:evenodd;stroke:none"
     id="path3027" /><path
     inkscape:connector-curvature="0"
     d="m 59.06625,23.44 -8.49625,8.51 -8.49625,-8.51 16.9925,0"
     style="fill:#000000;fill-opacity:1;fill-rule:evenodd;stroke:none"
     id="path3029" /><path
     inkscape:connector-curvature="0"
     d="m 50.36,65.98625 0.105,-1.05125 -0.42,-0.945 -0.41875,-0.735 0.105,-0.73625 0.41875,-0.73375 0.735,-0.31625 0.83875,0.105 0.63,0.63125 0.20875,0.735 -0.20875,1.365 -0.84,1.05125 -1.15375,0.63 z m 28.2175,-20.065 0,0.315 1.15375,-0.42 1.15375,0 1.15375,0.42 0.83875,0.73625 0.735,-0.63125 0.94375,-0.42 1.04875,-0.21 0.945,0.21 0.94375,0.42 0.73375,0.735 0.42,0.94625 0.42,1.68 0,5.46375 -2.41375,0 0,-5.46375 -0.10375,-0.735 -0.525,-0.525 -0.73375,-0.21 -0.735,0.21 -0.52375,0.525 -0.21,0.735 0,5.46375 -2.3075,0 0,-5.46375 -0.21,-0.735 -0.525,-0.525 -0.73375,-0.21 -0.735,0.21 -0.52375,0.525 -0.21,0.735 0,5.46375 -2.3075,0 0,-9.245 2.3075,0 z M 65.15,48.3375 62.9475,49.1775 60.85,50.43875 58.96125,52.015 57.38875,53.8 56.025,55.90125 55.08,58.1075 l -0.52375,2.41625 -0.21,2.41625 16.88875,0 0,-3.8875 -12.37875,0 0.84,-1.89 1.25875,-1.68125 1.57375,-1.47125 1.7825,-1.155 1.88875,-0.84 1.4675,-0.52625 1.25875,-0.945 1.05,-1.15625 0.73375,-1.26 0.42,-1.47125 0.105,-1.575 -0.21,-1.47125 -0.525,-1.47 -0.83875,-1.26125 -1.04875,-1.05 -1.78375,-1.15625 -1.9925,-0.735 -1.99375,-0.21 -1.8875,0.21 -1.78375,0.735 -1.67875,0.945 -1.25875,1.36625 -1.04875,1.68125 -0.62875,1.785 3.88125,0.84125 0.52375,-1.47125 0.945,-1.155 1.36375,-0.73625 1.5725,-0.315 1.15375,0.10625 1.15375,0.42 1.05,0.63 0.62875,0.63 0.42,0.84 0.21,0.84125 -0.105,0.84 -0.21,0.84 -0.525,0.63125 -1.46875,0.945 z M 42.07375,44.03 35.255,52.96 l 6.81875,0 0,-8.93 z m 0,12.50125 -12.16875,0 0,-2.20625 12.16875,-16.1775 3.88125,0 0,14.8125 2.2025,0 0,3.57125 -2.2025,0 0,6.40875 -3.88125,0 0,-6.40875"
     style="fill:#000000;fill-opacity:1;fill-rule:evenodd;stroke:none"
     id="path3031" /></svg>