<?xml version="1.0" encoding="UTF-8" standalone="no"?>
<!-- Created with Inkscape (http://www.inkscape.org/) -->

<svg
   xmlns:dc="http://purl.org/dc/elements/1.1/"
   xmlns:cc="http://creativecommons.org/ns#"
   xmlns:rdf="http://www.w3.org/1999/02/22-rdf-syntax-ns#"
   xmlns:svg="http://www.w3.org/2000/svg"
   xmlns="http://www.w3.org/2000/svg"
   xmlns:sodipodi="http://sodipodi.sourceforge.net/DTD/sodipodi-0.dtd"
   xmlns:inkscape="http://www.inkscape.org/namespaces/inkscape"
   version="1.1"
   width="100.91"
   height="101.16625"
   id="svg2"
   xml:space="preserve"
   inkscape:version="0.48.2 r9819"
   sodipodi:docname="Chile PF-5.svg"><sodipodi:namedview
     pagecolor="#ffffff"
     bordercolor="#666666"
     borderopacity="1"
     objecttolerance="10"
     gridtolerance="10"
     guidetolerance="10"
     inkscape:pageopacity="0"
     inkscape:pageshadow="2"
     inkscape:window-width="1280"
     inkscape:window-height="1004"
     id="namedview19"
     showgrid="false"
     inkscape:zoom="5.6568543"
     inkscape:cx="37.533077"
     inkscape:cy="49.655402"
     inkscape:window-x="-8"
     inkscape:window-y="-8"
     inkscape:window-maximized="1"
     inkscape:current-layer="svg2"
     fit-margin-top="0"
     fit-margin-left="0"
     fit-margin-right="0"
     fit-margin-bottom="0" /><defs
     id="defs20" /><metadata
     id="metadata8"><rdf:RDF><cc:Work
         rdf:about=""><dc:format>image/svg+xml</dc:format><dc:type
           rdf:resource="http://purl.org/dc/dcmitype/StillImage" /><dc:title></dc:title></cc:Work></rdf:RDF></metadata><path
     inkscape:connector-curvature="0"
     d="m 99.546246,54.1025 0.735004,-1.05 0.52375,-1.15625 0.105,-1.26 -0.105,-1.26125 -0.52375,-1.26125 -0.735004,-1.05 L 53.91625,1.4725 52.9725,0.73625 51.71375,0.21125 50.455,0 l -1.25875,0.21125 -1.25875,0.525 -0.94375,0.73625 -45.525,45.59125 -0.84,1.05 L 0.105,49.375 0,50.63625 l 0.105,1.26 0.52375,1.15625 0.84,1.05 45.525,45.592497 0.94375,0.841253 1.25875,0.525 1.25875,0.105 1.25875,-0.105 1.25875,-0.525 0.94375,-0.841253 L 99.546246,54.1025"
     style="fill:#fde012;fill-opacity:1;fill-rule:nonzero;stroke:none"
     id="path3990" /><path
     inkscape:connector-curvature="0"
     d="m 49.61625,97.068747 -45.525,-45.592497 -0.315,-0.525 0,-0.63 0.315,-0.63125 45.525,-45.5925 0.52375,-0.315 0.63,0 0.525,0.315 45.629996,45.5925 0.31375,0.63125 0,0.63 -0.31375,0.525 -45.629996,45.592497 -0.525,0.315 -0.63,0 -0.52375,-0.315 z m -1.78375,1.78625 0.94375,0.735 1.155,0.315 1.15375,0 1.04875,-0.315 0.94375,-0.735 45.524996,-45.592497 0.735,-0.94625 0.31375,-1.155 0,-1.155 -0.31375,-1.05125 -0.735,-0.945 L 53.0775,2.3125 52.13375,1.68125 51.085,1.36625 l -1.15375,0 -1.155,0.315 L 47.8325,2.3125 2.3075,48.01 l -0.73375,0.945 -0.315,1.05125 0,1.155 0.315,1.155 0.73375,0.94625 45.525,45.592497"
     style="fill:#000000;fill-opacity:1;fill-rule:evenodd;stroke:none"
     id="path3992" /><path
     inkscape:connector-curvature="0"
     d="m 45.9525,72.36375 0,0.20875 1.15375,-0.31375 1.15375,-0.10625 1.15375,0.42 0.83875,0.84125 0.84,-0.735 0.83875,-0.42 1.04875,-0.10625 0.94375,0.21125 0.945,0.42 0.73375,0.735 0.525,0.84 0.31375,1.78625 0,5.4625 -2.3075,0 0,-5.4625 -0.21,-0.735 -0.52375,-0.525 -0.735,-0.21 -0.73375,0.21 -0.525,0.525 -0.20875,0.735 0,5.4625 -2.30875,0 0,-5.4625 -0.20875,-0.735 -0.525,-0.525 -0.73375,-0.21 -0.735,0.21 -0.52375,0.525 -0.21,0.735 0,5.4625 -2.3075,0 0,-9.24375 2.3075,0 z m 4.09,-6.30375 0,-1.05 -0.31375,-0.94625 -0.42,-0.735 0.105,-0.84 0.42,-0.63125 0.73375,-0.315 0.83875,0.105 0.63,0.63125 0.21,0.735 -0.21,1.26 -0.83875,1.15625 -1.155,0.63 z m -9.545,-17.75375 -2.3075,0.94625 -2.09875,1.26 -1.8875,1.575 -1.57375,1.78625 -1.25875,2.10125 -0.94375,2.20625 -0.63,2.41625 -0.20875,2.41625 16.8875,0 0,-3.8875 -12.3775,0 0.94375,-1.89 1.25875,-1.68125 1.46875,-1.47 1.78375,-1.15625 1.9925,-0.84125 1.36375,-0.62875 1.25875,-0.84125 1.04875,-1.155 0.735,-1.36625 0.52375,-1.47125 0.105,-1.47 -0.21,-1.57625 -0.52375,-1.365 -0.84,-1.26125 -1.15375,-1.05 -1.6775,-1.155 -1.99375,-0.73625 -2.0975,-0.21 -1.88875,0.21 -1.7825,0.63 -1.57375,1.05125 -1.36375,1.365 -0.94375,1.57625 -0.63,1.89125 3.77625,0.735 0.525,-1.36625 1.04875,-1.155 1.36375,-0.84 1.46875,-0.21 1.25875,0.105 1.15375,0.42 0.94375,0.63 0.63,0.63 0.41875,0.735 0.21,0.84125 0,0.945 -0.315,0.73625 -0.52375,0.735 -1.36375,0.84 z m 43.007496,10.82 -8.49625,-8.50875 8.49625,-8.50875 0,17.0175 z M 64.833746,44.105 58.015,53.03375 l 6.818746,0 0,-8.92875 z M 17.00125,59.12625 25.4975,50.6175 l -8.49625,-8.50875 0,17.0175 z m 47.832496,-2.52 -12.168746,0 0,-2.3125 12.168746,-16.0725 3.88125,0 0,14.8125 2.2025,0 0,3.5725 -2.2025,0 0,6.4075 -3.88125,0 0,-6.4075"
     style="fill:#000000;fill-opacity:1;fill-rule:evenodd;stroke:none"
     id="path3994" /></svg>