<?xml version="1.0" encoding="UTF-8" standalone="no"?>
<!-- Created with Inkscape (http://www.inkscape.org/) -->

<svg
   xmlns:dc="http://purl.org/dc/elements/1.1/"
   xmlns:cc="http://creativecommons.org/ns#"
   xmlns:rdf="http://www.w3.org/1999/02/22-rdf-syntax-ns#"
   xmlns:svg="http://www.w3.org/2000/svg"
   xmlns="http://www.w3.org/2000/svg"
   xmlns:sodipodi="http://sodipodi.sourceforge.net/DTD/sodipodi-0.dtd"
   xmlns:inkscape="http://www.inkscape.org/namespaces/inkscape"
   version="1.1"
   width="102.1975"
   height="102.1975"
   id="svg2"
   xml:space="preserve"
   inkscape:version="0.48.2 r9819"
   sodipodi:docname="Chile PF-6.svg"><sodipodi:namedview
     pagecolor="#ffffff"
     bordercolor="#666666"
     borderopacity="1"
     objecttolerance="10"
     gridtolerance="10"
     guidetolerance="10"
     inkscape:pageopacity="0"
     inkscape:pageshadow="2"
     inkscape:window-width="1280"
     inkscape:window-height="1004"
     id="namedview19"
     showgrid="false"
     inkscape:zoom="5.6568543"
     inkscape:cx="62.468876"
     inkscape:cy="61.332941"
     inkscape:window-x="-8"
     inkscape:window-y="-8"
     inkscape:window-maximized="1"
     inkscape:current-layer="svg2"
     fit-margin-top="0"
     fit-margin-left="0"
     fit-margin-right="0"
     fit-margin-bottom="0" /><defs
     id="defs20" /><metadata
     id="metadata8"><rdf:RDF><cc:Work
         rdf:about=""><dc:format>image/svg+xml</dc:format><dc:type
           rdf:resource="http://purl.org/dc/dcmitype/StillImage" /><dc:title></dc:title></cc:Work></rdf:RDF></metadata><path
     inkscape:connector-curvature="0"
     d="m 54.595,1.34875 46.13,46.13 0.9825,1.35 0.49,1.4725 0,1.595 -0.49,1.4725 -0.9825,1.22625 -46.13,46.13 -1.22625,0.98125 -1.4725,0.49125 -1.595,0 -1.4725,-0.49125 L 47.6025,100.725 1.4725,54.595 0.49,53.36875 0,51.89625 l 0,-1.595 0.49,-1.4725 0.9825,-1.35 46.13,-46.13 L 48.82875,0.49 50.30125,0 l 1.595,0 1.4725,0.49 1.22625,0.85875"
     style="fill:#fde012;fill-opacity:1;fill-rule:nonzero;stroke:none"
     id="path5005" /><path
     inkscape:connector-curvature="0"
     d="M 53.73625,2.33 52.755,1.595 51.65125,1.22625 l -1.105,0 L 49.4425,1.595 48.46125,2.33 2.33125,48.46125 1.595,49.32 l -0.36875,1.10375 0,1.22625 0.36875,1.105 0.73625,0.98125 46.13,46.130001 0.98125,0.613749 1.10375,0.3675 1.105,0 1.10375,-0.3675 0.98125,-0.613749 46.13,-46.130001 0.73625,-0.98125 0.36875,-1.105 0,-1.22625 L 100.6025,49.32 99.86625,48.46125 53.73625,2.33 z m -49.6875,47.8475 46.13,-46.13 0.61375,-0.3675 0.6125,0 0.61375,0.3675 46.13,46.13 0.24625,0.61375 0,0.61375 -0.24625,0.49125 -46.13,46.130001 -0.61375,0.3675 -0.6125,0 -0.61375,-0.3675 -46.13,-46.130001 -0.245,-0.49125 0,-0.61375 0.245,-0.61375"
     style="fill:#000000;fill-opacity:1;fill-rule:evenodd;stroke:none"
     id="path5007" /><path
     inkscape:connector-curvature="0"
     d="m 76.31125,51.0375 -3.55875,0 -0.245,-1.35 -0.61375,-1.22625 -0.98125,-0.9825 -1.22625,-0.6125 -1.35,-0.24625 -1.35,0.24625 -1.22625,0.6125 -0.98125,0.9825 -0.61375,1.22625 -0.245,1.35 -22.33,0 -0.245,-1.35 -0.61375,-1.22625 -0.98125,-0.9825 -1.22625,-0.6125 -1.35,-0.24625 -1.35,0.24625 -1.22625,0.6125 -0.98125,0.9825 -0.61375,1.22625 -0.245,1.35 -3.435,0 0,-19.01625 29.07625,-0.12375 0,4.54 6.7475,0 2.20875,6.625 6.625,0 0,6.13375 2.33125,0 0,1.84125 -3.55875,0 3.55875,0 z m -10.18375,-7.975 -1.84,-5.52125 -5.88875,0 0,5.64375 7.72875,-0.1225 z m -25.2725,7.975 -0.12375,-1.105 -0.6125,-1.10375 -0.73625,-0.73625 -1.105,-0.49125 -1.10375,-0.245 -1.10375,0.245 -1.105,0.49125 -0.735,0.73625 -0.49125,1.10375 -0.245,1.105 0.245,1.10375 0.49125,1.10375 0.735,0.7375 1.105,0.6125 1.10375,0.1225 1.10375,-0.1225 1.105,-0.6125 0.73625,-0.7375 0.6125,-1.10375 0.12375,-1.10375 z m 31.1625,0 -0.12375,-1.105 -0.6125,-1.10375 -0.73625,-0.73625 -1.105,-0.49125 -1.10375,-0.245 -1.10375,0.245 -1.105,0.49125 -0.73625,0.73625 -0.6125,1.10375 -0.1225,1.105 0.1225,1.10375 0.6125,1.10375 0.73625,0.7375 1.105,0.6125 1.10375,0.1225 1.10375,-0.1225 1.105,-0.6125 0.73625,-0.7375 0.6125,-1.10375 0.12375,-1.10375"
     style="fill:#000000;fill-opacity:1;fill-rule:evenodd;stroke:none"
     id="path5009" /><path
     inkscape:connector-curvature="0"
     d="m 43.67625,63.67375 -0.3675,2.08625 0,2.2075 0.3675,2.08625 L 44.29,71.035 45.02625,71.89375 46.13,72.5075 47.23375,72.63 48.33875,72.5075 49.4425,71.89375 50.30125,71.1575 50.7925,70.05375 51.16,67.9675 51.16,65.76 50.7925,63.67375 50.30125,62.57 49.4425,61.71125 48.33875,61.22 47.23375,60.975 46.13,61.22 45.02625,61.71125 44.29,62.57 43.67625,63.67375 z m 20.98,4.29375 -0.24625,-1.34875 -0.6125,-0.9825 -0.9825,-0.6125 -1.10375,-0.245 -1.10375,0.3675 -0.85875,0.735 -0.73625,-0.735 L 58.03,64.9 l -0.98125,0 -0.85875,0.24625 0,-0.1225 -1.84,0 0,7.48375 1.84,0 0,-4.54 0.1225,-0.49125 0.49125,-0.49 0.61375,-0.1225 0.49,0.1225 0.49125,0.49 0.1225,0.49125 0,4.54 1.84,0 0,-4.54 0.24625,-0.49125 0.3675,-0.49 0.61375,-0.1225 0.61375,0.1225 0.3675,0.49 0.245,0.49125 0,4.54 1.84125,0 0,-4.54 z M 35.08875,61.22 29.445,66.86375 l 5.64375,5.64375 0,-4.6625 1.84,0 0,-1.96375 -1.84,0 0,-4.66125 z m 33.37,0 5.64375,5.64375 -5.64375,5.64375 0,-4.6625 -1.9625,0 0,-1.96375 1.9625,0 0,-4.66125 z m -29.32125,2.085 -0.9825,0 0,-1.34875 0.73625,-0.245 0.61375,-0.49125 1.4725,0 0,11.2875 -1.84,0 0,-9.2025 z m 6.25625,6.2575 0.73625,0.98125 1.10375,0.36875 1.105,-0.36875 0.73625,-0.98125 0.3675,-1.84 0,-1.84125 -0.3675,-1.71625 -0.73625,-0.9825 -1.105,-0.3675 -1.10375,0.3675 -0.73625,0.9825 -0.3675,2.69875 0.3675,2.69875"
     style="fill:#000000;fill-opacity:1;fill-rule:evenodd;stroke:none"
     id="path5011" /></svg>