<?xml version="1.0" encoding="UTF-8" standalone="no"?>
<!-- Created with Inkscape (http://www.inkscape.org/) -->

<svg
   xmlns:dc="http://purl.org/dc/elements/1.1/"
   xmlns:cc="http://creativecommons.org/ns#"
   xmlns:rdf="http://www.w3.org/1999/02/22-rdf-syntax-ns#"
   xmlns:svg="http://www.w3.org/2000/svg"
   xmlns="http://www.w3.org/2000/svg"
   xmlns:sodipodi="http://sodipodi.sourceforge.net/DTD/sodipodi-0.dtd"
   xmlns:inkscape="http://www.inkscape.org/namespaces/inkscape"
   version="1.1"
   width="100.91125"
   height="101.02875"
   id="svg2"
   xml:space="preserve"
   inkscape:version="0.48.2 r9819"
   sodipodi:docname="AJAX1.svg"><sodipodi:namedview
     pagecolor="#ffffff"
     bordercolor="#666666"
     borderopacity="1"
     objecttolerance="10"
     gridtolerance="10"
     guidetolerance="10"
     inkscape:pageopacity="0"
     inkscape:pageshadow="2"
     inkscape:window-width="1280"
     inkscape:window-height="1004"
     id="namedview19"
     showgrid="false"
     inkscape:zoom="5.6568543"
     inkscape:cx="54.372265"
     inkscape:cy="33.954505"
     inkscape:window-x="-8"
     inkscape:window-y="-8"
     inkscape:window-maximized="1"
     inkscape:current-layer="svg2"
     fit-margin-top="0"
     fit-margin-left="0"
     fit-margin-right="0"
     fit-margin-bottom="0" /><defs
     id="defs20" /><metadata
     id="metadata8"><rdf:RDF><cc:Work
         rdf:about=""><dc:format>image/svg+xml</dc:format><dc:type
           rdf:resource="http://purl.org/dc/dcmitype/StillImage" /><dc:title></dc:title></cc:Work></rdf:RDF></metadata><path
     inkscape:connector-curvature="0"
     d="m 99.5475,54.02875 0.73375,-1.04875 0.525,-1.155 0.105,-1.25875 -0.105,-1.25875 -0.525,-1.25875 L 99.5475,47 53.9175,1.46875 52.9725,0.73375 51.71375,0.21 50.455,0 49.19625,0.21 47.9375,0.73375 46.99375,1.46875 1.46875,47 0.63,48.04875 0.105,49.3075 0,50.56625 0.105,51.825 0.63,52.98 l 0.83875,1.04875 45.525,45.53 0.94375,0.84 1.25875,0.525 1.25875,0.105 1.25875,-0.105 1.25875,-0.525 0.945,-0.84 45.63,-45.53"
     style="fill:#fde012;fill-opacity:1;fill-rule:nonzero;stroke:none"
     id="path3041" /><path
     inkscape:connector-curvature="0"
     d="m 49.61625,96.93625 -45.525,-45.53 -0.315,-0.525 0,-0.63 0.315,-0.62875 45.525,-45.53125 0.525,-0.315 0.62875,0 0.525,0.315 45.63,45.53125 0.31375,0.62875 0,0.63 -0.31375,0.525 -45.63,45.53 -0.525,0.315 -0.62875,0 -0.525,-0.315 z M 47.8325,98.72 l 0.945,0.73375 1.15375,0.315 1.15375,0 1.04875,-0.315 0.94375,-0.73375 45.525,-45.53125 0.735,-0.94375 0.31375,-1.15375 0,-1.155 L 99.3375,48.8875 98.6025,47.94375 53.0775,2.3075 52.13375,1.67875 51.085,1.36375 l -1.15375,0 -1.15375,0.315 -0.945,0.62875 -45.525,45.63625 -0.73375,0.94375 -0.315,1.04875 0,1.155 0.315,1.15375 0.73375,0.94375 45.525,45.53125"
     style="fill:#000000;fill-opacity:1;fill-rule:evenodd;stroke:none"
     id="path3043" /><path
     inkscape:connector-curvature="0"
     d="M 50.4125,43.28 48.315,44.43375 46.42625,46.0075 44.85375,47.79125 43.49,49.785 42.545,52.0925 41.91625,54.4 l -0.105,2.41375 0,17.30875 -9.965,0 0,-17.30875 0.21,-3.1475 0.62875,-3.0425 0.94375,-3.0425 1.36375,-2.8325 1.67875,-2.6225 1.9925,-2.41375 2.30875,-2.0975 2.62125,-1.88875 2.7275,-1.46875 5.035,-2.2025 -4.615,-5.665 -0.315,-0.63 -0.105,-0.735 0.21,-0.73375 0.525,-0.525 0.73375,-0.315 0.735,0 24.02125,4.3025 -12.48375,20.98125 -0.52375,0.525 -0.63,0.315 -0.73375,0 -0.73375,-0.21125 -0.525,-0.52375 -0.21,-0.73375 -1.36375,-7.03 -4.93,2.20375"
     style="fill:#000000;fill-opacity:1;fill-rule:nonzero;stroke:none"
     id="path3045" /></svg>