<?xml version="1.0" encoding="UTF-8" standalone="no"?>
<!-- Created with Inkscape (http://www.inkscape.org/) -->

<svg
   xmlns:dc="http://purl.org/dc/elements/1.1/"
   xmlns:cc="http://creativecommons.org/ns#"
   xmlns:rdf="http://www.w3.org/1999/02/22-rdf-syntax-ns#"
   xmlns:svg="http://www.w3.org/2000/svg"
   xmlns="http://www.w3.org/2000/svg"
   xmlns:sodipodi="http://sodipodi.sourceforge.net/DTD/sodipodi-0.dtd"
   xmlns:inkscape="http://www.inkscape.org/namespaces/inkscape"
   version="1.1"
   width="100.91125"
   height="101.02875"
   id="svg2"
   xml:space="preserve"
   inkscape:version="0.48.2 r9819"
   sodipodi:docname="Chile PG-1a.svg"><sodipodi:namedview
     pagecolor="#ffffff"
     bordercolor="#666666"
     borderopacity="1"
     objecttolerance="10"
     gridtolerance="10"
     guidetolerance="10"
     inkscape:pageopacity="0"
     inkscape:pageshadow="2"
     inkscape:window-width="1280"
     inkscape:window-height="1004"
     id="namedview19"
     showgrid="false"
     inkscape:zoom="5.6568543"
     inkscape:cx="54.372265"
     inkscape:cy="34.022765"
     inkscape:window-x="-8"
     inkscape:window-y="-8"
     inkscape:window-maximized="1"
     inkscape:current-layer="svg2"
     fit-margin-top="0"
     fit-margin-left="0"
     fit-margin-right="0"
     fit-margin-bottom="0" /><defs
     id="defs20" /><metadata
     id="metadata8"><rdf:RDF><cc:Work
         rdf:about=""><dc:format>image/svg+xml</dc:format><dc:type
           rdf:resource="http://purl.org/dc/dcmitype/StillImage" /><dc:title></dc:title></cc:Work></rdf:RDF></metadata><path
     inkscape:connector-curvature="0"
     d="M 1.36375,54.02875 0.63,52.98 0.105,51.825 0,50.56625 0.105,49.3075 0.63,48.04875 1.36375,47 l 45.63,-45.53125 0.945,-0.735 L 49.1975,0.21 50.45625,0 51.715,0.21 52.97375,0.73375 53.9175,1.46875 99.4425,47 l 0.83875,1.04875 0.525,1.25875 0.105,1.25875 -0.105,1.25875 -0.525,1.155 -0.83875,1.04875 -45.525,45.53 -0.94375,0.84 -1.25875,0.525 -1.25875,0.105 -1.25875,-0.105 -1.25875,-0.525 -0.945,-0.84 -45.63,-45.53"
     style="fill:#fde012;fill-opacity:1;fill-rule:nonzero;stroke:none"
     id="path3041" /><path
     inkscape:connector-curvature="0"
     d="m 51.295,96.93625 45.525,-45.53 0.315,-0.525 0,-0.63 L 96.82,49.6225 51.295,4.09125 l -0.525,-0.315 -0.62875,0 -0.525,0.315 -45.63,45.53125 -0.31375,0.62875 0,0.63 0.31375,0.525 45.63,45.53 0.525,0.315 0.62875,0 0.525,-0.315 z m 1.78375,1.78375 -0.945,0.73375 -1.15375,0.315 -1.15375,0 -1.04875,-0.315 L 47.83375,98.72 2.30875,53.18875 1.57375,52.245 1.26,51.09125 l 0,-1.155 0.31375,-1.04875 0.735,-0.94375 45.525,-45.63625 0.94375,-0.62875 1.04875,-0.315 1.15375,0 1.15375,0.315 0.945,0.62875 45.525,45.63625 0.73375,0.94375 0.315,1.04875 0,1.155 -0.315,1.15375 -0.73375,0.94375 -45.525,45.53125"
     style="fill:#000000;fill-opacity:1;fill-rule:evenodd;stroke:none"
     id="path3043" /><path
     inkscape:connector-curvature="0"
     d="m 50.49875,43.28 2.0975,1.15375 1.88875,1.57375 1.5725,1.78375 1.36375,1.99375 0.945,2.3075 0.62875,2.3075 0.105,2.41375 0,17.30875 9.965,0 0,-17.30875 -0.21,-3.1475 -0.62875,-3.0425 -0.94375,-3.0425 -1.36375,-2.8325 L 64.24,42.12625 62.2475,39.7125 59.93875,37.615 57.3175,35.72625 54.59,34.2575 49.555,32.055 54.17,26.39 l 0.315,-0.63 0.105,-0.735 -0.21,-0.73375 -0.525,-0.525 -0.73375,-0.315 -0.735,0 -24.02125,4.3025 12.48375,20.98125 0.52375,0.525 0.63,0.315 0.73375,0 0.73375,-0.21125 0.525,-0.52375 0.21,-0.73375 1.36375,-7.03 4.93,2.20375"
     style="fill:#000000;fill-opacity:1;fill-rule:nonzero;stroke:none"
     id="path3045" /></svg>