<?xml version="1.0" encoding="UTF-8" standalone="no"?>
<!-- Created with Inkscape (http://www.inkscape.org/) -->

<svg
   xmlns:dc="http://purl.org/dc/elements/1.1/"
   xmlns:cc="http://creativecommons.org/ns#"
   xmlns:rdf="http://www.w3.org/1999/02/22-rdf-syntax-ns#"
   xmlns:svg="http://www.w3.org/2000/svg"
   xmlns="http://www.w3.org/2000/svg"
   xmlns:sodipodi="http://sodipodi.sourceforge.net/DTD/sodipodi-0.dtd"
   xmlns:inkscape="http://www.inkscape.org/namespaces/inkscape"
   version="1.1"
   width="100.91125"
   height="101.165"
   id="svg2"
   xml:space="preserve"
   inkscape:version="0.48.2 r9819"
   sodipodi:docname="Chile PG-9.svg"><sodipodi:namedview
     pagecolor="#ffffff"
     bordercolor="#666666"
     borderopacity="1"
     objecttolerance="10"
     gridtolerance="10"
     guidetolerance="10"
     inkscape:pageopacity="0"
     inkscape:pageshadow="2"
     inkscape:window-width="1280"
     inkscape:window-height="1004"
     id="namedview19"
     showgrid="false"
     inkscape:zoom="5.7374441"
     inkscape:cx="60.967814"
     inkscape:cy="37.079592"
     inkscape:window-x="-8"
     inkscape:window-y="-8"
     inkscape:window-maximized="1"
     inkscape:current-layer="svg2"
     fit-margin-top="0"
     fit-margin-left="0"
     fit-margin-right="0"
     fit-margin-bottom="0" /><defs
     id="defs20" /><metadata
     id="metadata8"><rdf:RDF><cc:Work
         rdf:about=""><dc:format>image/svg+xml</dc:format><dc:type
           rdf:resource="http://purl.org/dc/dcmitype/StillImage" /><dc:title></dc:title></cc:Work></rdf:RDF></metadata><path
     inkscape:connector-curvature="0"
     d="m 99.547501,54.101249 0.733749,-1.05 0.525,-1.15625 0.105,-1.26 -0.105,-1.26 -0.525,-1.26125 -0.733749,-1.05 L 53.917499,1.47125 52.972499,0.735 51.713749,0.21 50.454999,0 l -1.25875,0.21 -1.25875,0.525 -0.94375,0.73625 -45.524999,45.592499 -0.83875,1.05 -0.525,1.26125 -0.105,1.26 0.105,1.26 0.525,1.15625 0.83875,1.05 45.524999,45.59375 0.94375,0.840001 1.25875,0.525 1.25875,0.105 1.25875,-0.105 1.25875,-0.525 0.945,-0.840001 45.630002,-45.59375"
     style="fill:#fde012;fill-opacity:1;fill-rule:nonzero;stroke:none"
     id="path4719" /><path
     inkscape:connector-curvature="0"
     d="m 49.616249,97.067499 -45.5249989,-45.5925 -0.315,-0.525 0,-0.63 0.315,-0.63 L 49.616249,4.0975 l 0.525,-0.31625 0.62875,0 0.525,0.31625 45.630002,45.592499 0.31375,0.63 0,0.63 -0.31375,0.525 -45.630002,45.5925 -0.525,0.31625 -0.62875,0 -0.525,-0.31625 z m -1.78375,1.78625 0.945,0.73625 1.15375,0.315 1.15375,0 1.04875,-0.315 0.94375,-0.73625 45.525002,-45.5925 0.735,-0.945 0.315,-1.15625 0,-1.155 -0.315,-1.05 -0.735,-0.94625 -45.525002,-45.697499 -0.94375,-0.63 -1.04875,-0.315 -1.15375,0 -1.15375,0.315 -0.945,0.63 -45.524999,45.697499 -0.73375,0.94625 -0.315,1.05 0,1.155 0.315,1.15625 0.73375,0.945 45.524999,45.5925"
     style="fill:#000000;fill-opacity:1;fill-rule:evenodd;stroke:none"
     id="path4721" /><path
     inkscape:connector-curvature="0"
     d="m 28.15,44.858749 -13.00625,0 0,11.135 70.595,0 0,-11.135 -13.0075,0 -2.4125,0.105 -2.3075,0.525 -2.3075,0.735 -2.097501,1.05125 -1.99375,1.26 -2.3075,1.47125 -2.4125,1.155 -2.5175,0.73625 -2.6225,0.31375 -2.6225,0 -2.6225,-0.31375 -2.622499,-0.73625 -2.4125,-1.155 -2.2025,-1.47125 -1.99375,-1.26 -2.0975,-1.05125 -2.3075,-0.735 -2.3075,-0.525 -2.41375,-0.105"
     style="fill:#000000;fill-opacity:1;fill-rule:nonzero;stroke:none"
     id="path4723" /></svg>