<?xml version="1.0" encoding="UTF-8" standalone="no"?>
<!-- Created with Inkscape (http://www.inkscape.org/) -->

<svg
   xmlns:dc="http://purl.org/dc/elements/1.1/"
   xmlns:cc="http://creativecommons.org/ns#"
   xmlns:rdf="http://www.w3.org/1999/02/22-rdf-syntax-ns#"
   xmlns:svg="http://www.w3.org/2000/svg"
   xmlns="http://www.w3.org/2000/svg"
   xmlns:sodipodi="http://sodipodi.sourceforge.net/DTD/sodipodi-0.dtd"
   xmlns:inkscape="http://www.inkscape.org/namespaces/inkscape"
   version="1.1"
   width="101.0475"
   height="101.16375"
   id="svg2"
   xml:space="preserve"
   inkscape:version="0.48.2 r9819"
   sodipodi:docname="AJAX1.svg"><sodipodi:namedview
     pagecolor="#ffffff"
     bordercolor="#666666"
     borderopacity="1"
     objecttolerance="10"
     gridtolerance="10"
     guidetolerance="10"
     inkscape:pageopacity="0"
     inkscape:pageshadow="2"
     inkscape:window-width="1280"
     inkscape:window-height="1004"
     id="namedview19"
     showgrid="false"
     inkscape:zoom="4.0569856"
     inkscape:cx="53.639674"
     inkscape:cy="15.750088"
     inkscape:window-x="-8"
     inkscape:window-y="-8"
     inkscape:window-maximized="1"
     inkscape:current-layer="svg2"
     fit-margin-top="0"
     fit-margin-left="0"
     fit-margin-right="0"
     fit-margin-bottom="0" /><defs
     id="defs20" /><metadata
     id="metadata8"><rdf:RDF><cc:Work
         rdf:about=""><dc:format>image/svg+xml</dc:format><dc:type
           rdf:resource="http://purl.org/dc/dcmitype/StillImage" /><dc:title></dc:title></cc:Work></rdf:RDF></metadata><path
     inkscape:connector-curvature="0"
     d="m 99.6825,54.101249 0.735,-1.05125 0.525,-1.155 0.105,-1.26 -0.105,-1.26125 -0.525,-1.26 -0.735,-1.05125 L 53.99,1.47 53.045,0.735 51.785,0.21 50.52375,0 49.26375,0.21 48.0025,0.735 47.0575,1.47 1.47125,47.062499 0.63,48.113749 l -0.525,1.26 -0.105,1.26125 0.105,1.26 0.525,1.155 0.84125,1.05125 45.58625,45.592499 0.945,0.840002 1.26125,0.525 1.26,0.105 1.26125,-0.105 1.26,-0.525 0.945,-0.840002 45.6925,-45.592499"
     style="fill:#fde012;fill-opacity:1;fill-rule:nonzero;stroke:none"
     id="path3041" /><path
     inkscape:connector-curvature="0"
     d="m 49.68375,97.067499 -45.5875,-45.5925 -0.315,-0.525 0,-0.63125 0.315,-0.63 45.5875,-45.592499 0.525,-0.315 0.63,0 0.525,0.315 45.6925,45.592499 0.315,0.63 0,0.63125 -0.315,0.525 -45.6925,45.5925 -0.525,0.314999 -0.63,0 -0.525,-0.314999 z m -1.78625,1.786249 0.94625,0.735 1.155,0.315 1.155,0 1.05125,-0.315 0.945,-0.735 45.58625,-45.592499 0.73625,-0.94625 0.315,-1.155 0,-1.15625 -0.315,-1.05 -0.73625,-0.945 L 53.15,2.31 52.205,1.68 51.15375,1.365 l -1.155,0 -1.155,0.315 -0.94625,0.63 -45.58625,45.698749 -0.735,0.945 -0.315,1.05 0,1.15625 0.315,1.155 0.735,0.94625 45.58625,45.592499"
     style="fill:#000000;fill-opacity:1;fill-rule:evenodd;stroke:none"
     id="path3043" /><path
     inkscape:connector-curvature="0"
     d="m 59.01,27.021249 -0.63125,-0.20875 -0.735,0 -0.735,0.315 -0.525,0.525 -0.21,0.735 0,0.73625 1.89,6.6175 -15.545,0 -2.10125,0.105 -1.89125,0.525 -1.89,0.94625 -1.68125,1.155 -1.47,1.47125 -1.155,1.68125 -0.94625,1.785 -0.525,1.99625 -0.105,2.10125 0,25.4225 9.87375,0 0,-25.4225 0.21,-0.73625 0.315,-0.63 0.63,-0.42 0.73625,-0.105 15.44,0 -1.785,6.61875 0,0.735 0.21,0.735 0.525,0.525 0.735,0.31625 0.735,0 L 59.01,54.229999 79.07125,40.678749 59.01,27.021249"
     style="fill:#000000;fill-opacity:1;fill-rule:nonzero;stroke:none"
     id="path3045" /></svg>