<?xml version="1.0" encoding="UTF-8" standalone="no"?>
<!-- Created with Inkscape (http://www.inkscape.org/) -->

<svg
   xmlns:dc="http://purl.org/dc/elements/1.1/"
   xmlns:cc="http://creativecommons.org/ns#"
   xmlns:rdf="http://www.w3.org/1999/02/22-rdf-syntax-ns#"
   xmlns:svg="http://www.w3.org/2000/svg"
   xmlns="http://www.w3.org/2000/svg"
   xmlns:sodipodi="http://sodipodi.sourceforge.net/DTD/sodipodi-0.dtd"
   xmlns:inkscape="http://www.inkscape.org/namespaces/inkscape"
   version="1.1"
   width="101.0475"
   height="101.16375"
   id="svg2"
   xml:space="preserve"
   inkscape:version="0.48.2 r9819"
   sodipodi:docname="Chile PG-2a.svg"><sodipodi:namedview
     pagecolor="#ffffff"
     bordercolor="#666666"
     borderopacity="1"
     objecttolerance="10"
     gridtolerance="10"
     guidetolerance="10"
     inkscape:pageopacity="0"
     inkscape:pageshadow="2"
     inkscape:window-width="1280"
     inkscape:window-height="1004"
     id="namedview19"
     showgrid="false"
     inkscape:zoom="4.0569856"
     inkscape:cx="53.639674"
     inkscape:cy="31.157159"
     inkscape:window-x="-8"
     inkscape:window-y="-8"
     inkscape:window-maximized="1"
     inkscape:current-layer="svg2"
     fit-margin-top="0"
     fit-margin-left="0"
     fit-margin-right="0"
     fit-margin-bottom="0" /><defs
     id="defs20" /><metadata
     id="metadata8"><rdf:RDF><cc:Work
         rdf:about=""><dc:format>image/svg+xml</dc:format><dc:type
           rdf:resource="http://purl.org/dc/dcmitype/StillImage" /><dc:title></dc:title></cc:Work></rdf:RDF></metadata><path
     inkscape:connector-curvature="0"
     d="m 1.365,54.101249 -0.735,-1.05125 -0.525,-1.155 -0.105,-1.26 0.105,-1.26125 0.525,-1.26 0.735,-1.05125 L 47.0575,1.47 48.0025,0.735 49.2625,0.21 50.52375,0 l 1.26,0.21 1.26125,0.525 0.945,0.735 45.58625,45.592499 0.84125,1.05125 0.525,1.26 0.105,1.26125 -0.105,1.26 -0.525,1.155 -0.84125,1.05125 -45.58625,45.592499 -0.945,0.840002 -1.26125,0.525 -1.26,0.105 -1.26125,-0.105 -1.26,-0.525 -0.945,-0.840002 L 1.365,54.101249"
     style="fill:#fde012;fill-opacity:1;fill-rule:nonzero;stroke:none"
     id="path3041" /><path
     inkscape:connector-curvature="0"
     d="m 51.36375,97.067499 45.5875,-45.5925 0.315,-0.525 0,-0.63125 -0.315,-0.63 -45.5875,-45.592499 -0.525,-0.315 -0.63,0 -0.525,0.315 -45.6925,45.592499 -0.315,0.63 0,0.63125 0.315,0.525 45.6925,45.5925 0.525,0.314999 0.63,0 0.525,-0.314999 z m 1.78625,1.786249 -0.94625,0.735 -1.155,0.315 -1.155,0 -1.05125,-0.315 -0.945,-0.735 L 2.31125,53.261249 1.575,52.314999 l -0.315,-1.155 0,-1.15625 0.315,-1.05 0.73625,-0.945 L 47.8975,2.31 l 0.945,-0.63 1.05125,-0.315 1.155,0 1.155,0.315 0.94625,0.63 45.58625,45.698749 0.735,0.945 0.315,1.05 0,1.15625 -0.315,1.155 -0.735,0.94625 L 53.15,98.853748"
     style="fill:#000000;fill-opacity:1;fill-rule:evenodd;stroke:none"
     id="path3043" /><path
     inkscape:connector-curvature="0"
     d="m 42.0375,27.021249 0.63125,-0.20875 0.735,0 0.735,0.315 0.525,0.525 0.21,0.735 0,0.73625 -1.89,6.6175 15.545,0 2.10125,0.105 1.89125,0.525 1.89,0.94625 1.68125,1.155 1.47,1.47125 1.155,1.68125 0.94625,1.785 0.525,1.99625 0.105,2.10125 0,25.4225 -9.87375,0 0,-25.4225 -0.21,-0.73625 -0.315,-0.63 -0.63,-0.42 -0.73625,-0.105 -15.44,0 1.785,6.61875 0,0.735 -0.21,0.735 -0.525,0.525 -0.735,0.31625 -0.735,0 -0.63125,-0.31625 -20.06125,-13.55125 20.06125,-13.6575"
     style="fill:#000000;fill-opacity:1;fill-rule:nonzero;stroke:none"
     id="path3045" /></svg>