<?xml version="1.0" encoding="UTF-8" standalone="no"?>
<!-- Created with Inkscape (http://www.inkscape.org/) -->

<svg
   xmlns:dc="http://purl.org/dc/elements/1.1/"
   xmlns:cc="http://creativecommons.org/ns#"
   xmlns:rdf="http://www.w3.org/1999/02/22-rdf-syntax-ns#"
   xmlns:svg="http://www.w3.org/2000/svg"
   xmlns="http://www.w3.org/2000/svg"
   xmlns:sodipodi="http://sodipodi.sourceforge.net/DTD/sodipodi-0.dtd"
   xmlns:inkscape="http://www.inkscape.org/namespaces/inkscape"
   version="1.1"
   width="100.91"
   height="101.015"
   id="svg2"
   xml:space="preserve"
   inkscape:version="0.48.2 r9819"
   sodipodi:docname="Chile PG-3a.svg"><sodipodi:namedview
     pagecolor="#ffffff"
     bordercolor="#666666"
     borderopacity="1"
     objecttolerance="10"
     gridtolerance="10"
     guidetolerance="10"
     inkscape:pageopacity="0"
     inkscape:pageshadow="2"
     inkscape:window-width="1280"
     inkscape:window-height="1004"
     id="namedview19"
     showgrid="false"
     inkscape:zoom="4.0569856"
     inkscape:cx="48.634777"
     inkscape:cy="52.332541"
     inkscape:window-x="-8"
     inkscape:window-y="-8"
     inkscape:window-maximized="1"
     inkscape:current-layer="svg2"
     fit-margin-top="0"
     fit-margin-left="0"
     fit-margin-right="0"
     fit-margin-bottom="0" /><defs
     id="defs20" /><metadata
     id="metadata8"><rdf:RDF><cc:Work
         rdf:about=""><dc:format>image/svg+xml</dc:format><dc:type
           rdf:resource="http://purl.org/dc/dcmitype/StillImage" /><dc:title></dc:title></cc:Work></rdf:RDF></metadata><path
     inkscape:connector-curvature="0"
     d="M 1.363747,54.021251 0.62875,52.972501 0.105,51.818751 0,50.560001 0.105,49.301251 0.62875,48.0425 1.363747,46.99375 46.99375,1.46875 47.9375,0.73375 49.19625,0.21 50.455,0 l 1.25875,0.21 1.25875,0.52375 0.94375,0.735 45.525,45.525 0.84,1.04875 0.52375,1.258751 0.105,1.25875 -0.105,1.25875 -0.52375,1.15375 -0.84,1.04875 L 53.91625,99.54625 52.9725,100.385 51.71375,100.91 50.455,101.015 49.19625,100.91 47.9375,100.385 46.99375,99.54625 1.363747,54.021251"
     style="fill:#fde012;fill-opacity:1;fill-rule:nonzero;stroke:none"
     id="path4528" /><path
     inkscape:connector-curvature="0"
     d="m 51.29375,96.925 45.525,-45.526249 0.315,-0.52375 0,-0.63 -0.315,-0.62875 -45.525,-45.525001 -0.52375,-0.315 -0.63,0 -0.52375,0.315 -45.630003,45.525001 -0.315,0.62875 0,0.63 0.315,0.52375 L 49.61625,96.925 50.14,97.23875 l 0.63,0 0.52375,-0.31375 z m 1.78375,1.7825 -0.94375,0.73375 -1.15375,0.31625 -1.155,0 L 48.77625,99.44125 47.8325,98.7075 2.307497,53.182501 l -0.735,-0.94375 -0.31375,-1.15375 0,-1.15375 0.31375,-1.05 0.735,-0.943751 45.525003,-45.63 0.94375,-0.63 1.04875,-0.31375 1.155,0 1.15375,0.31375 0.94375,0.63 45.525,45.63 0.73375,0.943751 0.315,1.05 0,1.15375 -0.315,1.15375 -0.73375,0.94375 -45.525,45.524999"
     style="fill:#000000;fill-opacity:1;fill-rule:evenodd;stroke:none"
     id="path4530" /><path
     inkscape:connector-curvature="0"
     d="m 52.3825,53.381251 -3.77625,0.20875 -2.2025,0.21 -2.0975,0.62875 -1.99375,0.84 -1.8875,1.25875 -1.57375,1.57375 -1.25875,1.8875 -0.94375,1.99375 -0.63,2.0975 -0.21,2.2025 0.105,2.20375 0.525,2.202499 0.94375,1.99375 1.15375,1.8875 1.57375,1.57375 1.78375,1.36375 1.9925,0.94375 0.83875,0.73375 0.63,1.04875 0.21,1.155 0,3.67 9.86,0 0,-3.67 L 55.32,79.185 54.69,76.9825 53.74625,74.885 52.4875,72.99625 51.01875,71.4225 49.13125,70.05875 47.1375,69.115 l -0.83875,-0.734999 -0.52375,-1.0475 -0.105,-1.05 0.31375,-1.04875 0.63,-0.94375 0.94375,-0.52375 1.04875,-0.21125 3.77625,-0.31375 2.20375,-0.105 2.2025,-0.62875 2.0975,-0.945 1.88875,-1.36375 1.5725,-1.5725 1.25875,-1.88875 0.945,-2.0975 0.52375,-2.20375 0.21,-2.3075 L 64.97,47.92625 64.34125,45.72375 63.3975,43.73 62.03375,41.8425 60.355,40.26875 58.4675,39.01 l -2.09875,-0.83875 -2.2025,-0.525 -0.83875,-0.105 -0.735,-0.52375 -0.41875,-0.63 -0.21,-0.83875 0,-3.3575 7.0275,1.78375 0.735,0.105 0.73375,-0.315 0.525,-0.52375 0.31375,-0.63 0,-0.84 -0.31375,-0.62875 -13.95125,-20.035 -13.8475,20.035 -0.313749,0.62875 0,0.84 0.313749,0.63 0.525,0.52375 0.63,0.315 0.73375,-0.105 7.0275,-1.78375 0,3.3575 0.21,2.2025 0.63,2.09875 0.94375,1.9925 1.36375,1.7825 1.67875,1.46875 1.8875,1.25875 1.99375,0.735 2.2025,0.41875 1.15375,0.525 0.83875,0.943751 0.315,1.15375 -0.105,1.25875 -0.62875,1.04875 -1.05,0.735 -1.15375,0.21"
     style="fill:#000000;fill-opacity:1;fill-rule:nonzero;stroke:none"
     id="path4532" /></svg>