<?xml version="1.0" encoding="UTF-8" standalone="no"?>
<!-- Created with Inkscape (http://www.inkscape.org/) -->

<svg
   xmlns:dc="http://purl.org/dc/elements/1.1/"
   xmlns:cc="http://creativecommons.org/ns#"
   xmlns:rdf="http://www.w3.org/1999/02/22-rdf-syntax-ns#"
   xmlns:svg="http://www.w3.org/2000/svg"
   xmlns="http://www.w3.org/2000/svg"
   xmlns:sodipodi="http://sodipodi.sourceforge.net/DTD/sodipodi-0.dtd"
   xmlns:inkscape="http://www.inkscape.org/namespaces/inkscape"
   version="1.1"
   width="101.0475"
   height="101.165"
   id="svg2"
   xml:space="preserve"
   inkscape:version="0.48.2 r9819"
   sodipodi:docname="Chile PG-3b.svg"><sodipodi:namedview
     pagecolor="#ffffff"
     bordercolor="#666666"
     borderopacity="1"
     objecttolerance="10"
     gridtolerance="10"
     guidetolerance="10"
     inkscape:pageopacity="0"
     inkscape:pageshadow="2"
     inkscape:window-width="1280"
     inkscape:window-height="1004"
     id="namedview19"
     showgrid="false"
     inkscape:zoom="4.0569856"
     inkscape:cx="45.670539"
     inkscape:cy="42.771864"
     inkscape:window-x="-8"
     inkscape:window-y="-8"
     inkscape:window-maximized="1"
     inkscape:current-layer="svg2"
     fit-margin-top="0"
     fit-margin-left="0"
     fit-margin-right="0"
     fit-margin-bottom="0" /><defs
     id="defs20" /><metadata
     id="metadata8"><rdf:RDF><cc:Work
         rdf:about=""><dc:format>image/svg+xml</dc:format><dc:type
           rdf:resource="http://purl.org/dc/dcmitype/StillImage" /><dc:title></dc:title></cc:Work></rdf:RDF></metadata><path
     inkscape:connector-curvature="0"
     d="m 99.682501,54.10125 0.734999,-1.05 0.525,-1.155 0.105,-1.26125 -0.105,-1.26 -0.525,-1.26125 -0.734999,-1.05 L 53.99,1.47125 53.045,0.73625 51.785,0.21 50.52375,0 l -1.26,0.21 -1.26,0.52625 -0.94625,0.735 -45.58625,45.5925 -0.84,1.05 L 0.105,49.375 0,50.635 l 0.105,1.26125 0.52625,1.155 0.84,1.05 45.58625,45.5925 0.94625,0.84125 1.26,0.525 1.26,0.105 1.26125,-0.105 1.26,-0.525 0.945,-0.84125 45.692501,-45.5925"
     style="fill:#fde012;fill-opacity:1;fill-rule:nonzero;stroke:none"
     id="path5919" /><path
     inkscape:connector-curvature="0"
     d="M 49.68375,97.0675 4.0975,51.475 3.7825,50.95 l 0,-0.63 0.315,-0.63 45.58625,-45.5925 0.525,-0.315 0.63125,0 0.525,0.315 45.691251,45.5925 0.315,0.63 0,0.63 -0.315,0.525 -45.691251,45.5925 -0.525,0.31625 -0.63125,0 -0.525,-0.31625 z m -1.785,1.78625 0.945,0.735 1.155,0.31625 1.15625,0 1.05,-0.31625 0.945,-0.735 45.587501,-45.5925 0.735,-0.945 0.315,-1.15625 0,-1.155 -0.315,-1.05125 -0.735,-0.945 L 53.15,2.31125 l -0.945,-0.63 -1.05,-0.31625 -1.15625,0 -1.155,0.31625 -0.945,0.63 -45.5875,45.6975 -0.735,0.945 -0.315,1.05125 0,1.155 0.315,1.15625 0.735,0.945 45.5875,45.5925"
     style="fill:#000000;fill-opacity:1;fill-rule:evenodd;stroke:none"
     id="path5921" /><path
     inkscape:connector-curvature="0"
     d="m 60.54875,16.70375 13.55,19.32875 0.315,0.735 0,0.73625 -0.315,0.735 -0.525,0.42 -0.735,0.315 -0.73625,-0.105 -6.5125,-1.785 0,6.5125 -0.21,2.52125 -0.63,2.41625 -1.05,2.31125 -1.47125,2.10125 -1.68,1.89125 -1.99625,1.47 -13.02375,7.24875 -0.94625,0.735 -0.735,1.05125 -0.42,1.155 -0.21,1.26125 0,8.19375 -9.87375,0 0,-8.19375 0.21,-2.52125 0.63,-2.4175 0.945,-2.31 1.47125,-2.10125 1.68,-1.78625 2.10125,-1.47 12.92,-7.35375 0.945,-0.84125 0.735,-0.945 0.52625,-1.155 0.105,-1.26125 0,-6.5125 -6.6175,1.785 -0.73625,0.105 -0.63,-0.315 -0.63,-0.42 -0.315,-0.735 0,-0.73625 0.315,-0.735 13.55,-19.32875"
     style="fill:#000000;fill-opacity:1;fill-rule:nonzero;stroke:none"
     id="path5923" /></svg>