<?xml version="1.0" encoding="UTF-8" standalone="no"?>
<!-- Created with Inkscape (http://www.inkscape.org/) -->

<svg
   xmlns:dc="http://purl.org/dc/elements/1.1/"
   xmlns:cc="http://creativecommons.org/ns#"
   xmlns:rdf="http://www.w3.org/1999/02/22-rdf-syntax-ns#"
   xmlns:svg="http://www.w3.org/2000/svg"
   xmlns="http://www.w3.org/2000/svg"
   xmlns:sodipodi="http://sodipodi.sourceforge.net/DTD/sodipodi-0.dtd"
   xmlns:inkscape="http://www.inkscape.org/namespaces/inkscape"
   version="1.1"
   width="100.91125"
   height="101.16375"
   id="svg2"
   xml:space="preserve"
   inkscape:version="0.48.2 r9819"
   sodipodi:docname="Chile PG-5a.svg"><sodipodi:namedview
     pagecolor="#ffffff"
     bordercolor="#666666"
     borderopacity="1"
     objecttolerance="10"
     gridtolerance="10"
     guidetolerance="10"
     inkscape:pageopacity="0"
     inkscape:pageshadow="2"
     inkscape:window-width="1280"
     inkscape:window-height="1004"
     id="namedview19"
     showgrid="false"
     inkscape:zoom="5.7374441"
     inkscape:cx="44.561858"
     inkscape:cy="41.09373"
     inkscape:window-x="-8"
     inkscape:window-y="-8"
     inkscape:window-maximized="1"
     inkscape:current-layer="svg2"
     fit-margin-top="0"
     fit-margin-left="0"
     fit-margin-right="0"
     fit-margin-bottom="0" /><defs
     id="defs20" /><metadata
     id="metadata8"><rdf:RDF><cc:Work
         rdf:about=""><dc:format>image/svg+xml</dc:format><dc:type
           rdf:resource="http://purl.org/dc/dcmitype/StillImage" /><dc:title></dc:title></cc:Work></rdf:RDF></metadata><path
     inkscape:connector-curvature="0"
     d="M 1.363752,54.10125 0.63,53.05 0.105,51.895 0,50.63375 l 0.105,-1.26 0.525,-1.26 0.733752,-1.05125 45.63,-45.5925 0.94375,-0.73625 1.25875,-0.525 L 50.455002,0 l 1.25875,0.20875 1.25875,0.525 0.945,0.73625 45.524998,45.5925 0.83875,1.05125 0.525,1.26 0.105,1.26 -0.105,1.26125 -0.525,1.155 -0.83875,1.05125 -45.524998,45.592496 -0.945,0.840004 -1.25875,0.525 -1.25875,0.105 -1.25875,-0.105 -1.25875,-0.525 -0.94375,-0.840004 -45.63,-45.592496"
     style="fill:#fde012;fill-opacity:1;fill-rule:nonzero;stroke:none"
     id="path3073" /><path
     inkscape:connector-curvature="0"
     d="M 51.295002,97.067496 96.82,51.475 l 0.315,-0.525 0,-0.63125 -0.315,-0.63 -45.524998,-45.5925 -0.525,-0.315 -0.62875,0 -0.525,0.315 -45.63,45.5925 -0.315,0.63 0,0.63125 0.315,0.525 45.63,45.592496 0.525,0.31375 0.62875,0 0.525,-0.31375 z m 1.7825,1.785 -0.94375,0.735 -1.15375,0.31625 -1.15375,0 -1.04875,-0.31625 -0.945,-0.735 -45.525,-45.592496 -0.73375,-0.945 -0.315,-1.155 0,-1.15625 0.315,-1.05 0.73375,-0.94625 45.525,-45.6975 0.945,-0.63 1.04875,-0.315 1.15375,0 1.15375,0.315 0.94375,0.63 45.524998,45.6975 0.735,0.94625 0.315,1.05 0,1.15625 -0.315,1.155 -0.735,0.945 -45.524998,45.592496"
     style="fill:#000000;fill-opacity:1;fill-rule:evenodd;stroke:none"
     id="path3075" /><path
     inkscape:connector-curvature="0"
     d="m 67.776252,74.159996 -9.86,0 0,-16.7025 -0.21,-0.73625 -0.41875,-0.63 -0.525,-0.315 -0.73375,-0.21 -11.74875,0 -1.67875,-0.21 -1.57375,-0.525 -1.36375,-0.841246 -1.25875,-1.155 -0.83875,-1.47125 -0.525,-1.575 -0.20875,-1.68125 0,-11.13625 -7.02875,1.78625 -0.73375,0.105 -0.63,-0.315 -0.52375,-0.525 -0.315,-0.63125 0,-0.735 0.21,-0.735 13.95125,-20.065 13.95125,20.065 0.315,0.735 0,0.735 -0.315,0.63125 -0.525,0.525 -0.73375,0.315 -0.735,-0.105 -7.0275,-1.78625 0,6.82875 0.21,0.735 0.41875,0.63125 0.525,0.315 0.73375,0.21 11.74875,0 1.67875,0.105 1.57375,0.63125 1.3625,0.84 1.25875,1.155 0.84,1.47125 0.52375,1.575 0.21,1.57625 0,21.114996"
     style="fill:#000000;fill-opacity:1;fill-rule:nonzero;stroke:none"
     id="path3077" /></svg>