<?xml version="1.0" encoding="UTF-8" standalone="no"?>
<!-- Created with Inkscape (http://www.inkscape.org/) -->

<svg
   xmlns:dc="http://purl.org/dc/elements/1.1/"
   xmlns:cc="http://creativecommons.org/ns#"
   xmlns:rdf="http://www.w3.org/1999/02/22-rdf-syntax-ns#"
   xmlns:svg="http://www.w3.org/2000/svg"
   xmlns="http://www.w3.org/2000/svg"
   xmlns:sodipodi="http://sodipodi.sourceforge.net/DTD/sodipodi-0.dtd"
   xmlns:inkscape="http://www.inkscape.org/namespaces/inkscape"
   version="1.1"
   width="100.91"
   height="101.165"
   id="svg2"
   xml:space="preserve"
   inkscape:version="0.48.2 r9819"
   sodipodi:docname="Chile PG-6a.svg"><sodipodi:namedview
     pagecolor="#ffffff"
     bordercolor="#666666"
     borderopacity="1"
     objecttolerance="10"
     gridtolerance="10"
     guidetolerance="10"
     inkscape:pageopacity="0"
     inkscape:pageshadow="2"
     inkscape:window-width="1280"
     inkscape:window-height="1004"
     id="namedview19"
     showgrid="false"
     inkscape:zoom="5.7374441"
     inkscape:cx="34.362672"
     inkscape:cy="50.891518"
     inkscape:window-x="-8"
     inkscape:window-y="-8"
     inkscape:window-maximized="1"
     inkscape:current-layer="svg2"
     fit-margin-top="0"
     fit-margin-left="0"
     fit-margin-right="0"
     fit-margin-bottom="0" /><defs
     id="defs20" /><metadata
     id="metadata8"><rdf:RDF><cc:Work
         rdf:about=""><dc:format>image/svg+xml</dc:format><dc:type
           rdf:resource="http://purl.org/dc/dcmitype/StillImage" /><dc:title></dc:title></cc:Work></rdf:RDF></metadata><path
     inkscape:connector-curvature="0"
     d="M 1.363746,54.1025 0.62875,53.05125 0.105,51.89625 0,50.635 l 0.105,-1.26125 0.52375,-1.26 0.734996,-1.05 45.630004,-45.5925002 0.94375,-0.73625 1.25875,-0.525 L 50.455,0 l 1.25875,0.2099998 1.25875,0.525 0.94375,0.73625 45.525,45.5925002 0.84,1.05 0.52375,1.26 0.105,1.26125 -0.105,1.26125 -0.52375,1.155 -0.84,1.05125 -45.525,45.591252 L 52.9725,100.53375 51.71375,101.06 50.455,101.165 49.19625,101.06 47.9375,100.53375 46.99375,99.693752 1.363746,54.1025"
     style="fill:#fde012;fill-opacity:1;fill-rule:nonzero;stroke:none"
     id="path4924" /><path
     inkscape:connector-curvature="0"
     d="m 51.29375,97.067502 45.525,-45.592502 0.315,-0.525 0,-0.63 -0.315,-0.63125 -45.525,-45.5912502 -0.52375,-0.315 -0.63,0 -0.52375,0.315 -45.630004,45.5912502 -0.315,0.63125 0,0.63 0.315,0.525 45.630004,45.592502 0.52375,0.315 0.63,0 0.52375,-0.315 z m 1.78375,1.78625 -0.94375,0.735 -1.15375,0.315 -1.15375,0 -1.05,-0.315 -0.94375,-0.735 -45.525004,-45.592502 -0.73375,-0.945 -0.315,-1.15625 0,-1.155 0.315,-1.05125 0.73375,-0.945 45.525004,-45.6975002 0.94375,-0.63125 1.05,-0.31375 1.15375,0 1.15375,0.31375 0.94375,0.63125 45.525,45.6975002 0.735,0.945 0.31375,1.05125 0,1.155 -0.31375,1.15625 -0.735,0.945 -45.525,45.592502"
     style="fill:#000000;fill-opacity:1;fill-rule:evenodd;stroke:none"
     id="path4926" /><path
     inkscape:connector-curvature="0"
     d="m 64.41375,44.97125 0,28.36375 -9.44,0 0,-28.36375 -0.21,-1.78625 -0.525,-1.78625 -0.83875,-1.575 -1.15375,-1.36625 -1.36375,-1.155 -1.67875,-0.84125 -1.67875,-0.525 -1.8875,-0.21 -1.78375,0.21 -1.7825,0.525 -1.57375,0.84125 -1.36375,1.155 -1.15375,1.36625 -0.83875,1.575 -0.63,1.78625 -0.105,1.78625 6.81875,-1.78625 0.83875,0 0.735,0.42 0.41875,0.63 0.105,0.84125 -0.315,0.84 L 31.68625,64.195 18.36375,45.91625 17.945,45.07625 18.05,44.235 l 0.52375,-0.63 0.735,-0.42 0.83875,0 6.81875,1.78625 L 27.175,42.345 27.7,39.71875 28.64375,37.1975 29.9025,34.88625 31.58125,32.785 33.47,30.89375 l 2.0975,-1.68 2.3075,-1.26125 2.5175,-0.945 2.6225,-0.52625 2.6225,-0.21 2.7275,0.21 2.6225,0.52625 2.4125,0.945 2.4125,1.26125 2.0975,1.68 1.88875,1.89125 1.57375,2.10125 1.3625,2.31125 0.84,2.52125 0.62875,2.62625 0.21,2.62625"
     style="fill:#000000;fill-opacity:1;fill-rule:nonzero;stroke:none"
     id="path4928" /></svg>