<?xml version="1.0" encoding="UTF-8" standalone="no"?>
<!-- Created with Inkscape (http://www.inkscape.org/) -->

<svg
   xmlns:dc="http://purl.org/dc/elements/1.1/"
   xmlns:cc="http://creativecommons.org/ns#"
   xmlns:rdf="http://www.w3.org/1999/02/22-rdf-syntax-ns#"
   xmlns:svg="http://www.w3.org/2000/svg"
   xmlns="http://www.w3.org/2000/svg"
   xmlns:sodipodi="http://sodipodi.sourceforge.net/DTD/sodipodi-0.dtd"
   xmlns:inkscape="http://www.inkscape.org/namespaces/inkscape"
   version="1.1"
   width="100.91"
   height="101.165"
   id="svg2"
   xml:space="preserve"
   inkscape:version="0.48.2 r9819"
   sodipodi:docname="Chile PG-5b.svg"><sodipodi:namedview
     pagecolor="#ffffff"
     bordercolor="#666666"
     borderopacity="1"
     objecttolerance="10"
     gridtolerance="10"
     guidetolerance="10"
     inkscape:pageopacity="0"
     inkscape:pageshadow="2"
     inkscape:window-width="1280"
     inkscape:window-height="1004"
     id="namedview19"
     showgrid="false"
     inkscape:zoom="5.7374441"
     inkscape:cx="34.362672"
     inkscape:cy="50.891519"
     inkscape:window-x="-8"
     inkscape:window-y="-8"
     inkscape:window-maximized="1"
     inkscape:current-layer="svg2"
     fit-margin-top="0"
     fit-margin-left="0"
     fit-margin-right="0"
     fit-margin-bottom="0" /><defs
     id="defs20" /><metadata
     id="metadata8"><rdf:RDF><cc:Work
         rdf:about=""><dc:format>image/svg+xml</dc:format><dc:type
           rdf:resource="http://purl.org/dc/dcmitype/StillImage" /><dc:title></dc:title></cc:Work></rdf:RDF></metadata><path
     inkscape:connector-curvature="0"
     d="m 99.546254,54.1025 0.734996,-1.05125 0.52375,-1.155 0.105,-1.26125 -0.105,-1.26125 -0.52375,-1.26 -0.734996,-1.05 L 53.91625,1.4712498 52.9725,0.7349998 51.71375,0.2099998 50.455,0 l -1.25875,0.2099998 -1.25875,0.525 -0.94375,0.73625 -45.525,45.5925002 -0.84,1.05 -0.52375,1.26 L 0,50.635 l 0.105,1.26125 0.52375,1.155 0.84,1.05125 45.525,45.591252 0.94375,0.839998 1.25875,0.52625 1.25875,0.105 1.25875,-0.105 1.25875,-0.52625 0.94375,-0.839998 L 99.546254,54.1025"
     style="fill:#fde012;fill-opacity:1;fill-rule:nonzero;stroke:none"
     id="path4924" /><path
     inkscape:connector-curvature="0"
     d="M 49.61625,97.067502 4.09125,51.475 l -0.315,-0.525 0,-0.63 0.315,-0.63125 45.525,-45.5912502 0.52375,-0.315 0.63,0 0.52375,0.315 45.630004,45.5912502 0.315,0.63125 0,0.63 -0.315,0.525 -45.630004,45.592502 -0.52375,0.315 -0.63,0 -0.52375,-0.315 z m -1.78375,1.78625 0.94375,0.735 1.15375,0.315 1.15375,0 1.05,-0.315 0.94375,-0.735 45.525004,-45.592502 0.73375,-0.945 0.315,-1.15625 0,-1.155 -0.315,-1.05125 -0.73375,-0.945 L 53.0775,2.3112498 l -0.94375,-0.63125 -1.05,-0.31375 -1.15375,0 -1.15375,0.31375 -0.94375,0.63125 -45.525,45.6975002 -0.735,0.945 -0.31375,1.05125 0,1.155 0.31375,1.15625 0.735,0.945 45.525,45.592502"
     style="fill:#000000;fill-opacity:1;fill-rule:evenodd;stroke:none"
     id="path4926" /><path
     inkscape:connector-curvature="0"
     d="m 36.49625,44.97125 0,28.36375 9.44,0 0,-28.36375 0.21,-1.78625 0.525,-1.78625 0.83875,-1.575 1.15375,-1.36625 1.36375,-1.155 1.67875,-0.84125 1.67875,-0.525 1.8875,-0.21 1.78375,0.21 1.7825,0.525 1.57375,0.84125 1.36375,1.155 1.15375,1.36625 0.83875,1.575 0.63,1.78625 0.105,1.78625 -6.81875,-1.78625 -0.83875,0 -0.735,0.42 -0.41875,0.63 -0.105,0.84125 0.315,0.84 13.32125,18.27875 13.3225,-18.27875 0.41875,-0.84 -0.105,-0.84125 -0.52375,-0.63 -0.735,-0.42 -0.83875,0 -6.81875,1.78625 L 73.735,42.345 73.21,39.71875 72.26625,37.1975 71.0075,34.88625 69.32875,32.785 67.44,30.89375 l -2.0975,-1.68 -2.3075,-1.26125 -2.5175,-0.945 -2.6225,-0.52625 -2.6225,-0.21 -2.7275,0.21 -2.6225,0.52625 -2.4125,0.945 -2.4125,1.26125 -2.0975,1.68 -1.88875,1.89125 -1.57375,2.10125 -1.3625,2.31125 -0.84,2.52125 -0.62875,2.62625 -0.21,2.62625"
     style="fill:#000000;fill-opacity:1;fill-rule:nonzero;stroke:none"
     id="path4928" /></svg>