<?xml version="1.0" encoding="UTF-8" standalone="no"?>
<!-- Created with Inkscape (http://www.inkscape.org/) -->

<svg
   xmlns:dc="http://purl.org/dc/elements/1.1/"
   xmlns:cc="http://creativecommons.org/ns#"
   xmlns:rdf="http://www.w3.org/1999/02/22-rdf-syntax-ns#"
   xmlns:svg="http://www.w3.org/2000/svg"
   xmlns="http://www.w3.org/2000/svg"
   xmlns:sodipodi="http://sodipodi.sourceforge.net/DTD/sodipodi-0.dtd"
   xmlns:inkscape="http://www.inkscape.org/namespaces/inkscape"
   version="1.1"
   width="101.98625"
   height="102.1975"
   id="svg2"
   xml:space="preserve"
   inkscape:version="0.48.2 r9819"
   sodipodi:docname="Chile PG-7c.svg"><sodipodi:namedview
     pagecolor="#ffffff"
     bordercolor="#666666"
     borderopacity="1"
     objecttolerance="10"
     gridtolerance="10"
     guidetolerance="10"
     inkscape:pageopacity="0"
     inkscape:pageshadow="2"
     inkscape:window-width="1280"
     inkscape:window-height="1004"
     id="namedview19"
     showgrid="false"
     inkscape:zoom="5.7374441"
     inkscape:cx="42.360737"
     inkscape:cy="44.418664"
     inkscape:window-x="-8"
     inkscape:window-y="-8"
     inkscape:window-maximized="1"
     inkscape:current-layer="svg2"
     fit-margin-top="0"
     fit-margin-left="0"
     fit-margin-right="0"
     fit-margin-bottom="0" /><defs
     id="defs20" /><metadata
     id="metadata8"><rdf:RDF><cc:Work
         rdf:about=""><dc:format>image/svg+xml</dc:format><dc:type
           rdf:resource="http://purl.org/dc/dcmitype/StillImage" /><dc:title></dc:title></cc:Work></rdf:RDF></metadata><path
     inkscape:connector-curvature="0"
     d="M 54.5475,1.4725 53.19875,0.49 51.72875,0 50.135,0 48.66375,0.49 47.4375,1.4725 l -46.09,46.00625 -0.98,1.35 -0.3675,1.4725 0,1.595 0.3675,1.4725 0.98,1.22625 46.09,46.13 1.22625,0.9825 1.47125,0.49 1.59375,0 1.47,-0.49 1.34875,-0.9825 45.9675,-46.13 0.98125,-1.22625 0.49,-1.4725 0,-1.595 -0.49,-1.4725 -0.98125,-1.35 L 54.5475,1.4725"
     style="fill:#fde012;fill-opacity:1;fill-rule:nonzero;stroke:none"
     id="path11670" /><path
     inkscape:connector-curvature="0"
     d="M 69.9925,38.155 66.80625,39.6275 66.07,38.52375 64.9675,37.665 l -1.34875,-0.49125 -1.34875,0 -1.34875,0.3675 -1.1025,0.7375 -0.85875,1.1025 -0.3675,1.2275 -0.1225,1.4725 0.3675,1.22625 -20.225,9.4475 -0.73625,-1.105 -1.1025,-0.85875 -1.34875,-0.49 -1.34875,0 -1.3475,0.3675 L 31.625,51.405 30.7675,52.51 30.4,53.85875 l -0.12375,1.35 0.36875,1.35 L 27.58,57.9075 19.49,40.60875 45.7225,28.34 47.68375,32.38875 53.69,29.5675 l 4.9025,5.1525 6.00625,-2.8225 2.575,5.52125 2.08375,-0.98125 0.735,1.7175 -3.18625,1.4725 3.18625,-1.4725 z M 57.49,35.21125 l -6.9875,3.3125 -2.32875,-5.03125 5.27125,-2.57625 4.045,4.295 z m 9.07,6.25625 -0.245,-1.10375 -0.49,-0.9825 -0.8575,-0.8575 -0.98125,-0.49125 -1.1025,-0.245 -1.22625,0.245 -0.98125,0.49125 -0.8575,0.8575 -0.49,0.9825 -0.1225,1.10375 0.1225,1.105 0.49,1.10375 0.8575,0.73625 0.98125,0.6125 1.22625,0.12375 1.1025,-0.12375 0.98125,-0.6125 0.8575,-0.73625 0.49,-1.10375 0.245,-1.105 z M 38.3675,54.595 38.1225,53.49125 37.63125,52.51 36.77375,51.65 35.7925,51.16 34.69,50.915 l -1.22625,0.245 -0.98,0.49 -0.85875,0.86 -0.49,0.98125 -0.245,1.10375 0.245,1.22625 0.49,0.9825 0.85875,0.85875 0.98,0.49125 1.22625,0.1225 1.1025,-0.1225 0.98125,-0.49125 0.8575,-0.85875 0.49125,-0.9825 0.245,-1.22625 z m 37.63125,-15.21375 0,23.43375 -50.135,0 50.135,-23.43375"
     style="fill:#000000;fill-opacity:1;fill-rule:evenodd;stroke:none"
     id="path11672" /><path
     inkscape:connector-curvature="0"
     d="M 53.5675,2.33125 52.70875,1.595 l -1.1025,-0.36875 -1.22625,0 -1.10375,0.36875 -0.98,0.73625 -46.09,46.13 -0.6125,0.85875 -0.36875,1.22625 0,1.10375 0.36875,1.105 0.6125,0.98125 46.09,46.13 0.98,0.61375 1.10375,0.3675 1.22625,0 1.1025,-0.3675 0.85875,-0.61375 46.09,-46.13 0.735,-0.98125 0.3675,-1.105 0,-1.10375 -0.3675,-1.22625 -0.735,-0.85875 -46.09,-46.13 z M 4.045,50.1775 50.135,4.04875 l 0.49,-0.24625 0.6125,0 0.61375,0.24625 46.09,46.12875 0.245,0.61375 0,0.61375 -0.245,0.61375 -46.09,46.0075 -0.61375,0.3675 -0.6125,0 -0.49,-0.3675 -46.09,-46.0075 -0.3675,-0.61375 0,-0.61375 0.3675,-0.61375"
     style="fill:#000000;fill-opacity:1;fill-rule:evenodd;stroke:none"
     id="path11674" /></svg>