<?xml version="1.0" encoding="UTF-8" standalone="no"?>
<!-- Created with Inkscape (http://www.inkscape.org/) -->

<svg
   xmlns:dc="http://purl.org/dc/elements/1.1/"
   xmlns:cc="http://creativecommons.org/ns#"
   xmlns:rdf="http://www.w3.org/1999/02/22-rdf-syntax-ns#"
   xmlns:svg="http://www.w3.org/2000/svg"
   xmlns="http://www.w3.org/2000/svg"
   xmlns:sodipodi="http://sodipodi.sourceforge.net/DTD/sodipodi-0.dtd"
   xmlns:inkscape="http://www.inkscape.org/namespaces/inkscape"
   version="1.1"
   width="100.91"
   height="101.165"
   id="svg2"
   xml:space="preserve"
   inkscape:version="0.48.2 r9819"
   sodipodi:docname="Chile PG-7b.svg"><sodipodi:namedview
     pagecolor="#ffffff"
     bordercolor="#666666"
     borderopacity="1"
     objecttolerance="10"
     gridtolerance="10"
     guidetolerance="10"
     inkscape:pageopacity="0"
     inkscape:pageshadow="2"
     inkscape:window-width="1280"
     inkscape:window-height="1004"
     id="namedview19"
     showgrid="false"
     inkscape:zoom="5.7374441"
     inkscape:cx="33.023792"
     inkscape:cy="49.09388"
     inkscape:window-x="-8"
     inkscape:window-y="-8"
     inkscape:window-maximized="1"
     inkscape:current-layer="svg2"
     fit-margin-top="0"
     fit-margin-left="0"
     fit-margin-right="0"
     fit-margin-bottom="0" /><defs
     id="defs20" /><metadata
     id="metadata8"><rdf:RDF><cc:Work
         rdf:about=""><dc:format>image/svg+xml</dc:format><dc:type
           rdf:resource="http://purl.org/dc/dcmitype/StillImage" /><dc:title></dc:title></cc:Work></rdf:RDF></metadata><path
     inkscape:connector-curvature="0"
     d="m 99.546253,54.10125 0.733747,-1.05 0.525,-1.15625 0.105,-1.26 -0.105,-1.26125 -0.525,-1.26125 -0.733747,-1.05 L 53.91625,1.47125 52.9725,0.735 51.71375,0.21 50.455,0 49.19625,0.21 47.9375,0.735 46.9925,1.47125 1.4675,47.0625 0.62875,48.1125 0.10375,49.37375 0,50.635 l 0.10375,1.26 0.525,1.15625 0.83875,1.05 45.525,45.5925 0.945,0.84 1.25875,0.525 1.25875,0.10625 1.25875,-0.10625 1.25875,-0.525 0.94375,-0.84 45.630003,-45.5925"
     style="fill:#fde012;fill-opacity:1;fill-rule:nonzero;stroke:none"
     id="path9571" /><path
     inkscape:connector-curvature="0"
     d="M 49.615,97.0675 4.09,51.475 3.77625,50.95 l 0,-0.63125 0.31375,-0.63 45.525,-45.59125 0.525,-0.31625 0.62875,0 0.525,0.31625 45.630003,45.59125 0.315,0.63 0,0.63125 -0.315,0.525 -45.630003,45.5925 -0.525,0.315 -0.62875,0 -0.525,-0.315 z m -1.7825,1.785 0.94375,0.73625 1.15375,0.315 1.15375,0 1.04875,-0.315 0.945,-0.73625 45.525003,-45.5925 0.73375,-0.945 0.315,-1.155 0,-1.155 -0.315,-1.05125 -0.73375,-0.945 L 53.0775,2.31125 52.1325,1.68 51.08375,1.365 49.93,1.365 48.77625,1.68 47.8325,2.31125 l -45.525,45.6975 -0.735,0.945 -0.31375,1.05125 0,1.155 0.31375,1.155 0.735,0.945 45.525,45.5925"
     style="fill:#000000;fill-opacity:1;fill-rule:evenodd;stroke:none"
     id="path9573" /><path
     inkscape:connector-curvature="0"
     d="m 75.13125,38.89625 0,23.11 -49.51125,0 49.51125,-23.11"
     style="fill:#000000;fill-opacity:1;fill-rule:evenodd;stroke:none"
     id="path9575" /><path
     inkscape:connector-curvature="0"
     d="m 62.8575,42.6775 -0.21,-1.155 -0.62875,-0.94625 -1.04875,-0.63 -1.04875,-0.21 -1.15375,0.21 -0.945,0.63 -0.73375,0.94625 -0.21,1.155 0.21,1.155 0.73375,0.945 0.945,0.63125 1.15375,0.315 1.04875,-0.315 1.04875,-0.63125 0.62875,-0.945 0.21,-1.155 z m -0.94375,0 -0.21,-0.735 -0.41875,-0.63125 -0.63,-0.42 -0.73375,-0.21 -0.84,0.21 -0.62875,0.42 -0.42,0.63125 -0.105,0.735 0.105,0.735 0.42,0.735 0.62875,0.42125 0.84,0.105 0.73375,-0.105 0.63,-0.42125 0.41875,-0.735 0.21,-0.735"
     style="fill:#000000;fill-opacity:1;fill-rule:evenodd;stroke:none"
     id="path9577" /><path
     inkscape:connector-curvature="0"
     d="m 40.305,52.7625 -0.105,-0.735 -0.41875,-0.63125 -0.735,-0.42 -0.73375,-0.21 -0.735,0.21 -0.62875,0.42 -0.42,0.63125 -0.21,0.735 0.21,0.735 0.42,0.63 0.62875,0.52625 0.735,0.105 0.73375,-0.105 0.735,-0.52625 0.41875,-0.63 0.105,-0.735 z m 1.04875,0 -0.31375,-1.155 -0.63,-0.94625 -0.94375,-0.63 -1.15375,-0.21 -1.15375,0.21 -0.945,0.63 -0.62875,0.94625 -0.21,1.155 0.21,1.155 0.62875,0.945 0.945,0.63125 1.15375,0.21 1.15375,-0.21 0.94375,-0.63125 0.63,-0.945 0.31375,-1.155"
     style="fill:#000000;fill-opacity:1;fill-rule:evenodd;stroke:none"
     id="path9579" /><path
     inkscape:connector-curvature="0"
     d="M 36.31875,42.7825 34.85,46.77375 53.1025,38.16 l -6.60875,-0.105 -10.175,4.7275 z m -8.07625,7.03875 2.93625,6.3025 4.09125,-1.89 -0.315,-1.05125 0.105,-1.05 0.315,-1.05125 0.62875,-0.735 0.945,-0.63 0.94375,-0.315 1.04875,0.10375 1.04875,0.31625 0.84,0.63 0.52375,0.84 15.525,-7.14375 -0.315,-1.05 0,-1.05 0.42,-0.94625 0.62875,-0.84 0.84,-0.63 1.04875,-0.315 1.04875,0.105 0.94375,0.315 0.84,0.63 0.62875,0.945 4.09125,-1.995 L 66.215,37.53 63.1725,35.74375 55.2,37.215 46.28375,37.00375 35.48,42.0475 33.59125,47.3 28.2425,49.82125"
     style="fill:#000000;fill-opacity:1;fill-rule:evenodd;stroke:none"
     id="path9581" /></svg>