<?xml version="1.0" encoding="UTF-8" standalone="no"?>
<!-- Created with Inkscape (http://www.inkscape.org/) -->

<svg
   xmlns:dc="http://purl.org/dc/elements/1.1/"
   xmlns:cc="http://creativecommons.org/ns#"
   xmlns:rdf="http://www.w3.org/1999/02/22-rdf-syntax-ns#"
   xmlns:svg="http://www.w3.org/2000/svg"
   xmlns="http://www.w3.org/2000/svg"
   xmlns:sodipodi="http://sodipodi.sourceforge.net/DTD/sodipodi-0.dtd"
   xmlns:inkscape="http://www.inkscape.org/namespaces/inkscape"
   version="1.1"
   width="100.91"
   height="101.015"
   id="svg2"
   xml:space="preserve"
   inkscape:version="0.48.2 r9819"
   sodipodi:docname="Chile PG-6b.svg"><sodipodi:namedview
     pagecolor="#ffffff"
     bordercolor="#666666"
     borderopacity="1"
     objecttolerance="10"
     gridtolerance="10"
     guidetolerance="10"
     inkscape:pageopacity="0"
     inkscape:pageshadow="2"
     inkscape:window-width="1280"
     inkscape:window-height="1004"
     id="namedview19"
     showgrid="false"
     inkscape:zoom="5.7374441"
     inkscape:cx="30.255614"
     inkscape:cy="57.739887"
     inkscape:window-x="-8"
     inkscape:window-y="-8"
     inkscape:window-maximized="1"
     inkscape:current-layer="svg2"
     fit-margin-top="0"
     fit-margin-left="0"
     fit-margin-right="0"
     fit-margin-bottom="0" /><defs
     id="defs20" /><metadata
     id="metadata8"><rdf:RDF><cc:Work
         rdf:about=""><dc:format>image/svg+xml</dc:format><dc:type
           rdf:resource="http://purl.org/dc/dcmitype/StillImage" /><dc:title></dc:title></cc:Work></rdf:RDF></metadata><path
     inkscape:connector-curvature="0"
     d="M 99.546253,54.02125 100.28125,52.9725 100.805,51.81875 100.91,50.56 100.805,49.30125 100.28125,48.0425 99.546253,46.9925 53.91625,1.4675 52.9725,0.73375 51.71375,0.20875 50.455,0 l -1.25875,0.20875 -1.25875,0.525 -0.94375,0.73375 -45.525,45.525 -0.84,1.05 L 0.105,49.30125 0,50.56 l 0.105,1.25875 0.52375,1.15375 0.84,1.04875 45.525,45.525 0.94375,0.83875 1.25875,0.525 1.25875,0.105 1.25875,-0.105 1.25875,-0.525 0.94375,-0.83875 45.630003,-45.525"
     style="fill:#fde012;fill-opacity:1;fill-rule:nonzero;stroke:none"
     id="path5647" /><path
     inkscape:connector-curvature="0"
     d="m 49.61625,96.92375 -45.525,-45.525 -0.315,-0.525 0,-0.62875 0.315,-0.63 45.525,-45.525 0.52375,-0.315 0.63,0 0.52375,0.315 45.630003,45.525 0.315,0.63 0,0.62875 -0.315,0.525 -45.630003,45.525 -0.52375,0.315 -0.63,0 -0.52375,-0.315 z m -1.78375,1.78375 0.94375,0.73375 1.15375,0.315 1.15375,0 1.05,-0.315 0.94375,-0.73375 45.525003,-45.52625 0.73375,-0.94375 0.315,-1.15375 0,-1.15375 -0.315,-1.04875 -0.73375,-0.94375 -45.525003,-45.63 -0.94375,-0.63 -1.05,-0.31375 -1.15375,0 -1.15375,0.31375 -0.94375,0.63 -45.525,45.63 -0.73375,0.94375 -0.315,1.04875 0,1.15375 0.315,1.15375 0.73375,0.94375 45.525,45.52625"
     style="fill:#000000;fill-opacity:1;fill-rule:evenodd;stroke:none"
     id="path5649" /><path
     inkscape:connector-curvature="0"
     d="m 25.42375,38.9475 0,23.0775 49.51125,0 -49.51125,-23.0775"
     style="fill:#000000;fill-opacity:1;fill-rule:evenodd;stroke:none"
     id="path5651" /><path
     inkscape:connector-curvature="0"
     d="m 47.0325,34.75125 -3.98625,1.46875 18.25125,8.49625 -4.09,-5.14 -10.175,-4.825 z M 65.28375,54.2625 69.375,56.15125 70.21375,54.3675 69.69,50.8 l -6.29375,-5.13875 -5.56,-6.92375 -10.80375,-5.035 -5.245,1.88875 -5.35,-2.5175 -2.9375,6.29375 4.09125,1.9925 0.63,-0.94375 0.83875,-0.63 0.94375,-0.31375 1.04875,-0.105 1.05,0.31375 0.83875,0.63 0.62875,0.83875 0.42,0.94375 0,1.05 -0.315,1.04875 15.525,7.1325 0.525,-0.83875 0.83875,-0.63 1.04875,-0.31375 1.04875,-0.105 0.945,0.31375 0.94375,0.63 0.62875,0.73375 0.315,1.05 0.105,1.04875 -0.315,1.04875"
     style="fill:#000000;fill-opacity:1;fill-rule:evenodd;stroke:none"
     id="path5653" /><path
     inkscape:connector-curvature="0"
     d="M 64.235,52.79375 64.025,52.06 63.60625,51.43 62.97625,51.01125 62.2425,50.8 l -0.735,0.21125 -0.73375,0.41875 -0.42,0.63 -0.105,0.73375 0.105,0.73375 0.42,0.63 0.73375,0.52375 0.735,0.105 0.73375,-0.105 0.63,-0.52375 0.41875,-0.63 0.21,-0.73375 z m 0.94375,0 L 64.97,51.64 l -0.63,-0.945 -0.94375,-0.62875 -1.15375,-0.21 -1.15375,0.21 -0.945,0.62875 -0.62875,0.945 -0.315,1.15375 0.315,1.15375 0.62875,0.945 0.945,0.62875 1.15375,0.21 1.15375,-0.21 0.94375,-0.62875 0.63,-0.945 0.20875,-1.15375 z m -22.5525,-10.07 -0.105,-0.735 -0.41875,-0.62875 -0.63,-0.42 -0.83875,-0.21 -0.735,0.21 -0.62875,0.42 -0.42,0.62875 -0.21,0.735 0.21,0.83875 0.42,0.63 0.62875,0.41875 0.735,0.105 0.83875,-0.105 0.63,-0.41875 0.41875,-0.63 0.105,-0.83875 z m 1.04875,0 -0.31375,-1.15375 -0.63,-0.94375 -0.94375,-0.63 -1.15375,-0.21 -1.15375,0.21 -0.945,0.63 -0.62875,0.94375 -0.21,1.15375 0.21,1.15375 0.62875,0.94375 0.945,0.63 1.15375,0.315 1.15375,-0.315 0.94375,-0.63 0.63,-0.94375 0.31375,-1.15375"
     style="fill:#000000;fill-opacity:1;fill-rule:evenodd;stroke:none"
     id="path5655" /></svg>