<?xml version="1.0" encoding="UTF-8" standalone="no"?>
<!-- Created with Inkscape (http://www.inkscape.org/) -->

<svg
   xmlns:dc="http://purl.org/dc/elements/1.1/"
   xmlns:cc="http://creativecommons.org/ns#"
   xmlns:rdf="http://www.w3.org/1999/02/22-rdf-syntax-ns#"
   xmlns:svg="http://www.w3.org/2000/svg"
   xmlns="http://www.w3.org/2000/svg"
   xmlns:sodipodi="http://sodipodi.sourceforge.net/DTD/sodipodi-0.dtd"
   xmlns:inkscape="http://www.inkscape.org/namespaces/inkscape"
   version="1.1"
   width="102.19875"
   height="102.19875"
   id="svg2"
   xml:space="preserve"
   inkscape:version="0.48.2 r9819"
   sodipodi:docname="Chile PG-7a.svg"><sodipodi:namedview
     pagecolor="#ffffff"
     bordercolor="#666666"
     borderopacity="1"
     objecttolerance="10"
     gridtolerance="10"
     guidetolerance="10"
     inkscape:pageopacity="0"
     inkscape:pageshadow="2"
     inkscape:window-width="1280"
     inkscape:window-height="1004"
     id="namedview19"
     showgrid="false"
     inkscape:zoom="5.7374441"
     inkscape:cx="37.927706"
     inkscape:cy="50.973764"
     inkscape:window-x="-8"
     inkscape:window-y="-8"
     inkscape:window-maximized="1"
     inkscape:current-layer="svg2"
     fit-margin-top="0"
     fit-margin-left="0"
     fit-margin-right="0"
     fit-margin-bottom="0" /><defs
     id="defs20" /><metadata
     id="metadata8"><rdf:RDF><cc:Work
         rdf:about=""><dc:format>image/svg+xml</dc:format><dc:type
           rdf:resource="http://purl.org/dc/dcmitype/StillImage" /><dc:title></dc:title></cc:Work></rdf:RDF></metadata><path
     inkscape:connector-curvature="0"
     d="M 54.59625,1.4725 53.36875,0.49125 51.89625,0 50.30125,0 48.83,0.49125 47.48,1.4725 1.35,47.6025 0.49125,48.83 0,50.30125 l 0,1.596249 0.49125,1.47125 0.85875,1.35 46.13,46.130001 1.35,0.85875 1.47125,0.49125 1.595,0 1.4725,-0.49125 1.2275,-0.85875 46.13,-46.130001 0.98125,-1.35 0.49125,-1.47125 0,-1.596249 -0.49125,-1.47125 -0.98125,-1.2275 -46.13,-46.13"
     style="fill:#fde012;fill-opacity:1;fill-rule:nonzero;stroke:none"
     id="path7628" /><path
     inkscape:connector-curvature="0"
     d="m 70.79,56.313749 0.36875,-1.35 0,-1.35 L 70.6675,52.264999 69.80875,51.16125 68.705,50.425 l -1.35,-0.36875 -1.35,0 -1.22625,0.49125 -1.10375,0.85875 -0.73625,1.104999 -20.36625,-9.447499 0.3675,-1.2275 0,-1.4725 -0.49,-1.22625 -0.85875,-1.10375 -1.105,-0.73625 -1.34875,-0.36875 -1.35,0 -1.34875,0.49125 -0.9825,0.85875 -0.85875,1.10375 -3.06625,-1.4725 8.09625,-17.29875 26.255,12.27 -1.84,4.0475 6.135,2.8225 -0.85875,6.9925 6.13375,2.8225 -2.57625,5.521249 1.9625,0.98125 -0.73625,1.7175 -3.3125,-1.4725 3.3125,1.4725 -3.3125,-1.4725 z M 68.21375,46.25375 68.95,40.48625 63.55125,37.91 l -2.33,5.15375 6.9925,3.19 z m 2.33125,8.097499 -0.1225,-1.105 -0.61375,-0.98125 L 69.0725,51.40625 67.96875,50.915 66.865,50.67 65.76,50.915 64.65625,51.40625 63.92,52.264999 l -0.61375,0.98125 -0.1225,1.105 0.1225,1.22625 0.61375,0.98125 0.73625,0.85875 1.10375,0.49125 1.105,0.1225 1.10375,-0.1225 1.10375,-0.49125 0.73625,-0.85875 0.61375,-0.98125 0.1225,-1.22625 z M 42.3275,41.22375 42.08125,40.12 l -0.49,-1.105 -0.85875,-0.73625 -0.98125,-0.61375 -1.105,-0.1225 -1.10375,0.1225 -1.10375,0.61375 -0.73625,0.73625 -0.61375,1.105 -0.1225,1.10375 0.1225,1.10375 0.61375,1.10375 0.73625,0.73625 1.10375,0.61375 1.10375,0.1225 1.105,-0.1225 0.98125,-0.61375 0.85875,-0.73625 0.49,-1.10375 0.24625,-1.10375 z M 26.01,39.3825 l 0,23.433749 50.17875,0 L 26.01,39.3825"
     style="fill:#000000;fill-opacity:1;fill-rule:evenodd;stroke:none"
     id="path7630" /><path
     inkscape:connector-curvature="0"
     d="M 53.7375,2.33125 52.755,1.595 51.65125,1.2275 l -1.10375,0 -1.2275,0.3675 -0.85875,0.73625 -46.13,46.13 -0.73625,0.9825 -0.3675,1.10375 0,1.226249 0.3675,1.105 0.73625,0.85875 46.13,46.252501 0.85875,0.61375 1.2275,0.36875 1.10375,0 1.10375,-0.36875 0.9825,-0.61375 46.13,-46.252501 0.73625,-0.85875 0.3675,-1.105 0,-1.226249 -0.3675,-1.10375 -0.73625,-0.9825 -46.13,-46.13 z M 50.17875,98.15 l 0.61375,0.3675 0.61375,0 0.6125,-0.3675 46.13125,-46.130001 0.245,-0.613749 0,-0.61375 -0.245,-0.49125 -46.13125,-46.13 -0.6125,-0.3675 -0.61375,0 -0.61375,0.3675 -46.13,46.13 -0.3675,0.49125 0,0.61375 0.3675,0.613749 46.13,46.130001"
     style="fill:#000000;fill-opacity:1;fill-rule:evenodd;stroke:none"
     id="path7632" /></svg>