<?xml version="1.0" encoding="UTF-8" standalone="no"?>
<!-- Created with Inkscape (http://www.inkscape.org/) -->

<svg
   xmlns:dc="http://purl.org/dc/elements/1.1/"
   xmlns:cc="http://creativecommons.org/ns#"
   xmlns:rdf="http://www.w3.org/1999/02/22-rdf-syntax-ns#"
   xmlns:svg="http://www.w3.org/2000/svg"
   xmlns="http://www.w3.org/2000/svg"
   xmlns:sodipodi="http://sodipodi.sourceforge.net/DTD/sodipodi-0.dtd"
   xmlns:inkscape="http://www.inkscape.org/namespaces/inkscape"
   version="1.1"
   width="100.91"
   height="101.165"
   id="svg2"
   xml:space="preserve"
   inkscape:version="0.48.2 r9819"
   sodipodi:docname="AJAX1.svg"><sodipodi:namedview
     pagecolor="#ffffff"
     bordercolor="#666666"
     borderopacity="1"
     objecttolerance="10"
     gridtolerance="10"
     guidetolerance="10"
     inkscape:pageopacity="0"
     inkscape:pageshadow="2"
     inkscape:window-width="1280"
     inkscape:window-height="1004"
     id="namedview19"
     showgrid="false"
     inkscape:zoom="5.7374441"
     inkscape:cx="74.71243"
     inkscape:cy="37.193091"
     inkscape:window-x="-8"
     inkscape:window-y="-8"
     inkscape:window-maximized="1"
     inkscape:current-layer="svg2"
     fit-margin-top="0"
     fit-margin-left="0"
     fit-margin-right="0"
     fit-margin-bottom="0" /><defs
     id="defs20" /><metadata
     id="metadata8"><rdf:RDF><cc:Work
         rdf:about=""><dc:format>image/svg+xml</dc:format><dc:type
           rdf:resource="http://purl.org/dc/dcmitype/StillImage" /><dc:title></dc:title></cc:Work></rdf:RDF></metadata><path
     inkscape:connector-curvature="0"
     d="m 99.5475,54.10125 0.73375,-1.05 0.525,-1.15625 0.10375,-1.26 -0.10375,-1.26 -0.525,-1.26125 -0.73375,-1.05 L 53.9175,1.47125 52.9725,0.735 51.71375,0.21 50.455,0 49.19625,0.21 47.9375,0.735 46.99375,1.47125 1.46875,47.06375 0.63,48.11375 0.105,49.375 0,50.635 l 0.105,1.26 0.525,1.15625 0.83875,1.05 45.525,45.59375 0.94375,0.84 1.25875,0.525 1.25875,0.105 1.25875,-0.105 1.25875,-0.525 0.945,-0.84 45.63,-45.59375"
     style="fill:#fde012;fill-opacity:1;fill-rule:nonzero;stroke:none"
     id="path3485" /><path
     inkscape:connector-curvature="0"
     d="m 49.61625,97.0675 -45.525,-45.5925 -0.315,-0.525 0,-0.63 0.315,-0.63 45.525,-45.5925 0.525,-0.315 0.62875,0 0.525,0.315 45.63,45.5925 0.31375,0.63 0,0.63 -0.31375,0.525 -45.63,45.5925 -0.525,0.315 -0.62875,0 -0.525,-0.315 z m -1.78375,1.78625 0.945,0.735 1.15375,0.31625 1.15375,0 1.04875,-0.31625 0.94375,-0.735 45.525,-45.5925 0.735,-0.945 0.315,-1.155 0,-1.15625 -0.315,-1.05125 -0.735,-0.945 -45.525,-45.6975 -0.94375,-0.63 -1.04875,-0.315 -1.15375,0 -1.15375,0.315 -0.945,0.63 -45.525,45.6975 -0.73375,0.945 -0.315,1.05125 0,1.15625 0.315,1.155 0.73375,0.945 45.525,45.5925"
     style="fill:#000000;fill-opacity:1;fill-rule:evenodd;stroke:none"
     id="path3487" /><path
     inkscape:connector-curvature="0"
     d="m 15.01125,56.2375 70.595,0 0,-11.135 -13.0075,0 -1.9925,-0.315 -1.78375,-0.94625 -2.93625,-1.99625 -3.2525,-1.575 -3.46125,-1.26125 -3.46125,-0.84 -3.67125,-0.42 -3.56625,0 -3.5675,0.42 -3.56625,0.84 -3.35625,1.26125 -3.2525,1.575 -3.04125,1.99625 -1.78375,0.94625 -1.8875,0.315 -13.0075,0 0,11.135"
     style="fill:#000000;fill-opacity:1;fill-rule:nonzero;stroke:none"
     id="path3489" /></svg>