<?xml version="1.0" encoding="UTF-8" standalone="no"?>
<!-- Created with Inkscape (http://www.inkscape.org/) -->

<svg
   xmlns:dc="http://purl.org/dc/elements/1.1/"
   xmlns:cc="http://creativecommons.org/ns#"
   xmlns:rdf="http://www.w3.org/1999/02/22-rdf-syntax-ns#"
   xmlns:svg="http://www.w3.org/2000/svg"
   xmlns="http://www.w3.org/2000/svg"
   xmlns:sodipodi="http://sodipodi.sourceforge.net/DTD/sodipodi-0.dtd"
   xmlns:inkscape="http://www.inkscape.org/namespaces/inkscape"
   version="1.1"
   width="98.181252"
   height="135.44225"
   id="svg2"
   xml:space="preserve"
   inkscape:version="0.48.2 r9819"
   sodipodi:docname="Chile PG-8.svg"><sodipodi:namedview
     pagecolor="#ffffff"
     bordercolor="#666666"
     borderopacity="1"
     objecttolerance="10"
     gridtolerance="10"
     guidetolerance="10"
     inkscape:pageopacity="0"
     inkscape:pageshadow="2"
     inkscape:window-width="1280"
     inkscape:window-height="1004"
     id="namedview19"
     showgrid="false"
     inkscape:zoom="5.7374441"
     inkscape:cx="67.680503"
     inkscape:cy="74.883076"
     inkscape:window-x="-8"
     inkscape:window-y="-8"
     inkscape:window-maximized="1"
     inkscape:current-layer="svg2"
     fit-margin-top="0"
     fit-margin-left="0"
     fit-margin-right="0"
     fit-margin-bottom="0" /><defs
     id="defs20" /><metadata
     id="metadata8"><rdf:RDF><cc:Work
         rdf:about=""><dc:format>image/svg+xml</dc:format><dc:type
           rdf:resource="http://purl.org/dc/dcmitype/StillImage" /><dc:title></dc:title></cc:Work></rdf:RDF></metadata><path
     inkscape:connector-curvature="0"
     d="m 96.815004,52.602499 -44.242503,44.2675 -1.22875,0.95625 -1.502501,0.41 -1.50125,0 -1.36625,-0.41 -1.22875,-0.95625 -44.37875,-44.2675 -0.82,-1.23 L 0,49.869999 l 0,-1.50375 0.54625,-1.36625 0.82,-1.22875 L 45.745,1.36625 46.97375,0.40875 48.34,0 l 1.50125,0 1.502501,0.40875 1.22875,0.9575 44.242503,44.404999 0.95625,1.22875 0.41,1.36625 0,1.50375 -0.41,1.5025 -0.95625,1.23"
     style="fill:#fde012;fill-opacity:1;fill-rule:nonzero;stroke:none"
     id="path3976" /><path
     inkscape:connector-curvature="0"
     d="m 4.5062496,104.15475 0,26.50625 0.27375,1.5025 0.6825,1.36625 1.0925,0.9575 1.22875,0.6825 1.5025,0.2725 79.6087504,0 1.5025,-0.2725 1.36625,-0.6825 1.09125,-0.9575 0.683754,-1.36625 0.13625,-1.5025 0,-26.50625 -0.13625,-1.5025 -0.683754,-1.3675 -1.09125,-1.0925 -1.36625,-0.6825 -1.5025,-0.27375 -79.6087504,0 -1.5025,0.27375 -1.22875,0.6825 -1.0925,1.0925 -0.6825,1.3675 -0.27375,1.5025"
     style="fill:#fde012;fill-opacity:1;fill-rule:evenodd;stroke:none"
     id="path3978" /><path
     inkscape:connector-curvature="0"
     d="m 32.7725,41.534999 0.82,1.50375 1.22875,1.365 1.63875,0.82 1.775,0.27375 1.63875,-0.27375 1.63875,-0.82 1.365,-1.23 0.82,-1.5025 0.81875,-1.63875 1.22875,-1.23 1.5025,-0.82 1.775,-0.27375 1.775001,0.27375 1.63875,0.6825 1.22875,1.23 0.82,1.64 0.81875,1.50375 1.22875,1.365 1.63875,0.82 1.775,0.27375 1.63875,-0.27375 1.63875,-0.82 1.36625,-1.23 0.81875,-1.5025 0.81875,-1.63875 1.23,-1.23 1.6375,-0.82 1.776249,-0.27375 1.775,0.27375 1.50125,0.82 1.36625,1.23 0.81875,1.63875 0.82,1.5025 1.22875,1.23 1.5025,0.82 1.775,0.27375 0,7.7875 -65.135,0 0,-7.7875 1.775,-0.27375 1.50125,-0.82 1.36625,-1.23 0.81875,-1.5025 0.82,-1.63875 1.22875,-1.23 1.50125,-0.82 1.77625,-0.27375 1.775,0.27375 1.63875,0.6825 1.22875,1.23 0.81875,1.64"
     style="fill:#000000;fill-opacity:1;fill-rule:nonzero;stroke:none"
     id="path3980" /><path
     inkscape:connector-curvature="0"
     d="M 51.617501,2.18625 50.525,1.36625 49.15875,1.0925 l -1.365,0.27375 -1.22875,0.82 -44.38,44.403749 -0.6825,1.09375 -0.27375,1.5025 0.27375,1.36625 0.6825,1.0925 44.38,44.405 1.22875,0.82 1.365,0.27375 1.36625,-0.27375 1.092501,-0.82 44.378753,-44.405 0.81875,-1.0925 0.27375,-1.36625 -0.27375,-1.5025 -0.81875,-1.09375 L 51.617501,2.18625 z m -3.413751,92.223749 0.54625,0.27375 0.6825,0 0.54625,-0.27375 44.378754,-44.40375 0.27375,-0.5475 0,-0.6825 -0.27375,-0.54625 L 49.97875,3.96125 49.4325,3.5525 l -0.6825,0 -0.54625,0.40875 -44.2437504,44.268749 -0.2725,0.54625 0,0.6825 0.2725,0.5475 44.2437504,44.40375"
     style="fill:#000000;fill-opacity:1;fill-rule:evenodd;stroke:none"
     id="path3982" /><path
     inkscape:connector-curvature="0"
     d="m 5.7349996,130.661 0.27375,1.36625 0.81875,1.23 1.0925,0.6825 1.36625,0.27375 79.6087504,0 1.36625,-0.27375 1.22875,-0.6825 0.81875,-1.23 0.27375,-1.36625 0,-26.50625 -0.27375,-1.5025 -0.81875,-1.09375 -1.22875,-0.82 -1.36625,-0.2725 -79.6087504,0 -1.36625,0.2725 -1.0925,0.82 -0.81875,1.09375 -0.27375,1.5025 0,26.50625 z m 2.3225,0 0.2725,0.54625 0.41,0.41 0.54625,0.27375 79.6087504,0 0.68375,-0.27375 0.40875,-0.41 0.1375,-0.54625 0,-26.50625 -0.1375,-0.6825 -0.40875,-0.41125 -0.68375,-0.13625 -79.6087504,0 -0.54625,0.13625 -0.41,0.41125 -0.2725,0.6825 0,26.50625"
     style="fill:#000000;fill-opacity:1;fill-rule:evenodd;stroke:none"
     id="path3984" /><path
     inkscape:connector-curvature="0"
     d="m 12.9725,117.81725 1.0925,-0.2725 0.6825,-0.82 0.27375,-0.95625 -0.27375,-0.95625 -0.6825,-0.82 -1.0925,-0.2725 -2.73125,0 0,7.24 1.0925,0 0,-3.1425 1.63875,0 z m 7.51125,-0.2725 0.6825,-0.54625 0.40875,-0.82125 0,-0.81875 -0.40875,-0.82 -0.6825,-0.54625 -0.82,-0.2725 -2.73125,0 0,7.24 1.0925,0 0,-3.1425 1.36625,0 1.22875,3.1425 1.0925,0 -1.22875,-3.415 z m 3.00375,-2.18625 -0.27375,2.04875 0.27375,2.05 0.54625,0.82 0.81875,0.54625 0.95625,0.27375 0.95625,-0.27375 0.81875,-0.54625 0.41,-0.82 0.2725,-2.05 -0.2725,-2.04875 -0.41,-0.95625 -0.81875,-0.5475 -0.95625,-0.2725 -0.95625,0.2725 -0.81875,0.5475 -0.54625,0.95625 z m 22.80375,0 -0.41,2.04875 0.41,2.05 0.41,0.82 0.81875,0.54625 0.95625,0.27375 0.95625,-0.27375 0.81875,-0.54625 0.41,-0.82 0.410001,-2.05 -0.410001,-2.04875 -0.41,-0.95625 -0.81875,-0.5475 -0.95625,-0.2725 -0.95625,0.2725 -0.81875,0.5475 -0.41,0.95625 z m 6.008751,3.82625 0.40875,0.81875 0.54625,0.5475 0.68375,0.40875 0.81875,0.1375 0.95625,-0.1375 0.81875,-0.54625 0.54625,-0.6825 0.13625,-0.82 -0.2725,-0.95625 -0.54625,-0.82 -0.95625,-0.41 -1.0925,-0.27375 -0.40875,-0.13625 -0.1375,-0.54625 0.27375,-0.68375 0.6825,-0.2725 0.6825,0.13625 0.41,0.54625 1.0925,-0.27375 -0.54625,-0.81875 -0.81875,-0.6825 -0.95625,-0.1375 -1.0925,0.41 -0.6825,0.82 -0.27375,0.95625 0.27375,0.82 0.54625,0.6825 0.6825,0.41 1.0925,0.13625 0.6825,0.41125 0.27375,0.6825 -0.41,0.82 -0.41,0.13625 -0.54625,0.13625 -0.54625,-0.13625 -0.54625,-0.41 -0.2725,-0.54625 -1.0925,0.27375 z m 35.229999,-1.64 -0.13625,-1.09375 -0.6825,-0.81875 -0.95625,-0.5475 -1.0925,0.13625 -0.95625,0.685 -0.81875,-0.685 -0.95625,-0.13625 -0.95625,0.27375 0,-0.1375 -1.365,0 0,5.73875 1.365,0 0,-3.415 0.27375,-0.68375 0.6825,-0.2725 0.6825,0.2725 0.27375,0.68375 0,3.415 1.365,0 0,-3.415 0.27375,-0.68375 0.6825,-0.2725 0.6825,0.2725 0.27375,0.68375 0,3.415 1.365,0 0,-3.415 z m -61.31125,-4.23625 -0.82,0 0.6825,-1.63875 1.5025,0 -1.365,1.63875 z m 21.02875,5.73875 0.54625,0.68375 0.6825,0.2725 0.6825,-0.2725 0.41,-0.68375 0.2725,-1.64 -0.2725,-1.775 -0.41,-0.68375 -0.6825,-0.13625 -0.6825,0.13625 -0.54625,0.68375 -0.13625,1.775 0.13625,1.64 z m -22.6675,0 0.41,0.68375 0.81875,0.2725 0.6825,-0.2725 0.41,-0.68375 0.2725,-1.64 -0.2725,-1.775 -0.41,-0.68375 -0.6825,-0.13625 -0.81875,0.13625 -0.41,0.68375 -0.27375,1.775 0.27375,1.64 z m -11.6075,-2.3225 0.6825,-0.27375 0.27375,-0.6825 -0.27375,-0.68375 -0.6825,-0.2725 -1.63875,0 0,1.9125 1.63875,0 z m 6.69125,0 0.54625,-0.27375 0.27375,-0.6825 -0.27375,-0.68375 -0.54625,-0.2725 -1.63875,0 0,1.9125 1.63875,0 z m 11.74375,0.54625 -1.775,-3.55125 1.365,0 0.95625,2.32125 1.0925,-2.32125 1.365,0 -1.775,3.55125 1.775,3.68875 -1.22875,0 -1.22875,-2.3225 -1.0925,2.3225 -1.22875,0 1.775,-3.68875 z m 4.37,-3.55125 1.0925,0 0,7.24125 -1.0925,0 0,-7.24125 z m 2.8675,0 1.0925,0 1.6375,4.235 1.77625,-4.235 1.0925,0 0,7.24 -1.23,0 0,-4.09875 -1.63875,4.09875 -1.6375,-4.09875 0,4.09875 -1.0925,0 0,-7.24"
     style="fill:#000000;fill-opacity:1;fill-rule:evenodd;stroke:none"
     id="path3986" /></svg>