<?xml version="1.0" encoding="UTF-8" standalone="no"?>
<!-- Created with Inkscape (http://www.inkscape.org/) -->

<svg
   xmlns:dc="http://purl.org/dc/elements/1.1/"
   xmlns:cc="http://creativecommons.org/ns#"
   xmlns:rdf="http://www.w3.org/1999/02/22-rdf-syntax-ns#"
   xmlns:svg="http://www.w3.org/2000/svg"
   xmlns="http://www.w3.org/2000/svg"
   xmlns:sodipodi="http://sodipodi.sourceforge.net/DTD/sodipodi-0.dtd"
   xmlns:inkscape="http://www.inkscape.org/namespaces/inkscape"
   version="1.1"
   width="101.5075"
   height="101.6125"
   id="svg2"
   xml:space="preserve"
   inkscape:version="0.48.2 r9819"
   sodipodi:docname="Chile PI-1a.svg"><sodipodi:namedview
     pagecolor="#ffffff"
     bordercolor="#666666"
     borderopacity="1"
     objecttolerance="10"
     gridtolerance="10"
     guidetolerance="10"
     inkscape:pageopacity="0"
     inkscape:pageshadow="2"
     inkscape:window-width="1280"
     inkscape:window-height="1004"
     id="namedview19"
     showgrid="false"
     inkscape:zoom="4.0569856"
     inkscape:cx="69.522744"
     inkscape:cy="61.182815"
     inkscape:window-x="-8"
     inkscape:window-y="-8"
     inkscape:window-maximized="1"
     inkscape:current-layer="svg2"
     fit-margin-top="0"
     fit-margin-left="0"
     fit-margin-right="0"
     fit-margin-bottom="0" /><defs
     id="defs20" /><metadata
     id="metadata8"><rdf:RDF><cc:Work
         rdf:about=""><dc:format>image/svg+xml</dc:format><dc:type
           rdf:resource="http://purl.org/dc/dcmitype/StillImage" /><dc:title></dc:title></cc:Work></rdf:RDF></metadata><path
     inkscape:connector-curvature="0"
     d="m 100.135,54.34125 0.73875,-1.055 0.5275,-1.16125 0.10625,-1.26625 -0.10625,-1.26625 -0.5275,-1.26625 -0.73875,-1.055 -45.9,-45.795 L 53.28625,0.73875 52.02,0.21 50.75375,0 49.4875,0.21 l -1.26625,0.52875 -0.95,0.7375 -45.795,45.795 -0.84375,1.055 L 0.105,49.5925 0,50.85875 0.105,52.125 l 0.5275,1.16125 0.84375,1.055 45.795,45.79375 0.95,0.84375 1.26625,0.52875 1.26625,0.105 1.26625,-0.105 1.26625,-0.52875 0.94875,-0.84375 45.9,-45.79375"
     style="fill:#fde012;fill-opacity:1;fill-rule:nonzero;stroke:none"
     id="path5742" /><path
     inkscape:connector-curvature="0"
     d="M 49.90875,97.4975 4.115,51.70375 3.79875,51.175 l 0,-0.6325 0.31625,-0.63375 45.79375,-45.7937497 0.5275,-0.3175 0.63375,0 0.5275,0.3175 45.9,45.7937497 0.31625,0.63375 0,0.6325 -0.31625,0.52875 -45.9,45.79375 -0.5275,0.31625 -0.63375,0 -0.5275,-0.31625 z m -1.79375,1.79375 0.95,0.73875 1.16125,0.31625 1.16,0 1.055,-0.31625 0.95,-0.73875 45.795,-45.795 0.7375,-0.94875 0.3175,-1.16125 0,-1.16125 -0.3175,-1.05375 -0.7375,-0.95 -45.795,-45.9 -0.95,-0.63375 -1.055,-0.31625 -1.16,0 -1.16125,0.31625 -0.95,0.63375 -45.79375,45.9 -0.73875,0.95 -0.31625,1.05375 0,1.16125 0.31625,1.16125 0.73875,0.94875 45.79375,45.795"
     style="fill:#000000;fill-opacity:1;fill-rule:evenodd;stroke:none"
     id="path5744" /><path
     inkscape:connector-curvature="0"
     d="m 76.235,56.00625 0,2.85 1.3725,0 -0.73875,-2.85 -0.63375,0 z m -8.7575,0 0,2.85 -0.73875,0 -0.42125,-2.85 1.16,0 z m -10.97375,2.85 -0.31625,-2.85 -3.79875,0 0.21125,2.85 3.90375,0 z m -7.07,0 -0.31625,-2.85 -3.5875,0 0.21125,2.85 3.6925,0 z m 13.7175,-2.85 0.31625,2.85 -3.79875,0 -0.31625,-2.85 3.79875,0 z m -31.655,2.955 3.90375,0 0.21125,-2.955 -3.6925,-0.0087 -0.4225,2.96375 z m 7.07,0 3.79875,0 0.105,-2.955 -3.69375,0 -0.21,2.955 z m -14.14,0 0.5275,-2.955 3.5875,0 -0.21,2.955 -3.905,0 z m 43.05125,5.8025 8.7575,0 0,-3.05875 5.69875,0 0,-1.4775 -5.69875,0 0,-0.5275 5.69875,0 0,-0.73875 -1.16125,0 -0.6325,-2.955 0.73875,0 0,-1.37125 -4.64375,0 0,-0.4225 4.64375,0 0,-0.73875 -4.64375,0 0,-13.50625 -1.6875,-1.5825 -5.4875,0 -1.5825,1.5825 0,2.74375 -43.79,-8.5475 -0.73875,3.3775 44.52875,8.86375 0,7.06875 -46.85,0 0,0.73875 46.85,0 0,0.4225 -46.85,0 0,1.37125 1.26625,0 -0.42125,2.955 -1.79375,0 0,0.73875 47.79875,0 0,0.5275 -47.79875,0 0,1.4775 47.79875,0 0,3.05875"
     style="fill:#000000;fill-opacity:1;fill-rule:evenodd;stroke:none"
     id="path5746" /></svg>