<?xml version="1.0" encoding="UTF-8" standalone="no"?>
<!-- Created with Inkscape (http://www.inkscape.org/) -->

<svg
   xmlns:dc="http://purl.org/dc/elements/1.1/"
   xmlns:cc="http://creativecommons.org/ns#"
   xmlns:rdf="http://www.w3.org/1999/02/22-rdf-syntax-ns#"
   xmlns:svg="http://www.w3.org/2000/svg"
   xmlns="http://www.w3.org/2000/svg"
   xmlns:sodipodi="http://sodipodi.sourceforge.net/DTD/sodipodi-0.dtd"
   xmlns:inkscape="http://www.inkscape.org/namespaces/inkscape"
   version="1.1"
   width="100.91125"
   height="101.17625"
   id="svg2"
   xml:space="preserve"
   inkscape:version="0.48.2 r9819"
   sodipodi:docname="AJAX1.svg"><sodipodi:namedview
     pagecolor="#ffffff"
     bordercolor="#666666"
     borderopacity="1"
     objecttolerance="10"
     gridtolerance="10"
     guidetolerance="10"
     inkscape:pageopacity="0"
     inkscape:pageshadow="2"
     inkscape:window-width="1280"
     inkscape:window-height="1004"
     id="namedview19"
     showgrid="false"
     inkscape:zoom="5.7374441"
     inkscape:cx="72.689001"
     inkscape:cy="36.105043"
     inkscape:window-x="-8"
     inkscape:window-y="-8"
     inkscape:window-maximized="1"
     inkscape:current-layer="svg2"
     fit-margin-top="0"
     fit-margin-left="0"
     fit-margin-right="0"
     fit-margin-bottom="0" /><defs
     id="defs20" /><metadata
     id="metadata8"><rdf:RDF><cc:Work
         rdf:about=""><dc:format>image/svg+xml</dc:format><dc:type
           rdf:resource="http://purl.org/dc/dcmitype/StillImage" /><dc:title></dc:title></cc:Work></rdf:RDF></metadata><path
     inkscape:connector-curvature="0"
     d="m 99.5475,54.1075 0.73375,-1.05 0.525,-1.15625 0.105,-1.26125 -0.105,-1.26 -0.525,-1.26125 L 99.5475,47.0675 53.9175,1.47 52.97375,0.735 51.715,0.21 50.45625,0 49.1975,0.21 47.93875,0.735 46.99375,1.47 1.46875,47.0675 0.63,48.11875 0.105,49.38 0,50.64 l 0.105,1.26125 0.525,1.15625 0.83875,1.05 45.525,45.59875 0.945,0.84 1.25875,0.525 1.25875,0.105 1.25875,-0.105 1.25875,-0.525 0.94375,-0.84 45.63,-45.59875"
     style="fill:#fde012;fill-opacity:1;fill-rule:nonzero;stroke:none"
     id="path3029" /><path
     inkscape:connector-curvature="0"
     d="m 49.61625,97.07875 -45.525,-45.5975 -0.315,-0.525 0,-0.63125 0.315,-0.63 45.525,-45.5975 0.525,-0.315 0.62875,0 0.525,0.315 45.63,45.5975 0.315,0.63 0,0.63125 -0.315,0.525 -45.63,45.5975 -0.525,0.315 -0.62875,0 -0.525,-0.315 z m -1.7825,1.78625 0.94375,0.735 1.15375,0.31625 1.15375,0 1.04875,-0.31625 0.945,-0.735 45.525,-45.5975 0.73375,-0.94625 0.315,-1.155 0,-1.15625 -0.315,-1.05 -0.73375,-0.94625 -45.525,-45.7025 -0.945,-0.63 L 51.085,1.365 l -1.15375,0 -1.15375,0.31625 -0.94375,0.63 -45.525,45.7025 -0.735,0.94625 -0.315,1.05 0,1.15625 0.315,1.155 0.735,0.94625 45.525,45.5975"
     style="fill:#000000;fill-opacity:1;fill-rule:evenodd;stroke:none"
     id="path3031" /><path
     inkscape:connector-curvature="0"
     d="m 26.06625,34.9825 8.81125,-8.72 15.42,15.445 15.525,-15.445 8.81125,8.72 -8.49625,8.51125 -31.575,0 -8.49625,-8.51125 z m 0,31.09875 8.49625,-8.50875 31.575,0 8.49625,8.50875 L 65.8225,74.8025 50.2975,59.25375 34.8775,74.8025 26.06625,66.08125 z M 68.55,46.855 l 2.6225,0 0,2.20625 5.14,0 0,-2.20625 2.62125,0 0,2.20625 2.6225,0 0,2.9425 -2.6225,0 0,2.20625 -2.62125,0 0,-2.20625 -5.14,0 0,2.20625 -2.6225,0 0,-2.20625 -5.245,0 0,2.20625 -2.5175,0 0,-2.20625 -5.245,0 0,2.20625 -2.6225,0 0,-2.20625 -5.14,0 0,2.20625 -2.6225,0 0,-2.20625 -5.245,0 0,2.20625 -2.5175,0 0,-2.20625 -5.245,0 0,2.20625 -2.6225,0 0,-2.20625 -5.13875,0 0,2.20625 -2.6225,0 0,-2.20625 -2.6225,0 0,-2.9425 2.6225,0 0,-2.20625 2.6225,0 0,2.20625 5.13875,0 0,-2.20625 2.6225,0 0,2.20625 5.245,0 0,-2.20625 2.5175,0 0,2.20625 5.245,0 0,-2.20625 2.6225,0 0,2.20625 5.14,0 0,-2.20625 2.6225,0 0,2.20625 5.245,0 0,-2.20625 2.5175,0 0,2.20625 5.245,0 0,-2.20625"
     style="fill:#000000;fill-opacity:1;fill-rule:evenodd;stroke:none"
     id="path3033" /></svg>