<?xml version="1.0" encoding="UTF-8" standalone="no"?>
<!-- Created with Inkscape (http://www.inkscape.org/) -->

<svg
   xmlns:dc="http://purl.org/dc/elements/1.1/"
   xmlns:cc="http://creativecommons.org/ns#"
   xmlns:rdf="http://www.w3.org/1999/02/22-rdf-syntax-ns#"
   xmlns:svg="http://www.w3.org/2000/svg"
   xmlns="http://www.w3.org/2000/svg"
   xmlns:sodipodi="http://sodipodi.sourceforge.net/DTD/sodipodi-0.dtd"
   xmlns:inkscape="http://www.inkscape.org/namespaces/inkscape"
   version="1.1"
   width="120.765"
   height="65.606247"
   id="svg2"
   xml:space="preserve"
   inkscape:version="0.48.2 r9819"
   sodipodi:docname="Chile PI-1b.svg"><sodipodi:namedview
     pagecolor="#ffffff"
     bordercolor="#666666"
     borderopacity="1"
     objecttolerance="10"
     gridtolerance="10"
     guidetolerance="10"
     inkscape:pageopacity="0"
     inkscape:pageshadow="2"
     inkscape:window-width="1280"
     inkscape:window-height="1004"
     id="namedview19"
     showgrid="false"
     inkscape:zoom="4.0569856"
     inkscape:cx="98.847702"
     inkscape:cy="21.552132"
     inkscape:window-x="-8"
     inkscape:window-y="-8"
     inkscape:window-maximized="1"
     inkscape:current-layer="svg2"
     fit-margin-top="0"
     fit-margin-left="0"
     fit-margin-right="0"
     fit-margin-bottom="0" /><defs
     id="defs20" /><metadata
     id="metadata8"><rdf:RDF><cc:Work
         rdf:about=""><dc:format>image/svg+xml</dc:format><dc:type
           rdf:resource="http://purl.org/dc/dcmitype/StillImage" /><dc:title></dc:title></cc:Work></rdf:RDF></metadata><path
     inkscape:connector-curvature="0"
     d="m 83.66875,32.80375 32.35625,15.1775 4.74,12.8925 -13.07375,4.7325 L 37.69375,33.1025 4.74,17.62625 0,4.7337504 13.07375,0 l 47.39,22.03125 23.205,10.7725"
     style="fill:#000000;fill-opacity:1;fill-rule:nonzero;stroke:none"
     id="path5835" /><path
     inkscape:connector-curvature="0"
     d="m 81.70875,33.61875 33.01,15.505 4.085,10.77125 L 107.855,63.97375 38.98875,32.0825 6.04625,16.4825 2.125,5.7125004 13.07375,1.63125 l 45.43,21.2175 23.205,10.77"
     style="fill:#fde012;fill-opacity:1;fill-rule:nonzero;stroke:none"
     id="path5837" /><path
     inkscape:connector-curvature="0"
     d="M 0,60.87375 4.74,47.98125 107.69125,0 120.765,4.7337504 116.025,17.62625 13.07375,65.60625 0,60.87375"
     style="fill:#000000;fill-opacity:1;fill-rule:nonzero;stroke:none"
     id="path5839" /><path
     inkscape:connector-curvature="0"
     d="M 107.855,1.63125 6.04625,49.12375 2.125,59.895 13.07375,63.97375 114.71875,16.4825 118.80375,5.7125004 107.855,1.63125"
     style="fill:#fde012;fill-opacity:1;fill-rule:nonzero;stroke:none"
     id="path5849" /><path
     inkscape:connector-curvature="0"
     d="m 35.46125,44.88 0.65375,-1.305 0,-1.46875 L 35.46125,40.8 34.3175,39.82125 32.8475,39.495 31.54,39.82125 l -4.08625,1.795 5.06625,10.77 1.63375,-0.815 -2.2875,-4.7325 L 33.8275,46.0225 37.75,49.77625 39.5475,48.96 35.46125,44.88 z m 9.64125,-4.56875 0.65375,-1.30625 0,-1.46875 -0.65375,-1.30625 -1.14375,-0.815 -1.30625,-0.49 -1.47125,0.32625 -3.9225,1.95875 4.9025,10.6075 1.635,-0.815 -2.125,-4.73375 1.96125,-0.815 3.92125,3.7525 1.79875,-0.815 -4.25,-4.08 z m 2.615,-5.2225 0.65375,2.12125 0.8175,1.9575 1.3075,1.95875 1.3075,0.81625 1.63375,0.48875 1.63375,-0.48875 1.3075,-0.97875 0.65375,-1.30625 0.16375,-1.63125 -0.98125,-3.265 -1.7975,-2.775 -1.3075,-0.9775 -1.63375,-0.3275 -1.63375,0.3275 -1.3075,0.9775 -0.65375,1.47 -0.16375,1.6325 z M 63.7325,27.255 62.425,28.56 61.445,28.07 60.30125,28.235 59.32,29.05 l -0.32625,0.97875 0.32625,2.1225 0.98125,1.795 1.30625,1.63125 1.145,0.49 1.14375,-0.1625 0.81625,-0.81625 0.16375,-1.1425 1.7975,-0.3275 -0.16375,1.6325 -0.6525,1.30625 -1.145,0.97875 -1.47,0.32625 -1.47125,-0.1625 -1.3075,-0.6525 -1.7975,-1.95875 -0.98,-2.44875 -0.49,-2.4475 0.32625,-1.46875 0.8175,-1.30625 1.14375,-0.815 1.47125,-0.3275 1.47,0.16375 1.3075,0.81625 z m 19.2825,-4.57 0.65375,-1.30625 0,-1.4675 L 83.015,18.605 82.035,17.62625 80.56375,17.3 l -1.47,0.32625 -3.9225,1.795 4.9025,10.77125 1.635,-0.81625 -2.125,-4.7325 1.96125,-0.81625 3.92125,3.75375 1.79875,-0.81625 -4.25,-4.08 z m 9.805,-4.405 0.65375,-1.47 0,-1.46875 L 92.82,14.03625 91.67625,13.21875 90.20625,12.73 88.735,13.05625 84.81375,15.015 89.715,25.6225 91.51375,24.80625 89.225,20.2375 l 1.96125,-0.98 3.9225,3.9175 1.7975,-0.81625 L 92.82,18.28 z m 5.88375,-9.7924996 1.63375,-0.8175 4.24875,8.9774996 4.9025,-2.1225 0.65375,1.6325 L 103.77,19.095 98.70375,8.4875004 z M 90.86,17.4625 91.35,16.97375 91.67625,16.1575 91.51375,15.505 91.0225,14.85125 90.36875,14.68875 89.5525,14.85125 87.265,15.83 88.40875,18.44125 90.86,17.4625 z M 94.455,10.445 96.2525,9.6287504 101.155,20.4 99.52,21.05375 94.455,10.445 z M 72.5575,27.9075 70.10625,25.46 l 0.32625,3.59 2.125,-1.1425 z m -4.57625,-5.05875 1.47125,-0.6525 8.66,8.8125 -1.7975,0.81625 -2.2875,-2.44875 -3.43125,1.46875 0.32625,3.59125 -1.63375,0.815 -1.3075,-12.4025 z M 33.5,44.06375 33.99125,43.575 l 0.32625,-0.65375 -0.16375,-0.6525 -0.49,-0.6525 L 33.01,41.29 l -0.81625,0.16375 -2.28875,1.1425 1.3075,2.61 2.2875,-1.1425 z m 9.6425,-4.40625 0.65375,-0.49 0.1625,-0.815 0,-0.6525 -0.49,-0.6525 -0.81625,-0.165 -0.65375,0 -2.45125,1.14375 1.30625,2.61125 2.28875,-0.98 z m 8.82375,0.16375 0.98125,0.6525 1.3075,-0.1625 0.98,-0.81625 0.16375,-1.1425 -0.8175,-2.775 -1.63375,-2.4475 -0.98125,-0.6525 -1.3075,0.1625 -0.81625,0.97875 -0.3275,1.1425 0.8175,2.775 1.63375,2.285 z m 29.08875,-17.9525 0.65375,-0.49 0.1625,-0.6525 0,-0.6525 -0.49,-0.6525 -0.8175,-0.16375 -0.6525,0 L 77.46,20.4 l 1.30625,2.61125 2.28875,-1.1425 z m -61.935,23.665 6.21,-2.775 0.65375,1.6325 -4.4125,2.12125 1.14375,2.61125 3.105,-1.46875 0.8175,1.6325 -3.105,1.46875 1.3075,3.1 4.9025,-2.285 0.81625,1.6325 L 24.0225,56.305 19.12,45.53375 z m -8.4975,3.91625 6.53625,-2.9375 0.8175,1.6325 -4.9025,2.28375 1.3075,2.61125 3.105,-1.46875 0.81625,1.6325 -3.2675,1.46875 2.2875,4.7325 -1.63375,0.81625 L 10.6225,49.45"
     style="fill:#000000;fill-opacity:1;fill-rule:evenodd;stroke:none"
     id="path5851" /></svg>