<?xml version="1.0" encoding="UTF-8" standalone="no"?>
<!-- Created with Inkscape (http://www.inkscape.org/) -->

<svg
   xmlns:dc="http://purl.org/dc/elements/1.1/"
   xmlns:cc="http://creativecommons.org/ns#"
   xmlns:rdf="http://www.w3.org/1999/02/22-rdf-syntax-ns#"
   xmlns:svg="http://www.w3.org/2000/svg"
   xmlns="http://www.w3.org/2000/svg"
   xmlns:sodipodi="http://sodipodi.sourceforge.net/DTD/sodipodi-0.dtd"
   xmlns:inkscape="http://www.inkscape.org/namespaces/inkscape"
   version="1.1"
   width="100.91"
   height="101.165"
   id="svg2"
   xml:space="preserve"
   inkscape:version="0.48.2 r9819"
   sodipodi:docname="AJAX1.svg"><sodipodi:namedview
     pagecolor="#ffffff"
     bordercolor="#666666"
     borderopacity="1"
     objecttolerance="10"
     gridtolerance="10"
     guidetolerance="10"
     inkscape:pageopacity="0"
     inkscape:pageshadow="2"
     inkscape:window-width="1280"
     inkscape:window-height="1004"
     id="namedview19"
     showgrid="false"
     inkscape:zoom="4.0569856"
     inkscape:cx="88.850065"
     inkscape:cy="43.502076"
     inkscape:window-x="-8"
     inkscape:window-y="-8"
     inkscape:window-maximized="1"
     inkscape:current-layer="svg2"
     fit-margin-top="0"
     fit-margin-left="0"
     fit-margin-right="0"
     fit-margin-bottom="0" /><defs
     id="defs20" /><metadata
     id="metadata8"><rdf:RDF><cc:Work
         rdf:about=""><dc:format>image/svg+xml</dc:format><dc:type
           rdf:resource="http://purl.org/dc/dcmitype/StillImage" /><dc:title></dc:title></cc:Work></rdf:RDF></metadata><path
     inkscape:connector-curvature="0"
     d="m 99.5475,54.10125 0.73375,-1.05 0.525,-1.15625 0.10375,-1.26 -0.10375,-1.26 -0.525,-1.26125 -0.73375,-1.05 L 53.9175,1.47125 52.9725,0.735 51.71375,0.21 50.455,0 49.19625,0.21 47.9375,0.735 46.99375,1.47125 1.46875,47.06375 0.63,48.11375 0.105,49.375 0,50.635 l 0.105,1.26 0.525,1.15625 0.83875,1.05 45.525,45.59375 0.94375,0.84 1.25875,0.525 1.25875,0.105 1.25875,-0.105 1.25875,-0.525 0.945,-0.84 45.63,-45.59375"
     style="fill:#fde012;fill-opacity:1;fill-rule:nonzero;stroke:none"
     id="path3025" /><path
     inkscape:connector-curvature="0"
     d="m 49.61625,97.0675 -45.525,-45.5925 -0.315,-0.525 0,-0.63 0.315,-0.63125 45.525,-45.59125 0.52375,-0.31625 0.63,0 0.525,0.31625 45.63,45.59125 0.31375,0.63125 0,0.63 -0.31375,0.525 -45.63,45.5925 -0.525,0.315 -0.63,0 -0.52375,-0.315 z m -1.78375,1.78625 0.945,0.735 1.15375,0.31625 1.15375,0 1.04875,-0.31625 0.94375,-0.735 45.525,-45.5925 0.735,-0.94625 0.31375,-1.15375 0,-1.15625 -0.31375,-1.05 -0.735,-0.94625 -45.525,-45.6975 -0.94375,-0.63 -1.04875,-0.315 -1.15375,0 -1.15375,0.315 -0.945,0.63 -45.525,45.6975 -0.73375,0.94625 -0.315,1.05 0,1.15625 0.315,1.15375 0.73375,0.94625 45.525,45.5925"
     style="fill:#000000;fill-opacity:1;fill-rule:evenodd;stroke:none"
     id="path3027" /><path
     inkscape:connector-curvature="0"
     d="m 27.37625,39.63 5.56,2.62625 -1.04875,2.73125 -0.63,2.73125 -0.21,2.94125 0.21,2.83625 0.63,2.73125 1.04875,2.7325 1.36375,2.52125 1.7825,2.205 2.09875,1.99625 2.3075,1.57625 -0.42,-0.42125 -0.105,-0.525 0.105,-0.63 0.42,-0.42 0.525,-0.315 0.62875,0.105 0.42,0.315 6.50375,7.66875 -10.91,2.31125 -0.62875,-0.105 -0.525,-0.42 -0.315,-0.52625 0.105,-0.735 0.42,-0.525 0.62875,-0.21 1.155,0.42 -2.8325,-1.68125 -2.5175,-2.1 -2.2025,-2.31125 L 28.95,64.5275 27.37625,61.69 26.1175,58.64375 25.27875,55.4925 l -0.42,-3.15125 0,-3.2575 0.42,-3.25625 0.83875,-3.15125 1.25875,-3.04625 z m 24.96625,36.4525 3.25125,-0.42 3.1475,-0.945 L 61.6775,73.45625 64.51,71.88 67.1325,69.885 69.44,67.57375 71.43375,65.0525 73.11125,62.215 74.37,59.16875 l 0.945,-3.04625 0.41875,-3.25625 0.105,-3.25625 0.21,1.155 0.525,0.42 0.62875,0.105 0.63,-0.21 0.41875,-0.525 0.105,-0.735 -0.315,-0.525 -7.4475,-8.3 -3.35625,9.35 0,0.63 0.21,0.525 0.52375,0.42 0.525,0.105 0.62875,-0.20875 0.42,-0.42125 0.105,-0.63 -0.21,2.94125 -0.62875,2.73125 -1.05,2.62625 L 66.29375,61.585 64.51,63.79125 62.4125,65.7875 60,67.3625 57.4825,68.62375 54.65,69.465 l -2.7275,0.42 0.42,6.1975 z M 71.32875,36.1625 66.29375,39.63 64.51,37.42375 62.4125,35.4275 60,33.8525 l -2.5175,-1.26125 -2.7275,-0.84 -2.8325,-0.42 -2.9375,0 -2.83125,0.42 -2.7275,0.84 -2.6225,1.155 0.62875,-0.105 0.63,0.105 0.41875,0.42 0.21,0.52625 -0.105,0.63 -0.31375,0.525 -0.63,0.21 -9.755,1.89125 3.46125,-10.61 0.315,-0.63 0.62875,-0.21 0.735,0 0.52375,0.42 0.21,0.63 -0.105,0.73625 -0.94375,0.73375 2.8325,-1.575 3.04125,-1.155 3.1475,-0.84125 3.25125,-0.315 3.2525,0 3.25125,0.42 3.1475,0.84 3.04125,1.26125 2.7275,1.68125 2.6225,1.99625 2.3075,2.205 1.99375,2.62625"
     style="fill:#000000;fill-opacity:1;fill-rule:evenodd;stroke:none"
     id="path3029" /></svg>