<?xml version="1.0" encoding="UTF-8" standalone="no"?>
<svg
   xmlns:dc="http://purl.org/dc/elements/1.1/"
   xmlns:cc="http://creativecommons.org/ns#"
   xmlns:rdf="http://www.w3.org/1999/02/22-rdf-syntax-ns#"
   xmlns:svg="http://www.w3.org/2000/svg"
   xmlns="http://www.w3.org/2000/svg"
   xmlns:sodipodi="http://sodipodi.sourceforge.net/DTD/sodipodi-0.dtd"
   xmlns:inkscape="http://www.inkscape.org/namespaces/inkscape"
   width="100.91125"
   height="101.16499"
   viewBox="0 0 284.79391 285.51012"
   version="1.1"
   id="svg2"
   inkscape:version="0.48.2 r9819"
   sodipodi:docname="Chile PO-10.svg">
  <metadata
     id="metadata62">
    <rdf:RDF>
      <cc:Work
         rdf:about="">
        <dc:format>image/svg+xml</dc:format>
        <dc:type
           rdf:resource="http://purl.org/dc/dcmitype/StillImage" />
        <dc:title></dc:title>
      </cc:Work>
    </rdf:RDF>
  </metadata>
  <defs
     id="defs60">
    <clipPath
       clipPathUnits="userSpaceOnUse"
       id="clipPath3564">
      <path
         inkscape:connector-curvature="0"
         d="m 63,43 512.622,0 0,313.129 L 63,356.129 63,43 z"
         id="path3566" />
    </clipPath>
    <clipPath
       clipPathUnits="userSpaceOnUse"
       id="clipPath8513">
      <path
         inkscape:connector-curvature="0"
         d="m 129.065,349.845 101.149,0 0,100.843 -101.149,0 0,-100.843 z"
         id="path8515" />
    </clipPath>
    <clipPath
       clipPathUnits="userSpaceOnUse"
       id="clipPath3571">
      <path
         inkscape:connector-curvature="0"
         d="m 68.296,412.876 222.853,0 0,112.641 -222.853,0 0,-112.641 z"
         id="path3573" />
    </clipPath>
  </defs>
  <sodipodi:namedview
     pagecolor="#ffffff"
     bordercolor="#666666"
     borderopacity="1"
     objecttolerance="10"
     gridtolerance="10"
     guidetolerance="10"
     inkscape:pageopacity="0"
     inkscape:pageshadow="2"
     inkscape:window-width="1280"
     inkscape:window-height="1004"
     id="namedview58"
     showgrid="false"
     fit-margin-top="0"
     fit-margin-left="0"
     fit-margin-right="0"
     fit-margin-bottom="0"
     inkscape:zoom="4"
     inkscape:cx="59.164448"
     inkscape:cy="48.875698"
     inkscape:window-x="-8"
     inkscape:window-y="-8"
     inkscape:window-maximized="1"
     inkscape:current-layer="g9005"
     showguides="true"
     inkscape:guide-bbox="true" />
  <polygon
     points="315,545 235,375 315,205 395,375 "
     id="polygon10"
     style="fill:none;stroke:#ffffff;stroke-width:40"
     transform="translate(30558.835,7603.7358)" />
  <!-- draw the bicycle -->
  <!-- RIGHT -->
  <!-- LANE -->
  <!-- ONLY -->
  <g
     id="g3150"
     transform="matrix(1.7365434,0,0,1.7359515,2143.9513,226.90172)">
    <g
       id="g3152"
       transform="translate(80.0605,75.1086)">
      <g
         id="g9005"
         transform="matrix(2.0314943,0,0,-2.032187,-69.465167,56.020032)">
        <path
           inkscape:connector-curvature="0"
           d="m -533.31172,85.56346 0.587,0.84 0.42,0.925 0.084,1.008 -0.084,1.008 -0.42,1.009 -0.587,0.841 -36.504,36.474 -0.756,0.588 -1.007,0.42 -1.007,0.168 -1.007,-0.168 -1.007,-0.42 -0.755,-0.588 -36.42,-36.474 -0.671,-0.841 -0.42,-1.009 -0.084,-1.008 0.084,-1.008 0.42,-0.925 0.671,-0.84 36.42,-36.473998 0.755,-0.673 1.007,-0.42 1.007,-0.084 1.007,0.084 1.007,0.42 0.756,0.673 36.504,36.473998"
           style="fill:#fde012;fill-opacity:1;fill-rule:nonzero;stroke:none"
           id="path15929" />
        <path
           inkscape:connector-curvature="0"
           d="m -573.25672,51.190462 -36.42,36.473998 -0.252,0.42 0,0.504 0.252,0.505 36.42,36.474 0.42,0.252 0.503,0 0.42,-0.252 36.504,-36.474 0.252,-0.505 0,-0.504 -0.252,-0.42 -36.504,-36.473998 -0.42,-0.252 -0.503,0 -0.42,0.252 z m -1.427,-1.429 0.756,-0.588 0.923,-0.252 0.923,0 0.839,0.252 0.755,0.588 36.42,36.473998 0.588,0.756 0.252,0.925 0,0.925 -0.252,0.84 -0.588,0.756 -36.42,36.558 -0.755,0.504 -0.839,0.252 -0.923,0 -0.923,-0.252 -0.756,-0.504 -36.42,-36.558 -0.587,-0.756 -0.252,-0.84 0,-0.925 0.252,-0.925 0.587,-0.756 36.42,-36.473998"
           style="fill:#000000;fill-opacity:1;fill-rule:evenodd;stroke:none"
           id="path15931" />
        <path
           inkscape:connector-curvature="0"
           d="m -580.95472,65.49146 16.616,0 0,45.551 -16.616,0 0,-45.551 z"
           style="fill:#000000;fill-opacity:1;fill-rule:nonzero;stroke:#231f20;stroke-width:0.168;stroke-linecap:round;stroke-linejoin:round;stroke-miterlimit:10;stroke-opacity:1;stroke-dasharray:none"
           id="path15933" />
        <path
           inkscape:connector-curvature="0"
           d="m -567.10772,73.89546 -0.168,1.176 -0.42,1.178 -0.671,1.092 -0.839,0.84 -1.091,0.672 -1.175,0.421 -1.175,0.168 -1.259,-0.168 -1.175,-0.421 -1.007,-0.672 -0.923,-0.84 -0.671,-1.092 -0.42,-1.178 -0.084,-1.176 0.084,-1.261 0.42,-1.176 0.671,-1.093 0.923,-0.84 1.007,-0.672 1.175,-0.42 1.259,-0.085 1.175,0.085 1.175,0.42 1.091,0.672 0.839,0.84 0.671,1.093 0.42,1.176 0.168,1.261 z"
           style="fill:#00a888;fill-opacity:1;fill-rule:evenodd;stroke:#231f20;stroke-width:0.168;stroke-linecap:round;stroke-linejoin:round;stroke-miterlimit:10;stroke-opacity:1;stroke-dasharray:none"
           id="path15935" />
        <path
           inkscape:connector-curvature="0"
           d="m -567.10772,102.72146 -0.168,1.261 -0.42,1.176 -0.671,1.009 -0.839,0.924 -1.091,0.673 -1.175,0.42 -1.175,0.084 -1.259,-0.084 -1.175,-0.42 -1.007,-0.673 -0.923,-0.924 -0.671,-1.009 -0.42,-1.176 -0.084,-1.261 0.084,-1.26 0.42,-1.177 0.671,-1.009 0.923,-0.924 1.007,-0.588 1.175,-0.421 1.259,-0.168 1.175,0.168 1.175,0.421 1.091,0.588 0.839,0.924 0.671,1.009 0.42,1.177 0.168,1.26 z"
           style="fill:#ef2c30;fill-opacity:1;fill-rule:evenodd;stroke:#231f20;stroke-width:0.168;stroke-linecap:round;stroke-linejoin:round;stroke-miterlimit:10;stroke-opacity:1;stroke-dasharray:none"
           id="path15937" />
        <path
           inkscape:connector-curvature="0"
           d="m -567.10772,88.26646 -0.168,1.261 -0.42,1.176 -0.671,1.093 -0.839,0.84 -1.091,0.673 -1.175,0.42 -1.175,0.084 -1.259,-0.084 -1.175,-0.42 -1.007,-0.673 -0.923,-0.84 -0.671,-1.093 -0.42,-1.176 -0.084,-1.261 0.084,-1.176 0.42,-1.177 0.671,-1.092 0.923,-0.841 1.007,-0.673 1.175,-0.42 1.259,-0.168 1.175,0.168 1.175,0.42 1.091,0.673 0.839,0.841 0.671,1.092 0.42,1.177 0.168,1.176 z"
           style="fill:#fde012;fill-opacity:1;fill-rule:evenodd;stroke:#231f20;stroke-width:0.168;stroke-linecap:round;stroke-linejoin:round;stroke-miterlimit:10;stroke-opacity:1;stroke-dasharray:none"
           id="path15939" />
      </g>
    </g>
  </g>
</svg>
