<?xml version="1.0" encoding="UTF-8" standalone="no"?>
<svg
   xmlns:dc="http://purl.org/dc/elements/1.1/"
   xmlns:cc="http://creativecommons.org/ns#"
   xmlns:rdf="http://www.w3.org/1999/02/22-rdf-syntax-ns#"
   xmlns:svg="http://www.w3.org/2000/svg"
   xmlns="http://www.w3.org/2000/svg"
   xmlns:sodipodi="http://sodipodi.sourceforge.net/DTD/sodipodi-0.dtd"
   xmlns:inkscape="http://www.inkscape.org/namespaces/inkscape"
   width="100.91125"
   height="101.015"
   viewBox="0 0 284.79395 285.08679"
   version="1.1"
   id="svg2"
   inkscape:version="0.48.2 r9819"
   sodipodi:docname="AJAX1.svg">
  <metadata
     id="metadata62">
    <rdf:RDF>
      <cc:Work
         rdf:about="">
        <dc:format>image/svg+xml</dc:format>
        <dc:type
           rdf:resource="http://purl.org/dc/dcmitype/StillImage" />
        <dc:title></dc:title>
      </cc:Work>
    </rdf:RDF>
  </metadata>
  <defs
     id="defs60">
    <clipPath
       clipPathUnits="userSpaceOnUse"
       id="clipPath3564">
      <path
         inkscape:connector-curvature="0"
         d="m 63,43 512.622,0 0,313.129 L 63,356.129 63,43 z"
         id="path3566" />
    </clipPath>
    <clipPath
       clipPathUnits="userSpaceOnUse"
       id="clipPath8513">
      <path
         inkscape:connector-curvature="0"
         d="m 129.065,349.845 101.149,0 0,100.843 -101.149,0 0,-100.843 z"
         id="path8515" />
    </clipPath>
    <clipPath
       clipPathUnits="userSpaceOnUse"
       id="clipPath3571">
      <path
         inkscape:connector-curvature="0"
         d="m 68.296,412.876 222.853,0 0,112.641 -222.853,0 0,-112.641 z"
         id="path3573" />
    </clipPath>
  </defs>
  <sodipodi:namedview
     pagecolor="#ffffff"
     bordercolor="#666666"
     borderopacity="1"
     objecttolerance="10"
     gridtolerance="10"
     guidetolerance="10"
     inkscape:pageopacity="0"
     inkscape:pageshadow="2"
     inkscape:window-width="1280"
     inkscape:window-height="1004"
     id="namedview58"
     showgrid="false"
     fit-margin-top="0"
     fit-margin-left="0"
     fit-margin-right="0"
     fit-margin-bottom="0"
     inkscape:zoom="4"
     inkscape:cx="77.572018"
     inkscape:cy="31.595749"
     inkscape:window-x="-8"
     inkscape:window-y="-8"
     inkscape:window-maximized="1"
     inkscape:current-layer="g9005"
     showguides="true"
     inkscape:guide-bbox="true" />
  <polygon
     points="315,205 395,375 315,545 235,375 "
     id="polygon10"
     style="fill:none;stroke:#ffffff;stroke-width:40"
     transform="translate(30404.129,7671.3774)" />
  <!-- draw the bicycle -->
  <!-- RIGHT -->
  <!-- LANE -->
  <!-- ONLY -->
  <g
     id="g3150"
     transform="matrix(1.7365434,0,0,1.7359515,1989.2441,294.5433)">
    <g
       id="g3152"
       transform="translate(80.0605,75.1086)">
      <g
         id="g9005"
         transform="matrix(2.0314943,0,0,-2.032187,-69.465167,56.020032)">
        <path
           inkscape:connector-curvature="0"
           d="m -489.45775,104.80045 0.587,0.84 0.42,0.923 0.084,1.007 -0.084,1.006 -0.42,1.007 -0.587,0.84 -36.504,36.42 -0.756,0.587 -1.007,0.42 -1.007,0.168 -1.007,-0.168 -1.007,-0.42 -0.755,-0.587 -36.42,-36.42 -0.671,-0.84 -0.42,-1.007 -0.084,-1.006 0.084,-1.007 0.42,-0.923 0.671,-0.84 36.42,-36.419995 0.755,-0.671 1.007,-0.42 1.007,-0.083 1.007,0.083 1.007,0.42 0.756,0.671 36.504,36.419995"
           style="fill:#fde012;fill-opacity:1;fill-rule:nonzero;stroke:none"
           id="path3097" />
        <path
           inkscape:connector-curvature="0"
           d="m -529.40275,70.478455 -36.42,36.419995 -0.252,0.42 0,0.503 0.252,0.504 36.42,36.42 0.42,0.251 0.503,0 0.42,-0.251 36.504,-36.42 0.252,-0.504 0,-0.503 -0.252,-0.42 -36.504,-36.419995 -0.42,-0.252 -0.503,0 -0.42,0.252 z m -1.427,-1.427 0.756,-0.587 0.923,-0.252 0.923,0 0.839,0.252 0.755,0.587 36.42,36.419995 0.588,0.756 0.252,0.923 0,0.923 -0.252,0.839 -0.588,0.755 -36.42,36.505 -0.755,0.503 -0.839,0.252 -0.923,0 -0.923,-0.252 -0.756,-0.503 -36.42,-36.505 -0.587,-0.755 -0.252,-0.839 0,-0.923 0.252,-0.923 0.587,-0.756 36.42,-36.419995"
           style="fill:#000000;fill-opacity:1;fill-rule:evenodd;stroke:none"
           id="path3099" />
        <path
           inkscape:connector-curvature="0"
           d="m -523.36075,97.719454 4.951,0 0,20.810996 1.678,0 0.671,0.084 0.588,0.336 0.335,0.587 0.168,0.588 -0.084,0.671 -0.335,0.588 -5.539,6.545 -5.538,-6.545 -0.336,-0.588 -0.084,-0.671 0.168,-0.588 0.419,-0.587 0.504,-0.336 0.671,-0.084 1.763,0 0,-20.810996"
           style="fill:#000000;fill-opacity:1;fill-rule:nonzero;stroke:none"
           id="path3101" />
        <path
           inkscape:connector-curvature="0"
           d="m -531.24975,93.859455 0.336,0.587 0.084,0.670999 -0.168,0.588 -0.336,0.503 -0.587,0.42 -0.587,0.084 -1.763,0 0,20.810996 -4.951,0 0,-20.810996 -1.762,0 -0.588,-0.084 -0.587,-0.42 -0.42,-0.503 -0.083,-0.588 0.083,-0.670999 0.252,-0.587 5.539,-6.63 5.538,6.63"
           style="fill:#000000;fill-opacity:1;fill-rule:nonzero;stroke:none"
           id="path3103" />
      </g>
    </g>
  </g>
</svg>
