<?xml version="1.0" encoding="UTF-8" standalone="no"?>
<svg
   xmlns:dc="http://purl.org/dc/elements/1.1/"
   xmlns:cc="http://creativecommons.org/ns#"
   xmlns:rdf="http://www.w3.org/1999/02/22-rdf-syntax-ns#"
   xmlns:svg="http://www.w3.org/2000/svg"
   xmlns="http://www.w3.org/2000/svg"
   xmlns:sodipodi="http://sodipodi.sourceforge.net/DTD/sodipodi-0.dtd"
   xmlns:inkscape="http://www.inkscape.org/namespaces/inkscape"
   width="101.0475"
   height="101.165"
   viewBox="0 0 285.17845 285.51014"
   version="1.1"
   id="svg2"
   inkscape:version="0.48.2 r9819"
   sodipodi:docname="Chile PO-11.svg">
  <metadata
     id="metadata62">
    <rdf:RDF>
      <cc:Work
         rdf:about="">
        <dc:format>image/svg+xml</dc:format>
        <dc:type
           rdf:resource="http://purl.org/dc/dcmitype/StillImage" />
        <dc:title></dc:title>
      </cc:Work>
    </rdf:RDF>
  </metadata>
  <defs
     id="defs60">
    <clipPath
       clipPathUnits="userSpaceOnUse"
       id="clipPath3564">
      <path
         inkscape:connector-curvature="0"
         d="m 63,43 512.622,0 0,313.129 L 63,356.129 63,43 z"
         id="path3566" />
    </clipPath>
    <clipPath
       clipPathUnits="userSpaceOnUse"
       id="clipPath8513">
      <path
         inkscape:connector-curvature="0"
         d="m 129.065,349.845 101.149,0 0,100.843 -101.149,0 0,-100.843 z"
         id="path8515" />
    </clipPath>
    <clipPath
       clipPathUnits="userSpaceOnUse"
       id="clipPath3571">
      <path
         inkscape:connector-curvature="0"
         d="m 68.296,412.876 222.853,0 0,112.641 -222.853,0 0,-112.641 z"
         id="path3573" />
    </clipPath>
  </defs>
  <sodipodi:namedview
     pagecolor="#ffffff"
     bordercolor="#666666"
     borderopacity="1"
     objecttolerance="10"
     gridtolerance="10"
     guidetolerance="10"
     inkscape:pageopacity="0"
     inkscape:pageshadow="2"
     inkscape:window-width="1280"
     inkscape:window-height="1004"
     id="namedview58"
     showgrid="false"
     fit-margin-top="0"
     fit-margin-left="0"
     fit-margin-right="0"
     fit-margin-bottom="0"
     inkscape:zoom="4"
     inkscape:cx="83.438188"
     inkscape:cy="53.70819"
     inkscape:window-x="-8"
     inkscape:window-y="-8"
     inkscape:window-maximized="1"
     inkscape:current-layer="g9005"
     showguides="true"
     inkscape:guide-bbox="true" />
  <polygon
     points="315,545 235,375 315,205 395,375 "
     id="polygon10"
     style="fill:none;stroke:#ffffff;stroke-width:40"
     transform="translate(30627.341,7590.0974)" />
  <!-- draw the bicycle -->
  <!-- RIGHT -->
  <!-- LANE -->
  <!-- ONLY -->
  <g
     id="g3150"
     transform="matrix(1.7365434,0,0,1.7359515,2212.4572,213.26336)">
    <g
       id="g3152"
       transform="translate(80.0605,75.1086)">
      <g
         id="g9005"
         transform="matrix(2.0314943,0,0,-2.032187,-69.465167,56.020032)">
        <path
           inkscape:connector-curvature="0"
           d="m -552.62372,81.697469 0.589,0.84 0.42,0.925 0.084,1.008 -0.084,1.009 -0.42,1.008 -0.589,0.84 -36.553,36.474001 -0.757,0.589 -1.008,0.42 -1.008,0.168 -1.009,-0.168 -1.008,-0.42 -0.756,-0.589 -36.47,-36.474001 -0.672,-0.84 -0.42,-1.008 -0.084,-1.009 0.084,-1.008 0.42,-0.925 0.672,-0.84 36.47,-36.474 0.756,-0.672 1.008,-0.421 1.009,-0.084 1.008,0.084 1.008,0.421 0.757,0.672 36.553,36.474"
           style="fill:#fde012;fill-opacity:1;fill-rule:nonzero;stroke:none"
           id="path16674" />
        <path
           inkscape:connector-curvature="0"
           d="m -592.62272,47.324469 -36.469,36.474 -0.252,0.42 0,0.504 0.252,0.504 36.469,36.474001 0.421,0.253 0.504,0 0.42,-0.253 36.553,-36.474001 0.253,-0.504 0,-0.504 -0.253,-0.42 -36.553,-36.474 -0.42,-0.252 -0.504,0 -0.421,0.252 z m -1.428,-1.429 0.756,-0.588 0.925,-0.252 0.924,0 0.84,0.252 0.756,0.588 36.47,36.474 0.588,0.756 0.252,0.925 0,0.924 -0.252,0.841 -0.588,0.756 -36.47,36.558001 -0.756,0.504 -0.84,0.253 -0.924,0 -0.925,-0.253 -0.756,-0.504 -36.47,-36.558001 -0.588,-0.756 -0.252,-0.841 0,-0.924 0.252,-0.925 0.588,-0.756 36.47,-36.474"
           style="fill:#000000;fill-opacity:1;fill-rule:evenodd;stroke:none"
           id="path16676" />
        <path
           inkscape:connector-curvature="0"
           d="m -592.94372,55.863469 0.336,-0.336 0.588,-0.168 0.504,0.168 0.42,0.336 19.916,34.457 0.168,0.504 -0.168,0.588 -0.42,0.337 -0.505,0.168 -39.83,0 -0.589,-0.168 -0.42,-0.337 -0.084,-0.588 0.084,-0.504 20,-34.457"
           style="fill:#ef2c30;fill-opacity:1;fill-rule:nonzero;stroke:none"
           id="path16678" />
        <path
           inkscape:connector-curvature="0"
           d="m -592.69172,64.099469 0.252,-0.252 0.42,-0.084 0.336,0.084 0.336,0.252 12.857,22.271 0.168,0.42 -0.168,0.42 -0.252,0.252 -0.336,0.085 -25.882,0 -0.42,-0.085 -0.252,-0.252 -0.084,-0.42 0.084,-0.42 12.941,-22.271"
           style="fill:#ffffff;fill-opacity:1;fill-rule:nonzero;stroke:none"
           id="path16680" />
        <path
           inkscape:connector-curvature="0"
           d="m -599.16272,105.28047 -0.168,-0.421 0.084,-0.42 0.252,-0.252 0.421,-0.084 2.52,0 0,-4.035 8.067,0 0,4.035 2.521,0 0.337,0.084 0.336,0.252 0.084,0.42 -0.168,0.421 -7.143,9.496 -7.143,-9.496"
           style="fill:#000000;fill-opacity:1;fill-rule:nonzero;stroke:none"
           id="path16682" />
      </g>
    </g>
  </g>
</svg>
