<?xml version="1.0" encoding="UTF-8" standalone="no"?>
<svg
   xmlns:dc="http://purl.org/dc/elements/1.1/"
   xmlns:cc="http://creativecommons.org/ns#"
   xmlns:rdf="http://www.w3.org/1999/02/22-rdf-syntax-ns#"
   xmlns:svg="http://www.w3.org/2000/svg"
   xmlns="http://www.w3.org/2000/svg"
   xmlns:sodipodi="http://sodipodi.sourceforge.net/DTD/sodipodi-0.dtd"
   xmlns:inkscape="http://www.inkscape.org/namespaces/inkscape"
   width="100.91"
   height="101.015"
   viewBox="0 0 284.79036 285.0868"
   version="1.1"
   id="svg2"
   inkscape:version="0.48.2 r9819"
   sodipodi:docname="Chile PO-12.svg">
  <metadata
     id="metadata62">
    <rdf:RDF>
      <cc:Work
         rdf:about="">
        <dc:format>image/svg+xml</dc:format>
        <dc:type
           rdf:resource="http://purl.org/dc/dcmitype/StillImage" />
        <dc:title></dc:title>
      </cc:Work>
    </rdf:RDF>
  </metadata>
  <defs
     id="defs60">
    <clipPath
       clipPathUnits="userSpaceOnUse"
       id="clipPath3564">
      <path
         inkscape:connector-curvature="0"
         d="m 63,43 512.622,0 0,313.129 L 63,356.129 63,43 z"
         id="path3566" />
    </clipPath>
    <clipPath
       clipPathUnits="userSpaceOnUse"
       id="clipPath8513">
      <path
         inkscape:connector-curvature="0"
         d="m 129.065,349.845 101.149,0 0,100.843 -101.149,0 0,-100.843 z"
         id="path8515" />
    </clipPath>
    <clipPath
       clipPathUnits="userSpaceOnUse"
       id="clipPath3571">
      <path
         inkscape:connector-curvature="0"
         d="m 68.296,412.876 222.853,0 0,112.641 -222.853,0 0,-112.641 z"
         id="path3573" />
    </clipPath>
  </defs>
  <sodipodi:namedview
     pagecolor="#ffffff"
     bordercolor="#666666"
     borderopacity="1"
     objecttolerance="10"
     gridtolerance="10"
     guidetolerance="10"
     inkscape:pageopacity="0"
     inkscape:pageshadow="2"
     inkscape:window-width="1280"
     inkscape:window-height="1004"
     id="namedview58"
     showgrid="false"
     fit-margin-top="0"
     fit-margin-left="0"
     fit-margin-right="0"
     fit-margin-bottom="0"
     inkscape:zoom="4"
     inkscape:cx="90.393196"
     inkscape:cy="33.96569"
     inkscape:window-x="-8"
     inkscape:window-y="-8"
     inkscape:window-maximized="1"
     inkscape:current-layer="g9005"
     showguides="true"
     inkscape:guide-bbox="true" />
  <polygon
     points="315,205 395,375 315,545 235,375 "
     id="polygon10"
     style="fill:none;stroke:#ffffff;stroke-width:40"
     transform="translate(30646.97,7645.3918)" />
  <!-- draw the bicycle -->
  <!-- RIGHT -->
  <!-- LANE -->
  <!-- ONLY -->
  <g
     id="g3150"
     transform="matrix(1.7365434,0,0,1.7359515,2232.0857,268.55775)">
    <g
       id="g3152"
       transform="translate(80.0605,75.1086)">
      <g
         id="g9005"
         transform="matrix(2.0314943,0,0,-2.032187,-69.465167,56.020032)">
        <path
           inkscape:connector-curvature="0"
           d="m -558.29572,97.43447 0.588,0.84 0.419,0.923 0.084,1.007 -0.084,1.006 -0.419,1.008 -0.588,0.839 -36.504,36.42 -0.755,0.587 -1.007,0.42 -1.007,0.168 -1.007,-0.168 -1.007,-0.42 -0.755,-0.587 -36.42,-36.42 -0.672,-0.839 -0.419,-1.008 -0.084,-1.006 0.084,-1.007 0.419,-0.923 0.672,-0.84 36.42,-36.420001 0.755,-0.671 1.007,-0.42 1.007,-0.083 1.007,0.083 1.007,0.42 0.755,0.671 36.504,36.420001"
           style="fill:#fde012;fill-opacity:1;fill-rule:nonzero;stroke:none"
           id="path17609" />
        <path
           inkscape:connector-curvature="0"
           d="m -598.23972,63.112469 -36.421,36.420001 -0.251,0.42 0,0.504 0.251,0.503 36.421,36.42 0.419,0.251 0.504,0 0.419,-0.251 36.504,-36.42 0.252,-0.503 0,-0.504 -0.252,-0.42 -36.504,-36.420001 -0.419,-0.251 -0.504,0 -0.419,0.251 z m -1.427,-1.427 0.755,-0.587 0.923,-0.252 0.923,0 0.84,0.252 0.755,0.587 36.42,36.420001 0.587,0.756 0.252,0.923 0,0.923 -0.252,0.839 -0.587,0.756 -36.42,36.504 -0.755,0.503 -0.84,0.252 -0.923,0 -0.923,-0.252 -0.755,-0.503 -36.42,-36.504 -0.588,-0.756 -0.251,-0.839 0,-0.923 0.251,-0.923 0.588,-0.756 36.42,-36.420001"
           style="fill:#000000;fill-opacity:1;fill-rule:evenodd;stroke:none"
           id="path17611" />
        <path
           inkscape:connector-curvature="0"
           d="m -604.36472,76.63847 -9.567,9.566 0,13.511 9.567,9.65 13.51,0 9.567,-9.65 0,-13.511 -9.567,-9.566 -13.51,0"
           style="fill:#ffffff;fill-opacity:1;fill-rule:evenodd;stroke:none"
           id="path17613" />
        <path
           inkscape:connector-curvature="0"
           d="m -603.94572,77.72847 -8.895,8.98 0,12.587 8.895,8.98 12.672,0 8.895,-8.98 0,-12.587 -8.895,-8.98 -12.672,0"
           style="fill:#ef2c30;fill-opacity:1;fill-rule:evenodd;stroke:none"
           id="path17615" />
        <path
           inkscape:connector-curvature="0"
           d="m -597.65172,130.51347 -7.049,-9.483 -0.168,-0.42 0.084,-0.419 0.336,-0.336 0.419,-0.084 2.434,0 0,-4.028 7.972,0 0,4.028 2.434,0 0.419,0.084 0.336,0.336 0.084,0.419 -0.168,0.42 -7.133,9.483"
           style="fill:#000000;fill-opacity:1;fill-rule:nonzero;stroke:none"
           id="path17617" />
        <path
           inkscape:connector-curvature="0"
           d="m -592.70072,92.66647 0.755,0.671 0.42,0.923 0,1.007 -0.42,0.924 -0.755,0.671 -1.007,0.252 -3.105,0 0,-8.224 1.259,0 0,3.608 1.51,0 1.427,-3.608 1.343,0 -1.427,3.776 z m -14.266,-0.168 0.923,0.168 0.672,0.503 0.503,0.756 0.168,0.839 -0.168,0.923 -0.419,0.671 -0.756,0.504 -0.923,0.252 -3.189,0 0,-8.224 1.259,0 0,3.608 1.93,0 z m 16.952,4.616 4.783,0 0,-1.343 -3.525,0 0,-2.014 2.434,0 0,-1.259 -2.434,0 0,-2.35 3.777,0 0,-1.258 -5.035,0 0,8.224 z m -11.833,0 1.175,0 2.853,-8.224 -1.342,0 -0.84,2.265 -2.517,0 -0.755,-2.265 -1.427,0 2.853,8.224 z m 1.427,-4.616 -0.839,2.35 -0.84,-2.35 1.679,0 z m -6.546,1.259 0.504,0.168 0.419,0.335 0.084,0.504 -0.084,0.503 -0.419,0.42 -0.504,0.084 -1.93,0 0,-2.014 1.93,0 z m 13.259,0 0.504,0.168 0.335,0.335 0.168,0.504 -0.168,0.503 -0.335,0.42 -0.504,0.084 -1.846,0 0,-2.014 1.846,0"
           style="fill:#ffffff;fill-opacity:1;fill-rule:evenodd;stroke:none"
           id="path17619" />
      </g>
    </g>
  </g>
</svg>
