<?xml version="1.0" encoding="UTF-8" standalone="no"?>
<svg
   xmlns:dc="http://purl.org/dc/elements/1.1/"
   xmlns:cc="http://creativecommons.org/ns#"
   xmlns:rdf="http://www.w3.org/1999/02/22-rdf-syntax-ns#"
   xmlns:svg="http://www.w3.org/2000/svg"
   xmlns="http://www.w3.org/2000/svg"
   xmlns:sodipodi="http://sodipodi.sourceforge.net/DTD/sodipodi-0.dtd"
   xmlns:inkscape="http://www.inkscape.org/namespaces/inkscape"
   width="100.91125"
   height="101.16499"
   viewBox="0 0 284.79397 285.51011"
   version="1.1"
   id="svg2"
   inkscape:version="0.48.2 r9819"
   sodipodi:docname="Chile PO-1.svg">
  <metadata
     id="metadata62">
    <rdf:RDF>
      <cc:Work
         rdf:about="">
        <dc:format>image/svg+xml</dc:format>
        <dc:type
           rdf:resource="http://purl.org/dc/dcmitype/StillImage" />
        <dc:title></dc:title>
      </cc:Work>
    </rdf:RDF>
  </metadata>
  <defs
     id="defs60">
    <clipPath
       clipPathUnits="userSpaceOnUse"
       id="clipPath3564">
      <path
         inkscape:connector-curvature="0"
         d="m 63,43 512.622,0 0,313.129 L 63,356.129 63,43 z"
         id="path3566" />
    </clipPath>
    <clipPath
       clipPathUnits="userSpaceOnUse"
       id="clipPath8513">
      <path
         inkscape:connector-curvature="0"
         d="m 129.065,349.845 101.149,0 0,100.843 -101.149,0 0,-100.843 z"
         id="path8515" />
    </clipPath>
    <clipPath
       clipPathUnits="userSpaceOnUse"
       id="clipPath3571">
      <path
         inkscape:connector-curvature="0"
         d="m 68.296,412.876 222.853,0 0,112.641 -222.853,0 0,-112.641 z"
         id="path3573" />
    </clipPath>
  </defs>
  <sodipodi:namedview
     pagecolor="#ffffff"
     bordercolor="#666666"
     borderopacity="1"
     objecttolerance="10"
     gridtolerance="10"
     guidetolerance="10"
     inkscape:pageopacity="0"
     inkscape:pageshadow="2"
     inkscape:window-width="1280"
     inkscape:window-height="1004"
     id="namedview58"
     showgrid="false"
     fit-margin-top="0"
     fit-margin-left="0"
     fit-margin-right="0"
     fit-margin-bottom="0"
     inkscape:zoom="4"
     inkscape:cx="68.277643"
     inkscape:cy="70.678248"
     inkscape:window-x="-8"
     inkscape:window-y="-8"
     inkscape:window-maximized="1"
     inkscape:current-layer="g9005"
     showguides="true"
     inkscape:guide-bbox="true" />
  <polygon
     points="235,375 315,205 395,375 315,545 "
     id="polygon10"
     style="fill:none;stroke:#ffffff;stroke-width:40"
     transform="translate(30377.898,7561.5012)" />
  <!-- draw the bicycle -->
  <!-- RIGHT -->
  <!-- LANE -->
  <!-- ONLY -->
  <g
     id="g3150"
     transform="matrix(1.7365434,0,0,1.7359515,1963.0133,184.66712)">
    <g
       id="g3152"
       transform="translate(80.0605,75.1086)">
      <g
         id="g9005"
         transform="matrix(2.0314943,0,0,-2.032187,-69.465167,56.020032)">
        <path
           inkscape:connector-curvature="0"
           d="m -482.02222,73.591452 0.587,0.84 0.42,0.924 0.084,1.009 -0.084,1.008 -0.42,1.009 -0.587,0.841 -36.504,36.473998 -0.755,0.588 -1.007,0.42 -1.007,0.168 -1.008,-0.168 -1.006,-0.42 -0.756,-0.588 -36.42,-36.473998 -0.671,-0.841 -0.42,-1.009 -0.084,-1.008 0.084,-1.009 0.42,-0.924 0.671,-0.84 36.42,-36.473996 0.756,-0.673 1.006,-0.42 1.008,-0.084 1.007,0.084 1.007,0.42 0.755,0.673 36.504,36.473996"
           style="fill:#fde012;fill-opacity:1;fill-rule:nonzero;stroke:none"
           id="path4378" />
        <path
           inkscape:connector-curvature="0"
           d="m -521.96722,39.218456 -36.42,36.472996 -0.252,0.421 0,0.504 0.252,0.504 36.42,36.474998 0.42,0.251 0.503,0 0.42,-0.251 36.504,-36.474998 0.252,-0.504 0,-0.504 -0.252,-0.421 -36.504,-36.472996 -0.42,-0.253 -0.503,0 -0.42,0.253 z m -1.426,-1.429 0.755,-0.588 0.923,-0.253 0.923,0 0.839,0.253 0.755,0.588 36.421,36.473996 0.587,0.756 0.252,0.925 0,0.924 -0.252,0.841 -0.587,0.756 -36.421,36.557998 -0.755,0.504 -0.839,0.252 -0.923,0 -0.923,-0.252 -0.755,-0.504 -36.42,-36.557998 -0.588,-0.756 -0.252,-0.841 0,-0.924 0.252,-0.925 0.588,-0.756 36.42,-36.473996"
           style="fill:#000000;fill-opacity:1;fill-rule:evenodd;stroke:none"
           id="path4380" />
        <path
           inkscape:connector-curvature="0"
           d="m -520.93022,78.207452 -0.923,0 -4.448,7.732 9.818,0 -4.447,-7.732 z m 6.797,4.623 -1.511,2.689 -4.447,-7.732 0.419,-0.672 0.168,-0.673 -0.084,-0.756 -0.419,-0.672 -0.672,-0.421 -0.755,-0.084 -0.671,0.084 -0.672,0.421 -0.419,0.672 -0.084,0.756 0.168,0.673 0.419,0.672 -4.447,7.732 -1.511,-2.689 1.175,-1.009 0.923,-1.177 0.755,-1.344 0.42,-1.429 0.168,-1.513 -0.168,-1.513 -0.42,-1.428 -0.755,-1.345 -0.923,-1.176 -1.175,-0.925 -1.342,-0.672 -1.511,-0.421 -1.51,-0.083 -1.511,0.168 -1.427,0.42 -1.258,0.756 -1.175,1.008 -0.923,1.177 -0.672,1.429 -0.419,1.428 -0.084,1.513 0.252,1.513 0.503,1.429 0.755,1.26 1.007,1.177 1.259,0.924 1.343,0.589 1.426,0.336 1.511,0.084 1.51,-0.252 1.427,-0.504 1.846,3.193 -1.93,3.362 0,0.924 5.79,0 0,-0.924 -4.699,0 1.678,-2.942 10.826,0 0.587,1.009 -2.182,0 0,0.924 5.707,1.009 0,-1.933 -2.434,0 -0.839,-1.429 1.846,-3.193 1.427,0.504 1.51,0.252 1.511,-0.084 1.426,-0.336 1.343,-0.589 1.259,-0.924 1.007,-1.177 0.755,-1.26 0.503,-1.429 0.252,-1.513 -0.084,-1.513 -0.419,-1.428 -0.672,-1.429 -0.923,-1.177 -1.175,-1.008 -1.258,-0.756 -1.427,-0.42 -1.51,-0.168 -1.511,0.083 -1.51,0.421 -1.343,0.672 -1.175,0.925 -0.923,1.176 -0.755,1.345 -0.42,1.428 -0.168,1.513 0.168,1.513 0.42,1.429 0.671,1.344 1.007,1.177 1.175,1.009 z m -18.714,-5.463 -0.503,-0.168 -0.336,-0.337 -0.084,-0.504 0.084,-0.42 0.336,-0.336 0.503,-0.168 0.504,0.168 0.336,0.336 0.167,0.504 -0.167,0.42 2.853,5.127 1.175,-1.009 0.923,-1.261 0.587,-1.344 0.252,-1.513 0,-1.512 -0.42,-1.429 -0.755,-1.345 -1.007,-1.176 -1.175,-0.84 -1.426,-0.589 -1.511,-0.252 -1.51,0.084 -1.427,0.421 -1.343,0.756 -1.091,1.008 -0.839,1.261 -0.587,1.429 -0.168,1.512 0.084,1.513 0.503,1.429 0.756,1.344 1.007,1.093 1.342,0.84 1.427,0.504 1.426,0.168 1.511,-0.168 1.427,-0.504 -2.854,-5.042 z m 22.91,0 -2.937,5.042 1.51,0.504 1.427,0.168 1.51,-0.168 1.427,-0.504 1.259,-0.84 1.091,-1.093 0.755,-1.344 0.503,-1.429 0.084,-1.513 -0.168,-1.512 -0.587,-1.429 -0.839,-1.261 -1.091,-1.008 -1.343,-0.756 -1.426,-0.421 -1.511,-0.084 -1.51,0.252 -1.427,0.589 -1.175,0.84 -1.007,1.176 -0.755,1.345 -0.42,1.429 -0.084,1.512 0.336,1.513 0.588,1.344 0.923,1.261 1.174,1.009 2.854,-5.127 -0.168,-0.42 0.168,-0.504 0.335,-0.336 0.504,-0.168 0.419,0.168 0.42,0.336 0.084,0.42 -0.084,0.504 -0.42,0.337 -0.419,0.168"
           style="fill:#000000;fill-opacity:1;fill-rule:evenodd;stroke:none"
           id="path4382" />
      </g>
    </g>
  </g>
</svg>
