<?xml version="1.0" encoding="UTF-8" standalone="no"?>
<svg
   xmlns:dc="http://purl.org/dc/elements/1.1/"
   xmlns:cc="http://creativecommons.org/ns#"
   xmlns:rdf="http://www.w3.org/1999/02/22-rdf-syntax-ns#"
   xmlns:svg="http://www.w3.org/2000/svg"
   xmlns="http://www.w3.org/2000/svg"
   xmlns:sodipodi="http://sodipodi.sourceforge.net/DTD/sodipodi-0.dtd"
   xmlns:inkscape="http://www.inkscape.org/namespaces/inkscape"
   width="100.91"
   height="101.01501"
   viewBox="0 0 284.79042 285.08682"
   version="1.1"
   id="svg2"
   inkscape:version="0.48.2 r9819"
   sodipodi:docname="Chile PO-2.svg">
  <metadata
     id="metadata62">
    <rdf:RDF>
      <cc:Work
         rdf:about="">
        <dc:format>image/svg+xml</dc:format>
        <dc:type
           rdf:resource="http://purl.org/dc/dcmitype/StillImage" />
        <dc:title></dc:title>
      </cc:Work>
    </rdf:RDF>
  </metadata>
  <defs
     id="defs60">
    <clipPath
       clipPathUnits="userSpaceOnUse"
       id="clipPath3564">
      <path
         inkscape:connector-curvature="0"
         d="m 63,43 512.622,0 0,313.129 L 63,356.129 63,43 z"
         id="path3566" />
    </clipPath>
    <clipPath
       clipPathUnits="userSpaceOnUse"
       id="clipPath8513">
      <path
         inkscape:connector-curvature="0"
         d="m 129.065,349.845 101.149,0 0,100.843 -101.149,0 0,-100.843 z"
         id="path8515" />
    </clipPath>
    <clipPath
       clipPathUnits="userSpaceOnUse"
       id="clipPath3571">
      <path
         inkscape:connector-curvature="0"
         d="m 68.296,412.876 222.853,0 0,112.641 -222.853,0 0,-112.641 z"
         id="path3573" />
    </clipPath>
  </defs>
  <sodipodi:namedview
     pagecolor="#ffffff"
     bordercolor="#666666"
     borderopacity="1"
     objecttolerance="10"
     gridtolerance="10"
     guidetolerance="10"
     inkscape:pageopacity="0"
     inkscape:pageshadow="2"
     inkscape:window-width="1280"
     inkscape:window-height="1004"
     id="namedview58"
     showgrid="false"
     fit-margin-top="0"
     fit-margin-left="0"
     fit-margin-right="0"
     fit-margin-bottom="0"
     inkscape:zoom="4"
     inkscape:cx="54.507569"
     inkscape:cy="42.598167"
     inkscape:window-x="-8"
     inkscape:window-y="-8"
     inkscape:window-maximized="1"
     inkscape:current-layer="g9005"
     showguides="true"
     inkscape:guide-bbox="true" />
  <polygon
     points="235,375 315,205 395,375 315,545 "
     id="polygon10"
     style="fill:none;stroke:#ffffff;stroke-width:40"
     transform="translate(30545.693,7621.029)" />
  <!-- draw the bicycle -->
  <!-- RIGHT -->
  <!-- LANE -->
  <!-- ONLY -->
  <g
     id="g3150"
     transform="matrix(1.7365434,0,0,1.7359515,2130.8085,244.19488)">
    <g
       id="g3152"
       transform="translate(80.0605,75.1086)">
      <g
         id="g9005"
         transform="matrix(2.0314943,0,0,-2.032187,-69.465167,56.020032)">
        <path
           inkscape:connector-curvature="0"
           d="m -529.58722,90.529456 0.588,0.839 0.419,0.923 0.084,1.007 -0.084,1.007 -0.419,1.007 -0.588,0.839 -36.504,36.421004 -0.755,0.587 -1.007,0.42 -1.007,0.167 -1.007,-0.167 -1.007,-0.42 -0.755,-0.587 -36.42,-36.421004 -0.672,-0.839 -0.419,-1.007 -0.084,-1.007 0.084,-1.007 0.419,-0.923 0.672,-0.839 36.42,-36.42 0.755,-0.671 1.007,-0.42 1.007,-0.084 1.007,0.084 1.007,0.42 0.755,0.671 36.504,36.42"
           style="fill:#fde012;fill-opacity:1;fill-rule:nonzero;stroke:none"
           id="path5627" />
        <path
           inkscape:connector-curvature="0"
           d="m -569.53122,56.207456 -36.421,36.42 -0.251,0.419 0,0.504 0.251,0.504 36.421,36.420004 0.419,0.252 0.504,0 0.419,-0.252 36.504,-36.420004 0.252,-0.504 0,-0.504 -0.252,-0.419 -36.504,-36.42 -0.419,-0.252 -0.504,0 -0.419,0.252 z m -1.427,-1.427 0.755,-0.587 0.923,-0.252 0.923,0 0.84,0.252 0.755,0.587 36.42,36.42 0.587,0.755 0.252,0.924 0,0.923 -0.252,0.839 -0.587,0.755 -36.42,36.504004 -0.755,0.504 -0.84,0.252 -0.923,0 -0.923,-0.252 -0.755,-0.504 -36.42,-36.504004 -0.588,-0.755 -0.251,-0.839 0,-0.923 0.251,-0.924 0.588,-0.755 36.42,-36.42"
           style="fill:#000000;fill-opacity:1;fill-rule:evenodd;stroke:none"
           id="path5629" />
        <path
           inkscape:connector-curvature="0"
           d="m -556.83622,107.90946 -0.168,0.755 -0.419,0.588 -0.672,0.503 -0.755,0.084 -0.755,-0.084 -0.671,-0.503 -0.42,-0.588 -0.084,-0.755 0.084,-0.755 0.42,-0.672 0.671,-0.419 0.755,-0.168 0.755,0.168 0.672,0.419 0.419,0.672 0.168,0.755"
           style="fill:#000000;fill-opacity:1;fill-rule:evenodd;stroke:none"
           id="path5631" />
        <path
           inkscape:connector-curvature="0"
           d="m -587.54922,102.53846 17.79,0 0.168,-0.671 1.93,1.091 -0.755,1.342 0.671,0.42 1.93,-3.441 -0.671,-0.419 -0.755,1.427 -2.182,-1.259 1.678,-7.637004 -13.343,0 -1.51,0.252 -1.511,-0.252 -1.51,0 -1.93,9.147004 z m 10.07,-11.916004 -0.84,1.091 -1.007,0.923 14.77,0 -0.252,-2.014 -12.671,0 z m 13.175,2.769 -2.014,0 1.51,7.133004 4.028,0 0,4.364 3.944,0 0,-4.364 1.763,0 1.678,-0.335 1.678,-0.588005 1.511,-0.839 1.342,-1.090999 -0.671,-0.755 -1.427,1.175 -1.594,0.838999 -1.762,0.503 -1.846,0.084 -1.763,-0.251 -1.762,-0.588 -1.51,-0.922999 -1.343,-1.175 -1.091,-1.51 -0.671,-1.679 z m 0.755,3.525 0.336,1.678 1.426,0 -1.762,-1.678 z m 15.608,-6.294 -0.167,1.594 -0.42,1.427 -0.755,1.427 -1.007,1.174 -1.175,1.007 -1.343,0.672 -1.51,0.503 -1.511,0.168 -1.594,-0.168 -1.511,-0.503 -1.342,-0.672 -1.175,-1.007 -1.007,-1.174 -0.755,-1.427 -0.42,-1.427 -0.168,-1.594 0.168,-1.511 0.42,-1.51 0.755,-1.343 1.007,-1.258 1.175,-0.923 1.342,-0.756 1.511,-0.42 1.594,-0.167 1.511,0.167 1.51,0.42 1.343,0.756 1.175,0.923 1.007,1.258 0.755,1.343 0.42,1.51 0.167,1.511 z m -3.944,0 -0.167,1.007 -0.42,1.007 -0.587,0.839 -0.84,0.587 -0.923,0.42 -1.007,0.084 -1.091,-0.084 -0.923,-0.42 -0.839,-0.587 -0.587,-0.839 -0.42,-1.007 -0.168,-1.007 0.168,-1.007 0.42,-0.923 0.587,-0.839 0.839,-0.671 0.923,-0.336 1.091,-0.168 1.007,0.168 0.923,0.336 0.84,0.671 0.587,0.839 0.42,0.923 0.167,1.007 z m -27.776,-2.937 -0.168,0.923 -0.42,0.839 -0.587,0.588 -0.839,0.419 -0.923,0.168 -0.923,-0.168 -0.84,-0.419 -0.671,-0.588 -0.42,-0.839 -0.167,-0.923 0.167,-0.923 0.42,-0.839 0.671,-0.672 0.84,-0.42 0.923,-0.167 0.923,0.167 0.839,0.42 0.587,0.672 0.42,0.839 0.168,0.923 z m 2.014,0 -0.168,1.259 -0.504,1.174 -0.755,1.007 -1.091,0.84 -1.175,0.503 -1.258,0.168 -1.343,-0.168 -1.175,-0.503 -1.007,-0.84 -0.755,-1.007 -0.504,-1.174 -0.167,-1.259 0.167,-1.343 0.504,-1.175 0.755,-1.007 1.007,-0.755 1.175,-0.504 1.343,-0.167 1.258,0.167 1.175,0.504 1.091,0.755 0.755,1.007 0.504,1.175 0.168,1.343"
           style="fill:#000000;fill-opacity:1;fill-rule:evenodd;stroke:none"
           id="path5633" />
      </g>
    </g>
  </g>
</svg>
