<?xml version="1.0" encoding="UTF-8" standalone="no"?>
<svg
   xmlns:dc="http://purl.org/dc/elements/1.1/"
   xmlns:cc="http://creativecommons.org/ns#"
   xmlns:rdf="http://www.w3.org/1999/02/22-rdf-syntax-ns#"
   xmlns:svg="http://www.w3.org/2000/svg"
   xmlns="http://www.w3.org/2000/svg"
   xmlns:sodipodi="http://sodipodi.sourceforge.net/DTD/sodipodi-0.dtd"
   xmlns:inkscape="http://www.inkscape.org/namespaces/inkscape"
   width="100.91125"
   height="101.01624"
   viewBox="0 0 284.79395 285.09031"
   version="1.1"
   id="svg2"
   inkscape:version="0.48.2 r9819"
   sodipodi:docname="Chile PO-3.svg">
  <metadata
     id="metadata62">
    <rdf:RDF>
      <cc:Work
         rdf:about="">
        <dc:format>image/svg+xml</dc:format>
        <dc:type
           rdf:resource="http://purl.org/dc/dcmitype/StillImage" />
        <dc:title></dc:title>
      </cc:Work>
    </rdf:RDF>
  </metadata>
  <defs
     id="defs60">
    <clipPath
       clipPathUnits="userSpaceOnUse"
       id="clipPath3564">
      <path
         inkscape:connector-curvature="0"
         d="m 63,43 512.622,0 0,313.129 L 63,356.129 63,43 z"
         id="path3566" />
    </clipPath>
    <clipPath
       clipPathUnits="userSpaceOnUse"
       id="clipPath8513">
      <path
         inkscape:connector-curvature="0"
         d="m 129.065,349.845 101.149,0 0,100.843 -101.149,0 0,-100.843 z"
         id="path8515" />
    </clipPath>
    <clipPath
       clipPathUnits="userSpaceOnUse"
       id="clipPath3571">
      <path
         inkscape:connector-curvature="0"
         d="m 68.296,412.876 222.853,0 0,112.641 -222.853,0 0,-112.641 z"
         id="path3573" />
    </clipPath>
  </defs>
  <sodipodi:namedview
     pagecolor="#ffffff"
     bordercolor="#666666"
     borderopacity="1"
     objecttolerance="10"
     gridtolerance="10"
     guidetolerance="10"
     inkscape:pageopacity="0"
     inkscape:pageshadow="2"
     inkscape:window-width="1280"
     inkscape:window-height="1004"
     id="namedview58"
     showgrid="false"
     fit-margin-top="0"
     fit-margin-left="0"
     fit-margin-right="0"
     fit-margin-bottom="0"
     inkscape:zoom="4"
     inkscape:cx="108.21318"
     inkscape:cy="6.8562941"
     inkscape:window-x="-8"
     inkscape:window-y="-8"
     inkscape:window-maximized="1"
     inkscape:current-layer="g9005"
     showguides="true"
     inkscape:guide-bbox="true" />
  <polygon
     points="235,375 315,205 395,375 315,545 "
     id="polygon10"
     style="fill:none;stroke:#ffffff;stroke-width:40"
     transform="translate(30697.262,7721.904)" />
  <!-- draw the bicycle -->
  <!-- RIGHT -->
  <!-- LANE -->
  <!-- ONLY -->
  <g
     id="g3150"
     transform="matrix(1.7365434,0,0,1.7359515,2282.3778,345.0699)">
    <g
       id="g3152"
       transform="translate(80.0605,75.1086)">
      <g
         id="g9005"
         transform="matrix(2.0314943,0,0,-2.032187,-69.465167,56.020032)">
        <path
           inkscape:connector-curvature="0"
           d="m -572.55072,119.12295 0.587,0.84 0.42,0.923 0.084,1.006 -0.084,1.008 -0.42,1.007 -0.587,0.839 -36.504,36.42 -0.755,0.587 -1.007,0.42 -1.007,0.168 -1.007,-0.168 -1.007,-0.42 -0.756,-0.587 -36.42,-36.42 -0.671,-0.839 -0.42,-1.007 -0.084,-1.008 0.084,-1.006 0.42,-0.923 0.671,-0.84 36.42,-36.419995 0.756,-0.671 1.007,-0.42 1.007,-0.084 1.007,0.084 1.007,0.42 0.755,0.671 36.504,36.419995"
           style="fill:#fde012;fill-opacity:1;fill-rule:nonzero;stroke:none"
           id="path7084" />
        <path
           inkscape:connector-curvature="0"
           d="m -612.49572,84.800955 -36.42,36.419995 -0.252,0.42 0,0.504 0.252,0.503 36.42,36.42 0.42,0.251 0.503,0 0.42,-0.251 36.504,-36.42 0.252,-0.503 0,-0.504 -0.252,-0.42 -36.504,-36.419995 -0.42,-0.252 -0.503,0 -0.42,0.252 z m -1.426,-1.426 0.755,-0.588 0.923,-0.252 0.923,0 0.839,0.252 0.756,0.588 36.42,36.418995 0.587,0.756 0.252,0.923 0,0.923 -0.252,0.839 -0.587,0.756 -36.42,36.503 -0.756,0.504 -0.839,0.252 -0.923,0 -0.923,-0.252 -0.755,-0.504 -36.42,-36.503 -0.588,-0.756 -0.252,-0.839 0,-0.923 0.252,-0.923 0.588,-0.756 36.42,-36.418995"
           style="fill:#000000;fill-opacity:1;fill-rule:evenodd;stroke:none"
           id="path7086" />
        <path
           inkscape:connector-curvature="0"
           d="m -602.93272,119.91895 -3.944,0 0.168,-1.342 0.504,-1.175 0.755,-1.007 1.007,-0.755 1.259,-0.504 1.258,-0.167 1.259,0.167 1.175,0.504 1.091,0.755 0.755,1.007 0.504,1.175 0.167,1.342 -3.944,0 -0.168,-0.503 -0.335,-0.42 -0.504,-0.083 -0.503,0.083 -0.336,0.42 -0.168,0.503 z m 6.965,0 3.945,0 0,1.931 -2.015,0 2.015,5.958 -19.805,0 1.93,-5.958 -4.699,0 0.168,1.007 -0.168,1.006 2.433,-1.006 0,2.014 -3.021,0 -0.587,0.503 -0.755,0.335 -0.839,0.169 -6.378,0 -1.259,1.342 -1.427,1.091 -1.678,0.84 -1.762,0.503 -1.762,0.168 0,-5.959 1.93,0 0,2.434 0.671,-0.251 0.587,-0.42 0.336,-0.671 0.084,-0.671 -0.168,-0.756 -0.084,-1.007 0.336,-1.007 0.587,-0.839 -2.181,-2.266 2.517,-2.518 0.839,0.84 -1.762,1.762 2.601,1.426 1.007,0 1.007,-5.958 1.007,0 0,5.958 5.539,0 0,-5.958 1.007,0 0.839,5.455 1.93,-1.007 0,-4.448 1.175,0 0,4.952 -1.007,1.006 4.951,0 0.168,-1.342 0.42,-1.259 0.671,-1.091 1.007,-1.007 1.091,-0.672 1.259,-0.419 1.342,-0.168 1.343,0.168 1.259,0.419 1.091,0.672 0.923,1.007 0.755,1.091 0.42,1.259 0.167,1.342"
           style="fill:#000000;fill-opacity:1;fill-rule:evenodd;stroke:none"
           id="path7088" />
      </g>
    </g>
  </g>
</svg>
