<?xml version="1.0" encoding="UTF-8" standalone="no"?>
<svg
   xmlns:dc="http://purl.org/dc/elements/1.1/"
   xmlns:cc="http://creativecommons.org/ns#"
   xmlns:rdf="http://www.w3.org/1999/02/22-rdf-syntax-ns#"
   xmlns:svg="http://www.w3.org/2000/svg"
   xmlns="http://www.w3.org/2000/svg"
   xmlns:sodipodi="http://sodipodi.sourceforge.net/DTD/sodipodi-0.dtd"
   xmlns:inkscape="http://www.inkscape.org/namespaces/inkscape"
   width="100.91"
   height="101.16375"
   viewBox="0 0 284.7904 285.50661"
   version="1.1"
   id="svg2"
   inkscape:version="0.48.2 r9819"
   sodipodi:docname="Chile PO-4.svg">
  <metadata
     id="metadata62">
    <rdf:RDF>
      <cc:Work
         rdf:about="">
        <dc:format>image/svg+xml</dc:format>
        <dc:type
           rdf:resource="http://purl.org/dc/dcmitype/StillImage" />
        <dc:title></dc:title>
      </cc:Work>
    </rdf:RDF>
  </metadata>
  <defs
     id="defs60">
    <clipPath
       clipPathUnits="userSpaceOnUse"
       id="clipPath3564">
      <path
         inkscape:connector-curvature="0"
         d="m 63,43 512.622,0 0,313.129 L 63,356.129 63,43 z"
         id="path3566" />
    </clipPath>
    <clipPath
       clipPathUnits="userSpaceOnUse"
       id="clipPath8513">
      <path
         inkscape:connector-curvature="0"
         d="m 129.065,349.845 101.149,0 0,100.843 -101.149,0 0,-100.843 z"
         id="path8515" />
    </clipPath>
    <clipPath
       clipPathUnits="userSpaceOnUse"
       id="clipPath3571">
      <path
         inkscape:connector-curvature="0"
         d="m 68.296,412.876 222.853,0 0,112.641 -222.853,0 0,-112.641 z"
         id="path3573" />
    </clipPath>
  </defs>
  <sodipodi:namedview
     pagecolor="#ffffff"
     bordercolor="#666666"
     borderopacity="1"
     objecttolerance="10"
     gridtolerance="10"
     guidetolerance="10"
     inkscape:pageopacity="0"
     inkscape:pageshadow="2"
     inkscape:window-width="1280"
     inkscape:window-height="1004"
     id="namedview58"
     showgrid="false"
     fit-margin-top="0"
     fit-margin-left="0"
     fit-margin-right="0"
     fit-margin-bottom="0"
     inkscape:zoom="4"
     inkscape:cx="60.418187"
     inkscape:cy="38.938159"
     inkscape:window-x="-8"
     inkscape:window-y="-8"
     inkscape:window-maximized="1"
     inkscape:current-layer="g9005"
     showguides="true"
     inkscape:guide-bbox="true" />
  <polygon
     points="235,375 315,205 395,375 315,545 "
     id="polygon10"
     style="fill:none;stroke:#ffffff;stroke-width:40"
     transform="translate(30562.374,7631.7781)" />
  <!-- draw the bicycle -->
  <!-- RIGHT -->
  <!-- LANE -->
  <!-- ONLY -->
  <g
     id="g3150"
     transform="matrix(1.7365434,0,0,1.7359515,2147.4896,254.94402)">
    <g
       id="g3152"
       transform="translate(80.0605,75.1086)">
      <g
         id="g9005"
         transform="matrix(2.0314943,0,0,-2.032187,-69.465167,56.020032)">
        <path
           inkscape:connector-curvature="0"
           d="m -534.31572,93.51246 0.588,0.841 0.419,0.924 0.084,1.008 -0.084,1.009 -0.419,1.008 -0.588,0.841 -36.504,36.474 -0.755,0.588 -1.007,0.42 -1.007,0.168 -1.007,-0.168 -1.007,-0.42 -0.755,-0.588 -36.42,-36.474 -0.672,-0.841 -0.419,-1.008 -0.084,-1.009 0.084,-1.008 0.419,-0.924 0.672,-0.841 36.42,-36.474 0.755,-0.672 1.007,-0.42 1.007,-0.084 1.007,0.084 1.007,0.42 0.755,0.672 36.504,36.474"
           style="fill:#fde012;fill-opacity:1;fill-rule:nonzero;stroke:none"
           id="path8197" />
        <path
           inkscape:connector-curvature="0"
           d="m -574.25972,59.13946 -36.42,36.474 -0.252,0.42 0,0.504 0.252,0.505 36.42,36.474 0.419,0.252 0.504,0 0.419,-0.252 36.504,-36.474 0.252,-0.505 0,-0.504 -0.252,-0.42 -36.504,-36.474 -0.419,-0.252 -0.504,0 -0.419,0.252 z m -1.427,-1.429 0.755,-0.588 0.923,-0.252 0.924,0 0.839,0.252 0.755,0.588 36.42,36.474 0.588,0.757 0.251,0.924 0,0.925 -0.251,0.84 -0.588,0.757 -36.42,36.557 -0.755,0.505 -0.839,0.252 -0.924,0 -0.923,-0.252 -0.755,-0.505 -36.42,-36.557 -0.587,-0.757 -0.252,-0.84 0,-0.925 0.252,-0.924 0.587,-0.757 36.42,-36.474"
           style="fill:#000000;fill-opacity:1;fill-rule:evenodd;stroke:none"
           id="path8199" />
        <path
           inkscape:connector-curvature="0"
           d="m -582.24872,93.34646 0.923,-9.329 1.595,0 1.678,8.32 8.728,0.84 -0.672,-1.008 5.203,0.168 1.427,-1.597 1.846,-6.723 1.594,0 0,6.891 -0.755,1.513 1.595,4.623 0,-8.909 0.839,1.008 0,12.439 -3.273,2.437 -14.266,0 -5.035,1.765 -4.112,0 -3.105,-1.093 -3.189,1.093 1.679,-1.765 -1.679,-5.883 1.595,-0.841 3.44,0 3.944,-3.949"
           style="fill:#000000;fill-opacity:1;fill-rule:evenodd;stroke:none"
           id="path8201" />
      </g>
    </g>
  </g>
</svg>
