<?xml version="1.0" encoding="UTF-8" standalone="no"?>
<svg
   xmlns:dc="http://purl.org/dc/elements/1.1/"
   xmlns:cc="http://creativecommons.org/ns#"
   xmlns:rdf="http://www.w3.org/1999/02/22-rdf-syntax-ns#"
   xmlns:svg="http://www.w3.org/2000/svg"
   xmlns="http://www.w3.org/2000/svg"
   xmlns:sodipodi="http://sodipodi.sourceforge.net/DTD/sodipodi-0.dtd"
   xmlns:inkscape="http://www.inkscape.org/namespaces/inkscape"
   width="100.91"
   height="101.165"
   viewBox="0 0 284.7904 285.51014"
   version="1.1"
   id="svg2"
   inkscape:version="0.48.2 r9819"
   sodipodi:docname="Chile PO-5.svg">
  <metadata
     id="metadata62">
    <rdf:RDF>
      <cc:Work
         rdf:about="">
        <dc:format>image/svg+xml</dc:format>
        <dc:type
           rdf:resource="http://purl.org/dc/dcmitype/StillImage" />
        <dc:title></dc:title>
      </cc:Work>
    </rdf:RDF>
  </metadata>
  <defs
     id="defs60">
    <clipPath
       clipPathUnits="userSpaceOnUse"
       id="clipPath3564">
      <path
         inkscape:connector-curvature="0"
         d="m 63,43 512.622,0 0,313.129 L 63,356.129 63,43 z"
         id="path3566" />
    </clipPath>
    <clipPath
       clipPathUnits="userSpaceOnUse"
       id="clipPath8513">
      <path
         inkscape:connector-curvature="0"
         d="m 129.065,349.845 101.149,0 0,100.843 -101.149,0 0,-100.843 z"
         id="path8515" />
    </clipPath>
    <clipPath
       clipPathUnits="userSpaceOnUse"
       id="clipPath3571">
      <path
         inkscape:connector-curvature="0"
         d="m 68.296,412.876 222.853,0 0,112.641 -222.853,0 0,-112.641 z"
         id="path3573" />
    </clipPath>
  </defs>
  <sodipodi:namedview
     pagecolor="#ffffff"
     bordercolor="#666666"
     borderopacity="1"
     objecttolerance="10"
     gridtolerance="10"
     guidetolerance="10"
     inkscape:pageopacity="0"
     inkscape:pageshadow="2"
     inkscape:window-width="1280"
     inkscape:window-height="1004"
     id="namedview58"
     showgrid="false"
     fit-margin-top="0"
     fit-margin-left="0"
     fit-margin-right="0"
     fit-margin-bottom="0"
     inkscape:zoom="4"
     inkscape:cx="70.373204"
     inkscape:cy="45.27066"
     inkscape:window-x="-8"
     inkscape:window-y="-8"
     inkscape:window-maximized="1"
     inkscape:current-layer="g9005"
     showguides="true"
     inkscape:guide-bbox="true" />
  <polygon
     points="395,375 315,545 235,375 315,205 "
     id="polygon10"
     style="fill:none;stroke:#ffffff;stroke-width:40"
     transform="translate(30590.469,7613.9099)" />
  <!-- draw the bicycle -->
  <!-- RIGHT -->
  <!-- LANE -->
  <!-- ONLY -->
  <g
     id="g3150"
     transform="matrix(1.7365434,0,0,1.7359515,2175.5848,237.07583)">
    <g
       id="g3152"
       transform="translate(80.0605,75.1086)">
      <g
         id="g9005"
         transform="matrix(2.0314943,0,0,-2.032187,-69.465167,56.020032)">
        <path
           inkscape:connector-curvature="0"
           d="m -542.27972,88.447459 0.588,0.84 0.419,0.925 0.084,1.008 -0.084,1.009 -0.419,1.009 -0.588,0.84 -36.504,36.474001 -0.755,0.588 -1.007,0.421 -1.007,0.167 -1.007,-0.167 -1.007,-0.421 -0.755,-0.588 -36.42,-36.474001 -0.672,-0.84 -0.419,-1.009 -0.084,-1.009 0.084,-1.008 0.419,-0.925 0.672,-0.84 36.42,-36.474 0.755,-0.672 1.007,-0.42 1.007,-0.085 1.007,0.085 1.007,0.42 0.755,0.672 36.504,36.474"
           style="fill:#fde012;fill-opacity:1;fill-rule:nonzero;stroke:none"
           id="path9742" />
        <path
           inkscape:connector-curvature="0"
           d="m -582.22372,54.074459 -36.42,36.474 -0.252,0.42 0,0.505 0.252,0.504 36.42,36.474001 0.419,0.252 0.504,0 0.419,-0.252 36.504,-36.474001 0.252,-0.504 0,-0.505 -0.252,-0.42 -36.504,-36.474 -0.419,-0.252 -0.504,0 -0.419,0.252 z m -1.427,-1.428 0.755,-0.589 0.924,-0.252 0.923,0 0.839,0.252 0.755,0.589 36.42,36.474 0.588,0.756 0.251,0.924 0,0.924 -0.251,0.841 -0.588,0.756 -36.42,36.559001 -0.755,0.504 -0.839,0.252 -0.923,0 -0.924,-0.252 -0.755,-0.504 -36.42,-36.559001 -0.587,-0.756 -0.252,-0.841 0,-0.924 0.252,-0.924 0.587,-0.756 36.42,-36.474"
           style="fill:#000000;fill-opacity:1;fill-rule:evenodd;stroke:none"
           id="path9744" />
        <path
           inkscape:connector-curvature="0"
           d="m -568.01272,70.896459 1.258,0 0.336,1.933 -0.336,1.849 -0.167,1.933 0.167,1.849 0.336,1.849 -0.671,1.26 -1.007,1.009 -1.259,0.672 -0.168,2.017 0.168,2.017 0.42,1.345 0.251,1.429 0.084,1.429 -0.251,0.924 -0.42,0.841 -0.671,0.672 -0.756,0.504 -0.839,0.252 -4.028,-0.672 -2.769,0.756 -2.686,1.009 -2.517,1.26 -2.35,1.681 -1.091,3.278001 -0.671,3.361 -0.252,3.446 1.511,0.42 1.342,0.757 1.091,1.008 -0.084,0.673 -0.335,0.504 -0.504,0.419 -0.671,0.169 -0.168,0 -1.259,-0.084 -1.258,0.252 -1.175,0.588 -1.007,0.757 -0.252,-0.757 -0.42,-0.672 -0.671,-0.589 -0.755,-0.336 -0.504,-0.588 -0.335,-0.672 -1.175,-1.597 -1.511,-1.176 -1.762,-1.009 -0.42,-0.42 -0.083,-0.588 1.09,-0.841 1.175,-0.672 1.343,-0.337 1.343,-0.168 1.51,-5.462001 -1.426,-1.681 -1.679,-1.344 -1.846,-0.925 -2.014,0.168 -1.93,0.42 -0.671,-0.084 -0.588,-0.336 -0.252,-0.588 1.511,-4.707 1.93,-4.538 0.587,0 0.504,0.168 0.336,0.505 0.167,0.504 -0.167,0.588 -0.923,1.176 -0.504,1.345 -0.252,1.513 0,0.084 0.168,0.084 0.084,0 1.594,-0.925 1.847,-0.588 1.846,-0.252 1.846,0.168 1.762,0.589 3.944,-1.177 3.944,-0.756 4.029,-0.505 2.601,-3.361 2.182,-1.765 1.762,-0.757 1.595,-1.092 0.839,-2.437 0.503,-2.438 0.084,-2.605 0.42,-1.933"
           style="fill:#000000;fill-opacity:1;fill-rule:nonzero;stroke:none"
           id="path9746" />
      </g>
    </g>
  </g>
</svg>
