<?xml version="1.0" encoding="UTF-8" standalone="no"?>
<svg
   xmlns:dc="http://purl.org/dc/elements/1.1/"
   xmlns:cc="http://creativecommons.org/ns#"
   xmlns:rdf="http://www.w3.org/1999/02/22-rdf-syntax-ns#"
   xmlns:svg="http://www.w3.org/2000/svg"
   xmlns="http://www.w3.org/2000/svg"
   xmlns:sodipodi="http://sodipodi.sourceforge.net/DTD/sodipodi-0.dtd"
   xmlns:inkscape="http://www.inkscape.org/namespaces/inkscape"
   width="100.91125"
   height="101.015"
   viewBox="0 0 284.79393 285.0868"
   version="1.1"
   id="svg2"
   inkscape:version="0.48.2 r9819"
   sodipodi:docname="Chile PO-6.svg">
  <metadata
     id="metadata62">
    <rdf:RDF>
      <cc:Work
         rdf:about="">
        <dc:format>image/svg+xml</dc:format>
        <dc:type
           rdf:resource="http://purl.org/dc/dcmitype/StillImage" />
        <dc:title></dc:title>
      </cc:Work>
    </rdf:RDF>
  </metadata>
  <defs
     id="defs60">
    <clipPath
       clipPathUnits="userSpaceOnUse"
       id="clipPath3564">
      <path
         inkscape:connector-curvature="0"
         d="m 63,43 512.622,0 0,313.129 L 63,356.129 63,43 z"
         id="path3566" />
    </clipPath>
    <clipPath
       clipPathUnits="userSpaceOnUse"
       id="clipPath8513">
      <path
         inkscape:connector-curvature="0"
         d="m 129.065,349.845 101.149,0 0,100.843 -101.149,0 0,-100.843 z"
         id="path8515" />
    </clipPath>
    <clipPath
       clipPathUnits="userSpaceOnUse"
       id="clipPath3571">
      <path
         inkscape:connector-curvature="0"
         d="m 68.296,412.876 222.853,0 0,112.641 -222.853,0 0,-112.641 z"
         id="path3573" />
    </clipPath>
  </defs>
  <sodipodi:namedview
     pagecolor="#ffffff"
     bordercolor="#666666"
     borderopacity="1"
     objecttolerance="10"
     gridtolerance="10"
     guidetolerance="10"
     inkscape:pageopacity="0"
     inkscape:pageshadow="2"
     inkscape:window-width="1280"
     inkscape:window-height="1004"
     id="namedview58"
     showgrid="false"
     fit-margin-top="0"
     fit-margin-left="0"
     fit-margin-right="0"
     fit-margin-bottom="0"
     inkscape:zoom="4"
     inkscape:cx="72.828818"
     inkscape:cy="48.528188"
     inkscape:window-x="-8"
     inkscape:window-y="-8"
     inkscape:window-maximized="1"
     inkscape:current-layer="g9005"
     showguides="true"
     inkscape:guide-bbox="true" />
  <polygon
     points="235,375 315,205 395,375 315,545 "
     id="polygon10"
     style="fill:none;stroke:#ffffff;stroke-width:40"
     transform="translate(30597.399,7604.2932)" />
  <!-- draw the bicycle -->
  <!-- RIGHT -->
  <!-- LANE -->
  <!-- ONLY -->
  <g
     id="g3150"
     transform="matrix(1.7365434,0,0,1.7359515,2182.5152,227.4591)">
    <g
       id="g3152"
       transform="translate(80.0605,75.1086)">
      <g
         id="g9005"
         transform="matrix(2.0314943,0,0,-2.032187,-69.465167,56.020032)">
        <path
           inkscape:connector-curvature="0"
           d="m -544.24322,85.785459 0.587,0.839 0.42,0.923 0.084,1.007 -0.084,1.007 -0.42,1.007 -0.587,0.839 -36.504,36.420001 -0.756,0.588 -1.007,0.419 -1.007,0.168 -1.007,-0.168 -1.007,-0.419 -0.755,-0.588 -36.42,-36.420001 -0.671,-0.839 -0.42,-1.007 -0.084,-1.007 0.084,-1.007 0.42,-0.923 0.671,-0.839 36.42,-36.42 0.755,-0.672 1.007,-0.419 1.007,-0.084 1.007,0.084 1.007,0.419 0.756,0.672 36.504,36.42"
           style="fill:#fde012;fill-opacity:1;fill-rule:nonzero;stroke:none"
           id="path12243" />
        <path
           inkscape:connector-curvature="0"
           d="m -584.18822,51.463459 -36.42,36.42 -0.252,0.419 0,0.504 0.252,0.503 36.42,36.420001 0.42,0.252 0.503,0 0.42,-0.252 36.504,-36.420001 0.252,-0.503 0,-0.504 -0.252,-0.419 -36.504,-36.42 -0.42,-0.252 -0.503,0 -0.42,0.252 z m -1.427,-1.427 0.756,-0.588 0.923,-0.251 0.923,0 0.839,0.251 0.755,0.588 36.42,36.42 0.588,0.755 0.252,0.923 0,0.923 -0.252,0.839 -0.588,0.756 -36.42,36.504001 -0.755,0.503 -0.839,0.252 -0.923,0 -0.923,-0.252 -0.756,-0.503 -36.42,-36.504001 -0.587,-0.756 -0.252,-0.839 0,-0.923 0.252,-0.923 0.587,-0.755 36.42,-36.42"
           style="fill:#000000;fill-opacity:1;fill-rule:evenodd;stroke:none"
           id="path12245" />
        <path
           inkscape:connector-curvature="0"
           d="m -580.21222,103.96646 -2.098,0.336 -2.098,0 -2.014,-0.336 -0.755,-0.504 -2.014,-4.279001 -1.091,-2.182 -0.42,-0.504 -3.86,-1.93 -2.182,-1.175 -0.336,-0.251 -0.167,-0.504 0,-0.419 0.419,-1.092 0.336,-0.503 0.503,-0.168 0.588,0.084 3.189,1.679 3.188,1.594 0.336,0.336 1.259,2.097 0,-7.216 -0.671,-1.008 -4.364,-7.049 -1.427,-11.664 0.084,-0.503 0.252,-0.336 0.503,-0.252 1.595,-0.251 0.503,0.083 0.42,0.336 0.168,0.42 1.342,10.154 3.945,6.041 0.839,1.259 0.252,-2.349 0.839,-6.546 5.286,-11.161 0.336,-0.336 0.504,-0.251 0.503,0.167 1.846,0.84 0.42,0.335 0.168,0.504 -0.084,0.419 -4.616,10.07 -0.084,0.84 -0.839,9.482 0,8.644 1.343,-2.014 0.168,-0.588 0,-6.881 0.084,-0.503 0.335,-0.336 0.504,-0.168 1.091,0 0.503,0.168 0.42,0.336 0.084,0.503 0,8.14 -0.084,0.504 -4.196,7.384001 -0.336,0.336 -0.419,0.168 z m -3.609,1.343 0.588,-0.084 0.503,0.084 0.588,0.167 0.503,0.336 0.504,0.42 0.335,0.503 0.336,0.587 0.252,0.672 0.084,0.671 0,0.588 -0.168,0.671 -0.168,0.587 -0.336,0.588 -0.419,0.419 -0.42,0.336 -0.587,0.252 -0.504,0.084 -0.587,0 -0.588,-0.168 -0.587,-0.252 -0.42,-0.335 -0.503,-0.504 -0.336,-0.503 -0.251,-0.672 -0.168,-0.587 0,-1.343 0.168,-0.587 0.335,-0.588 0.336,-0.503 0.419,-0.42 0.504,-0.252 0.587,-0.167"
           style="fill:#000000;fill-opacity:1;fill-rule:evenodd;stroke:none"
           id="path12247" />
      </g>
    </g>
  </g>
</svg>
