<?xml version="1.0" encoding="UTF-8" standalone="no"?>
<svg
   xmlns:dc="http://purl.org/dc/elements/1.1/"
   xmlns:cc="http://creativecommons.org/ns#"
   xmlns:rdf="http://www.w3.org/1999/02/22-rdf-syntax-ns#"
   xmlns:svg="http://www.w3.org/2000/svg"
   xmlns="http://www.w3.org/2000/svg"
   xmlns:sodipodi="http://sodipodi.sourceforge.net/DTD/sodipodi-0.dtd"
   xmlns:inkscape="http://www.inkscape.org/namespaces/inkscape"
   width="100.91"
   height="101.015"
   viewBox="0 0 284.79038 285.0868"
   version="1.1"
   id="svg2"
   inkscape:version="0.48.2 r9819"
   sodipodi:docname="Chile PO-8.svg">
  <metadata
     id="metadata62">
    <rdf:RDF>
      <cc:Work
         rdf:about="">
        <dc:format>image/svg+xml</dc:format>
        <dc:type
           rdf:resource="http://purl.org/dc/dcmitype/StillImage" />
        <dc:title></dc:title>
      </cc:Work>
    </rdf:RDF>
  </metadata>
  <defs
     id="defs60">
    <clipPath
       clipPathUnits="userSpaceOnUse"
       id="clipPath3564">
      <path
         inkscape:connector-curvature="0"
         d="m 63,43 512.622,0 0,313.129 L 63,356.129 63,43 z"
         id="path3566" />
    </clipPath>
    <clipPath
       clipPathUnits="userSpaceOnUse"
       id="clipPath8513">
      <path
         inkscape:connector-curvature="0"
         d="m 129.065,349.845 101.149,0 0,100.843 -101.149,0 0,-100.843 z"
         id="path8515" />
    </clipPath>
    <clipPath
       clipPathUnits="userSpaceOnUse"
       id="clipPath3571">
      <path
         inkscape:connector-curvature="0"
         d="m 68.296,412.876 222.853,0 0,112.641 -222.853,0 0,-112.641 z"
         id="path3573" />
    </clipPath>
  </defs>
  <sodipodi:namedview
     pagecolor="#ffffff"
     bordercolor="#666666"
     borderopacity="1"
     objecttolerance="10"
     gridtolerance="10"
     guidetolerance="10"
     inkscape:pageopacity="0"
     inkscape:pageshadow="2"
     inkscape:window-width="1280"
     inkscape:window-height="1004"
     id="namedview58"
     showgrid="false"
     fit-margin-top="0"
     fit-margin-left="0"
     fit-margin-right="0"
     fit-margin-bottom="0"
     inkscape:zoom="4"
     inkscape:cx="85.360096"
     inkscape:cy="35.75505"
     inkscape:window-x="-8"
     inkscape:window-y="-8"
     inkscape:window-maximized="1"
     inkscape:current-layer="g9005"
     showguides="true"
     inkscape:guide-bbox="true" />
  <polygon
     points="395,375 315,545 235,375 315,205 "
     id="polygon10"
     style="fill:none;stroke:#ffffff;stroke-width:40"
     transform="translate(30632.765,7640.3418)" />
  <!-- draw the bicycle -->
  <!-- RIGHT -->
  <!-- LANE -->
  <!-- ONLY -->
  <g
     id="g3150"
     transform="matrix(1.7365434,0,0,1.7359515,2217.8811,263.5077)">
    <g
       id="g3152"
       transform="translate(80.0605,75.1086)">
      <g
         id="g9005"
         transform="matrix(2.0314943,0,0,-2.032187,-69.465167,56.020032)">
        <path
           inkscape:connector-curvature="0"
           d="m -554.26922,96.00396 0.588,0.839 0.419,0.923 0.084,1.007 -0.084,1.007 -0.419,1.007 -0.588,0.839 -36.504,36.42 -0.755,0.588 -1.007,0.42 -1.007,0.167 -1.007,-0.167 -1.007,-0.42 -0.755,-0.588 -36.42,-36.42 -0.672,-0.839 -0.419,-1.007 -0.084,-1.007 0.084,-1.007 0.419,-0.923 0.672,-0.839 36.42,-36.42 0.755,-0.671 1.007,-0.42 1.007,-0.084 1.007,0.084 1.007,0.42 0.755,0.671 36.504,36.42"
           style="fill:#fde012;fill-opacity:1;fill-rule:nonzero;stroke:none"
           id="path14137" />
        <path
           inkscape:connector-curvature="0"
           d="m -594.21322,61.68196 -36.42,36.42 -0.252,0.419 0,0.504 0.252,0.504 36.42,36.419 0.419,0.252 0.504,0 0.419,-0.252 36.504,-36.419 0.252,-0.504 0,-0.504 -0.252,-0.419 -36.504,-36.42 -0.419,-0.252 -0.504,0 -0.419,0.252 z m -1.427,-1.427 0.755,-0.587 0.923,-0.252 0.923,0 0.84,0.252 0.755,0.587 36.42,36.42 0.587,0.756 0.252,0.923 0,0.923 -0.252,0.839 -0.587,0.755 -36.42,36.504 -0.755,0.504 -0.84,0.251 -0.923,0 -0.923,-0.251 -0.755,-0.504 -36.42,-36.504 -0.587,-0.755 -0.252,-0.839 0,-0.923 0.252,-0.923 0.587,-0.756 36.42,-36.42"
           style="fill:#000000;fill-opacity:1;fill-rule:evenodd;stroke:none"
           id="path14139" />
        <path
           inkscape:connector-curvature="0"
           d="m -579.22822,107.33296 -2.014,-1.259 -2.518,7.636 1.847,-1.93 1.426,-2.182 1.259,-2.265 z m -19.217,-9.315 -0.336,2.098 -0.671,2.098 -0.923,1.93 -1.175,1.762 1.259,-8.56 1.846,0.672 z m 20.224,-17.791 1.93,1.427 -3.944,17.203 1.51,0.503 -1.007,2.434 1.511,-2.014 1.93,1.343 0.504,-0.42 0.587,-0.084 0.587,0.168 0.42,0.504 0.084,0.587 -0.168,0.587 3.441,2.35 -3.777,5.371 -1.258,-0.755 -1.259,2.433 -1.595,2.266 -1.846,2.014 -2.014,1.846 -2.266,1.595 0.504,1.09 0.252,1.259 -0.084,1.259 -0.42,1.175 -0.755,1.007 -1.007,0.755 -1.091,0.504 -1.259,0.251 -1.259,-0.168 -1.174,-0.419 -1.007,-0.755 -0.756,-0.923 -0.503,-1.175 -0.168,-1.259 0.084,-1.175 0.503,-1.175 0.756,-1.006 0.923,-0.756 1.175,-0.503 -1.175,-0.923 -0.588,-2.183 -0.755,-2.013 -1.091,-1.931 -1.342,-1.846 -1.511,-1.594 -1.678,-1.427 -1.175,1.763 -1.259,1.594 -1.51,1.426 0.419,0.923 0.168,0.924 -0.084,1.007 -0.42,0.923 -0.503,0.839 -0.839,0.672 -0.923,0.419 -0.923,0.084 -1.007,-0.084 -0.923,-0.336 -0.84,-0.587 -0.671,-0.756 -0.42,-0.922 -0.167,-0.923 0.084,-1.007 0.335,-0.924 0.588,-0.839 0.755,-0.671 0.839,-0.42 -1.762,-0.671 0,-1.846 -0.336,-1.762 -0.587,-1.679 -0.923,-1.51 -1.175,-1.343 -1.343,-1.175 -1.51,-0.923 0.167,-0.335 -0.587,0 -0.504,-0.42 -0.251,-0.503 0,-0.672 0.419,-0.504 0.504,-0.251 0.671,0.084 0.504,0.335 0.251,0.588 0.252,-0.42 1.93,1.091 1.595,1.511 -0.504,-6.294 1.007,0 -1.007,-9.399 -2.349,-1.007 0,-0.923 4.951,-0.504 3.356,11.833 2.518,-9.903 -1.427,-1.007 0,-0.923 1.93,0 3.021,1.427 -1.93,13.175 0.839,-1.426 1.343,0.587 0.336,-0.587 0.587,-0.169 0.672,0 0.503,0.42 0.168,0.587 -0.084,0.588 2.434,1.007 -1.679,3.524 -1.175,-0.503 -0.755,3.189 2.182,1.678 1.846,1.846 0,-7.552 1.511,0.084 -2.434,-15.86 -2.434,-0.588 0,-1.427 5.875,0 4.447,17.875 5.119,-15.86 -2.098,-0.588 0,-1.427 4.448,0"
           style="fill:#000000;fill-opacity:1;fill-rule:evenodd;stroke:none"
           id="path14141" />
      </g>
    </g>
  </g>
</svg>
