<?xml version="1.0" encoding="UTF-8" standalone="no"?>
<svg
   xmlns:dc="http://purl.org/dc/elements/1.1/"
   xmlns:cc="http://creativecommons.org/ns#"
   xmlns:rdf="http://www.w3.org/1999/02/22-rdf-syntax-ns#"
   xmlns:svg="http://www.w3.org/2000/svg"
   xmlns="http://www.w3.org/2000/svg"
   xmlns:sodipodi="http://sodipodi.sourceforge.net/DTD/sodipodi-0.dtd"
   xmlns:inkscape="http://www.inkscape.org/namespaces/inkscape"
   version="1.1"
   preserveAspectRatio="xMidYMid meet"
   zoomAndPan="magnify"
   id="Civil_Air_Ensign_of_New_Zealand"
   viewBox="-16.875 -7.5 2.4792269 2.2001022"
   width="88.150291"
   height="88.004089"
   inkscape:version="0.48.2 r9819"
   sodipodi:docname="AJAX1.svg">
  <metadata
     id="metadata31">
    <rdf:RDF>
      <cc:Work
         rdf:about="">
        <dc:format>image/svg+xml</dc:format>
        <dc:type
           rdf:resource="http://purl.org/dc/dcmitype/StillImage" />
        <dc:title></dc:title>
      </cc:Work>
    </rdf:RDF>
  </metadata>
  <sodipodi:namedview
     pagecolor="#ffffff"
     bordercolor="#666666"
     borderopacity="1"
     objecttolerance="10"
     gridtolerance="10"
     guidetolerance="10"
     inkscape:pageopacity="0"
     inkscape:pageshadow="2"
     inkscape:window-width="1280"
     inkscape:window-height="1004"
     id="namedview29"
     showgrid="false"
     inkscape:zoom="5.6568543"
     inkscape:cx="39.381136"
     inkscape:cy="28.199876"
     inkscape:window-x="-8"
     inkscape:window-y="-8"
     inkscape:window-maximized="1"
     inkscape:current-layer="Civil_Air_Ensign_of_New_Zealand"
     fit-margin-top="0"
     fit-margin-left="0"
     fit-margin-right="0"
     fit-margin-bottom="0" />
  <defs
     id="defs3">
    <clipPath
       id="border">
      <rect
         x="-16.875"
         y="-7.5"
         width="33.75"
         height="15"
         id="rect6" />
    </clipPath>
  </defs>
  <path
     inkscape:connector-curvature="0"
     d="m -15.723309,-5.1968414 0.03104,0.02408 0.03793,0.01037 0.0379,0 0.03449,-0.01037 0.03104,-0.02408 1.120676,-1.118777 0.02412,-0.03097 0.01034,-0.03442 0,-0.0379 -0.01034,-0.03783 -0.02412,-0.03101 -1.120676,-1.118778 -0.03104,-0.02064 -0.03449,-0.01034 -0.0379,0 -0.03793,0.01034 -0.03104,0.02064 -1.117231,1.118778 -0.02412,0.03101 -0.01034,0.03783 0,0.0379 0.01034,0.03442 0.02412,0.03097 1.117231,1.118777"
     style="fill:#f57a2b;fill-opacity:1;fill-rule:nonzero;stroke:none"
     id="path3401" />
  <path
     inkscape:connector-curvature="0"
     d="m -15.699192,-5.2174784 0.0276,0.02064 0.03449,0.0069 0.03449,-0.0069 0.03104,-0.02064 1.120641,-1.118777 0.02071,-0.03101 0.0069,-0.03442 -0.0069,-0.03442 -0.02071,-0.02753 -1.120641,-1.118777 -0.03104,-0.02064 -0.03449,-0.0069 -0.03449,0.0069 -0.0276,0.02064 -1.120641,1.118777 -0.02071,0.02753 -0.0069,0.03442 0.0069,0.03442 0.02071,0.03101 1.120641,1.118777 z m 0.04138,-0.04475 0.01382,0.0103 0.01723,0 0.01382,-0.0103 1.117195,-1.115332 0.01034,-0.01378 0,-0.01719 -0.01034,-0.01378 -1.117195,-1.118777 -0.01382,-0.0069 -0.01723,0 -0.01382,0.0069 -1.120641,1.118777 -0.0069,0.01378 0,0.01719 0.0069,0.01378 1.120641,1.115332"
     style="fill:#000000;fill-opacity:1;fill-rule:evenodd;stroke:none"
     id="path3403" />
  <path
     inkscape:connector-curvature="0"
     d="m -15.212138,-6.2943494 c -0.01529,0.02974 -0.01779,0.05295 -0.0092,0.08529 0.003,0.01104 0.0051,0.0174 0.01104,0.02721 0.0051,0.0084 0.0084,0.01318 0.01589,0.01951 0.0064,0.0054 0.0109,0.0072 0.01835,0.011 0.01578,0.0079 0.02591,0.0099 0.04317,0.01382 0.01983,0.0044 0.03143,0.0059 0.05175,0.0061 0.0237,1.77e-4 0.03695,-0.0033 0.06033,-0.0073 0.01645,-0.0028 0.02563,-0.005 0.04194,-0.0086 0.05087,-0.01104 0.07935,-0.01839 0.1292,-0.03333 l 0.0067,-0.02261 -0.369211,-0.09109 z"
     style="fill:#000000;fill-opacity:1;fill-rule:nonzero;stroke:none"
     id="path3405" />
  <path
     inkscape:connector-curvature="0"
     d="m -16.310559,-6.5409704 1.388214,0.346781 -0.01227,0.04932 -1.388215,-0.346816 0.01227,-0.04929 z"
     style="fill:#000000;fill-opacity:1;fill-rule:nonzero;stroke:none"
     id="path3407" />
  <path
     inkscape:connector-curvature="0"
     d="m -15.622341,-6.8087904 -0.124101,0.147867 0.139289,0.06135 0.06381,-0.192234 -0.079,-0.01698 z"
     style="fill:#000000;fill-opacity:1;fill-rule:nonzero;stroke:none"
     id="path3409" />
  <path
     inkscape:connector-curvature="0"
     d="m -15.673212,-6.9220294 c 0,-0.09397 0.07632,-0.170156 0.170473,-0.170156 0.09411,0 0.170437,0.07618 0.170437,0.170156 0,0.09401 -0.07632,0.170192 -0.170437,0.170192 -0.09415,0 -0.170473,-0.07618 -0.170473,-0.170192 z"
     style="fill:#000000;fill-opacity:1;fill-rule:nonzero;stroke:none"
     id="path3411" />
  <path
     inkscape:connector-curvature="0"
     d="m -16.161462,-6.5061304 0.155039,-0.253266 c 0.01167,-0.01712 0.02162,-0.0257 0.04036,-0.0347 0.01424,-0.0069 0.02348,-0.0092 0.03927,-0.01005 l 0.310887,0 -0.104203,0.138551 -0.193535,0 -0.121676,0.212906 -0.126141,-0.05344 z"
     style="fill:#000000;fill-opacity:1;fill-rule:nonzero;stroke:none"
     id="path3413" />
  <path
     inkscape:connector-curvature="0"
     d="m -16.166348,-6.4819434 c 0,-0.03751 0.03045,-0.06789 0.06799,-0.06789 0.03755,0 0.06799,0.03038 0.06799,0.06789 0,0.03751 -0.03045,0.06789 -0.06799,0.06789 -0.03755,0 -0.06799,-0.03037 -0.06799,-0.06789 z"
     style="fill:#000000;fill-opacity:1;fill-rule:nonzero;stroke:none"
     id="path3415" />
  <path
     inkscape:connector-curvature="0"
     d="m -15.797067,-6.6840914 -0.168012,0.270352 -2.45e-4,0.620296 0.158836,0 -5.28e-4,-0.44455 0.182882,0.128039 -0.04669,0.253125 0.149273,0.03639 0.06082,-0.278157 c 0.0045,-0.02507 0.0031,-0.0411 -0.0058,-0.06497 -0.0083,-0.02243 -0.01677,-0.03477 -0.03477,-0.05055 l -0.181371,-0.121359 0.155356,-0.253301 -0.269789,-0.09531 z"
     style="fill:#000000;fill-opacity:1;fill-rule:nonzero;stroke:none"
     id="path3417" />
  <path
     inkscape:connector-curvature="0"
     d="m -15.546895,-6.7865714 0.206613,0.466066 -0.114891,0.05101 -0.211675,-0.440754 0.119953,-0.07632 z"
     style="fill:#000000;fill-opacity:1;fill-rule:nonzero;stroke:none"
     id="path3419" />
  <path
     inkscape:connector-curvature="0"
     d="m -15.46252,-6.2977244 c 0,-0.03509 0.02848,-0.06356 0.06363,-0.06356 0.03516,0 0.06363,0.02848 0.06363,0.06356 0,0.03505 -0.02848,0.06353 -0.06363,0.06353 -0.03516,0 -0.06363,-0.02848 -0.06363,-0.06353 z"
     style="fill:#000000;fill-opacity:1;fill-rule:nonzero;stroke:none"
     id="path3421" />
  <path
     inkscape:connector-curvature="0"
     d="m -15.673352,-5.8331344 c 0,-0.04212 0.03417,-0.07632 0.07639,-0.07632 0.04219,0 0.0764,0.03421 0.0764,0.07632 0,0.04212 -0.03421,0.07625 -0.0764,0.07625 -0.04222,0 -0.07639,-0.03414 -0.07639,-0.07625 z"
     style="fill:#000000;fill-opacity:1;fill-rule:nonzero;stroke:none"
     id="path3423" />
  <path
     inkscape:connector-curvature="0"
     d="m -15.965431,-5.7880294 c 0,-0.04384 0.03558,-0.07935 0.07949,-0.07935 0.04391,0 0.07952,0.03551 0.07952,0.07935 0,0.04384 -0.03561,0.07938 -0.07952,0.07938 -0.04391,0 -0.07949,-0.03554 -0.07949,-0.07938 z"
     style="fill:#000000;fill-opacity:1;fill-rule:nonzero;stroke:none"
     id="path3425" />
</svg>
