<?xml version="1.0" encoding="UTF-8" standalone="no"?>
<svg
   xmlns:dc="http://purl.org/dc/elements/1.1/"
   xmlns:cc="http://creativecommons.org/ns#"
   xmlns:rdf="http://www.w3.org/1999/02/22-rdf-syntax-ns#"
   xmlns:svg="http://www.w3.org/2000/svg"
   xmlns="http://www.w3.org/2000/svg"
   xmlns:sodipodi="http://sodipodi.sourceforge.net/DTD/sodipodi-0.dtd"
   xmlns:inkscape="http://www.inkscape.org/namespaces/inkscape"
   version="1.1"
   preserveAspectRatio="xMidYMid meet"
   zoomAndPan="magnify"
   id="Civil_Air_Ensign_of_New_Zealand"
   viewBox="-16.875 -7.5 2.511496 3.1028713"
   width="89.297638"
   height="124.11485"
   inkscape:version="0.48.2 r9819"
   sodipodi:docname="Chile PT-1.svg">
  <metadata
     id="metadata31">
    <rdf:RDF>
      <cc:Work
         rdf:about="">
        <dc:format>image/svg+xml</dc:format>
        <dc:type
           rdf:resource="http://purl.org/dc/dcmitype/StillImage" />
        <dc:title></dc:title>
      </cc:Work>
    </rdf:RDF>
  </metadata>
  <sodipodi:namedview
     pagecolor="#ffffff"
     bordercolor="#666666"
     borderopacity="1"
     objecttolerance="10"
     gridtolerance="10"
     guidetolerance="10"
     inkscape:pageopacity="0"
     inkscape:pageshadow="2"
     inkscape:window-width="1280"
     inkscape:window-height="1004"
     id="namedview29"
     showgrid="false"
     inkscape:zoom="5.6568543"
     inkscape:cx="62.816763"
     inkscape:cy="60.057831"
     inkscape:window-x="-8"
     inkscape:window-y="-8"
     inkscape:window-maximized="1"
     inkscape:current-layer="Civil_Air_Ensign_of_New_Zealand"
     fit-margin-top="0"
     fit-margin-left="0"
     fit-margin-right="0"
     fit-margin-bottom="0" />
  <defs
     id="defs3">
    <clipPath
       id="border">
      <rect
         x="-16.875"
         y="-7.5"
         width="33.75"
         height="15"
         id="rect6" />
    </clipPath>
  </defs>
  <path
     inkscape:connector-curvature="0"
     d="m -16.731141,-5.0059563 0,0.680625 0.007,0.038355 0.01747,0.03143 0.02795,0.027914 0.03491,0.017473 0.03843,0.00696 1.973567,0 0.03843,-0.00696 0.03495,-0.017473 0.02795,-0.027914 0.01747,-0.03143 0.0035,-0.038355 0,-0.680625 -0.0035,-0.038391 -0.01747,-0.03143 -0.02795,-0.027914 -0.03495,-0.017437 -0.03843,-0.007 -1.973567,0 -0.03843,0.007 -0.03491,0.017437 -0.02795,0.027914 -0.01747,0.03143 -0.007,0.038391"
     style="fill:#f57a2b;fill-opacity:1;fill-rule:evenodd;stroke:none"
     id="path3427" />
  <path
     inkscape:connector-curvature="0"
     d="m -15.70834,-5.2192791 0.03146,0.024434 0.03839,0.010477 0.03843,0 0.03495,-0.010477 0.03143,-0.024434 1.135266,-1.1343515 0.02443,-0.03143 0.01048,-0.034875 0,-0.038391 -0.01048,-0.038426 -0.02443,-0.031395 -1.135266,-1.1343518 -0.03143,-0.02095 -0.03495,-0.01048 -0.03843,0 -0.03839,0.01048 -0.03146,0.02095 -1.13175,1.1343518 -0.02443,0.031395 -0.01048,0.038426 0,0.038391 0.01048,0.034875 0.02443,0.03143 1.13175,1.1343515"
     style="fill:#f57a2b;fill-opacity:1;fill-rule:nonzero;stroke:none"
     id="path3429" />
  <path
     inkscape:connector-curvature="0"
     d="m -15.683871,-5.2401971 0.02795,0.020918 0.03491,0.007 0.03495,-0.007 0.03143,-0.020918 1.135231,-1.1343867 0.02099,-0.031394 0.007,-0.034945 -0.007,-0.034875 -0.02099,-0.027914 -1.135231,-1.1343866 -0.03143,-0.02092 -0.03495,-0.007 -0.03491,0.007 -0.02795,0.02092 -1.135266,1.1343866 -0.02095,0.027914 -0.007,0.034875 0.007,0.034945 0.02095,0.031394 1.135266,1.1343867 z m 0.04191,-0.045387 0.01399,0.010441 0.01744,0 0.01399,-0.010441 1.13175,-1.1308711 0.01048,-0.013957 0,-0.017473 -0.01048,-0.013957 -1.13175,-1.1343522 -0.01399,-0.007 -0.01744,0 -0.01399,0.007 -1.13523,1.1343522 -0.007,0.013957 0,0.017473 0.007,0.013957 1.13523,1.1308711"
     style="fill:#000000;fill-opacity:1;fill-rule:evenodd;stroke:none"
     id="path3431" />
  <path
     inkscape:connector-curvature="0"
     d="m -16.636816,-4.3253313 0.0035,0.013957 0.01048,0.010441 0.01747,0.00352 1.973567,0 0.01399,-0.00352 0.01396,-0.010441 0.0035,-0.013957 0,-0.680625 -0.0035,-0.013957 -0.01396,-0.010477 -0.01399,-0.007 -1.973567,0 -0.01747,0.007 -0.01048,0.010477 -0.0035,0.013957 0,0.680625 z m -0.06286,0 0.007,0.034875 0.02095,0.027914 0.03147,0.020953 0.03491,0.007 1.973567,0 0.03494,-0.007 0.03143,-0.020953 0.02095,-0.027914 0.007,-0.034875 0,-0.680625 -0.007,-0.03491 -0.02095,-0.027914 -0.03143,-0.020953 -0.03494,-0.007 -1.973567,0 -0.03491,0.007 -0.03147,0.020953 -0.02095,0.027914 -0.007,0.03491 0,0.680625"
     style="fill:#000000;fill-opacity:1;fill-rule:evenodd;stroke:none"
     id="path3433" />
  <path
     inkscape:connector-curvature="0"
     d="m -15.985617,-4.4759055 0.05133,0 -0.02566,-0.07323 -0.02566,0.07323 z m -0.07991,0.109793 0.08782,-0.2522461 0.03572,0 0.08761,0.2522461 -0.04166,0 -0.02436,-0.070488 -0.07889,0 -0.02436,0.070488 -0.04187,0"
     style="fill:#000000;fill-opacity:1;fill-rule:evenodd;stroke:none"
     id="path3435" />
  <path
     inkscape:connector-curvature="0"
     d="m -15.711609,-4.5154914 0.0055,-2.25e-4 0.0056,-0.0013 0.0051,-0.0019 0.0051,-0.00278 0.0045,-0.00341 0.0038,-0.00383 0.0034,-0.00446 0.0028,-0.00492 0.0019,-0.00534 0.0011,-0.00552 4.22e-4,-0.00552 -4.22e-4,-0.00471 -0.0013,-0.00425 -0.0021,-0.00425 -0.0028,-0.00362 -0.0036,-0.00299 -0.0041,-0.00214 -0.0043,-0.00148 -0.0047,-4.219e-4 -0.06058,0 0,0.06307 0.04458,0 z m 0.01663,0.1101796 0.0051,-4.556e-4 0.0049,-0.00127 0.0045,-0.00211 0.0043,-0.00299 0.0036,-0.00362 0.0028,-0.00408 0.0021,-0.00468 0.0013,-0.00492 4.21e-4,-0.0051 -2.11e-4,-0.00598 -0.0013,-0.00573 -0.0021,-0.00555 -0.0028,-0.00534 -0.0036,-0.00468 -0.0043,-0.00425 -0.0047,-0.00362 -0.0051,-0.00278 -0.0058,-0.00211 -0.0057,-0.00109 -0.006,-4.219e-4 -0.04862,0 0,0.07077 0.06121,0 z m 0,0.039199 0.0079,-4.219e-4 0.0077,-0.00151 0.0075,-0.00211 0.0072,-0.0032 0.0068,-0.00387 0.0064,-0.00468 0.0058,-0.00534 0.0051,-0.00594 0.0043,-0.0064 0.0036,-0.00703 0.003,-0.00724 0.0019,-0.0077 0.0011,-0.00766 2.11e-4,-0.00788 -6.33e-4,-0.00787 -0.0017,-0.00766 -0.0026,-0.00745 -0.0032,-0.00703 -0.004,-0.00664 -0.0049,-0.00615 -0.0056,-0.00573 -0.006,-0.00492 -0.0066,-0.00425 -0.007,-0.00341 0.0062,-0.0032 0.0058,-0.00404 0.0053,-0.00471 0.0047,-0.0051 0.0043,-0.00577 0.0034,-0.00615 0.0028,-0.0064 0.0019,-0.00686 0.0013,-0.00679 4.22e-4,-0.00703 -4.22e-4,-0.00703 -0.0013,-0.00703 -0.0019,-0.00682 -0.0026,-0.00661 -0.0034,-0.00619 -0.004,-0.00577 -0.0047,-0.00531 -0.0053,-0.00471 -0.0058,-0.00422 -0.0062,-0.00345 -0.0064,-0.00274 -0.0068,-0.00193 -0.007,-0.0013 -0.007,-3.881e-4 -0.10002,0 0,0.2516485 0.100653,0"
     style="fill:#000000;fill-opacity:1;fill-rule:evenodd;stroke:none"
     id="path3437" />
  <path
     inkscape:connector-curvature="0"
     d="m -15.337863,-4.413925 0.0036,0.00693 0.0044,0.00671 0.0048,0.00608 0.0054,0.00566 0.0059,0.00503 0.0065,0.00461 0.0067,0.00376 0.0071,0.00338 0.0075,0.00228 0.0076,0.0019 0.0078,8.437e-4 0.0079,3.882e-4 0.0078,-5.963e-4 0.0078,-0.00127 0.0076,-0.00211 0.0073,-0.00271 0.0071,-0.00338 0.0067,-0.00418 0.0061,-0.00461 0.0059,-0.00545 0.0052,-0.00587 0.0046,-0.00629 0.004,-0.00668 0.0031,-0.00714 0.0027,-0.00731 0.0019,-0.00756 0.0011,-0.00773 4.22e-4,-0.00798 0,-0.1707891 -0.03857,0 0,0.1707891 -4.22e-4,0.00566 -0.0013,0.00566 -0.0019,0.00545 -0.0025,0.00503 -0.0034,0.00461 -0.004,0.00418 -0.0044,0.00355 -0.0049,0.00295 -0.0052,0.00229 -0.0054,0.00148 -0.0057,0.00105 -0.0057,2.25e-4 -0.0059,-8.438e-4 -0.0054,-0.00127 -0.0052,-0.0023 -0.005,-0.00274 -0.0044,-0.00355 -0.004,-0.00418 -0.0033,-0.00464 -0.0027,-0.00499 -0.03523,0.01568"
     style="fill:#000000;fill-opacity:1;fill-rule:nonzero;stroke:none"
     id="path3439" />
  <path
     inkscape:connector-curvature="0"
     d="m -14.960531,-4.5628821 -0.0025,-0.00749 -0.0033,-0.0071 -0.004,-0.00689 -0.0048,-0.00647 -0.0052,-0.00584 -0.0059,-0.00545 -0.0063,-0.00478 -0.0069,-0.00418 -0.0071,-0.00334 -0.0075,-0.00271 -0.0077,-0.0019 -0.0077,-0.00123 -0.0079,-1.969e-4 -0.0079,4.219e-4 -0.0077,0.00102 -0.0077,0.00211 -0.0075,0.00271 -0.0071,0.00334 -0.0067,0.00418 -0.0063,0.00482 -0.0058,0.0052 -0.0052,0.00605 -0.0046,0.00626 -0.004,0.00689 -0.0033,0.0071 -0.0025,0.00749 -0.0035,0.01357 -0.0029,0.013992 -0.0021,0.013746 -0.0011,0.014203 -4.22e-4,0.013992 4.22e-4,0.014168 0.0011,0.013957 0.0021,0.013992 0.0029,0.013992 0.0035,0.01357 0.0025,0.00749 0.0033,0.0071 0.004,0.00689 0.0046,0.00626 0.0052,0.00605 0.0058,0.00524 0.0063,0.00478 0.0067,0.00418 0.0071,0.00334 0.0075,0.00271 0.0077,0.00207 0.0077,0.00105 0.0079,4.219e-4 0.0079,-2.25e-4 0.0077,-0.00127 0.0077,-0.00186 0.0075,-0.00274 0.0071,-0.00352 0.0069,-0.00397 0.0063,-0.00478 0.0059,-0.00545 0.0052,-0.00584 0.0048,-0.00647 0.004,-0.00689 0.0033,-0.0071 0.0025,-0.00749 0.0035,-0.013781 0.0027,-0.013781 0.0019,-0.013992 0.0012,-0.013957 4.22e-4,-0.014168 -4.22e-4,-0.013992 -0.0012,-0.013992 -0.0019,-0.013957 -0.0027,-0.013992 -0.0035,-0.01357 z m -0.116508,0.1287422 0.0021,0.00541 0.0027,0.00524 0.0036,0.00457 0.0042,0.00418 0.0048,0.00355 0.0052,0.00292 0.0054,0.00207 0.0058,0.00127 0.0058,4.218e-4 0.0059,-4.218e-4 0.0058,-0.00127 0.0054,-0.00186 0.0052,-0.00295 0.0048,-0.00352 0.004,-0.00418 0.0036,-0.00478 0.0029,-0.00524 0.0019,-0.00541 0.0036,-0.012938 0.0025,-0.013148 0.0017,-0.013149 10e-4,-0.013359 0,-0.013148 -10e-4,-0.013359 -0.0017,-0.013324 -0.0025,-0.012938 -0.0036,-0.012937 -0.0019,-0.00541 -0.0029,-0.00524 -0.0036,-0.00482 -0.004,-0.00415 -0.0048,-0.00355 -0.0052,-0.00292 -0.0054,-0.00207 -0.0058,-0.00105 -0.0059,-4.219e-4 -0.0058,4.219e-4 -0.0058,0.00127 -0.0054,0.00208 -0.0052,0.00292 -0.0048,0.00355 -0.0042,0.00418 -0.0036,0.00457 -0.0027,0.00524 -0.0021,0.00541 -0.0033,0.012937 -0.0025,0.013148 -0.0017,0.013113 -8.43e-4,0.013359 0,0.013148 8.43e-4,0.013359 0.0017,0.013148 0.0025,0.013148 0.0033,0.012938"
     style="fill:#000000;fill-opacity:1;fill-rule:evenodd;stroke:none"
     id="path3441" />
  <path
     inkscape:connector-curvature="0"
     d="m -16.282477,-4.6196594 0.09541,0 0.0079,4.556e-4 0.0079,0.00148 0.0075,0.00215 0.0073,0.00302 0.0071,0.00387 0.0064,0.0045 0.0058,0.00538 0.0054,0.00601 0.0045,0.00643 0.0039,0.00686 0.003,0.00752 0.0021,0.00752 0.0013,0.00728 4.22e-4,0.00731 -2.11e-4,0.00752 -0.0011,0.00728 -0.0017,0.0071 -0.0024,0.00707 -0.0032,0.00664 -0.0039,0.00626 -0.0045,0.00577 -0.0049,0.00559 -0.0056,0.00471 -0.0062,0.00432 -0.0065,0.00341 0.04447,0.1180899 -0.04187,0 -0.04212,-0.1114102 -0.04683,0 0,0.1114102 -0.03955,0 0,-0.2535469 z m 0.09541,0.1026211 0.0049,-4.219e-4 0.0047,-0.0013 0.0045,-0.00169 0.0041,-0.0026 0.0037,-0.0032 0.0032,-0.00366 0.0026,-0.00429 0.0019,-0.00454 0.0011,-0.00471 4.57e-4,-0.00471 -4.57e-4,-0.00496 -0.0011,-0.00492 -0.0019,-0.0045 -0.0026,-0.00408 -0.003,-0.00387 -0.0039,-0.0032 -0.0041,-0.0026 -0.0045,-0.00193 -0.0047,-0.0013 -0.0049,-4.219e-4 -0.05586,0 0,0.062895 0.05586,0"
     style="fill:#000000;fill-opacity:1;fill-rule:evenodd;stroke:none"
     id="path3443" />
  <path
     inkscape:connector-curvature="0"
     d="m -14.748645,-4.56355 -0.03716,0.00974 -0.0017,-0.00475 -0.0023,-0.00478 -0.0029,-0.00415 -0.0035,-0.00373 -0.0041,-0.00313 -0.0046,-0.00267 -0.0048,-0.00186 -0.0052,-0.00127 -0.0052,-3.881e-4 -0.0052,1.687e-4 -0.005,0.00105 -0.005,0.00165 -0.0046,0.0025 -0.0041,0.00288 -0.0037,0.00376 -0.0031,0.00411 -0.0025,0.00439 -0.0019,0.00475 -10e-4,0.00517 -4.22e-4,0.00499 4.22e-4,0.00415 10e-4,0.00394 0.0017,0.00394 0.0023,0.00334 0.0029,0.00288 0.0033,0.0025 0.0037,0.00186 0.0039,0.00127 0.03695,0.00745 0.0077,0.00207 0.0073,0.00267 0.0071,0.00355 0.0066,0.00415 0.006,0.00496 0.0056,0.00541 0.005,0.00622 0.0044,0.00643 0.0035,0.00703 0.0029,0.00728 0.0021,0.00763 0.0012,0.0077 4.22e-4,0.00788 -4.22e-4,0.00749 -0.001,0.00745 -0.0019,0.00724 -0.0027,0.00707 -0.0033,0.00686 -0.0039,0.00622 -0.0048,0.0058 -0.0052,0.00538 -0.0062,0.00499 -0.0064,0.00432 -0.0071,0.00376 -0.0073,0.00309 -0.0075,0.00228 -0.0077,0.00165 -0.0079,8.438e-4 -0.0079,2.25e-4 -0.0083,-2.25e-4 -0.0081,-0.00123 -0.0081,-0.0019 -0.0079,-0.0025 -0.0075,-0.0033 -0.0072,-0.00415 -0.0069,-0.00454 -0.006,-0.0052 -0.0054,-0.0058 -0.005,-0.00601 -0.0044,-0.00686 -0.0038,-0.00707 -0.0029,-0.00724 -0.0021,-0.00766 0.03403,-0.012234 0.0023,0.00643 0.0029,0.00601 0.0038,0.00538 0.0044,0.0052 0.005,0.00432 0.0056,0.00376 0.006,0.00288 0.0062,0.00208 0.0066,0.00127 0.0066,3.881e-4 0.006,-3.881e-4 0.006,-8.437e-4 0.0058,-0.00165 0.005,-0.00186 0.0044,-0.0025 0.0041,-0.00334 0.0041,-0.00411 0.0031,-0.00499 0.0025,-0.0052 0.0012,-0.0058 4.22e-4,-0.0058 -2.11e-4,-0.00499 -0.0011,-0.00496 -0.0017,-0.00457 -0.0023,-0.00454 -0.0029,-0.00415 -0.0033,-0.00355 -0.0039,-0.00309 -0.0041,-0.0025 -0.0046,-0.00186 -0.0048,-0.00105 -0.03713,-0.00766 -0.0069,-0.00165 -0.0066,-0.00271 -0.0062,-0.0033 -0.006,-0.00415 -0.0054,-0.00457 -0.0048,-0.00538 -0.0041,-0.00559 -0.0035,-0.00622 -0.0027,-0.00664 -0.0021,-0.00686 -10e-4,-0.00703 -4.22e-4,-0.00728 4.22e-4,-0.00745 0.0012,-0.0077 0.0019,-0.00724 0.0027,-0.00728 0.0035,-0.00682 0.0041,-0.00643 0.0048,-0.00601 0.0052,-0.00541 0.006,-0.00496 0.0062,-0.00415 0.0069,-0.00373 0.007,-0.00271 0.0075,-0.00228 0.0075,-0.00123 0.0077,-6.328e-4 0.0075,1.969e-4 0.0077,0.00102 0.0075,0.0019 0.0071,0.0025 0.0071,0.0033 0.0064,0.00394 0.006,0.00457 0.0056,0.00517 0.0052,0.0058 0.0044,0.00626 0.0037,0.00661 0.0031,0.00707 0.0023,0.00724"
     style="fill:#000000;fill-opacity:1;fill-rule:nonzero;stroke:none"
     id="path3445" />
  <path
     inkscape:connector-curvature="0"
     d="m -16.453582,-4.5785969 -0.0572,0 0,-0.039234 0.153703,0 0,0.039234 -0.0572,0 0,0.2124844 -0.03931,0 0,-0.2124844"
     style="fill:#000000;fill-opacity:1;fill-rule:evenodd;stroke:none"
     id="path3447" />
  <path
     inkscape:connector-curvature="0"
     d="m -15.496207,-4.4759055 0.05129,0 -0.02563,-0.07323 -0.02566,0.07323 z m -0.07995,0.109793 0.08786,-0.2522461 0.03568,0 0.08764,0.2522461 -0.04166,0 -0.02436,-0.070488 -0.07889,0 -0.02436,0.070488 -0.04191,0"
     style="fill:#000000;fill-opacity:1;fill-rule:evenodd;stroke:none"
     id="path3449" />
  <path
     inkscape:connector-curvature="0"
     d="m -15.567222,-4.9651023 0.03952,0 0.0932,0.1721601 0,-0.1721601 0.03955,0 0,0.2568164 -0.0367,0 -0.09605,-0.1693125 0,0.1693125 -0.03952,0 z m -0.101672,0 0.03955,0 0,0.2568164 -0.03955,0 z m -0.203343,0 0.158168,0 0,0.039516 -0.118618,0 0,0.064898 0.07625,0 0,0.039516 -0.07625,0 0,0.1128867 -0.03955,0 0,-0.2568164"
     style="fill:#000000;fill-opacity:1;fill-rule:evenodd;stroke:none"
     id="path3459"
     sodipodi:nodetypes="ccccccccccccccccccccccccccc" />
  <path
     inkscape:connector-curvature="0"
     d="m -15.190488,-6.3320799 c -0.0155,0.030164 -0.01803,0.053684 -0.0093,0.086449 0.003,0.011215 0.0051,0.017684 0.01114,0.027598 0.0052,0.00851 0.0085,0.013395 0.0161,0.019828 0.0065,0.00541 0.01104,0.00731 0.0186,0.011145 0.016,0.00805 0.02626,0.010055 0.04373,0.013992 0.02011,0.0045 0.03185,0.00601 0.05242,0.00619 0.02401,1.772e-4 0.03744,-0.00345 0.0611,-0.00745 0.01666,-0.00281 0.02598,-0.00506 0.0425,-0.00865 0.0515,-0.01118 0.0804,-0.018633 0.130852,-0.03382 l 0.0068,-0.022922 -0.373992,-0.092356 z"
     style="fill:#000000;fill-opacity:1;fill-rule:nonzero;stroke:none"
     id="path3461" />
  <path
     inkscape:connector-curvature="0"
     d="m -16.302551,-6.5824978 1.406285,0.3516328 -0.0875,0.044297 -1.331226,-0.3459375 0.01244,-0.049992 z"
     style="fill:#000000;fill-opacity:1;fill-rule:nonzero;stroke:none"
     id="path3463" />
  <path
     inkscape:connector-curvature="0"
     d="m -15.606035,-6.8537283 -0.125719,0.1499414 0.141117,0.062227 0.06462,-0.1949063 -0.08001,-0.017262 z"
     style="fill:#000000;fill-opacity:1;fill-rule:nonzero;stroke:none"
     id="path3465" />
  <path
     inkscape:connector-curvature="0"
     d="m -15.660387,-6.9664392 c 0,-0.095309 0.07731,-0.1725469 0.172653,-0.1725469 0.09538,0 0.172687,0.077238 0.172687,0.1725469 0,0.095273 -0.07731,0.1725469 -0.172687,0.1725117 -0.09534,0 -0.172653,-0.077238 -0.172653,-0.1725117 z"
     style="fill:#000000;fill-opacity:1;fill-rule:nonzero;stroke:none"
     id="path3467" />
  <path
     d="m -16.152152,-6.5468142 0.157043,-0.2567813 c 0.01181,-0.017402 0.0219,-0.026086 0.04085,-0.035191 0.01445,-0.00696 0.0238,-0.00939 0.0398,-0.010195 l 0.31493,0 -0.02696,0.035871 -0.07862,0.1046138 -0.196032,0 -0.123258,0.2158945 z"
     style="fill:#000000;fill-opacity:1;fill-rule:nonzero;stroke:none"
     id="path3469"
     inkscape:connector-curvature="0"
     sodipodi:nodetypes="cccccccccc" />
  <path
     inkscape:connector-curvature="0"
     d="m -16.159957,-6.5202361 c 0,-0.038039 0.03083,-0.068871 0.06887,-0.068871 0.03807,0 0.06891,0.030832 0.06891,0.068871 0,0.038004 -0.03083,0.068836 -0.06887,0.068836 -0.03807,0 -0.06891,-0.030832 -0.06891,-0.068836 z"
     style="fill:#000000;fill-opacity:1;fill-rule:nonzero;stroke:none"
     id="path3471" />
  <path
     inkscape:connector-curvature="0"
     d="m -15.783047,-6.7272361 -0.170191,0.2740781 -2.45e-4,0.6289453 0.16091,0 -5.62e-4,-0.4507382 0.185273,0.129832 -0.04732,0.2566054 0.151242,0.036914 0.06163,-0.2819883 c 0.0045,-0.025418 0.0031,-0.041695 -0.0058,-0.065883 -0.0084,-0.022781 -0.01702,-0.035262 -0.03526,-0.051293 l -0.183692,-0.1230118 0.15736,-0.2568164 -0.273305,-0.096645 z"
     style="fill:#000000;fill-opacity:1;fill-rule:nonzero;stroke:none"
     id="path3473" />
  <path
     inkscape:connector-curvature="0"
     d="m -15.529605,-6.8311931 0.209285,0.4725703 -0.116403,0.05175 -0.214418,-0.4469063 0.121536,-0.077414 z"
     style="fill:#000000;fill-opacity:1;fill-rule:nonzero;stroke:none"
     id="path3475" />
  <path
     inkscape:connector-curvature="0"
     d="m -15.446988,-6.3334861 c 0,-0.035578 0.0289,-0.064406 0.06448,-0.064406 0.03561,0 0.06448,0.028863 0.06448,0.064406 0,0.035578 -0.02886,0.064441 -0.06448,0.064441 -0.03558,0 -0.06448,-0.028863 -0.06448,-0.064441 z"
     style="fill:#000000;fill-opacity:1;fill-rule:nonzero;stroke:none"
     id="path3477" />
  <path
     inkscape:connector-curvature="0"
     d="m -15.660527,-5.8624275 c 0,-0.042715 0.03463,-0.077344 0.07738,-0.077344 0.04275,0 0.07738,0.034629 0.07738,0.077344 3.4e-5,0.042715 -0.03463,0.077344 -0.07738,0.077344 -0.04275,0 -0.07738,-0.034629 -0.07738,-0.077344 z"
     style="fill:#000000;fill-opacity:1;fill-rule:nonzero;stroke:none"
     id="path3479" />
  <path
     inkscape:connector-curvature="0"
     d="m -15.956402,-5.8166541 c 0,-0.044437 0.03604,-0.080508 0.08051,-0.080508 0.04451,0 0.08054,0.03607 0.08054,0.080508 0,0.044438 -0.03604,0.080473 -0.08051,0.080473 -0.04451,0 -0.08054,-0.036035 -0.08054,-0.080473 z"
     style="fill:#000000;fill-opacity:1;fill-rule:nonzero;stroke:none"
     id="path3481" />
  <path
     inkscape:connector-curvature="0"
     d="m -15.01759,-7.009822 0.036,0.035965 -1.179,1.1781211 -0.036,-0.036 1.179,-1.1780859"
     style="fill:#ffffff;fill-opacity:1;fill-rule:nonzero;stroke:none"
     id="path3483" />
  <path
     inkscape:connector-curvature="0"
     d="m -14.94552,-6.9370486 0.03604,0.036 -1.178473,1.1775586 -0.03604,-0.035965 1.178472,-1.1775937"
     style="fill:#ffffff;fill-opacity:1;fill-rule:nonzero;stroke:none"
     id="path3485" />
  <path
     inkscape:connector-curvature="0"
     d="m -15.089766,-7.0817517 0.0359,0.035859 -1.178895,1.1780156 -0.03593,-0.035895 1.178929,-1.1779804"
     style="fill:#ffffff;fill-opacity:1;fill-rule:nonzero;stroke:none"
     id="path3487" />
  <path
     inkscape:connector-curvature="0"
     d="m -15.161555,-7.1542439 0.036,0.036 -1.179422,1.1785078 -0.036,-0.036 1.179422,-1.1785078"
     style="fill:#ffffff;fill-opacity:1;fill-rule:nonzero;stroke:none"
     id="path3489" />
</svg>
