<?xml version="1.0" encoding="UTF-8" standalone="no"?>
<svg
   xmlns:dc="http://purl.org/dc/elements/1.1/"
   xmlns:cc="http://creativecommons.org/ns#"
   xmlns:rdf="http://www.w3.org/1999/02/22-rdf-syntax-ns#"
   xmlns:svg="http://www.w3.org/2000/svg"
   xmlns="http://www.w3.org/2000/svg"
   xmlns:sodipodi="http://sodipodi.sourceforge.net/DTD/sodipodi-0.dtd"
   xmlns:inkscape="http://www.inkscape.org/namespaces/inkscape"
   version="1.1"
   preserveAspectRatio="xMidYMid meet"
   zoomAndPan="magnify"
   id="Civil_Air_Ensign_of_New_Zealand"
   viewBox="-16.875 -7.5 2.5182427 2.2367576"
   width="89.537521"
   height="89.470306"
   inkscape:version="0.48.2 r9819"
   sodipodi:docname="Chile PT-2.svg">
  <metadata
     id="metadata31">
    <rdf:RDF>
      <cc:Work
         rdf:about="">
        <dc:format>image/svg+xml</dc:format>
        <dc:type
           rdf:resource="http://purl.org/dc/dcmitype/StillImage" />
        <dc:title></dc:title>
      </cc:Work>
    </rdf:RDF>
  </metadata>
  <sodipodi:namedview
     pagecolor="#ffffff"
     bordercolor="#666666"
     borderopacity="1"
     objecttolerance="10"
     gridtolerance="10"
     guidetolerance="10"
     inkscape:pageopacity="0"
     inkscape:pageshadow="2"
     inkscape:window-width="1280"
     inkscape:window-height="1004"
     id="namedview29"
     showgrid="false"
     inkscape:zoom="5.6568543"
     inkscape:cx="60.562897"
     inkscape:cy="40.569487"
     inkscape:window-x="-8"
     inkscape:window-y="-8"
     inkscape:window-maximized="1"
     inkscape:current-layer="Civil_Air_Ensign_of_New_Zealand"
     fit-margin-top="0"
     fit-margin-left="0"
     fit-margin-right="0"
     fit-margin-bottom="0" />
  <defs
     id="defs3">
    <clipPath
       id="border">
      <rect
         x="-16.875"
         y="-7.5"
         width="33.75"
         height="15"
         id="rect6" />
    </clipPath>
  </defs>
  <path
     inkscape:connector-curvature="0"
     d="m -15.528383,-7.6035686 1.135371,1.1348437 c 0.04834,0.048305 0.04834,0.1258945 0,0.1741992 l -1.135371,1.1348789 c -0.04792,0.048269 -0.126422,0.048269 -0.174761,0 l -1.135758,-1.1348789 c -0.04834,-0.048305 -0.04792,-0.1263164 0,-0.1741992 l 1.135758,-1.1348437 c 0.04834,-0.048305 0.126843,-0.048305 0.174761,0"
     style="fill:#f57a2b;fill-opacity:1;fill-rule:nonzero;stroke:none"
     id="path3357" />
  <path
     inkscape:connector-curvature="0"
     d="m -15.531265,-7.5629983 1.097648,1.0971562 c 0.05432,0.046758 0.07084,0.1110235 0,0.1684336 l -1.097648,1.0971562 c -0.03607,0.043524 -0.103993,0.07657 -0.168961,0 l -1.098071,-1.0971562 c -0.052,-0.039726 -0.06905,-0.1147851 0,-0.1684336 l 1.098071,-1.0971562 c 0.06683,-0.079383 0.129445,-0.045492 0.168961,0 z"
     style="fill:#000000;fill-opacity:1;fill-rule:nonzero;stroke:none"
     id="path3359" />
  <path
     inkscape:connector-curvature="0"
     d="m -14.458297,-6.3601624 c 0.0058,-0.00577 0.0091,-0.013605 0.0091,-0.021445 0,-0.00784 -0.0033,-0.016102 -0.0091,-0.021902 l -1.135617,-1.1350899 c -0.01364,-0.011742 -0.02848,-0.012094 -0.04321,0 l -1.137129,1.1361094 c -0.01037,0.012691 -0.01125,0.028266 0,0.041168 l 1.136742,1.1358984 c 0.0135,0.012726 0.03139,0.012094 0.04395,0 l 1.135265,-1.1347383 z"
     style="fill:#f57a2b;fill-opacity:1;fill-rule:nonzero;stroke:none"
     id="path3361" />
  <path
     inkscape:connector-curvature="0"
     d="m -15.49632,-6.1990765 0,0.4077774 c 5.98e-4,0.032625 -0.02545,0.059449 -0.05808,0.059449 -0.03262,0 -0.0591,-0.026824 -0.0591,-0.059449 l 0,-0.7358203 -0.291621,-0.013148 c -0.01891,5.625e-4 -0.03593,-0.00819 -0.04686,-0.021902 l -0.168082,0 0,0.2339297 -0.227672,0 0,-0.2917266 0.211183,0 0.176485,-9.14e-4 c 0.009,-0.02141 0.03034,-0.036457 0.05495,-0.036457 l 0.299531,0 c 0.0014,-1.04e-4 0.0027,-1.406e-4 0.0041,-1.406e-4 l 0.395507,0 0.06015,-0.1598203 c 0.0095,-0.031184 0.04257,-0.048656 0.07362,-0.038602 0.03104,0.01009 0.04792,0.04377 0.03783,0.074777 l -0.08293,0.2462695 -0.07098,0 -0.153106,0.0039 0,0.7396523 c 5.98e-4,0.032625 -0.02545,0.059449 -0.05808,0.059449 -0.03262,0 -0.0591,-0.026824 -0.0591,-0.059449 l 0,-0.4077774 -0.03776,0 z"
     style="fill:#000000;fill-opacity:1;fill-rule:nonzero;stroke:none"
     id="path3363" />
  <path
     inkscape:connector-curvature="0"
     d="m -15.620105,-6.8493968 c 0,-0.08107 0.06578,-0.1467773 0.146918,-0.1467773 0.08114,0 0.146918,0.065707 0.146918,0.1467773 0,0.081106 -0.06578,0.1468125 -0.146918,0.1468125 -0.08114,0 -0.146918,-0.065707 -0.146918,-0.1468125 z"
     style="fill:#000000;fill-opacity:1;fill-rule:nonzero;stroke:none"
     id="path3365" />
</svg>
