<?xml version="1.0" encoding="UTF-8" standalone="no"?>
<svg
   xmlns:dc="http://purl.org/dc/elements/1.1/"
   xmlns:cc="http://creativecommons.org/ns#"
   xmlns:rdf="http://www.w3.org/1999/02/22-rdf-syntax-ns#"
   xmlns:svg="http://www.w3.org/2000/svg"
   xmlns="http://www.w3.org/2000/svg"
   xmlns:sodipodi="http://sodipodi.sourceforge.net/DTD/sodipodi-0.dtd"
   xmlns:inkscape="http://www.inkscape.org/namespaces/inkscape"
   version="1.1"
   preserveAspectRatio="xMidYMid meet"
   zoomAndPan="magnify"
   id="Civil_Air_Ensign_of_New_Zealand"
   viewBox="-16.875 -7.5 2.504159 2.2298124"
   width="89.036766"
   height="89.192497"
   inkscape:version="0.48.2 r9819"
   sodipodi:docname="Chile PT-3.svg">
  <metadata
     id="metadata31">
    <rdf:RDF>
      <cc:Work
         rdf:about="">
        <dc:format>image/svg+xml</dc:format>
        <dc:type
           rdf:resource="http://purl.org/dc/dcmitype/StillImage" />
        <dc:title></dc:title>
      </cc:Work>
    </rdf:RDF>
  </metadata>
  <sodipodi:namedview
     pagecolor="#ffffff"
     bordercolor="#666666"
     borderopacity="1"
     objecttolerance="10"
     gridtolerance="10"
     guidetolerance="10"
     inkscape:pageopacity="0"
     inkscape:pageshadow="2"
     inkscape:window-width="1280"
     inkscape:window-height="1004"
     id="namedview29"
     showgrid="false"
     inkscape:zoom="5.6568543"
     inkscape:cx="68.311722"
     inkscape:cy="42.016782"
     inkscape:window-x="-8"
     inkscape:window-y="-8"
     inkscape:window-maximized="1"
     inkscape:current-layer="Civil_Air_Ensign_of_New_Zealand"
     fit-margin-top="0"
     fit-margin-left="0"
     fit-margin-right="0"
     fit-margin-bottom="0" />
  <defs
     id="defs3">
    <clipPath
       id="border">
      <rect
         x="-16.875"
         y="-7.5"
         width="33.75"
         height="15"
         id="rect6" />
    </clipPath>
  </defs>
  <path
     inkscape:connector-curvature="0"
     d="m -15.535894,-7.6032403 1.129008,1.1313281 c 0.04806,0.048129 0.04806,0.1255078 0,0.1736367 l -1.129008,1.1313281 c -0.04767,0.048164 -0.125719,0.048164 -0.173777,0 l -1.12943,-1.1313281 c -0.04806,-0.048129 -0.04767,-0.1259297 0,-0.1736367 l 1.12943,-1.1313281 c 0.04806,-0.048164 0.126105,-0.048164 0.173777,0"
     style="fill:#f57a2b;fill-opacity:1;fill-rule:nonzero;stroke:none"
     id="path3375" />
  <path
     inkscape:connector-curvature="0"
     d="m -15.538777,-7.5627755 1.091496,1.0937461 c 0.05404,0.046617 0.07045,0.1106367 0,0.1678711 l -1.091496,1.093746 c -0.03589,0.043383 -0.103429,0.076324 -0.168011,0 l -1.091918,-1.093746 c -0.05172,-0.039586 -0.06866,-0.1144336 0,-0.1678711 l 1.091918,-1.0937461 c 0.06644,-0.079137 0.128707,-0.045351 0.168011,0 z"
     style="fill:#000000;fill-opacity:1;fill-rule:nonzero;stroke:none"
     id="path3377" />
  <path
     inkscape:connector-curvature="0"
     d="m -14.471785,-6.3637013 c 0.0057,-0.00577 0.009,-0.01357 0.009,-0.02141 0,-0.0078 -0.0033,-0.016031 -0.009,-0.021797 l -1.129289,-1.131539 c -0.01357,-0.011742 -0.0283,-0.012094 -0.04296,0 l -1.130765,1.1325585 c -0.01034,0.012656 -0.01121,0.02816 0,0.041027 l 1.130379,1.1323476 c 0.01343,0.012691 0.03122,0.012059 0.0437,0 l 1.128937,-1.1311875 z"
     style="fill:#f57a2b;fill-opacity:1;fill-rule:nonzero;stroke:none"
     id="path3379" />
  <path
     inkscape:connector-curvature="0"
     d="m -16.080886,-6.6050489 -0.05122,0.1788398 -0.08462,0.1583086 -0.139289,0.1138359 0,0.018844 0.296965,0 0,-0.1668867 0.07646,0 0,-0.1241016 -0.07646,0 0,-0.1788398 -0.02183,0 z"
     style="fill:#000000;fill-opacity:1;fill-rule:nonzero;stroke:none"
     id="path3381" />
  <path
     inkscape:connector-curvature="0"
     d="m -15.824527,-6.5657091 0.815274,0.0032 0,0.357293 -0.92141,0 -0.05024,-0.052805 0,-0.2311172 0.156375,-0.07657 z"
     style="fill:#000000;fill-opacity:1;fill-rule:nonzero;stroke:none"
     id="path3383" />
  <path
     inkscape:connector-curvature="0"
     d="m -15.594429,-6.830752 0.41298,0 0,0.2908828 -0.41298,0 0,-0.2908828 z"
     style="fill:#000000;fill-opacity:1;fill-rule:nonzero;stroke:none"
     id="path3385" />
  <path
     inkscape:connector-curvature="0"
     d="m -15.540324,-6.7749239 0.198598,0 0,0.2043633 -0.198598,0 0,-0.2043633 z"
     style="fill:#f57a2b;fill-opacity:1;fill-rule:nonzero;stroke:none"
     id="path3387" />
  <path
     inkscape:connector-curvature="0"
     d="m -15.895296,-6.2237794 c 0,-0.1007578 0.08153,-0.1824258 0.182109,-0.1824258 0.100582,0 0.182145,0.081668 0.182145,0.1824258 0,0.1007578 -0.08156,0.1824258 -0.182145,0.1824258 -0.100582,0 -0.182109,-0.081668 -0.182109,-0.1824258 z"
     style="fill:#f57a2b;fill-opacity:1;fill-rule:nonzero;stroke:none"
     id="path3389" />
  <path
     inkscape:connector-curvature="0"
     d="m -15.877156,-6.2243067 c 0,-0.090949 0.07358,-0.1646368 0.164356,-0.1646368 0.09077,0 0.164355,0.073688 0.164355,0.1646368 0,0.090914 -0.07358,0.1646367 -0.164355,0.1646367 -0.09077,0 -0.164356,-0.073723 -0.164356,-0.1646367"
     style="fill:#000000;fill-opacity:1;fill-rule:nonzero;stroke:none"
     id="path3391" />
  <path
     inkscape:connector-curvature="0"
     d="m -15.782867,-6.2245177 c 0,-0.040289 0.03262,-0.072984 0.07284,-0.072984 0.04025,0 0.07284,0.032695 0.07284,0.072984 0,0.040324 -0.03259,0.072984 -0.07284,0.072984 -0.04022,0 -0.07284,-0.03266 -0.07284,-0.072984 z"
     style="fill:#f57a2b;fill-opacity:1;fill-rule:nonzero;stroke:none"
     id="path3393" />
  <path
     inkscape:connector-curvature="0"
     d="m -15.418964,-6.2243419 c 0,-0.1007578 0.08156,-0.1824258 0.182144,-0.1824258 0.100582,0 0.18211,0.081668 0.18211,0.1824258 0,0.1007578 -0.08153,0.1824258 -0.18211,0.1824258 -0.100582,0 -0.182144,-0.081668 -0.182144,-0.1824258 z"
     style="fill:#f57a2b;fill-opacity:1;fill-rule:nonzero;stroke:none"
     id="path3395" />
  <path
     inkscape:connector-curvature="0"
     d="m -15.400824,-6.2248692 c 0,-0.090949 0.07362,-0.1646368 0.164391,-0.1646368 0.09077,0 0.164355,0.073688 0.164355,0.1646368 0,0.090914 -0.07358,0.1646367 -0.164355,0.1646367 -0.09077,0 -0.164391,-0.073723 -0.164391,-0.1646367"
     style="fill:#000000;fill-opacity:1;fill-rule:nonzero;stroke:none"
     id="path3397" />
  <path
     inkscape:connector-curvature="0"
     d="m -15.306499,-6.2250802 c 0,-0.040289 0.03263,-0.072984 0.07284,-0.072984 0.04022,0 0.07284,0.032695 0.07284,0.072984 0,0.040289 -0.03262,0.072984 -0.07284,0.072984 -0.04022,0 -0.07284,-0.032695 -0.07284,-0.072984 z"
     style="fill:#f57a2b;fill-opacity:1;fill-rule:nonzero;stroke:none"
     id="path3399" />
</svg>
