<?xml version="1.0" encoding="UTF-8" standalone="no"?>
<!-- Created with Inkscape (http://www.inkscape.org/) -->

<svg
   xmlns:dc="http://purl.org/dc/elements/1.1/"
   xmlns:cc="http://creativecommons.org/ns#"
   xmlns:rdf="http://www.w3.org/1999/02/22-rdf-syntax-ns#"
   xmlns:svg="http://www.w3.org/2000/svg"
   xmlns="http://www.w3.org/2000/svg"
   xmlns:sodipodi="http://sodipodi.sourceforge.net/DTD/sodipodi-0.dtd"
   xmlns:inkscape="http://www.inkscape.org/namespaces/inkscape"
   version="1.1"
   width="303.28125"
   height="302.6261"
   id="svg2"
   xml:space="preserve"
   inkscape:version="0.48.2 r9819"
   sodipodi:docname="Chile RO-12b.svg"><sodipodi:namedview
     pagecolor="#ffffff"
     bordercolor="#666666"
     borderopacity="1"
     objecttolerance="10"
     gridtolerance="10"
     guidetolerance="10"
     inkscape:pageopacity="0"
     inkscape:pageshadow="2"
     inkscape:window-width="1280"
     inkscape:window-height="1004"
     id="namedview19"
     showgrid="false"
     inkscape:zoom="1.4142136"
     inkscape:cx="106.15915"
     inkscape:cy="113.90113"
     inkscape:window-x="-8"
     inkscape:window-y="-8"
     inkscape:window-maximized="1"
     inkscape:current-layer="svg2"
     fit-margin-top="0"
     fit-margin-left="0"
     fit-margin-right="0"
     fit-margin-bottom="0"
     showguides="true"
     inkscape:guide-bbox="true" /><defs
     id="defs20" /><metadata
     id="metadata8"><rdf:RDF><cc:Work
         rdf:about=""><dc:format>image/svg+xml</dc:format><dc:type
           rdf:resource="http://purl.org/dc/dcmitype/StillImage" /><dc:title></dc:title></cc:Work></rdf:RDF></metadata><path
     inkscape:connector-curvature="0"
     d="m 302.27351,15.864108 -0.85005,-4.671171 -2.12517,-4.246139 -3.40024,-3.39608 -3.82111,-2.125153 -4.67534,-0.425031 -271.094589,0 -4.675338,0.425031 -4.250306,2.125153 -3.39608,3.39608 -2.125153,4.246139 -0.850062,4.671171 0,270.465382 0.850062,4.667 2.125153,4.24614 3.39608,3.40025 4.250306,2.12099 4.675338,0.85006 271.094589,0 4.67534,-0.85006 3.82111,-2.12099 3.40024,-3.40025 2.12517,-4.24614 0.85005,-4.667 0,-270.465382 z"
     style="fill:#ffffff;stroke:#000000;stroke-width:2.00014448;stroke-linecap:round;stroke-linejoin:round;stroke-miterlimit:10;stroke-opacity:1;stroke-dasharray:none"
     id="path14289" /><path
     inkscape:connector-curvature="0"
     d="m 297.17314,15.864108 -0.85005,-3.825276 -2.12099,-3.39608 -2.97522,-2.120986 -3.82528,-0.850061 -271.094589,0 -3.825277,0.850061 -3.400245,2.120986 -2.125154,3.39608 -0.850061,3.825276 0,270.465382 0.850061,3.81694 2.125154,3.40025 3.400245,2.12099 3.825277,0.85006 271.094589,0 3.82528,-0.85006 2.97522,-2.12099 2.12099,-3.40025 0.85005,-3.81694 0,-270.465382"
     style="fill:#244ba6;fill-opacity:1;fill-rule:evenodd;stroke:none"
     id="path14285" /><path
     inkscape:connector-curvature="0"
     d="m 104.6884,63.417539 102.40324,0 0,27.59783 -74.78458,0 0,42.882271 51.84125,0 0,27.602 -51.84125,0 0,50.09945 79.45991,0 0,27.17279 -107.07857,0 0,-175.354341"
     style="fill:#ffffff;fill-opacity:1;fill-rule:evenodd;stroke:none"
     id="path14287" /></svg>