<?xml version="1.0" encoding="UTF-8" standalone="no"?>
<!-- Created with Inkscape (http://www.inkscape.org/) -->

<svg
   xmlns:dc="http://purl.org/dc/elements/1.1/"
   xmlns:cc="http://creativecommons.org/ns#"
   xmlns:rdf="http://www.w3.org/1999/02/22-rdf-syntax-ns#"
   xmlns:svg="http://www.w3.org/2000/svg"
   xmlns="http://www.w3.org/2000/svg"
   xmlns:sodipodi="http://sodipodi.sourceforge.net/DTD/sodipodi-0.dtd"
   xmlns:inkscape="http://www.inkscape.org/namespaces/inkscape"
   version="1.1"
   width="275.62805"
   height="454.65625"
   id="svg2"
   xml:space="preserve"
   inkscape:version="0.48.2 r9819"
   sodipodi:docname="Chile RA-1.svg"><sodipodi:namedview
     pagecolor="#ffffff"
     bordercolor="#666666"
     borderopacity="1"
     objecttolerance="10"
     gridtolerance="10"
     guidetolerance="10"
     inkscape:pageopacity="0"
     inkscape:pageshadow="2"
     inkscape:window-width="1280"
     inkscape:window-height="1004"
     id="namedview19"
     showgrid="false"
     inkscape:zoom="1.4142136"
     inkscape:cx="122.01689"
     inkscape:cy="144.24148"
     inkscape:window-x="-8"
     inkscape:window-y="-8"
     inkscape:window-maximized="1"
     inkscape:current-layer="svg2"
     fit-margin-top="0"
     fit-margin-left="0"
     fit-margin-right="0"
     fit-margin-bottom="0"
     showguides="true"
     inkscape:guide-bbox="true" /><defs
     id="defs20" /><metadata
     id="metadata8"><rdf:RDF><cc:Work
         rdf:about=""><dc:format>image/svg+xml</dc:format><dc:type
           rdf:resource="http://purl.org/dc/dcmitype/StillImage" /><dc:title></dc:title></cc:Work></rdf:RDF></metadata><path
     inkscape:connector-curvature="0"
     d="m 252.98518,453.64553 5.41193,-0.77492 5.40775,-2.32058 4.64117,-3.48713 3.47879,-4.64534 1.92897,-5.03279 0.77492,-5.80772 0,-408.877126 -0.77492,-5.420254 -1.92897,-5.420254 -3.47879,-4.645336 -4.64117,-3.487128 -5.40775,-1.937293 -5.41193,-0.774917 -229.950424,0 -5.79521,0.774917 -5.41192,1.937293 -4.2495496,3.487128 -3.47879,4.645336 -2.32058,5.420254 -0.77076,5.420254 0,408.877126 0.77076,5.80772 2.32058,5.03279 3.47879,4.64534 4.2495496,3.48713 5.41192,2.32058 5.79521,0.77492 z"
     style="fill:#ffffff;stroke:#000000;stroke-width:1.99978626;stroke-linecap:round;stroke-linejoin:round;stroke-miterlimit:10;stroke-opacity:1;stroke-dasharray:none"
     id="path14911"
     sodipodi:nodetypes="ccccccccccccccccccccccccccccc" /><path
     inkscape:connector-curvature="0"
     d="m 92.985616,95.49214 -2.70388,0.77492 -1.93312,1.93312 -0.77076,2.71222 0,105.31791 32.075754,0 0,-78.59994 44.82854,0 -4.63701,13.16527 -0.77075,2.70804 0,2.70804 1.15821,2.71221 1.93312,1.54984 2.70389,0.38746 2.70804,-1.16238 0.77075,-0.38746 50.62792,-37.94178 -51.39867,-37.94594 -2.70804,-1.16238 -2.70389,0.38746 -1.93312,1.54567 -1.15821,2.32475 0,2.71221 5.40776,16.26076 -71.496534,0"
     style="fill:#000000;fill-opacity:1;fill-rule:nonzero;stroke:none"
     id="path14915" /><path
     inkscape:connector-curvature="0"
     d="m 121.19927,270.89006 3.47879,0 5.02447,13.55272 5.41192,-13.55272 3.47463,0 0,22.84339 -3.47463,0 0,-12.7778 -5.41192,12.7778 -5.02447,-12.7778 0,12.7778 -3.47879,0 0,-22.84339 z m -39.033324,0 13.14026,0 0,3.87042 -9.66147,0 0,5.42026 6.95759,0 0,3.48712 -6.95759,0 0,6.58263 10.43222,0 0,3.48296 -13.91101,0 0,-22.84339 z m -11.5946,9.29068 1.93313,-0.77075 0.77075,-1.9373 -0.77075,-1.93729 -1.93313,-0.77492 -5.41192,0 0,5.42026 5.41192,0 z m 86.569924,-5.42026 -5.41193,0 0,-3.87042 13.91518,0 0,3.87042 -5.02446,0 0,18.97297 -3.47879,0 0,-18.97297 z m -13.14027,-3.87042 3.86625,0 0,22.84339 -3.86625,0 0,-22.84339 z m 25.89306,0 3.4788,0 0,22.84339 -3.4788,0 0,-22.84339 z m 15.46085,19.36043 2.31643,-0.77491 1.93312,-1.93313 0.77492,-3.48713 0,-3.48296 -0.77492,-3.09967 -1.93312,-1.93729 -2.31643,-0.77492 -3.09133,0 0,15.49001 3.09133,0 z m 17.38981,-2.32475 1.15821,1.9373 2.32059,0.77491 2.31641,-0.77491 1.54984,-1.9373 0.77075,-5.42025 -0.77075,-5.42026 -1.54984,-1.93312 -2.31641,-0.77492 -2.32059,0.77492 -1.15821,1.93312 -0.77492,5.42026 0.77492,5.42025 z m -141.447384,-17.03568 9.27401,0 3.09134,1.16238 2.32058,2.32475 0.77075,3.0955 -0.77075,3.09967 -2.32058,2.32059 -3.09134,0.77491 -5.41192,0 0,10.06559 -3.86209,0 0,-22.84339 z m 39.033334,0 8.50325,0 2.70389,0.77492 2.32058,1.93729 1.15821,2.32059 0,3.09967 -1.15821,2.32475 -2.32058,1.93313 3.86625,10.45304 -3.47879,0 -3.86626,-10.06559 -4.24954,0 0,10.06559 -3.4788,0 0,-22.84339 z m 78.45411,0 6.57013,0 3.09134,0.77492 2.31642,1.54984 1.93312,2.70804 1.15821,4.25788 0,4.6495 -1.15821,4.25788 -1.93312,2.70804 -2.31642,1.54984 -3.09134,0.38745 -6.57013,0 0,-22.84339 z m 20.48115,18.19806 1.54566,2.70804 2.32058,1.93729 3.09135,0.38746 3.09133,-0.38746 2.70388,-1.93729 1.54567,-2.70804 0.77492,-6.58263 -0.77492,-6.58263 -1.54567,-2.70804 -2.70388,-1.9373 -3.09133,-0.77492 -3.09135,0.77492 -2.32058,1.9373 -1.54566,2.70804 -1.15821,6.58263 1.15821,6.58263 z m -90.43201,-8.90738 1.92897,-0.77075 0.77492,-1.9373 -0.77492,-1.93729 -1.92897,-0.77492 -5.02445,0 0,5.42026 5.02445,0"
     style="fill:#000000;fill-opacity:1;fill-rule:evenodd;stroke:none"
     id="path14917" /><path
     inkscape:connector-curvature="0"
     d="m 184.19254,317.73922 -0.77075,6.19517 0.77075,6.58263 1.54566,2.71221 2.32059,1.93313 3.09134,0.77909 3.09133,-0.77909 2.70805,-1.93313 1.54567,-2.71221 0.77075,-6.58263 -0.77075,-6.19517 -1.54567,-2.70804 -2.70805,-1.93729 -3.09133,-0.77492 -3.09134,0.77492 -2.32059,1.93729 -1.54566,2.70804 z m -5.02446,-0.77075 -1.54568,-2.32475 -2.31641,-1.54983 -3.09134,-0.77492 -2.70805,0.38746 -2.31641,1.54983 -1.93312,2.32475 -1.15822,5.0328 0,5.03279 1.15822,4.64534 1.93312,2.71221 2.31641,1.54567 3.09135,0.39163 2.70804,-0.77909 2.31641,-1.93313 1.54568,-2.32475 -3.47463,-1.15821 -1.16238,1.93313 -2.31642,0.77492 -1.93313,-0.77492 -1.54566,-1.54984 -1.15821,-3.87042 0,-4.25787 1.15821,-3.87042 1.54566,-1.54984 1.93313,-0.77491 2.31642,0.77491 1.16238,1.93313 3.47463,-1.54567 z m -50.62376,-4.26204 8.49909,0 2.70804,0.38746 2.31643,1.93729 1.16237,2.70804 0,2.71221 -1.16237,2.71221 -2.31643,1.54567 3.86209,10.84051 -3.4788,0 -3.86208,-10.06559 -4.25372,0 0,10.06559 -3.47462,0 0,-22.84339 z m -42.512134,0 8.4991,0 2.70805,0.38746 2.31641,1.93729 1.162384,2.70804 0,2.71221 -1.162384,2.71221 -2.31641,1.54567 3.862084,10.84051 -3.862084,0 -3.47881,-10.06559 -4.2537,0 0,10.06559 -3.47464,0 0,-22.84339 z m 118.645664,0 3.47879,0 8.49909,15.10255 0,-15.10255 3.4788,0 0,22.84339 -3.4788,0 -8.49909,-15.09839 0,15.09839 -3.47879,0 0,-22.84339 z m -17.00651,17.03984 1.16237,1.93313 2.31642,0.77492 2.32058,-0.77492 1.54567,-1.93313 0.77075,-5.81188 -0.77075,-5.42025 -1.54567,-1.93313 -2.32058,-0.77491 -2.31642,0.77491 -1.16237,1.93313 -0.77076,5.42025 0.77076,5.81188 z m -50.62793,-7.745 1.93313,-0.77492 0.77491,-2.32475 -0.77491,-1.93313 -1.93313,-0.77491 -5.02447,0 0,5.80771 5.02447,0 z m -19.71039,3.48296 -2.31642,-6.58263 -2.32059,6.58263 4.63701,0 z m -4.24955,-12.7778 3.47879,0 7.72834,22.84339 -3.86208,0 -1.93313,-6.57846 -7.34504,0 -1.93314,6.57846 -3.86208,0 7.72834,-22.84339 z m -36.329454,0 3.4788,0 0,22.84339 -3.4788,0 0,-22.84339 z m 17.77727,9.29484 1.93313,-0.77492 0.77492,-2.32475 -0.77492,-1.93313 -1.93313,-0.77491 -5.02446,0 0,5.80771 5.02446,0 z m -39.03333,-9.29484 3.86626,0 4.637,15.49001 5.02446,-15.49001 3.86626,0 -7.34505,22.84339 -2.70388,0 -7.34505,-22.84339"
     style="fill:#000000;fill-opacity:1;fill-rule:evenodd;stroke:none"
     id="path14919" /><path
     inkscape:connector-curvature="0"
     d="m 61.297336,369.62534 0.77075,3.0955 1.54568,2.32476 2.32058,1.93312 3.09133,0.39163 2.70388,-0.39163 2.70805,-1.93312 1.54566,-2.32476 0.77075,-3.0955 0,-15.49001 -3.47879,0 0,15.49001 -0.77075,2.32476 -1.54567,1.54983 -1.93313,0.38329 -1.93312,-0.38329 -1.54567,-1.54983 -0.77076,-2.32476 0,-15.49001 -3.47879,0 0,15.49001 z m 54.877474,-15.49001 8.50325,0 2.70389,0.77492 2.32058,1.93729 1.15821,2.32059 0,3.09967 -1.15821,2.32475 -2.32058,1.93729 4.2537,10.44888 -3.86625,0 -3.86625,-10.06559 -4.24954,0 0,10.06559 -3.4788,0 0,-22.84339 z m 20.48531,17.81477 1.15821,3.0955 2.70387,1.93312 3.09134,0.39163 3.09133,-0.39163 2.32059,-1.93312 1.54567,-3.0955 1.15821,-6.19934 -1.15821,-6.58263 -1.54567,-2.70805 -2.32059,-1.93729 -3.09133,-0.77075 -3.09134,0.77075 -2.70387,1.93729 -1.15821,2.70805 -1.16238,6.58263 1.16238,6.19934 z m 18.93547,1.1582 3.4788,-1.54566 0.77075,1.54566 1.54567,0.77492 1.93312,0 1.54568,-0.77492 1.16237,-1.54566 0.38329,-1.54984 0,-15.87747 3.47879,0 0,15.87747 -0.77075,3.0955 -1.93312,2.71221 -3.09134,1.54984 -3.47879,0 -3.09133,-1.54984 -1.93314,-2.71221 z m 30.14261,-5.80771 -2.31641,-6.58263 -2.32059,6.58263 4.637,0 z m -45.98675,3.87459 1.54567,1.93312 2.31642,0.77492 2.32059,-0.77492 1.1582,-1.93312 0.77492,-5.42442 -0.77492,-5.42026 -1.1582,-2.32058 -2.32059,-0.38746 -2.31642,0.77492 -1.54567,1.93312 -0.77491,5.42026 0.77491,5.42442 z m -15.07339,-7.74501 1.93314,-0.77492 0.77075,-1.93729 -0.77075,-1.93312 -1.93314,-0.77492 -5.02445,0 0,5.42025 5.02445,0 z m 96.23139,3.87042 -7.72834,-13.16526 4.24954,0 5.41192,8.90738 5.40776,-8.90738 4.25371,0 -7.73251,13.16526 0,9.67813 -3.86208,0 0,-9.67813 z m -140.289174,6.58263 10.43638,-15.8733 -9.27817,0 0,-3.87459 14.29847,0 0,2.71221 -10.81968,16.65239 10.81968,0 0,3.47879 -15.45668,0 0,-3.0955 z m 101.255844,-19.74789 3.47879,0 7.72834,22.84339 -3.86625,0 -1.93312,-6.19517 -7.34089,0 -2.32059,6.19517 -3.47462,0 7.72834,-22.84339 z m -138.356044,0 3.47879,0 0,19.3646 10.04476,0 0,3.47879 -13.52355,0 0,-22.84339"
     style="fill:#000000;fill-opacity:1;fill-rule:evenodd;stroke:none"
     id="path14921" /><path
     inkscape:connector-curvature="0"
     d="m 202.74472,419.18254 3.09134,-0.77074 2.32058,-1.9373 1.54567,-2.70804 1.15821,-6.58263 -1.15821,-6.19517 -1.54567,-3.09967 -2.32058,-1.54984 -3.09134,-0.77491 -3.09134,0.77491 -2.70387,1.54984 -1.54983,3.09967 -0.77076,6.19517 0.77076,6.58263 1.54983,2.70804 2.70387,1.9373 3.09134,0.77074 z m -27.82619,0 2.70387,-0.77074 2.32059,-1.9373 1.54567,-2.32058 -3.4788,-1.16238 -1.15821,1.9373 -2.32058,0.77074 -1.93312,-0.77074 -1.54568,-1.55401 -1.15821,-3.87042 0,-4.25787 1.15821,-3.87042 1.54568,-1.54984 1.93312,-0.77492 2.32058,0.77492 1.15821,1.54984 3.4788,-1.16238 -1.54567,-2.32475 -2.32059,-1.93313 -3.09133,-0.39162 -2.70388,0.39162 -2.32059,1.54567 -1.92895,2.32475 -1.16238,5.0328 0,5.03279 1.16238,4.64534 1.92895,2.71221 2.32059,1.54983 3.09134,0.38329 z m -29.37186,-7.74083 0.38746,3.0955 1.93312,2.32475 2.31643,1.54984 3.09133,0.77074 2.70804,-0.77074 2.31642,-1.54984 1.93313,-2.32475 0.38746,-3.0955 0,-15.48585 -3.47879,0 0,15.48585 -0.38746,1.93312 -1.54568,1.55401 -1.93312,0.77074 -2.31642,-0.77074 -1.54567,-1.55401 -0.38746,-1.93312 0,-15.48585 -3.47879,0 0,15.48585 z m -33.23394,7.74083 3.09133,-0.77074 2.31641,-1.9373 1.54568,-2.32058 -3.4788,-1.16238 -1.15821,1.9373 -2.31641,0.77074 -2.3206,-0.77074 -1.15821,-1.55401 -1.16237,-3.87042 0,-4.25787 1.16237,-3.87042 1.15821,-1.54984 2.3206,-0.77492 1.92895,0.77492 1.54567,1.54984 3.09134,-1.16238 -1.54567,-2.32475 -2.31642,-1.93313 -2.70387,-0.39162 -2.70806,0.39162 -2.70387,1.54567 -1.54567,2.32475 -1.16237,5.0328 0,5.03279 1.16237,4.64534 1.54567,2.71221 2.70387,1.54983 2.70806,0.38329 z m -35.942004,-11.22379 3.86209,10.8405 -3.4788,0 -3.86208,-10.06976 -4.25372,0 0,10.06976 -3.47879,0 0,-22.84339 8.50326,0 2.70804,0.38329 2.31641,1.9373 1.15822,2.71221 0,2.70804 -1.15822,2.70804 -2.31641,1.55401 z m -23.18919,0.77074 -5.41192,0 0,10.06976 -3.47879,0 0,-22.84339 8.89071,0 3.09133,0.77075 2.31643,2.32475 1.16237,3.09967 -1.16237,3.48296 -2.31643,2.32476 -3.09133,0.77074 z m 163.090904,-12.77363 3.09134,0 8.50326,15.09839 0,-15.09839 3.47462,0 0,22.84339 -3.09133,0 -8.49909,-15.10255 0,15.10255 -3.4788,0 0,-22.84339 z m -17.39397,16.64822 1.54566,2.32476 2.32059,0.77074 2.32059,-0.77074 1.15821,-2.32476 0.77075,-5.42025 -0.77075,-5.42442 -1.15821,-1.93313 -2.32059,-0.77492 -2.32059,0.77492 -1.54566,1.93313 -0.77075,5.42442 0.77075,5.42025 z m -13.14027,-16.64822 3.4788,0 0,22.84339 -3.4788,0 0,-22.84339 z m -112.075514,9.29068 1.93312,-1.16238 0.77492,-1.93313 -0.77492,-1.93729 -1.93312,-0.77492 -5.02447,0 0,5.80772 5.02447,0 z m 12.3695,-9.29068 13.14027,0 0,3.48296 -9.66563,0 0,5.42026 6.57013,0 0,3.87041 -6.57013,0 0,6.58263 10.43638,0 0,3.48713 -13.91102,0 0,-22.84339 z m 44.057804,0 3.47463,0 7.7325,22.84339 -3.86625,0 -1.93313,-6.58263 -7.34088,0 -2.32058,6.58263 -3.4788,0 7.73251,-22.84339 z m 3.86209,12.77363 -2.31643,-6.57846 -2.32058,6.57846 4.63701,0 z m -80.770544,-3.48295 1.93313,-1.16238 0.77075,-1.93313 -0.77075,-1.93729 -1.93313,-0.77492 -5.41192,0 0,5.80772 5.41192,0"
     style="fill:#000000;fill-opacity:1;fill-rule:evenodd;stroke:none"
     id="path14923" /><path
     inkscape:connector-curvature="0"
     d="m 252.98518,436.99314 2.70388,-0.77075 1.93313,-1.93729 0.77492,-2.70805 0,-408.877126 -0.77492,-2.708044 -1.93313,-1.937293 -2.70388,-0.774917 -229.950424,0 -2.70387,0.774917 -2.32058,1.937293 -0.3833,2.708044 0,408.877126 0.3833,2.70805 2.32058,1.93729 2.70387,0.77075 229.950424,0 z m 0,10.84468 5.02447,-0.77492 4.637,-2.32475 3.4788,-3.48296 2.32058,-4.64534 0.77075,-5.0328 0,-408.877126 -0.77075,-5.032796 -2.32058,-4.645336 -3.4788,-3.487128 -4.637,-2.320584 -5.02447,-0.774918 -229.950424,0 -5.02445,0.774918 -4.63701,2.320584 -3.8620896,3.487128 -2.32059,4.645336 -0.77074,5.032796 0,408.877126 0.77074,5.0328 2.32059,4.64534 3.8620896,3.48296 4.63701,2.32475 5.02445,0.77492 229.950424,0"
     style="fill:#000000;fill-opacity:1;fill-rule:evenodd;stroke:none"
     id="path14925" /><path
     inkscape:connector-curvature="0"
     d="m 251.82698,138.08342 -0.77492,-12.7778 -1.92897,-12.7778 -3.47879,-12.39034 -5.02446,-11.61543 -6.18268,-11.22796 -7.34504,-10.45305 -8.50326,-9.6823 -9.66147,-8.51576 -10.43221,-7.357542 -11.2113,-6.195172 -11.59043,-5.032795 -12.36952,-3.487127 -12.7528,-1.933127 -12.7528,-0.774918 -12.75281,0.774918 -12.75279,1.933127 -11.98206,3.487127 -11.982054,5.032795 -11.20714,6.195172 -10.43638,7.357542 -9.66147,8.51576 -8.4991,9.6823 -7.34504,10.45305 -6.18267,11.22796 -4.63701,11.61543 -3.86625,12.39034 -1.93313,12.7778 -0.77075,12.7778 0.77075,12.77781 1.93313,12.7778 3.86625,12.00288 4.63701,12.00289 6.18267,11.22796 7.34504,10.45305 8.4991,9.6823 9.66147,8.51575 10.43638,7.35755 11.20714,6.19517 11.982054,4.64534 11.98206,3.87042 12.75279,1.93729 12.75281,0.77492 12.7528,-0.77492 12.7528,-1.93729 12.36952,-3.87042 11.59043,-4.64534 11.2113,-6.19517 10.43221,-7.35755 9.66147,-8.51575 8.50326,-9.6823 7.34504,-10.45305 6.18268,-11.22796 5.02446,-12.00289 3.47879,-12.00288 1.92897,-12.7778 0.77492,-12.77781 z m -27.43874,0 -0.77492,-11.22796 -1.93312,-11.23214 -3.86209,-10.84051 -5.02446,-10.06559 -6.18267,-9.6823 -7.34505,-8.51575 -8.50326,-7.35755 -9.66147,-6.191 -10.04893,-5.03696 -10.81967,-3.87042 -11.20714,-2.32475 -11.20713,-0.38746 -11.20713,0.38746 -11.20714,2.32475 -10.82384,3.87042 -10.048934,5.03696 -9.27401,6.191 -8.50326,7.35755 -7.72834,8.51575 -6.18267,9.6823 -5.02446,10.06559 -3.4788,10.84051 -2.31642,11.23214 -0.77491,11.22796 0.77491,11.22797 2.31642,11.22797 3.4788,10.84467 5.02446,10.06559 6.18267,9.29068 7.72834,8.51992 8.50326,7.74501 9.27401,6.19517 10.048934,5.03279 10.82384,3.87042 11.20714,1.9373 11.20713,0.77491 11.20713,-0.77491 11.20714,-1.9373 10.81967,-3.87042 10.04893,-5.03279 9.66147,-6.19517 8.50326,-7.74501 7.34505,-8.51992 6.18267,-9.29068 5.02446,-10.06559 3.86209,-10.84467 1.93312,-11.22797 0.77492,-11.22797"
     style="fill:#00a888;fill-opacity:1;fill-rule:evenodd;stroke:none"
     id="path14913" /></svg>