<?xml version="1.0" encoding="UTF-8" standalone="no"?>
<!-- Created with Inkscape (http://www.inkscape.org/) -->

<svg
   xmlns:dc="http://purl.org/dc/elements/1.1/"
   xmlns:cc="http://creativecommons.org/ns#"
   xmlns:rdf="http://www.w3.org/1999/02/22-rdf-syntax-ns#"
   xmlns:svg="http://www.w3.org/2000/svg"
   xmlns="http://www.w3.org/2000/svg"
   xmlns:sodipodi="http://sodipodi.sourceforge.net/DTD/sodipodi-0.dtd"
   xmlns:inkscape="http://www.inkscape.org/namespaces/inkscape"
   version="1.1"
   width="285.15869"
   height="285.66016"
   id="svg2"
   xml:space="preserve"
   inkscape:version="0.48.2 r9819"
   sodipodi:docname="Chile RO-10.svg"><sodipodi:namedview
     pagecolor="#ffffff"
     bordercolor="#666666"
     borderopacity="1"
     objecttolerance="10"
     gridtolerance="10"
     guidetolerance="10"
     inkscape:pageopacity="0"
     inkscape:pageshadow="2"
     inkscape:window-width="1280"
     inkscape:window-height="1004"
     id="namedview19"
     showgrid="false"
     inkscape:zoom="0.71718049"
     inkscape:cx="720.25245"
     inkscape:cy="92.910267"
     inkscape:window-x="-8"
     inkscape:window-y="-8"
     inkscape:window-maximized="1"
     inkscape:current-layer="svg2"
     fit-margin-top="0"
     fit-margin-left="0"
     fit-margin-right="0"
     fit-margin-bottom="0" /><defs
     id="defs20" /><metadata
     id="metadata8"><rdf:RDF><cc:Work
         rdf:about=""><dc:format>image/svg+xml</dc:format><dc:type
           rdf:resource="http://purl.org/dc/dcmitype/StillImage" /><dc:title></dc:title></cc:Work></rdf:RDF></metadata><path
     inkscape:connector-curvature="0"
     d="m 284.14324,142.591 -0.96235,-15.83486 -2.87868,-15.35576 -4.3201,-15.359955 -6.23647,-14.876675 -7.67787,-13.9185 -9.11931,-12.95618 -10.56074,-11.5189 -11.51473,-10.56073 -12.96033,-9.59839 -13.9185,-7.67789 -14.87669,-5.7573588 -15.35576,-4.32011 -15.35994,-2.87869 -15.83485,-0.96234 -15.83902,0.96234 -15.83484,2.87869 -15.359942,4.32011 -14.39759,5.7573588 -13.91851,7.67789 -12.95615,9.59839 -11.998,10.56073 -10.55658,11.5189 -9.1193,12.95618 -7.67787,13.9185 -6.2406276,14.876675 -4.32011,15.359955 -2.87869,15.35576 -0.47907982,15.83486 0.47907982,15.83901 2.87869,15.83902 4.32011,15.35576 6.2406276,14.87668 7.67787,13.9185 9.1193,12.96034 10.55658,11.51474 11.998,10.56073 12.95615,9.11514 13.91851,7.67788 14.39759,6.24062 15.359942,4.32011 15.83484,2.87869 15.83902,0.96234 15.83485,-0.96234 15.35994,-2.87869 15.35576,-4.32011 14.87669,-6.24062 13.9185,-7.67788 12.96033,-9.11514 11.51473,-10.56073 10.56074,-11.51474 9.11931,-12.96034 7.67787,-13.9185 6.23647,-14.87668 4.3201,-15.35576 2.87868,-15.83902 0.96235,-15.83901 z"
     style="fill:#ffffff;stroke:#000000;stroke-width:1.9996655;stroke-linecap:round;stroke-linejoin:round;stroke-miterlimit:10;stroke-opacity:1;stroke-dasharray:none"
     id="path12766" /><path
     inkscape:connector-curvature="0"
     d="m 278.3817,142.591 -0.95817,-16.31811 -2.87869,-15.83485 -5.27828,-15.839041 -6.71971,-14.876679 -8.16113,-14.39759 -10.07748,-12.95616 -11.998,-11.51891 -12.47708,-10.07748 -14.39758,-8.64023 -14.87668,-6.71553 -15.83902,-4.80337 -15.83486,-2.8786788 -16.3181,-0.95818 -16.3181,0.95818 -16.3181,2.8786788 -15.834872,4.80337 -14.88083,6.71553 -13.91434,8.64023 -12.96034,10.07748 -11.5189,11.51891 -10.07748,12.95616 -8.63605,14.39759 -6.71972,14.876679 -4.79919,15.839041 -3.3619276,15.83485 -0.95819,16.31811 0.95819,16.80135 3.3619276,15.83485 4.79919,15.83902 6.71972,14.87668 8.63605,13.91433 10.07748,12.96034 11.5189,11.99799 12.96034,10.07748 13.91434,8.16113 14.88083,6.71555 15.834872,5.28245 16.3181,2.87868 16.3181,0.95817 16.3181,-0.95817 15.83486,-2.87868 15.83902,-5.28245 14.87668,-6.71555 14.39758,-8.16113 12.47708,-10.07748 11.998,-11.99799 10.07748,-12.96034 8.16113,-13.91433 6.71971,-14.87668 5.27828,-15.83902 2.87869,-15.83485 0.95817,-16.80135"
     style="fill:#244ba6;fill-opacity:1;fill-rule:evenodd;stroke:none"
     id="path12764" /><path
     inkscape:connector-curvature="0"
     d="m 165.60057,270.2488 5.27829,0 0,-255.31564 -5.27829,0 0,255.31564 z"
     style="fill:#ffffff;fill-opacity:1;fill-rule:evenodd;stroke:none"
     id="path12768" /><path
     inkscape:connector-curvature="0"
     d="m 249.58652,115.71633 -0.95818,-2.87869 -1.92051,-1.92051 -2.87868,-0.95817 -2.87868,0.95817 -2.39961,1.92051 -0.47908,2.87869 0.47908,2.87868 2.39961,2.3996 2.87868,0.48325 2.87868,-0.48325 1.92051,-2.3996 0.95818,-2.87868"
     style="fill:#ffffff;fill-opacity:1;fill-rule:evenodd;stroke:none"
     id="path12772" /><path
     inkscape:connector-curvature="0"
     d="m 208.31426,88.84163 -0.95818,-3.35777 -2.3996,-2.3996 -3.36193,-0.96234 -3.35778,0.96234 -2.39959,2.3996 -0.95817,3.35777 0.95817,3.357772 2.39959,2.882852 3.35778,0.47909 3.36193,-0.47909 2.3996,-2.882852 0.95818,-3.357772"
     style="fill:#ffffff;fill-opacity:1;fill-rule:evenodd;stroke:none"
     id="path12774" /><path
     inkscape:connector-curvature="0"
     d="m 58.580968,138.27505 -5.76153,-1.44143 -6.23646,-0.47908 -5.76154,1.43726 -5.27828,2.88285 -4.7992,3.83686 -2.87869,5.27828 -1.9205,5.76154 0,6.23645 1.44142,5.76154 3.35777,5.27828 4.32012,4.32011 5.27828,3.35778 5.76153,1.44142 6.23645,0 5.76155,-1.92051 5.27827,-3.35777 3.83686,-4.32011 2.88285,-5.27829 1.43726,-5.76153 -0.47909,-6.23646 -1.9205,-5.76153 -3.35777,-5.27829 -4.32012,-3.84102 -10.07747,17.28044 0.47909,2.39543 -1.44143,1.92051 -2.39961,0.48326 -1.91634,-0.96234 -0.48326,-2.3996 0.96235,-2.3996 1.9205,-0.47909 10.07749,-17.75536 z m 47.991972,-15.35993 1.92052,-2.87868 -7.68205,0 0,-3.35778 19.68005,-3.36193 0,6.71971 -8.16114,0 -2.87868,4.79919 6.24061,10.56074 6.23646,-1.92052 6.71971,-0.48325 6.71972,1.44143 5.75736,2.87868 5.27829,4.32011 3.84102,5.27829 2.3996,6.24062 0.47909,6.71554 -0.95818,6.71971 -2.39961,6.24062 -4.3201,5.27829 -5.27829,3.84102 -6.24061,2.3996 -6.71971,0.95817 -6.71554,-0.95817 -6.24063,-2.3996 -5.27828,-3.84102 -4.32011,-5.27829 -2.3996,-6.24062 -0.95817,-6.71971 0.47908,-6.23645 2.3996,-6.71971 3.83685,-5.27829 4.7992,-4.32011 -5.27828,-9.59839 -14.876692,26.87467 1.44142,2.88285 0,3.35777 -1.44142,2.87868 -2.87868,1.92052 -3.36194,0 -2.87868,-1.92052 -1.92051,-2.87868 0,-3.35777 1.92051,-2.88285 -15.35576,-26.87467 -5.27829,9.59839 5.27829,4.32011 3.83686,5.27829 2.3996,6.71971 0.48324,6.23645 -0.96234,6.71971 -2.87869,6.24062 -4.3201,5.27829 -5.27829,3.84102 -6.24062,2.3996 -6.71555,0.95817 -6.71971,-0.95817 -6.24061,-2.3996 -5.27828,-3.84102 -3.84103,-5.27829 -2.87868,-6.24062 -0.95818,-6.71971 0.47909,-6.71554 2.39959,-6.24062 3.84102,-5.27829 5.27829,-4.32011 6.23646,-2.87868 6.24062,-1.44143 6.71971,0.48325 6.23646,1.92052 6.24062,-10.56074 -6.24062,-11.5189 0,-3.35777 19.68005,0 0,3.35777 -15.83903,0 5.27829,9.59839 37.435402,0 z m -16.797192,29.75752 -3.36194,0 -15.35577,-26.39975 33.594402,0 -14.876692,26.39975 z m 34.552562,4.7992 -10.07748,-17.28044 -4.32011,3.84102 -3.35778,5.27829 -1.9205,5.76153 -0.47909,6.23646 1.43726,5.76153 2.88285,5.27829 4.31594,4.32011 5.28245,3.35777 5.75737,1.92051 6.24063,0 5.75736,-1.44142 5.27829,-3.35778 4.32011,-4.32011 2.87868,-5.27828 1.44142,-5.76154 0,-6.23645 -1.44142,-5.76154 -3.35777,-5.27828 -4.3201,-3.83686 -5.27828,-2.88285 -6.24063,-1.43726 -6.23645,0.47908 -5.76155,1.44143 10.07749,17.75536 2.39959,0.47909 0.96235,2.3996 -0.96235,2.3996 -1.91634,0.96234 -2.3996,-0.48326 -1.44143,-1.92051 0.47909,-2.39543"
     style="fill:#ffffff;fill-opacity:1;fill-rule:evenodd;stroke:none"
     id="path12776" /><path
     inkscape:connector-curvature="0"
     d="m 188.1593,134.43403 1.43726,-0.47909 0.48325,-1.44143 0,-15.83485 2.3996,-4.80336 0,34.55672 1.43726,1.92051 -1.43726,1.92051 0,20.15496 0.95817,1.43726 1.44143,0.48326 3.35776,0 1.44144,-0.48326 0.47908,-1.43726 0,-20.15496 -0.96234,-1.92051 0.96234,-1.92051 0,-12.47708 2.87868,0 0,15.35577 0.95819,1.92051 -0.95819,2.3996 0,26.87467 0.47909,1.44142 1.44142,0.95817 4.32013,0 1.43725,-0.95817 0.47909,-1.44142 0,-26.87467 -0.95818,-2.3996 0.95818,-1.92051 0,-37.91033 8.64021,21.11313 0.95817,0.96234 10.08166,5.75737 1.91634,0.47909 0.96234,-0.95817 3.35777,-6.71971 0,26.87467 0.96234,1.92051 -0.96234,1.92051 0,17.75537 0.96234,0.47908 3.35777,0 0.95817,-0.47908 0.48326,-0.95818 0,-16.79719 -0.96234,-1.92051 0.96234,-1.92051 0,-10.55657 1.91634,0 0,7.67788 0.96235,1.92052 -0.96235,1.91634 0,12.96033 0.48325,0.95818 0.95817,0.48325 2.87869,0 0.96234,-0.48325 0.47909,-0.95818 0,-12.96033 -0.96234,-1.91634 0.96234,-2.3996 0,-23.03782 1.92052,5.27829 0,10.07748 0.47908,0.96234 0.95817,0.47909 1.44143,0 0.95816,-0.47909 0.4791,-0.96234 0,-10.07748 -0.4791,-0.95818 -4.3201,-11.99799 -1.43726,-1.43726 -6.71971,-0.96233 -6.71971,0.96233 6.24063,-0.96233 0.95817,0 -7.1988,0.96233 -1.92051,1.43726 -3.35777,8.15697 -0.95817,0.96234 -0.48326,-0.47909 -5.75737,-3.36193 -0.95818,-0.95818 -3.36192,-10.07748 -7.67789,-19.675892 -1.92051,-0.962346 -8.63606,-0.958172 -9.11931,0.958172 -1.44143,0.962346 -7.19879,16.313962 0,16.79718 0.96235,1.44143 1.43725,0.47909 1.44143,0"
     style="fill:#ffffff;fill-opacity:1;fill-rule:evenodd;stroke:none"
     id="path12778" /></svg>