<?xml version="1.0" encoding="UTF-8" standalone="no"?>
<svg
   xmlns:dc="http://purl.org/dc/elements/1.1/"
   xmlns:cc="http://creativecommons.org/ns#"
   xmlns:rdf="http://www.w3.org/1999/02/22-rdf-syntax-ns#"
   xmlns:svg="http://www.w3.org/2000/svg"
   xmlns="http://www.w3.org/2000/svg"
   xmlns:sodipodi="http://sodipodi.sourceforge.net/DTD/sodipodi-0.dtd"
   xmlns:inkscape="http://www.inkscape.org/namespaces/inkscape"
   height="151.14476"
   width="448.92993"
   viewBox="82.992 45.607 1315.0354 487.50002"
   id="svg2"
   version="1.1"
   inkscape:version="0.48.2 r9819"
   sodipodi:docname="Chile RO-1aL.svg">
  <metadata
     id="metadata2508">
    <rdf:RDF>
      <cc:Work
         rdf:about="">
        <dc:format>image/svg+xml</dc:format>
        <dc:type
           rdf:resource="http://purl.org/dc/dcmitype/StillImage" />
        <dc:title></dc:title>
      </cc:Work>
    </rdf:RDF>
  </metadata>
  <sodipodi:namedview
     pagecolor="#ffffff"
     bordercolor="#666666"
     borderopacity="1"
     objecttolerance="10"
     gridtolerance="10"
     guidetolerance="10"
     inkscape:pageopacity="0"
     inkscape:pageshadow="2"
     inkscape:window-width="1280"
     inkscape:window-height="1004"
     id="namedview2506"
     showgrid="false"
     inkscape:zoom="1.1296938"
     inkscape:cx="199.68213"
     inkscape:cy="9.4425337"
     inkscape:window-x="-8"
     inkscape:window-y="-8"
     inkscape:window-maximized="1"
     inkscape:current-layer="svg2"
     showguides="true"
     inkscape:guide-bbox="true"
     fit-margin-top="0"
     fit-margin-left="0"
     fit-margin-right="0"
     fit-margin-bottom="0" />
  <defs
     id="defs4">
    <linearGradient
       id="linearGradient6324">
      <stop
         style="stop-color:#ec8028;stop-opacity:1;"
         offset="0"
         id="stop6326" />
      <stop
         style="stop-color:#ec8028;stop-opacity:0;"
         offset="1"
         id="stop6328" />
    </linearGradient>
    <clipPath
       id="SVG_CP_1">
      <path
         inkscape:connector-curvature="0"
         d="M 598.41107,0 0,0 l 0,392.15871 598.41107,0 0,-392.15871 z"
         id="path21406" />
    </clipPath>
    <clipPath
       id="clipPath6506">
      <path
         inkscape:connector-curvature="0"
         d="M 598.41107,0 0,0 l 0,392.15871 598.41107,0 0,-392.15871 z"
         id="path6508" />
    </clipPath>
    <clipPath
       id="clipPath6510">
      <path
         inkscape:connector-curvature="0"
         d="M 598.41107,0 0,0 l 0,392.15871 598.41107,0 0,-392.15871 z"
         id="path6512" />
    </clipPath>
    <clipPath
       id="clipPath6514">
      <path
         inkscape:connector-curvature="0"
         d="M 598.41107,0 0,0 l 0,392.15871 598.41107,0 0,-392.15871 z"
         id="path6516" />
    </clipPath>
    <clipPath
       id="clipPath6518">
      <path
         inkscape:connector-curvature="0"
         d="M 598.41107,0 0,0 l 0,392.15871 598.41107,0 0,-392.15871 z"
         id="path6520-6" />
    </clipPath>
    <clipPath
       id="clipPath6522">
      <path
         inkscape:connector-curvature="0"
         d="M 598.41107,0 0,0 l 0,392.15871 598.41107,0 0,-392.15871 z"
         id="path6524-5" />
    </clipPath>
    <clipPath
       id="clipPath6526">
      <path
         inkscape:connector-curvature="0"
         d="M 598.41107,0 0,0 l 0,392.15871 598.41107,0 0,-392.15871 z"
         id="path6528-2" />
    </clipPath>
    <clipPath
       id="SVG_CP_1-9">
      <path
         inkscape:connector-curvature="0"
         d="M 598.41107,0 0,0 l 0,392.15871 598.41107,0 0,-392.15871 z"
         id="path21406-3" />
    </clipPath>
    <clipPath
       id="SVG_CP_1-0">
      <path
         inkscape:connector-curvature="0"
         d="M 598.41107,0 0,0 l 0,392.15871 598.41107,0 0,-392.15871 z"
         id="path21406-1" />
    </clipPath>
    <clipPath
       id="clipPath6597">
      <path
         inkscape:connector-curvature="0"
         d="M 598.41107,0 0,0 l 0,392.15871 598.41107,0 0,-392.15871 z"
         id="path6599" />
    </clipPath>
    <clipPath
       id="clipPath6601">
      <path
         inkscape:connector-curvature="0"
         d="M 598.41107,0 0,0 l 0,392.15871 598.41107,0 0,-392.15871 z"
         id="path6603" />
    </clipPath>
  </defs>
  <style
     id="style_css_sheet"
     type="text/css"> 
/*
 * Below are Cascading Style Sheet (CSS) definitions in use in this file,
 * which allow easily changing how countries are displayed.
 *
 */

/*
 * Circles around small countries
 *
 * Change opacity to 1 to display all circles.
 *
 */
.circlexx
{
   opacity:1;
   fill:#e0e0e0;
   stroke:#000000;
   stroke-width:0.5;
}

/*
 * Smaller circles around French DOMs and Chinese SARs
 *
 * Change opacity to 1 to display all subnational circles.
 *
 */
.subxx
{
   opacity:1;
   stroke-width:0.3;
}

/*
 * Circles around small, unrecognized countries
 *
 * Change opacity to 1 to display all circles.
 *
 */
.unxx
{
   opacity:0;
   fill:#e0e0e0;
   stroke:#000000;
   stroke-width:0.3;
}

/*
 * Circles around small countries, but with no permanent residents 
 *
 * Change opacity to 1 to display all circles.
 *
 */
.noxx
{
   opacity:0;
   fill:#e0e0e0;
   stroke:#000000;
   stroke-width:0.5;
}

/*
 * land
 */
.landxx
{
   fill: #e0e0e0;
   stroke:#ffffff;
   stroke-width:0.5;
   fill-rule:evenodd;
}

/*
 * Styles for coastlines of islands with no borders
 */
.coastxx
{
   fill: #e0e0e0;
   stroke:#ffffff;
   stroke-width:0.3;
   fill-rule:evenodd;
}

/*
 * Styles for nations with limited recognition
 */
.limitxx
{
   fill: #e0e0e0;
   stroke:#ffffff;
   stroke-width:0;
   fill-rule:evenodd;
}

/*
 * Styles for nations with no permanent population.
 */
.antxx
{
   fill: #e0e0e0;
   stroke:#ffffff;
   stroke-width:0;
   fill-rule:evenodd;
}

/*
 * Ocean
 */
.oceanxx
{
   opacity: 1;
   color: #000000;
   fill:#ffffff;
   stroke:#000;
   stroke-width:0.5;
   stroke-miterlimit:1;
}

/*
 * Additional style rules
 *
 * The following are examples of colouring countries.  You can substitute these with your own styles to colour the countries on the map.
 *
 * Color a few countries:
 *
 * .gb, .au, .nc
 * {
 *    fill:       #ff0000;
 * }
 *
 * Color a few small country circles (and the countries):
 *
 * .ms, .ky
 * {
 *    opacity:    1;
 *    fill:       #ff0000;
 * }
 *
 */

/* Same-sex marriage */
.ar, .be, .ca, .dk, .es, .is, .nl, .no, .pt, .se, .za
{ fill: #002255; }

/* Civil unions etc. */
.ad, .at, .au, .bl, .br, .ch, .co, .cz, .de, .ec, .fi, .fr, .gb, .gf, .gl, .hr, .hu, .ie, .il, .im, .je, .li, .lu, .mf, .nc, .nf, .nz, .pm, .re, .si, .uy, .wf
{ fill: #0066ff; }

/* Recognition of foreign marriages */
.aw, .cw, .sx, .mx
{ fill: #7fbcff; }

/* Legal but no recognition */
.ai, .al, .am, .as, .az, .ba, .bg, .bf, .by, .bj, .bm, .bo, .bs, .cd, .cg, .cf, .ci, .cl, .cn, .cr, .cu, .cv, .cy, .dj, .do, .ee, .fk, .fj, .fm, .fo, .ga, .ge, .gg, .gi, .gq, .gr, .gs, .gt, .gu, .gw, .hn, .ht, .id, .in, .iq, .it, .jo, .jp, .kg, .kh, .kp, .kr, .ky, .kz, .la, .lk, .lt, .lv, .mc, .md, .me, .mg, .mh, .mk, .ml, .mn, .mp, .mt, .ms, .mz, .ne, .ni, .np, .pa, .pe, .pf, .ph, .pl, .pn, .pr, .py, .ro, .rs, .ru, .rw, .sh, .sk, .sm, .sr, .st, .sv, .tc, .td, .th, .tj, .tk, .tl, .tr, .tw, .ua, .us, .va, .ve, .vg, .vi, .vn, .vu, .xk, .ps_west_bank
{ fill: #cccccc; }

/* Illegal, minimal penalty */
.bt, .lb, .lr
{ fill: #f9dc36; }

/* Illegal, large penalty */
.ag, .ao, .bh, .bi, .bn, .bw, .bz, .cm, .ck, .dm, .dz, .eg, .eh, .er, .et, .gd, .gh, .gm, .gn, .jm, .ke, .ki, .km, .kn, .kw, .lc, .ls, .ly, .ma, .mu, .mv, .mw, .my, .na, .ng, .nr, .nu, .om, .pg, .pw, .qa, .sb, .sc, .sg, .sn, .so, .ss, .sy, .sz, .tg, .tm, .tn, .to, .tt, .tv, .uz, .vc, .ws, .zm, .zw, .xc, .ps_gaza_strip
{ fill: #ec8028; }

/* Illegal, life imprisonment */
.bb, .bd, .gy, .mm, .pk, .sl, .tz, .ug
{ fill: #e73e21; }

/* Illegal, death penalty */
.ae, .af, .ir, .mr, .sa, .sd, .ye
{ fill: #8c201f; }

/* SUB-NATIONAL UNITS */

/* Same-sex marriage */
.br_al, .mx_dif, .us_ct, .us_dc, .us_ia, .us_ma, .us_md, .us_nh, .us_ny, .us_vt, .us_wa
{ fill: #002255; }

/* Civil unions etc. */
.mx_coa, .uk_je, .us_ca, .us_co, .us_de, .us_hi, .us_il, .us_me, .us_nj, .us_nv, .us_or, .us_ri, .us_wi, .ve_l
{ fill: #0066ff; }

/* Recognition of foreign marriages */
.bq
{ fill: #7fbcff; }

/* Illegal, large penalty */
.id_ac
{ fill: #ec8028; }

/* Illegal, death penalty */
.ng_sharia, .so_shabaab
{ fill: #8c201f; }

</style>
  <path
     inkscape:connector-curvature="0"
     d="m 1413.762,529.87721 14.9408,-2.71407 13.5704,-6.79862 10.8562,-9.49922 6.7852,-13.59721 1.357,-14.94083 0,-385.908259 -1.357,-14.954246 -6.7852,-13.583777 -10.8562,-9.512677 -13.5704,-6.798607 -14.9408,-2.727503 -1346.500268,0 -14.94082,2.727503 -13.57031,6.798607 -10.85628,9.512677 -6.78519,13.583777 -1.35702,14.954246 0,385.908259 1.35702,14.94083 6.78519,13.59721 10.85628,9.49922 13.57031,6.79862 14.94082,2.71407 1346.500268,0 z"
     style="fill:#ffffff;stroke:#000000;stroke-width:6.4492712;stroke-linecap:round;stroke-linejoin:round;stroke-miterlimit:10;stroke-opacity:1;stroke-dasharray:none"
     id="path4517" />
  <path
     inkscape:connector-curvature="0"
     d="m 1413.762,513.57936 12.2267,-1.35702 10.8563,-8.15564 6.7852,-9.51269 2.7141,-12.22672 0,-385.908289 -2.7141,-12.24018 -6.7852,-9.512673 -10.8563,-8.155642 -12.2267,-1.343598 -1346.500268,0 -12.22675,1.343598 -10.85627,8.155642 -6.78517,9.512673 -2.71407,12.24018 0,385.908289 2.71407,12.22672 6.78517,9.51269 10.85627,8.15564 12.22675,1.35702 1346.500268,0"
     style="fill:#000000;fill-opacity:1;fill-rule:evenodd;stroke:none"
     id="path4519" />
  <path
     inkscape:connector-curvature="0"
     d="m 433.7416,476.88569 12.22673,4.07112 12.21332,0 10.85628,-4.07112 9.49923,-8.15564 4.07108,-10.86971 1.35706,-12.22672 -4.07113,-12.24019 -28.4977,-47.54995 576.87383,0 -27.1407,47.54995 -4.07105,12.24019 1.357,12.22672 4.07105,10.86971 9.4993,8.15564 10.8563,4.07112 12.2133,0 10.8697,-4.07112 287.7583,-187.51257 -287.7583,-187.52598 -10.8697,-4.071104 -12.2133,0 -10.8563,4.071104 -9.4993,8.15564 -4.07105,10.86971 -1.357,12.22674 4.07105,12.22675 27.1407,47.56337 -576.87383,0 28.4977,-47.56337 4.07113,-12.22675 -1.35706,-12.22674 -4.07108,-10.86971 -9.49923,-8.15564 -10.85628,-4.071104 -12.21332,0 -12.22673,4.071104 -286.40139,187.52598 286.40139,187.51257"
     style="fill:#ffffff;fill-opacity:1;fill-rule:nonzero;stroke:none"
     id="path4521" />
</svg>
