<?xml version="1.0" encoding="UTF-8" standalone="no"?>
<!-- Created with Inkscape (http://www.inkscape.org/) -->

<svg
   xmlns:dc="http://purl.org/dc/elements/1.1/"
   xmlns:cc="http://creativecommons.org/ns#"
   xmlns:rdf="http://www.w3.org/1999/02/22-rdf-syntax-ns#"
   xmlns:svg="http://www.w3.org/2000/svg"
   xmlns="http://www.w3.org/2000/svg"
   xmlns:sodipodi="http://sodipodi.sourceforge.net/DTD/sodipodi-0.dtd"
   xmlns:inkscape="http://www.inkscape.org/namespaces/inkscape"
   version="1.1"
   width="315.9718"
   height="473.0354"
   id="svg2"
   xml:space="preserve"
   inkscape:version="0.48.2 r9819"
   sodipodi:docname="AJAX1.svg"><sodipodi:namedview
     pagecolor="#ffffff"
     bordercolor="#666666"
     borderopacity="1"
     objecttolerance="10"
     gridtolerance="10"
     guidetolerance="10"
     inkscape:pageopacity="0"
     inkscape:pageshadow="2"
     inkscape:window-width="1280"
     inkscape:window-height="1004"
     id="namedview19"
     showgrid="false"
     inkscape:zoom="0.71718049"
     inkscape:cx="39.047357"
     inkscape:cy="269.86714"
     inkscape:window-x="-8"
     inkscape:window-y="-8"
     inkscape:window-maximized="1"
     inkscape:current-layer="svg2"
     fit-margin-top="0"
     fit-margin-left="0"
     fit-margin-right="0"
     fit-margin-bottom="0" /><defs
     id="defs20" /><metadata
     id="metadata8"><rdf:RDF><cc:Work
         rdf:about=""><dc:format>image/svg+xml</dc:format><dc:type
           rdf:resource="http://purl.org/dc/dcmitype/StillImage" /><dc:title /></cc:Work></rdf:RDF></metadata><path
     inkscape:connector-curvature="0"
     d="m 290.19532,472.03182 6.42478,-0.46249 5.97062,-2.7499 5.04566,-4.13319 4.13319,-5.04982 2.29575,-5.96647 0.91663,-6.42894 0,-420.989536 -0.91663,-6.42478 -2.29575,-6.42895 -4.13319,-5.0498202 -5.04566,-4.13319 -5.97062,-2.295753 -6.42478,-0.9166349 -263.93665,0 -6.42477,0.9166349 -5.97063,2.295753 -5.50814,4.13319 -4.12902,5.0498202 -2.29576,6.42895 -0.91663,6.42478 0,420.989536 0.91663,6.42894 2.29576,5.96647 4.12902,5.04982 5.50814,4.13319 5.97063,2.7499 6.42477,0.46249 263.93665,0 z"
     style="fill:#ffffff;stroke:#000000;stroke-width:1.99993038;stroke-linecap:round;stroke-linejoin:round;stroke-miterlimit:10;stroke-opacity:1;stroke-dasharray:none"
     id="path13534" /><path
     inkscape:connector-curvature="0"
     style="fill:#000000;fill-opacity:1;fill-rule:evenodd;stroke:none"
     d="m 105.17259,309.93329 -3.64571,1.45828 -3.6457,2.29159 -2.29159,3.64571 -0.52082,4.58317 0.52082,3.22906 1.77077,2.70823 2.29159,2.29159 3.22905,1.45828 6.04146,1.35412 3.12489,1.77077 1.45828,3.74987 -0.52081,2.29159 -1.35413,1.77077 -1.87492,1.45828 -3.1249,0.41665 -3.22905,-0.93746 -2.81241,-2.29159 -1.77077,-3.22905 -5.52064,2.29158 1.77077,4.16652 2.81241,3.22906 4.16651,1.77078 4.58318,0.93746 4.99982,-0.93746 4.16653,-2.29159 3.22905,-4.06236 0.83331,-4.58318 -1.35412,-5.52064 -3.6457,-4.16652 -4.58318,-2.29159 -5.9373,-0.93747 -1.87493,-0.93746 -0.93747,-1.35412 -0.41665,-1.35412 0.93746,-2.70824 1.77078,-2.39575 2.29158,-0.83331 4.16653,0.83331 2.29159,3.22905 5.93729,-1.35412 -1.77077,-3.6457 -3.22906,-3.22905 -3.74986,-1.87494 -4.58318,0 z m 35.41544,0 -5.52064,0.93746 -4.16653,3.22907 -2.70824,5.10398 -1.45828,7.29141 0,7.39558 1.45828,7.29141 2.70824,4.58317 4.16653,3.22906 5.52064,1.35412 5.52064,-1.35412 4.06236,-3.22906 2.8124,-4.58317 1.35411,-7.29141 0,-7.39558 -1.35411,-7.29141 -2.8124,-5.10398 -4.06236,-3.22907 -5.52064,-0.93746 z m 67.9143,0 -5.10399,0.93746 -4.58318,3.22907 -2.29158,5.10398 -1.77078,7.29141 0,7.39558 1.77078,7.29141 2.29158,4.58317 4.58318,3.22906 5.10399,1.35412 5.52064,-1.35412 4.06236,-3.22906 2.8124,-4.58317 1.35412,-7.29141 0,-7.39558 -1.35412,-7.29141 -2.8124,-5.10398 -4.06236,-3.22907 -5.52064,-0.93746 z m -44.58179,0.52081 0,39.4778 23.9575,0 0,-6.45811 -17.91604,0 0,-33.01969 -6.04146,0 z m -23.33251,5.52064 4.06236,1.35413 2.29158,3.22905 0.93747,6.35395 0,6.4581 -0.93747,5.9373 -2.29158,3.74987 -4.06236,1.35411 -4.16653,-1.35411 -2.29159,-3.74987 -1.35411,-9.16635 1.35411,-9.583 2.29159,-3.22905 4.16653,-1.35413 z m 67.9143,0 4.16652,1.35413 2.29158,3.22905 0.83331,6.35395 0,6.4581 -0.83331,5.9373 -2.29158,3.74987 -4.16652,1.35411 -4.16653,-1.35411 -2.29159,-3.74987 -1.35411,-9.16635 1.35411,-9.583 2.29159,-3.22905 4.16653,-1.35413 z m -49.16495,69.78925 -4.06236,1.35411 -3.22907,2.70825 -2.29158,3.74986 -0.41665,1.9791 -0.52082,2.08326 0.41666,3.22906 1.87493,3.22905 2.70824,2.29159 3.22906,0.93746 5.52064,1.35412 3.6457,1.87494 1.45829,3.6457 -0.52082,2.29159 -1.35412,1.87494 -2.29159,1.35411 -2.70823,0.41666 -3.74987,-0.93747 -2.70825,-1.77077 -1.87493,-3.22906 -5.52064,1.77077 1.87493,4.16653 3.22905,3.22905 4.16653,2.29159 4.58318,0.41665 4.58317,-0.41665 4.58317,-2.70825 2.70824,-4.16651 0.93747,-4.58318 -1.35412,-5.10399 -3.22906,-4.06236 -5.10399,-2.29159 -5.93729,-1.45828 -1.35412,-0.41664 -1.35411,-1.35413 -0.52082,-1.87493 0.72914,-2.08326 0.20833,-0.62498 1.87493,-1.87493 2.29158,-0.93747 4.06236,0.93747 1.77077,2.49991 0.52082,0.72914 2.49991,-0.72914 3.54155,-1.1458 -1.87493,-3.6457 -2.70824,-3.22905 -4.16653,-1.35412 -4.16651,-0.41665 z m 66.56018,0 -4.06236,1.35411 -3.22906,2.70825 -2.29158,3.74986 -0.20833,1.9791 -0.31232,2.08326 0.52082,3.22906 1.35411,3.22905 2.70824,2.29159 3.22906,0.93746 6.04145,1.35412 3.12489,1.87494 1.45829,3.6457 -0.52082,2.29159 -1.35412,1.87494 -2.29159,1.35411 -2.70823,0.41666 -3.22906,-0.93747 -3.22906,-1.77077 -1.35411,-3.22906 -5.52064,1.77077 1.77077,4.16653 2.81239,3.22905 4.06236,2.29159 4.68735,0.41665 4.99982,-0.41665 4.16653,-2.70825 2.70823,-4.16651 0.93747,-4.58318 -0.93747,-5.10399 -3.64571,-4.06236 -4.58317,-2.29159 -5.93729,-1.45828 -1.87494,-0.41664 -0.93746,-1.35413 -0.41665,-1.87493 0.31232,-2.08326 0.104,-0.62498 1.87492,-1.87493 2.70825,-0.93747 4.16652,0.93747 1.77077,2.49991 0.52082,0.72914 2.49991,-0.72914 3.43737,-1.1458 -1.77077,-3.6457 -3.22905,-3.22905 -3.74987,-1.35412 -4.58317,-0.41665 z m -150.09895,0.41665 0,9.37467 0,30.10312 15.62445,0 4.58318,-1.35412 4.16653,-2.81241 1.87492,-4.58317 0,-4.58317 -2.39574,-4.58317 -4.06236,-2.70825 3.64571,-2.81239 1.87493,-3.64571 0,-3.02073 0,-1.56245 -1.87493,-3.6457 -3.64571,-2.8124 -4.16653,-1.35412 -15.62445,0 z m 35.83208,0 0,9.37467 0,17.70772 0.93748,5.10399 2.70824,4.06236 4.16652,2.81239 4.99983,0.83331 5.10398,-0.83331 4.58317,-2.81239 2.70825,-4.06236 0.93746,-5.10399 0,-17.70772 0,-9.37467 -5.9373,0 0,9.37467 0,17.70772 -0.93746,3.22905 -2.70824,2.70824 -3.74986,0.93747 -3.1249,-0.93747 -2.8124,-2.70824 -0.93747,-3.22905 0,-17.70772 0,-9.37467 -5.9373,0 z m 71.14337,0 0,9.37467 0,30.10312 24.37415,0 0,-5.9373 -17.91605,0 0,-11.45793 11.45794,0 0,-6.04145 -11.45794,0 0,-6.66644 0,-2.91656 16.45777,0 0,-6.45811 -22.91587,0 z m -100.934,6.45811 9.583,0 2.81241,0.93746 0.62498,1.9791 0.20832,0.72914 -0.8333,3.22905 -2.29159,1.77077 -2.81239,0.93748 -7.29143,0 0,-6.66644 0,-2.91656 z m 0,16.0411 7.81223,0 3.1249,0.41665 2.29158,2.81241 0.93747,3.22905 -0.41665,2.29159 -1.87494,1.35412 -2.29159,0.93746 -9.583,0 0,-11.04128 z"
     id="path13548" /><path
     inkscape:connector-curvature="0"
     d="m 290.19532,453.20747 2.75407,-0.45832 2.29575,-2.29575 0.91664,-3.21239 0,-420.989536 -0.91664,-3.21239 -2.29575,-2.29576 -2.75407,-0.91663 -263.93665,0 -3.21239,0.91663 -2.29575,2.29576 -0.91663,3.21239 0,420.989536 0.91663,3.21239 2.29575,2.29575 3.21239,0.45832 263.93665,0 z m 0,12.85372 5.50814,-0.91664 5.50814,-2.75407 4.13319,-4.13319 2.75407,-5.50814 0.91663,-5.50814 0,-420.989536 -0.91663,-5.96647 -2.75407,-5.04982 -4.13319,-4.13319 -5.50814,-2.7540702 -5.50814,-0.920802 -263.93665,0 -5.96646,0.920802 -5.04983,2.7540702 -4.13319,4.13319 -2.75406,5.04982 -0.91664,5.96647 0,420.989536 0.91664,5.50814 2.75406,5.50814 4.13319,4.13319 5.04983,2.75407 5.96646,0.91664 263.93665,0"
     style="fill:#000000;fill-opacity:1;fill-rule:evenodd;stroke:none"
     id="path13552" /><path
     inkscape:connector-curvature="0"
     d="m 288.8162,158.00941 -0.91664,-14.68699 -2.29575,-14.23284 -4.12903,-14.23284 -5.50813,-13.77451 -6.88727,-12.849576 -8.72053,-11.93709 -9.64132,-10.56212 -11.01629,-10.09966 -11.93292,-8.26221 -12.85371,-7.34558 -13.77036,-5.5123 -13.77035,-4.12904 -14.68699,-2.29576 -14.69116,-0.91662 -14.68699,0.91662 -14.22866,2.29576 -14.22868,4.12904 -13.31204,5.5123 -12.85372,7.34558 -12.3954,8.26221 -10.55796,10.09966 -10.09548,10.56212 -8.26222,11.93709 -7.34557,12.849576 -5.50814,13.77451 -4.13319,14.23284 -2.29159,14.23284 -0.9208,14.68699 0.9208,14.69532 2.29159,14.68699 4.13319,13.77452 5.50814,13.77453 7.34557,12.85371 8.26222,11.93708 10.09548,11.01629 10.55796,9.64133 12.3954,8.72053 12.85372,6.89142 13.31204,5.50815 14.22868,4.12902 14.22866,2.29576 14.68699,0.91663 14.69116,-0.91663 14.68699,-2.29576 13.77035,-4.12902 13.77036,-5.50815 12.85371,-6.89142 11.93292,-8.72053 11.01629,-9.64133 9.64132,-11.01629 8.72053,-11.93708 6.88727,-12.85371 5.50813,-13.77453 4.12903,-13.77452 2.29575,-14.68699 0.91664,-14.69532"
     style="fill:#244ba6;fill-opacity:1;fill-rule:evenodd;stroke:none"
     id="path13536" /><path
     inkscape:connector-curvature="0"
     d="m 177.54071,173.62137 71.60585,0 0.91663,-4.13319 2.29575,-3.21239 3.67072,-2.75824 4.13318,-0.45415 4.12902,0.45415 3.67488,2.75824 2.29575,3.21239 0.45832,4.13319 3.6707,0 0,-21.57842 -6.88309,-21.57425 -136.79108,0 0,43.15267 25.24913,0 0.45831,-4.13319 2.75408,-3.21239 3.21239,-2.75824 4.12901,-0.45415 4.1332,0.45415 3.6707,2.75824 2.29575,3.21239 0.9208,4.13319 z m -45.44424,-35.81126 5.04982,0 0,14.23284 -5.04982,0 0,-14.23284 z m 137.24522,35.81126 -0.45832,-3.67488 -2.29575,-2.75407 -2.75407,-2.29575 -3.67071,-0.45832 -3.67487,0.45832 -2.75408,2.29575 -2.29158,2.75407 -0.46248,3.67488 0.46248,3.6707 2.29158,3.21655 2.75408,1.83744 3.67487,0.91664 3.67071,-0.91664 2.75407,-1.83744 2.29575,-3.21655 0.45832,-3.6707 z m -93.18009,0 -0.91664,-3.67488 -1.83743,-2.75407 -3.21239,-2.29575 -3.67488,-0.45832 -3.6707,0.45832 -2.75407,2.29575 -2.29576,2.75407 -0.45831,3.67488 0.45831,3.6707 2.29576,3.21655 2.75407,1.83744 3.6707,0.91664 3.67488,-0.91664 3.21239,-1.83744 1.83743,-3.21655 0.91664,-3.6707 z m 5.04983,-35.81126 24.78663,0 0,14.23284 -24.78663,0 0,-14.23284 z m 27.08238,0 25.24496,0 0,14.23284 -25.24496,0 0,-14.23284 z m 40.85275,0 19.27849,0 4.59151,14.23284 -23.87,0 0,-14.23284 z m -109.70868,0 11.93291,0 0,34.43214 -11.93291,0 0,-34.43214 z m 96.39664,0 11.4746,0 0,34.43214 -11.4746,0 0,-34.43214 z m -82.16381,0 25.24495,0 0,14.23284 -25.24495,0 0,-14.23284 z"
     style="fill:#ffffff;fill-opacity:1;fill-rule:evenodd;stroke:none"
     id="path13542" /><path
     inkscape:connector-curvature="0"
     d="m 94.65213,153.88039 -3.21239,-11.47877 -39.4778,0 -3.21239,11.47877 45.90258,0 z m -4.12903,22.95337 0,7.34557 7.79973,0 0,-7.34557 3.67487,-3.67071 0,-15.61196 -3.67487,-3.6707 -5.58314,-15.14948 -43.99014,0 -3.6707,15.14948 -3.67071,3.6707 0,15.61196 3.67071,3.67071 0,7.34557 7.80389,0 0,-7.34557 37.64036,0"
     style="fill:#ffffff;fill-opacity:1;fill-rule:evenodd;stroke:none"
     id="path13544" /><path
     inkscape:connector-curvature="0"
     d="m 115.76806,40.025994 5.50814,0 0,235.975136 -5.50814,0 0,-235.975136 z"
     style="fill:#ffffff;fill-opacity:1;fill-rule:evenodd;stroke:none"
     id="path13546" /></svg>