<?xml version="1.0" encoding="UTF-8" standalone="no"?>
<!-- Created with Inkscape (http://www.inkscape.org/) -->

<svg
   xmlns:dc="http://purl.org/dc/elements/1.1/"
   xmlns:cc="http://creativecommons.org/ns#"
   xmlns:rdf="http://www.w3.org/1999/02/22-rdf-syntax-ns#"
   xmlns:svg="http://www.w3.org/2000/svg"
   xmlns="http://www.w3.org/2000/svg"
   xmlns:sodipodi="http://sodipodi.sourceforge.net/DTD/sodipodi-0.dtd"
   xmlns:inkscape="http://www.inkscape.org/namespaces/inkscape"
   version="1.1"
   width="294.56494"
   height="295.06641"
   id="svg2"
   xml:space="preserve"
   inkscape:version="0.48.2 r9819"
   sodipodi:docname="Chile RO-11a.svg"><sodipodi:namedview
     pagecolor="#ffffff"
     bordercolor="#666666"
     borderopacity="1"
     objecttolerance="10"
     gridtolerance="10"
     guidetolerance="10"
     inkscape:pageopacity="0"
     inkscape:pageshadow="2"
     inkscape:window-width="1280"
     inkscape:window-height="1004"
     id="namedview19"
     showgrid="false"
     inkscape:zoom="0.71718049"
     inkscape:cx="-254.24156"
     inkscape:cy="63.650511"
     inkscape:window-x="-8"
     inkscape:window-y="-8"
     inkscape:window-maximized="1"
     inkscape:current-layer="svg2"
     fit-margin-top="0"
     fit-margin-left="0"
     fit-margin-right="0"
     fit-margin-bottom="0" /><defs
     id="defs20" /><metadata
     id="metadata8"><rdf:RDF><cc:Work
         rdf:about=""><dc:format>image/svg+xml</dc:format><dc:type
           rdf:resource="http://purl.org/dc/dcmitype/StillImage" /><dc:title></dc:title></cc:Work></rdf:RDF></metadata><path
     inkscape:connector-curvature="0"
     d="m 293.55794,147.28573 -0.9916,-16.36396 -2.9745,-15.86818 -4.4617,-15.868195 -6.4447,-15.36827 -7.9362,-14.38092 -9.4193,-13.38943 -10.9106,-11.902179 -11.9022,-10.9065 -13.3853,-9.919181 -14.3809,-7.932 -15.3725,-5.948999 -15.8681,-4.46592 -15.8683,-2.9745 -16.3597,-0.9915001 -16.3638,0.9915001 -16.364,2.9745 -15.86821,4.46592 -14.8767,5.948999 -14.3809,7.932 -13.3853,9.919181 -12.3979,10.9065 -10.9107,11.902179 -9.41922,13.38943 -7.93619,14.38092 -6.444738,15.36827 -4.46176,15.868195 -2.97451,15.86818 -0.49574,16.36396 0.49574,16.36393 2.97451,16.36393 4.46176,15.86817 6.444738,15.36827 7.93619,14.38092 9.41922,13.38943 10.9107,11.90218 12.3979,10.9065 13.3853,9.42343 14.3809,7.932 14.8767,6.44892 15.86821,4.46176 16.364,2.9745 16.3638,0.9915 16.3597,-0.9915 15.8683,-2.9745 15.8681,-4.46176 15.3725,-6.44892 14.3809,-7.932 13.3853,-9.42343 11.9022,-10.9065 10.9106,-11.90218 9.4193,-13.38943 7.9362,-14.38092 6.4447,-15.36827 4.4617,-15.86817 2.9745,-16.36393 0.9916,-16.36393 z"
     style="fill:#ffffff;stroke:#000000;stroke-width:1.9996655;stroke-linecap:round;stroke-linejoin:round;stroke-miterlimit:10;stroke-opacity:1;stroke-dasharray:none"
     id="path12736" /><path
     inkscape:connector-curvature="0"
     d="m 287.60894,147.28573 -0.9915,-16.85971 -2.9746,-16.36392 -5.4532,-16.363965 -6.9446,-15.36825 -8.4279,-14.87668 -10.4149,-13.38943 -12.3978,-11.902169 -12.8896,-10.41076 -14.8766,-8.927671 -15.3725,-6.94051 -16.3639,-4.9575 -16.364,-2.974499 -16.8555,-0.9915 -16.8596,0.9915 -16.8598,2.974499 -16.36391,4.9575 -15.3724,6.94051 -14.381,8.927671 -13.3894,10.41076 -11.8979,11.902169 -10.4149,13.38943 -8.92358,14.87668 -6.94467,15.36825 -4.95751,16.363965 -3.470248,16.36392 -0.9915,16.85971 0.9915,17.35543 3.470248,16.36393 4.95751,16.36393 6.94467,15.36826 8.92358,14.38092 10.4149,13.38943 11.8979,12.39793 13.3894,10.41076 14.381,8.43192 15.3724,6.9405 16.36391,5.45326 16.8598,2.9745 16.8596,0.9915 16.8555,-0.9915 16.364,-2.9745 16.3639,-5.45326 15.3725,-6.9405 14.8766,-8.43192 12.8896,-10.41076 12.3978,-12.39793 10.4149,-13.38943 8.4279,-14.38092 6.9446,-15.36826 5.4532,-16.36393 2.9746,-16.36393 0.9915,-17.35543"
     style="fill:#244ba6;fill-opacity:1;fill-rule:evenodd;stroke:none"
     id="path12724" /><path
     inkscape:connector-curvature="0"
     d="m 96.20753,119.51952 -0.9914,-2.97867 -1.9831,-1.983 -2.9786,-0.9915 -2.9745,0.9915 -2.4787,1.983 -0.4958,2.97867 0.4958,2.9745 2.4787,2.47875 2.9745,0.49575 2.9786,-0.49575 1.9831,-2.47875 0.9914,-2.9745"
     style="fill:#ffffff;fill-opacity:1;fill-rule:evenodd;stroke:none"
     id="path12728" /><path
     inkscape:connector-curvature="0"
     d="m 53.56053,91.749135 -0.9915,-3.47025 -2.4788,-2.47875 -3.4702,-0.99567 -3.4703,0.99567 -2.4787,2.47875 -0.9916,3.47025 0.9916,3.47025 2.4787,2.97451 3.4703,0.49992 3.4702,-0.49992 2.4788,-2.97451 0.9915,-3.47025"
     style="fill:#ffffff;fill-opacity:1;fill-rule:evenodd;stroke:none"
     id="path12730" /><path
     inkscape:connector-curvature="0"
     d="m 32.73483,138.85381 1.4873,-0.49579 0.4958,-1.48308 0,-16.36808 2.4829,-4.95751 0,35.70238 1.4872,1.983 -1.4872,1.98301 0,20.82984 0.9914,1.48309 1.4872,0.49575 3.4703,0 1.4873,-0.49575 0.4958,-1.48309 0,-20.82984 -0.9916,-1.98301 0.9916,-1.983 0,-12.89371 2.9745,0 0,15.86821 0.9915,1.98717 -0.9915,2.47875 0,27.76619 0.4957,1.48725 1.4872,0.9915 4.4659,0 1.4873,-0.9915 0.4958,-1.48725 0,-27.76619 -0.9916,-2.47875 0.9916,-1.98717 0,-39.17264 8.9235,21.82135 0.9915,0.9915 10.4149,5.94904 1.983,0.49575 0.9915,-0.9915 3.4703,-6.9447 0,27.77038 0.9915,1.983 -0.9915,1.983 0,18.34693 0.9915,0.49575 3.4703,0 0.9914,-0.49575 0.4958,-0.9915 0,-17.35543 -0.9915,-1.983 0.9915,-1.983 0,-10.91068 1.983,0 0,7.93618 0.9957,1.983 -0.9957,1.983 0,13.38943 0.4999,0.9915 0.9914,0.49575 2.9746,0 0.9915,-0.49575 0.4957,-0.9915 0,-13.38943 -0.9915,-1.983 0.9915,-2.47875 0,-23.80022 1.9831,5.44912 0,10.41492 0.4957,0.99151 0.99151,0.49574 1.4873,0 0.9914,-0.49574 0.4958,-0.99151 0,-10.41492 -0.4958,-0.98734 -4.46171,-12.39795 -1.4873,-1.48725 -6.9446,-0.99149 -6.9405,0.99149 6.4447,-0.99149 0.9916,0 -7.4363,0.99149 -1.983,1.48725 -3.4703,8.43192 -0.9915,0.98733 -0.4958,-0.49158 -5.9531,-3.47441 -0.9915,-0.9915 -3.4703,-10.41076 -7.932,-20.32993 -1.983,-0.99567 -8.9277,-0.98734 -9.4192,0.98734 -1.4872,0.99567 -7.44047,16.85968 0,17.35542 0.99147,1.48308 1.4873,0.49579 1.4872,0"
     style="fill:#ffffff;fill-opacity:1;fill-rule:evenodd;stroke:none"
     id="path12732" /><path
     inkscape:connector-curvature="0"
     d="m 173.38634,142.82398 -5.9531,-1.48726 -6.4448,-0.49575 -5.9491,1.48309 -5.4573,2.97867 -4.9576,3.966 -2.9745,5.45326 -1.9829,5.95317 0,6.44475 1.4872,5.95317 3.4702,5.45326 4.4618,4.46175 5.4575,3.47025 5.9489,1.48725 6.4448,0 5.9531,-1.983 5.4533,-3.47025 3.9661,-4.46592 2.9744,-5.45326 1.4872,-5.949 -0.4957,-6.44475 -1.9831,-5.95318 -3.4701,-5.45325 -4.4618,-3.966 -10.4149,17.85118 0.4957,2.47875 -1.4872,1.983 -2.4788,0.49575 -1.983,-0.9915 -0.4957,-2.47875 0.9915,-2.47875 1.983,-0.49575 10.4149,-18.34693 z m 49.5833,-15.86821 1.9831,-2.97866 -7.9321,0 0,-3.47025 20.33,-3.47025 0,6.9405 -8.4277,0 -2.9746,4.96166 6.4448,10.9107 6.4448,-1.98303 6.9446,-0.49575 6.9405,1.48312 5.949,2.97867 5.4574,4.46175 3.9661,5.45325 2.4787,6.44892 0.4958,6.94051 -0.9916,6.94051 -2.4787,6.44892 -4.4618,5.45325 -5.4574,3.966 -6.4448,2.47875 -6.9405,0.99567 -6.9446,-0.99567 -6.4448,-2.47875 -5.4531,-3.966 -4.466,-5.45325 -2.4789,-6.44892 -0.9914,-6.94051 0.4958,-6.44476 2.4787,-6.94467 3.966,-5.45325 4.9616,-4.46175 -5.4573,-9.91921 -15.3683,27.77038 1.4873,2.97451 0,3.47025 -1.4873,2.9745 -2.9787,1.98717 -3.4703,0 -2.9744,-1.98717 -1.9829,-2.9745 0,-3.47025 1.9829,-2.97451 -15.8682,-27.77038 -5.4532,9.91921 5.4532,4.46175 3.9659,5.45325 2.4831,6.94467 0.4957,6.44476 -0.9915,6.94051 -2.9787,6.44892 -4.4617,5.45325 -5.4533,3.966 -6.4448,2.47875 -6.9446,0.99567 -6.9405,-0.99567 -6.4489,-2.47875 -5.4533,-3.966 -3.966,-5.45325 -2.9746,-6.44892 -0.9914,-6.94051 0.4958,-6.94051 2.4787,-6.44892 3.966,-5.45325 5.4533,-4.46175 6.4488,-2.97867 6.4449,-1.48312 6.9405,0.49575 6.4489,1.98303 6.4447,-10.9107 -6.4447,-11.90216 0,-3.47026 20.3299,0 0,3.47026 -16.3639,0 5.4531,9.91916 38.6769,0 z m -17.3554,30.74072 -3.4703,0 -15.8681,-27.27047 34.7109,0 -15.3725,27.27047 z m 35.7024,4.96167 -10.4108,-17.85118 -4.4617,3.966 -3.4745,5.45325 -1.9829,5.95318 -0.4958,6.44475 1.4872,5.949 2.9746,5.45326 4.4658,4.46592 5.4533,3.47025 5.949,1.983 6.4489,0 5.9491,-1.48725 5.4532,-3.47025 4.4659,-4.46175 2.9745,-5.45326 1.4873,-5.95317 0,-6.44475 -1.4873,-5.95317 -3.4703,-5.45326 -4.4659,-3.966 -5.4532,-2.97867 -6.4447,-1.48309 -6.449,0.49575 -5.949,1.48726 10.4149,18.34693 2.4788,0.49575 0.9915,2.47875 -0.9915,2.47875 -1.983,0.9915 -2.4829,-0.49575 -1.4873,-1.983 0.4958,-2.47875"
     style="fill:#ffffff;fill-opacity:1;fill-rule:evenodd;stroke:none"
     id="path12734" /><path
     inkscape:connector-curvature="0"
     d="m 117.52904,15.386915 5.4533,0 0,263.797575 -5.4533,0 0,-263.797575 z"
     style="fill:#ffffff;fill-opacity:1;fill-rule:evenodd;stroke:none"
     id="path12738" /></svg>