<?xml version="1.0" encoding="UTF-8" standalone="no"?>
<!-- Created with Inkscape (http://www.inkscape.org/) -->

<svg
   xmlns:dc="http://purl.org/dc/elements/1.1/"
   xmlns:cc="http://creativecommons.org/ns#"
   xmlns:rdf="http://www.w3.org/1999/02/22-rdf-syntax-ns#"
   xmlns:svg="http://www.w3.org/2000/svg"
   xmlns="http://www.w3.org/2000/svg"
   xmlns:sodipodi="http://sodipodi.sourceforge.net/DTD/sodipodi-0.dtd"
   xmlns:inkscape="http://www.inkscape.org/namespaces/inkscape"
   version="1.1"
   width="310.9718"
   height="465.0968"
   id="svg2"
   xml:space="preserve"
   inkscape:version="0.48.2 r9819"
   sodipodi:docname="Chile RO-9.svg"><sodipodi:namedview
     pagecolor="#ffffff"
     bordercolor="#666666"
     borderopacity="1"
     objecttolerance="10"
     gridtolerance="10"
     guidetolerance="10"
     inkscape:pageopacity="0"
     inkscape:pageshadow="2"
     inkscape:window-width="1280"
     inkscape:window-height="1004"
     id="namedview19"
     showgrid="false"
     inkscape:zoom="1.0142464"
     inkscape:cx="-2.6578674"
     inkscape:cy="204.28187"
     inkscape:window-x="-8"
     inkscape:window-y="-8"
     inkscape:window-maximized="1"
     inkscape:current-layer="svg2"
     fit-margin-top="0"
     fit-margin-left="0"
     fit-margin-right="0"
     fit-margin-bottom="0" /><defs
     id="defs20" /><metadata
     id="metadata8"><rdf:RDF><cc:Work
         rdf:about=""><dc:format>image/svg+xml</dc:format><dc:type
           rdf:resource="http://purl.org/dc/dcmitype/StillImage" /><dc:title></dc:title></cc:Work></rdf:RDF></metadata><path
     inkscape:connector-curvature="0"
     d="m 285.16073,464.10363 6.316,-0.8999 5.86187,-2.70805 5.41194,-3.60378 3.60795,-5.41192 2.70804,-5.86604 0.89989,-6.31183 0,-413.493441 -0.89989,-6.31183 -2.70804,-6.31182 -3.60795,-4.9619798 -5.41194,-4.05789 -5.86187,-2.25393 -6.316,-0.8999 -259.34736,0 -6.31183,0.8999 -5.86604,2.25393 -5.411928,4.05789 -3.60794,4.9619798 -2.70805,6.31182 -0.8998999,6.31183 0,413.493441 0.8998999,6.31183 2.70805,5.86604 3.60794,5.41192 5.411928,3.60378 5.86604,2.70805 6.31183,0.8999 259.34736,0 z"
     style="fill:#ffffff;stroke:#000000;stroke-width:1.99978697;stroke-linecap:round;stroke-linejoin:round;stroke-miterlimit:10;stroke-opacity:1;stroke-dasharray:none"
     id="path12522" /><path
     inkscape:connector-curvature="0"
     d="m 285.16073,445.61394 3.15801,-0.89991 2.25392,-2.25392 0.90407,-3.158 0,-413.493441 -0.90407,-3.15383 -2.25392,-2.25393 -3.15801,-0.90407 -259.34736,0 -3.15801,0.90407 -2.25392,2.25393 -0.8999,3.15383 0,413.493441 0.8999,3.158 2.25392,2.25392 3.15801,0.89991 259.34736,0 z m 0,12.17787 5.86188,-0.89991 4.96199,-2.70804 4.05789,-4.05791 2.70805,-4.96196 0.90406,-5.86188 0,-413.493441 -0.90406,-5.86187 -2.70805,-4.95781 -4.05789,-4.51202 -4.96199,-2.2539298 -5.86188,-0.8999 -259.34736,0 -5.86188,0.8999 -4.96197,2.2539298 -4.05791,4.51202 -2.708038,4.95781 -0.8999,5.86187 0,413.493441 0.8999,5.86188 2.708038,4.96196 4.05791,4.05791 4.96197,2.70804 5.86188,0.89991 259.34736,0"
     style="fill:#000000;fill-opacity:1;fill-rule:evenodd;stroke:none"
     id="path12526" /><path
     inkscape:connector-curvature="0"
     style="fill:#000000;fill-opacity:1;fill-rule:evenodd;stroke:none"
     d="m 143.97578,319.76068 -3.64543,0.93741 -2.70805,2.29142 -1.77064,3.12466 -0.9374,7.18675 0.9374,7.29087 1.77064,3.12468 2.70805,2.29142 3.64543,0.41662 3.64545,-0.41662 2.70805,-2.29142 1.77064,-3.12468 0.9374,-7.29087 -0.9374,-7.18675 -1.77064,-3.12466 -2.70805,-2.29142 -3.64545,-0.93741 z m 44.68275,0 -3.64544,0.93741 -2.70805,2.29142 -1.77064,3.12466 -0.93741,7.18675 0.93741,7.29087 1.77064,3.12468 2.70805,2.29142 3.64544,0.41662 3.54128,-0.41662 2.70805,-2.29142 1.8748,-3.12468 0.83325,-7.29087 -0.83325,-7.18675 -1.8748,-3.12466 -2.70805,-2.29142 -3.54128,-0.93741 z m -67.70111,0.52078 -2.70805,0.83324 -2.18727,1.35403 -1.35403,2.70805 -0.52078,2.70803 0.52078,2.70805 2.18727,2.29142 2.70805,1.35403 3.64545,0.93739 2.29142,1.35403 0.83324,2.18727 -1.35403,2.70805 -1.35402,0.93739 -1.77064,0.41663 -2.29142,-0.83325 -1.77066,-1.35403 -1.354,-1.87479 -3.64546,1.35402 1.35402,2.70805 1.87481,1.87479 2.70805,1.35403 3.12466,0.41662 3.12466,-0.41662 2.70806,-1.35403 1.87479,-2.70804 0.83325,-3.22882 -0.83325,-3.5413 -2.29143,-2.70803 -3.12466,-1.35403 -4.06207,-0.93741 -1.35401,-0.93739 -0.52078,-1.35403 0.52078,-1.77064 0.83324,-1.35402 1.8748,-0.41661 2.70804,0.41661 1.35403,2.29142 4.06206,-1.35402 -1.35402,-2.29143 -1.8748,-2.29142 -2.70805,-0.83324 -2.70803,0 z m 38.32924,0 0,25.72643 15.83165,0 0,-3.64545 -11.76958,0 0,-22.08098 -4.06207,0 z m -15.31088,3.5413 2.70806,0.93739 1.35402,2.29142 0.93739,6.24935 -0.93739,6.35347 -1.35402,2.29143 -2.70806,0.83325 -2.70804,-0.83325 -1.35401,-2.29143 -0.93741,-6.35347 0.93741,-6.24935 1.35401,-2.29142 2.70804,-0.93739 z m 44.68275,0 2.70804,0.93739 1.35402,2.29142 0.83324,6.24935 -0.83324,6.35347 -1.35402,2.29143 -2.70804,0.83325 -2.70805,-0.83325 -1.35402,-2.29143 -0.9374,-6.35347 0.9374,-6.24935 1.35402,-2.29142 2.70805,-0.93739 z m -122.69528,63.22242 -3.64544,0.83325 -2.70805,1.8748 -1.77064,3.12467 -0.72909,5.72854 -0.20832,1.45819 0.93741,7.18673 1.77064,3.22882 2.70805,2.18727 3.64544,0.9374 3.12467,-0.9374 3.22882,-2.18727 1.35403,-3.22882 1.35401,-7.18673 -0.3123,-1.45819 -1.04155,-5.72854 -1.35403,-3.12467 -3.22881,-1.8748 -3.12467,-0.83325 z m 42.80796,0 -3.5413,0.83325 -2.70803,1.8748 -1.87481,3.12467 -0.62494,5.72854 -0.20832,1.45819 0.83326,7.18673 1.87481,3.22882 2.70803,2.18727 3.5413,0.9374 3.64544,-0.9374 2.70805,-2.18727 1.77064,-3.22882 0.93739,-7.18673 -0.2083,-1.45819 -0.72909,-5.72854 -1.77064,-3.12467 -2.70805,-1.8748 -3.64544,-0.83325 z m 23.01837,0 -3.12466,0.41662 -2.70804,1.77065 -1.77065,2.70804 -1.35403,5.4161 0,1.24985 0,4.58286 1.35403,5.41608 1.77065,2.70806 3.12466,1.87479 3.22882,0.41662 3.12468,-0.9374 2.70804,-2.18727 1.77065,-2.70804 -4.06207,-1.35403 -1.35403,2.18727 -2.70805,0.9374 -2.18726,-0.9374 -1.87479,-1.77063 -0.83325,-4.47869 0,-3.74962 0,-0.83324 0.83325,-4.06206 1.87479,-2.18727 2.18726,-0.52078 2.70805,0.52078 1.35403,2.18727 3.64543,-1.35402 -1.87479,-2.60389 -2.18726,-2.29143 -3.64546,-0.41662 z m 32.49655,0 -3.64544,0.41662 -2.70806,1.77065 -1.77063,2.70804 -1.35403,5.4161 0,1.24985 0,4.58286 1.35403,5.41608 1.77063,2.70806 3.22884,1.87479 3.12466,0.41662 3.12466,-0.9374 2.70806,-2.18727 1.87478,-2.70804 -4.06206,-1.35403 -1.35402,2.18727 -2.29142,0.9374 -2.70805,-0.9374 -1.77064,-1.77063 -0.9374,-4.47869 0,-3.74962 0,-0.83324 0.9374,-4.06206 1.77064,-2.18727 2.29142,-0.52078 2.70805,0.52078 1.35402,2.18727 3.54128,-1.35402 -1.354,-2.60389 -2.70806,-2.29143 -3.12466,-0.41662 z m 106.44699,0 -2.29143,0.83325 -2.18726,1.8748 -1.87481,2.18726 -0.41662,2.70804 0.9374,3.12467 0.52078,0.83324 1.24986,1.45819 2.70805,0.9374 4.06207,0.83325 1.77064,1.35402 0.9374,2.29142 -0.9374,2.70804 -1.35402,0.9374 -2.18727,0.41662 -2.29142,-0.41662 -1.77064,-1.35402 -0.93741,-2.29142 -3.64543,1.35403 0.93739,2.70803 2.29143,2.29143 2.70803,1.35402 2.70805,0.41662 3.54129,-0.41662 2.70805,-1.87479 1.8748,-2.70806 0.41662,-3.12466 -0.9374,-3.12466 -2.18727,-2.70806 -1.8748,-1.04156 -1.35402,-0.83324 -3.54129,-0.41661 -1.8748,-0.93741 -0.41662,-1.77065 0.41662,-1.77063 1.35403,-1.35403 1.87479,-0.52078 2.18727,0.52078 1.8748,2.18727 3.54129,-0.83324 -0.83325,-2.70806 -2.29142,-1.77063 -2.29142,-1.35403 -3.12466,0 z m -239.97445,0.41662 0,11.14464 0,14.58179 4.06206,0 0,-14.58179 0,-0.31229 0.10397,0.31229 5.72857,14.58179 5.83269,-14.58179 0.10398,-0.31229 0,0.31229 0,14.58179 4.06207,0 0,-14.58179 0,-11.14464 -4.06207,0 -4.37453,11.14464 -1.56233,3.74962 -1.45819,-3.74962 -4.37453,-11.14464 -4.06208,0 z m 48.7448,0 0,4.06207 5.83272,0 0,7.08257 0,14.58179 4.06206,0 0,-14.58179 0,-7.08257 5.83272,0 0,-4.06207 -15.7275,0 z m 64.88894,0 0,11.14464 0,14.58179 4.06207,0 0,-14.58179 0,-11.14464 -4.06207,0 z m 32.07991,0 0,11.14464 0,14.58179 15.72749,0 0,-4.06207 -11.66541,0 0,-10.51972 0,-11.14464 -4.06208,0 z m 21.66436,0 0,11.14464 0,14.58179 15.72749,0 0,-4.06207 -11.66542,0 0,-7.29088 7.60335,0 0,-3.22884 0,-0.83324 -7.60335,0 0,-6.24933 11.24881,0 0,-4.06207 -15.31088,0 z m 19.37293,0 0,4.06207 5.83272,0 0,7.08257 0,14.58179 4.06207,0 0,-14.58179 0,-7.08257 5.93687,0 0,-4.06207 -15.83166,0 z m 28.43448,0 -3.95791,11.14464 -5.10363,14.58179 4.06207,0 2.70805,-7.2909 8.12413,0 2.29142,7.2909 4.47869,0 -5.10362,-14.58179 -3.95792,-11.14464 -3.54128,0 z m -179.98084,3.54129 2.29142,0.9374 1.77064,2.29143 0.62494,4.37452 0.31229,1.45819 -0.93739,6.35348 -1.77064,2.18727 -2.29143,0.9374 -2.70804,-0.9374 -1.77065,-2.18727 -0.52078,-6.35348 0.10397,-1.45819 0.41663,-4.37452 1.77064,-2.29143 2.70805,-0.9374 z m 42.80796,0 2.70805,0.9374 1.35401,2.29143 0.7291,4.37452 0.20831,1.45819 -0.93741,6.35348 -1.35401,2.18727 -2.70805,0.9374 -2.70805,-0.9374 -1.35402,-2.18727 -0.83324,-6.35348 0.20831,-1.45819 0.62493,-4.37452 1.35402,-2.29143 2.70805,-0.9374 z m 138.94352,3.22883 1.56233,4.37452 1.14572,3.22884 -5.4161,0 1.14572,-3.22884 1.56233,-4.37452 z"
     id="path12530" /><path
     inkscape:connector-curvature="0"
     d="m 284.25667,155.22405 -0.89989,-14.42763 -2.25394,-13.98185 -4.06206,-13.97767 -5.86187,-13.527721 -6.76596,-12.62783 -8.56992,-11.71959 -9.46981,-10.37389 -10.82802,-9.91977 -11.72792,-8.11581 -12.62782,-7.2159 -13.07778,-5.40776 -13.98183,-4.06205 -14.43597,-2.25394 -13.98184,-0.8999 -14.4318,0.8999 -14.43179,2.25394 -13.98601,4.06205 -13.0778,5.40776 -12.62782,7.2159 -11.72791,8.11581 -10.82385,9.91977 -9.47399,10.37389 -8.56992,11.71959 -6.76594,12.62783 -5.86188,13.527721 -3.60795,13.97767 -2.70804,13.98185 -0.8999,14.42763 0.8999,14.42763 2.70804,14.4318 3.60795,13.52772 5.86188,13.52773 6.76594,12.62365 8.56992,11.72375 9.47399,10.82384 10.82385,9.46983 11.72791,8.56576 12.62782,6.76595 13.0778,5.40775 13.98601,4.06207 14.43179,2.70388 14.4318,0.44995 13.98184,-0.44995 14.43597,-2.70388 13.98183,-4.06207 13.07778,-5.40775 12.62782,-6.76595 11.72792,-8.56576 10.82802,-9.46983 9.46981,-10.82384 8.56992,-11.72375 6.76596,-12.62365 5.86187,-13.52773 4.06206,-13.52772 2.25394,-14.4318 0.89989,-14.42763"
     style="fill:#244ba6;fill-opacity:1;fill-rule:evenodd;stroke:none"
     id="path12524" /><path
     inkscape:connector-curvature="0"
     d="m 80.84083,171.90978 -4.0579,3.15383 -2.25809,4.50785 -0.8999,4.96196 1.80397,4.95782 3.15799,4.06206 4.50786,2.70387 4.96197,0.44996 4.96197,-1.34985 4.0579,-3.60795 2.70804,-4.51202 6.31602,-1.80398 -1.35402,5.86188 -3.60795,5.41192 -4.51204,3.60795 -5.86188,2.25393 -6.31599,0.44995 -5.86188,-1.7998 -4.96196,-3.60796 -3.60795,-4.96196 -2.2581,-5.86188 0,-5.86187 1.80398,-5.86188 3.6121,-4.95781 4.95781,-3.61211 5.86606,-2.24976 -0.90408,4.05372 -2.25393,3.61213 z m 15.78582,2.70387 -0.44994,-0.44995 1.354,-6.76594 3.60798,2.70804 2.70387,4.0579 -3.60794,0.89991 -3.60797,-0.44996 z m 99.68107,-0.44995 -0.45412,7.2159 0.45412,6.76178 2.70387,6.76179 3.60795,5.86187 4.96197,4.96197 5.86188,3.60794 6.76594,2.25393 7.22007,0.89991 6.76177,-0.89991 6.76594,-2.70388 5.86605,-3.60794 4.96197,-4.96198 3.60795,-6.31183 2.25393,-6.76594 0.44996,-6.76179 -0.89991,-7.21589 -2.70805,-6.31182 -3.60795,-5.86188 -5.41192,-4.96198 -5.86188,-3.60378 -6.76594,-2.25392 -7.21589,-0.45412 -6.76596,1.35403 -6.76594,2.25393 -1.80398,-2.25393 7.2159,-2.70805 7.66586,-1.80397 8.11996,0.45411 7.66584,1.80398 -3.60793,-4.51203 -7.66586,-1.80397 -7.67002,-0.44995 -7.66585,1.35402 -7.21589,3.15384 -7.67002,-10.36973 -0.44995,-1.80398 0.44995,-0.8999 3.61212,0 0.44994,0.44995 0.89992,0.44995 1.80397,0.44996 0.90407,-0.89991 0,-15.3317 -1.35403,-0.44995 -1.35401,0 -3.158,0.89991 -2.25393,0.44994 -1.35402,-0.8999 0,-2.70805 0.90407,-0.44579 0,-3.6121 -0.44996,-1.34986 -2.70804,-0.44995 -2.70388,3.60795 -2.25809,0 -10.37389,-16.685741 -1.80398,-1.80397 -7.66585,0 -0.90407,-0.44995 -4.50784,0 -0.90408,0.89991 -1.35402,0 -0.44996,0.90406 0,1.35403 0.90408,1.34986 0.44995,1.803971 1.35403,0.90408 0.89989,0.89989 1.35403,0 2.25392,0.44996 0.90407,-0.44996 0.8999,-0.44995 0.45412,-0.90406 1.34986,-0.44996 0.90407,-0.44995 0.89991,-0.45411 1.35402,0 1.80397,0.90406 0.44995,2.25393 0.45411,1.80398 1.34986,0.90407 0.90408,2.70387 1.80397,2.25393 0,3.15799 -0.8999,0.44995 -9.92395,0.44996 -10.37389,0.8999 -8.56992,1.80815 -8.11997,2.25392 -2.70387,1.80398 -1.35403,2.25393 -13.53189,1.34985 -22.10181,1.80813 -1.34986,0 0,-1.35401 -26.61385,0 0,0.89989 -8.56991,0 -0.89991,1.80398 -7.67001,0 -0.89991,1.80815 -1.35402,2.24975 0,4.05791 1.80397,1.80397 3.60795,2.25809 2.70804,0.89991 -6.76594,4.50785 -2.70804,2.70805 -2.70389,3.60794 -0.90407,3.15383 -2.70386,3.158 -0.90408,3.60795 5.86187,0.44995 4.51202,-6.31183 4.96198,-5.86187 3.60794,-1.80397 1.35403,-0.90407 1.80397,-0.44995 0.8999,1.80397 1.35403,0.44995 2.70804,1.35403 2.70388,0.8999 0,1.35403 -6.76595,2.25391 -5.86188,4.05791 -4.96196,5.41193 -3.60795,5.86187 -2.25393,7.2159 -0.45412,6.76177 1.35403,7.2159 2.70804,6.76178 4.0579,5.86188 5.41193,4.51201 6.76594,3.60796 6.76595,1.80396 7.2159,0 6.76594,-1.35401 6.76596,-3.15801 5.41193,-4.50784 4.51202,-5.41193 3.15799,-6.76178 1.34986,-6.76594 30.22177,0.44995 3.15801,-0.89991 3.60795,-0.44995 2.25392,-1.80397 2.25392,-1.35402 0.45412,-0.90408 35.17959,-41.93302 7.21591,9.91977 -4.96199,4.96197 -4.0579,6.31183 -3.15798,6.76594 -1.35403,7.21174 3.60795,3.158 2.25809,-9.01988 4.50785,-8.1158 6.76594,-6.76178 1.80398,2.25392 -4.96197,4.95781 -4.0579,6.31599 -2.25392,6.31183 z m 23.45166,-0.90407 -2.70388,3.60796 -0.90408,3.60793 0.44997,4.0579 2.25808,3.60796 3.15383,2.70388 4.06208,0.90407 4.05789,-0.45412 3.60796,-1.80397 2.70804,-3.15384 0.89991,-3.60794 0,-4.05791 -1.80398,-4.0579 -3.158,-2.70387 -3.60796,-1.35403 -4.05789,0 -5.41192,-7.21589 5.86188,-1.35403 5.86603,0 5.41193,2.2581 4.50784,3.60794 3.15801,4.95781 1.80398,5.41193 0,5.86187 -1.80398,5.86188 -3.15801,4.50784 -4.50784,3.60795 -5.86605,2.25393 -5.86187,0 -5.41192,-1.35402 -4.96198,-3.15383 -4.0579,-4.51202 -2.25809,-5.40776 -0.44995,-5.41193 0.90407,-5.41191 2.25393,-4.50786 3.60794,-4.06206 5.41193,6.76594"
     style="fill:#ffffff;fill-opacity:1;fill-rule:evenodd;stroke:none"
     id="path12528" /></svg>