<?xml version="1.0" encoding="UTF-8" standalone="no"?>
<!-- Created with Inkscape (http://www.inkscape.org/) -->

<svg
   xmlns:dc="http://purl.org/dc/elements/1.1/"
   xmlns:cc="http://creativecommons.org/ns#"
   xmlns:rdf="http://www.w3.org/1999/02/22-rdf-syntax-ns#"
   xmlns:svg="http://www.w3.org/2000/svg"
   xmlns="http://www.w3.org/2000/svg"
   xmlns:sodipodi="http://sodipodi.sourceforge.net/DTD/sodipodi-0.dtd"
   xmlns:inkscape="http://www.inkscape.org/namespaces/inkscape"
   version="1.1"
   width="105.5875"
   height="105.5875"
   id="svg2"
   xml:space="preserve"
   inkscape:version="0.48.2 r9819"
   sodipodi:docname="AJAX1.svg"><sodipodi:namedview
     pagecolor="#ffffff"
     bordercolor="#666666"
     borderopacity="1"
     objecttolerance="10"
     gridtolerance="10"
     guidetolerance="10"
     inkscape:pageopacity="0"
     inkscape:pageshadow="2"
     inkscape:window-width="1280"
     inkscape:window-height="1004"
     id="namedview19"
     showgrid="false"
     inkscape:zoom="4.0569855"
     inkscape:cx="35.217619"
     inkscape:cy="46.19018"
     inkscape:window-x="-8"
     inkscape:window-y="-8"
     inkscape:window-maximized="1"
     inkscape:current-layer="svg2"
     fit-margin-top="0.05"
     fit-margin-left="0.05"
     fit-margin-right="0.05"
     fit-margin-bottom="0.05" /><defs
     id="defs20" /><metadata
     id="metadata8"><rdf:RDF><cc:Work
         rdf:about=""><dc:format>image/svg+xml</dc:format><dc:type
           rdf:resource="http://purl.org/dc/dcmitype/StillImage" /><dc:title></dc:title></cc:Work></rdf:RDF></metadata><path
     d="m 52.81511,9.2657455 c 24.0045,0 43.47275,19.4758325 43.47275,43.4896835 0,24.035044 -19.46825,43.510877 -43.47275,43.532071 C 28.78944,96.266306 9.321185,76.790473 9.3,52.755429 9.321185,28.741578 28.78944,9.2657455 52.81511,9.2657455"
     inkscape:connector-curvature="0"
     id="path18"
     style="fill:#ffffff;fill-opacity:1" /><path
     d="m 105.5375,52.8825 -0.3575,-5.89 -1.07,-5.89 -1.60625,-5.7125 -2.32125,-5.35375 -2.855,-5.17625 -3.39125,-4.81875 -3.9275,-4.4625 -4.4625,-3.9275 L 80.7275,8.26 75.55125,5.40375 70.19625,3.08375 64.485,1.4775 58.595,0.40625 52.705,0.05 46.815,0.40625 41.1025,1.4775 35.39125,3.08375 29.8575,5.40375 24.68125,8.26 l -4.81875,3.39125 -4.28375,3.9275 -4.105,4.4625 L 8.0825,24.86 5.22625,30.03625 3.085,35.39 1.3,41.1025 l -0.8925,5.89 -0.3575,5.89 0.3575,5.89 0.8925,5.71125 1.785,5.712501 2.14125,5.53375 2.85625,5.176249 3.39125,4.81875 4.105,4.28375 4.28375,4.105 4.81875,3.39125 5.17625,2.85625 5.53375,2.14125 5.71125,1.785 5.7125,0.8925 5.89,0.3575 5.89,-0.3575 5.89,-0.8925 5.71125,-1.785 5.355,-2.14125 5.17625,-2.85625 4.81875,-3.39125 4.4625,-4.105 3.9275,-4.28375 3.39125,-4.81875 2.855,-5.176249 2.32125,-5.53375 1.60625,-5.7125 1.07,-5.71125 0.3575,-5.89 z m -12.6725,0 L 92.5075,47.52875 91.4375,42.53 89.83,37.5325 87.51,32.89125 84.47625,28.42875 81.085,24.5025 77.1575,21.11125 72.695,18.0775 68.055,15.75625 63.0575,14.15 58.05875,13.07875 52.705,12.7225 47.52875,13.07875 42.3525,14.15 37.355,15.75625 32.71375,18.0775 28.43,21.11125 l -3.92625,3.39125 -3.57,3.92625 -2.85625,4.4625 -2.32,4.64125 -1.60625,4.9975 -1.07125,4.99875 -0.3575,5.35375 0.3575,5.17625 1.07125,5.17625 1.60625,4.99875 2.32,4.64 2.85625,4.28375 3.57,3.92625 3.92625,3.57 4.28375,2.855 4.64125,2.32125 4.9975,1.60625 5.17625,1.07125 5.17625,0.3575 5.35375,-0.3575 4.99875,-1.07125 4.9975,-1.60625 4.64,-2.32125 4.4625,-2.855 3.9275,-3.57 3.39125,-3.92625 3.03375,-4.28375 2.32,-4.64 1.6075,-4.99875 1.07,-5.17625 0.3575,-5.17625"
     style="fill:#ef2c30;fill-opacity:1;fill-rule:evenodd;stroke:none"
     id="path3060"
     inkscape:connector-curvature="0" /><path
     d="m 29.14375,43.243747 1.60625,5.17625 -14.63625,0 0,8.925 14.63625,0 -1.60625,4.9975 0,0.8925 0.3575,0.8925 0.71375,0.535 0.71375,0 0.8925,-0.17875 16.77875,-11.60125 -16.77875,-11.6025 -0.8925,-0.35625 -0.71375,0.17875 -0.71375,0.535 -0.3575,0.715 0,0.89125"
     style="fill:#000000;fill-opacity:1;fill-rule:evenodd;stroke:none"
     id="path3056"
     inkscape:connector-curvature="0" /><path
     d="m 61.2725,59.129997 21.06125,0 0,4.28375 4.105,0 0,-4.28375 2.1425,-2.1425 0,-8.38875 -2.1425,-2.1425 -2.14125,-8.38875 -25.1675,0 -2.14125,8.38875 -2.1425,2.1425 0,8.38875 2.1425,2.1425 0,4.28375 4.28375,0 0,-4.28375 z m -2.1425,-12.67375 1.60625,-6.24625 21.955,0 1.60625,6.246251 -25.1675,0"
     style="fill:#000000;fill-opacity:1;fill-rule:evenodd;stroke:none"
     id="path3062"
     inkscape:connector-curvature="0" /></svg>