<?xml version="1.0" encoding="UTF-8" standalone="no"?>
<!-- Created with Inkscape (http://www.inkscape.org/) -->

<svg
   xmlns:dc="http://purl.org/dc/elements/1.1/"
   xmlns:cc="http://creativecommons.org/ns#"
   xmlns:rdf="http://www.w3.org/1999/02/22-rdf-syntax-ns#"
   xmlns:svg="http://www.w3.org/2000/svg"
   xmlns="http://www.w3.org/2000/svg"
   xmlns:sodipodi="http://sodipodi.sourceforge.net/DTD/sodipodi-0.dtd"
   xmlns:inkscape="http://www.inkscape.org/namespaces/inkscape"
   version="1.1"
   width="94.863747"
   height="94.863747"
   id="svg2"
   xml:space="preserve"
   inkscape:version="0.48.2 r9819"
   sodipodi:docname="Chile RO-2.svg"><sodipodi:namedview
     pagecolor="#ffffff"
     bordercolor="#666666"
     borderopacity="1"
     objecttolerance="10"
     gridtolerance="10"
     guidetolerance="10"
     inkscape:pageopacity="0"
     inkscape:pageshadow="2"
     inkscape:window-width="1280"
     inkscape:window-height="1004"
     id="namedview19"
     showgrid="false"
     inkscape:zoom="4.0569855"
     inkscape:cx="35.267619"
     inkscape:cy="46.240179"
     inkscape:window-x="-8"
     inkscape:window-y="-8"
     inkscape:window-maximized="1"
     inkscape:current-layer="svg2"
     fit-margin-top="0.05"
     fit-margin-left="0.05"
     fit-margin-right="0.05"
     fit-margin-bottom="0.05" /><defs
     id="defs20" /><metadata
     id="metadata8"><rdf:RDF><cc:Work
         rdf:about=""><dc:format>image/svg+xml</dc:format><dc:type
           rdf:resource="http://purl.org/dc/dcmitype/StillImage" /><dc:title></dc:title></cc:Work></rdf:RDF></metadata><path
     d="m 47.45311,3.903993 c 24.0045,0 43.47275,19.475833 43.47275,43.489684 0,24.035044 -19.46825,43.510879 -43.47275,43.532069 C 23.42744,90.904556 3.959185,71.428721 3.938,47.393677 3.959185,23.379826 23.42744,3.903993 47.45311,3.903993"
     inkscape:connector-curvature="0"
     id="path18"
     style="fill:#ffffff;fill-opacity:1" /><path
     d="M 94.81375,47.4325 94.4925,42.1325 93.52875,36.83125 92.0825,31.8525 89.995,26.8725 87.425,22.215 84.37375,17.87875 80.84,13.86375 76.985,10.33 72.64875,7.2775 67.99,4.70875 63.01125,2.78 57.87125,1.175 52.7325,0.3725 47.43125,0.05 l -5.3,0.3225 -5.3,0.8025 -5.14,1.605 L 26.8725,4.70875 22.215,7.2775 17.87875,10.33 13.8625,13.86375 10.33,17.87875 7.2775,22.215 l -2.57,4.6575 -2.0875,4.98 -1.445,4.97875 -0.96375,5.30125 -0.16125,5.3 0.16125,5.3 0.96375,5.30125 1.445,4.9775 2.0875,4.97875 2.57,4.65875 3.0525,4.33625 3.5325,4.01625 4.01625,3.5325 4.33625,3.0525 4.6575,2.568746 4.81875,2.08875 5.14,1.445 5.3,0.80375 5.3,0.32125 5.30125,-0.32125 5.13875,-0.80375 5.14,-1.445 4.97875,-2.08875 4.65875,-2.568746 4.33625,-3.0525 3.855,-3.5325 3.53375,-4.01625 3.05125,-4.33625 2.57,-4.65875 2.0875,-4.97875 1.44625,-4.9775 0.96375,-5.30125 0.32125,-5.3 z M 83.41,47.4325 83.08875,42.77375 82.125,38.1175 80.67875,33.62 78.59125,29.4425 75.86,25.58875 72.80875,21.895 69.275,18.8425 65.42,16.2725 61.08375,14.185 56.7475,12.57875 52.09,11.77625 47.43125,11.455 l -4.8175,0.32125 -4.4975,0.8025 -4.4975,1.60625 -4.33625,2.0875 -3.855,2.57 -3.53375,3.0525 -3.05125,3.69375 -2.73125,3.85375 -2.0875,4.1775 -1.44625,4.4975 -0.9625,4.65625 -0.32125,4.65875 0.32125,4.6575 0.9625,4.6575 1.44625,4.4975 2.0875,4.17625 2.73125,4.015 3.05125,3.53375 3.53375,3.05125 3.855,2.57 4.33625,2.08875 4.4975,1.60625 4.4975,0.8025 L 47.43125,83.41 52.09,83.08875 56.7475,82.28625 61.08375,80.68 65.42,78.59125 69.275,76.02125 72.80875,72.97 75.86,69.43625 78.59125,65.42125 80.67875,61.245 82.125,56.7475 83.08875,52.09 83.41,47.4325"
     style="fill:#ef2c30;fill-opacity:1;fill-rule:evenodd;stroke:none"
     id="path4328"
     inkscape:connector-curvature="0" /><path
     d="m 57.39,35.191498 2.0875,6.7475 -45.29375,0 0,11.24125 45.29375,0 -2.0875,6.74625 -0.16125,1.12375 0.4825,0.965 0.96375,0.6425 1.12375,0.16 0.96375,-0.32125 21.5225,-14.93625 -21.5225,-14.93875 -0.96375,-0.32 -1.12375,0.16 -0.96375,0.6425 -0.4825,0.96375 0.16125,1.12375"
     style="fill:#000000;fill-opacity:1;fill-rule:evenodd;stroke:none"
     id="path4330"
     inkscape:connector-curvature="0" /></svg>