<?xml version="1.0" encoding="UTF-8" standalone="no"?>
<!-- Created with Inkscape (http://www.inkscape.org/) -->

<svg
   xmlns:dc="http://purl.org/dc/elements/1.1/"
   xmlns:cc="http://creativecommons.org/ns#"
   xmlns:rdf="http://www.w3.org/1999/02/22-rdf-syntax-ns#"
   xmlns:svg="http://www.w3.org/2000/svg"
   xmlns="http://www.w3.org/2000/svg"
   xmlns:sodipodi="http://sodipodi.sourceforge.net/DTD/sodipodi-0.dtd"
   xmlns:inkscape="http://www.inkscape.org/namespaces/inkscape"
   version="1.1"
   width="94.863747"
   height="94.863747"
   id="svg2"
   xml:space="preserve"
   inkscape:version="0.48.2 r9819"
   sodipodi:docname="Chile RO-3R.svg"><sodipodi:namedview
     pagecolor="#ffffff"
     bordercolor="#666666"
     borderopacity="1"
     objecttolerance="10"
     gridtolerance="10"
     guidetolerance="10"
     inkscape:pageopacity="0"
     inkscape:pageshadow="2"
     inkscape:window-width="1280"
     inkscape:window-height="1004"
     id="namedview19"
     showgrid="false"
     inkscape:zoom="4.0569855"
     inkscape:cx="35.267619"
     inkscape:cy="46.240178"
     inkscape:window-x="-8"
     inkscape:window-y="-8"
     inkscape:window-maximized="1"
     inkscape:current-layer="svg2"
     fit-margin-top="0.05"
     fit-margin-left="0.05"
     fit-margin-right="0.05"
     fit-margin-bottom="0.05" /><defs
     id="defs20" /><metadata
     id="metadata8"><rdf:RDF><cc:Work
         rdf:about=""><dc:format>image/svg+xml</dc:format><dc:type
           rdf:resource="http://purl.org/dc/dcmitype/StillImage" /><dc:title></dc:title></cc:Work></rdf:RDF></metadata><path
     d="m 47.41064,3.903993 c -24.0045,0 -43.47275,19.475833 -43.47275,43.489684 0,24.035044 19.46825,43.510879 43.47275,43.532069 C 71.43631,90.904556 90.904565,71.428721 90.92575,47.393677 90.904565,23.379826 71.43631,3.903993 47.41064,3.903993"
     inkscape:connector-curvature="0"
     id="path18"
     style="fill:#ffffff;fill-opacity:1" /><path
     d="m 0.05,47.4325 0.32125,-5.3 0.96375,-5.30125 1.44625,-4.97875 2.0875,-4.98 2.57,-4.6575 3.05125,-4.33625 3.53375,-4.015 L 17.87875,10.33 22.215,7.2775 26.87375,4.70875 31.8525,2.78 36.9925,1.175 42.13125,0.3725 47.4325,0.05 l 5.3,0.3225 5.3,0.8025 5.14,1.605 4.81875,1.92875 4.6575,2.56875 4.33625,3.0525 4.01625,3.53375 3.5325,4.015 3.0525,4.33625 2.57,4.6575 2.0875,4.98 1.445,4.97875 0.96375,5.30125 0.16125,5.3 -0.16125,5.3 -0.96375,5.30125 -1.445,4.9775 -2.0875,4.97875 -2.57,4.65875 -3.0525,4.33625 -3.5325,4.01625 -4.01625,3.5325 -4.33625,3.0525 -4.6575,2.568746 -4.81875,2.08875 -5.14,1.445 -5.3,0.80375 -5.3,0.32125 -5.30125,-0.32125 -5.13875,-0.80375 -5.14,-1.445 -4.97875,-2.08875 -4.65875,-2.568746 -4.33625,-3.0525 -3.855,-3.5325 L 10.49,76.985 7.43875,72.64875 4.86875,67.99 2.78125,63.01125 1.335,58.03375 0.37125,52.7325 0.05,47.4325 z m 11.40375,0 L 11.775,42.77375 12.73875,38.1175 14.185,33.62 16.2725,29.4425 19.00375,25.58875 22.055,21.895 l 3.53375,-3.0525 3.855,-2.57 4.33625,-2.0875 4.33625,-1.60625 4.6575,-0.8025 4.65875,-0.32125 4.8175,0.32125 4.4975,0.8025 4.4975,1.60625 4.33625,2.0875 3.855,2.57 3.53375,3.0525 3.05125,3.69375 2.73125,3.85375 2.0875,4.1775 1.44625,4.4975 0.9625,4.65625 L 83.57,47.4325 83.24875,52.09 82.28625,56.7475 80.84,61.245 78.7525,65.42125 76.02125,69.43625 72.97,72.97 l -3.53375,3.05125 -3.855,2.57 L 61.245,80.68 56.7475,82.28625 52.25,83.08875 47.4325,83.41 42.77375,83.08875 38.11625,82.28625 33.78,80.68 l -4.33625,-2.08875 -3.855,-2.57 L 22.055,72.97 19.00375,69.43625 16.2725,65.42125 14.185,61.245 12.73875,56.7475 11.775,52.09 11.45375,47.4325"
     style="fill:#ef2c30;fill-opacity:1;fill-rule:evenodd;stroke:none"
     id="path4328"
     inkscape:connector-curvature="0" /><path
     d="m 37.47375,35.191498 -2.0875,6.7475 45.29375,0 0,11.24125 -45.29375,0 2.0875,6.74625 0.16125,1.12375 -0.4825,0.965 -0.96375,0.6425 -1.12375,0.16 -0.96375,-0.32125 -21.5225,-14.93625 21.5225,-14.93875 0.96375,-0.32 1.12375,0.16 0.96375,0.6425 0.4825,0.96375 -0.16125,1.12375"
     style="fill:#000000;fill-opacity:1;fill-rule:evenodd;stroke:none"
     id="path4330"
     inkscape:connector-curvature="0" /></svg>