<?xml version="1.0" encoding="UTF-8" standalone="no"?>
<!-- Created with Inkscape (http://www.inkscape.org/) -->

<svg
   xmlns:dc="http://purl.org/dc/elements/1.1/"
   xmlns:cc="http://creativecommons.org/ns#"
   xmlns:rdf="http://www.w3.org/1999/02/22-rdf-syntax-ns#"
   xmlns:svg="http://www.w3.org/2000/svg"
   xmlns="http://www.w3.org/2000/svg"
   xmlns:sodipodi="http://sodipodi.sourceforge.net/DTD/sodipodi-0.dtd"
   xmlns:inkscape="http://www.inkscape.org/namespaces/inkscape"
   version="1.1"
   width="307.59985"
   height="460.56494"
   id="svg2"
   xml:space="preserve"
   inkscape:version="0.48.2 r9819"
   sodipodi:docname="Chile RO-3L.svg"><sodipodi:namedview
     pagecolor="#ffffff"
     bordercolor="#666666"
     borderopacity="1"
     objecttolerance="10"
     gridtolerance="10"
     guidetolerance="10"
     inkscape:pageopacity="0"
     inkscape:pageshadow="2"
     inkscape:window-width="1280"
     inkscape:window-height="1004"
     id="namedview19"
     showgrid="false"
     inkscape:zoom="1.0142464"
     inkscape:cx="132.11294"
     inkscape:cy="185.84944"
     inkscape:window-x="-8"
     inkscape:window-y="-8"
     inkscape:window-maximized="1"
     inkscape:current-layer="svg2"
     fit-margin-top="0"
     fit-margin-left="0"
     fit-margin-right="0"
     fit-margin-bottom="0" /><defs
     id="defs20" /><metadata
     id="metadata8"><rdf:RDF><cc:Work
         rdf:about=""><dc:format>image/svg+xml</dc:format><dc:type
           rdf:resource="http://purl.org/dc/dcmitype/StillImage" /><dc:title></dc:title></cc:Work></rdf:RDF></metadata><path
     inkscape:connector-curvature="0"
     d="m 281.99515,459.55437 6.4718,-0.4334 6.04673,-2.59205 4.74654,-3.87975 3.88391,-5.1841 2.59205,-6.04673 0.86263,-6.04674 0,-409.756806 -0.86263,-6.480131 -2.59205,-6.042566 -3.88391,-4.750708 -4.74654,-3.88391 -6.04673,-2.59205 -6.4718,-0.86263 -256.829888,0 -6.04256,0.86263 -6.04257,2.59205 -5.1799406,3.88391 -3.88391,4.750708 -2.15865,6.042566 -0.86263006,6.480131 0,409.756806 0.86263006,6.04674 2.15865,6.04673 3.88391,5.1841 5.1799406,3.87975 6.04257,2.59205 6.04256,0.4334 256.829888,0 z"
     style="fill:#ffffff;stroke:#000000;stroke-width:2.00029778;stroke-linecap:round;stroke-linejoin:round;stroke-miterlimit:10;stroke-opacity:1;stroke-dasharray:none"
     id="path4887" /><path
     inkscape:connector-curvature="0"
     d="m 281.99518,441.41834 3.02129,-0.86263 2.58788,-2.15866 0.4334,-3.02545 0,-409.756773 -0.4334,-3.02545 -2.58788,-2.592052 -3.02129,-0.862629 -256.829888,0 -3.02128,0.862629 -2.15865,2.592052 -0.86263,3.02545 0,409.756773 0.86263,3.02545 2.15865,2.15866 3.02128,0.86263 256.829888,0 z m 0,12.0893 5.60917,-0.85847 5.17994,-2.59205 4.31731,-3.88808 2.58788,-5.17993 0.8668,-5.61751 0,-409.756773 -0.8668,-6.046733 -2.58788,-4.750707 -4.31731,-4.317309 -5.17994,-2.592049 -5.60917,-0.86263 -256.829888,0 -5.60916,0.86263 -5.17994,2.592049 -3.88391,4.317309 -2.5920506,4.750707 -0.86263,6.046733 0,409.756773 0.86263,5.61751 2.5920506,5.17993 3.88391,3.88808 5.17994,2.59205 5.60916,0.85847 256.829888,0"
     style="fill:#000000;fill-opacity:1;fill-rule:evenodd;stroke:none"
     id="path4885" /><path
     inkscape:connector-curvature="0"
     d="m 78.256532,169.39454 -3.02129,0 -2.58788,1.29602 -1.72526,2.15866 -0.4334,3.02128 1.29603,2.59205 39.710088,54.83732 39.71007,-54.83732 0.86263,-2.59205 -0.42923,-3.02128 -1.72526,-2.15866 -2.59205,-1.29602 -2.58789,0 -16.83583,5.6175 0,-90.675986 -33.238288,0 0,90.675986 -16.40244,-5.6175"
     style="fill:#000000;fill-opacity:1;fill-rule:nonzero;stroke:none"
     id="path4889" /><path
     inkscape:connector-curvature="0"
     d="m 165.88207,117.14926 -1.29602,3.02129 0.4334,3.02545 2.15865,2.15448 2.58789,0.8668 3.02128,-0.42923 11.2225,-5.18411 0,108.81202 24.17443,0 0,-108.81202 11.2225,5.18411 3.02129,0.42923 2.58788,-0.8668 2.15866,-2.15448 0.43339,-3.02545 -1.29602,-3.02129 -30.21283,-41.881222 -30.217,41.881222"
     style="fill:#000000;fill-opacity:1;fill-rule:nonzero;stroke:none"
     id="path4891" /><path
     inkscape:connector-curvature="0"
     d="m 231.49184,307.13169 -3.45469,1.30019 -1.72525,-1.72942 -2.15866,-0.86263 -2.58788,0.86263 -1.72943,1.72942 -1.29185,4.31731 0,4.31731 1.29185,4.31731 1.72943,2.15866 2.58788,0.43339 2.15866,-0.86262 1.72525,-1.72943 3.45469,1.29603 -1.29603,2.58788 -2.58789,2.15866 -3.45468,0.86679 -3.02128,-0.86679 -3.02128,-1.72526 -1.72526,-2.58788 -1.72942,-5.18411 0,-5.60917 1.72942,-5.6175 1.72526,-2.59205 2.59205,-1.72526 3.45051,-0.4334 3.02129,0.4334 2.59205,2.15866 1.72526,2.58788 z m -83.30823,-4.74654 9.49724,0 3.02129,0.42923 2.59205,2.16282 1.29186,2.58789 0,3.45468 -1.29186,3.02545 -2.59205,1.72526 4.31731,12.0893 -3.88392,0 -4.3173,-11.22668 -4.75071,0 0,11.22668 -3.88391,0 0,-25.47463 z m -97.118628,14.24795 3.88391,-0.86262 2.59206,-3.02129 0.86262,-3.45468 -0.86262,-3.45468 -2.59206,-2.58788 -3.88391,-0.8668 -9.92648,0 0,25.47463 3.88392,0 0,-11.22668 6.04256,0 z m 13.38116,-14.24795 9.49725,0 3.02128,0.42923 2.58788,2.16282 1.29603,2.58789 0,3.45468 -1.29603,3.02545 -2.58788,1.72526 4.74654,12.0893 -4.31731,0 -4.31314,-11.22668 -4.75071,0 0,11.22668 -3.88391,0 0,-25.47463 z m 193.808008,14.24795 -2.59205,-7.33859 -2.58789,7.33859 5.17994,0 z m -22.01578,-14.24795 3.88392,0 0,25.47463 -3.88392,0 0,-25.47463 z m 17.26924,0 3.88391,0 8.63045,25.47463 -3.88391,0 -2.58788,-7.3386 -8.20122,0 -2.15866,7.3386 -4.31731,0 8.63462,-25.47463 z m -82.4456,0 15.10642,0 0,3.88808 -10.78911,0 0,6.04673 7.33859,0 0,4.31314 -7.33859,0 0,6.90937 11.2225,0 0,4.31731 -15.53981,0 0,-25.47463 z m -43.16475,0 14.67718,0 0,3.88808 -10.79327,0 0,6.04673 7.77199,0 0,4.31314 -7.77199,0 0,6.90937 11.6559,0 0,4.31731 -15.53981,0 0,-25.47463 z m 29.78359,10.36404 2.15866,-1.29602 0.86263,-2.15866 -0.86263,-2.16282 -2.15866,-0.85846 -5.61333,0 0,6.47596 5.61333,0 z m -83.737458,0 2.15865,-1.29602 0.86263,-2.15866 -0.86263,-2.16282 -2.15865,-0.85846 -5.61334,0 0,6.47596 5.61334,0 z m 13.81038,-10.36404 14.677198,0 0,3.88808 -10.793288,0 0,6.04673 7.3386,0 0,4.31314 -7.3386,0 0,6.90937 11.655918,0 0,4.31731 -15.539828,0 0,-25.47463 z m -36.68879,10.36404 2.15866,-1.29602 1.29602,-2.15866 -1.29602,-2.16282 -2.15866,-0.85846 -6.04256,0 0,6.47596 6.04256,0 z m 56.545918,-10.36404 15.53982,0 0,3.88808 -11.22251,0 0,6.04673 7.33443,0 0,4.31314 -7.33443,0 0,11.22668 -4.31731,0 0,-25.47463 z m 83.73746,0 3.88391,0 9.49725,16.84001 0,-16.84001 3.88391,0 0,25.47463 -3.88391,0 -9.49725,-16.84001 0,16.84001 -3.88391,0 0,-25.47463"
     style="fill:#000000;fill-opacity:1;fill-rule:evenodd;stroke:none"
     id="path4893" /><path
     inkscape:connector-curvature="0"
     d="m 236.23837,354.19703 -0.86262,7.34275 0.86262,6.90937 1.72943,3.02128 2.58788,2.15865 3.45468,0.86263 3.45052,-0.86263 3.02545,-1.72942 1.72525,-3.45051 0.86263,-6.90937 -0.86263,-7.34275 -1.72525,-3.02129 -3.02545,-2.15865 -3.45052,-0.86263 -3.45468,0.86263 -2.58788,2.15865 -1.72943,3.02129 z m -15.53564,19.86545 3.45051,-0.4334 3.02129,-2.15865 1.72942,-2.59205 1.29186,-5.17994 0,-4.75071 -1.29186,-4.7507 -1.72942,-3.02129 -3.02129,-1.72525 -3.45051,-0.8668 -7.33859,0 0,25.47879 7.33859,0 z m -86.32951,-19.86545 -3.88391,0.86679 -1.29603,-2.15865 -2.59205,-0.8668 -1.72526,0.8668 -1.29602,1.29186 -0.42923,1.72942 0.86262,1.72526 1.29603,0.86679 3.88391,0.86263 3.02128,1.29603 2.15866,2.58788 0.86263,3.45468 -0.4334,3.02545 -1.72526,2.58789 -3.02128,1.72942 -3.02128,0.42923 -3.02129,-0.42923 -2.59205,-1.29602 -2.15865,-2.15866 -0.86263,-2.59205 3.45468,-1.29603 0.86263,2.15866 1.72526,1.29602 2.59205,0.4334 1.72525,-0.4334 1.29603,-0.86263 1.29603,-2.59205 -0.86263,-2.15865 -2.15866,-1.29603 -3.88807,-0.86263 -2.58789,-1.29602 -1.72526,-2.15866 -0.86679,-3.02128 0.4334,-2.59205 1.72525,-2.58789 2.15866,-1.72942 2.59205,-0.86263 2.58788,0.42923 2.59206,0.8668 2.15865,2.15865 0.86263,2.58789 z m 86.32951,15.97737 2.58789,-0.86263 2.15865,-2.15865 0.86263,-3.88808 0,-3.88391 -0.86263,-3.88391 -2.15865,-2.16282 -2.58789,-0.86263 -3.45468,0 0,17.70263 3.45468,0 z m -17.26924,-21.59071 3.88392,0 0,25.47462 -3.88392,0 0,-25.47462 z m 36.69296,18.99866 1.29186,2.16282 2.59205,0.86263 2.58789,-0.86263 1.72942,-2.16282 0.86263,-6.04257 -0.86263,-6.47596 -1.72942,-2.15865 -2.58789,-0.8668 -2.59205,0.8668 -1.29186,2.15865 -0.86679,6.47596 0.86679,6.04257 z m -172.659028,-4.75071 -2.58788,-7.33442 -2.59206,7.33442 5.17994,0 z m -4.31731,-14.24795 3.45468,0 9.06385,25.47879 -4.31731,0 -2.58788,-6.90936 -7.77199,0 -2.58789,6.90936 -3.88391,0 8.63045,-25.47879 z m 17.26507,0 3.88808,0 0,21.59071 11.65173,0 0,3.88808 -15.53981,0 0,-25.47879 z m 60.863228,0 15.10642,0 0,3.88808 -10.78911,0 0,6.47596 7.33859,0 0,3.88391 -7.33859,0 0,7.34276 11.22251,0 0,3.88808 -15.53982,0 0,-25.47879 z m 20.28636,0 3.88391,0 9.06801,16.84001 0,-16.84001 4.31314,0 0,25.47879 -3.88391,0 -9.49724,-16.84 0,16.84 -3.88391,0 0,-25.47879 z m 27.62494,3.88808 -6.04257,0 0,-3.88808 15.53981,0 0,3.88808 -5.61333,0 0,21.59071 -3.88391,0 0,-21.59071"
     style="fill:#000000;fill-opacity:1;fill-rule:evenodd;stroke:none"
     id="path4895" /><path
     inkscape:connector-curvature="0"
     d="m 205.16292,405.15044 2.15865,-0.86679 0.86263,-2.15449 -0.86263,-2.16282 -2.15865,-0.86263 -5.61334,0 0,6.04673 5.61334,0 z m -98.84804,-9.93481 3.45468,0 9.49308,16.84001 0,-16.84001 3.88808,0 0,25.47879 -3.45468,0 -9.49725,-17.26924 0,17.26924 -3.88391,0 0,-25.47879 z m -19.423728,18.56943 1.72525,2.15865 2.59205,0.86263 2.58789,-0.86263 1.29603,-2.15865 0.86262,-6.04673 -0.86262,-6.04257 -1.29603,-2.15866 -2.58789,-0.86262 -2.59205,0.86262 -1.72525,2.15866 -0.86263,6.04257 0.86263,6.04673 z m 91.509448,-18.56943 3.88391,0 8.63462,25.47879 -3.88808,0 -2.58788,-7.34276 -8.20122,0 -2.15866,7.34276 -4.3173,0 8.63461,-25.47879 z m -44.89001,3.88808 -5.61333,0 0,-3.88808 15.53981,0 0,3.88808 -5.61334,0 0,21.59071 -4.31314,0 0,-21.59071 z m 24.17026,6.04673 2.15866,-0.86679 0.86263,-2.15449 -0.86263,-2.16282 -2.15866,-0.86263 -5.61333,0 0,6.04673 5.61333,0 z m 25.46629,4.31731 -2.58788,-7.33859 -2.59205,7.33859 5.17993,0 z m 50.50335,4.31731 1.72526,2.15865 2.59205,0.86263 2.58788,-0.86263 1.29603,-2.15865 0.86263,-6.04673 -0.86263,-6.04257 -1.29603,-2.15866 -2.58788,-0.86262 -2.59205,0.86262 -1.72526,2.15866 -0.86263,6.04257 0.86263,6.04673 z m -156.256588,-13.81872 -1.72526,-2.58789 -2.58788,-2.16282 -3.02545,-0.42923 -3.45052,0.42923 -2.59205,1.72942 -1.72526,2.59205 -1.72525,5.61334 0,5.61334 1.72525,5.17993 1.72526,2.59206 3.02128,1.72942 3.02129,0.85846 3.45468,-0.85846 2.59205,-2.16282 1.72526,-3.02128 -3.88391,-1.29603 -1.72943,2.15865 -2.15865,0.86263 -2.58789,-0.42923 -1.72525,-2.15865 -1.29603,-4.32148 0,-4.31731 1.29603,-4.31731 1.72525,-2.15865 2.58789,-0.42923 2.15865,0.86262 1.72943,1.72526 3.45051,-1.29602 z m 6.04256,0.43339 -1.29185,7.3386 1.29185,7.34276 1.29603,3.02128 3.02128,2.16282 3.45468,0.85846 3.45052,-0.85846 2.59205,-2.16282 1.72526,-3.02128 1.296028,-7.34276 -1.296028,-7.3386 -1.72526,-3.02128 -2.59205,-2.16282 -3.45052,-0.42923 -3.45468,0.42923 -3.02128,2.16282 -1.29603,3.02128 z m 64.747148,-5.1841 9.49724,0 3.02129,0.4334 2.59205,2.15865 1.29186,2.59205 0,3.45468 -1.29186,2.59206 -2.59205,2.15865 4.31731,12.0893 -3.88392,0 -4.3173,-11.22667 -4.75071,0 0,11.22667 -3.88391,0 0,-25.47879 z m 89.78419,25.90802 3.45051,-0.85846 2.59205,-2.16282 1.72526,-3.02128 1.29603,-7.34276 -1.29603,-7.3386 -1.72526,-3.02128 -2.59205,-2.16282 -3.45051,-0.42923 -3.45468,0.42923 -3.02128,2.16282 -1.29603,3.02128 -1.29186,7.3386 1.29186,7.34276 1.29603,3.02128 3.02128,2.16282 3.45468,0.85846 z m -42.30213,-25.90802 9.49725,0 3.02128,0.4334 2.58789,2.15865 1.29602,2.59205 0,3.45468 -1.29602,2.59206 -2.58789,2.15865 4.74654,12.0893 -4.31731,0 -4.31314,-11.22667 -4.75071,0 0,11.22667 -3.88391,0 0,-25.47879 z m 23.30764,0 3.88391,0 0,25.47462 -3.88391,0 0,-25.47462 z"
     style="fill:#000000;fill-opacity:1;fill-rule:evenodd;stroke:none"
     id="path4897" /><path
     inkscape:connector-curvature="0"
     d="m 281.13255,153.85472 -0.86679,-14.24795 -2.15449,-14.25629 -4.31731,-13.38115 -5.17993,-13.385323 -6.9052,-12.522697 -8.20122,-11.6559 -9.93064,-10.79744 -10.35988,-9.497246 -11.65173,-8.205388 -12.51853,-6.909361 -13.38116,-5.179928 -13.81455,-4.317309 -13.81039,-2.158654 -14.24379,-0.866796 -14.24378,0.866796 -14.24379,2.158654 -13.81455,4.317309 -12.947768,5.179928 -12.51853,6.909361 -11.6559,8.205388 -10.78911,9.497246 -9.49725,10.79744 -8.20122,11.6559 -6.90519,12.522697 -5.61333,13.385323 -3.88392,13.38115 -2.58788,14.25629 -0.4334,14.24795 0.4334,14.24796 2.58788,14.24795 3.88392,13.81456 5.61333,12.95609 6.90519,12.52269 8.20122,11.6559 9.49725,10.79328 10.78911,9.50141 11.6559,8.20539 12.51853,6.90519 12.947768,5.61334 13.81455,3.88807 14.24379,2.15866 14.24378,0.86263 14.24379,-0.86263 13.81039,-2.15866 13.81455,-3.88807 13.38116,-5.61334 12.51853,-6.90519 11.65173,-8.20539 10.35988,-9.50141 9.93064,-10.79328 8.20122,-11.6559 6.9052,-12.52269 5.17993,-12.95609 4.31731,-13.81456 2.15449,-14.24795 0.86679,-14.24796 z m -30.64622,0 -0.8668,-12.52269 -2.58788,-12.5227 -3.88391,-12.0893 -5.61334,-11.22667 -6.90519,-10.364034 -8.63462,-9.497246 -9.49308,-8.638785 -10.35987,-6.905194 -11.22251,-5.617503 -12.0893,-4.317309 -12.51436,-2.154487 -12.51853,-0.866796 -12.95192,0.866796 -12.08514,2.154487 -12.08513,4.317309 -11.2225,5.617503 -10.793278,6.905194 -9.49308,8.638785 -8.20122,9.497246 -7.33859,10.364034 -5.17994,11.22667 -4.31731,12.0893 -2.58788,12.5227 -0.86263,12.52269 0.86263,12.51853 2.58788,12.5227 4.31731,12.0893 5.17994,11.22667 7.33859,10.79327 8.20122,9.49724 9.49308,8.20956 10.793278,6.90519 11.2225,5.61334 12.08513,4.32147 12.08514,2.58789 12.95192,0.4334 12.51853,-0.4334 12.51436,-2.58789 12.0893,-4.32147 11.22251,-5.61334 10.35987,-6.90519 9.49308,-8.20956 8.63462,-9.49724 6.90519,-10.79327 5.61334,-11.22667 3.88391,-12.0893 2.58788,-12.5227 0.8668,-12.51853"
     style="fill:#ef2c30;fill-opacity:1;fill-rule:evenodd;stroke:none"
     id="path4883" /></svg>