<?xml version="1.0" encoding="UTF-8" standalone="no"?>
<!-- Created with Inkscape (http://www.inkscape.org/) -->

<svg
   xmlns:dc="http://purl.org/dc/elements/1.1/"
   xmlns:cc="http://creativecommons.org/ns#"
   xmlns:rdf="http://www.w3.org/1999/02/22-rdf-syntax-ns#"
   xmlns:svg="http://www.w3.org/2000/svg"
   xmlns="http://www.w3.org/2000/svg"
   xmlns:sodipodi="http://sodipodi.sourceforge.net/DTD/sodipodi-0.dtd"
   xmlns:inkscape="http://www.inkscape.org/namespaces/inkscape"
   version="1.1"
   width="100.76625"
   height="101.08625"
   id="svg2"
   xml:space="preserve"
   inkscape:version="0.48.2 r9819"
   sodipodi:docname="AJAX1.svg"><sodipodi:namedview
     pagecolor="#ffffff"
     bordercolor="#666666"
     borderopacity="1"
     objecttolerance="10"
     gridtolerance="10"
     guidetolerance="10"
     inkscape:pageopacity="0"
     inkscape:pageshadow="2"
     inkscape:window-width="1280"
     inkscape:window-height="1004"
     id="namedview19"
     showgrid="false"
     inkscape:zoom="4.0569855"
     inkscape:cx="35.217619"
     inkscape:cy="46.190183"
     inkscape:window-x="-8"
     inkscape:window-y="-8"
     inkscape:window-maximized="1"
     inkscape:current-layer="svg2"
     fit-margin-top="0.05"
     fit-margin-left="0.05"
     fit-margin-right="0.05"
     fit-margin-bottom="0.05" /><defs
     id="defs20" /><metadata
     id="metadata8"><rdf:RDF><cc:Work
         rdf:about=""><dc:format>image/svg+xml</dc:format><dc:type
           rdf:resource="http://purl.org/dc/dcmitype/StillImage" /><dc:title></dc:title></cc:Work></rdf:RDF></metadata><path
     d="m 50.40411,7.1754955 c 24.0045,0 43.47275,19.4758325 43.47275,43.4896835 0,24.035044 -19.46825,43.510877 -43.47275,43.532071 C 26.37844,94.176056 6.910185,74.700223 6.889,50.665179 6.910185,26.651328 26.37844,7.1754955 50.40411,7.1754955"
     inkscape:connector-curvature="0"
     id="path18"
     style="fill:#ffffff;fill-opacity:1" /><path
     d="m 88.6025,50.45875 -0.34125,-4.95625 -1.02375,-4.955 -1.53625,-4.613749 -2.2175,-4.6125 -2.73,-4.10125 -3.4125,-3.76 -3.75375,-3.24625 -4.095,-2.905 -4.43625,-2.22125 -4.7775,-1.53875 -4.9475,-1.025 -4.9475,-0.34125 -4.94875,0.34125 -4.9475,1.025 -4.7775,1.53875 -4.43625,2.22125 -4.265,2.905 -3.75375,3.24625 -3.2425,3.76 -2.72875,4.10125 -2.21875,4.6125 -1.70625,4.613749 -0.8525,4.955 -0.34125,4.95625 0.34125,5.125 0.8525,4.785 1.70625,4.785 2.21875,4.61375 2.72875,4.1 3.2425,3.76 3.75375,3.24625 4.265,2.905 L 35.71,86 l 4.7775,1.5375 4.9475,1.02625 4.94875,0.34 4.9475,-0.34 4.9475,-1.02625 4.7775,-1.5375 4.43625,-2.22125 4.095,-2.905 3.75375,-3.24625 3.4125,-3.76 2.73,-4.1 2.2175,-4.61375 1.53625,-4.785 1.02375,-4.785 0.34125,-5.125 z m 12.11375,0 -0.34125,-5.63875 -1.02375,-5.46875 -1.535,-5.4675 -2.0475,-5.2975 -2.73,-4.955 -3.2425,-4.4425 L 85.8725,14.91625 81.7775,11.1575 77.17125,7.91125 72.2225,5.1775 66.93375,2.955 l -5.29,-1.5375 -5.63,-1.025 -5.63,-0.3425 -5.63125,0.3425 -5.63,1.025 -5.46,1.5375 -5.11875,2.2225 -4.9475,2.73375 -4.6075,3.24625 -4.265,3.75875 -3.75375,4.2725 -3.24125,4.4425 -2.73,4.955 L 2.78,33.88375 1.245,39.35125 0.39125,44.82 0.05,50.45875 0.39125,56.09625 1.245,61.735 l 1.535,5.47 2.21875,5.12375 2.73,4.9575 3.24125,4.6125 3.75375,4.27125 4.265,3.76125 4.6075,3.24625 4.9475,2.73375 5.11875,2.22 5.46,1.538748 5.63,1.026252 5.63125,0.34 5.63,-0.34 5.63,-1.026252 5.29,-1.538748 5.28875,-2.22 4.94875,-2.73375 4.60625,-3.24625 4.095,-3.76125 3.92375,-4.27125 3.2425,-4.6125 2.73,-4.9575 2.0475,-5.12375 1.535,-5.47 1.02375,-5.63875 0.34125,-5.6375"
     style="fill:#ef2c30;fill-opacity:1;fill-rule:evenodd;stroke:none"
     id="path3030"
     inkscape:connector-curvature="0" /><path
     d="m 35.88125,23.802498 -0.34125,-1.3675 -0.85375,-1.3675 -1.19375,-0.85375 -1.53625,-0.3425 -1.535,0.3425 -1.365,0.85375 -0.85375,1.3675 -0.34125,1.3675 0.34125,1.5375 0.85375,1.3675 1.365,0.85375 1.535,0.3425 1.53625,-0.3425 1.19375,-0.85375 0.85375,-1.3675 0.34125,-1.5375"
     style="fill:#000000;fill-opacity:1;fill-rule:evenodd;stroke:none"
     id="path3026"
     inkscape:connector-curvature="0" /><path
     d="m 70.34625,61.564998 0.8525,0.34125 0.6825,-0.17125 0.6825,-0.34 0.34125,-0.855 0,-0.85375 -1.535,-4.95625 13.99,0 0,-8.3725 -13.99,0 1.535,-4.955 0,-0.854999 -0.34125,-0.85375 -0.6825,-0.51375 -0.6825,0 -0.8525,0.3425 -15.8675,10.93625 15.8675,11.10625"
     style="fill:#000000;fill-opacity:1;fill-rule:nonzero;stroke:none"
     id="path3032"
     inkscape:connector-curvature="0" /><path
     d="m 25.3025,40.206248 1.19375,-2.56375 0,20.16375 0.17125,0.68375 0.51125,0.51125 -0.51125,0.51375 -0.17125,0.6825 0,11.9625 0.34125,0.853751 0.85375,0.3425 2.2175,0 0.85375,-0.3425 0.34125,-0.853751 0,-11.962499 -0.17125,-0.6825 -0.51125,-0.51375 0.51125,-0.51125 0.17125,-0.68375 0,-7.347501 1.535,0 0,9.2275 0.17125,0.6825 0.34125,0.51375 -0.34125,0.5125 -0.17125,0.6825 0,16.232501 0.34125,0.855 0.85375,0.3425 2.55875,0 0.85375,-0.3425 0.34125,-0.855 0,-16.2325 -0.17125,-0.6825 -0.51125,-0.5125 0.51125,-0.51375 0.17125,-0.6825 0,-22.04375 1.19375,2.563749 0.17,0.512501 0,5.98 0.34125,0.855 0.85375,0.3425 1.02375,0 0.8525,-0.3425 0.34125,-0.855 0,-7.17625 -4.09375,-9.57 -0.85375,-0.6825 -3.5825,-0.3425 -3.58375,0 -3.5825,0.3425 -0.85375,0.6825 -4.095,9.57 0,10.08125 0.34125,0.855 0.85375,0.3425 1.02375,0 0.8525,-0.3425 0.34125,-0.855 0,-8.885 0.17125,-0.5125"
     style="fill:#000000;fill-opacity:1;fill-rule:nonzero;stroke:none"
     id="path3034"
     inkscape:connector-curvature="0" /></svg>