<?xml version="1.0" encoding="UTF-8" standalone="no"?>
<!-- Created with Inkscape (http://www.inkscape.org/) -->

<svg
   xmlns:dc="http://purl.org/dc/elements/1.1/"
   xmlns:cc="http://creativecommons.org/ns#"
   xmlns:rdf="http://www.w3.org/1999/02/22-rdf-syntax-ns#"
   xmlns:svg="http://www.w3.org/2000/svg"
   xmlns="http://www.w3.org/2000/svg"
   xmlns:sodipodi="http://sodipodi.sourceforge.net/DTD/sodipodi-0.dtd"
   xmlns:inkscape="http://www.inkscape.org/namespaces/inkscape"
   version="1.1"
   width="320.59619"
   height="320.5647"
   id="svg2"
   xml:space="preserve"
   inkscape:version="0.48.2 r9819"
   sodipodi:docname="Chile RO-6b.svg"><sodipodi:namedview
     pagecolor="#ffffff"
     bordercolor="#666666"
     borderopacity="1"
     objecttolerance="10"
     gridtolerance="10"
     guidetolerance="10"
     inkscape:pageopacity="0"
     inkscape:pageshadow="2"
     inkscape:window-width="1280"
     inkscape:window-height="1004"
     id="namedview19"
     showgrid="false"
     inkscape:zoom="1.0142464"
     inkscape:cx="93.389274"
     inkscape:cy="128.37255"
     inkscape:window-x="-8"
     inkscape:window-y="-8"
     inkscape:window-maximized="1"
     inkscape:current-layer="svg2"
     fit-margin-top="0"
     fit-margin-left="0"
     fit-margin-right="0"
     fit-margin-bottom="0" /><defs
     id="defs20" /><metadata
     id="metadata8"><rdf:RDF><cc:Work
         rdf:about=""><dc:format>image/svg+xml</dc:format><dc:type
           rdf:resource="http://purl.org/dc/dcmitype/StillImage" /><dc:title></dc:title></cc:Work></rdf:RDF></metadata><path
     inkscape:connector-curvature="0"
     d="m 319.58872,160.28688 -0.44997,-16.64865 -2.69978,-16.64867 -4.49964,-16.19869 -5.84952,-15.298771 -7.64939,-14.8488 -8.99928,-13.94888 -10.34916,-13.04895 -12.14903,-11.69906 -12.59898,-10.79913 -14.39884,-8.99927 -14.8488,-7.64938 -15.29877,-5.8495398 -16.1987,-4.49963 -16.64865,-2.24982 -16.64867,-0.89992998 -16.64865,0.89992998 -16.1987,2.24982 -16.1987,4.49963 -15.748725,5.8495398 -14.8488,7.64938 -13.94888,8.99927 -12.59899,10.79913 -12.14902,11.69906 -10.34917,13.04895 -8.99927,13.94888 -7.64938,14.8488 -5.84954,15.298771 -4.49963,16.19869 -2.69978,16.64867 -0.89993,16.64865 0.89993,16.64867 2.69978,16.19869 4.49963,16.19869 5.84954,15.74874 7.64938,14.8488 8.99927,13.94888 10.34917,13.04894 12.14902,11.69907 12.59899,10.34916 13.94888,8.99927 14.8488,7.64939 15.748725,5.84953 16.1987,4.49964 16.1987,2.69978 16.64865,0.89993 16.64867,-0.89993 16.64865,-2.69978 16.1987,-4.49964 15.29877,-5.84953 14.8488,-7.64939 14.39884,-8.99927 12.59898,-10.34916 12.14903,-11.69907 10.34916,-13.04894 8.99928,-13.94888 7.64939,-14.8488 5.84952,-15.74874 4.49964,-16.19869 2.69978,-16.19869 0.44997,-16.64867 z"
     style="fill:#ffffff;stroke:#000000;stroke-width:1.99983907;stroke-linecap:round;stroke-linejoin:round;stroke-miterlimit:10;stroke-opacity:1;stroke-dasharray:none"
     id="path6107" /><path
     inkscape:connector-curvature="0"
     d="m 313.28923,160.28688 -0.89994,-16.19869 -2.24981,-15.74873 -4.04967,-15.29878 -5.84954,-14.848791 -7.19941,-14.39885 -8.99928,-13.49891 -9.8992,-12.59898 -11.24909,-11.2491 -12.59899,-9.89921 -13.49892,-8.99927 -13.94887,-7.19942 -15.29877,-5.84952 -15.29877,-4.04968 -15.74873,-2.2498198 -16.1987,-0.89993 -15.74873,0.89993 -15.74873,2.2498198 -15.74874,4.04968 -14.848785,5.84952 -13.94888,7.19942 -13.49891,8.99927 -12.59899,9.89921 -11.2491,11.2491 -9.8992,12.59898 -8.99927,13.49891 -7.19943,14.39885 -5.84952,14.848791 -4.04968,15.29878 -2.69978,15.74873 -0.44996,16.19869 0.44996,15.74873 2.69978,15.74874 4.04968,15.74873 5.84952,14.84881 7.19943,14.39883 8.99927,13.49892 9.8992,12.14901 11.2491,11.2491 12.59899,10.34917 13.49891,8.54931 13.94888,7.19942 14.848785,5.84953 15.74874,4.04967 15.74873,2.69978 15.74873,0.89994 16.1987,-0.89994 15.74873,-2.69978 15.29877,-4.04967 15.29877,-5.84953 13.94887,-7.19942 13.49892,-8.54931 12.59899,-10.34917 11.24909,-11.2491 9.8992,-12.14901 8.99928,-13.49892 7.19941,-14.39883 5.84954,-14.84881 4.04967,-15.74873 2.24981,-15.74874 0.89994,-15.74873"
     style="fill:#244ba6;fill-opacity:1;fill-rule:evenodd;stroke:none"
     id="path6105" /><path
     inkscape:connector-curvature="0"
     d="m 160.30154,82.893119 -86.393035,86.393041 -8.54931,-17.09862 -1.79986,-2.24982 -3.14974,-0.89993 -2.69978,0.44996 -2.69978,1.79986 -0.89994,3.14975 -10.79913,70.64431 71.094275,-10.34917 2.69978,-1.34989 1.79986,-2.24982 0.44996,-3.14975 -0.89992,-2.69978 -2.24982,-2.24982 -17.098625,-8.54931 61.195065,-61.19508 61.64503,61.19508 -17.09861,8.54931 -2.24982,2.24982 -0.89994,2.69978 0.44998,3.14975 1.79984,2.24982 2.69979,1.34989 71.09427,10.34917 -10.79913,-70.64431 -0.89992,-3.14975 -2.69978,-1.79986 -2.69978,-0.44996 -3.14976,0.89993 -1.79985,2.24982 -8.54931,17.09862 -86.84301,-86.393041"
     style="fill:#ffffff;fill-opacity:1;fill-rule:evenodd;stroke:none"
     id="path6109" /></svg>