<?xml version="1.0" encoding="UTF-8" standalone="no"?>
<!-- Created with Inkscape (http://www.inkscape.org/) -->

<svg
   xmlns:dc="http://purl.org/dc/elements/1.1/"
   xmlns:cc="http://creativecommons.org/ns#"
   xmlns:rdf="http://www.w3.org/1999/02/22-rdf-syntax-ns#"
   xmlns:svg="http://www.w3.org/2000/svg"
   xmlns="http://www.w3.org/2000/svg"
   xmlns:sodipodi="http://sodipodi.sourceforge.net/DTD/sodipodi-0.dtd"
   xmlns:inkscape="http://www.inkscape.org/namespaces/inkscape"
   version="1.1"
   width="311.8772"
   height="312.40869"
   id="svg2"
   xml:space="preserve"
   inkscape:version="0.48.2 r9819"
   sodipodi:docname="Chile RO-6a.svg"><sodipodi:namedview
     pagecolor="#ffffff"
     bordercolor="#666666"
     borderopacity="1"
     objecttolerance="10"
     gridtolerance="10"
     guidetolerance="10"
     inkscape:pageopacity="0"
     inkscape:pageshadow="2"
     inkscape:window-width="1280"
     inkscape:window-height="1004"
     id="namedview19"
     showgrid="false"
     inkscape:zoom="0.50712319"
     inkscape:cx="-137.44062"
     inkscape:cy="-75.486835"
     inkscape:window-x="-8"
     inkscape:window-y="-8"
     inkscape:window-maximized="1"
     inkscape:current-layer="svg2"
     fit-margin-top="0"
     fit-margin-left="0"
     fit-margin-right="0"
     fit-margin-bottom="0" /><defs
     id="defs20" /><metadata
     id="metadata8"><rdf:RDF><cc:Work
         rdf:about=""><dc:format>image/svg+xml</dc:format><dc:type
           rdf:resource="http://purl.org/dc/dcmitype/StillImage" /><dc:title></dc:title></cc:Work></rdf:RDF></metadata><path
     inkscape:connector-curvature="0"
     d="m 0.9967372,156.20535 1.04983,-17.36394 2.62875,-17.35977 4.72427,-16.83069 6.8280898,-15.785031 8.40701,-15.255938 9.97761,-14.201937 11.55652,-13.152102 13.13127,-11.573183 14.1811,-9.99843 15.23094,-8.415346 16.280783,-6.8405914 16.28495,-4.73259 17.33061,-3.153668 17.33477,-0.52909 17.33062,0.52909 17.33478,3.153668 16.28077,4.73259 16.28078,6.8405914 15.23094,8.415346 14.18111,9.99843 13.13127,11.573183 11.55652,13.152102 9.9776,14.201937 8.40701,15.255938 6.8281,15.785031 4.72426,16.83069 2.62876,17.35977 1.04983,17.36394 -1.04983,17.35978 -2.62876,16.83069 -4.72426,16.83902 -6.8281,16.30577 -8.40701,15.25594 -9.9776,14.20611 -11.55652,13.1521 -13.13127,11.57318 -14.18111,9.99427 -15.23094,8.41534 -16.28078,6.31151 -16.28077,5.26168 -17.33478,2.63291 -17.33062,1.04985 -17.33477,-1.04985 -17.33061,-2.63291 -16.28495,-5.26168 -16.280783,-6.31151 -15.23094,-8.41534 -14.1811,-9.99427 -13.13127,-11.57318 -11.55652,-13.1521 -9.97761,-14.20611 -8.40701,-15.25594 -6.8280898,-16.30577 -4.72427,-16.83902 -2.62875,-16.83069 -1.04983,-17.35978 z"
     style="fill:#ffffff;stroke:#000000;stroke-width:1.99968612;stroke-linecap:round;stroke-linejoin:round;stroke-miterlimit:10;stroke-opacity:1;stroke-dasharray:none"
     id="path4521" /><path
     inkscape:connector-curvature="0"
     d="m 7.2999172,156.20535 1.04983,-17.88885 3.1536698,-17.8847 5.25334,-17.35977 7.35302,-16.305781 9.45268,-15.260105 11.0316,-14.206102 12.60219,-12.623019 14.18111,-11.048265 15.23511,-9.469347 16.805693,-7.36551 16.8057,-5.257508 17.85969,-3.6827534 17.85969,-1.054002 17.85554,1.054002 17.85969,3.6827534 16.8057,5.257508 16.80986,7.36551 15.23094,9.469347 14.1811,11.048265 12.60636,12.623019 11.02743,14.206102 9.45686,15.260105 7.353,16.305781 5.24918,17.35977 3.15367,17.8847 1.04984,17.88885 -1.04984,17.8847 -3.15367,17.88885 -5.24918,16.83486 -7.353,16.30577 -9.45686,15.78086 -11.02743,14.2061 -12.60636,12.62302 -14.1811,11.04827 -15.23094,9.46935 -16.80986,7.3655 -16.8057,5.25751 -17.85969,3.16201 -17.85554,1.04983 -17.85969,-1.04983 -17.85969,-3.16201 -16.8057,-5.25751 -16.805693,-7.3655 -15.23511,-9.46935 -14.18111,-11.04827 -12.60219,-12.62302 -11.0316,-14.2061 -9.45268,-15.78086 -7.35302,-16.30577 -5.25334,-16.83486 -3.1536698,-17.88885 -1.04983,-17.8847"
     style="fill:#244ba6;fill-opacity:1;fill-rule:evenodd;stroke:none"
     id="path4523" /><path
     inkscape:connector-curvature="0"
     d="m 254.68607,89.395003 -110.29935,110.474327 21.53412,11.0441 3.14951,2.63293 1.054,3.68275 -0.52492,3.68275 -2.62875,3.15784 -3.67442,1.57475 -89.815073,13.1521 13.13128,-90.48162 1.57475,-3.68276 3.1495,-2.108 3.6786,-0.52075 3.67441,1.04983 2.628763,3.15367 11.02743,21.57162 110.29936,-110.478498 32.04079,32.094961"
     style="fill:#ffffff;fill-opacity:1;fill-rule:evenodd;stroke:none"
     id="path4525" /></svg>