<?xml version="1.0" encoding="UTF-8" standalone="no"?>
<!-- Created with Inkscape (http://www.inkscape.org/) -->

<svg
   xmlns:dc="http://purl.org/dc/elements/1.1/"
   xmlns:cc="http://creativecommons.org/ns#"
   xmlns:rdf="http://www.w3.org/1999/02/22-rdf-syntax-ns#"
   xmlns:svg="http://www.w3.org/2000/svg"
   xmlns="http://www.w3.org/2000/svg"
   xmlns:sodipodi="http://sodipodi.sourceforge.net/DTD/sodipodi-0.dtd"
   xmlns:inkscape="http://www.inkscape.org/namespaces/inkscape"
   version="1.1"
   width="305.47485"
   height="457.81445"
   id="svg2"
   xml:space="preserve"
   inkscape:version="0.48.2 r9819"
   sodipodi:docname="Chile RO-6c.svg"><sodipodi:namedview
     pagecolor="#ffffff"
     bordercolor="#666666"
     borderopacity="1"
     objecttolerance="10"
     gridtolerance="10"
     guidetolerance="10"
     inkscape:pageopacity="0"
     inkscape:pageshadow="2"
     inkscape:window-width="1280"
     inkscape:window-height="1004"
     id="namedview19"
     showgrid="false"
     inkscape:zoom="1.0142464"
     inkscape:cx="25.683917"
     inkscape:cy="265.44606"
     inkscape:window-x="-8"
     inkscape:window-y="-8"
     inkscape:window-maximized="1"
     inkscape:current-layer="svg2"
     fit-margin-top="0"
     fit-margin-left="0"
     fit-margin-right="0"
     fit-margin-bottom="0" /><defs
     id="defs20" /><metadata
     id="metadata8"><rdf:RDF><cc:Work
         rdf:about=""><dc:format>image/svg+xml</dc:format><dc:type
           rdf:resource="http://purl.org/dc/dcmitype/StillImage" /><dc:title></dc:title></cc:Work></rdf:RDF></metadata><path
     inkscape:connector-curvature="0"
     d="m 280.1864,456.80672 5.35736,-0.71654 4.99492,-1.78718 4.64499,-2.85781 3.92428,-3.92845 2.85781,-4.64082 1.78301,-5.00326 0.71654,-5.35735 0,-407.217547 -0.71654,-5.35736 -1.78301,-5.00326 -2.85781,-4.64082 -3.92428,-3.9326106 -4.64499,-2.85365 -4.99492,-1.78718 -5.35736,-0.7165301 -254.903596,0 -5.353192,0.7165301 -4.999089,1.78718 -4.640822,2.85365 -3.9284511,3.9326106 -2.853646,4.64082 -1.787175,5.00326 -0.71237,5.35736 0,407.217547 0.71237,5.35735 1.787175,5.00326 2.853646,4.64082 3.9284511,3.92845 4.640822,2.85781 4.999089,1.78718 5.353192,0.71654 254.903596,0 z"
     style="fill:#ffffff;stroke:#000000;stroke-width:1.99963582;stroke-linecap:round;stroke-linejoin:round;stroke-miterlimit:10;stroke-opacity:1;stroke-dasharray:none"
     id="path7074" /><path
     d="m 222.3511,172.11274 4.64082,-0.71653 4.64082,-2.14128 3.92845,-2.85781 3.21192,-3.93262 1.78717,-4.64082 0.71237,-5.00326 -0.71237,-4.64082 -1.78717,-4.64499 -3.21192,-3.92845 -3.92845,-3.21608 -4.64082,-1.78717 -4.64082,-0.71237 -139.232999,0 -4.99909,0.71237 -4.28255,1.78717 -3.92845,3.21608 -3.21192,3.92845 -1.78301,4.64499 -0.71653,4.64082 0.71653,5.00326 1.78301,4.64082 3.21192,3.93262 3.92845,2.85781 4.28255,2.14128 4.99909,0.71653"
     style="fill:#000000;fill-opacity:1;fill-rule:nonzero;stroke:none"
     id="path7076"
     inkscape:connector-curvature="0"
     sodipodi:nodetypes="cccccccccccccccccccccccccc" /><path
     inkscape:connector-curvature="0"
     d="m 212.35709,346.78509 3.57018,-0.35827 3.21192,-1.78301 2.85781,-2.49954 1.42474,-3.57435 1.42891,-6.43216 0,-6.78627 -1.42891,-6.78626 -1.42474,-3.21608 -2.85781,-2.85365 -3.21192,-1.43307 -3.57018,-0.71237 -3.57018,0.71237 -3.21609,1.43307 -2.49537,2.85365 -1.78718,3.21608 -1.07064,6.78626 0,6.78627 1.07064,6.43216 1.78718,3.57435 2.49537,2.49954 3.21609,1.78301 3.57018,0.35827 z m -42.48393,-35.72266 13.21009,0 4.28256,0.71654 3.57018,2.85781 1.78301,3.92845 0,4.64499 -1.78301,3.92845 -3.57018,2.85781 6.42383,16.43034 -6.06556,0 -5.71563,-15.71797 -6.7821,0 0,15.71797 -5.35319,0 0,-35.36439 z m -67.83348,27.50749 1.07064,-6.43216 0,-6.78627 -1.07064,-6.78626 -1.783,-3.21608 -2.499579,-2.85365 -3.21191,-1.43307 -3.57019,-0.71237 -3.57018,0.71237 -3.57018,1.43307 -2.49955,2.85365 -1.4289,3.21608 -1.42891,6.78626 0,6.78627 1.42891,6.43216 1.4289,3.57435 2.49955,2.49954 3.57018,1.78301 3.57018,0.35827 3.57019,-0.35827 3.21191,-1.78301 2.499579,-2.49954 1.783,-3.57435 z m -29.986229,-20.71706 -1.78717,-2.85781 -2.49955,-2.49955 -2.85365,-1.43307 -3.57018,-0.71237 -3.21608,0.35827 -3.21192,1.42891 -2.49954,2.14127 -1.78301,2.85781 -1.78717,5.71563 -0.35411,5.71563 0.35411,6.07389 1.78717,5.35736 1.78301,2.85781 2.85781,2.49954 2.85365,1.07064 3.57018,0.35827 3.21608,-0.35827 3.21192,-1.78301 2.49954,-2.49954 1.42891,-3.21608 -5.35736,-1.78718 -1.78301,3.21608 -3.57018,1.07064 -3.21608,-1.07064 -2.49954,-2.49954 -1.42475,-6.07389 0,-6.43217 1.42475,-5.71562 2.49954,-2.85781 3.21608,-1.07064 3.21192,1.4289 2.14127,2.49955 5.35736,-1.78301 z m 134.592179,19.28815 2.14128,3.21608 3.57018,1.07064 3.57018,-1.07064 2.14128,-3.21608 1.07064,-5.71562 0,-5.71563 -1.07064,-5.71562 -2.14128,-2.85782 -3.57018,-1.4289 -3.57018,1.4289 -2.14128,2.85782 -1.07481,5.71562 0,5.71563 1.07481,5.71562 z m 26.77429,-26.07858 5.35319,0 0,29.64877 16.06791,0 0,5.71562 -21.4211,0 0,-35.36439 z m -50.33667,14.28906 2.14128,-0.71237 1.78301,-1.4289 0.35827,-2.49955 -0.35827,-2.14544 -1.78301,-1.42891 -2.14128,-0.71237 -7.8569,0 0,8.92754 7.8569,0 z m -71.40366,-14.28906 5.3532,0 12.85599,23.22077 0,-23.22077 5.71146,0 0,35.36439 -5.35736,0 -12.85183,-23.57487 0,23.57487 -5.71146,0 0,-35.36439 z m 38.20138,5.36152 -7.8569,0 0,-5.36152 21.42109,0 0,5.36152 -7.85273,0 0,30.00287 -5.71146,0 0,-30.00287 z m -64.621589,20.71706 2.14544,3.21608 3.57018,1.07064 3.57019,-1.07064 2.14127,-3.21608 1.07064,-5.71562 0,-5.71563 -1.07064,-5.71562 -2.14127,-2.85782 -3.57019,-1.4289 -3.57018,1.4289 -2.14544,2.85782 -1.07064,5.71562 0,5.71563 1.07064,5.71562"
     style="fill:#000000;fill-opacity:1;fill-rule:evenodd;stroke:none"
     id="path7082" /><path
     inkscape:connector-curvature="0"
     d="m 92.399741,371.78887 9.998209,0 3.57018,0.35827 3.21192,1.4289 2.85781,2.49955 1.78301,3.21608 1.78718,4.99909 0.3541,5.00325 -0.3541,5.35736 -1.78718,4.99909 -1.78301,3.21608 -2.85781,2.14544 -3.21192,1.42474 -3.57018,0.71654 -9.998209,0 0,-35.36439 z m 32.131679,23.93314 0.71654,3.57018 1.783,3.57435 2.49955,2.49955 3.21191,1.78717 3.92846,0.35827 3.57018,-0.35827 3.21191,-1.78717 2.49955,-2.49955 1.78301,-3.57435 0.71653,-3.57018 0,-23.93314 -5.71146,0 0,23.93314 -0.35827,2.50371 -1.4289,2.14128 -2.14128,1.4289 -2.14127,0.3541 -2.49955,-0.3541 -2.14128,-1.4289 -1.4289,-2.14128 -0.35827,-2.50371 0,-23.93314 -5.71146,0 0,23.93314 z m 113.17105,-3.92845 -3.57018,-10.36061 -3.57018,10.36061 7.14036,0 z m -6.06973,-20.00469 4.99909,0 12.49773,35.36439 -6.06973,0 -3.21608,-10.00234 -11.06465,0 -3.57019,10.00234 -5.71146,0 12.13529,-35.36439 z m -58.54766,20.00469 -3.57019,-10.36061 -3.57018,10.36061 7.14037,0 z m -6.06973,-20.00469 4.99909,0 12.49355,35.36439 -6.06972,0 -3.21192,-10.00234 -11.06465,0 -3.57018,10.00234 -5.71563,0 12.13946,-35.36439 z m -92.108249,20.00469 -3.57019,-10.36061 -3.92428,10.36061 7.49447,0 z m -6.42383,-20.00469 5.35319,0 12.13945,35.36439 -5.71146,0 -3.57018,-10.00234 -11.06882,0 -3.57018,10.00234 -5.71146,0 12.13946,-35.36439 z m 33.914679,29.64876 2.49955,-0.35826 2.49954,-1.42891 1.42474,-2.49954 1.42891,-4.99909 0,-5.35736 -1.42891,-5.36152 -1.42474,-2.14128 -2.49954,-1.42891 -2.49955,-0.71653 -4.640849,0 0,24.2914 4.640849,0 z m 86.75087,-29.64876 5.35735,0 13.2101,23.22077 0,-23.22077 5.35319,0 0,35.36439 -5.35319,0 -12.85183,-23.57487 0,23.57487 -5.71562,0 0,-35.36439"
     style="fill:#000000;fill-opacity:1;fill-rule:evenodd;stroke:none"
     id="path7084" /><path
     inkscape:connector-curvature="0"
     d="m 248.77129,152.82042 -0.71654,-11.42708 -2.14127,-11.43125 -3.57019,-11.07715 -4.64082,-10.71472 -6.06973,-10.002367 -7.14036,-8.92754 -8.21101,-8.21934 -8.92337,-7.14036 -9.99818,-6.0739 -10.70638,-4.64498 -11.06882,-3.57435 -11.42292,-2.14128 -11.42708,-0.71654 -11.78119,0.71654 -11.06465,2.14128 -11.06882,3.57435 -10.71055,4.64498 -9.998209,6.0739 -8.92337,7.14036 -8.21101,8.21934 -7.14036,8.92754 -6.06973,10.002367 -4.99909,10.71472 -3.21191,11.07715 -2.14128,11.43125 -0.71237,11.42708 0.71237,11.78952 2.14128,11.43125 3.21191,11.07299 4.99909,10.71471 6.06973,9.64408 7.14036,9.28997 8.21101,8.21517 8.92337,7.14453 9.998209,6.06973 10.71055,4.64499 11.06882,3.57435 11.06465,2.14127 11.78119,0.71237 11.42708,-0.71237 11.42292,-2.14127 11.06882,-3.57435 10.70638,-4.64499 9.99818,-6.06973 8.92337,-7.14453 8.21101,-8.21517 7.14036,-9.28997 6.06973,-9.64408 4.64082,-10.71471 3.57019,-11.07299 2.14127,-11.43125 0.71654,-11.78952 z m 30.34447,0 -0.71237,-13.21426 -2.14128,-12.86015 -3.21608,-12.86016 -4.99492,-12.50189 -5.71563,-11.789547 -7.49446,-11.07298 -8.21101,-10.35645 -9.28164,-9.28997 -10.35645,-8.21517 -11.06465,-7.14454 -11.78119,-6.07389 -12.49772,-4.99909 -12.49356,-3.21608 -13.21009,-2.14128 -13.21009,-0.71653 -13.2101,0.71653 -13.20593,2.14128 -12.49772,3.21608 -12.49356,4.99909 -11.781209,6.07389 -11.06882,7.14454 -10.35228,8.21517 -9.28164,9.28997 -8.21101,10.35645 -7.49863,11.07298 -5.71146,11.789547 -4.99909,12.50189 -3.21192,12.86016 -2.141273,12.86015 -0.716536,13.21426 0.716536,13.21843 2.141273,13.21426 3.21192,12.86016 4.99909,12.50188 5.71146,11.78952 7.49863,11.07299 8.21101,10.36061 9.28164,9.28581 10.35228,8.21517 11.06882,7.14453 11.781209,6.07389 12.49356,4.64082 12.49772,3.57435 13.20593,2.14128 13.2101,0.71654 13.21009,-0.71654 13.21009,-2.14128 12.49356,-3.57435 12.49772,-4.64082 11.78119,-6.07389 11.06465,-7.14453 10.35645,-8.21517 9.28164,-9.28581 8.21101,-10.36061 7.49446,-11.07299 5.71563,-11.78952 4.99492,-12.50188 3.21608,-12.86016 2.14128,-13.21426 0.71237,-13.21843"
     style="fill:#ef2c30;fill-opacity:1;fill-rule:evenodd;stroke:none"
     id="path7078" /><path
     inkscape:connector-curvature="0"
     d="m 280.1864,450.73282 4.64082,-0.71653 4.28672,-1.78301 3.92428,-2.85782 2.85782,-3.93261 1.78301,-4.28256 0.71653,-4.64498 0,-407.217517 -0.71653,-4.64499 -1.78301,-4.28672 -2.85782,-3.92845 -3.92428,-2.8578106 -4.28672,-1.78301 -4.64082,-0.71654 -254.903596,0 -4.640822,0.71654 -4.282553,1.78301 -3.928451,2.8578106 -2.8578131,3.92845 -1.783008,4.28672 -0.71237,4.64499 0,407.217517 0.71237,4.64498 1.783008,4.28256 2.8578131,3.93261 3.928451,2.85782 4.282553,1.78301 4.640822,0.71653 254.903596,0 z m 0,-12.14362 2.85781,-1.0748 2.14128,-2.14128 1.07064,-2.85781 0,-407.217517 -1.07064,-2.85781 -2.14128,-2.14128 -2.85781,-1.07064 -254.903596,0 -2.853647,1.07064 -2.499545,2.14128 -0.716536,2.85781 0,407.217517 0.716536,2.85781 2.499545,2.14128 2.853647,1.0748 254.903596,0"
     style="fill:#000000;fill-opacity:1;fill-rule:evenodd;stroke:none"
     id="path7080" /></svg>