<?xml version="1.0" encoding="UTF-8" standalone="no"?>
<!-- Created with Inkscape (http://www.inkscape.org/) -->

<svg
   xmlns:dc="http://purl.org/dc/elements/1.1/"
   xmlns:cc="http://creativecommons.org/ns#"
   xmlns:rdf="http://www.w3.org/1999/02/22-rdf-syntax-ns#"
   xmlns:svg="http://www.w3.org/2000/svg"
   xmlns="http://www.w3.org/2000/svg"
   xmlns:sodipodi="http://sodipodi.sourceforge.net/DTD/sodipodi-0.dtd"
   xmlns:inkscape="http://www.inkscape.org/namespaces/inkscape"
   version="1.1"
   width="301.2832"
   height="451.19141"
   id="svg2"
   xml:space="preserve"
   inkscape:version="0.48.2 r9819"
   sodipodi:docname="Chile RO-8.svg"><sodipodi:namedview
     pagecolor="#ffffff"
     bordercolor="#666666"
     borderopacity="1"
     objecttolerance="10"
     gridtolerance="10"
     guidetolerance="10"
     inkscape:pageopacity="0"
     inkscape:pageshadow="2"
     inkscape:window-width="1280"
     inkscape:window-height="1004"
     id="namedview19"
     showgrid="false"
     inkscape:zoom="1.0142464"
     inkscape:cx="116.36226"
     inkscape:cy="135.97171"
     inkscape:window-x="-8"
     inkscape:window-y="-8"
     inkscape:window-maximized="1"
     inkscape:current-layer="svg2"
     fit-margin-top="0"
     fit-margin-left="0"
     fit-margin-right="0"
     fit-margin-bottom="0" /><defs
     id="defs20" /><metadata
     id="metadata8"><rdf:RDF><cc:Work
         rdf:about=""><dc:format>image/svg+xml</dc:format><dc:type
           rdf:resource="http://purl.org/dc/dcmitype/StillImage" /><dc:title></dc:title></cc:Work></rdf:RDF></metadata><path
     inkscape:connector-curvature="0"
     d="m 276.22241,450.1994 6.32937,-0.84169 5.48766,-2.53758 5.06683,-3.80428 3.80012,-5.07099 2.52924,-5.49184 0.84586,-6.3377 0,-401.453963 -0.84586,-5.916849 -2.52924,-5.916849 -3.80012,-5.0709914 -5.06683,-3.800117 -5.48766,-2.112565 -6.32937,-0.84585914 -251.153581,0 -6.333528,0.84585914 -5.487669,2.112565 -5.062656,3.800117 -3.800117,5.0709914 -2.533412,5.916849 -0.841692,5.916849 0,401.453963 0.841692,6.3377 2.533412,5.49184 3.800117,5.07099 5.062656,3.80428 5.487669,2.53758 6.333528,0.84169 251.153581,0 z"
     style="fill:#ffffff;stroke:#000000;stroke-width:2.00006175;stroke-linecap:round;stroke-linejoin:round;stroke-miterlimit:10;stroke-opacity:1;stroke-dasharray:none"
     id="path9943" /><path
     inkscape:connector-curvature="0"
     d="m 276.22241,432.02801 2.95426,-0.8417 2.10841,-2.11673 0.84585,-2.95426 0,-401.453996 -0.84585,-2.958425 -2.10841,-2.112565 -2.95426,-0.84586 -251.153581,0 -2.954257,0.84586 -2.112566,2.112565 -0.841692,2.958425 0,401.453996 0.841692,2.95426 2.112566,2.11673 2.954257,0.8417 251.153581,0 z m 0,12.25454 5.48768,-0.84586 5.06265,-2.95426 3.80012,-3.80428 2.53341,-5.07099 1.26671,-5.49184 0,-401.453996 -1.26671,-5.491836 -2.53341,-5.07099 -3.80012,-3.804284 -5.06265,-2.5375804 -5.48768,-0.841691 -251.153581,0 -5.487669,0.841691 -5.066822,2.5375804 -3.79595,3.804284 -2.533412,5.07099 -0.845859,5.491836 0,401.453996 0.845859,5.49184 2.533412,5.07099 3.79595,3.80428 5.066822,2.95426 5.487669,0.84586 251.153581,0"
     style="fill:#000000;fill-opacity:1;fill-rule:evenodd;stroke:none"
     id="path9949" /><path
     inkscape:connector-curvature="0"
     d="m 51.240474,403.29379 3.79594,-0.84586 2.95843,-2.53341 1.26254,-3.38344 0,-3.80012 -1.68755,-2.95842 -2.95426,-2.11257 2.53341,-2.11256 1.26671,-2.95843 0,-3.38343 -1.26671,-2.95843 -2.53341,-2.11256 -3.3751,-0.8417 -11.82121,0 0,30.00093 11.82121,0 z m 29.1259,-5.49184 2.10839,3.37927 3.37511,1.69172 3.80011,0.8417 3.80011,-0.8417 2.95426,-2.53757 2.11257,-3.37928 -4.64598,-1.27087 -1.68754,2.11673 -2.53342,1.26671 -2.95426,-0.84586 -2.1084,-2.11257 -1.2667,-5.07098 0,-5.49184 1.2667,-5.07099 2.1084,-2.11257 2.53342,-0.84586 2.95426,0.84586 1.68754,2.11257 4.64598,-1.27087 -2.11257,-3.37927 -3.37509,-2.11257 -3.37928,-0.84586 -3.80011,0.42501 -3.37511,2.11257 -2.10839,3.37927 -1.69173,6.3377 0,6.33769 1.69173,6.34186 z m 37.142826,0 2.53341,3.37927 2.95425,1.69172 3.80012,0.8417 3.80012,-0.8417 3.37511,-2.53757 1.68754,-3.37928 -4.22096,-1.27087 -1.68755,2.11673 -2.95426,1.26671 -2.95426,-0.84586 -1.69172,-2.11257 -1.68755,-5.07098 0,-5.49184 1.68755,-5.07099 1.69172,-2.11257 2.95426,-0.84586 2.53341,0.84586 2.1084,2.11257 4.22096,-1.27087 -2.10839,-3.37927 -2.95426,-2.11257 -3.80012,-0.84586 -3.80012,0.42501 -2.95425,2.11257 -2.53341,3.37927 -1.68756,6.3377 0,6.33769 1.68756,6.34186 z m 125.36636,-16.05882 0.42084,2.53757 1.2667,2.53341 2.11257,1.68756 2.52925,0.84586 4.64598,0.84586 2.53341,1.69171 0.84168,2.53342 -0.42083,1.69171 -0.84586,1.69172 -1.68756,0.8417 -2.1084,0.42501 -2.95842,-0.42501 -2.1084,-1.68756 -1.26671,-2.53757 -4.22096,1.69171 1.68755,2.95843 2.11256,2.53341 2.95426,1.69172 3.80012,0.42085 3.79596,-0.8417 2.95425,-1.69172 2.11256,-2.95842 0.84586,-3.80428 -0.84586,-3.80012 -2.53341,-3.38344 -3.80011,-1.68755 -4.64181,-0.84586 -1.68756,-0.84586 -0.42084,-2.11256 0.42084,-2.11257 1.26671,-1.26671 2.1084,-0.84586 2.95426,0.84586 1.69172,2.53342 4.6418,-1.26671 -1.68755,-2.95842 -2.11257,-2.53758 -2.95425,-1.26671 -3.3751,0 -2.95426,0.84586 -2.53342,2.11257 -1.68754,2.95842 -0.84586,2.95843 z m -16.04216,8.45026 -2.95426,-8.87528 -2.95426,8.87528 5.90852,0 z m -5.06266,-16.90053 4.22096,0 10.55033,30.00093 -5.06266,0 -2.95425,-8.45026 -9.2878,0 -2.95425,8.45026 -5.06682,0 10.55449,-30.00093 z m -55.29754,0 17.30887,0 0,4.64598 -12.66289,0 0,7.18356 8.86277,0 0,4.65014 -8.86277,0 0,8.87111 13.50458,0 0,4.65014 -18.15056,0 0,-30.00093 z m -25.32578,0 4.64182,0 0,25.35079 13.50874,0 0,4.65014 -18.15056,0 0,-30.00093 z m -37.14697,0 4.6418,0 0,30.00093 -4.6418,0 0,-30.00093 z m -52.759976,25.35079 2.5334,-1.26671 1.26254,-2.53341 -0.84169,-2.11257 -1.68754,-2.11256 -2.53342,-0.42501 -5.90852,0 0,8.45026 7.17523,0 z m -1.69172,-13.09624 2.11256,-0.84586 1.68755,-1.69172 0.84586,-2.11256 -0.84586,-2.11257 -2.10839,-0.84586 -7.17523,0 0,7.60857 5.48351,0 z m 16.88802,-12.25455 4.64181,0 0,30.00093 -4.64181,0 0,-30.00093 z m 129.162326,4.64598 -6.75438,0 0,-4.64598 18.57557,0 0,4.64598 -7.17938,0 0,25.35495 -4.64181,0 0,-25.35495"
     style="fill:#000000;fill-opacity:1;fill-rule:evenodd;stroke:none"
     id="path9951" /><path
     inkscape:connector-curvature="0"
     d="m 198.55336,314.9744 -2.1084,-3.80429 -3.37927,-2.5334 -3.79595,-0.84586 -4.22097,0.84586 -3.37927,2.5334 -1.68755,3.80429 -1.26671,5.49183 0,5.91686 1.26671,5.49183 1.68755,3.38344 3.37927,2.53758 4.22097,0.84169 3.79595,-0.84169 3.37927,-2.53758 2.1084,-3.38344 0.84586,-8.45027 -0.84586,-8.45025 z m -61.20606,23.66323 3.80012,-0.84169 3.37927,-2.53758 2.1084,-3.38344 1.26671,-8.45027 -1.26671,-8.45025 -2.1084,-3.80429 -3.37927,-2.5334 -3.80012,-0.84586 -4.22096,0.84586 -2.95425,2.5334 -2.10841,3.80429 -1.2667,5.49183 0,5.91686 1.2667,5.49183 2.10841,3.38344 2.95425,2.53758 4.22096,0.84169 z m -34.60939,-21.55066 0.42084,2.5334 1.26671,2.11674 1.68755,1.68754 2.53341,0.85004 4.64181,1.26253 2.53341,1.27088 0.84586,2.95425 -0.42501,1.69589 -0.84169,1.26253 -1.69172,1.27088 -2.1084,0 -2.53342,-0.42501 -2.10839,-1.69172 -1.2667,-2.53341 -4.22097,1.69172 1.26671,2.95842 2.1084,2.53342 3.37509,1.69172 3.37928,0.42084 3.80012,-0.42084 3.3751,-2.11257 2.11257,-2.95842 0.42084,-3.38345 -0.84586,-4.22513 -2.53341,-2.95425 -3.79595,-1.69172 -4.64598,-1.27088 -1.68755,-0.84168 -0.42085,-1.69172 0.42085,-2.11257 1.2667,-1.69172 2.11257,-0.84586 2.95426,0.84586 1.68755,2.53758 4.64181,-1.2667 -1.26671,-2.95843 -2.52924,-2.11256 -2.95842,-1.26671 -3.37511,-0.42501 -2.95426,1.2667 -2.5334,1.69172 -1.68756,2.95843 -0.42084,3.37927 z m 52.33911,-8.87111 4.64181,0 0,25.35078 13.50875,0 0,4.65015 -18.15056,0 0,-30.00093 z m -22.79237,22.39652 2.10839,2.53342 2.95426,0.84585 2.95426,-0.84585 1.69172,-2.53342 1.26671,-7.18773 -1.26671,-7.18355 -1.69172,-2.5334 -2.95426,-1.27088 -2.95426,1.27088 -2.10839,2.5334 -0.84586,7.18355 0.84586,7.18773 z m 51.91827,0 1.68755,2.53342 3.37927,0.84585 2.95425,-0.84585 1.68756,-2.53342 0.84169,-7.18773 -0.84169,-7.18355 -1.68756,-2.5334 -2.95425,-1.27088 -3.37927,1.27088 -1.68755,2.5334 -0.84586,7.18355 0.84586,7.18773"
     style="fill:#000000;fill-opacity:1;fill-rule:evenodd;stroke:none"
     id="path9953" /><path
     inkscape:connector-curvature="0"
     d="m 275.37656,150.59017 -0.8417,-13.94626 -2.53341,-13.9421 -3.80011,-13.1004 -5.48767,-13.100373 -6.75437,-12.254544 -8.01692,-11.412852 -9.28779,-10.562826 -10.12947,-9.29612 -11.40036,-8.029414 -12.23788,-6.762708 -13.0879,-5.491836 -13.50458,-3.804284 -13.50875,-2.112564 -13.9296,-0.84586 -14.35044,0.84586 -13.50875,2.112564 -13.50875,3.804284 -13.083756,5.491836 -11.81703,6.762708 -11.40034,8.029414 -10.55033,9.29612 -9.28779,10.562826 -8.02108,11.412852 -6.7502,12.254544 -5.48767,13.100373 -3.80012,13.1004 -2.533412,13.9421 -0.841693,13.94626 0.841693,13.94626 2.533412,13.9421 3.80012,13.52541 5.48767,12.67539 6.7502,12.25455 8.02108,11.41286 9.28779,10.56281 10.55033,9.3003 11.40034,8.02524 11.81703,6.75854 13.083756,5.496 13.50875,3.80429 13.50875,2.53758 14.35044,0.42085 13.9296,-0.42085 13.50875,-2.53758 13.50458,-3.80429 13.0879,-5.496 12.23788,-6.75854 11.40036,-8.02524 10.12947,-9.3003 9.28779,-10.56281 8.01692,-11.41286 6.75437,-12.25455 5.48767,-12.67539 3.80011,-13.52541 2.53341,-13.9421 0.8417,-13.94626"
     style="fill:#244ba6;fill-opacity:1;fill-rule:evenodd;stroke:none"
     id="path9945" /><path
     inkscape:connector-curvature="0"
     d="m 175.34015,102.41785 -49.38903,0 22.37152,38.8762 4.64598,0 22.37153,-38.8762 z m 2.52923,-4.650108 2.95843,-4.650143 -10.97534,0 0,-5.066823 28.70089,-4.650143 0,9.716966 -12.24204,0 -4.22097,6.762709 9.28778,16.058792 7.17523,-2.53757 7.60023,-1.26671 7.59607,0.42501 7.17522,1.68756 7.17522,3.38343 5.91268,4.64598 5.06266,5.49184 3.80012,6.7627 2.5334,7.18356 1.26671,7.60856 -0.42501,7.6044 -2.10839,7.18772 -3.37928,6.75854 -4.64181,5.91685 -5.90851,5.07099 -6.33353,3.80428 -7.17523,2.53342 -7.59606,0.84586 -7.60024,-0.42085 -7.59606,-2.11256 -6.75437,-3.80429 -5.90852,-4.65014 -4.64598,-5.91685 -3.79595,-6.3377 -2.11256,-7.6044 -0.8417,-7.60856 0.8417,-7.6044 2.11256,-7.18355 3.79595,-6.76271 4.64598,-5.91685 5.90852,-4.65014 -7.59608,-13.52125 -22.37152,38.88036 2.1084,2.95425 0.84586,3.80429 -0.42501,3.80428 -2.1084,2.95842 -3.37927,2.11257 -3.37511,0.84586 -3.80012,-0.84586 -3.3751,-2.11257 -2.11256,-2.95842 -0.42085,-3.80428 0.84586,-3.80429 2.1084,-2.95425 -22.37153,-38.88036 -7.59606,13.52125 5.90852,4.65014 5.06681,5.91685 3.37511,6.76271 2.11257,7.18355 0.84169,7.6044 -0.84169,7.60856 -2.11257,7.6044 -3.80012,6.3377 -4.6418,5.91685 -5.90852,4.65014 -6.75438,3.80429 -7.600246,2.11256 -7.59606,0.42085 -7.59608,-0.84586 -7.17938,-2.53342 -6.32936,-3.80428 -5.90852,-5.07099 -4.64597,-5.91685 -3.37511,-6.75854 -2.11257,-7.18772 -0.42084,-7.6044 1.2667,-7.60856 2.53342,-7.18356 3.80011,-6.7627 5.06266,-5.49184 6.33353,-4.64598 6.75438,-3.38343 7.17521,-1.68756 7.59607,-0.42501 7.600256,1.26671 7.17521,2.53757 9.28362,-16.058792 -9.70863,-16.479675 0,-4.650143 29.1259,0 0,4.650143 -23.21321,0 8.01691,14.367109 54.45167,0 z m -84.840116,48.176448 -2.53342,0.42084 -1.68755,1.69172 -0.42501,2.53342 0.42501,2.53757 2.1084,1.68756 2.11257,0.42501 2.52924,-0.42501 1.69171,-1.68756 0.8417,-2.53757 -0.8417,-2.53342 14.350466,-25.35494 5.90852,5.06683 4.6418,5.91684 2.95842,7.18356 1.68756,7.18771 -0.42501,7.6044 -2.1084,7.60857 -3.80012,6.75854 -5.06265,5.49601 -5.91269,4.64597 -7.17522,2.95843 -7.596086,1.27088 -7.60023,-0.84587 -7.17522,-2.11257 -6.75437,-3.80428 -5.48768,-5.07099 -4.22095,-6.34186 -2.95426,-7.18355 -0.8417,-7.60441 0.42085,-7.60439 2.53341,-7.18772 3.80012,-6.3377 5.06265,-5.49183 6.75438,-4.2293 7.17522,-2.53341 7.17522,-0.84586 7.600246,0.42501 7.59607,2.53342 -14.771296,25.77995 z m 111.011756,2.11256 -14.35044,-25.35494 -5.90851,5.06683 -4.64598,5.91684 -2.95426,7.18356 -1.26671,7.18771 0,7.6044 2.11257,7.60857 3.80012,6.75854 5.06266,5.49601 5.90851,4.64597 7.17939,2.95843 7.59606,1.27088 7.59608,-0.84587 7.17938,-2.11257 6.75021,-3.80428 5.48767,-5.07099 4.22096,-6.34186 2.95426,-7.18355 0.84586,-7.60441 -0.42084,-7.60439 -2.53342,-7.18772 -3.80012,-6.3377 -5.06265,-5.49183 -6.75438,-4.2293 -6.75437,-2.53341 -7.60023,-0.84586 -7.59607,0.42501 -7.17522,2.53342 14.35044,25.77995 2.53341,0.42084 1.68756,1.69172 0.42084,2.53342 -0.42084,2.53757 -1.68756,1.68756 -2.53341,0.42501 -2.53341,-0.42501 -1.68756,-1.68756 -0.42085,-2.53757 0.42085,-2.53342"
     style="fill:#ffffff;fill-opacity:1;fill-rule:evenodd;stroke:none"
     id="path9947" /></svg>