<?xml version="1.0" encoding="UTF-8" standalone="no"?>
<!-- Created with Inkscape (http://www.inkscape.org/) -->

<svg
   xmlns:dc="http://purl.org/dc/elements/1.1/"
   xmlns:cc="http://creativecommons.org/ns#"
   xmlns:rdf="http://www.w3.org/1999/02/22-rdf-syntax-ns#"
   xmlns:svg="http://www.w3.org/2000/svg"
   xmlns="http://www.w3.org/2000/svg"
   xmlns:sodipodi="http://sodipodi.sourceforge.net/DTD/sodipodi-0.dtd"
   xmlns:inkscape="http://www.inkscape.org/namespaces/inkscape"
   version="1.1"
   width="89.652496"
   height="79.087547"
   id="svg2"
   xml:space="preserve"
   inkscape:version="0.48.2 r9819"
   sodipodi:docname="AJAX1.svg"><sodipodi:namedview
     pagecolor="#ffffff"
     bordercolor="#666666"
     borderopacity="1"
     objecttolerance="10"
     gridtolerance="10"
     guidetolerance="10"
     inkscape:pageopacity="0"
     inkscape:pageshadow="2"
     inkscape:window-width="1280"
     inkscape:window-height="1004"
     id="namedview19"
     showgrid="false"
     inkscape:zoom="5.8702816"
     inkscape:cx="68.785453"
     inkscape:cy="53.237813"
     inkscape:window-x="-8"
     inkscape:window-y="-8"
     inkscape:window-maximized="1"
     inkscape:current-layer="svg2"
     fit-margin-top="0.05"
     fit-margin-left="0.05"
     fit-margin-right="0.05"
     fit-margin-bottom="0.05" /><defs
     id="defs20" /><metadata
     id="metadata8"><rdf:RDF><cc:Work
         rdf:about=""><dc:format>image/svg+xml</dc:format><dc:type
           rdf:resource="http://purl.org/dc/dcmitype/StillImage" /><dc:title></dc:title></cc:Work></rdf:RDF></metadata><path
     inkscape:connector-curvature="0"
     d="m 88.941247,7.8563 0.3525,-0.8375 0.265,-0.8825 0.04375,-0.8825 -0.04375,-0.88125 -0.265,-0.8825 -0.3525,-0.8375 -0.53,-0.75 -0.66125,-0.6175 L 87.043747,0.7563 86.206247,0.40255 85.323747,0.1388 84.441247,0.05 5.255,0.05 4.32875,0.1388 3.49125,0.40255 2.6525,0.7563 1.9025,1.28505 1.285,1.90255 0.75625,2.65255 0.35875,3.49005 0.1375,4.37255 0.05,5.2538 l 0.0875,0.8825 0.22125,0.8825 0.3975,0.8375 39.615,68.578747 0.485,0.75 0.66125,0.6175 0.75,0.52875 0.79375,0.3525 0.8825,0.265 0.8825,0.08875 0.926247,-0.08875 0.8825,-0.265 0.79375,-0.3525 0.75,-0.52875 0.6175,-0.6175 0.53,-0.75 z"
     style="fill:#ef2c30;fill-opacity:1;fill-rule:evenodd;stroke:none"
     id="path3067"
     sodipodi:nodetypes="cccccccccccccccccccccccccccccccccccccccc" /><path
     id="path3361"
     style="fill:#ffffff;fill-opacity:1;fill-rule:evenodd;stroke:none"
     d="M 13.1075,9.7963 44.82625,64.747547 76.588747,9.7963 l -63.481247,0"
     inkscape:connector-curvature="0"
     sodipodi:nodetypes="cccc" /></svg>