<?xml version="1.0" encoding="UTF-8" standalone="no"?>
<!-- Created with Inkscape (http://www.inkscape.org/) -->

<svg
   xmlns:dc="http://purl.org/dc/elements/1.1/"
   xmlns:cc="http://creativecommons.org/ns#"
   xmlns:rdf="http://www.w3.org/1999/02/22-rdf-syntax-ns#"
   xmlns:svg="http://www.w3.org/2000/svg"
   xmlns="http://www.w3.org/2000/svg"
   xmlns:sodipodi="http://sodipodi.sourceforge.net/DTD/sodipodi-0.dtd"
   xmlns:inkscape="http://www.inkscape.org/namespaces/inkscape"
   version="1.1"
   width="96.596252"
   height="96.746254"
   id="svg2"
   xml:space="preserve"
   inkscape:version="0.48.2 r9819"
   sodipodi:docname="AJAX1.svg"><sodipodi:namedview
     pagecolor="#ffffff"
     bordercolor="#666666"
     borderopacity="1"
     objecttolerance="10"
     gridtolerance="10"
     guidetolerance="10"
     inkscape:pageopacity="0"
     inkscape:pageshadow="2"
     inkscape:window-width="1280"
     inkscape:window-height="1004"
     id="namedview19"
     showgrid="false"
     inkscape:zoom="4.1509159"
     inkscape:cx="23.948848"
     inkscape:cy="42.540905"
     inkscape:window-x="-8"
     inkscape:window-y="-8"
     inkscape:window-maximized="1"
     inkscape:current-layer="svg2"
     fit-margin-top="0.1"
     fit-margin-left="0.1"
     fit-margin-right="0.1"
     fit-margin-bottom="0.1" /><defs
     id="defs20" /><metadata
     id="metadata8"><rdf:RDF><cc:Work
         rdf:about=""><dc:format>image/svg+xml</dc:format><dc:type
           rdf:resource="http://purl.org/dc/dcmitype/StillImage" /><dc:title /></cc:Work></rdf:RDF></metadata><path
     inkscape:connector-curvature="0"
     d="m 96.49625,48.372502 -0.32625,-5.4 -0.8175,-5.4 -1.47,-5.235 -2.12375,-4.90875 -2.61375,-4.74625 -3.105,-4.41875 -3.59375,-4.09125 -4.085,-3.6 L 73.95,7.463752 69.21125,4.84625 64.31,2.71875 59.08125,1.24625 53.69,0.4275 48.29875,0.1 l -5.3925,0.3275 -5.2275,0.81875 -5.22875,1.4725 -5.065,2.1275 -4.7375,2.617502 -4.4125,3.10875 -3.92125,3.6 -3.59375,4.09125 -3.105,4.41875 -2.61375,4.74625 -2.12375,4.90875 -1.47,5.235 -0.98125,5.4 -0.32625,5.4 0.32625,5.4 0.98125,5.2375 1.47,5.23625 2.12375,5.0725 2.61375,4.745 3.105,4.41875 3.59375,3.9275 3.92125,3.59875 4.4125,3.275 4.7375,2.6175 5.065,1.9625 5.22875,1.47375 5.2275,0.98125 5.3925,0.3275 5.39125,-0.3275 5.39125,-0.98125 5.22875,-1.47375 4.90125,-1.9625 4.73875,-2.6175 4.41125,-3.275 4.085,-3.59875 3.59375,-3.9275 3.105,-4.41875 2.61375,-4.745 2.12375,-5.0725 1.47,-5.23625 0.8175,-5.2375 0.32625,-5.4"
     style="fill:#ef2c30;fill-opacity:1;fill-rule:evenodd;stroke:none"
     id="path4606"
     sodipodi:nodetypes="ccccccccccccccccccccccccccccccccccccccccccccccccccccccccc" /><path
     id="path4858"
     style="fill:#ffffff;fill-opacity:1;fill-rule:evenodd;stroke:none"
     d="m 84.89625,48.372502 -0.32625,-4.745 -0.8175,-4.74375 -1.63375,-4.58375 -2.12375,-4.25375 -2.61375,-4.09125 -3.105,-3.6 -3.59375,-3.10875 -4.085,-2.61875 -4.24875,-2.1275 -4.57375,-1.63625 -4.73875,-0.98125 -4.7375,-0.165 -4.73875,0.165 -4.7375,0.98125 -4.575,1.63625 -4.24875,2.1275 -3.92125,2.61875 -3.59375,3.10875 -3.2675,3.6 -2.615,4.09125 -2.12375,4.25375 -1.47,4.58375 -0.98,4.74375 -0.3275,4.745 0.3275,4.74625 0.98,4.745 1.47,4.5825 2.12375,4.255 2.615,3.9275 3.2675,3.59875 3.59375,3.27375 3.92125,2.6175 4.24875,2.1275 4.575,1.4725 4.7375,0.98125 4.73875,0.3275 4.7375,-0.3275 4.73875,-0.98125 4.57375,-1.4725 4.24875,-2.1275 4.085,-2.6175 3.59375,-3.27375 3.105,-3.59875 2.61375,-3.9275 2.12375,-4.255 1.63375,-4.5825 0.8175,-4.745 z"
     inkscape:connector-curvature="0"
     sodipodi:nodetypes="ccccccccccccccccccccccccccccccccccccccccccccccccc" /><path
     inkscape:connector-curvature="0"
     d="m 21.83,55.572502 52.93625,0 2.2875,-0.32625 1.96125,-0.9825 1.63375,-1.63625 0.98,-2.12625 0.49,-2.12875 -0.49,-2.29 -0.98,-1.96375 -1.63375,-1.63625 -1.96125,-0.98125 -2.2875,-0.32875 -52.93625,0 -2.2875,0.32875 -1.96,0.98125 -1.635,1.63625 -0.98,1.96375 -0.32625,2.29 0.32625,2.12875 0.98,2.12625 1.635,1.63625 1.96,0.9825 2.2875,0.32625"
     style="fill:#000000;fill-opacity:1;fill-rule:nonzero;stroke:none"
     id="path4604" /><path
     inkscape:connector-curvature="0"
     d="m 56.30375,73.082502 1.47125,-0.3275 1.30625,-0.9825 0.8175,-1.30875 0.32625,-3.2725 -0.32625,-3.2725 -0.8175,-1.4725 -1.30625,-0.9825 -1.47125,-0.32625 -1.63375,0.32625 -1.30625,0.9825 -0.65375,1.4725 -0.49,2.1275 0,2.29125 0.49,2.12625 0.65375,1.30875 1.30625,0.9825 1.63375,0.3275 z m 7.68,-3.59875 0.49,0.98 0.81625,0.655 0.98,0.16375 0.8175,0 0.65375,-0.49 0.49,-0.4925 0.16375,-0.65375 -0.49,-1.14625 -0.98125,-0.49 -1.63375,-0.49125 -0.98,-0.3275 -0.8175,-0.65375 -0.49,-0.81875 -0.1625,-0.98125 0.32625,-1.31 0.65375,-0.98125 0.98,-0.81875 1.14375,-0.49 1.3075,0.16375 1.14375,0.49 0.81625,0.81875 0.49,1.145 -1.63375,0.49125 -0.81625,-0.9825 -1.14375,-0.32625 -0.65375,0.32625 -0.65375,0.655 -0.16375,0.81875 0.3275,0.655 0.65375,0.49 1.63375,0.32625 1.47,0.655 1.14375,1.14625 0.32625,1.63625 -0.32625,1.30875 -0.81625,1.14625 -1.3075,0.8175 -1.47125,0.16375 -1.30625,-0.16375 -1.14375,-0.655 -0.98,-0.98125 -0.49125,-1.145 1.635,-0.65375 z m -9.64,0.48875 0.65375,0.9825 1.30625,0.3275 1.14375,-0.3275 0.65375,-0.9825 0.32625,-2.78125 -0.32625,-2.78125 -0.65375,-0.9825 -1.14375,-0.49 -1.30625,0.49 -0.65375,0.9825 -0.3275,2.78125 0.3275,2.78125 z m -17.31875,-8.67125 1.7975,0 0,11.6175 -1.7975,0 0,-11.6175 z m 4.575,0 1.79625,0 4.24875,7.69 0,-7.69 1.7975,0 0,11.6175 -1.7975,0 -4.24875,-7.69125 0,7.69125 -1.79625,0 0,-11.6175 z m 0,-0.655 7.8425,0 0,-1.14625 -7.8425,0 0,1.14625 z m -15.03125,0.655 1.63375,0 4.2475,7.69 0,-7.69 1.7975,0 0,11.6175 -1.63375,0 -4.24875,-7.69125 0,7.69125 -1.79625,0 0,-11.6175"
     style="fill:#000000;fill-opacity:1;fill-rule:evenodd;stroke:none"
     id="path4608" /><path
     inkscape:connector-curvature="0"
     d="m 35.06375,30.208752 1.3075,-0.32625 0.98,-0.655 0.8175,-0.98125 0.1625,-1.30875 -0.1625,-1.145 -0.8175,-1.14625 -0.98,-0.655 -1.3075,-0.3275 -4.41125,0 0,11.61875 1.7975,0 0,-5.07375 2.61375,0 z m 14.37875,-6.545 4.41125,0 1.47,0.3275 1.14375,0.98125 0.49,1.31 0,1.4725 -0.65375,1.30875 -0.98,0.81875 1.96125,5.4 -1.96125,0 -1.7975,-5.07375 -2.2875,0 0,5.07375 -1.79625,0 0,-11.61875 z m 4.41125,4.74625 0.65375,-0.16375 0.6525,-0.49125 0.16375,-0.8175 -0.16375,-0.655 -0.6525,-0.49 -0.65375,-0.32875 -2.615,0 0,2.94625 2.615,0 z m 5.2275,-4.74625 6.69875,0 0,1.8 -4.90125,0 0,2.94625 3.43125,0 0,1.79875 -3.43125,0 0,3.27375 5.22875,0 0,1.8 -7.02625,0 0,-11.61875 z m -14.70375,6.545 -1.14375,-3.27125 -1.14375,3.27125 2.2875,0 z m -9.31375,-1.79875 0.8175,-0.16375 0.49,-0.49125 0.16375,-0.8175 -0.16375,-0.655 -0.49,-0.49 -0.8175,-0.32875 -2.61375,0 0,2.94625 2.61375,0 z m 7.3525,-4.74625 1.63375,0 3.92125,11.61875 -1.7975,0 -1.14375,-3.2725 -3.59375,0 -1.14375,3.2725 -1.96125,0 4.085,-11.61875"
     style="fill:#000000;fill-opacity:1;fill-rule:evenodd;stroke:none"
     id="path4610" /></svg>