<?xml version="1.0" encoding="UTF-8" standalone="no"?>
<!-- Created with Inkscape (http://www.inkscape.org/) -->

<svg
   xmlns:dc="http://purl.org/dc/elements/1.1/"
   xmlns:cc="http://creativecommons.org/ns#"
   xmlns:rdf="http://www.w3.org/1999/02/22-rdf-syntax-ns#"
   xmlns:svg="http://www.w3.org/2000/svg"
   xmlns="http://www.w3.org/2000/svg"
   xmlns:sodipodi="http://sodipodi.sourceforge.net/DTD/sodipodi-0.dtd"
   xmlns:inkscape="http://www.inkscape.org/namespaces/inkscape"
   version="1.1"
   width="93.8125"
   height="93.8125"
   id="svg2"
   xml:space="preserve"
   inkscape:version="0.48.2 r9819"
   sodipodi:docname="Chile RPO-2b.svg"><sodipodi:namedview
     pagecolor="#ffffff"
     bordercolor="#666666"
     borderopacity="1"
     objecttolerance="10"
     gridtolerance="10"
     guidetolerance="10"
     inkscape:pageopacity="0"
     inkscape:pageshadow="2"
     inkscape:window-width="1280"
     inkscape:window-height="1004"
     id="namedview19"
     showgrid="false"
     inkscape:zoom="5.7374439"
     inkscape:cx="76.755505"
     inkscape:cy="52.86979"
     inkscape:window-x="-8"
     inkscape:window-y="-8"
     inkscape:window-maximized="1"
     inkscape:current-layer="svg2"
     fit-margin-top="0.05"
     fit-margin-left="0.05"
     fit-margin-right="0.05"
     fit-margin-bottom="0.05" /><defs
     id="defs20" /><metadata
     id="metadata8"><rdf:RDF><cc:Work
         rdf:about=""><dc:format>image/svg+xml</dc:format><dc:type
           rdf:resource="http://purl.org/dc/dcmitype/StillImage" /><dc:title></dc:title></cc:Work></rdf:RDF></metadata><path
     d="m 46.73059,1.3562263 c 25.22884,0 45.69006,20.4691927 45.69006,45.7078637 0,25.260944 -20.46122,45.730137 -45.69006,45.752412 C 21.47949,92.794227 1.018266,72.325034 0.996,47.06409 1.018266,21.825419 21.47949,1.3562263 46.73059,1.3562263"
     inkscape:connector-curvature="0"
     id="path18"
     style="fill:#ffffff;fill-opacity:1" /><path
     d="m 26.3075,32.885 -0.255,1.6825 -0.05125,1.6825 0,20.0375 -6.06625,-2.04 -0.66375,-0.10125 -0.6625,0.10125 -0.61125,0.25625 -0.46,0.50875 -0.305,0.56125 -0.15375,0.6625 L 17.18125,56.9 17.4875,57.51125 31.355,76.73375 45.1725,57.51125 45.47875,56.9 45.58,56.23625 45.47875,55.57375 45.1725,55.0125 44.71375,54.50375 44.1025,54.2475 l -0.66375,-0.10125 -0.6625,0.10125 -6.0675,2.04 0,-14.03375 L 26.3075,32.885"
     style="fill:#000000;fill-opacity:1;fill-rule:nonzero;stroke:none"
     id="path5591"
     inkscape:connector-curvature="0" /><path
     d="M 55.37,49.94375 55.37,36.25 55.2675,34.87375 55.0125,33.5475 54.50375,32.32375 53.89125,31.1 53.075,30.03 52.10625,29.1125 50.985,28.29625 49.8125,27.68375 48.5375,27.225 47.2125,26.97125 45.88625,26.86875 44.51,27.02125 43.235,27.3275 41.96,27.78625 40.7875,28.5 39.7175,29.31625 38.8,30.285 37.715,31.73625 29.955,24.11 31.66125,22.22875 33.14,20.9025 34.72,19.68 l 1.6825,-1.02 1.785,-0.8675 1.835,-0.6625 1.8875,-0.51 1.9875,-0.305 1.9375,-0.1025 1.98875,0.05125 1.98875,0.30625 1.88625,0.45875 1.88625,0.61125 1.785,0.86625 1.6825,1.02 1.63125,1.1725 1.4275,1.275 1.3775,1.47875 1.1725,1.58 1.02,1.6825 0.86625,1.785 0.6625,1.88625 0.45875,1.8875 0.30625,1.9875 0.1025,1.98875 0,24.405 L 55.37,49.94375"
     style="fill:#000000;fill-opacity:1;fill-rule:nonzero;stroke:none"
     id="path5595"
     inkscape:connector-curvature="0" /><path
     d="m 66.0775,71.295 0,5.43875 -10.7075,0 0,-16.14625 10.7075,10.7075"
     style="fill:#000000;fill-opacity:1;fill-rule:nonzero;stroke:none"
     id="path5593"
     inkscape:connector-curvature="0" /><path
     inkscape:connector-curvature="0"
     id="path6529"
     style="fill:#ef2c30;fill-opacity:1;fill-rule:evenodd;stroke:none"
     d="m 18.66,25.2375 -1.58125,2.2425 -1.37625,2.295 -1.22375,2.39625 -1.02,2.4975 -0.815,2.60125 -0.6125,2.6 -0.45875,2.65125 -0.20375,2.7025 -0.05125,2.7025 0.20375,2.7025 0.3575,2.65125 0.61125,2.65 0.765,2.55 0.96875,2.55 1.1725,2.39625 1.32625,2.345 1.52875,2.24375 1.68375,2.09 1.835,1.98875 1.9375,1.835 2.14125,1.6825 2.1925,1.53 2.345,1.325 2.4475,1.17375 2.49875,0.96875 2.6,0.765 2.65125,0.61125 2.65125,0.35625 2.7025,0.15375 2.7025,0 2.65125,-0.255 2.65125,-0.40875 2.65125,-0.61125 2.54875,-0.8675 2.49875,-1.01875 2.39625,-1.1725 2.345,-1.4275 2.1925,-1.53 L 18.66,25.2375 z m 56.54375,43.3375 1.53,-2.1925 1.4275,-2.345 1.1725,-2.39625 1.02,-2.49875 0.86625,-2.54875 0.6125,-2.65125 0.4075,-2.65125 0.255,-2.7025 0,-2.7025 -0.15375,-2.65125 -0.35625,-2.7025 -0.6125,-2.6 -0.76375,-2.6 -0.96875,-2.49875 -1.17375,-2.4475 -1.325,-2.345 -1.53,-2.24375 -1.6825,-2.09 -1.835,-1.98875 -1.98875,-1.835 -2.09,-1.6825 L 65.77125,16.7225 63.42625,15.345 61.03,14.22375 58.48,13.20375 55.93125,12.44 53.28,11.87875 50.62875,11.47 l -2.7025,-0.1525 -2.7025,0 -2.7025,0.255 -2.65125,0.4075 -2.6,0.66375 -2.55,0.815 -2.4975,1.02 -2.4475,1.22375 -2.295,1.37625 -2.1925,1.53 L 75.20375,68.575 z M 93.7625,46.90625 93.66125,43.84625 93.355,40.7875 92.89625,37.78 92.1825,34.77125 91.315,31.865 90.19375,28.95875 88.97,26.20625 87.49125,23.50375 85.86,20.8525 84.075,18.405 82.1375,16.00875 80.0475,13.765 77.80375,11.675 75.45875,9.7375004 72.96,7.9525 l -2.6,-1.63125 -2.7025,-1.4275 -2.80375,-1.275 -2.855,-1.07 L 59.04125,1.63 56.08375,0.9675 53.025,0.4575 49.965,0.15125 46.90625,0.05 43.8475,0.15125 40.7875,0.4575 37.78,0.9675 34.8225,1.63 31.865,2.54875 l -2.855,1.07 -2.80375,1.275 -2.7025,1.4275 L 20.9025,7.9525 18.405,9.7375004 16.00875,11.675 l -2.1925,2.09 -2.14125,2.24375 -1.9375,2.39625 -1.785,2.4475 -1.58,2.65125 -1.47875,2.7025 -1.275,2.7525 L 2.5475,31.865 1.68125,34.77125 0.9675,37.78 l -0.51,3.0075 -0.30625,3.05875 -0.10125,3.06 0.10125,3.05875 0.30625,3.06 0.51,3.0075 0.71375,3.00875 0.86625,2.9575 1.07125,2.855 1.275,2.80375 1.47875,2.7025 1.58,2.6 1.785,2.49875 1.9375,2.345 2.14125,2.24375 2.1925,2.09 2.39625,1.9375 2.4975,1.785 2.60125,1.63125 2.7025,1.47875 2.80375,1.22375 2.855,1.12125 2.9575,0.8675 2.9575,0.71375 3.0075,0.51 3.06,0.255 3.05875,0.10125 3.05875,-0.10125 3.06,-0.255 3.05875,-0.51 2.9575,-0.71375 2.9575,-0.8675 2.855,-1.12125 L 67.6575,88.97 70.36,87.49125 72.96,85.86 l 2.49875,-1.785 2.345,-1.9375 2.24375,-2.09 2.09,-2.24375 1.9375,-2.345 1.785,-2.49875 1.63125,-2.6 1.47875,-2.7025 1.22375,-2.80375 1.12125,-2.855 0.8675,-2.9575 0.71375,-3.00875 0.45875,-3.0075 0.30625,-3.06 0.10125,-3.05875" /></svg>