<?xml version="1.0" encoding="UTF-8" standalone="no"?>
<!-- Created with Inkscape (http://www.inkscape.org/) -->

<svg
   xmlns:dc="http://purl.org/dc/elements/1.1/"
   xmlns:cc="http://creativecommons.org/ns#"
   xmlns:rdf="http://www.w3.org/1999/02/22-rdf-syntax-ns#"
   xmlns:svg="http://www.w3.org/2000/svg"
   xmlns="http://www.w3.org/2000/svg"
   xmlns:sodipodi="http://sodipodi.sourceforge.net/DTD/sodipodi-0.dtd"
   xmlns:inkscape="http://www.inkscape.org/namespaces/inkscape"
   version="1.1"
   width="87.46125"
   height="87.3125"
   id="svg2"
   xml:space="preserve"
   inkscape:version="0.48.2 r9819"
   sodipodi:docname="AJAX1.svg"><sodipodi:namedview
     pagecolor="#ffffff"
     bordercolor="#666666"
     borderopacity="1"
     objecttolerance="10"
     gridtolerance="10"
     guidetolerance="10"
     inkscape:pageopacity="0"
     inkscape:pageshadow="2"
     inkscape:window-width="1280"
     inkscape:window-height="1004"
     id="namedview19"
     showgrid="false"
     inkscape:zoom="4.0569855"
     inkscape:cx="35.017619"
     inkscape:cy="45.990176"
     inkscape:window-x="-8"
     inkscape:window-y="-8"
     inkscape:window-maximized="1"
     inkscape:current-layer="svg2"
     fit-margin-top="0.05"
     fit-margin-left="0.05"
     fit-margin-right="0.05"
     fit-margin-bottom="0.05" /><defs
     id="defs20" /><metadata
     id="metadata8"><rdf:RDF><cc:Work
         rdf:about=""><dc:format>image/svg+xml</dc:format><dc:type
           rdf:resource="http://purl.org/dc/dcmitype/StillImage" /><dc:title></dc:title></cc:Work></rdf:RDF></metadata><path
     d="m 43.75111,0.0547475 c 24.0045,0 43.47275,19.4758325 43.47275,43.4896835 0,24.035044 -19.46825,43.510877 -43.47275,43.532071 C 19.72544,87.055308 0.257185,67.579475 0.236,43.544431 0.257185,19.53058 19.72544,0.0547475 43.75111,0.0547475"
     inkscape:connector-curvature="0"
     id="path18"
     style="fill:#ffffff;fill-opacity:1" /><path
     d="M 34.9025,40.65125 34.495,40.6 32.4025,40.14125 30.31,39.47875 28.37125,38.6125 26.4825,37.54375 24.69625,36.32125 23.0125,34.945 l -1.48,-1.5275 -1.3775,-1.68125 -1.17375,-1.83375 0,27.5075 0.97,-1.68 1.1225,-1.58 1.225,-1.4775 1.42875,-1.32375 1.48,-1.17125 1.6325,-1.07 1.735,-0.86625 1.78625,-0.71375 1.8375,-0.56 1.8875,-0.4075 -0.6125,1.325 -0.4075,1.375 -0.25625,1.375 -0.10125,1.42625 0.1525,1.42625 0.30625,1.4275 0.46,1.32375 0.6625,1.27375 0.81625,1.17125 0.91875,1.07 1.1225,0.9175 1.17375,0.815 1.3275,0.61125 1.32625,0.45875 1.42875,0.25375 1.42875,0.05125 1.42875,-0.10125 1.37875,-0.255 1.3775,-0.51 1.275,-0.61125 1.17375,-0.815 1.0725,-0.9175 0.9175,-1.06875 0.3575,-0.56125 1.27625,-9.78 -0.205,-0.6625 -0.45875,-0.86625 1.93875,0.51 1.8375,0.76375 1.735,0.9175 1.6325,1.17125 1.02125,0.7125 1.17375,0.56125 1.22375,0.35625 1.27625,0.1525 1.27625,0 1.22375,-0.20375 1.225,-0.45875 1.1225,-0.56 1.0725,-0.76375 0.8675,-0.9175 0.765,-1.01875 0.56125,-1.17125 0.40875,-1.2225 0.1525,-1.27375 0,-1.27375 -0.1525,-1.2225 -0.40875,-1.2225 L 72.8175,39.3775 72.0525,38.35875 71.185,37.44125 70.1125,36.6775 68.99,36.06625 67.765,35.65875 66.54125,35.455 65.265,35.40375 63.98875,35.6075 62.765,35.96375 l -1.17375,0.56 -2.55125,1.78375 -1.63375,0.91625 -1.735,0.765 L 53.885,40.4975 52.04875,40.80375 50.16,40.905 l -4.18375,0 -11.07375,-0.25375 z m 7.09375,6.01125 -0.97,0.4575 -0.8675,0.61125 -0.765,0.765 L 38.8325,49.3625 38.42375,50.38 38.27,51.4 l 0,1.06875 0.205,1.07 0.4075,0.9675 0.6125,0.86625 0.76625,0.765 0.8675,0.61125 0.96875,0.4075 1.0725,0.20375 1.02,0 1.07125,-0.20375 0.97,-0.3575 0.91875,-0.61125 0.765,-0.7125 0.6125,-0.86625 0.40875,-1.01875 -6.94,-6.9275"
     style="fill:#000000;fill-opacity:1;fill-rule:evenodd;stroke:none"
     id="path3050"
     inkscape:connector-curvature="0" /><path
     d="m 70.06125,63.77875 1.48,-2.08875 1.3275,-2.19125 1.17375,-2.3425 0.96875,-2.395 0.76625,-2.445 L 76.33875,49.82 76.695,47.27375 76.9,44.675 76.9,42.12875 76.645,39.53 76.23625,36.9825 75.62375,34.48625 74.8075,32.04125 73.8375,29.6975 72.66375,27.40625 71.28625,25.215 69.755,23.12625 68.07125,21.14 66.285,19.30625 l -1.99,-1.63 -2.09125,-1.52875 -2.195,-1.375 L 57.7125,13.6 55.365,12.6325 52.91625,11.8175 50.415,11.20625 l -2.55125,-0.4075 -2.6025,-0.255 -2.55125,0 -2.6025,0.15375 -2.55125,0.4075 -2.5,0.56 -2.45,0.76375 -2.39875,0.9675 -2.29625,1.12125 -2.245,1.325 -2.0925,1.4775 46.4875,46.45875 z M 63.8875,69.9425 17.4,23.53375 l -1.48,2.08875 -1.3275,2.19125 -1.1725,2.3425 -0.91875,2.395 -0.81625,2.445 -0.5625,2.49625 -0.35625,2.5475 -0.205,2.5975 0.05125,2.5475 0.205,2.5975 0.4075,2.49625 0.6125,2.5475 0.81625,2.445 0.97,2.3425 1.225,2.2925 1.32625,2.19125 1.53125,2.08875 1.68375,1.98625 1.78625,1.7825 1.99,1.68125 2.0925,1.52875 2.19375,1.375 2.29625,1.1725 2.3475,0.9675 2.44875,0.815 2.5525,0.61125 2.5,0.4075 2.6025,0.255 2.55125,0 2.6025,-0.20375 2.55125,-0.3575 2.50125,-0.56 L 54.855,74.88375 57.25375,73.915 59.60125,72.74375 61.795,71.47 63.8875,69.9425 z m 23.52375,-26.28625 -0.10125,-2.955 -0.30625,-3.005 -0.51,-2.90375 -0.715,-2.90375 L 84.86,29.03625 83.78875,26.285 82.5125,23.585 81.0325,20.9875 79.4,18.49125 77.61375,16.1475 l -1.99,-2.24125 -2.0925,-2.14 -2.245,-1.9350002 -2.39875,-1.78375 -2.44875,-1.63 -2.6025,-1.4775 -2.705,-1.2725 L 58.37625,2.5975 55.51875,1.68 52.61,0.9675 49.70125,0.4575 46.69,0.1525 43.73125,0.05 l -2.96,0.1025 -2.96,0.305 -2.96,0.51 L 31.9425,1.68 29.13625,2.5975 26.33,3.6674998 l -2.705,1.2725 -2.55125,1.4775 -2.5,1.63 -2.39875,1.78375 -2.245,1.9350002 -2.0925,2.14 -1.99,2.24125 -1.78625,2.34375 -1.6325,2.49625 -1.48,2.5975 -1.27625,2.7 -1.07125,2.75125 -0.91875,2.8525 -0.71375,2.90375 -0.51125,2.90375 -0.30625,3.005 -0.10125,2.955 0.10125,2.955 0.30625,2.95375 0.51125,2.955 0.71375,2.90375 0.91875,2.8525 1.07125,2.75125 1.27625,2.7 1.48,2.5975 1.6325,2.445 1.78625,2.395 1.99,2.24125 2.0925,2.08875 2.245,1.98625 2.39875,1.78375 2.5,1.63 2.55125,1.47625 2.705,1.27375 2.80625,1.07 2.80625,0.9175 2.90875,0.7125 2.96,0.51 2.96,0.30625 2.96,0.10125 2.95875,-0.10125 3.01125,-0.30625 2.90875,-0.51 2.90875,-0.7125 2.8575,-0.9175 2.755,-1.07 2.705,-1.27375 2.6025,-1.47625 2.44875,-1.63 2.39875,-1.78375 2.245,-1.98625 2.0925,-2.08875 1.99,-2.24125 1.78625,-2.395 1.6325,-2.445 1.48,-2.5975 1.27625,-2.7 1.07125,-2.75125 0.91875,-2.8525 0.715,-2.90375 0.51,-2.955 0.30625,-2.95375 0.10125,-2.955"
     style="fill:#ef2c30;fill-opacity:1;fill-rule:evenodd;stroke:none"
     id="path3052"
     inkscape:connector-curvature="0" /></svg>