<?xml version="1.0" encoding="UTF-8" standalone="no"?>
<!-- Created with Inkscape (http://www.inkscape.org/) -->

<svg
   xmlns:dc="http://purl.org/dc/elements/1.1/"
   xmlns:cc="http://creativecommons.org/ns#"
   xmlns:rdf="http://www.w3.org/1999/02/22-rdf-syntax-ns#"
   xmlns:svg="http://www.w3.org/2000/svg"
   xmlns="http://www.w3.org/2000/svg"
   xmlns:sodipodi="http://sodipodi.sourceforge.net/DTD/sodipodi-0.dtd"
   xmlns:inkscape="http://www.inkscape.org/namespaces/inkscape"
   version="1.1"
   width="304.53369"
   height="455.8811"
   id="svg2"
   xml:space="preserve"
   inkscape:version="0.48.2 r9819"
   sodipodi:docname="AJAX1.svg"><sodipodi:namedview
     pagecolor="#ffffff"
     bordercolor="#666666"
     borderopacity="1"
     objecttolerance="10"
     gridtolerance="10"
     guidetolerance="10"
     inkscape:pageopacity="0"
     inkscape:pageshadow="2"
     inkscape:window-width="1280"
     inkscape:window-height="1004"
     id="namedview19"
     showgrid="false"
     inkscape:zoom="5.7374441"
     inkscape:cx="275.52788"
     inkscape:cy="15.08163"
     inkscape:window-x="-8"
     inkscape:window-y="-8"
     inkscape:window-maximized="1"
     inkscape:current-layer="svg2"
     fit-margin-top="0"
     fit-margin-left="0"
     fit-margin-right="0"
     fit-margin-bottom="0" /><defs
     id="defs20" /><metadata
     id="metadata8"><rdf:RDF><cc:Work
         rdf:about=""><dc:format>image/svg+xml</dc:format><dc:type
           rdf:resource="http://purl.org/dc/dcmitype/StillImage" /><dc:title /></cc:Work></rdf:RDF></metadata><path
     inkscape:connector-curvature="0"
     d="m 279.18319,454.87379 6.40758,-0.85408 5.55768,-2.5622 5.12439,-3.8412 3.84539,-4.69946 2.56638,-5.9743 0.85406,-6.40758 0,-405.206837 -0.85406,-6.403419 -2.56638,-5.549353 -3.84539,-5.124401 -5.12439,-3.8412183 -5.55768,-2.5622006 -6.40758,-0.85406699 -254.257821,0 L 18.942736,1.8475411 12.9601,4.4097417 7.8356988,8.25096 l -3.8453845,5.124401 -2.5663668,5.549353 -0.42495036,6.403419 0,405.206837 0.42495036,6.40758 2.5663668,5.9743 3.8453845,4.69946 5.1244012,3.8412 5.982636,2.5622 5.982633,0.85408 254.257821,0 z"
     style="fill:#ffffff;stroke:#000000;stroke-width:2.00030255;stroke-linecap:round;stroke-linejoin:round;stroke-miterlimit:10;stroke-opacity:1;stroke-dasharray:none"
     id="path9164" /><path
     inkscape:connector-curvature="0"
     d="m 180.76968,164.99515 6.53674,-3.03296 5.98261,-3.4121 5.12859,-5.1244 3.84538,-5.97848 2.13726,-6.40341 0.85406,-6.83254 0,-31.17136 5.98264,0.85406 2.13724,-0.42495 1.28318,-1.27901 0.42496,-2.13725 -0.85406,-1.708143 -18.80198,-24.338824 -19.22692,24.338824 -0.85824,1.708143 0.42913,2.13725 1.70813,1.27901 1.71229,0.42495 5.98264,-0.85406 0,31.17136 -0.85823,3.84538 -2.1331,3.4121 -3.42042,2.13309 -13.64425,6.22843 15.65235,15.16489"
     style="fill:#000000;fill-opacity:1;fill-rule:nonzero;stroke:none"
     id="path9166" /><path
     inkscape:connector-curvature="0"
     d="m 162.09686,147.43888 0,-73.433097 -20.08517,0 0,53.364607 20.08517,20.06849"
     style="fill:#000000;fill-opacity:1;fill-rule:nonzero;stroke:none"
     id="path9168" /><path
     inkscape:connector-curvature="0"
     d="m 142.01169,179.89758 0,70.77509 20.08517,0 0,-79.66987 -20.08517,8.89478"
     style="fill:#000000;fill-opacity:1;fill-rule:nonzero;stroke:none"
     id="path9170" /><path
     inkscape:connector-curvature="0"
     d="m 91.163466,230.10006 0,-13.90672 0.854068,-8.54483 2.137251,-8.10737 2.987152,-7.26166 4.703613,-7.25748 5.55353,-5.97848 6.41174,-5.12439 7.26166,-4.27034 22.32656,-10.43211 15.38154,15.3732 -29.58822,13.41926 -5.98263,3.84538 -4.69945,4.69529 -3.84539,5.97847 -2.56637,6.40343 -0.85406,7.26163 0,26.71772 -20.080994,-12.811"
     style="fill:#000000;fill-opacity:1;fill-rule:nonzero;stroke:none"
     id="path9172" /><path
     inkscape:connector-curvature="0"
     d="m 279.18319,448.89531 5.55352,-0.85406 5.12856,-2.5622 3.84538,-4.26618 2.56219,-5.12856 1.2832,-5.54934 0,-405.206837 -1.2832,-5.549352 -2.56219,-5.124402 -3.84538,-3.841218 -5.12856,-2.562201 -5.55352,-0.8540671 -254.257821,0 -5.553518,0.8540671 -5.128568,2.562201 -3.845384,3.841218 -2.5622002,5.124402 -0.8540671,5.549352 0,405.206837 0.8540671,5.54934 2.5622002,5.12856 3.845384,4.26618 5.128568,2.5622 5.553518,0.85406 254.257821,0 z m 0,-11.95276 2.99131,-0.85824 2.13307,-2.55803 0.85825,-2.99131 0,-405.206837 -0.85825,-2.987152 -2.13307,-2.133083 -2.99131,-0.854067 -254.257821,0 -2.991318,0.854067 -2.133084,2.133083 -0.858231,2.987152 0,405.206837 0.858231,2.99131 2.133084,2.55803 2.991318,0.85824 254.257821,0"
     style="fill:#000000;fill-opacity:1;fill-rule:evenodd;stroke:none"
     id="path9176" /><path
     inkscape:connector-curvature="0"
     d="m 256.96078,312.26132 11.53614,0 3.84956,0.85405 2.56221,2.13726 1.70812,3.41209 0,3.84538 -1.70812,3.41628 -2.56221,2.55802 5.12441,14.09417 -5.12441,0 -5.12857,-13.23593 -5.55768,0 0,13.23593 -4.69945,0 0,-30.31725 z m -56.83503,30.31725 3.84955,-0.85407 2.99132,-2.5622 1.27901,-3.41628 0,-3.84117 -1.70813,-2.99133 -2.99132,-2.5622 2.56219,-1.70813 1.2832,-2.98715 0,-3.41628 -1.2832,-2.98713 -2.56219,-2.13726 -3.42043,-0.85405 -11.96111,0 0,30.31725 11.96111,0 z m -86.31493,0.42494 3.41627,-0.85406 3.42044,-2.5622 1.70813,-3.41627 -4.2745,-1.27902 -1.70814,2.13725 -2.99131,1.27903 -2.99132,-0.85408 -1.70813,-2.13724 -1.70814,-5.12022 0,-5.55351 1.70814,-5.12024 1.70813,-2.13725 2.99132,-0.85406 2.5622,0.85406 2.13725,2.13725 4.2745,-1.28319 -2.13725,-3.41626 -2.99132,-2.13308 -3.84538,-0.85407 -3.84539,0.42497 -2.99131,2.13306 -2.13726,3.41627 -2.13724,6.40759 0,6.40342 2.13724,6.40755 2.13726,3.41211 3.42043,1.70813 3.84538,0.85406 z m -58.11821,-7.25749 1.7123,3.84123 3.416268,2.5622 4.2745,0.85406 3.845386,-0.85406 3.420433,-2.5622 2.133084,-3.84123 1.283184,-8.54063 -1.283184,-8.54067 -2.133084,-3.41209 -3.420433,-2.56221 -3.845386,-0.85407 -4.2745,0.85407 -3.416268,2.56221 -1.7123,3.41209 -1.279018,5.97847 0,5.55351 1.279018,5.54932 z m 212.80431,-11.52778 1.71231,-0.42911 1.70814,-1.27903 0.42911,-1.70813 -0.42911,-2.13725 -1.70814,-1.27902 -1.71231,-0.42496 -6.83669,0 0,7.2575 6.83669,0 z m -26.49273,5.1244 -2.99131,-8.96562 -3.41628,8.96562 6.40759,0 z m -26.06781,-17.08132 4.69946,0 0,30.31308 -4.69946,0 0,-30.31308 z m 20.93925,0 4.2745,0 10.25713,30.31725 -5.12857,0 -2.56635,-8.54066 -9.82803,0 -2.56221,8.54066 -5.12856,0 10.68209,-30.31725 z m -94.43482,17.08132 -3.42042,-8.96562 -2.99132,8.96562 6.41174,0 z m -5.55768,-17.08132 4.2745,0 10.68209,30.31725 -5.12857,0 -2.5622,-8.54066 -9.82802,0 -2.5622,8.54066 -5.12857,0 10.25297,-30.31725 z m 20.51428,0 4.69945,0 7.26581,17.50627 6.83671,-17.50627 4.69945,0 0,30.31725 -4.69945,0 0,-17.51043 -6.83671,17.51043 -7.26581,-17.51043 0,17.51043 -4.69945,0 0,-30.31725 z m -97.430299,22.2057 2.137249,2.56219 2.991318,1.27903 2.991318,-0.85408 1.708134,-2.98714 1.283183,-7.26163 -1.283183,-7.25749 -1.708134,-2.5622 -2.991318,-0.85406 -2.991318,0.85406 -2.137249,2.5622 -0.854067,7.25749 0.854067,7.26163 z m -33.329441,-22.2057 4.699451,0 11.111202,20.06848 0,-20.06848 4.699451,0 0,30.31725 -4.699451,0 -11.111202,-20.06847 0,20.06847 -4.699451,0 0,-30.31725 z m 173.48808,25.6178 2.56637,-1.27903 1.28318,-2.56218 -0.85825,-2.13306 -1.70811,-2.13726 -2.56222,-0.42495 -5.98262,0 0,8.53648 7.26165,0 z m -1.70813,-13.23593 2.13725,-0.85406 1.70813,-1.70813 0.85405,-2.1331 -0.85405,-2.13725 -2.13725,-0.84991 -7.26165,0 0,7.68245 5.55352,0"
     style="fill:#000000;fill-opacity:1;fill-rule:evenodd;stroke:none"
     id="path9178" /><path
     inkscape:connector-curvature="0"
     d="m 173.20807,394.24336 1.27901,2.1331 2.13724,1.70813 2.56637,0.85407 2.13309,-0.42497 1.7123,-1.28318 1.27902,-1.27902 0,-1.70813 -0.85408,-2.99132 -2.56219,-1.27901 -4.69945,-0.85406 -2.13726,-1.27902 -2.13724,-1.7123 -1.2832,-2.13309 -0.42494,-2.56221 0.42494,-3.41624 1.71231,-2.56221 2.5622,-2.13309 3.41626,-0.85406 2.99133,0 2.99132,1.28318 2.56636,2.13308 1.28318,2.98714 -4.70362,1.2832 -1.70812,-2.5622 -2.99132,-0.42913 -2.13726,0.42913 -1.28318,1.70814 -0.42495,2.13306 0.85408,1.70815 1.70813,1.28318 4.2745,0.85407 3.84538,1.70813 2.56636,2.98715 0.85407,4.27033 -0.42911,3.41628 -2.13725,2.98715 -3.41627,2.13307 -3.84539,0.85408 -3.42042,-0.85408 -3.41628,-1.70397 -2.13725,-2.5622 -1.28318,-2.99131 4.27451,-1.27902 z m -28.63,-4.69945 2.99132,-0.42494 2.99131,-2.13309 1.70813,-2.5622 0.42496,-3.41626 -0.42496,-2.99131 -1.70813,-2.98716 -2.99131,-1.70814 -2.99132,-0.42496 -11.96527,0 0,29.88401 4.69945,0 0,-13.23595 7.26582,0 z m -64.525805,6.83255 1.708133,-5.54935 0,-5.97848 -1.708133,-5.54934 -2.566366,-3.41628 -3.416267,-2.5622 -3.845386,-0.42496 -8.549002,0 0,29.88401 8.549002,0 3.845386,-0.42492 3.416267,-2.56222 2.566366,-3.41626 z m 121.785775,-18.78531 -6.8367,0 0,-4.6953 18.37286,0 0,4.6953 -6.8367,0 0,25.18871 -4.69946,0 0,-25.18871 z m 31.1922,12.38188 -2.99133,-8.96561 -2.99129,8.96561 5.98262,0 z m -5.12857,-17.07718 4.27451,0 10.68207,29.88401 -5.12439,0 -2.99549,-8.11155 -9.3989,0 -2.99131,8.11155 -5.12859,0 10.6821,-29.88401 z m -69.22524,0 4.69945,0 0,29.88819 -4.69945,0 0,-29.88819 z m -14.09836,11.95278 1.70812,-0.42495 1.2832,-1.28318 0.42494,-2.13308 -0.42494,-1.70813 -1.2832,-1.28318 -1.70812,-0.42496 -7.26582,0 0,7.25748 7.26582,0 z m -74.353824,13.23596 2.991318,-0.85408 2.562201,-2.5622 1.283182,-4.69528 0,-4.27033 -1.283182,-4.69528 -2.562201,-2.56639 -2.991318,-0.84988 -3.845383,0 0,20.49344 3.845383,0 z m 17.089672,-25.18874 17.947902,0 0,4.6953 -13.244286,0 0,7.25748 8.973956,0 0,4.69528 -8.973956,0 0,8.54068 14.098356,0 0,4.69527 -18.801972,0 0,-29.88401"
     style="fill:#000000;fill-opacity:1;fill-rule:evenodd;stroke:none"
     id="path9180" /><path
     inkscape:connector-curvature="0"
     d="m 76.20688,94.074255 -7.265816,10.673755 -5.553521,11.10287 -3.849549,11.95694 -2.562201,11.95278 -0.854066,12.811 0.854066,12.38188 2.562201,12.38189 3.849549,11.52782 5.553521,11.52783 7.265816,10.2488 8.115719,9.39474 9.403069,8.54066 10.257142,6.82836 11.53615,5.55354 11.53616,3.84121 12.39437,2.5622 12.39023,0.85407 12.81934,-0.85407 11.96526,-2.5622 11.96528,-3.84121 11.53615,-5.55354 10.25713,-6.82836 L 76.20688,94.074255 z M 228.3308,210.63982 93.725668,76.138849 l 10.682082,-6.828368 11.11121,-5.553519 11.96527,-3.841217 11.96526,-2.562201 12.81934,-0.854067 12.39023,0.854067 12.39439,2.562201 11.53615,3.841217 11.53615,5.553519 10.25713,7.257485 9.40308,8.11572 8.11571,9.390569 7.26583,10.244645 5.5535,11.53198 3.84956,11.52783 2.5622,12.38189 0.85408,12.38606 -0.85408,12.80682 -2.5622,11.95693 -3.84956,11.95278 -5.5535,11.52783 -6.8367,10.2488 z m 49.99832,-58.06822 -0.85823,-14.09002 -2.5622,-14.09003 -3.8454,-13.66507 -5.55769,-12.811006 -6.8367,-12.381889 -8.11571,-11.52782 -9.40306,-10.673753 -10.25713,-9.394737 -11.53616,-8.111552 -12.39022,-6.832535 -13.24846,-5.549354 -13.6734,-3.845382 -13.67342,-2.558036 -14.10251,-0.858232 -14.10252,0.858232 -14.10252,2.558036 -13.6734,3.845382 -12.819337,5.549354 -12.39022,6.832535 -11.54032,8.111552 -10.682087,9.394737 -9.403068,10.673753 -8.115718,11.52782 -6.836701,12.381889 -5.557684,12.811006 -3.845385,13.66507 -2.5622,14.09003 -0.429117,14.09002 0.429117,14.09002 2.5622,13.66507 3.845385,13.66091 5.557684,13.23595 6.836701,12.38606 8.115718,11.52781 9.403068,10.24464 10.682087,9.39474 11.54032,8.54067 12.39022,6.83253 12.819337,5.12024 13.6734,3.84121 14.10252,2.56638 14.10252,0.85407 14.10251,-0.85407 13.67342,-2.56638 13.6734,-3.84121 13.24846,-5.12024 12.39022,-6.83253 11.53616,-8.54067 10.25713,-9.39474 9.40306,-10.24464 8.11571,-11.52781 6.8367,-12.38606 5.55769,-13.23595 3.8454,-13.66091 2.5622,-13.66507 0.85823,-14.09002"
     style="fill:#ef2c30;fill-opacity:1;fill-rule:evenodd;stroke:none"
     id="path9174" /></svg>