<?xml version="1.0" encoding="UTF-8" standalone="no"?>
<!-- Created with Inkscape (http://www.inkscape.org/) -->

<svg
   xmlns:dc="http://purl.org/dc/elements/1.1/"
   xmlns:cc="http://creativecommons.org/ns#"
   xmlns:rdf="http://www.w3.org/1999/02/22-rdf-syntax-ns#"
   xmlns:svg="http://www.w3.org/2000/svg"
   xmlns="http://www.w3.org/2000/svg"
   xmlns:sodipodi="http://sodipodi.sourceforge.net/DTD/sodipodi-0.dtd"
   xmlns:inkscape="http://www.inkscape.org/namespaces/inkscape"
   version="1.1"
   width="95.827499"
   height="95.879997"
   id="svg2"
   xml:space="preserve"
   inkscape:version="0.48.2 r9819"
   sodipodi:docname="Chile RPO-10.svg"><sodipodi:namedview
     pagecolor="#ffffff"
     bordercolor="#666666"
     borderopacity="1"
     objecttolerance="10"
     gridtolerance="10"
     guidetolerance="10"
     inkscape:pageopacity="0"
     inkscape:pageshadow="2"
     inkscape:window-width="1280"
     inkscape:window-height="1004"
     id="namedview19"
     showgrid="false"
     inkscape:zoom="4.0569855"
     inkscape:cx="34.917619"
     inkscape:cy="45.890178"
     inkscape:window-x="-8"
     inkscape:window-y="-8"
     inkscape:window-maximized="1"
     inkscape:current-layer="svg2"
     fit-margin-top="0.05"
     fit-margin-left="0.05"
     fit-margin-right="0.05"
     fit-margin-bottom="0.05" /><defs
     id="defs20" /><metadata
     id="metadata8"><rdf:RDF><cc:Work
         rdf:about=""><dc:format>image/svg+xml</dc:format><dc:type
           rdf:resource="http://purl.org/dc/dcmitype/StillImage" /><dc:title></dc:title></cc:Work></rdf:RDF></metadata><path
     d="m 47.93411,4.4392445 c 24.0045,0 43.47275,19.4758325 43.47275,43.4896835 0,24.035044 -19.46825,43.510877 -43.47275,43.532071 C 23.90844,91.439805 4.440185,71.963972 4.419,47.928928 4.440185,23.915077 23.90844,4.4392445 47.93411,4.4392445"
     inkscape:connector-curvature="0"
     id="path18"
     style="fill:#ffffff;fill-opacity:1" /><path
     d="m 47.91375,54.235 0,5.96375 -1.835,0 0,-6.88125 -2.905,-1.58 -1.37625,8.46125 -1.53,0 0,-9.175 -8.61375,0 4.3325,0 -4.3325,0 0,9.175 -1.53,0 -1.52875,-9.175 -1.39625,0.08375 -0.0825,-0.08375 L 23.03875,53.165 25.74,55.86625 24.415,57.14 20.54125,53.26625 24.0075,49.8 23.345,49.08625 22.88625,48.22 22.58,47.3025 l -0.05125,-0.96875 0.1025,-0.96875 0.255,-0.76375 0,-0.81625 -0.20375,-0.76375 -0.3575,-0.71375 -0.56125,-0.56125 -0.6625,-0.45875 -0.76375,-0.20375 0,3.7725 -3.05875,0 0,-9.17625 1.78375,0.1025 1.73375,0.30625 1.68125,0.51 1.63125,0.7125 1.53,0.8675 1.4275,1.07 1.325,1.22375 1.12125,1.325 6.06625,0 12.335,12.4375"
     style="fill:#000000;fill-opacity:1;fill-rule:evenodd;stroke:none"
     id="path8689"
     inkscape:connector-curvature="0" /><path
     d="m 49.545,43.6325 -0.4075,-1.27375 -1.22375,-3.62 30.635,0 -3.05875,9.22625 3.05875,0 0,3.05875 -6.11625,0 -0.1025,1.22375 -0.255,1.2225 -0.4075,1.1725 -0.56125,1.1225 -0.71375,1.01875 -0.86625,0.9175 -0.9175,0.765 -1.07,0.6625 -1.1725,0.50875 -1.12125,0.30625 -1.4275,-1.325 0.20375,0 1.12125,-0.20375 1.22375,-0.4075 1.07,-0.6125 1.02,-0.76375 0.86625,-0.9175 0.6625,-1.07125 0.51,-1.1725 0.30625,-1.2225 0.10125,-1.22375 -6.11625,0 -0.1025,0.45875 L 64.48,51.89 64.12375,52.2475 63.715,52.45125 63.25625,52.5525 62.7475,52.45125 62.33875,52.2475 61.9825,51.89 61.77875,51.4825 61.7275,51.02375 l -4.48625,0 L 49.545,43.6325"
     style="fill:#000000;fill-opacity:1;fill-rule:evenodd;stroke:none"
     id="path8691"
     inkscape:connector-curvature="0" /><path
     d="m 76.81625,70.0875 -51.025,-51.075 2.2425,-1.58 2.345,-1.4275 2.4975,-1.22375 2.54875,-1.01875 2.6,-0.8675 2.70125,-0.6625 2.70125,-0.4075 2.7525,-0.255 2.75375,0 2.7525,0.15375 2.7525,0.4075 2.65,0.61125 2.65125,0.765 2.54875,1.01875 2.4975,1.1725 2.395,1.3775 2.29375,1.52875 2.14125,1.7325 2.03875,1.88625 1.88625,1.9875 1.6825,2.1925 1.58,2.2425 1.325,2.39625 1.22375,2.4975 0.96875,2.54875 0.815,2.65 0.56125,2.7025 0.4075,2.70125 0.20375,2.7525 -0.05125,2.80375 -0.20375,2.70125 -0.45875,2.7525 -0.6625,2.65125 -0.815,2.65 -1.07125,2.54875 -1.22375,2.44625 -1.42625,2.39625 -1.58,2.2425 z M 95.7775,47.965 95.67625,44.805 95.37,41.695 94.86,38.58625 94.14625,35.5275 93.28,32.52 l -1.12125,-2.905 -1.275,-2.855 -1.4775,-2.7525 -1.6825,-2.70125 -1.835,-2.54875 -1.9875,-2.395 L 81.76,14.0675 79.46625,11.9275 77.07,9.93875 74.52125,8.10375 71.87125,6.4725 69.0675,4.995 66.21375,3.66875 63.3075,2.59875 60.3,1.68125 57.24125,0.96749996 54.18375,0.4575 l -3.16,-0.305 -3.11,-0.1025 -3.11,0.1025 -3.16,0.305 L 38.585,0.96749996 35.5275,1.68125 32.52,2.59875 l -2.95625,1.07 -2.855,1.32625 -2.7525,1.4775 -2.65125,1.63125 -2.5475,1.835 -2.39625,1.98875 -2.29375,2.14 -2.14125,2.295 -1.9875,2.395 -1.835,2.54875 -1.6825,2.70125 -1.4775,2.7525 -1.275,2.855 -1.12125,2.905 -0.86625,3.0075 -0.71375,3.05875 -0.51,3.10875 -0.30625,3.11 -0.10125,3.16 0.10125,3.11 0.30625,3.10875 0.51,3.11 0.71375,3.0575 0.86625,3.00875 1.12125,2.905 1.275,2.855 1.4775,2.7525 1.6825,2.70125 1.835,2.54875 1.9875,2.395 2.14125,2.29375 2.29375,2.14125 2.39625,1.9875 2.5475,1.83625 2.65125,1.63 2.7525,1.47875 2.855,1.325 2.95625,1.07125 3.0075,0.9175 3.0575,0.7125 3.05875,0.51 3.16,0.30625 3.11,0.1025 3.11,-0.1025 3.16,-0.30625 3.0575,-0.51 3.05875,-0.7125 3.0075,-0.9175 2.90625,-1.07125 2.85375,-1.325 2.80375,-1.47875 2.65,-1.63 L 77.07,85.94 79.46625,83.9525 81.76,81.81125 l 2.14125,-2.29375 1.9875,-2.395 1.835,-2.54875 1.6825,-2.70125 1.4775,-2.7525 1.275,-2.855 1.12125,-2.905 0.86625,-3.00875 0.71375,-3.0575 0.51,-3.11 0.30625,-3.10875 0.10125,-3.11 z M 19.01125,25.7925 17.43125,28.08625 16.005,30.43 14.78125,32.8775 13.71,35.42625 l -0.815,2.65 -0.6625,2.65125 -0.45875,2.7525 -0.20375,2.7525 -0.05125,2.7525 0.20375,2.7525 0.3575,2.70125 0.61125,2.70125 0.815,2.65125 0.96875,2.54875 1.22375,2.4975 1.325,2.39625 1.58,2.29375 1.6825,2.14 1.88625,1.98875 2.03875,1.88625 2.14125,1.7325 2.29375,1.52875 2.395,1.3775 2.4975,1.17125 2.54875,1.02 2.65125,0.815 2.65,0.56125 2.7525,0.4075 2.7525,0.1525 2.7525,0 L 52.4,84.055 l 2.70125,-0.40875 2.70125,-0.6625 2.6,-0.86625 2.54875,-1.02 2.4975,-1.2225 2.345,-1.4275 2.2425,-1.58 -51.025,-51.075"
     style="fill:#ef2c30;fill-opacity:1;fill-rule:evenodd;stroke:none"
     id="path8693"
     inkscape:connector-curvature="0" /></svg>