<?xml version="1.0" encoding="UTF-8" standalone="no"?>
<!-- Created with Inkscape (http://www.inkscape.org/) -->

<svg
   xmlns:dc="http://purl.org/dc/elements/1.1/"
   xmlns:cc="http://creativecommons.org/ns#"
   xmlns:rdf="http://www.w3.org/1999/02/22-rdf-syntax-ns#"
   xmlns:svg="http://www.w3.org/2000/svg"
   xmlns="http://www.w3.org/2000/svg"
   xmlns:sodipodi="http://sodipodi.sourceforge.net/DTD/sodipodi-0.dtd"
   xmlns:inkscape="http://www.inkscape.org/namespaces/inkscape"
   version="1.1"
   width="94.195"
   height="94.107498"
   id="svg2"
   xml:space="preserve"
   inkscape:version="0.48.2 r9819"
   sodipodi:docname="Chile RPO-11.svg"><sodipodi:namedview
     pagecolor="#ffffff"
     bordercolor="#666666"
     borderopacity="1"
     objecttolerance="10"
     gridtolerance="10"
     guidetolerance="10"
     inkscape:pageopacity="0"
     inkscape:pageshadow="2"
     inkscape:window-width="1280"
     inkscape:window-height="1004"
     id="namedview19"
     showgrid="false"
     inkscape:zoom="4.0569855"
     inkscape:cx="34.967619"
     inkscape:cy="45.940178"
     inkscape:window-x="-8"
     inkscape:window-y="-8"
     inkscape:window-maximized="1"
     inkscape:current-layer="svg2"
     fit-margin-top="0.05"
     fit-margin-left="0.05"
     fit-margin-right="0.05"
     fit-margin-bottom="0.05" /><defs
     id="defs20" /><metadata
     id="metadata8"><rdf:RDF><cc:Work
         rdf:about=""><dc:format>image/svg+xml</dc:format><dc:type
           rdf:resource="http://purl.org/dc/dcmitype/StillImage" /><dc:title></dc:title></cc:Work></rdf:RDF></metadata><path
     d="m 47.11811,3.4827455 c 24.0045,0 43.47275,19.4758325 43.47275,43.4896835 0,24.035044 -19.46825,43.510877 -43.47275,43.532071 C 23.09244,90.483306 3.624185,71.007473 3.603,46.972429 3.624185,22.958578 23.09244,3.4827455 47.11811,3.4827455"
     inkscape:connector-curvature="0"
     id="path18"
     style="fill:#ffffff;fill-opacity:1" /><path
     d="m 35.0875,41.22 -0.51,-0.05125 -18.51375,-1.01875 2.24375,11.87125 7.65,0.45875 0,1.325 0.205,1.325 0.4075,1.27375 0.6125,1.2225 0.815,1.07 0.97,0.9175 1.12125,0.815 1.17375,0.56 1.275,0.4075 1.37625,0.205 L 35.24,61.55 l 1.32625,-0.255 1.275,-0.4075 1.1725,-0.6625 1.07125,-0.815 0.9175,-0.96875 0.765,-1.12 0.56125,-1.22375 0.3575,-1.32375 0.1525,-1.325 4.23375,0.25375 0.35625,-1.01875 2.04,-6.8275 0.30625,-1.01875 1.83625,0.10125 3.62125,0.15375 5.55875,-3.61875 3.87625,6.625 0,11.1075 1.98875,2.395 0.81625,0 0,-12.025 6.32375,12.025 2.49875,-1.27375 -6.68125,-12.79 0.96875,-0.50875 -0.96875,0.50875 0.96875,-0.50875 -7.24125,-12.3825 -0.05125,0 -4.89625,2.905 0.96875,1.4775 -4.895,3.21 1.98875,-1.27375 2.805,-1.835 -4.79375,3.10875 -5.865,-0.30125 -0.51,-0.055 -13.005,-0.6625 z m -3.52,11.56625 -4.18125,-0.255 0,1.27375 0.20375,1.2225 0.45875,1.1725 0.6125,1.07 0.81625,0.91625 0.96875,0.81625 1.12125,0.61125 1.17375,0.35625 1.22375,0.20375 1.275,-0.05125 1.22375,-0.25375 1.1225,-0.45875 1.07125,-0.6625 0.9175,-0.86625 0.765,-0.96875 0.56125,-1.12 0.4075,-1.1725 0.15375,-1.27375 -4.23375,-0.20375 -0.10125,0.71375 -0.30625,0.7125 -0.51,0.6125 -0.6125,0.4575 -0.71375,0.255 L 34.22,55.945 33.455,55.7925 32.7925,55.435 32.23125,54.92625 31.8225,54.31375 31.61875,53.55 31.5675,52.78625 z M 62.015,32.915 61.9125,32.15 l -0.305,-0.71375 -0.46,-0.61125 -0.61125,-0.45875 -0.71375,-0.305 -0.765,-0.1025 -0.765,0.1025 -0.66375,0.305 -0.61125,0.45875 -0.46,0.61125 -0.305,0.71375 -0.1025,0.765 0.1025,0.76375 0.305,0.6625 0.46,0.61125 0.61125,0.45875 0.66375,0.30625 0.765,0.10125 0.765,-0.10125 0.71375,-0.30625 0.61125,-0.45875 0.46,-0.61125 0.305,-0.6625 0.1025,-0.76375"
     style="fill:#000000;fill-opacity:1;fill-rule:evenodd;stroke:none"
     id="path10618"
     inkscape:connector-curvature="0" /><path
     d="M 75.47875,68.785 77.06,66.54375 78.4375,64.25 l 1.22375,-2.445 1.02,-2.4975 0.81625,-2.5475 0.6625,-2.64875 0.4075,-2.65 0.255,-2.70125 0,-2.7 L 82.67,43.36 82.2625,40.65875 81.70125,38.01 80.885,35.4625 79.91625,32.915 78.7425,30.46875 77.4175,28.125 75.8875,25.8825 74.20375,23.79375 72.3675,21.80625 70.37875,19.9725 68.2875,18.24 66.04375,16.7625 63.6975,15.38625 61.25,14.215 58.7,13.24625 56.15,12.4825 l -2.6525,-0.56 -2.7025,-0.40875 -2.7025,-0.1525 -2.70375,0 -2.7025,0.255 -2.6525,0.4075 -2.65125,0.6625 -2.55,0.815 -2.5,1.02 -2.4475,1.2225 -2.295,1.375 -2.24375,1.58 50.1325,50.08625 z m -6.63,6.62375 -50.1325,-50.08625 -1.58125,2.24125 -1.3775,2.29375 -1.22375,2.445 -1.02,2.4975 -0.81625,2.5475 -0.6625,2.65 -0.4075,2.64875 -0.255,2.7 0,2.70125 0.1525,2.7 0.4075,2.70125 0.56125,2.64875 0.81625,2.5475 0.96875,2.54875 1.17375,2.445 1.325,2.34375 1.53,2.2425 1.68375,2.08875 1.83625,1.98625 1.98875,1.835 2.09125,1.68125 2.24375,1.52875 2.34625,1.37625 2.4475,1.17125 2.55,0.96875 2.55,0.76375 2.6525,0.56 2.7025,0.40875 2.7025,0.1525 2.70375,0 2.7025,-0.255 2.6525,-0.4075 2.65125,-0.6625 2.55,-0.815 2.5,-1.01875 2.4475,-1.22375 2.295,-1.375 2.24375,-1.58 z m 25.29625,-28.38 -0.1025,-3.0575 -0.305,-3.0575 -0.51,-3.0575 -0.715,-2.955 -0.86625,-2.955 L 90.575,29.0425 89.3,26.24 87.82125,23.53875 86.18875,20.94 l -1.785,-2.49625 -1.9375,-2.395 L 80.375,13.8075 78.13125,11.7175 75.73375,9.7312497 73.235,7.9475 70.63375,6.3175 67.88,4.89 65.075,3.61625 62.21875,2.54625 59.26125,1.63 56.2525,0.9675 l -3.01,-0.51 -3.06,-0.30625 -3.11,-0.10125 -3.06,0.10125 -3.06,0.30625 -3.01,0.51 L 34.93375,1.63 31.97625,2.54625 29.12,3.61625 26.315,4.89 23.56125,6.3175 20.96,7.9475 18.46125,9.7312497 16.06375,11.7175 13.82,13.8075 11.72875,16.04875 9.79125,18.44375 8.00625,20.94 6.37375,23.53875 4.895,26.24 3.62,29.0425 l -1.07125,2.90375 -0.86625,2.955 -0.715,2.955 -0.51,3.0575 -0.305,3.0575 -0.1025,3.0575 0.1025,3.1075 0.305,3.0575 0.51,3.00625 0.715,3.00625 0.86625,2.955 1.07125,2.905 1.275,2.80125 1.47875,2.70125 1.6325,2.5975 1.785,2.4975 1.9375,2.395 L 13.82,80.3 l 2.24375,2.09 2.3975,1.98625 2.49875,1.78375 2.60125,1.63 2.75375,1.4275 2.805,1.27375 2.85625,1.07 2.9575,0.91625 3.00875,0.6625 3.01,0.51 3.06,0.30625 3.06,0.10125 3.11,-0.10125 3.06,-0.30625 3.01,-0.51 3.00875,-0.6625 2.9575,-0.91625 2.85625,-1.07 L 67.88,89.2175 70.63375,87.79 73.235,86.16 75.73375,84.37625 78.13125,82.39 80.375,80.3 l 2.09125,-2.24125 1.9375,-2.395 1.785,-2.4975 1.6325,-2.5975 1.47875,-2.70125 1.275,-2.80125 1.07125,-2.905 0.86625,-2.955 0.715,-3.00625 0.51,-3.00625 0.305,-3.0575 0.1025,-3.1075"
     style="fill:#ef2c30;fill-opacity:1;fill-rule:evenodd;stroke:none"
     id="path10620"
     inkscape:connector-curvature="0" /></svg>