<?xml version="1.0" encoding="UTF-8" standalone="no"?>
<!-- Created with Inkscape (http://www.inkscape.org/) -->

<svg
   xmlns:dc="http://purl.org/dc/elements/1.1/"
   xmlns:cc="http://creativecommons.org/ns#"
   xmlns:rdf="http://www.w3.org/1999/02/22-rdf-syntax-ns#"
   xmlns:svg="http://www.w3.org/2000/svg"
   xmlns="http://www.w3.org/2000/svg"
   xmlns:sodipodi="http://sodipodi.sourceforge.net/DTD/sodipodi-0.dtd"
   xmlns:inkscape="http://www.inkscape.org/namespaces/inkscape"
   version="1.1"
   width="98.971252"
   height="99.190002"
   id="svg2"
   xml:space="preserve"
   inkscape:version="0.48.2 r9819"
   sodipodi:docname="Chile RPO-5.svg"><sodipodi:namedview
     pagecolor="#ffffff"
     bordercolor="#666666"
     borderopacity="1"
     objecttolerance="10"
     gridtolerance="10"
     guidetolerance="10"
     inkscape:pageopacity="0"
     inkscape:pageshadow="2"
     inkscape:window-width="1280"
     inkscape:window-height="1004"
     id="namedview19"
     showgrid="false"
     inkscape:zoom="4.0569855"
     inkscape:cx="73.269815"
     inkscape:cy="45.790165"
     inkscape:window-x="-8"
     inkscape:window-y="-8"
     inkscape:window-maximized="1"
     inkscape:current-layer="svg2"
     fit-margin-top="0.05"
     fit-margin-left="0.05"
     fit-margin-right="0.05"
     fit-margin-bottom="0.05" /><defs
     id="defs20" /><metadata
     id="metadata8"><rdf:RDF><cc:Work
         rdf:about=""><dc:format>image/svg+xml</dc:format><dc:type
           rdf:resource="http://purl.org/dc/dcmitype/StillImage" /><dc:title></dc:title></cc:Work></rdf:RDF></metadata><path
     d="m 49.50611,6.17725 c 24.0045,0 43.47275,19.475832 43.47275,43.489683 0,24.035044 -19.46825,43.510877 -43.47275,43.532071 C 25.48044,93.17781 6.012185,73.701977 5.991,49.666933 6.012185,25.653082 25.48044,6.17725 49.50611,6.17725"
     inkscape:connector-curvature="0"
     id="path18"
     style="fill:#ffffff;fill-opacity:1" /><path
     d="M 37.085,57.05625 36.75,55.38 l -1.00625,-1.3425 -1.34,-1.00625 -1.67625,-0.335 -1.675,0.335 -1.50875,1.00625 -0.8375,1.3425 -0.335,1.67625 0.335,1.67625 0.8375,1.51 1.50875,0.8375 1.675,0.335 1.67625,-0.335 1.34,-0.8375 1.00625,-1.51 0.335,-1.67625"
     style="fill:#000000;fill-opacity:1;fill-rule:evenodd;stroke:none"
     id="path3042"
     inkscape:connector-curvature="0" /><path
     d="m 80.8225,57.05625 -0.335,-1.67625 -1.00625,-1.3425 -1.5075,-1.00625 -1.67625,-0.335 -1.5075,0.335 -1.50875,1.00625 -1.005,1.3425 -0.335,1.67625 0.335,1.67625 1.005,1.51 1.50875,0.8375 1.5075,0.335 1.67625,-0.335 1.5075,-0.8375 1.00625,-1.51 0.335,-1.67625"
     style="fill:#000000;fill-opacity:1;fill-rule:evenodd;stroke:none"
     id="path3046"
     inkscape:connector-curvature="0" /><path
     inkscape:connector-curvature="0"
     style="fill:#000000;fill-opacity:1;fill-rule:nonzero;stroke:none"
     d="m 15.8,36.925 0,20.125 11.90625,0 0.15625,-1.5 0.6875,-1.5 1.15625,-1.03125 1.34375,-0.8125 1.6875,-0.1875 1.5,0.1875 1.34375,0.8125 1.15625,1.03125 0.6875,1.5 0.34375,1.5 26.28125,0 7.21875,0 0.34375,-1.5 0.65625,-1.5 1.1875,-1.03125 1.34375,-0.8125 1.5,-0.1875 1.6875,0.1875 1.3125,0.8125 1.1875,1.03125 0.65625,1.5 0.34375,1.5 1.6875,0 0,-10.0625 -3.34375,-10.0625 -64.03125,0 z m 0.6875,3.375 2.5,0 0,6.6875 -2.5,0 0,-6.6875 z m 3.5,0 5.6875,0 0,16.09375 -5.6875,0 0,-16.09375 z m 6.71875,0 7.34375,0 4.375,4.46875 0,2.21875 -11.71875,0 0,-6.6875 z m 20.4375,0 4.03125,0 0,4 -4.03125,-4 z m 5.03125,0 11.71875,0 0,6.6875 -10.0625,0 -1.65625,-1.65625 0,-5.03125 z m 12.71875,0 5.375,0 0,16.09375 -5.375,0 0,-16.09375 z m 6.375,0 8.875,0 2.1875,6.6875 -11.0625,0 0,-6.6875 z m -31.84375,5.59375 1.03125,1.09375 -1.03125,0 0,-1.09375 z"
     id="path3050" /><path
     inkscape:connector-curvature="0"
     id="path3014"
     style="fill:#ef2c30;fill-opacity:1;fill-rule:evenodd;stroke:none"
     d="m 19.65625,26.70875 -2.68125,4.02375 -2.17875,4.52625 -1.675,4.52875 -0.8375,4.86125 -0.33625,4.8625 0.33625,5.03 1.005,4.69375 1.5075,4.695 2.17875,4.35875 2.68125,4.1925 3.3525,3.68875 3.68625,3.185 4.02125,2.85 4.3575,2.18 4.6925,1.51 4.86,1.005 4.85875,0.335 4.86,-0.335 4.86,-1.005 4.6925,-1.51 4.35625,-2.18 4.0225,-2.85 -52.62,-52.64625 z m 59.6575,45.7725 2.68125,-4.1925 2.17875,-4.35875 1.67625,-4.695 0.8375,-4.86125 0.335,-4.8625 -0.335,-4.8625 L 85.85,39.7875 84.17375,35.0925 81.995,30.7325 79.31375,26.70875 76.13,23.02 l -3.68625,-3.3525 -4.19,-2.68375 -4.35625,-2.17875 -4.6925,-1.51 -4.86,-1.00625 -4.86,-0.33375 -4.85875,0.33375 -4.86,0.83875 -4.6925,1.6775 -4.3575,2.17875 -4.02125,2.68375 52.61875,52.81375 z m 19.6075,-22.97 L 98.585,43.97875 97.7475,38.6125 96.0725,33.2475 94.06125,28.05125 91.38,23.18875 88.19625,18.66 84.50875,14.46875 80.32,10.78125 75.795,7.595 70.935,4.9125 65.74,2.90125 60.545,1.22375 55.015,0.385 49.485,0.05 l -5.53,0.335 -5.53,0.83875 -5.195,1.6775 -5.195,2.01125 -4.85875,2.6825 -4.525,3.18625 -4.19,3.6875 L 10.775,18.66 7.59125,23.18875 4.91,28.05125 2.89875,33.2475 1.2225,38.6125 0.385,43.97875 l -0.335,5.5325 0.335,5.5325 0.8375,5.53375 1.67625,5.365 2.01125,5.02875 2.68125,4.8625 3.18375,4.52875 3.68625,4.19 4.19,3.68875 4.525,3.185 4.85875,2.6825 5.195,2.18 5.195,1.51 5.53,1.005 5.53,0.33625 5.53,-0.33625 5.53,-1.005 5.195,-1.51 5.195,-2.18 4.86,-2.6825 4.525,-3.185 4.18875,-3.68875 3.6875,-4.19 3.18375,-4.52875 2.68125,-4.8625 2.01125,-5.02875 1.675,-5.365 0.8375,-5.53375 0.33625,-5.5325" /></svg>