<?xml version="1.0" encoding="UTF-8" standalone="no"?>
<!-- Created with Inkscape (http://www.inkscape.org/) -->

<svg
   xmlns:dc="http://purl.org/dc/elements/1.1/"
   xmlns:cc="http://creativecommons.org/ns#"
   xmlns:rdf="http://www.w3.org/1999/02/22-rdf-syntax-ns#"
   xmlns:svg="http://www.w3.org/2000/svg"
   xmlns="http://www.w3.org/2000/svg"
   xmlns:sodipodi="http://sodipodi.sourceforge.net/DTD/sodipodi-0.dtd"
   xmlns:inkscape="http://www.inkscape.org/namespaces/inkscape"
   version="1.1"
   width="305.5968"
   height="457.5968"
   id="svg2"
   xml:space="preserve"
   inkscape:version="0.48.2 r9819"
   sodipodi:docname="Chile RPO-14.svg"><sodipodi:namedview
     pagecolor="#ffffff"
     bordercolor="#666666"
     borderopacity="1"
     objecttolerance="10"
     gridtolerance="10"
     guidetolerance="10"
     inkscape:pageopacity="0"
     inkscape:pageshadow="2"
     inkscape:window-width="1280"
     inkscape:window-height="1004"
     id="namedview19"
     showgrid="false"
     inkscape:zoom="1.434361"
     inkscape:cx="113.64441"
     inkscape:cy="183.46335"
     inkscape:window-x="-8"
     inkscape:window-y="-8"
     inkscape:window-maximized="1"
     inkscape:current-layer="svg2"
     fit-margin-top="0"
     fit-margin-left="0"
     fit-margin-right="0"
     fit-margin-bottom="0" /><defs
     id="defs20" /><metadata
     id="metadata8"><rdf:RDF><cc:Work
         rdf:about=""><dc:format>image/svg+xml</dc:format><dc:type
           rdf:resource="http://purl.org/dc/dcmitype/StillImage" /><dc:title></dc:title></cc:Work></rdf:RDF></metadata><path
     inkscape:connector-curvature="0"
     d="m 280.18748,456.58296 6.21662,-0.44582 6.21245,-2.66249 4.8833,-3.99997 3.99581,-4.88329 2.21664,-5.77079 0.88749,-6.21662 0,-407.192781 -0.88749,-6.212453 -2.21664,-5.77496 -3.99581,-5.3291199 -4.8833,-3.55414 -6.21245,-2.66249 -6.21662,-0.88748996 -254.768921,0 -6.212453,0.88748996 -6.21662,2.66249 -4.883297,3.55414 -3.991636,5.3291199 -2.220817,5.77496 -0.887494,6.212453 0,407.192781 0.887494,6.21662 2.220817,5.77079 3.991636,4.88329 4.883297,3.99997 6.21662,2.66249 6.212453,0.44582 254.768921,0 z"
     style="fill:#ffffff;stroke:#000000;stroke-width:1.9999851;stroke-linecap:round;stroke-linejoin:round;stroke-miterlimit:10;stroke-opacity:1;stroke-dasharray:none"
     id="path5042" /><path
     inkscape:connector-curvature="0"
     d="m 280.18748,450.80801 5.77079,-0.8875 4.8833,-2.66664 3.9958,-3.9958 2.66248,-5.32913 0.8875,-5.32496 0,-407.192781 -0.8875,-5.77079 -2.66248,-4.883293 -3.9958,-3.9958 -4.8833,-2.6666499 -5.77079,-0.88749 -254.768921,0 -5.77079,0.88749 -4.883296,2.6666499 -4.437467,3.9958 -2.220817,4.883293 -0.887493,5.77079 0,407.192781 0.887493,5.32496 2.220817,5.32913 4.437467,3.9958 4.883296,2.66664 5.77079,0.8875 254.768921,0 z m 0,-12.43324 3.10832,-0.44583 2.22081,-2.21665 0.88749,-3.10831 0,-407.192781 -0.88749,-3.104144 -2.22081,-2.220817 -3.10832,-0.887492 -254.768921,0 -3.108309,0.887492 -2.216651,2.220817 -0.887493,3.104144 0,407.192781 0.887493,3.10831 2.216651,2.21665 3.108309,0.44583 254.768921,0"
     style="fill:#000000;fill-opacity:1;fill-rule:evenodd;stroke:none"
     id="path5046" /><path
     inkscape:connector-curvature="0"
     d="m 147.03432,400.77922 0,2.51664 -3.99581,2.22082 -2.66248,3.99581 -0.88749,4.44163 0.88749,4.8833 2.66248,3.9958 3.54998,2.66248 4.44163,0.89166 4.87913,-0.44583 3.9958,-2.66665 2.66248,-3.54997 2.22082,3.9958 -3.54997,3.55414 -4.44164,2.22082 -4.87913,0.88749 -5.32912,-0.44583 -4.43748,-2.22082 -3.54997,-3.9958 -2.22081,-4.44163 -0.8875,-4.87912 0.8875,-5.3333 2.22081,-4.44163 3.9958,-3.54998 0.59167,-0.29599 3.84581,0 z m 7.09994,0 0,6.51246 9.76659,0 7.54578,13.32489 3.54997,-2.22081 1.77499,3.54997 -7.54577,4.44163 -8.43328,-14.20823 -11.54158,0 0,-11.39991 4.8833,0"
     style="fill:#000000;fill-opacity:1;fill-rule:evenodd;stroke:none"
     id="path5048" /><path
     inkscape:connector-curvature="0"
     d="m 143.18851,400.77922 3.84581,-1.92499 0,1.92499 -3.84581,0 z m 6.06245,0 0,-9.47493 2.22082,0.89166 2.66248,-0.89166 0,3.99997 9.76659,0 0,4.8833 -9.76659,0 0,0.59166 -4.8833,0 z m 6.65829,-48.9913 -3.54998,1.33333 -1.32915,-1.77916 -2.22082,-0.88749 -2.66248,0.44583 -1.77499,2.22082 -0.88749,3.9958 0,4.43747 0.88749,4.44163 1.77499,2.22082 2.66248,0.44166 2.22082,-0.88749 1.32915,-2.22082 3.9958,1.33332 -1.77498,3.10831 -2.66248,1.77916 -3.10831,0.88749 -3.10831,-0.44583 -2.66248,-1.77499 -2.22082,-2.66664 -1.32915,-5.32913 0,-5.77079 1.32915,-5.32913 1.77915,-2.66248 3.10415,-1.77915 3.10831,-0.44166 3.10831,0.88749 2.66248,1.77498 1.32916,2.66665 z m 13.31657,20.87068 3.10831,-0.88749 2.66247,-1.77916 2.22082,-2.66247 0.44166,-3.10832 0,-17.3207 -3.9958,0 0,17.3207 -0.44166,2.21665 -1.77499,1.77916 -2.22081,0.44166 -2.22083,-0.44166 -1.77498,-1.77916 -0.44166,-2.21665 0,-17.3207 -3.99581,0 0,17.3207 0.44584,3.10832 1.77498,2.66247 3.10414,1.77916 3.10832,0.88749 z m 35.50806,-20.42902 -0.8875,7.54994 0.8875,7.10412 1.77499,3.10831 2.66248,1.77916 3.55414,0.88749 3.10414,-0.88749 3.10831,-1.77916 1.33332,-3.10831 1.32916,-7.10412 -1.32916,-7.54994 -1.33332,-3.10831 -3.10831,-1.77498 -3.10414,-0.88749 -3.55414,0.88749 -2.66248,1.77498 -1.77499,3.10831 z m 21.30401,13.76657 1.33332,2.66248 1.77498,2.22082 2.66249,1.33332 2.66248,0.44583 3.55414,-0.44583 2.66248,-1.77499 1.77498,-2.66664 0.44166,-2.66248 -0.44166,-3.55414 -2.22081,-2.66249 -3.54997,-1.33332 -3.54998,-0.88749 -1.33332,-0.8875 -0.8875,-1.77498 0.44583,-1.77916 1.32916,-1.32915 1.77499,-0.44583 2.22082,0.44583 1.77498,2.22082 3.54997,-0.89167 -0.88749,-2.66247 -2.21665,-1.77499 -2.22081,-0.89166 -2.66248,-0.44166 -2.66249,0.88749 -2.22082,1.77498 -1.33332,2.22082 -0.88749,2.66665 0.88749,3.10831 1.77916,2.22081 2.66247,1.32916 3.99164,0.44583 1.77916,1.32916 0.88749,2.66665 -0.88749,2.66248 -1.33332,0.44583 -2.22082,0.44166 -2.21666,-0.44166 -1.77498,-1.33333 -0.88749,-2.22081 -3.55414,1.33332 z m -19.97069,-59.50374 -0.88749,7.10412 0.88749,7.10828 1.77499,3.1083 2.66248,1.77499 3.54997,0.88749 3.54997,-0.44166 2.66665,-2.22082 1.77499,-3.1083 0.8875,-7.10828 -0.8875,-7.10412 -1.77499,-3.10831 -2.66665,-2.22082 -3.54997,-0.88749 -3.54997,0.88749 -2.66248,2.22082 -1.77499,3.10831 z m -31.51643,8.43744 3.55414,-0.88749 2.66248,-2.66249 0.88749,-3.55414 -0.88749,-3.54997 -2.66248,-2.66665 -3.55414,-0.88749 -9.76242,0 0,25.31231 3.9958,0 0,-11.10408 5.76662,0 z m -34.62057,-9.32494 -3.54997,1.33333 -1.77499,-1.77499 -2.21665,-0.88749 -2.22082,0.88749 -1.77499,1.77499 -1.33332,4.44163 0,4.43747 1.33332,3.9958 1.77499,2.22082 2.22082,0.44583 2.66248,-0.88749 1.32916,-1.77916 3.54997,1.33333 -1.32916,2.66664 -2.66247,1.77499 -3.10831,0.88749 -3.54998,-0.44166 -2.66248,-1.77915 -1.77499,-2.66248 -1.33332,-5.32913 0,-5.32913 1.33332,-5.77079 1.77499,-2.22081 2.66248,-1.77916 3.10831,-0.88749 3.10414,0.88749 2.66248,1.77916 1.77499,2.66247 z m 70.12864,13.76657 1.33333,2.22082 2.66247,0.88749 2.66248,-0.88749 1.33332,-2.22082 0.8875,-5.77495 -0.8875,-6.21246 -1.33332,-2.22082 -2.66248,-0.88749 -2.66247,0.88749 -1.33333,2.22082 -0.88749,6.21246 0.88749,5.77495 z m -19.08319,-14.65406 -5.77079,0 0,-3.9958 15.53322,0 0,3.9958 -5.76663,0 0,21.31651 -3.9958,0 0,-21.31651 z m -46.16215,-3.9958 14.64989,0 0,3.9958 -10.65409,0 0,6.21662 7.09995,0 0,3.99581 -7.09995,0 0,7.10411 11.09575,0 0,3.99997 -15.09155,0 0,-25.31231 z m 29.73727,10.21242 2.22082,-0.88749 0.88749,-2.22082 -0.88749,-2.22082 -2.22082,-0.88749 -5.76662,0 0,6.21662 5.76662,0 z m -91.8743,-10.21242 14.64572,0 0,3.9958 -10.65409,0 0,6.21662 7.54578,0 0,3.99581 -7.54578,0 0,7.10411 11.54158,0 0,3.99997 -15.53321,0 0,-25.31231 z m 25.29981,12.43324 -6.21663,-12.43324 4.44163,0 3.99164,7.9916 3.54997,-7.9916 4.44164,0 -5.77079,12.43324 6.21246,12.87907 -4.43748,0 -3.9958,-8.4416 -4.43747,8.4416 -3.9958,0 6.21663,-12.87907 z m 100.75341,52.39546 1.32915,2.22082 2.66665,0.88749 2.21665,-0.88749 1.77498,-2.22082 0.88749,-5.7708 -0.88749,-6.21661 -1.77498,-2.22082 -2.21665,-0.88749 -2.66665,0.88749 -1.32915,2.22082 -0.8875,6.21661 0.8875,5.7708 z m -24.85815,-18.64986 3.9958,0 0,21.31651 11.09575,0 0,3.9958 -15.09155,0 0,-25.31231 z m -27.96229,39.96637 -0.8875,-1.77916 -1.32916,-1.77499 -2.22081,-0.44582 -1.77499,0.44582 -1.77498,1.77499 -0.44583,1.77916 0.44583,2.22082 1.77498,1.32915 1.77499,0.88749 2.22081,-0.88749 1.32916,-1.32915 0.8875,-2.22082 z m -26.62897,-39.96637 3.99581,0 0,25.31231 -3.99581,0 0,-25.31231 z m 3.54998,-1.32917 -3.10831,0 2.66664,-5.32912 5.32496,0 -4.88329,5.32912 z m -46.60382,1.32917 14.64572,0 0,3.99997 -10.64992,0 0,6.21662 7.54578,0 0,3.9958 -7.54578,0 0,7.10412 11.53741,0 0,3.9958 -15.53321,0 0,-25.31231 z m -23.52483,0 3.9958,0 5.32497,17.3207 5.32495,-17.3207 4.44163,0 -7.9916,25.31231 -3.10414,0 -7.99161,-25.31231 z m 43.49967,0 3.99164,0 0,10.21659 8.8791,0 0,-10.21659 3.99164,0 0,25.31231 -3.99164,0 0,-11.09992 -8.8791,0 0,11.09992 -3.99164,0 0,-25.31231"
     style="fill:#000000;fill-opacity:1;fill-rule:evenodd;stroke:none"
     id="path5050" /><path
     id="path5963"
     style="fill:#000000;fill-opacity:1;fill-rule:nonzero;stroke:none"
     d="m 148.72596,138.64367 36.92473,0 0,28.86228 -49.71212,0 0,34.19558 53.72459,0 14.18322,12.4499 0,16.40822 -96.7576,0 0,-147.865564 96.7576,0 0,28.862284 -67.90781,0 0,14.32489 12.78739,12.76241 z"
     inkscape:connector-curvature="0" /><path
     inkscape:connector-curvature="0"
     d="m 229.14619,211.46814 7.09995,-10.65826 5.32913,-11.09991 3.99164,-11.98741 2.66665,-12.43324 0.88749,-12.43741 -0.88749,-12.42907 -2.66665,-12.43324 -3.99164,-11.99158 -5.32913,-11.09992 -7.09995,-10.658251 -8.43326,-9.32493 -9.32076,-8.437437 -10.65409,-6.66245 -11.09576,-5.77079 -11.98324,-3.995803 -12.42907,-2.662481 -12.42491,-0.44583 -12.42907,0.44583 -12.42908,2.662481 -11.98324,3.995803 -11.09575,5.77079 -10.65408,6.66245 134.93231,134.990658 z M 76.45984,94.685679 69.3599,104.8981 l -5.32496,11.54575 -3.99581,11.54575 -2.66247,12.43324 -0.88751,12.42907 0.88751,12.87907 2.66247,11.99158 3.99581,11.98741 5.32496,11.54574 7.09994,10.21243 8.43327,9.32493 9.32077,8.43743 10.65408,7.10412 11.09575,5.32913 11.98324,4.44163 12.42908,2.22082 12.42907,0.88749 12.42491,-0.88749 12.42907,-2.22082 11.98324,-3.99997 11.09576,-5.77079 10.65409,-7.02912 L 76.45984,94.685679 z m 202.84014,58.166231 -0.88749,-14.20823 -2.21664,-13.76656 -3.99581,-13.7624 -5.32496,-12.879068 -7.10411,-12.429073 -7.98744,-11.549914 -9.7666,-10.654086 -10.20825,-9.77076 -11.53742,-7.991608 -12.42907,-7.104112 -13.31656,-5.329127 -13.75824,-3.99997 -13.7624,-2.21665 -14.19989,-0.887494 -14.20406,0.887494 -13.75823,2.21665 -13.76239,3.99997 -13.3124,5.329127 -12.42908,7.104112 -11.54158,7.991608 -10.64992,9.77076 -9.32076,10.654086 -7.99161,11.549914 -7.09994,12.429073 -5.32913,12.879068 -3.99164,13.7624 -2.220814,13.76656 -0.887493,14.20823 0.887493,14.21239 2.220814,14.20823 3.99164,13.32073 5.32913,13.3249 7.09994,12.42908 7.99161,11.54991 9.32076,10.65409 10.64992,9.32493 11.54158,8.43744 12.42908,6.66245 13.3124,5.32912 13.76239,3.9958 13.75823,2.66249 14.20406,0.44166 14.19989,-0.44166 13.7624,-2.66249 13.75824,-3.9958 13.31656,-5.32912 12.42907,-6.66245 11.53742,-8.43744 10.20825,-9.32493 9.7666,-10.65409 7.98744,-11.54991 7.10411,-12.42908 5.32496,-13.3249 3.99581,-13.32073 2.21664,-14.20823 0.88749,-14.21239"
     style="fill:#ef2c30;fill-opacity:1;fill-rule:evenodd;stroke:none"
     id="path5044" /></svg>