<?xml version="1.0" encoding="UTF-8" standalone="no"?>
<!-- Created with Inkscape (http://www.inkscape.org/) -->

<svg
   xmlns:dc="http://purl.org/dc/elements/1.1/"
   xmlns:cc="http://creativecommons.org/ns#"
   xmlns:rdf="http://www.w3.org/1999/02/22-rdf-syntax-ns#"
   xmlns:svg="http://www.w3.org/2000/svg"
   xmlns="http://www.w3.org/2000/svg"
   xmlns:sodipodi="http://sodipodi.sourceforge.net/DTD/sodipodi-0.dtd"
   xmlns:inkscape="http://www.inkscape.org/namespaces/inkscape"
   version="1.1"
   width="92.735001"
   height="92.853752"
   id="svg2"
   xml:space="preserve"
   inkscape:version="0.48.2 r9819"
   sodipodi:docname="Chile RPO-8.svg"><sodipodi:namedview
     pagecolor="#ffffff"
     bordercolor="#666666"
     borderopacity="1"
     objecttolerance="10"
     gridtolerance="10"
     guidetolerance="10"
     inkscape:pageopacity="0"
     inkscape:pageshadow="2"
     inkscape:window-width="1280"
     inkscape:window-height="1004"
     id="namedview19"
     showgrid="false"
     inkscape:zoom="4.0569855"
     inkscape:cx="34.867619"
     inkscape:cy="45.84018"
     inkscape:window-x="-8"
     inkscape:window-y="-8"
     inkscape:window-maximized="1"
     inkscape:current-layer="svg2"
     fit-margin-top="0.05"
     fit-margin-left="0.05"
     fit-margin-right="0.05"
     fit-margin-bottom="0.05" /><defs
     id="defs20" /><metadata
     id="metadata8"><rdf:RDF><cc:Work
         rdf:about=""><dc:format>image/svg+xml</dc:format><dc:type
           rdf:resource="http://purl.org/dc/dcmitype/StillImage" /><dc:title></dc:title></cc:Work></rdf:RDF></metadata><path
     d="m 46.38811,2.859 c 24.0045,0 43.47275,19.475832 43.47275,43.489683 0,24.035044 -19.46825,43.510877 -43.47275,43.532071 C 22.36244,89.85956 2.894185,70.383727 2.873,46.348683 2.894185,22.334832 22.36244,2.859 46.38811,2.859"
     inkscape:connector-curvature="0"
     id="path18"
     style="fill:#ffffff;fill-opacity:1" /><path
     d="m 53.0575,48.6125 5.085,-6.05 2.175,3.01875 -1.57125,1.57 -1.3275,1.81125 -1.195,2.81625 1.105,0.98125 1.2975,-2.59 1.2075,-1.69 1.44875,-1.45 0.48375,0.60375 -1.44875,1.45 -1.0875,1.81125 -1.0425,2.6025 3.78,3.41125 -0.20125,-2.14875 0.3625,-1.57 0.725,-1.45 0.96625,-1.20625 1.57,2.0525 -0.725,0.96625 -0.24125,1.2075 0.12,1.2075 0.60375,1.0875 0.96625,0.72375 1.2075,0.3625 1.20875,-0.12 1.08625,-0.605 0.725,-0.965 0.4825,-1.0875 -0.12,-1.2075 L 70.22,53.06875 69.25375,52.22375 68.1675,51.74 66.96,51.86125 65.26875,49.6875 l 1.57,-0.48375 1.57,0 1.44875,0.48375 1.32875,0.725 1.0875,1.2075 0.725,1.32875 0.36125,1.57 -0.12,1.57 -0.48375,1.44875 -0.845,1.32875 -1.2075,0.96625 -1.45,0.60375 -1.57,0.2425 -2.05875,-0.3575 3.4125,4.02625 2.6325,-1.0125 1.81125,-1.0875 1.45,-1.56875 1.08625,-1.8125 0.725,-1.9325 0.12,-2.17375 -0.24125,-2.05375 -0.725,-2.0525 -1.2075,-1.69125 -1.44875,-1.44875 -1.9325,-1.0875 -1.9325,-0.60375 -2.17375,-0.24125 -2.05375,0.3625 -1.9325,0.845 -0.4825,-0.725 2.0525,-0.96625 2.295,-0.3625 2.41625,0 2.17375,0.605 -0.96625,-1.32875 -2.295,-0.60375 -2.295,-0.12125 -2.29375,0.4825 -2.175,0.84625 -2.17375,-3.02 -0.12,-0.4825 0.12,-0.24125 0.12125,-0.12125 0.96625,0 0,0.12125 0.3625,0.24125 0.4825,0 0.24125,-0.24125 0.12125,-0.3625 0,-3.865 -0.12125,-0.24125 -0.24125,-0.24125 -0.4825,0.12 -0.96625,0.12125 -0.725,0.12125 -0.3625,-0.2425 0,-0.845 0.24125,-0.12125 0.12125,-0.60375 0,-0.3625 -0.24125,-0.4825 -0.725,0 -0.845,0.96625 -0.725,0 -3.14,-4.95125 -0.48375,-0.48375 -2.17375,0 -0.3625,-0.24125 -0.96625,0.12 -0.24125,0 -0.4825,0.12125 -0.2425,0.12 -0.12,0.2425 0,0.3625 0.24125,0.3625 0.12125,0.60375 0.3625,0.3625 0.24125,0.12 0.4825,0.12 0.84625,0 0.24125,-0.24 0.24125,-0.2425 0.3625,-0.12 0.4825,-0.24125 0.725,0 0.24125,0.36125 0.12125,0.60375 0.24125,0.48375 0.3625,0.36125 0.24125,0.725 0.48375,0.725 0,0.96625 -0.24125,0 L 51.38,35.195 48.36,35.55625 45.70375,36.04 43.2875,36.76375 42.32875,37.76125 53.0575,48.6125 z"
     style="fill:#000000;fill-opacity:1;fill-rule:nonzero;stroke:#231f20;stroke-width:0.12125;stroke-linecap:round;stroke-linejoin:round;stroke-miterlimit:10;stroke-opacity:1;stroke-dasharray:none"
     id="path6645"
     inkscape:connector-curvature="0" /><path
     d="m 29.64,56.8125 2.05375,-0.60375 -0.3625,1.45 -0.725,1.32875 -0.96625,1.08625 -1.32875,0.84625 -1.44875,0.4825 -1.57,0 -1.45,-0.3625 -1.3275,-0.725 -1.0875,-0.96625 -0.725,-1.3275 -0.4825,-1.44875 0,-1.57125 0.3625,-1.44875 0.725,-1.32875 0.965,-1.0875 1.32875,-0.72375 1.45,-0.48375 -0.2425,1.2075 -0.72375,0.96625 -0.96625,0.725 -0.60375,0.96625 -0.48375,1.0875 0,1.2075 0.3625,1.2075 0.60375,0.96625 0.96625,0.725 1.0875,0.4825 1.08625,0.12125 1.2075,-0.2425 1.0875,-0.60375 0.725,-0.845 0.4825,-1.0875 z m -0.845,-3.86375 -0.12125,0 0.3625,-2.175 1.0875,0.96625 0.845,1.0875 -1.0875,0.24125 -1.08625,-0.12 z m 19.5,1.38375 -0.90125,1.03125 -0.4825,0.48375 -0.725,0.4825 -1.08625,0.12125 -0.96625,0.24125 -8.9375,-0.12 -0.48375,2.0525 -0.845,1.9325 -1.32875,1.69 -1.69125,1.32875 -1.93125,0.96625 -2.175,0.3625 -2.0525,0 L 22.515,64.30125 20.7025,63.335 19.0125,62.00625 17.805,60.195 16.95875,58.2625 16.59625,56.08875 16.7175,54.035 l 0.725,-2.0525 0.96625,-1.9325 1.57,-1.44875 1.69,-1.20875 2.05375,-0.725 0,-0.4825 -0.845,-0.24125 -0.84625,-0.3625 -0.3625,0 -0.12,-0.725 -0.60375,0.24125 -0.48375,0.2425 -1.08625,0.4825 -1.32875,1.81125 -1.45,1.8125 -1.69,0 0.24125,-1.0875 0.725,-0.96625 0.36125,-0.96625 L 16.95875,45.34 17.805,44.615 19.73625,43.16625 19.1325,42.92375 17.925,42.2 17.32125,41.595 17.4425,40.50875 17.805,39.905 l 0.24125,-0.60375 2.295,0 0.36125,-0.48375 2.53625,0 0,-0.24125 7.85125,0 0,0.3625 1.225,0 15.98,15.39375"
     style="fill:#000000;fill-opacity:1;fill-rule:evenodd;stroke:none"
     id="path6647"
     inkscape:connector-curvature="0" /><path
     inkscape:connector-curvature="0"
     id="path6798"
     style="fill:#ef2c30;fill-opacity:1;fill-rule:evenodd;stroke:none"
     d="M 74.32625,68.64875 76.50125,65.3875 78.3125,62.00625 79.76125,58.3825 80.7275,54.64 81.33125,50.77375 81.57375,46.91 81.33125,42.92375 80.6075,39.18 79.52,35.43625 77.95,31.8125 l -1.81125,-3.38125 -2.295,-3.14 -2.6575,-3.02 -2.89875,-2.53625 -3.14,-2.29375 -3.38125,-1.9325 -3.62375,-1.45 -3.74375,-1.0875 L 50.655,12.2475 46.67,12.005 l -3.865,0.12125 -3.865,0.605 -3.74375,1.08625 -3.62375,1.44875 -3.38125,1.8125 L 24.93,19.2525 74.32625,68.64875 z M 18.40875,25.775 l -2.175,3.26 -1.81125,3.5025 -1.44875,3.62375 -1.0875,3.74375 -0.60375,3.86375 -0.12125,3.865 0.2425,3.86625 0.72375,3.86375 1.0875,3.74375 1.44875,3.5025 1.9325,3.5025 2.295,3.14125 2.53625,2.8975 2.89875,2.53625 3.14,2.295 3.5025,1.9325 3.5025,1.44875 3.74375,1.20875 3.865,0.6025 3.865,0.2425 3.865,-0.12 3.86375,-0.605 3.745,-1.08625 3.6225,-1.32875 3.5025,-1.9325 3.14,-2.19375 L 18.40875,25.775 z M 92.685,46.42625 92.4425,41.8375 91.71875,37.36875 90.63125,33.02125 89.1825,28.6725 87.25,24.56625 l -2.41625,-3.865 -2.65625,-3.6225 -3.14,-3.3825 -3.26125,-3.14 L 72.0325,7.89875 68.1675,5.605 64.06125,3.55125 59.83375,2.1025 55.365,1.01625 50.89625,0.29125 46.3075,0.05 l -4.46875,0.24125 -4.59,0.725 -4.3475,1.08625 -4.2275,1.44875 -4.22625,2.05375 -3.865,2.29375 -3.62375,2.6575 -3.38125,3.14 -3.02,3.3825 -2.7775,3.6225 -2.295,3.865 -1.9325,4.10625 -1.57,4.34875 -1.08625,4.3475 -0.60375,4.46875 -0.2425,4.58875 0.2425,4.59 0.60375,4.46875 1.08625,4.3475 1.57,4.3475 1.9325,4.10625 2.295,3.865 2.7775,3.74375 3.02,3.26125 3.38125,3.14125 3.62375,2.65625 3.865,2.415 4.22625,1.9325 4.2275,1.45 4.3475,1.2075 4.59,0.60375 4.46875,0.24125 4.58875,-0.24125 4.46875,-0.60375 4.46875,-1.2075 4.2275,-1.45 4.10625,-1.9325 3.865,-2.415 3.74375,-2.65625 3.26125,-3.14125 3.14,-3.26125 2.65625,-3.74375 2.41625,-3.865 1.9325,-4.10625 1.44875,-4.3475 1.0875,-4.3475 0.72375,-4.46875 0.2425,-4.59" /></svg>