<?xml version="1.0" encoding="UTF-8" standalone="no"?>
<!-- Created with Inkscape (http://www.inkscape.org/) -->

<svg
   xmlns:dc="http://purl.org/dc/elements/1.1/"
   xmlns:cc="http://creativecommons.org/ns#"
   xmlns:rdf="http://www.w3.org/1999/02/22-rdf-syntax-ns#"
   xmlns:svg="http://www.w3.org/2000/svg"
   xmlns="http://www.w3.org/2000/svg"
   xmlns:sodipodi="http://sodipodi.sourceforge.net/DTD/sodipodi-0.dtd"
   xmlns:inkscape="http://www.inkscape.org/namespaces/inkscape"
   version="1.1"
   width="92.331253"
   height="92.331253"
   id="svg2"
   xml:space="preserve"
   inkscape:version="0.48.2 r9819"
   sodipodi:docname="AJAX1.svg"><sodipodi:namedview
     pagecolor="#ffffff"
     bordercolor="#666666"
     borderopacity="1"
     objecttolerance="10"
     gridtolerance="10"
     guidetolerance="10"
     inkscape:pageopacity="0"
     inkscape:pageshadow="2"
     inkscape:window-width="1280"
     inkscape:window-height="1004"
     id="namedview19"
     showgrid="false"
     inkscape:zoom="4.0569855"
     inkscape:cx="64.774953"
     inkscape:cy="34.388621"
     inkscape:window-x="-8"
     inkscape:window-y="-8"
     inkscape:window-maximized="1"
     inkscape:current-layer="svg2"
     fit-margin-top="0.1"
     fit-margin-left="0.1"
     fit-margin-right="0.1"
     fit-margin-bottom="0.1" /><defs
     id="defs20" /><metadata
     id="metadata8"><rdf:RDF><cc:Work
         rdf:about=""><dc:format>image/svg+xml</dc:format><dc:type
           rdf:resource="http://purl.org/dc/dcmitype/StillImage" /><dc:title /></cc:Work></rdf:RDF></metadata><path
     d="m 46.18759,0.41797277 c 25.22884,0 45.69006,20.46919223 45.69006,45.70786323 0,25.260944 -20.46122,45.730137 -45.69006,45.752412 C 20.93649,91.855973 0.475266,71.38678 0.453,46.125836 0.475266,20.887165 20.93649,0.41797277 46.18759,0.41797277"
     inkscape:connector-curvature="0"
     id="path18"
     style="fill:#ffffff;fill-opacity:1" /><path
     d="M 39.075,33.2675 41.37,33.26 42.155,36.20125 39.075,33.2675"
     style="fill:#000000;fill-opacity:1;fill-rule:nonzero;stroke:none"
     id="path6619"
     inkscape:connector-curvature="0" /><path
     d="m 44.59375,50.34 -1.38625,1.38625 0,3.67375 -3.67375,0 0,-3.67375 -18.41625,0 0,3.67375 -3.6725,0 0,-3.67375 -1.83625,-1.8875 0,-7.34625 1.83625,-1.83625 1.83625,-7.39625 8.20125,0 1.91375,1.83625 -8.68625,0 -1.42875,5.56 16.0725,0 9.24,9.68375"
     style="fill:#000000;fill-opacity:1;fill-rule:nonzero;stroke:none"
     id="path6621"
     inkscape:connector-curvature="0" /><path
     d="m 50.96125,40.65625 22.08875,0 -1.42875,-5.56 -19.23125,0 -1.42875,5.56 z m 6.605,11.07 13.6475,0 0,3.67375 3.72375,0 0,-3.67375 1.83625,-1.8875 0,-7.34625 L 74.9375,40.65625 73.05,33.26 l -22.08875,0 -1.83625,7.39625 -1.28875,1.2875 9.73,9.7825"
     style="fill:#000000;fill-opacity:1;fill-rule:evenodd;stroke:none"
     id="path6623"
     inkscape:connector-curvature="0" /><path
     d="m 73.96875,67.43875 1.53,-2.1425 L 76.87625,63 78.05,60.65375 79.07,58.205 l 0.81625,-2.55 0.61125,-2.55125 0.40875,-2.60125 0.255,-2.65375 0,-2.6525 -0.1525,-2.6525 L 80.6,39.9425 80.03875,37.34125 79.27375,34.79 78.305,32.34125 l -1.1225,-2.3975 -1.32625,-2.29625 -1.48,-2.1925 -1.6325,-2.0925 -1.83625,-1.93875 -1.93875,-1.785 -2.04,-1.68375 L 64.735,16.47625 62.43875,15.15 l -2.3975,-1.1225 -2.5,-0.97 L 55.0425,12.2925 52.44,11.73125 49.7875,11.375 47.18625,11.17 44.53375,11.22125 41.88,11.425 l -2.60125,0.46 -2.60125,0.6125 -2.5,0.81625 -2.44875,0.96875 -2.3975,1.22375 -2.245,1.32625 -2.19375,1.53125 49.07625,49.075 z m 18.2625,-21.2725 -0.1025,-3.01 -0.305,-3.01 -0.46,-2.95875 L 90.65,34.22875 89.7825,31.3725 88.71125,28.56625 87.4875,25.81125 86.05875,23.15875 84.4775,20.6075 82.69125,18.15875 80.80375,15.8125 78.76375,13.61875 76.51875,11.5275 74.22375,9.64 71.775,7.85375 69.22375,6.27375 66.57125,4.845 63.81625,3.62 60.96,2.54875 58.1025,1.68125 55.14375,1.01875 52.185,0.50875 49.175,0.2025 46.16625,0.1 l -3.01,0.1025 -3.01,0.30625 -2.95875,0.51 -2.9075,0.6625 -2.90875,0.8675 -2.805,1.07125 -2.755,1.225 -2.6525,1.42875 -2.55125,1.58 L 18.15875,9.64 15.8125,11.5275 13.61875,13.61875 11.5275,15.8125 9.64,18.15875 7.905,20.6075 l -1.6325,2.55125 -1.3775,2.6525 -1.275,2.755 -1.07125,2.80625 -0.8675,2.85625 -0.6625,2.95875 -0.51,2.95875 -0.30625,3.01 -0.1025,3.01 0.1025,3.01 0.30625,3.00875 0.51,2.96 0.6625,2.95875 0.8675,2.85625 1.07125,2.85625 1.275,2.755 1.3775,2.6525 1.6325,2.55125 1.735,2.44875 1.8875,2.295 2.09125,2.245 2.19375,2.04125 2.34625,1.88625 2.44875,1.78625 2.55125,1.58125 2.6525,1.42875 2.755,1.22375 2.805,1.07125 2.90875,0.8675 2.9075,0.71375 2.95875,0.46 3.01,0.30625 3.01,0.10125 3.00875,-0.10125 3.01,-0.30625 2.95875,-0.46 2.95875,-0.71375 2.8575,-0.8675 2.85625,-1.07125 2.755,-1.22375 2.6525,-1.42875 2.55125,-1.58125 2.44875,-1.78625 2.295,-1.88625 2.245,-2.04125 2.04,-2.245 1.8875,-2.295 1.78625,-2.44875 1.58125,-2.55125 1.42875,-2.6525 1.22375,-2.755 L 89.7825,60.96 90.65,58.10375 91.36375,55.145 l 0.46,-2.96 0.305,-3.00875 0.1025,-3.01 z M 67.4425,73.96875 18.36375,24.8925 16.8325,27.035 l -1.32625,2.29625 -1.22375,2.34625 -0.97,2.5 -0.81625,2.5 -0.61125,2.55 -0.46,2.6525 -0.20375,2.65375 -0.05125,2.60125 0.20375,2.6525 0.3575,2.65375 0.56125,2.55 0.765,2.55125 0.97,2.49875 1.12125,2.39875 1.3275,2.295 1.47875,2.19375 1.68375,2.04 1.785,1.93875 1.93875,1.83625 2.09125,1.6325 2.19375,1.48 2.29625,1.32625 2.3975,1.1225 2.44875,0.96875 2.55,0.765 2.6025,0.56125 2.60125,0.40875 2.6525,0.1525 2.6525,0 2.65375,-0.255 2.60125,-0.4075 2.55,-0.6125 L 58.205,79.07 60.65375,78.05375 63,76.87625 l 2.29625,-1.3775 2.1425,-1.53 0.0037,0"
     style="fill:#ef2c30;fill-opacity:1;fill-rule:evenodd;stroke:none"
     id="path6625"
     inkscape:connector-curvature="0" /></svg>