<?xml version="1.0" encoding="UTF-8" standalone="no"?>
<!-- Created with Inkscape (http://www.inkscape.org/) -->

<svg
   xmlns:dc="http://purl.org/dc/elements/1.1/"
   xmlns:cc="http://creativecommons.org/ns#"
   xmlns:rdf="http://www.w3.org/1999/02/22-rdf-syntax-ns#"
   xmlns:svg="http://www.w3.org/2000/svg"
   xmlns="http://www.w3.org/2000/svg"
   xmlns:sodipodi="http://sodipodi.sourceforge.net/DTD/sodipodi-0.dtd"
   xmlns:inkscape="http://www.inkscape.org/namespaces/inkscape"
   version="1.1"
   width="91.298752"
   height="91.342499"
   id="svg2"
   xml:space="preserve"
   inkscape:version="0.48.2 r9819"
   sodipodi:docname="AJAX1.svg"><sodipodi:namedview
     pagecolor="#ffffff"
     bordercolor="#666666"
     borderopacity="1"
     objecttolerance="10"
     gridtolerance="10"
     guidetolerance="10"
     inkscape:pageopacity="0"
     inkscape:pageshadow="2"
     inkscape:window-width="1280"
     inkscape:window-height="1004"
     id="namedview19"
     showgrid="false"
     inkscape:zoom="4.0569855"
     inkscape:cx="73.219815"
     inkscape:cy="45.740167"
     inkscape:window-x="-8"
     inkscape:window-y="-8"
     inkscape:window-maximized="1"
     inkscape:current-layer="svg2"
     fit-margin-top="0.05"
     fit-margin-left="0.05"
     fit-margin-right="0.05"
     fit-margin-bottom="0.05" /><defs
     id="defs20" /><metadata
     id="metadata8"><rdf:RDF><cc:Work
         rdf:about=""><dc:format>image/svg+xml</dc:format><dc:type
           rdf:resource="http://purl.org/dc/dcmitype/StillImage" /><dc:title></dc:title></cc:Work></rdf:RDF></metadata><path
     d="m 45.67011,2.1657458 c 24.0045,0 43.47275,19.4758322 43.47275,43.4896832 0,24.035044 -19.46825,43.510877 -43.47275,43.532071 C 21.64444,89.166306 2.176185,69.690473 2.155,45.655429 2.176185,21.641578 21.64444,2.1657458 45.67011,2.1657458"
     inkscape:connector-curvature="0"
     id="path18"
     style="fill:#ffffff;fill-opacity:1" /><path
     d="m 63.735,45.67125 -2.16375,-6.65 -7.11125,0 0,6.65 9.275,0 z m -14.99375,9.43375 -14.375,0 -0.155,-1.54625 -0.7725,-1.5475 -1.0825,-1.08125 -1.545,-0.77375 -1.54625,-0.31 -1.7,0.31 -1.39125,0.77375 -1.2375,1.08125 -0.6175,1.5475 -0.30875,1.54625 -4.17375,0 0,-22.73375 34.62375,0 0,5.2575 8.03875,0 2.6275,8.0425 8.0375,0 0,7.26875 2.6275,0 0,2.165 -4.3275,0 -0.155,-1.54625 -0.7725,-1.3925 -1.0825,-1.0825 -1.39125,-0.7725 -1.545,-0.31 -1.54625,0.155 -1.39125,0.61875 -1.23625,0.9275 -0.7725,1.39125 -0.46375,1.5475 -12.36625,0.46375 z m 16.885,4.56125 L 67.75375,59.28 69.3,58.3525 70.38125,56.96 70.69,55.26 l -0.30875,-1.70125 -0.9275,-1.5475 -1.545,-0.9275 -1.70125,-0.30875 -1.7,0.30875 -1.39125,1.0825 -0.9275,1.54625 -0.45,2.16375 3.8875,3.79 z M 33.5925,55.105 l -0.30875,-1.70125 -0.9275,-1.3925 -1.39125,-0.9275 -1.7,-0.30875 -1.7,0.30875 -1.39125,0.9275 -1.0825,1.3925 -0.30875,1.70125 0.30875,1.70125 1.0825,1.39125 1.39125,0.9275 1.7,0.465 1.7,-0.465 1.39125,-0.9275 0.9275,-1.39125 0.30875,-1.70125"
     style="fill:#000000;fill-opacity:1;fill-rule:evenodd;stroke:none"
     id="path3054"
     inkscape:connector-curvature="0" /><path
     inkscape:connector-curvature="0"
     id="path4974"
     style="fill:#ef2c30;fill-opacity:1;fill-rule:evenodd;stroke:none"
     d="m 66.82625,73.19875 -48.69,-48.56 -2.47375,3.7125 -2.01,4.02 -1.39125,4.33 -0.92625,4.485 -0.31,4.485 0.31,4.485 0.92625,4.485 1.39125,4.33 2.01,4.02 2.47375,3.86625 3.09125,3.40375 3.4,2.9375 3.71,2.47375 4.01875,2.01125 4.32875,1.54625 4.4825,0.7725 4.4825,0.31 4.4825,-0.31 4.4825,-0.7725 4.3275,-1.54625 4.02,-2.01125 3.86375,-2.47375 z m 6.3375,-6.495 L 24.6275,18.145 l 3.71,-2.475 4.17375,-2.01125 4.3275,-1.54625 4.32875,-0.7725 4.63625,-0.31 4.48375,0.31 4.3275,0.7725 4.3275,1.54625 4.17375,2.01125 3.71,2.475 3.4,2.9375 2.9375,3.4025 2.6275,3.86625 2.01,4.02 1.39125,4.33 0.9275,4.485 0.30875,4.485 -0.30875,4.485 -0.9275,4.485 -1.39125,4.33 -2.01,4.02 -2.6275,3.7125 z m 18.085,-21.0325 -0.155,-5.1025 -0.9275,-5.10375 -1.39,-4.795 -2.01,-4.79375 -2.47375,-4.485 -2.93625,-4.175 L 77.955,13.35 74.09125,9.9475004 69.9175,7.0087504 65.435,4.535 60.7975,2.525 55.85125,1.1325 50.75,0.36 45.65,0.05 40.54875,0.36 35.6025,1.1325 30.65625,2.525 l -4.7925,2.01 -4.4825,2.4737504 -4.1725,2.93875 -3.71,3.4024996 -3.40125,3.86625 -2.93625,4.175 -2.47375,4.485 L 2.67875,30.67 1.2875,35.465 0.36,40.56875 l -0.31,5.1025 0.31,5.10375 0.9275,5.10375 1.39125,4.9475 2.00875,4.64 2.47375,4.485 2.93625,4.175 3.40125,3.86625 3.71,3.4025 4.1725,2.9375 4.4825,2.475 4.7925,2.01 4.94625,1.3925 4.94625,0.7725 5.10125,0.31 5.1,-0.31 5.10125,-0.7725 4.94625,-1.3925 4.6375,-2.01 4.4825,-2.475 4.17375,-2.9375 3.86375,-3.4025 3.40125,-3.86625 2.93625,-4.175 2.47375,-4.485 2.01,-4.64 1.39,-4.9475 0.9275,-5.10375 0.155,-5.10375" /></svg>