<?xml version="1.0" encoding="UTF-8" standalone="no"?>
<!-- Created with Inkscape (http://www.inkscape.org/) -->

<svg
   xmlns:dc="http://purl.org/dc/elements/1.1/"
   xmlns:cc="http://creativecommons.org/ns#"
   xmlns:rdf="http://www.w3.org/1999/02/22-rdf-syntax-ns#"
   xmlns:svg="http://www.w3.org/2000/svg"
   xmlns="http://www.w3.org/2000/svg"
   xmlns:sodipodi="http://sodipodi.sourceforge.net/DTD/sodipodi-0.dtd"
   xmlns:inkscape="http://www.inkscape.org/namespaces/inkscape"
   version="1.1"
   width="94.441254"
   height="94.441254"
   id="svg2"
   xml:space="preserve"
   inkscape:version="0.48.2 r9819"
   sodipodi:docname="Chile RPO-9.svg"><sodipodi:namedview
     pagecolor="#ffffff"
     bordercolor="#666666"
     borderopacity="1"
     objecttolerance="10"
     gridtolerance="10"
     guidetolerance="10"
     inkscape:pageopacity="0"
     inkscape:pageshadow="2"
     inkscape:window-width="1280"
     inkscape:window-height="1004"
     id="namedview19"
     showgrid="false"
     inkscape:zoom="4.0569855"
     inkscape:cx="34.917619"
     inkscape:cy="45.890181"
     inkscape:window-x="-8"
     inkscape:window-y="-8"
     inkscape:window-maximized="1"
     inkscape:current-layer="svg2"
     fit-margin-top="0.05"
     fit-margin-left="0.05"
     fit-margin-right="0.05"
     fit-margin-bottom="0.05" /><defs
     id="defs20" /><metadata
     id="metadata8"><rdf:RDF><cc:Work
         rdf:about=""><dc:format>image/svg+xml</dc:format><dc:type
           rdf:resource="http://purl.org/dc/dcmitype/StillImage" /><dc:title></dc:title></cc:Work></rdf:RDF></metadata><path
     d="m 47.24111,3.6934935 c 24.0045,0 43.47275,19.4758325 43.47275,43.4896835 0,24.035044 -19.46825,43.510877 -43.47275,43.532071 C 23.21544,90.694054 3.747185,71.218221 3.726,47.183177 3.747185,23.169326 23.21544,3.6934935 47.24111,3.6934935"
     inkscape:connector-curvature="0"
     id="path18"
     style="fill:#ffffff;fill-opacity:1" /><path
     d="m 68.68625,62.49125 0.435,-0.05375 1.4675,-0.49 1.35875,-0.65125 1.25,-0.81625 1.195,-0.9775 0.97875,-1.14125 0.86875,-1.25 0.7075,-1.35875 0.48875,-1.4675 0.27125,-1.4675 0.10875,-1.52125 L 77.7625,49.775 77.43625,48.3075 76.9475,46.84 76.295,45.48125 75.48,44.23125 74.4475,43.09 73.30625,42.0575 72.05625,41.2425 70.6975,40.59 69.23,40.10125 67.7625,39.775 66.24125,39.72125 64.72,39.83 63.2525,40.10125 61.785,40.59 l -1.35875,0.7075 -1.25,0.86875 -1.14125,0.97875 -0.9775,1.195 -0.81625,1.25 -0.65125,1.35875 -0.49,1.4625 -0.05375,0.44 13.64,13.64 z M 45.3725,51.2425 l -10.5425,0 -0.76125,-1.0875 -0.92375,-0.9775 -1.0325,-0.81625 9.61875,0 0.38125,0.005 3.26,2.87625 z m 19.45625,-17.28125 0,-3.53375 -5.76125,0 0,3.53375 0,-3.53375 0,6.35875 0,-4.565 0,4.565 -5.76,0 -1.73875,8.0975 -0.10875,0.5975 -0.2725,1.14125 -0.10875,0.5975 2.88,0 0.59875,-1.575 0.815,-1.41375 0.9775,-1.35875 1.14125,-1.195 1.305,-1.0325 1.4125,-0.87 1.4675,-0.70625 1.57625,-0.435 1.63,-0.32625 1.685,-0.05375 1.63,0.1625 1.63,0.32625 1.57625,0.54375 1.4675,0.76125 1.35875,0.92375 1.25,1.08625 1.0325,-1.0325 -1.35875,-1.195 -1.52125,-1.0325 -1.63125,-0.815 -1.73875,-0.59875 -1.79375,-0.38 -1.7925,-0.1625 -1.8475,0.05375 0,-2.93375 z M 55.1,42.1125 l 0.54375,-2.39125 2.01125,0 -1.35875,1.08625 -1.19625,1.305 z m -34.9975,-8.20625 25.97625,0 0.2175,1.0325 2.82625,-1.63 L 47.98125,31.2975 48.96,30.7 l 2.88,5 -0.97875,0.5975 -1.14125,-2.01125 -3.15125,1.8475 1.0325,4.7825 1.25,5.6525 0.10875,0.65125 -19.40125,0 -1.4675,-0.27125 -1.52125,0 -1.4675,0.27125 -2.12,0 -2.88,-13.31375 z M 72.05625,51.2425 71.9475,50.1 71.62125,49.01375 71.0775,48.035 70.37125,47.16625 69.50125,46.46 68.52375,45.91625 67.43625,45.59 66.295,45.48125 65.15375,45.59 64.0675,45.91625 63.08875,46.46 62.22,47.16625 61.51375,48.035 60.97,49.01375 60.64375,50.1 60.535,51.2425 l 0.10875,1.14 0.32625,1.0875 0.54375,0.97875 0.70625,0.86875 0.86875,0.70625 0.97875,0.54375 1.08625,0.32625 1.14125,0.10875 1.14125,-0.10875 1.0875,-0.32625 0.9775,-0.54375 0.87,-0.70625 0.70625,-0.86875 0.54375,-0.97875 0.32625,-1.0875 0.10875,-1.14 z M 31.6775,55.59 31.57,54.61125 31.24375,53.6875 30.7,52.8725 l -0.6525,-0.70625 -0.815,-0.49 -0.92375,-0.325 -0.97875,-0.10875 -0.9775,0.10875 -0.92375,0.325 -0.815,0.49 -0.6525,0.70625 -0.54375,0.815 -0.32625,0.92375 -0.10875,0.97875 0.10875,0.92375 0.32625,0.92375 0.54375,0.815 0.6525,0.70625 0.815,0.48875 0.92375,0.32625 0.9775,0.10875 0.97875,-0.10875 0.92375,-0.32625 0.815,-0.48875 L 30.7,58.2525 31.24375,57.4375 31.57,56.51375 31.6775,55.59 z m 2.88125,0 L 34.45,54.34 34.12375,53.09 33.58,51.94875 32.87375,50.91625 31.95,50.04625 30.9175,49.34 29.77625,48.79625 28.58,48.47 27.33,48.36125 26.08,48.47 24.885,48.79625 23.74375,49.34 l -1.0325,0.70625 -0.92375,0.87 -0.70625,1.0325 -0.54375,1.14125 -0.32625,1.25 -0.10875,1.25 0.10875,1.25 0.32625,1.195 0.54375,1.14125 0.70625,1.0325 0.92375,0.87 1.0325,0.76 1.14125,0.49 1.195,0.325 1.25,0.10875 1.25,-0.10875 1.19625,-0.325 1.14125,-0.49 1.0325,-0.76 0.92375,-0.87 L 33.58,59.17625 34.12375,58.035 34.45,56.84 34.55875,55.59 z m 30.27,-29.51 -0.055,-0.76 L 64.4475,24.6675 64.0125,24.07 63.415,23.58 62.70875,23.30875 61.9475,23.2 61.24125,23.30875 60.535,23.58 l -0.5975,0.49 -0.49,0.5975 -0.27125,0.6525 -0.10875,0.76 0.10875,0.76125 0.27125,0.70625 0.49,0.5975 0.5975,0.435 0.70625,0.32625 0.70625,0.055 0.76125,-0.055 0.70625,-0.32625 0.5975,-0.435 0.435,-0.5975 0.32625,-0.70625 0.055,-0.76125"
     style="fill:#000000;fill-opacity:1;fill-rule:evenodd;stroke:none"
     id="path6895"
     inkscape:connector-curvature="0" /><path
     inkscape:connector-curvature="0"
     id="path8593"
     style="fill:#ef2c30;fill-opacity:1;fill-rule:evenodd;stroke:none"
     d="m 69.0125,75.6425 -50.26875,-50.21375 -1.57625,2.2825 -1.4125,2.39125 -1.25,2.49875 -1.0325,2.555 -0.86875,2.6625 -0.59875,2.7175 -0.435,2.77125 -0.1625,2.77125 0,2.7725 0.27125,2.77125 0.435,2.77125 0.6525,2.7175 0.87,2.6625 1.08625,2.555 1.25,2.445 1.4675,2.39125 1.685,2.2825 1.7925,2.11875 1.95625,1.9575 2.12,1.7925 2.2825,1.63125 2.33625,1.46625 2.5,1.305 2.555,1.0325 2.6625,0.92375 2.7175,0.6525 2.71625,0.43375 2.7725,0.2725 2.825,0 2.7725,-0.2175 2.71625,-0.38125 2.7175,-0.65125 2.66375,-0.815 2.6075,-1.0325 2.5,-1.25 2.39125,-1.41375 2.2825,-1.63 z m 6.685,-6.63 -50.26875,-50.26875 2.2825,-1.63 2.39125,-1.41375 2.5,-1.24875 2.6075,-1.0325 2.66375,-0.81625 2.71625,-0.5975 2.7175,-0.435 2.77125,-0.21625 2.82625,0.05375 2.77125,0.2175 2.7175,0.435 2.7175,0.70625 2.6625,0.87 2.555,1.08625 2.5,1.25 2.33625,1.4675 2.2825,1.63 2.12,1.79375 1.95625,2.01 1.7925,2.12 1.685,2.2275 1.4675,2.39125 1.25,2.44625 1.08625,2.6075 0.87,2.60875 0.6525,2.7175 0.435,2.7725 0.27125,2.77125 0,2.77125 -0.16375,2.77125 -0.43375,2.77125 -0.59875,2.7175 -0.86875,2.66375 -1.0325,2.6075 -1.25,2.5 -1.41375,2.39125 -1.575,2.2825 z M 94.39125,47.22 94.2825,43.96 93.95625,40.75375 93.41375,37.60125 92.6525,34.44875 91.675,31.40625 90.47875,28.4175 89.12,25.4825 87.49,22.71125 85.75125,19.99375 83.795,17.44 81.675,14.99375 79.3925,12.71125 77.00125,10.5925 74.3925,8.69 71.73,6.89625 68.90375,5.32125 66.02375,3.9625 63.035,2.76625 59.9375,1.78875 56.84,1.0275 53.63375,0.48375 50.4275,0.15875 47.22,0.05 l -3.20625,0.10875 -3.20625,0.325 -3.20625,0.54375 -3.0975,0.76125 -3.0975,0.9775 -2.98875,1.19625 -2.88,1.35875 -2.82625,1.575 -2.6625,1.79375 -2.60875,1.9025 -2.39125,2.11875 -2.2825,2.2825 -2.12,2.44625 -1.95625,2.55375 -1.73875,2.7175 -1.63,2.77125 -1.35875,2.935 -1.19625,2.98875 -0.9775,3.0425 -0.76125,3.1525 -0.54375,3.1525 -0.325,3.20625 -0.10875,3.26 0.10875,3.2075 0.325,3.20625 0.54375,3.15125 0.76125,3.1525 0.9775,3.0425 1.19625,2.98875 1.35875,2.935 1.63,2.82625 1.73875,2.6625 1.95625,2.555 2.12,2.445 2.2825,2.2825 2.39125,2.11875 2.60875,1.9575 2.6625,1.73875 2.82625,1.57625 2.88,1.4125 2.98875,1.14125 3.0975,0.97875 3.0975,0.76 3.20625,0.54375 3.20625,0.38 3.20625,0.10875 3.2075,-0.10875 3.20625,-0.38 3.20625,-0.54375 3.0975,-0.76 3.0975,-0.97875 2.98875,-1.14125 2.88,-1.4125 L 71.73,87.49 l 2.6625,-1.73875 2.60875,-1.9575 2.39125,-2.11875 2.2825,-2.2825 2.12,-2.445 1.95625,-2.555 L 87.49,71.73 89.12,68.90375 90.47875,65.96875 91.675,62.98 92.6525,59.9375 93.41375,56.785 93.95625,53.63375 94.2825,50.4275 94.39125,47.22" /></svg>