<?xml version="1.0" encoding="UTF-8" standalone="no"?>
<!-- Created with Inkscape (http://www.inkscape.org/) -->

<svg
   xmlns:dc="http://purl.org/dc/elements/1.1/"
   xmlns:cc="http://creativecommons.org/ns#"
   xmlns:rdf="http://www.w3.org/1999/02/22-rdf-syntax-ns#"
   xmlns:svg="http://www.w3.org/2000/svg"
   xmlns="http://www.w3.org/2000/svg"
   xmlns:sodipodi="http://sodipodi.sourceforge.net/DTD/sodipodi-0.dtd"
   xmlns:inkscape="http://www.inkscape.org/namespaces/inkscape"
   version="1.1"
   width="93.176247"
   height="93.238747"
   id="svg2"
   xml:space="preserve"
   inkscape:version="0.48.2 r9819"
   sodipodi:docname="Chile RPO-7.svg"><sodipodi:namedview
     pagecolor="#ffffff"
     bordercolor="#666666"
     borderopacity="1"
     objecttolerance="10"
     gridtolerance="10"
     guidetolerance="10"
     inkscape:pageopacity="0"
     inkscape:pageshadow="2"
     inkscape:window-width="1280"
     inkscape:window-height="1004"
     id="namedview19"
     showgrid="false"
     inkscape:zoom="4.0569855"
     inkscape:cx="34.817619"
     inkscape:cy="45.790189"
     inkscape:window-x="-8"
     inkscape:window-y="-8"
     inkscape:window-maximized="1"
     inkscape:current-layer="svg2"
     fit-margin-top="0.05"
     fit-margin-left="0.05"
     fit-margin-right="0.05"
     fit-margin-bottom="0.05" /><defs
     id="defs20" /><metadata
     id="metadata8"><rdf:RDF><cc:Work
         rdf:about=""><dc:format>image/svg+xml</dc:format><dc:type
           rdf:resource="http://purl.org/dc/dcmitype/StillImage" /><dc:title></dc:title></cc:Work></rdf:RDF></metadata><path
     d="m 46.60911,3.1229939 c 24.0045,0 43.47275,19.4758321 43.47275,43.4896831 0,24.035044 -19.46825,43.510877 -43.47275,43.532071 C 22.58344,90.123554 3.115185,70.647721 3.094,46.612677 3.115185,22.598826 22.58344,3.1229939 46.60911,3.1229939"
     inkscape:connector-curvature="0"
     id="path18"
     style="fill:#ffffff;fill-opacity:1" /><path
     d="m 93.12625,46.61875 -0.1025,-3.01 -0.30625,-3.06 L 92.20875,37.54 91.54625,34.58125 90.67875,31.67375 89.5575,28.8175 88.33375,26.0125 86.9075,23.36 85.27625,20.75875 83.4925,18.25875 81.555,15.9125 79.51625,13.72 l -2.2425,-2.0925 -2.345,-1.9375003 -2.4975,-1.785 -2.54875,-1.58125 -2.70125,-1.48 L 64.42875,3.62 61.57375,2.54875 58.6175,1.63125 55.66125,0.9675 52.65375,0.4575 49.64625,0.15125 46.5875,0.05 43.58,0.15125 40.5225,0.4575 37.515,0.9675 34.55875,1.63125 31.6525,2.54875 28.79875,3.62 25.995,4.8437497 l -2.65125,1.48 -2.59875,1.58125 -2.4475,1.785 L 15.9025,11.6275 13.71,13.72 11.62,15.9125 9.68375,18.25875 7.9,20.75875 6.31875,23.36 4.8925,26.0125 l -1.275,2.805 -1.07,2.85625 -0.86625,2.9075 -0.71375,2.95875 -0.51,3.00875 -0.30625,3.06 -0.10125,3.01 0.10125,3.06 0.30625,3.01 0.51,3.00875 0.71375,3.01 0.86625,2.9075 1.07,2.85625 1.275,2.75375 1.42625,2.70375 1.58125,2.55 1.78375,2.5 1.93625,2.34625 2.09,2.24375 2.1925,2.09125 2.395,1.93875 2.4475,1.73375 2.59875,1.6325 2.65125,1.42875 2.80375,1.275 2.85375,1.07125 2.90625,0.86625 2.95625,0.715 3.0075,0.45875 3.0575,0.30625 3.0075,0.1025 3.05875,-0.1025 3.0075,-0.30625 3.0075,-0.45875 2.95625,-0.715 2.95625,-0.86625 2.855,-1.07125 2.7525,-1.275 2.70125,-1.42875 2.54875,-1.6325 2.4975,-1.73375 2.345,-1.93875 2.2425,-2.09125 2.03875,-2.24375 1.9375,-2.34625 1.78375,-2.5 1.63125,-2.55 1.42625,-2.70375 1.22375,-2.75375 1.12125,-2.85625 0.8675,-2.9075 0.6625,-3.01 0.50875,-3.00875 0.30625,-3.01 0.1025,-3.06 z m -18.4525,21.525 1.52875,-2.19375 1.37625,-2.295 1.22375,-2.3975 1.02,-2.4475 0.815,-2.55125 L 81.24875,53.6075 81.7075,51.005 81.91125,48.3025 81.9625,45.65 81.75875,42.94625 81.4025,40.29375 80.79,37.6925 l -0.76375,-2.55 -0.96875,-2.5 -1.12125,-2.4475 -1.325,-2.295 -1.53,-2.245 -1.6825,-2.09125 -1.78375,-1.93875 -1.9875,-1.83625 -2.09,-1.6825 -2.19125,-1.47875 -2.345,-1.32625 -2.39625,-1.17375 -2.4975,-0.96875 -2.6,-0.765 -2.59875,-0.56125 -2.65125,-0.40875 -2.65,-0.1525 -2.7025,0 -2.65,0.255 -2.65,0.4075 -2.6,0.6125 -2.54875,0.8675 -2.4975,0.96875 -2.39625,1.22375 -2.29375,1.3775 -2.19125,1.53 49.59625,49.63 z m -56.1725,-43.05 -1.52875,2.19375 -1.37625,2.295 -1.1725,2.3975 -1.01875,2.49875 -0.81625,2.55125 -0.6625,2.60125 -0.4075,2.65125 -0.255,2.6525 0,2.70375 0.1525,2.6525 0.4075,2.6525 0.56125,2.60125 0.765,2.60125 0.9675,2.5 1.1725,2.3975 1.32625,2.345 1.4775,2.19375 1.6825,2.09125 1.835,1.99 1.93625,1.83625 2.09,1.63125 2.24375,1.53 2.29375,1.32625 2.44625,1.17375 2.4975,0.9175 2.54875,0.81625 2.6,0.56125 2.65,0.3575 2.70125,0.20375 2.65125,-0.05125 2.70125,-0.20375 2.6,-0.45875 2.59875,-0.6125 2.54875,-0.81625 2.4975,-1.02 2.39625,-1.1725 2.29375,-1.3775 2.1925,-1.58125 -49.5975,-49.63"
     style="fill:#ef2c30;fill-opacity:1;fill-rule:evenodd;stroke:none"
     id="path3096"
     inkscape:connector-curvature="0" /><path
     d="m 32.9775,38.91625 -0.255,0.40875 -3.67,6.52875 0.15375,0.4075 0.05125,0.51125 -0.1025,0.45875 -0.255,0.4075 -0.4075,0.30625 -0.4075,0.20375 -0.51,0.05125 -0.45875,-0.1025 -0.4075,-0.255 -0.3575,-0.35625 -0.20375,-0.40875 -0.05125,-0.51 0.1025,-0.45875 L 26.4025,45.7 26.75875,45.34375 27.2175,45.14 l 0.45875,-0.1025 4.15875,-7.33375 1.1425,1.2125"
     style="fill:#000000;fill-opacity:1;fill-rule:nonzero;stroke:none"
     id="path3090"
     inkscape:connector-curvature="0" /><path
     d="m 30.225,35.9075 -1.1725,-0.255 -1.42625,-0.05125 -1.4275,0.1025 -1.4275,0.255 -1.325,0.51 -1.325,0.61125 -1.1725,0.81625 -1.07125,0.96875 -0.9675,1.0725 -0.81625,1.1725 -0.61125,1.32625 -0.45875,1.3775 -0.30625,1.3775 -0.05125,1.47875 0.1025,1.4275 0.255,1.3775 0.45875,1.3775 0.6625,1.32625 0.765,1.1725 0.9675,1.07125 1.07125,0.97 1.2225,0.81625 1.275,0.61125 1.37625,0.45875 1.4275,0.30625 1.42625,0.1025 1.4275,-0.1025 1.4275,-0.255 1.37625,-0.51 1.275,-0.61125 1.17125,-0.81625 1.1225,-0.91875 0.9175,-1.07125 0.815,-1.22375 0.6625,-1.275 0.45875,-1.3775 0.30625,-1.42875 0.10125,-1.4275 -0.2125,-2.21875 1.7425,1.555 0,0.91875 -0.1025,1.47875 -0.30625,1.48 -0.45875,1.4275 -0.6625,1.3775 -0.815,1.275 -0.9175,1.17375 -1.07,1.07125 -1.22375,0.9175 -1.275,0.765 -1.42625,0.6125 -1.4275,0.4075 -1.47875,0.255 -1.52875,0.1025 -1.47875,-0.1025 L 24.61875,58.86 23.14,58.40125 21.815,57.78875 20.49,57.025 19.3175,56.055 18.24625,54.98375 17.32875,53.81125 16.51375,52.535 15.9025,51.15875 15.44375,49.73 l -0.255,-1.47875 -0.1025,-1.53 0.05125,-1.53 0.255,-1.48 0.45875,-1.42875 0.61125,-1.37625 0.765,-1.32625 0.9175,-1.17375 1.01875,-1.12125 1.1725,-0.91875 1.275,-0.81625 1.37625,-0.61125 1.4275,-0.51 1.4775,-0.30625 1.53,-0.1025 0.45875,0 2.34375,1.8875"
     style="fill:#000000;fill-opacity:1;fill-rule:nonzero;stroke:none"
     id="path3092"
     inkscape:connector-curvature="0" /><path
     d="m 52.86125,46.52375 0.0975,-0.7725 0.15375,-1.47875 0.35625,-1.3775 0.51,-1.37625 0.6625,-1.275 0.81625,-1.225 0.9175,-1.07125 1.07,-1.02 1.1725,-0.8675 -2.54875,-4.4375 -6.27,10.96625 -0.44125,0.69375 -1.22125,-1.0625 6.505,-11.3625 -16.1075,0 0.6125,1.07125 1.3975,2.48 L 35.34,29.255 l -0.425,-1.56 -1.78375,-3.1625 0,-1.58125 9.43,0 0,1.58125 -7.595,0 2.65,4.74375 17.9425,0 0.97125,-1.57 -3.56875,0 0,-1.58125 9.43,-1.58125 0,3.1625 -4.0775,0 -1.3275,2.285 3.0075,5.30375 1.37625,-0.61125 1.4775,-0.40875 1.53,-0.20375 1.52875,-0.05125 1.52875,0.1525 1.47875,0.30625 1.47875,0.51 1.37625,0.66375 1.27375,0.8675 1.1725,0.96875 1.01875,1.1225 0.9175,1.22375 0.765,1.3775 0.56125,1.37625 0.4075,1.48 0.20375,1.53 0,1.53 -0.1525,1.53 L 77.63,50.19 77.12,51.6175 76.40625,52.995 75.54,54.27 l -0.96875,1.1725 -1.12125,1.02 -1.27375,0.8675 -1.325,0.765 -1.4275,0.56125 -1.47875,0.3575 -1.52875,0.20375 -1.23625,0 -1.5925,-1.6325 1.24875,0.05125 1.4275,0 1.42625,-0.20375 1.4275,-0.3575 1.325,-0.56125 1.22375,-0.71375 1.12125,-0.8675 1.02,-1.02 0.86625,-1.1725 0.71375,-1.225 0.56,-1.325 0.40875,-1.37875 0.1525,-1.4275 0,-1.4275 -0.1525,-1.42875 -0.3575,-1.42875 -0.56,-1.325 -0.71375,-1.225 -0.8675,-1.1725 -1.01875,-1.02 -1.12125,-0.8675 -1.22375,-0.71375 -1.325,-0.56125 -1.4275,-0.40875 -1.37625,-0.20375 -1.4775,0 -1.4275,0.1525 -1.37625,0.3575 -1.32625,0.56125 4.74125,8.365 0.51,0.1025 0.4075,0.20375 0.35625,0.35625 0.20375,0.40875 0.1025,0.45875 -0.05125,0.51 -0.20375,0.40875 -0.30625,0.35625 -0.45875,0.255 L 65.6,48.2 65.14125,48.14875 64.6825,47.945 l -0.35625,-0.30625 -0.255,-0.4075 -0.1525,-0.45875 0.05125,-0.51125 0.20375,-0.4075 -4.7925,-8.41625 -1.12125,0.8675 -1.01875,1.02 -0.86625,1.1725 -0.765,1.225 -0.51,1.32625 -0.4075,1.37625 -0.20375,1.42875 0,1.42875 0.125,1.20625 -1.7525,-1.965"
     style="fill:#000000;fill-opacity:1;fill-rule:nonzero;stroke:none"
     id="path3094"
     inkscape:connector-curvature="0" /></svg>