<?xml version="1.0" encoding="UTF-8" standalone="no"?>
<!-- Created with Inkscape (http://www.inkscape.org/) -->

<svg
   xmlns:dc="http://purl.org/dc/elements/1.1/"
   xmlns:cc="http://creativecommons.org/ns#"
   xmlns:rdf="http://www.w3.org/1999/02/22-rdf-syntax-ns#"
   xmlns:svg="http://www.w3.org/2000/svg"
   xmlns="http://www.w3.org/2000/svg"
   xmlns:sodipodi="http://sodipodi.sourceforge.net/DTD/sodipodi-0.dtd"
   xmlns:inkscape="http://www.inkscape.org/namespaces/inkscape"
   version="1.1"
   width="87.881248"
   height="87.901253"
   id="svg2"
   xml:space="preserve"
   inkscape:version="0.48.2 r9819"
   sodipodi:docname="AJAX1.svg"><sodipodi:namedview
     pagecolor="#ffffff"
     bordercolor="#666666"
     borderopacity="1"
     objecttolerance="10"
     gridtolerance="10"
     guidetolerance="10"
     inkscape:pageopacity="0"
     inkscape:pageshadow="2"
     inkscape:window-width="1280"
     inkscape:window-height="1004"
     id="namedview19"
     showgrid="false"
     inkscape:zoom="4.0569855"
     inkscape:cx="-3.4345766"
     inkscape:cy="45.990181"
     inkscape:window-x="-8"
     inkscape:window-y="-8"
     inkscape:window-maximized="1"
     inkscape:current-layer="svg2"
     fit-margin-top="0.05"
     fit-margin-left="0.05"
     fit-margin-right="0.05"
     fit-margin-bottom="0.05" /><defs
     id="defs20" /><metadata
     id="metadata8"><rdf:RDF><cc:Work
         rdf:about=""><dc:format>image/svg+xml</dc:format><dc:type
           rdf:resource="http://purl.org/dc/dcmitype/StillImage" /><dc:title></dc:title></cc:Work></rdf:RDF></metadata><path
     d="m 43.88711,0.5074925 c 24.0045,0 43.47275,19.4758325 43.47275,43.4896835 0,24.035044 -19.46825,43.510877 -43.47275,43.532071 C 19.86144,87.508053 0.393185,68.03222 0.372,43.997176 0.393185,19.983325 19.86144,0.5074925 43.88711,0.5074925"
     inkscape:connector-curvature="0"
     id="path18"
     style="fill:#ffffff;fill-opacity:1" /><path
     d="m 68.1925,41.57 0,20.3875 M 19.68875,41.57 l 0,24.70375 m 13.98625,-13.5425 4.61125,2.53 m -5.505,-2.08375 4.6125,2.67875 m -14.8775,-3.125 4.61125,2.53 m -5.505,-2.08375 4.6125,2.67875 m 6.54625,-2.67875 -4.76,2.67875 m 3.8675,-3.125 -4.76125,2.53 M 43.94,53.1775 48.5525,55.85625 M 43.94,53.1775 39.18,55.85625 m 3.8675,-3.125 -4.76125,2.53 m 27.97125,-2.08375 -4.4625,2.53 m 3.57,-2.97625 -4.16625,2.23125 m -1.19,11.31125 -16.06875,0 M 38.28625,56.3025 33.675,58.98125 m 4.61125,3.57125 -4.61125,2.67875 m 3.71875,-3.125 -4.6125,2.53 m 0.89375,0.595 2.0825,1.0425 m -2.0825,-7.2925 4.61125,2.53 m -5.505,-2.08375 4.6125,2.67875 m -17.705,4.1675 24.25125,0 m -6.54625,-10.4175 -4.6125,2.53 m -6.54625,3.72 -4.6125,2.53 m 6.39875,-2.53 4.76,2.53 m -10.265,0.595 2.0825,1.0425 m 2.52875,-3.72125 -4.61125,2.67875 m -0.89375,0.44625 -1.19,0.59625 m 1.19,-0.59625 1.19125,0.59625 M 20.73,65.23125 19.68875,65.6775 m 0,-2.08375 1.93375,1.0425 m -1.93375,0 1.04125,0.595 m 12.05125,0.44625 1.19125,0.59625 m -1.19125,-0.59625 -1.19,0.59625 m 0.2975,-1.0425 -2.0825,1.0425 M 27.1275,62.5525 31.88875,65.23125 M 27.1275,56.3025 22.51625,58.98125 m -0.89375,0.44625 4.6125,2.67875 m -3.71875,-3.125 4.61125,2.53 m -0.8925,-5.655 -4.6125,2.53 m -1.93375,0 1.04125,0.595 M 21.6225,59.4275 19.68875,60.47 M 20.73,58.98125 19.68875,59.4275 m 0,-2.0825 1.93375,1.04125 m 5.505,-2.08375 4.76125,2.67875 m 0.8925,0.44625 -4.76,2.67875 m 3.8675,-3.125 -4.76125,2.53 m 0.89375,-5.655 4.76,2.53 m 15.77125,3.72 -4.6125,2.53 m -4.76,-2.53 4.76,2.53 m 6.39875,-2.53 4.76,2.53 M 49.445,62.5525 l -4.61125,2.67875 2.0825,1.0425 m -3.86875,-1.0425 -2.0825,1.0425 m 2.975,-0.59625 1.19125,0.59625 M 43.94,65.6775 42.75,66.27375 m -4.46375,-3.72125 4.76125,2.67875 m 12.05125,0.44625 -1.19,0.59625 m 2.08375,-1.0425 2.0825,1.0425 m -3.86875,-1.0425 -2.0825,1.0425 m 2.975,-0.59625 1.19125,0.59625 m -6.845,-3.72125 4.76125,2.67875 m 3.72,-1.19 -1.93375,1.19 m 1.19,-1.785 -2.08375,1.19 M 49.445,56.3025 44.83375,58.98125 M 43.94,59.4275 l 4.6125,2.67875"
     style="fill:none;stroke:#000000;stroke-width:0.29750001;stroke-linecap:round;stroke-linejoin:round;stroke-miterlimit:10;stroke-opacity:1;stroke-dasharray:none"
     id="path3030"
     inkscape:connector-curvature="0" /><path
     d="m 44.83375,58.98125 4.61125,2.53 m -0.8925,-5.655 -4.6125,2.53 m -5.65375,-2.08375 4.76125,2.67875 m 0.8925,0.44625 -4.76,2.67875 m 3.8675,-3.125 -4.76125,2.53 m 0.89375,-5.655 4.76,2.53 m 9.96875,1.785 -3.57,1.935 m 2.82625,-2.67875 -3.72,2.08375 m 0,-5.20875 1.34,0.74375 m 17.4075,1.34 -1.04125,0.595 m -2.38125,-0.2975 0.595,0.2975 -0.14875,0 m 1.04125,0.44625 -0.44625,0.2975 m 0.44625,-0.2975 1.935,1.0425 m -1.04125,-1.48875 1.04125,0.44625 m -5.65375,-3.125 3.71875,2.08375 m 1.935,-1.04125 -1.935,1.04125 M 60.60375,43.8025 57.48,45.5875 m 2.23125,-2.2325 -1.785,1.04125 m -1.4875,2.23375 4.165,2.38 m -4.4625,-1.4875 3.57,2.08375 m 0.8925,0.44625 -2.82625,1.63625 m 1.93375,-2.0825 -2.52875,1.33875 m 1.33875,-9.375 2.0825,1.19 m -2.6775,-0.44625 1.785,1.04125 m -1.785,-1.785 10.26625,0 M 38.28625,50.0525 33.675,52.73125 m 3.71875,-3.125 -4.6125,2.53 m -11.15875,-5.21 4.6125,2.68 m -3.71875,-3.125 4.61125,2.52875 m -5.505,-2.08375 -1.93375,1.0425 M 31.4425,46.63 l -4.315,2.38 m 0,1.0425 -4.61125,2.67875 m 3.71875,-3.125 -4.6125,2.53 m -1.93375,-1.0425 1.93375,1.0425 m 0,1.04125 -1.93375,1.04125 m 1.04125,-1.4875 -1.04125,0.595 m 0,-1.19 1.04125,0.595 m 7.29125,-3.125 4.76,2.53 m -5.65375,-2.08375 4.76125,2.67875 m -0.2975,-5.20875 -3.57,2.08375 M 27.1275,43.8025 22.51625,46.48125 M 26.235,43.355 l -4.6125,2.53 m 8.18375,-4.315 -10.1175,0 M 20.73,46.48125 19.68875,47.075 m 0,-2.23125 1.93375,1.04125 m -1.93375,0 1.04125,0.59625 m 7.29125,-3.12625 1.785,1.04125 m -2.67875,-0.59375 3.27375,1.785 m -0.595,-3.27375 -1.785,1.04125 M 29.36,41.57 27.1275,42.76 m -2.0825,-1.19 2.0825,1.19 m -3.8675,-1.19 2.975,1.785 m 15.0275,4.1675 -2.97625,1.4875 m -3.12375,-1.785 3.12375,1.785 m 6.5475,3.72125 3.71875,2.08375 m -10.26625,-4.7625 4.76125,2.67875 m -3.8675,-3.125 4.76,2.53 m 1.935,0 -1.04125,0.595 m 0.44625,-1.34 -1.34,0.745 M 41.8575,48.1175 39.18,49.60625 m -4.0175,-1.34 2.23125,1.34 m 28.86375,-2.68 -4.76,2.68 m 4.76,-2.68 1.935,1.0425 M 65.365,46.48125 60.60375,49.01"
     style="fill:none;stroke:#000000;stroke-width:0.29750001;stroke-linecap:round;stroke-linejoin:round;stroke-miterlimit:10;stroke-opacity:1;stroke-dasharray:none"
     id="path3032"
     inkscape:connector-curvature="0" /><path
     d="m 60.60375,50.0525 4.76125,2.67875 m -3.8675,-3.125 4.76,2.53 m 1.935,-1.0425 -1.935,1.0425 m 0,1.04125 1.935,1.04125 m -1.04125,-1.4875 1.04125,0.595 m 0,-1.19 -1.04125,0.595 M 61.4975,43.355 l 4.76,2.53 m -5.65375,-2.0825 4.76125,2.67875 m 1.78625,0 1.04125,0.59375 m 0,-2.23125 -1.935,1.04125 m 1.935,0 -1.04125,0.59625 m -4.315,-4.91125 -2.2325,1.19 m 4.0175,-1.19 -3.12375,1.785"
     style="fill:none;stroke:#000000;stroke-width:0.29750001;stroke-linecap:round;stroke-linejoin:round;stroke-miterlimit:10;stroke-opacity:1;stroke-dasharray:none"
     id="path3034"
     inkscape:connector-curvature="0" /><path
     d="m 56.14125,50.0525 0,-3.12625 1.785,-1.785 0,-6.99375 -1.785,-1.7875 -1.6375,-6.99375 -19.04375,0 -4.6125,7.73875 -1.04125,1.0425 0,6.99375 1.785,1.785 0,3.42375 3.57125,0 0,-3.42375 5.505,0 15.47375,3.12625 z M 41.76875,36.36 l 12.735,0 -1.4875,-5.35625 -16.60375,0 5.35625,5.35625"
     style="fill:#000000;fill-opacity:1;fill-rule:evenodd;stroke:none"
     id="path3036"
     inkscape:connector-curvature="0" /><path
     d="M 70.42375,64.19 72.805,60.6175 74.73875,56.75 76.0775,52.5825 76.97,48.26625 77.2675,43.95125 76.97,39.48625 76.0775,35.31875 74.73875,31.1525 72.805,27.28375 70.42375,23.5625 67.44875,20.28875 64.175,17.46125 60.60375,15.08 56.73625,13.14625 52.57,11.6575 48.255,10.91375 43.94,10.615 l -4.31375,0.15 -4.315,0.8925 -4.16625,1.48875 -3.86875,1.93375 -3.57,2.38125 L 70.42375,64.19 z M 87.83125,43.95125 87.53375,39.04 86.64125,34.12875 85.3025,29.36625 83.3675,24.9025 80.9875,20.58625 78.16125,16.56875 74.8875,12.8475 71.31625,9.5749998 67.3,6.7462498 62.985,4.3649998 58.3725,2.43125 53.61125,1.09125 48.85,0.3475 43.94,0.05 l -4.90875,0.2975 -4.91,0.74375 -4.76125,1.34 -4.46375,1.9337498 -4.315,2.38125 L 16.565,9.5749998 12.845,12.8475 9.57125,16.56875 6.745,20.58625 4.36375,24.9025 2.43,29.36625 1.09125,34.12875 0.3475,39.04 0.05,43.95125 l 0.2975,4.91 0.74375,4.91125 1.33875,4.61375 1.93375,4.6125 2.38125,4.31625 2.82625,4.0175 3.27375,3.72125 3.72,3.27375 4.01625,2.8275 4.315,2.38 4.46375,1.78625 4.76125,1.48875 4.91,0.74375 4.90875,0.2975 4.91,-0.2975 4.76125,-0.74375 4.76125,-1.48875 4.6125,-1.78625 4.315,-2.38 4.01625,-2.8275 3.57125,-3.27375 3.27375,-3.72125 2.82625,-4.0175 2.38,-4.31625 1.935,-4.6125 1.33875,-4.61375 0.8925,-4.91125 0.2975,-4.91 z M 17.4575,23.7125 15.07625,27.28375 13.1425,31.1525 11.655,35.31875 10.91125,39.635 l -0.29875,4.31625 0.29875,4.315 0.74375,4.31625 1.4875,4.1675 1.93375,3.8675 2.38125,3.5725 2.82625,3.27375 3.27375,2.97625 3.71875,2.38125 3.86875,1.93375 4.16625,1.48875 4.16625,0.745 4.4625,0.29625 4.315,-0.29625 4.315,-0.745 L 56.5875,74.755 60.60375,72.82125 64.175,70.44 17.4575,23.7125"
     style="fill:#ef2c30;fill-opacity:1;fill-rule:evenodd;stroke:none"
     id="path3038"
     inkscape:connector-curvature="0" /></svg>