<?xml version="1.0" encoding="UTF-8" standalone="no"?>
<!-- Created with Inkscape (http://www.inkscape.org/) -->

<svg
   xmlns:dc="http://purl.org/dc/elements/1.1/"
   xmlns:cc="http://creativecommons.org/ns#"
   xmlns:rdf="http://www.w3.org/1999/02/22-rdf-syntax-ns#"
   xmlns:svg="http://www.w3.org/2000/svg"
   xmlns="http://www.w3.org/2000/svg"
   xmlns:sodipodi="http://sodipodi.sourceforge.net/DTD/sodipodi-0.dtd"
   xmlns:inkscape="http://www.inkscape.org/namespaces/inkscape"
   version="1.1"
   width="303.87549"
   height="454.72034"
   id="svg2"
   xml:space="preserve"
   inkscape:version="0.48.2 r9819"
   sodipodi:docname="Chile RPO-15.svg"><sodipodi:namedview
     pagecolor="#ffffff"
     bordercolor="#666666"
     borderopacity="1"
     objecttolerance="10"
     gridtolerance="10"
     guidetolerance="10"
     inkscape:pageopacity="0"
     inkscape:pageshadow="2"
     inkscape:window-width="1280"
     inkscape:window-height="1004"
     id="namedview19"
     showgrid="false"
     inkscape:zoom="1.0142464"
     inkscape:cx="134.01109"
     inkscape:cy="129.92376"
     inkscape:window-x="-8"
     inkscape:window-y="-8"
     inkscape:window-maximized="1"
     inkscape:current-layer="svg2"
     fit-margin-top="0"
     fit-margin-left="0"
     fit-margin-right="0"
     fit-margin-bottom="0" /><defs
     id="defs20" /><metadata
     id="metadata8"><rdf:RDF><cc:Work
         rdf:about=""><dc:format>image/svg+xml</dc:format><dc:type
           rdf:resource="http://purl.org/dc/dcmitype/StillImage" /><dc:title></dc:title></cc:Work></rdf:RDF></metadata><path
     inkscape:connector-curvature="0"
     d="m 278.58924,453.70745 3.81168,-0.17496 3.64089,-0.86647 3.64089,-1.55802 3.12434,-1.90792 2.9452,-2.42864 2.42865,-2.94521 1.90793,-3.29513 1.55799,-3.47009 0.87066,-3.6409 0.34575,-3.81169 0,-404.326342 -0.34575,-3.815853 -0.87066,-3.636725 -1.55799,-3.645063 -1.90793,-3.12017 -2.42865,-2.9451988 -2.9452,-2.42864 -3.12434,-1.90794 -3.64089,-1.558 -3.64089,-0.87064 -3.81168,-0.34577 -253.500158,0 -3.815854,0.34577 -3.640891,0.87064 -3.465928,1.558 -3.29513,1.90794 -2.7744089,2.42864 -2.599446,2.9451988 -1.907925,3.12017 -1.387206,3.645063 -1.041445,3.636725 -0.17496308,3.815853 0,404.326342 0.17496308,3.81169 1.041445,3.6409 1.387206,3.47009 1.907925,3.29513 2.599446,2.94521 2.7744089,2.42864 3.29513,1.90792 3.465928,1.55802 3.640891,0.86647 3.815854,0.17496 253.500158,0 z"
     style="fill:#ffffff;stroke:#000000;stroke-width:1.99957395;stroke-linecap:round;stroke-linejoin:round;stroke-miterlimit:10;stroke-opacity:1;stroke-dasharray:none"
     id="path3748" /><path
     inkscape:connector-curvature="0"
     d="m 278.58924,435.6738 1.90375,-0.34576 1.73714,-0.86648 1.3872,-1.21224 0.86648,-1.73298 0.17063,-1.90792 0,-404.326342 -0.17063,-1.907926 -0.86648,-1.732965 -1.3872,-1.387205 -1.73714,-0.691518 -1.90375,-0.349926 -253.500158,0 -1.907926,0.349926 -1.558003,0.691518 -1.387204,1.387205 -0.870647,1.732965 -0.34576,1.907926 0,404.326342 0.34576,1.90792 0.870647,1.73298 1.387204,1.21224 1.558003,0.86648 1.907926,0.34576 253.500158,0 z m 0,12.13908 3.64089,-0.34576 3.29096,-1.04144 3.12433,-1.73297 2.77441,-2.25368 2.25368,-2.77442 1.73297,-3.12434 1.04144,-3.29095 0.34577,-3.6409 0,-404.326342 -0.34577,-3.640891 -1.04144,-3.295131 -1.73297,-3.120169 -2.25368,-2.77441 -2.77441,-2.25369 -3.12433,-1.7329588 -3.29096,-1.04144 -3.64089,-0.34576 -253.500158,0 -3.465929,0.34576 -3.470094,1.04144 -3.120167,1.7329588 -2.774408,2.25369 -2.253688,2.77441 -1.5621659,3.120169 -1.041444,3.295131 -0.345761,3.640891 0,404.326342 0.345761,3.6409 1.041444,3.29095 1.5621659,3.12434 2.253688,2.77442 2.774408,2.25368 3.120167,1.73297 3.470094,1.04144 3.465929,0.34576 253.500158,0"
     style="fill:#000000;fill-opacity:1;fill-rule:evenodd;stroke:none"
     id="path3752" /><path
     inkscape:connector-curvature="0"
     d="m 155.47796,333.72886 0.86648,1.90793 1.38721,1.55799 1.56217,1.21224 1.90793,0.87064 2.07872,0.17064 2.08289,-0.17064 1.90792,-0.87064 1.73297,-1.21224 1.38721,-1.55799 0.69151,-1.90793 0.87066,-3.6409 0.17095,-3.47008 -0.17095,-3.6409 -0.87066,-3.46594 -0.69151,-2.08288 -1.38721,-1.55799 -1.73297,-1.21225 -1.90792,-0.87065 -2.08289,-0.17079 -2.07872,0.17079 -1.90793,0.87065 -1.56217,1.21225 -1.38721,1.73295 -0.86648,1.90792 -0.69151,3.46594 -0.34576,3.6409 0.34576,3.47008 0.69151,3.6409 z m -23.92823,-19.76662 3.64089,0 9.36467,16.64645 0,-16.64645 3.98665,0 0,25.14047 -3.81168,0 -9.18972,-16.64644 0,16.64644 -3.99081,0 0,-25.14047 z m 27.74409,18.55021 0.86648,1.56216 1.3872,1.21224 1.73297,0.34994 1.73713,-0.34994 1.55801,-1.21224 0.86648,-1.56216 0.69568,-3.98665 0,-3.98665 -0.69568,-3.99083 -0.86648,-1.55799 -1.55801,-1.21224 -1.73713,-0.34993 -1.73297,0.34993 -1.3872,1.21224 -0.86648,1.55799 -0.69152,3.99083 0,3.98665 0.69152,3.98665"
     style="fill:#000000;fill-opacity:1;fill-rule:evenodd;stroke:none"
     id="path3754" /><path
     inkscape:connector-curvature="0"
     d="m 76.932198,388.34223 2.25369,-0.34577 1.90792,-0.86648 1.56217,-1.56217 0.86649,-2.07873 0.34576,-2.08288 -0.17497,-2.25369 -1.03728,-1.90793 -1.56217,-1.558 -1.90792,-1.04144 -2.25369,-0.34576 -9.88123,0 0,25.14047 3.98665,0 0,-11.09762 5.89458,0 z m 85.136022,11.61835 2.07873,-0.34993 1.90792,-0.86647 1.73714,-1.21225 1.3872,-1.56217 0.86648,-1.90793 0.69153,-3.64089 0.17495,-3.46592 -0.17495,-3.6409 -0.69153,-3.46592 -0.86648,-2.08289 -1.3872,-1.558 -1.73714,-1.21641 -1.90792,-0.86649 -2.07873,-0.17063 -2.07871,0.17063 -1.90793,0.86649 -1.56217,1.21641 -1.3872,1.73296 -0.86649,1.90793 -0.69568,3.46592 -0.34576,3.6409 0.34576,3.46592 0.69568,3.64089 0.86649,1.90793 1.3872,1.56217 1.56217,1.21225 1.90793,0.86647 2.07871,0.34993 z m 74.55912,-7.8025 -0.34576,-2.60362 -1.3872,-2.25368 -1.90793,-1.55801 -2.42866,-1.04144 -3.81584,-0.69152 -1.03728,-0.52073 -0.69569,-0.86648 -0.17496,-1.04144 0.17496,-1.3872 0.69569,-1.04145 1.03728,-0.86648 1.2164,-0.34576 1.38721,0 1.21223,0.52072 0.86649,0.86648 0.69569,1.21225 3.81168,-0.86649 -0.86648,-2.07872 -1.3872,-1.73714 -1.90794,-1.21223 -2.07871,-0.69152 -2.0829,0 -2.25369,0.52072 -1.73295,1.21224 -1.558,1.73296 -0.87066,1.90793 -0.34575,2.25369 0.34575,2.07872 1.04145,1.90793 1.73297,1.38721 2.08289,0.86647 3.81585,0.69569 1.03728,0.52072 1.04144,0.86649 0.52073,1.03728 0.34575,1.21641 -0.34575,1.55799 -0.86649,1.21641 -1.3872,0.69152 -1.90792,0.34576 -1.56217,-0.34576 -1.558,-0.69152 -1.21641,-1.21641 -0.69152,-1.55799 -3.4701,1.21224 0.69569,1.73296 1.04145,1.56217 1.21223,1.3872 1.73297,1.04144 1.90792,0.51656 1.90794,0.34993 2.25367,-0.34993 1.90794,-0.69152 1.90792,-1.21223 1.21225,-1.56218 0.86648,-1.90793 0.17496,-2.07871 z m -36.75883,-17.8587 14.73852,0 0,3.98665 -10.75187,0 0,6.06954 7.45674,0 0,3.98666 -7.45674,0 0,7.11097 11.44339,0 0,3.98665 -15.43004,0 0,-25.14047 z m -41.78693,18.55021 0.86648,1.56217 1.38721,1.21224 1.73295,0.34576 1.73297,-0.34576 1.56217,-1.04144 0.86649,-1.73297 0.69151,-3.98665 0,-3.98665 -0.69151,-3.99081 -0.86649,-1.55801 -1.56217,-1.21641 -1.73297,-0.34575 -1.73295,0.52072 -1.38721,1.04144 -0.86648,1.55801 -0.69569,3.99081 0,3.98665 0.69569,3.98665 z m 18.90014,-18.55021 3.64088,0 9.36051,16.64229 0,-16.64229 3.99082,0 0,25.14047 -3.81585,0 -9.18971,-16.64644 0,16.64644 -3.98665,0 0,-25.14047 z m -59.47482,0 3.64088,0 8.84395,25.14047 -4.33657,0 -2.42866,-6.93601 -7.8025,0 -2.42448,6.93601 -4.16161,0 8.66899,-25.14047 z m 4.50736,14.2178 -2.59944,-7.28179 -2.60362,7.28179 5.20306,0 z m 17.16718,-10.23115 -5.72378,0 0,-3.98665 15.25925,0 0,3.98665 -5.72379,0 0,21.15382 -3.81168,0 0,-21.15382 z m -62.249242,6.24033 1.21641,-0.34575 1.03728,-0.69153 0.52073,-0.86648 0.34575,-1.2164 -0.34575,-1.21224 -0.52073,-1.04145 -1.03728,-0.69152 -1.21641,-0.17496 -5.89458,0 0,6.24033 5.89458,0 z m 13.00557,-10.22698 14.738522,0 0,3.98665 -10.751872,0 0,6.06954 7.456742,0 0,3.98666 -7.456742,0 0,7.11097 11.443382,0 0,3.98665 -15.430032,0 0,-25.14047"
     style="fill:#000000;fill-opacity:1;fill-rule:evenodd;stroke:none"
     id="path3756" /><path
     id="path5941"
     style="fill:#000000;fill-opacity:1;fill-rule:evenodd;stroke:none"
     d="m 150.9706,92.555246 1.90792,0.170796 2.07872,-0.34576 1.90793,-0.691518 1.90793,-1.041445 1.73295,-1.562168 1.38721,-1.90376 1.04145,-1.907928 0.69568,-2.253685 0.34576,-2.428649 0,-2.253686 -0.34576,-2.253687 -0.87065,-2.253687 -1.03728,-1.907927 -1.38719,-1.562167 -1.73297,-1.212241 -1.90793,-0.866483 -1.90792,-0.345759 -2.0829,0 -2.07871,0.516556 -1.90793,1.041445 -1.73297,1.216409 -1.56216,1.732963 -1.21225,1.907927 -0.86648,2.078723 -0.69568,2.42865 -0.17097,2.253686 0.34576,2.424483 0.52073,2.08289 1.03728,2.078723 1.21641,1.737131 1.55799,1.383038 1.73713,1.041445 2.07872,0.695685"
     inkscape:connector-curvature="0" /><path
     id="path5943"
     style="fill:#000000;fill-opacity:1;fill-rule:nonzero;stroke:none"
     d="m 165.53416,122.37389 4.68233,7.11099 0.69568,1.90792 0,24.4448 0.17097,1.21224 2.08288,2.08289 1.21225,0.17496 3.81586,0 1.3872,-0.17496 1.04144,-0.69152 0.86648,-1.21641 0.17097,-1.3872 0,-28.95217 -0.34575,-1.73713 -14.90934,-26.006957 -1.21641,-1.212243 -1.3872,-0.695685 -5.54881,-1.212241 -5.54882,-0.34576 -5.54882,0.34576 -5.54464,1.212241 -1.38722,0.695685 -1.2164,1.041445 -7.10682,15.255085 -1.21641,2.42865 -14.73853,12.48067 -3.12016,1.56217 -7.8025,3.81585 -1.04145,0.86649 -0.52072,1.04144 -0.34576,1.21224 0.34576,1.38721 1.38721,3.81168 0.87064,1.21641 1.21224,0.86648 1.38721,0.17497 1.38719,-0.34993 11.4434,-5.71961 1.90792,-1.04145 12.83061,15.77997 -15.43005,24.96552 -5.20305,41.437 0,1.2164 0.52072,1.21225 1.03728,0.86647 1.21641,0.52074 5.71961,0.86648 1.3872,0 1.21641,-0.52073 0.86648,-1.03728 0.52073,-1.39137 4.85313,-35.88818 14.047,-21.49959 3.46594,1.38721 0.34575,2.42865 3.12017,23.23255 18.55439,39.70403 0.86647,1.04145 1.21641,0.69152 1.21224,0.17496 1.3872,-0.34576 6.59027,-3.12434 1.21224,-0.69151 0.69152,-1.21224 0.17497,-1.38721 -0.34576,-1.2164 -16.3007,-35.54243 -0.34576,-3.29513 -2.94937,-32.76802 0,-31.21002"
     inkscape:connector-curvature="0" /><path
     inkscape:connector-curvature="0"
     d="m 75.890748,93.942451 -4.50736,6.415299 -3.81169,6.76106 -3.47009,7.10682 -2.77442,7.28178 -2.25369,7.45675 -1.56216,7.8025 -0.86648,7.8025 -0.34576,7.80251 0.34576,7.8025 1.04144,7.80251 1.56216,7.8025 2.2537,7.45258 2.9452,7.28178 3.4701,7.11098 3.98665,6.76106 4.50737,6.4153 5.20306,5.89458 5.54882,5.54882 5.89457,5.19889 6.41531,4.51154 6.761052,3.98665 7.11099,3.46593 7.28178,2.94937 7.45674,2.25369 7.80251,1.55801 7.8025,1.04144 7.8025,0.34575 7.80251,-0.34575 7.8025,-0.86649 7.80251,-1.56216 7.45675,-2.25369 7.28177,-2.77441 7.11099,-3.46593 6.76105,-3.98665 6.41531,-4.50737 L 75.890748,93.942451 z M 227.78339,210.1052 93.753618,76.083756 l 6.415292,-4.507374 6.76107,-3.990815 7.10682,-3.290966 7.28594,-2.949371 7.62755,-2.078724 7.62753,-1.562167 7.80251,-1.041448 7.97746,-0.17063 7.80251,0.345759 7.8025,0.866485 7.63172,1.732964 7.62753,2.253688 7.28179,2.774408 6.93601,3.470094 6.76107,4.161612 6.4153,4.507374 6.06954,5.028095 5.54881,5.548818 5.0281,6.065373 4.50736,6.415301 4.16162,6.761058 3.4701,6.93602 2.7744,7.28179 2.25369,7.6317 1.73297,7.62755 0.86648,7.8025 0.34575,7.8025 -0.17062,7.9733 -1.04144,7.80251 -1.56218,7.62754 -2.07872,7.63171 -2.7744,7.28178 -3.46593,7.10682 -3.99082,6.76106 -4.50737,6.4153 z m 49.93519,-58.08346 -0.34575,-9.3605 -1.21225,-9.36051 -1.73296,-9.36467 -2.42865,-9.01474 -3.12017,-8.84395 -3.64089,-8.668992 -4.51154,-8.323227 -4.85313,-7.9733 -5.72378,-7.456744 -6.06537,-7.281782 -6.59026,-6.590263 -7.28179,-6.065377 -7.45675,-5.72378 -7.97746,-4.853133 -8.32322,-4.507372 -8.66899,-3.640892 -8.83979,-3.120168 -9.01891,-2.428649 -9.3605,-1.732964 -9.36467,-1.212242 -9.36467,-0.349925 -9.3605,0.349925 -9.36468,1.212242 -9.18972,1.732964 -9.1897,2.428649 -8.84394,3.120168 -8.669002,3.640892 -8.14826,4.507372 -7.97747,4.853133 -7.62753,5.72378 -7.11098,6.065377 -6.76107,6.590263 -6.06954,7.281782 -5.54882,7.456744 -5.02809,7.9733 -4.33241,8.323227 -3.81585,8.668992 -3.12018,8.84395 -2.42864,9.01474 -1.732967,9.36467 -1.041445,9.36051 -0.345759,9.3605 0.345759,9.36467 1.041445,9.36467 1.732967,9.18555 2.42864,9.18971 3.12018,8.84394 3.81585,8.49403 4.33241,8.32322 5.02809,7.97747 5.54882,7.62755 6.06954,7.10681 6.76107,6.59027 7.11098,6.24034 7.62753,5.5488 7.97747,5.0281 8.14826,4.33657 8.669002,3.8117 8.84394,3.12016 9.1897,2.42865 9.18972,1.73298 9.36468,1.04143 9.3605,0.34576 9.36467,-0.34576 9.36467,-1.04143 9.3605,-1.73298 9.01891,-2.42865 8.83979,-3.12016 8.66899,-3.8117 8.32322,-4.33657 7.97746,-5.0281 7.45675,-5.5488 7.28179,-6.24034 6.59026,-6.59027 6.06537,-7.10681 5.72378,-7.62755 4.85313,-7.97747 4.51154,-8.32322 3.64089,-8.49403 3.12017,-8.84394 2.42865,-9.18971 1.73296,-9.18555 1.21225,-9.36467 0.34575,-9.36467"
     style="fill:#ef2c30;fill-opacity:1;fill-rule:evenodd;stroke:none"
     id="path3750" /></svg>