<?xml version="1.0" encoding="UTF-8" standalone="no"?>
<!-- Created with Inkscape (http://www.inkscape.org/) -->

<svg
   xmlns:dc="http://purl.org/dc/elements/1.1/"
   xmlns:cc="http://creativecommons.org/ns#"
   xmlns:rdf="http://www.w3.org/1999/02/22-rdf-syntax-ns#"
   xmlns:svg="http://www.w3.org/2000/svg"
   xmlns="http://www.w3.org/2000/svg"
   xmlns:sodipodi="http://sodipodi.sourceforge.net/DTD/sodipodi-0.dtd"
   xmlns:inkscape="http://www.inkscape.org/namespaces/inkscape"
   version="1.1"
   width="308.50305"
   height="461.9436"
   id="svg2"
   xml:space="preserve"
   inkscape:version="0.48.2 r9819"
   sodipodi:docname="Chile RPO-5.svg"><sodipodi:namedview
     pagecolor="#ffffff"
     bordercolor="#666666"
     borderopacity="1"
     objecttolerance="10"
     gridtolerance="10"
     guidetolerance="10"
     inkscape:pageopacity="0"
     inkscape:pageshadow="2"
     inkscape:window-width="1280"
     inkscape:window-height="1004"
     id="namedview19"
     showgrid="false"
     inkscape:zoom="0.71718049"
     inkscape:cx="95.929272"
     inkscape:cy="59.558592"
     inkscape:window-x="-8"
     inkscape:window-y="-8"
     inkscape:window-maximized="1"
     inkscape:current-layer="svg2"
     fit-margin-top="0"
     fit-margin-left="0"
     fit-margin-right="0"
     fit-margin-bottom="0" /><defs
     id="defs20" /><metadata
     id="metadata8"><rdf:RDF><cc:Work
         rdf:about=""><dc:format>image/svg+xml</dc:format><dc:type
           rdf:resource="http://purl.org/dc/dcmitype/StillImage" /><dc:title></dc:title></cc:Work></rdf:RDF></metadata><path
     inkscape:connector-curvature="0"
     d="m 282.88663,460.93925 6.26204,-0.89576 5.81623,-2.68731 5.37043,-3.5789 4.0247,-5.36627 2.23733,-5.81622 0.89577,-6.26621 0,-410.727853 -0.89577,-6.262034 -2.23733,-5.820407 -4.0247,-5.3662697 -5.37043,-4.02886 -5.81623,-2.23734 -6.26204,-0.89158995 -257.276727,0 -6.266201,0.89158995 -6.262034,2.23734 -4.9246347,4.02886 -4.0247,5.3662697 -2.237335,5.820407 -0.89576595,6.262034 0,410.727853 0.89576595,6.26621 2.237335,5.81622 4.0247,5.36627 4.9246347,3.5789 6.262034,2.68731 6.266201,0.89576 257.276727,0 z"
     style="fill:#ffffff;stroke:#000000;stroke-width:1.99985147;stroke-linecap:round;stroke-linejoin:round;stroke-miterlimit:10;stroke-opacity:1;stroke-dasharray:none"
     id="path5062" /><path
     inkscape:connector-curvature="0"
     d="m 98.541986,116.42734 -3.13311,12.52824 -8.49936,8.49937 0,33.55584 8.49936,8.49937 0,17.0029 16.557124,0 0,-17.0029 49.66297,0 51.45451,15.66133 0,-15.66133 8.50353,-8.49937 0,-33.59334 -8.50353,-8.46187 -8.49937,-33.555841 -101.12164,0 -4.920484,21.027601 z m 23.264944,-12.52823 76.51098,0 6.2662,25.05647 -101.12164,0 1.79152,-5.8204 16.55294,-19.23607"
     style="fill:#000000;fill-opacity:1;fill-rule:evenodd;stroke:none"
     id="path5060" /><path
     inkscape:connector-curvature="0"
     d="m 126.2816,401.87698 -0.89578,7.16197 0.89578,7.1578 1.79153,3.12894 2.68313,2.23733 3.5789,0.89575 3.1331,-0.89575 3.13311,-2.23733 1.34156,-3.12894 1.34158,-7.1578 -1.34158,-7.16197 -1.34156,-3.12894 -3.13311,-2.23733 -3.1331,-0.44997 -3.5789,0.44997 -2.68313,2.23733 -1.79153,3.12894 z m 54.58761,1.34157 -1.34157,-2.23734 -2.68313,-0.8916 -2.6873,0.8916 -1.34158,2.23734 -0.89575,5.8204 0.89575,6.26203 1.34158,2.23733 2.6873,0.89577 2.68313,-0.89577 1.34157,-2.23733 0.89576,-6.26203 -0.89576,-5.8204 z m 11.18667,-6.70784 9.39513,0 3.1331,0.44579 2.68314,2.23734 1.34156,2.68314 0,3.1331 -1.34156,3.12894 -2.68314,1.79152 4.47467,12.07828 -4.02887,0 -4.47467,-11.18251 -4.47467,0 0,11.18251 -4.02469,0 0,-25.49811 z m 36.24314,-27.2938 0.89159,2.68314 2.23734,2.23733 2.23733,1.34156 3.1331,0.44996 3.13311,-0.44996 3.1331,-1.78737 1.78737,-2.68731 0.44996,-3.12892 -0.89576,-3.13311 -2.23734,-2.68313 -3.13311,-1.79153 -4.02468,-0.4458 -1.34575,-0.89577 -0.44579,-1.78737 0.44579,-1.79152 1.34575,-1.34158 1.34155,-0.44997 2.68313,0.44997 1.34158,2.23317 4.02887,-0.89159 -0.89578,-2.68314 -2.23733,-1.79154 -2.68313,-1.34158 -2.68731,0 -2.68312,0.89162 -2.23734,1.79152 -1.34157,2.23734 -0.44997,2.6873 0.89578,3.12894 1.79153,2.23733 2.68313,0.89576 3.5789,0.89161 2.23734,1.34573 0.89576,2.23734 -1.34156,3.12892 -1.34157,0.44998 -1.79154,0.44581 -2.23733,-0.44581 -1.78736,-1.34157 -0.89577,-2.23733 -3.5789,1.34157 z m -21.47757,-13.8698 -1.34157,7.15779 1.34157,7.60777 1.34156,2.68313 3.13311,2.23733 3.12893,0.89577 3.58307,-0.89577 2.68314,-2.23733 1.79153,-2.68313 0.8916,-7.60777 -0.8916,-7.15779 -1.79153,-3.13312 -2.68314,-1.79152 -3.58307,-0.89162 -3.12893,0.89162 -3.13311,1.79152 -1.34156,3.13312 z m -36.24315,20.58179 3.57891,-0.89577 2.6873,-1.79153 1.78737,-2.68313 0.89576,-3.1331 0,-17.44453 -4.02887,0 0,17.44453 -0.8916,2.23733 -1.34573,1.79154 -2.68314,0.44581 -2.23733,-0.44581 -1.34156,-1.79154 -0.89578,-2.23733 0,-17.44453 -4.02469,0 0,17.44453 0.89159,3.1331 1.79154,2.68313 2.68313,1.79153 3.1331,0.89577 z m -12.97403,-21.03177 -3.58307,1.34157 -1.78736,-1.78737 -2.23733,-0.89577 -2.23734,0.44997 -1.79153,2.23317 -1.34157,4.02887 0,4.47466 1.34157,4.47468 1.79153,1.78735 2.23734,0.89579 2.23733,-0.89579 1.78736,-2.23315 3.58307,1.34156 -1.34574,3.12893 -2.68313,1.79153 -3.1331,0.89577 -3.5789,-0.44996 -2.68314,-1.78737 -1.79153,-2.68731 -1.78736,-5.36626 0,-5.81623 1.78736,-5.37044 1.79153,-2.68313 2.68314,-1.78736 3.13311,-0.44999 3.13309,0.44999 2.68314,2.23315 1.79153,2.68314 z m 0.4458,-46.07991 -1.34156,7.6036 1.34156,7.1578 1.34157,3.13312 3.1331,1.79152 3.1331,0.89161 3.5789,-0.89161 2.68314,-1.79152 1.79153,-3.13312 0.89576,-7.1578 -0.89576,-7.6036 -1.79153,-3.1331 -2.68314,-1.79153 -3.5789,-0.89161 -3.1331,0.89161 -3.1331,1.79153 -1.34157,3.1331 z m -24.16071,39.81788 -2.68729,0 2.23733,-4.47466 4.47466,0 -4.0247,4.47466 z m 76.51098,20.13601 1.79154,2.23315 2.23317,0.89579 2.68729,-0.89579 1.34158,-2.23315 1.34156,-6.26621 -1.34156,-5.81623 -1.34158,-2.23734 -2.68729,-0.89577 -2.23317,0.89577 -1.79154,2.23734 -0.89575,5.81623 0.89575,6.26621 z m -48.77137,-46.53405 1.79153,2.23733 2.23734,0.89577 2.68313,-0.89577 1.79153,-2.23733 0.8916,-5.81624 -0.8916,-6.26202 -1.79153,-2.23734 -2.68313,-0.89578 -2.23734,0.89578 -1.79153,2.23734 -0.89577,6.26202 0.89577,5.81624 z m -28.18957,-18.79027 4.02886,0 9.39514,17.0029 0,-17.0029 4.02886,0 0,25.50228 -4.02886,0 -9.39514,-17.00292 0,17.00292 -4.02886,0 0,-25.50228 z m 51.90448,46.53405 4.02469,0 0,21.4734 11.63664,0 0,4.0247 -15.66133,0 0,-25.4981 z m -55.03342,0 4.02887,0 0,25.50226 -4.02887,0 0,-25.50226 z m -43.400944,0 14.765574,0 0,4.02469 -10.740864,0 0,6.26204 7.60776,0 0,4.0247 -7.60776,0 0,7.16197 11.632464,0 0,4.0247 -15.657174,0 0,-25.4981 z m -23.7149,0 4.47466,0 5.36627,17.44453 5.37044,-17.44453 4.02886,0 -8.05356,25.4981 -3.13311,0 -8.05356,-25.4981 z m 43.846744,0 4.02886,0 0,10.28673 9.39514,0 0,-10.28673 4.02888,0 0,25.4981 -4.02888,0 0,-11.18667 -9.39514,0 0,11.18667 -4.02886,0 0,-25.4981 z m 69.80315,46.0799 -3.58307,0.44997 -2.68314,2.23733 -1.79153,3.12894 -0.8916,7.16197 0.8916,7.1578 1.79153,3.12894 2.68314,2.23733 3.58307,0.89575 3.5789,-0.89575 2.68314,-2.23733 1.79153,-3.12894 0.8916,-7.1578 -0.8916,-7.16197 -1.79153,-3.12894 -2.68314,-2.23733 -3.5789,-0.44997 z m -46.98402,19.24024 1.79154,2.23733 2.68313,0.89577 2.23734,-0.89577 1.79153,-2.23733 0.89577,-6.26203 -0.89577,-5.8204 -1.79153,-2.23734 -2.23734,-0.8916 -2.68313,0.8916 -1.79154,2.23734 -0.89575,5.8204 0.89575,6.26203 z m 23.71491,-14.76556 -5.81623,0 0,-4.02471 15.66133,0 0,4.02471 -5.81623,0 0,21.4734 -4.02887,0 0,-21.4734 z m -54.137644,-4.02471 4.024714,0 5.81622,14.76139 5.81624,-14.76139 4.02887,0 0,25.49811 -4.02887,0 0,-14.76141 -5.81624,14.76141 -5.81622,-14.76141 0,14.76141 -4.024714,0 0,-25.49811 z m 102.013254,10.28673 2.23733,-0.89161 0.89577,-2.23733 -0.89577,-2.23733 -2.23733,-0.89575 -5.37044,0 0,6.26202 5.37044,0"
     style="fill:#000000;fill-opacity:1;fill-rule:evenodd;stroke:none"
     id="path5066" /><path
     inkscape:connector-curvature="0"
     d="m 282.88663,454.67306 5.81624,-0.89578 4.92047,-2.68314 4.02885,-4.02469 2.68314,-5.3746 0.89578,-5.36627 0,-410.727819 -0.89578,-5.816235 -2.68314,-4.92463 -4.02885,-4.0247 -4.92047,-2.6831397 -5.81624,-0.89576 -257.276727,0 -5.816234,0.89576 -4.924635,2.6831397 -4.0247,4.0247 -2.6873007,4.92463 -0.8916,5.816235 0,410.727819 0.8916,5.36627 2.6873007,5.3746 4.0247,4.02469 4.924635,2.68314 5.816234,0.89578 257.276727,0 z m 0,-12.52824 3.12893,-0.44997 2.23733,-2.23316 0.89578,-3.13311 0,-410.727819 -0.89578,-3.133101 -2.23733,-2.237335 -3.12893,-0.891598 -257.276727,0 -3.1331,0.891598 -2.237334,2.237335 -0.895767,3.133101 0,410.727819 0.895767,3.13311 2.237334,2.23316 3.1331,0.44997 257.276727,0"
     style="fill:#000000;fill-opacity:1;fill-rule:evenodd;stroke:none"
     id="path5068" /><path
     inkscape:connector-curvature="0"
     d="M 231.42795,213.066 95.408876,77.055268 105.6998,70.343267 l 11.63246,-5.816234 11.63248,-4.028867 12.52823,-2.237332 12.97821,-0.8916 12.52823,0.8916 12.52823,2.237332 11.63247,4.028867 11.63246,5.816234 10.29091,7.157801 9.84511,8.053569 8.05356,9.845102 7.1578,10.290901 5.81624,11.6283 4.02886,11.63664 2.23733,12.52824 0.89578,12.52407 -0.89578,12.9782 -2.23733,12.52407 -4.02886,11.63663 -5.81624,11.63247 -6.712,10.28674 z M 213.08348,231.41047 77.064426,95.399739 l -6.71201,10.290901 -5.81624,11.6283 -4.02886,12.08244 -2.68315,12.08244 -0.44579,12.97403 0.44579,12.52824 2.68315,12.52407 4.02886,12.08243 5.81624,11.18667 6.71201,10.73671 8.49935,9.39514 9.39931,8.49936 10.736714,6.71199 11.18667,5.81626 12.07827,4.02469 12.52823,2.6873 12.52823,0.89577 12.97821,-0.89577 12.07826,-2.6873 12.08244,-4.02469 11.63246,-5.37045 10.29091,-7.1578 z m 68.90738,-76.95262 -0.89577,-14.31977 -2.23733,-14.3156 -4.02469,-13.8698 -5.37045,-12.978207 -7.1578,-12.52407 -8.05773,-11.632468 -9.84093,-10.740869 -10.74088,-9.840933 -11.63246,-8.053569 -12.52823,-7.161967 -12.97405,-5.366267 -13.8698,-4.024702 -14.31977,-2.237333 -14.31977,-0.895768 -14.31561,0.895768 -13.8698,2.237333 -13.86979,4.024702 -12.978224,5.366267 -12.52822,7.161967 -11.63247,8.053569 -10.73671,9.840933 -9.8451,10.740869 -8.05356,11.632468 -7.15781,12.52407 -5.37044,12.978207 -4.02886,13.8698 -2.237333,14.3156 -0.891605,14.31977 0.891605,14.31561 2.237333,13.8698 4.02886,13.8698 5.37044,12.9782 7.15781,12.52407 8.05356,12.08245 9.8451,10.29089 10.73671,9.84094 11.63247,8.05356 12.52822,7.15781 12.978224,5.37044 13.86979,4.02887 13.8698,2.23733 14.31561,0.89159 14.31977,-0.89159 14.31977,-2.23733 13.8698,-4.02887 12.97405,-5.37044 12.52823,-7.15781 11.63246,-8.05356 10.74088,-9.84094 9.84093,-10.29089 8.05773,-12.08245 7.1578,-12.52407 5.37045,-12.9782 4.02469,-13.8698 2.23733,-13.8698 0.89577,-14.31561"
     style="fill:#ef2c30;fill-opacity:1;fill-rule:evenodd;stroke:none"
     id="path5064" /></svg>