<?xml version="1.0" encoding="UTF-8" standalone="no"?>
<!-- Created with Inkscape (http://www.inkscape.org/) -->

<svg
   xmlns:dc="http://purl.org/dc/elements/1.1/"
   xmlns:cc="http://creativecommons.org/ns#"
   xmlns:rdf="http://www.w3.org/1999/02/22-rdf-syntax-ns#"
   xmlns:svg="http://www.w3.org/2000/svg"
   xmlns="http://www.w3.org/2000/svg"
   xmlns:sodipodi="http://sodipodi.sourceforge.net/DTD/sodipodi-0.dtd"
   xmlns:inkscape="http://www.inkscape.org/namespaces/inkscape"
   version="1.1"
   width="95.581253"
   height="95.422501"
   id="svg2"
   xml:space="preserve"
   inkscape:version="0.48.2 r9819"
   sodipodi:docname="AJAX1.svg"><sodipodi:namedview
     pagecolor="#ffffff"
     bordercolor="#666666"
     borderopacity="1"
     objecttolerance="10"
     gridtolerance="10"
     guidetolerance="10"
     inkscape:pageopacity="0"
     inkscape:pageshadow="2"
     inkscape:window-width="1280"
     inkscape:window-height="1004"
     id="namedview19"
     showgrid="false"
     inkscape:zoom="4.0569855"
     inkscape:cx="73.169815"
     inkscape:cy="45.690164"
     inkscape:window-x="-8"
     inkscape:window-y="-8"
     inkscape:window-maximized="1"
     inkscape:current-layer="svg2"
     fit-margin-top="0.05"
     fit-margin-left="0.06"
     fit-margin-right="0.05"
     fit-margin-bottom="0.05" /><defs
     id="defs20" /><metadata
     id="metadata8"><rdf:RDF><cc:Work
         rdf:about=""><dc:format>image/svg+xml</dc:format><dc:type
           rdf:resource="http://purl.org/dc/dcmitype/StillImage" /><dc:title></dc:title></cc:Work></rdf:RDF></metadata><path
     d="m 47.99759,1.7092194 c 25.22884,0 45.69006,20.4691926 45.69006,45.7078636 0,25.260944 -20.46122,45.730137 -45.69006,45.752412 C 22.74649,93.14722 2.285266,72.678027 2.263,47.417083 2.285266,22.178412 22.74649,1.7092194 47.99759,1.7092194"
     inkscape:connector-curvature="0"
     id="path18"
     style="fill:#ffffff;fill-opacity:1" /><path
     d="m 38.0525,31.542493 13.165,-18.8875 15.05875,21.565 0.25375,0.50625 0.1525,0.5575 0,0.55625 -0.1525,0.5575 -0.30375,0.50625 -0.40625,0.405 -0.45625,0.30375 -0.5575,0.15125 -0.5575,0.05125 -0.55875,-0.10125 -6.7425,-2.1775 0,45.51 -11.45875,0 0,-45.51 -2.56125,0.84875 -4.875,-4.8425"
     style="fill:#000000;fill-opacity:1;fill-rule:nonzero;stroke:none"
     id="path3053"
     inkscape:connector-curvature="0" /><path
     id="path3732"
     style="fill:#ef2c30;fill-opacity:1;fill-rule:evenodd;stroke:none"
     d="m 76.56875,69.707497 1.6225,-2.2275 1.36875,-2.32875 1.2675,-2.48125 1.015,-2.53125 0.86125,-2.6325 0.65875,-2.6325 0.40625,-2.7325 0.25375,-2.73375 0,-2.73375 -0.1525,-2.73375 -0.40625,-2.73375 -0.5575,-2.6825 -0.81125,-2.5825 -1.01375,-2.58125 -1.16625,-2.48125 -1.36875,-2.37875 -1.52125,-2.2775 -1.72375,-2.126247 -1.87625,-2.025 -2.0275,-1.87375 -2.13,-1.67 -2.28125,-1.56875 -2.3825,-1.3675 -2.485,-1.16375 -2.535,-1.0125 -2.63625,-0.76 -2.6875,-0.6075 -2.7375,-0.405 -2.73875,-0.15125 -2.7375,0 -2.7375,0.2525 -2.6875,0.45625 -2.6875,0.6075 -2.63625,0.86 -2.535,1.06375 -2.43375,1.215 -2.3825,1.41625 -2.23125,1.57 50.85375,50.774997 z m -6.74375,6.7325 -50.85375,-50.78375 -1.57125,2.23625 -1.42,2.37875 -1.21625,2.43 -1.065,2.53125 -0.8625,2.6325 -0.60875,2.6825 -0.45625,2.68375 -0.2525,2.73375 0,2.73375 0.15125,2.73375 0.40625,2.73375 0.60875,2.6825 0.76,2.6325 1.01375,2.53125 1.16625,2.48 1.36875,2.37875 1.5725,2.27875 1.6725,2.17625 1.87625,1.975 2.0275,1.8725 2.13,1.72125 2.28125,1.51875 2.38375,1.3675 2.48375,1.16375 2.58625,1.0125 2.585,0.81 2.6875,0.55625 2.73875,0.405 2.7375,0.2025 2.7375,-0.05 2.73875,-0.25375 2.7375,-0.405 2.63625,-0.6575 2.63625,-0.86125 2.535,-1.0125 2.43375,-1.21375 2.38375,-1.4175 2.23,-1.62 z m 25.70625,-28.75375 -0.10125,-3.08875 -0.30375,-3.1375 -0.5075,-3.08875 -0.71,-3.0375 -0.9125,-2.93625 -1.115,-2.93625 -1.2675,-2.83375 L 89.1425,23.8425 87.47,21.21 85.645,18.68 83.6675,16.24875 81.5375,13.97125 79.25625,11.845 76.8225,9.87125 74.2875,8.04875 71.65125,6.42875 68.9125,4.96 66.0225,3.64375 63.1325,2.53125 60.14125,1.67 57.09875,0.96125 54.00625,0.455 50.91375,0.15125 47.77,0.05 44.6775,0.15125 41.53375,0.455 38.44125,0.96125 35.39875,1.67 32.4075,2.53125 29.5175,3.64375 26.67875,4.96 23.89,6.42875 l -2.6375,1.62 -2.535,1.8225 -2.43375,1.97375 -2.28125,2.12625 -2.12875,2.2775 L 9.89625,18.68 8.07,21.21 l -1.6225,2.6325 -1.47,2.784997 -1.3175,2.83375 -1.065,2.93625 -0.9125,2.93625 -0.71,3.0375 -0.5075,3.08875 -0.30375,3.1375 -0.10125,3.08875 0.10125,3.13875 0.30375,3.0875 0.5075,3.0875 0.71,3.0375 0.9125,2.9875 1.065,2.93625 1.3175,2.83375 1.47,2.73375 1.6225,2.6325 1.82625,2.53125 1.9775,2.43 2.12875,2.27875 2.28125,2.125 2.43375,1.975 2.535,1.8225 2.6375,1.67 2.78875,1.46875 2.83875,1.265 2.89,1.11375 2.99125,0.91125 3.0425,0.70875 3.0925,0.50625 3.14375,0.30375 3.0925,0.10125 3.14375,-0.10125 3.0925,-0.30375 3.0925,-0.50625 3.0425,-0.70875 2.99125,-0.91125 2.89,-1.11375 2.89,-1.265 2.73875,-1.46875 2.63625,-1.67 2.535,-1.8225 2.43375,-1.975 2.28125,-2.125 2.13,-2.27875 1.9775,-2.43 1.825,-2.53125 1.6725,-2.6325 1.47125,-2.73375 1.2675,-2.83375 1.115,-2.93625 0.9125,-2.9875 0.71,-3.0375 0.5075,-3.0875 0.30375,-3.0875 0.10125,-3.13875"
     inkscape:connector-curvature="0" /></svg>