<?xml version="1.0" encoding="UTF-8" standalone="no"?>
<!-- Created with Inkscape (http://www.inkscape.org/) -->

<svg
   xmlns:dc="http://purl.org/dc/elements/1.1/"
   xmlns:cc="http://creativecommons.org/ns#"
   xmlns:rdf="http://www.w3.org/1999/02/22-rdf-syntax-ns#"
   xmlns:svg="http://www.w3.org/2000/svg"
   xmlns="http://www.w3.org/2000/svg"
   xmlns:sodipodi="http://sodipodi.sourceforge.net/DTD/sodipodi-0.dtd"
   xmlns:inkscape="http://www.inkscape.org/namespaces/inkscape"
   version="1.1"
   width="292.12695"
   height="437.25305"
   id="svg2"
   xml:space="preserve"
   inkscape:version="0.48.2 r9819"
   sodipodi:docname="AJAX1.svg"><sodipodi:namedview
     pagecolor="#ffffff"
     bordercolor="#666666"
     borderopacity="1"
     objecttolerance="10"
     gridtolerance="10"
     guidetolerance="10"
     inkscape:pageopacity="0"
     inkscape:pageshadow="2"
     inkscape:window-width="1280"
     inkscape:window-height="1004"
     id="namedview19"
     showgrid="false"
     inkscape:zoom="1.0142464"
     inkscape:cx="146.92678"
     inkscape:cy="148.85251"
     inkscape:window-x="-8"
     inkscape:window-y="-8"
     inkscape:window-maximized="1"
     inkscape:current-layer="svg2"
     fit-margin-top="0"
     fit-margin-left="0"
     fit-margin-right="0"
     fit-margin-bottom="0" /><defs
     id="defs20" /><metadata
     id="metadata8"><rdf:RDF><cc:Work
         rdf:about=""><dc:format>image/svg+xml</dc:format><dc:type
           rdf:resource="http://purl.org/dc/dcmitype/StillImage" /><dc:title /></cc:Work></rdf:RDF></metadata><path
     inkscape:connector-curvature="0"
     d="m 267.77281,436.25939 6.1493,-0.41245 5.73684,-2.45805 4.50364,-3.68708 3.69125,-4.92026 2.45805,-5.73685 0.82073,-5.73684 0,-388.938552 -0.82073,-6.14929 -2.45805,-5.73684 -3.69125,-4.5078181 -4.50364,-3.68706 -5.73684,-2.46223 -6.1493,-0.81657 -243.81778,0 -5.73683,0.81657 -5.73685,2.46223 -4.9160975,3.68706 -3.68707,4.5078181 -2.04976,5.73684 -0.82074,6.14929 0,388.938552 0.82074,5.73684 2.04976,5.73685 3.68707,4.92026 4.9160975,3.68708 5.73685,2.45805 5.73683,0.41245 243.81778,0 z"
     style="fill:#ffffff;fill-opacity:1;fill-rule:evenodd;stroke:#000000;stroke-width:1.99976981;stroke-linecap:round;stroke-linejoin:round;stroke-miterlimit:10;stroke-opacity:1;stroke-dasharray:none"
     id="path3766" /><path
     style="font-size:11.88700008px;font-style:normal;font-variant:normal;font-weight:bold;font-stretch:normal;text-indent:0;text-align:start;text-decoration:none;line-height:normal;letter-spacing:normal;word-spacing:normal;text-transform:none;direction:ltr;block-progression:tb;writing-mode:lr-tb;text-anchor:start;baseline-shift:baseline;color:#000000;fill:#000000;fill-opacity:1;fill-rule:nonzero;stroke:none;stroke-width:0;marker:none;visibility:visible;display:inline;overflow:visible;enable-background:accumulate;font-family:HelveticaNeue;-inkscape-font-specification:HelveticaNeue-Bold"
     d="m 86.02285,285.02681 c -3.89562,3e-5 -7.14058,1.77732 -9.58223,5.20772 -2.45011,3.44237 -3.64541,8.21383 -3.64541,14.16504 0,3.16574 0.52638,6.11223 1.56232,8.9573 1.04045,2.85751 2.63963,5.1993 4.68696,6.87421 2.05077,1.67777 4.36856,2.49972 6.97836,2.49972 2.41426,0 4.70117,-0.77818 6.77006,-2.29141 2.08433,-1.52452 3.67678,-3.76 4.79112,-6.66589 1.11323,-2.90318 1.66643,-6.14517 1.66647,-9.79054 -4e-5,-3.59516 -0.50491,-6.82495 -1.56232,-9.6864 -1.05895,-2.86543 -2.6361,-5.14253 -4.68697,-6.77005 -2.04966,-1.62651 -4.41812,-2.49967 -6.97836,-2.4997 z m 54.68123,0 c -3.89562,3e-5 -7.14062,1.77732 -9.58223,5.20772 -2.45012,3.44237 -3.64541,8.21383 -3.64541,14.16504 0,3.16574 0.52637,6.11223 1.56231,8.9573 1.04042,2.85751 2.53551,5.1993 4.58281,6.87421 2.0508,1.67775 4.47275,2.49972 7.08252,2.49972 2.41429,0 4.597,-0.77818 6.6659,-2.29141 2.08436,-1.52452 3.67681,-3.76 4.79111,-6.66589 1.11327,-2.90321 1.66648,-6.14517 1.66648,-9.79054 0,-3.59516 -0.50491,-6.82495 -1.56232,-9.6864 -1.05895,-2.86546 -2.63614,-5.14253 -4.68697,-6.77005 -2.04969,-1.62651 -4.31396,-2.49967 -6.8742,-2.4997 z m -83.11545,0.10415 c -1.86425,3e-5 -3.56536,0.40225 -5.10358,1.24985 -1.54972,0.85401 -2.73905,2.11106 -3.54126,3.74957 -0.79491,1.62371 -1.24986,3.34742 -1.24986,5.20773 0,1.69195 0.38476,3.30092 1.04155,4.68697 0.66026,1.39337 1.68754,2.50604 3.02049,3.4371 1.0668,0.75525 2.74335,1.50239 5.20773,2.2914 2.43355,0.77918 4.0533,1.33705 4.68696,1.66648 1.05002,0.5327 1.76276,1.25019 2.18725,1.97893 0.43478,0.74625 0.62489,1.56396 0.62493,2.60387 -4e-5,1.01999 -0.16265,1.95778 -0.62493,2.81218 -0.45275,0.8365 -1.13131,1.48616 -2.08309,1.97894 -0.94866,0.49114 -2.05717,0.72908 -3.33296,0.72908 -1.43383,0 -2.72301,-0.28164 -3.85372,-0.93739 -1.1372,-0.65965 -1.9705,-1.55643 -2.49971,-2.60387 -0.5353,-1.05945 -0.88813,-2.43681 -1.04154,-4.16618 l 0,-0.52078 -0.52078,0.10415 -3.33295,0.31247 -0.41662,0.10416 0,0.41661 c 0.0496,2.43208 0.49808,4.61201 1.45816,6.56175 0.9616,1.95274 2.34617,3.49193 4.06204,4.47865 1.71834,0.98815 3.7788,1.45817 6.24928,1.45817 1.97934,0 3.8197,-0.48286 5.41605,-1.45817 1.59724,-0.97589 2.79777,-2.3159 3.64541,-4.06204 0.84226,-1.73509 1.35398,-3.66664 1.35401,-5.62435 -3e-5,-1.96684 -0.47301,-3.67071 -1.24986,-5.20773 -0.78125,-1.54552 -1.92695,-2.8614 -3.54126,-3.85372 -1.14913,-0.69652 -3.16537,-1.42394 -6.04097,-2.29141 -2.82747,-0.85293 -4.59157,-1.77373 -5.10357,-2.39555 -0.60748,-0.72475 -0.83325,-1.62875 -0.83325,-2.81218 0,-1.35641 0.35683,-2.48295 1.24986,-3.4371 0.84894,-0.90707 2.32827,-1.35398 4.3745,-1.35402 1.94967,4e-5 3.22982,0.53744 4.16619,1.56233 0.94581,1.03528 1.59498,2.62052 1.77063,4.79111 l 0,0.52077 0.52076,-0.10415 3.43711,-0.31246 0.41662,-0.10416 0,-0.41662 c -0.0623,-2.14059 -0.50934,-4.11776 -1.35401,-5.83266 -0.8492,-1.7239 -2.0532,-3.06248 -3.64542,-3.95788 -1.58635,-0.89203 -3.47816,-1.24982 -5.52019,-1.24985 z m 175.91726,0 c -2.73882,3e-5 -5.28042,0.67668 -7.39498,2.18724 -2.12895,1.52097 -3.68387,3.91815 -4.79111,6.97836 -1.10291,3.04829 -1.66648,6.28841 -1.66648,9.79054 0,3.5342 0.55361,6.69667 1.66648,9.58224 1.11683,2.89597 2.77707,5.2169 4.99942,6.77005 2.21218,1.54605 4.6886,2.29141 7.39499,2.29141 2.0141,0 4.03626,-0.49945 5.93681,-1.45817 1.89981,-0.95836 3.65548,-2.39873 5.41604,-4.27035 l 0.20831,-0.10414 0,-0.20831 0,-13.1235 0,-0.52077 -0.52077,0 -11.24871,0 -0.52077,0 0,0.52077 0,4.16619 0,0.52077 0.52077,0 7.29084,0 0,5.83266 c -0.69336,0.78889 -1.66005,1.5582 -3.02049,2.29141 -1.38638,0.74721 -2.83267,1.1457 -4.27035,1.1457 -1.65484,0 -3.19936,-0.47401 -4.68695,-1.45817 -1.46104,-0.96662 -2.54542,-2.42488 -3.33296,-4.47865 -0.78637,-2.05072 -1.24989,-4.69488 -1.24985,-7.81159 -4e-5,-2.51918 0.38076,-4.83841 1.04154,-6.97837 0.38523,-1.22966 0.87083,-2.31013 1.56233,-3.33295 0.67525,-0.99885 1.59828,-1.77762 2.70802,-2.39555 1.08784,-0.60554 2.41769,-0.93737 3.95787,-0.9374 1.26479,3e-5 2.41276,0.25531 3.43711,0.83324 1.03028,0.58129 1.74399,1.33804 2.2914,2.2914 0.55377,0.96462 1.06614,2.39196 1.45817,4.16619 l 0.10416,0.52078 0.52076,-0.20832 3.2288,-1.1457 0.41661,-0.20831 -0.10414,-0.41661 c -0.46702,-2.42536 -1.15984,-4.3852 -2.0831,-5.93682 -0.92746,-1.55866 -2.22588,-2.77539 -3.85372,-3.64542 -1.62905,-0.8706 -3.4219,-1.24982 -5.41605,-1.24985 z m -129.04764,0.52077 0,0.52077 0,35.51675 0,0.41661 0.52077,0 16.66476,0 0.41661,0 0,-0.41661 0,-4.27034 0,-0.41663 -0.41661,0 -12.60272,0 0,-30.82978 0,-0.52077 -0.52077,0 -3.54127,0 -0.52077,0 z m 64.99251,0 0,0.52077 0,4.16619 0,0.52078 0.52078,0 8.22823,0 0,30.82978 0,0.41661 0.52076,0 3.54127,0 0.41661,0 0,-0.41661 0,-30.82978 8.33238,0 0.52077,0 0,-0.52078 0,-4.16619 0,-0.52077 -0.52077,0 -21.03925,0 -0.52078,0 z m 31.24641,0 -0.10415,0.41662 -10.20716,35.41259 -0.20831,0.62492 0.62493,0 3.74956,0 0.41663,0 0.10415,-0.31245 2.81218,-10.41548 10.3113,0 3.02049,10.41548 0.10416,0.31245 0.41662,0 3.95788,0 0.72908,0 -0.20832,-0.62492 -10.93624,-35.41259 -0.10415,-0.41662 -0.31246,0 -3.85372,0 -0.31247,0 z m -114.67432,4.47865 c 1.64022,3e-5 3.14847,0.5474 4.47866,1.66648 1.32691,1.11637 2.31156,2.70508 3.02048,4.79111 0.70949,2.08769 1.04155,4.55158 1.04155,7.39499 0,4.49975 -0.76618,7.84236 -2.39556,10.20715 -1.64224,2.38339 -3.65395,3.54126 -6.14513,3.54126 -2.44155,0 -4.38612,-1.07544 -6.04097,-3.43711 -1.64457,-2.347 -2.49971,-5.68981 -2.49971,-9.89469 0,-5.27992 0.82164,-8.90814 2.49971,-11.0404 1.7257,-2.19281 3.70327,-3.22876 6.04097,-3.22879 z m 54.68123,0 c 1.64024,3e-5 3.04431,0.5474 4.3745,1.66648 1.32687,1.11637 2.41568,2.70508 3.12464,4.79111 0.70945,2.08769 1.04151,4.55158 1.04154,7.39499 -3e-5,4.49975 -0.87033,7.84239 -2.49971,10.20715 -1.64224,2.38343 -3.65392,3.54126 -6.14513,3.54126 -2.44151,0 -4.38612,-1.07544 -6.04096,-3.43711 -1.64462,-2.347 -2.49975,-5.68981 -2.49972,-9.89469 -3e-5,-5.27992 0.92583,-8.90814 2.60386,-11.0404 1.72574,-2.19281 3.70328,-3.22876 6.04098,-3.22879 z m 62.18034,1.97893 c 0.38549,1.60265 0.74462,3.16421 1.35401,5.3119 l 2.60387,9.16561 -7.70744,0 2.81217,-9.79054 c 0.43048,-1.56455 0.64122,-3.10645 0.93739,-4.68697 z M 70.50381,340.74956 c -2.73235,2e-5 -5.06392,1.24811 -6.77005,3.64541 -1.71464,2.40926 -2.49972,5.66541 -2.49972,9.79054 0,2.20018 0.32097,4.2697 1.04155,6.24928 0.72522,1.992 1.79316,3.61648 3.22879,4.79111 1.4391,1.1775 3.16644,1.77063 4.99943,1.77063 1.69757,0 3.23725,-0.50188 4.68695,-1.56232 1.46521,-1.07174 2.55638,-2.6616 3.33296,-4.68696 0.77554,-2.02267 1.24982,-4.34447 1.24986,-6.87421 -4e-5,-2.49451 -0.40916,-4.6725 -1.14571,-6.6659 -0.73805,-1.99747 -1.78959,-3.64888 -3.22879,-4.79111 -1.43801,-1.14124 -3.09678,-1.66645 -4.89527,-1.66647 z m 32.49627,0 c -1.30884,2e-5 -2.56123,0.23563 -3.64543,0.83323 -1.09568,0.60386 -1.93394,1.55229 -2.49971,2.70802 -0.5584,1.14087 -0.83324,2.34043 -0.83324,3.64541 0,1.18667 0.26564,2.35464 0.72909,3.33296 0.46698,0.98562 1.14416,1.73966 2.08308,2.39556 0.76289,0.5401 1.93907,1.1201 3.64544,1.66647 1.67554,0.53654 2.81638,0.93135 3.2288,1.1457 0.70478,0.35759 1.18379,0.77877 1.45816,1.24985 0.28463,0.48865 0.41662,1.07591 0.41662,1.77064 0,0.67978 -0.10998,1.20392 -0.41662,1.77062 -0.29697,0.54884 -0.82537,1.02635 -1.45816,1.35402 -0.6296,0.32596 -1.32792,0.52077 -2.18725,0.52077 -0.96469,0 -1.84842,-0.29097 -2.60387,-0.72908 -0.76194,-0.44205 -1.21141,-0.97179 -1.56234,-1.66648 -0.35709,-0.70682 -0.62466,-1.63318 -0.72908,-2.81218 l -0.10415,-0.52077 -0.41663,0.10416 -2.29139,0.2083 0,0.52078 -0.52078,0 0,0.52077 0.10416,0 c 0.094,1.47367 0.34042,2.84954 0.93739,4.06203 0.67449,1.36995 1.70517,2.42809 2.91633,3.12464 1.21367,0.69812 2.65081,1.04155 4.37452,1.04155 1.3902,0 2.72834,-0.35389 3.85372,-1.04155 1.1263,-0.68825 2.00767,-1.68804 2.60386,-2.91633 0.5908,-1.21726 0.83324,-2.48134 0.83324,-3.85372 0,-1.37651 -0.2853,-2.66532 -0.83324,-3.74957 -0.5523,-1.09274 -1.36571,-1.90671 -2.49971,-2.60387 -0.81887,-0.49637 -2.17808,-1.06664 -4.16618,-1.66647 -1.93998,-0.58526 -3.13531,-1.19569 -3.437126,-1.56232 -0.393524,-0.46961 -0.624934,-1.08664 -0.624934,-1.87478 0,-0.9012 0.2423,-1.55573 0.83326,-2.18725 0.5469,-0.58437 1.53056,-0.93739 2.91633,-0.93739 1.31545,0 2.20041,0.37185 2.81217,1.04155 0.62124,0.68005 1.02639,1.64947 1.14571,3.12463 l 0,0.52078 0.52077,0 2.2914,-0.31247 0.52078,0 0,-0.41661 c -0.0434,-1.4952 -0.34413,-2.85748 -0.93739,-4.06204 -0.59777,-1.21363 -1.47886,-2.17942 -2.60388,-2.81217 -1.11913,-0.62923 -2.42328,-0.93737 -3.85372,-0.93739 z m 31.35057,0 c -1.30886,2e-5 -2.56125,0.23563 -3.64542,0.83323 -1.09567,0.60386 -1.93394,1.55229 -2.49971,2.70802 -0.55841,1.14087 -0.83324,2.34043 -0.83324,3.64541 0,1.18663 0.26563,2.35464 0.72908,3.33296 0.46698,0.98562 1.14418,1.73966 2.0831,2.39556 0.76287,0.5401 1.93904,1.1201 3.64541,1.66647 1.67554,0.53654 2.81637,0.93135 3.22879,1.1457 0.70475,0.35759 1.1838,0.77877 1.45817,1.24985 0.28464,0.48865 0.41662,1.07591 0.41662,1.77064 0,0.67978 -0.10999,1.20392 -0.41662,1.77062 -0.29696,0.54884 -0.82537,1.02635 -1.45817,1.35402 -0.62959,0.32596 -1.32791,0.52077 -2.18725,0.52077 -0.96469,0 -1.84841,-0.29097 -2.60386,-0.72908 -0.76195,-0.44205 -1.2114,-0.97179 -1.56232,-1.66648 -0.3571,-0.70682 -0.62467,-1.63318 -0.72908,-2.81218 l -0.10416,-0.52077 -0.41661,0.10416 -2.29141,0.2083 0,0.52078 -0.52078,0 0,0.52077 0.10416,0 c 0.094,1.47367 0.34043,2.84954 0.93739,4.06203 0.67449,1.36995 1.70517,2.42809 2.91634,3.12464 1.21366,0.69812 2.65079,1.04155 4.37449,1.04155 1.39021,0 2.72836,-0.35389 3.85372,-1.04155 1.1263,-0.68825 1.90349,-1.68804 2.49972,-2.91633 0.5908,-1.21726 0.93739,-2.48134 0.93739,-3.85372 0,-1.37651 -0.2853,-2.66532 -0.83323,-3.74957 -0.55231,-1.09274 -1.36572,-1.90671 -2.49972,-2.60387 -0.8189,-0.49634 -2.17809,-1.06664 -4.16619,-1.66647 -1.93998,-0.58526 -3.1353,-1.19569 -3.4371,-1.56232 -0.39352,-0.46961 -0.62493,-1.08664 -0.62493,-1.87478 0,-0.9012 0.24231,-1.55573 0.83324,-2.18725 0.54691,-0.58437 1.53055,-0.93739 2.91633,-0.93739 1.31544,0 2.20041,0.37185 2.81218,1.04155 0.62122,0.68005 1.02638,1.64947 1.1457,3.12463 l 0,0.52078 0.52077,0 2.2914,-0.31247 0.52077,0 0,-0.41661 c -0.0434,-1.4952 -0.34413,-2.85748 -0.93739,-4.06204 -0.59776,-1.2136 -1.47886,-2.17942 -2.60386,-2.81217 -1.11915,-0.62923 -2.42329,-0.93737 -3.85372,-0.93739 z m -17.60215,0.41661 0,0.52078 0,24.37219 0,0.52078 0.52078,0 2.39556,0 0.52077,0 0,-0.52078 0,-24.37219 0,-0.52078 -0.52077,0 -2.39556,0 -0.52078,0 z m 29.57993,0 0,0.52078 0,2.81217 0,0.52077 0.52077,0 5.52021,0 0,21.03925 0,0.52078 0.52076,0 2.39557,0 0.52076,0 0,-0.52078 0,-21.03925 5.52021,0 0.52077,0 0,-0.52077 0,-2.81217 0,-0.52078 -0.52077,0 -14.47751,0 -0.52077,0 z m 20.62263,0 0,0.52078 0,24.37219 0,0.52078 0.52077,0 13.74842,0 0.41661,0 0,-0.52078 0,-2.81218 0,-0.52077 -0.41661,0 -10.83209,0 0,-7.39498 9.68639,0 0.52077,0 0,-0.41662 0,-2.91633 0,-0.52077 -0.52077,0 -9.68639,0 0,-6.4576 10.31131,0 0.52078,0 0,-0.52077 0,-2.81217 0,-0.52078 -0.52078,0 -13.22764,0 -0.52077,0 z m 20.10185,0 0,0.52078 0,24.37219 0,0.52078 0.52077,0 2.29141,0 0.52077,0 0,-0.52078 0,-16.87306 4.27034,16.97721 0.10416,0.41663 0.41662,0 2.18724,0 0.41662,0 0.10416,-0.41663 4.27034,-16.45643 0,16.35228 0,0.52078 0.52077,0 2.39556,0 0.41662,0 0,-0.52078 0,-24.37219 0,-0.52078 -0.41662,0 -3.33295,0 -0.31247,0 -0.10415,0.31247 -4.37449,17.08137 c -0.21565,0.84076 -0.3605,1.23152 -0.52078,1.87478 -0.13465,-0.55447 -0.23997,-0.85014 -0.41662,-1.56233 l -4.3745,-17.39382 0,-0.31247 -0.41661,0 -3.64542,0 -0.52077,0 z m 32.07963,0 -0.10414,0.31247 -7.08252,24.47634 -0.20831,0.62494 0.72908,0 2.49972,0 0.41661,0 0.10415,-0.31247 1.87479,-7.08252 6.97836,0 1.97894,7.08252 0.10416,0.31247 0.41662,0 2.70802,0 0.72908,0 -0.20831,-0.62494 -7.49914,-24.47634 -0.10415,-0.31247 -0.41662,0 -2.60387,0 -0.31247,0 z m -148.62873,3.33295 c 1.0961,4e-5 2.0233,0.39436 2.91633,1.14571 0.88973,0.74864 1.60121,1.81065 2.08309,3.22878 0.48238,1.41987 0.72908,3.05159 0.72908,4.99943 0,3.08392 -0.56806,5.38401 -1.66647,6.97836 -1.11127,1.61296 -2.39266,2.39556 -4.06203,2.39556 -1.63468,0 -2.9419,-0.69271 -4.06204,-2.2914 -1.10984,-1.58405 -1.77066,-3.89099 -1.77062,-6.77005 -4e-5,-3.62399 0.64982,-6.0748 1.77062,-7.49914 1.16847,-1.4849 2.49735,-2.18721 4.06204,-2.18725 z m 150.19106,1.97894 c 0.23763,0.94546 0.49701,1.73127 0.83324,2.91633 l 1.66647,6.14513 -4.79112,0 1.77063,-6.56175 c 0.22898,-0.83194 0.34673,-1.66114 0.52078,-2.49971 z m 8.33237,31.76718 c -2.73239,3e-5 -5.06391,1.24812 -6.77005,3.64541 -1.71464,2.40926 -2.60387,5.76957 -2.60387,9.89469 0,2.20018 0.42502,4.26971 1.14571,6.24929 0.72521,1.992 1.79315,3.61647 3.22878,4.79111 1.43911,1.1775 3.06228,1.77063 4.89528,1.77063 1.69757,0 3.34138,-0.60603 4.79112,-1.66648 1.46516,-1.07174 2.55637,-2.55741 3.33294,-4.5828 0.77555,-2.02267 1.14567,-4.34447 1.1457,-6.87422 -3e-5,-2.4945 -0.30496,-4.77664 -1.04154,-6.77005 -0.73808,-1.99743 -1.89381,-3.54472 -3.33295,-4.68695 -1.43804,-1.14124 -2.99266,-1.7706 -4.79112,-1.77063 z m -175.91727,0.41661 0,0.52078 0,24.47634 0,0.52078 0.52078,0 2.39556,0 0.52077,0 0,-0.52078 0,-11.04039 8.54068,0 0,11.04039 0,0.52078 0.52078,0 2.39555,0 0.52078,0 0,-0.52078 0,-24.47634 0,-0.52078 -0.52078,0 -2.39555,0 -0.52078,0 0,0.52078 0,9.58223 -8.54068,0 0,-9.58223 0,-0.52078 -0.52077,0 -2.39556,0 -0.52078,0 z m 27.70515,0 -0.10415,0.41662 -7.08252,24.47635 -0.20831,0.62493 0.72908,0 2.49972,0 0.41661,0 0.10415,-0.41662 1.87479,-6.97836 6.97836,0 1.97894,6.97836 0.10415,0.41662 0.41663,0 2.70802,0 0.72908,0 -0.2083,-0.62493 -7.49915,-24.47635 -0.10415,-0.41662 -0.41662,0 -2.60387,0 -0.31246,0 z m 15.83151,0 0,0.52078 0,24.47634 0,0.52078 0.52077,0 6.97839,0 c 1.20603,0 2.25067,-0.12066 3.12464,-0.41662 0.86663,-0.29329 1.59494,-0.76157 2.18725,-1.35401 0.60206,-0.60226 1.07814,-1.46863 1.45816,-2.49971 0.38442,-1.04301 0.52074,-2.13506 0.52078,-3.33295 -4e-5,-1.49289 -0.29298,-2.82794 -0.93739,-3.95788 -0.53061,-0.93029 -1.37815,-1.48786 -2.29141,-1.97894 0.69142,-0.56333 1.28969,-1.16113 1.66647,-1.97894 0.45512,-0.98792 0.72906,-2.11588 0.72909,-3.22879 -3e-5,-1.19403 -0.22031,-2.34553 -0.72909,-3.43711 -0.514,-1.10264 -1.24632,-1.9495 -2.18724,-2.4997 -0.94993,-0.55555 -2.18609,-0.83322 -3.64542,-0.83325 l -6.87423,0 -0.52077,0 z m 22.08081,0 0,0.52078 0,24.47634 0,0.52078 0.52078,0 2.39556,0 0.52077,0 0,-0.52078 0,-24.47634 0,-0.52078 -0.52077,0 -2.39556,0 -0.52078,0 z m 10.62378,0 0,0.52078 0,24.47634 0,0.52078 0.52077,0 11.45702,0 0.52077,0 0,-0.52078 0,-2.91633 0,-0.52076 -0.52077,0 -8.54069,0 0,-21.03925 0,-0.52078 -0.41661,0 -2.49972,0 -0.52077,0 z m 19.37277,0 0,0.52078 0,24.47634 0,0.52078 0.41662,0 2.49971,0 0.41662,0 0,-0.52078 0,-24.47634 0,-0.52078 -0.41662,0 -2.49971,0 -0.41662,0 z m 9.26977,0 0,0.52078 0,2.91633 0,0.52077 0.52076,0 5.52021,0 0,21.03924 0,0.52078 0.52077,0 2.39556,0 0.52077,0 0,-0.52078 0,-21.03924 5.62436,0 0.41661,0 0,-0.52077 0,-2.91633 0,-0.52078 -0.41661,0 -14.58167,0 -0.52076,0 z m 23.85142,0 0,0.41662 -7.08252,24.47635 -0.20831,0.62493 0.72909,0 2.4997,0 0.41663,0 0.10415,-0.41662 1.87478,-6.97836 6.97837,0 1.97894,6.97836 0.10415,0.41662 0.41662,0 2.70801,0 0.72909,0 -0.20831,-0.62493 -7.49914,-24.47635 -0.10416,-0.41662 -0.41661,0 -2.60386,0 -0.41662,0 z m 16.03982,0 0,0.52078 0,24.47634 0,0.52078 0.52077,0 6.56175,0 c 1.15049,0 2.20964,-0.11899 3.12464,-0.41662 0.91192,-0.29663 1.73566,-0.76525 2.39555,-1.35401 0.66003,-0.58886 1.24169,-1.4184 1.77063,-2.39556 0.53801,-0.99395 0.91736,-2.17938 1.24986,-3.64541 0.33529,-1.47953 0.52077,-3.21767 0.52077,-5.10358 0,-2.21578 -0.23464,-4.18735 -0.72909,-5.93681 -0.49567,-1.7532 -1.26614,-3.2193 -2.29139,-4.3745 -0.79831,-0.90917 -1.78033,-1.52623 -2.91633,-1.87479 -0.83618,-0.2603 -1.98435,-0.41659 -3.43711,-0.41662 l -6.24928,0 -0.52077,0 z m 31.14224,3.43711 c 1.09611,3e-5 2.0233,0.2903 2.91634,1.04155 0.8897,0.74861 1.60121,1.81065 2.08308,3.22879 0.48239,1.41987 0.72909,3.15574 0.72909,5.10357 0,3.08392 -0.56807,5.38403 -1.66648,6.97837 -1.11127,1.61295 -2.49677,2.39556 -4.16618,2.39556 -1.63468,0 -2.94189,-0.79687 -4.06203,-2.39556 -1.10984,-1.58405 -1.66652,-3.78683 -1.66648,-6.6659 -4e-5,-3.62397 0.64983,-6.17895 1.77064,-7.60329 1.16846,-1.4849 2.49734,-2.08306 4.06202,-2.08309 z m -128.94349,0.52077 3.12464,0 c 1.28836,3e-5 2.19552,0.14082 2.60387,0.31247 0.42285,0.17797 0.79091,0.40708 1.04154,0.93739 0.25565,0.54053 0.31247,1.22729 0.31247,1.97894 -3e-5,0.79527 -0.0515,1.40096 -0.31247,1.87478 -0.26029,0.47188 -0.62489,0.835 -1.14569,1.04155 -0.3428,0.13898 -1.1411,0.20831 -2.18725,0.20831 l -3.43711,0 0,-6.35344 z m 101.23835,0 3.33295,0 c 1.40367,0 2.39962,0.15165 2.91633,0.41662 0.76481,0.39669 1.4824,1.18923 2.08309,2.49971 0.58051,1.26622 0.83321,3.2124 0.83324,5.72851 -3e-5,1.81663 -0.10898,3.34141 -0.41661,4.58281 -0.30964,1.24996 -0.72892,2.22158 -1.24986,2.91633 -0.35413,0.47228 -0.83867,0.8752 -1.45817,1.1457 -0.58926,0.25731 -1.43643,0.31247 -2.60386,0.31247 l -3.43711,0 0,-17.60215 z M 82.37744,384.0779 c 0.23764,0.94546 0.49701,1.73126 0.83324,2.91633 l 1.66648,6.14513 -4.79113,0 1.77064,-6.56175 c 0.22897,-0.83194 0.34669,-1.66115 0.52077,-2.49971 z m 101.13421,0 c 0.23764,0.94546 0.49701,1.73126 0.83323,2.91633 l 1.66648,6.14513 -4.79111,0 1.77063,-6.56175 c 0.22897,-0.83194 0.34669,-1.66115 0.52077,-2.49971 z m -83.4279,8.74899 3.74957,0 c 1.12814,0 1.98407,0.19064 2.49972,0.41662 0.5141,0.22531 0.8387,0.55597 1.1457,1.14571 0.30763,0.59052 0.52073,1.33954 0.52077,2.18724 -4e-5,0.72648 -0.0995,1.35031 -0.31246,1.87478 -0.21931,0.5394 -0.53791,0.90063 -0.83325,1.1457 -0.30829,0.25597 -0.64811,0.50618 -1.14569,0.62494 -0.22431,0.055 -0.79531,0 -1.56232,0 l -4.06204,0 0,-7.39499 z"
     id="path4583"
     inkscape:connector-curvature="0" /><path
     style="font-size:medium;font-style:normal;font-variant:normal;font-weight:normal;font-stretch:normal;text-indent:0;text-align:start;text-decoration:none;line-height:normal;letter-spacing:normal;word-spacing:normal;text-transform:none;direction:ltr;block-progression:tb;writing-mode:lr-tb;text-anchor:start;baseline-shift:baseline;color:#000000;fill:#000000;fill-opacity:1;stroke:none;stroke-width:0;marker:none;visibility:visible;display:inline;overflow:visible;enable-background:accumulate;font-family:Sans;-inkscape-font-specification:Sans"
     d="m 92.79291,68.385048 -2.2914,11.87363 c 39.87059,7.52496 76.28494,9.81417 113.73692,0 l -3.02049,-11.76948 c -35.17298,9.21697 -69.44633,7.2525 -108.42503,-0.10399 z m -1.77064,30.10069 -2.18724,11.873672 c 39.92916,7.53684 79.5279,9.73362 117.06988,-0.10399 l -3.02049,-11.665352 c -35.083,9.193402 -72.95033,7.240672 -111.86215,-0.10398 z m -3.43709,28.850882 -2.18725,11.87363 c 40.02741,7.55457 84.60154,9.76442 122.27761,-0.10398 l -3.12465,-11.66532 c -34.9489,9.15424 -78.14383,7.2229 -116.96571,-0.104 z"
     id="path3790"
     inkscape:connector-curvature="0" /><path
     inkscape:connector-curvature="0"
     d="m 267.77278,419.0447 2.8705,-0.82074 2.45805,-2.04976 0.40829,-2.86634 0,-388.938582 -0.40829,-2.8705 -2.45805,-2.45805 -2.8705,-0.82075 -243.81778,0 -2.86634,0.82075 -2.04976,2.45805 -0.82074,2.8705 0,388.938582 0.82074,2.86634 2.04976,2.04976 2.86634,0.82074 243.81778,0 z m 0,11.47785 5.32855,-0.82074 4.91611,-2.45805 4.09953,-3.69124 2.45805,-4.9161 0.82073,-5.32856 0,-388.938582 -0.82073,-5.73684 -2.45805,-4.50782 -4.09953,-4.09952 -4.91611,-2.4580481 -5.32855,-0.82074 -243.81778,0 -5.32439,0.82074 -4.92026,2.4580481 -3.68708,4.09952 -2.4580475,4.50782 -0.82074,5.73684 0,388.938582 0.82074,5.32856 2.4580475,4.9161 3.68708,3.69124 4.92026,2.45805 5.32439,0.82074 243.81778,0"
     style="fill:#000000;fill-opacity:1;fill-rule:evenodd;stroke:none"
     id="path3770" /><path
     inkscape:connector-curvature="0"
     d="m 266.95204,146.09279 -0.81657,-13.5276 -2.04976,-13.52345 -4.09953,-12.70686 -4.9161,-12.702742 -6.55758,-11.88614 -7.78244,-11.06539 -9.42808,-10.24465 -9.8322,-9.01562 -11.0654,-7.79078 -11.88196,-6.55758 -12.7027,-4.9161 -13.11516,-4.09952 -13.11099,-2.04977 -13.52345,-0.81657 -13.52344,0.81657 -13.52344,2.04977 -13.11099,4.09952 -12.29443,4.9161 -11.88197,6.55758 -11.0654,7.79078 -10.24465,9.01562 -9.01563,10.24465 -7.7866,11.06539 -6.55341,11.88614 -5.32856,12.702742 -3.68707,12.70686 -2.45805,13.52345 -0.41246,13.5276 0.41246,13.52345 2.45805,13.52344 3.68707,13.11516 5.32856,12.29441 6.55341,11.88614 7.7866,11.0654 9.01563,10.24881 10.24465,9.01563 11.0654,7.7866 11.88197,6.55758 12.29443,5.32855 13.11099,3.68708 13.52344,2.04977 13.52344,0.82074 13.52345,-0.82074 13.11099,-2.04977 13.11516,-3.68708 12.7027,-5.32855 11.88196,-6.55758 11.0654,-7.7866 9.8322,-9.01563 9.42808,-10.24881 7.78244,-11.0654 6.55758,-11.88614 4.9161,-12.29441 4.09953,-13.11516 2.04976,-13.52344 0.81657,-13.52345 z m -29.09248,0 -0.82074,-11.88613 -2.45805,-11.88613 -3.68708,-11.47367 -5.32855,-10.65711 -6.55341,-9.836402 -8.19906,-9.01563 -9.01146,-8.19906 -9.83637,-6.55757 -10.65294,-5.32856 -11.47367,-4.09536 -11.88613,-2.04976 -11.88198,-0.82074 -12.29441,0.82074 -11.47368,2.04976 -11.47367,4.09536 -10.65295,5.32856 -10.24467,6.55757 -9.01564,8.19906 -7.78659,9.01563 -6.96587,9.836402 -4.9161,10.65711 -4.09953,11.47367 -2.45805,11.88613 -0.82074,11.88613 0.82074,11.88614 2.45805,11.88197 4.09953,11.47783 4.9161,10.65295 6.96587,10.24882 7.78659,9.01563 9.01564,7.7866 10.24467,6.55758 10.65295,5.32856 11.47367,4.09952 11.47368,2.45805 12.29441,0.40829 11.88198,-0.40829 11.88613,-2.45805 11.47367,-4.09952 10.65294,-5.32856 9.83637,-6.55758 9.01146,-7.7866 8.19906,-9.01563 6.55341,-10.24882 5.32855,-10.65295 3.68708,-11.47783 2.45805,-11.88197 0.82074,-11.88614"
     style="fill:#ef2d30;fill-opacity:1;fill-rule:evenodd;stroke:none"
     id="path3792" /><path
     inkscape:connector-curvature="0"
     d="m 122.87696,212.56431 48.35277,0 0,9.83636 9.42392,0 0,-9.83636 4.9161,-4.9161 0,-19.26445 -4.9161,-4.9161 -4.91611,-19.26445 -57.78084,0 -4.9161,19.26445 -4.91611,4.9161 0,19.26445 4.91611,4.9161 0,9.83636 9.83636,0 0,-9.83636 z m -4.92026,-29.09665 3.69124,-14.34419 50.40253,0 3.68707,14.34419 -57.78084,0"
     style="fill:#000000;fill-opacity:1;fill-rule:evenodd;stroke:none"
     id="path3768" /></svg>