<?xml version="1.0" encoding="UTF-8" standalone="no"?>
<!-- Created with Inkscape (http://www.inkscape.org/) -->

<svg
   xmlns:dc="http://purl.org/dc/elements/1.1/"
   xmlns:cc="http://creativecommons.org/ns#"
   xmlns:rdf="http://www.w3.org/1999/02/22-rdf-syntax-ns#"
   xmlns:svg="http://www.w3.org/2000/svg"
   xmlns="http://www.w3.org/2000/svg"
   xmlns:sodipodi="http://sodipodi.sourceforge.net/DTD/sodipodi-0.dtd"
   xmlns:inkscape="http://www.inkscape.org/namespaces/inkscape"
   version="1.1"
   width="93.081253"
   height="92.987503"
   id="svg2"
   xml:space="preserve"
   inkscape:version="0.48.2 r9819"
   sodipodi:docname="Chile RPO-17.svg"><sodipodi:namedview
     pagecolor="#ffffff"
     bordercolor="#666666"
     borderopacity="1"
     objecttolerance="10"
     gridtolerance="10"
     guidetolerance="10"
     inkscape:pageopacity="0"
     inkscape:pageshadow="2"
     inkscape:window-width="1280"
     inkscape:window-height="1004"
     id="namedview19"
     showgrid="false"
     inkscape:zoom="2.868722"
     inkscape:cx="16.433369"
     inkscape:cy="62.610865"
     inkscape:window-x="-8"
     inkscape:window-y="-8"
     inkscape:window-maximized="1"
     inkscape:current-layer="svg2"
     fit-margin-top="0.05"
     fit-margin-left="0.05"
     fit-margin-right="0.05"
     fit-margin-bottom="0.05" /><defs
     id="defs20" /><metadata
     id="metadata8"><rdf:RDF><cc:Work
         rdf:about=""><dc:format>image/svg+xml</dc:format><dc:type
           rdf:resource="http://purl.org/dc/dcmitype/StillImage" /><dc:title></dc:title></cc:Work></rdf:RDF></metadata><path
     d="m 46.56111,2.9197425 c 24.0045,0 43.47275,19.4758325 43.47275,43.4896835 0,24.035044 -19.46825,43.510877 -43.47275,43.532071 C 22.53544,89.920303 3.067185,70.44447 3.046,46.409426 3.067185,22.395575 22.53544,2.9197425 46.56111,2.9197425"
     inkscape:connector-curvature="0"
     id="path18"
     style="fill:#ffffff;fill-opacity:1" /><path
     d="m 18.01625,63.8125 2.36375,-5.51125 2.83625,1.1025 2.995,0.4725 2.99375,-0.315 2.995,-0.945 2.52125,-1.7325 1.41875,-1.41625 0.7875,-1.88875 0.315,-1.89 -0.315,-2.04625 -0.7875,-1.73125 -1.41875,-1.4175 -1.73375,-1.1025 -1.89125,-0.315 -2.04875,0.15875 -1.89125,0.62875 -1.575,1.26 -1.10375,1.575 -5.51625,-1.575 0.94625,-19.2075 21.275,0 0,5.825 -15.76,0 -0.315,6.6125 2.995,-0.945 2.99375,-0.15625 2.995,0.47125 2.67875,1.1025 2.52125,1.88875 1.89125,2.36125 1.26125,2.67625 0.63,2.9925 -0.1575,2.99 -0.78875,2.9925 -1.575,2.5175 -2.04875,2.205 -2.995,2.0475 -3.46625,1.41625 -3.4675,0.63 -3.625,0.1575 -3.46625,-0.63 -3.4675,-1.25875"
     style="fill:#000000;fill-opacity:1;fill-rule:nonzero;stroke:none"
     id="path4587"
     inkscape:connector-curvature="0" /><path
     d="m 51.58375,35.945 -1.10375,5.19625 -0.4725,5.3525 0.4725,5.3525 1.10375,5.19625 0.945,2.36125 1.41875,2.04625 1.89125,1.88875 2.20625,1.26 2.52125,0.7875 2.5225,0.315 2.52125,-0.315 2.52125,-0.7875 2.20625,-1.26 1.89125,-1.88875 1.41875,-2.04625 1.1025,-2.36125 1.10375,-5.19625 0.315,-5.3525 -0.315,-5.3525 L 74.75,35.945 73.6475,33.58375 72.22875,31.5375 70.3375,29.64875 l -2.20625,-1.26 -2.52125,-0.7875 -2.52125,-0.315 -2.5225,0.315 -2.52125,0.7875 -2.20625,1.4175 -1.89125,1.73125 -1.41875,2.04625 -0.945,2.36125 z M 57.1,55.4675 57.8875,57.2 l 1.41875,1.41625 1.73375,0.945 2.04875,0.315 1.89,-0.315 1.89125,-0.945 1.26125,-1.41625 0.945,-1.7325 0.94625,-4.4075 0.315,-4.56625 -0.315,-4.56625 -0.94625,-4.4075 -0.945,-1.7325 -1.26125,-1.41625 -1.89125,-0.945 -1.89,-0.315 -2.04875,0.315 -1.73375,0.945 L 57.8875,35.7875 57.1,37.52 l -0.94625,4.4075 -0.315,4.56625 0.315,4.56625 0.94625,4.4075"
     style="fill:#000000;fill-opacity:1;fill-rule:evenodd;stroke:none"
     id="path4589"
     inkscape:connector-curvature="0" /><path
     d="m 93.03125,46.49375 -0.315,-5.195 -0.78875,-5.195 L 90.51,31.2225 88.46125,26.34125 85.93875,21.77625 82.945,17.525 79.4775,13.58875 75.5375,10.125 71.2825,7.135 66.7125,4.6162501 61.985,2.72625 56.9425,1.1525 51.74125,0.365 46.54125,0.05 41.34,0.365 l -5.2,0.7875 -4.88625,1.57375 -4.885,1.8900001 -4.57,2.5187499 -4.255,2.99 -3.94,3.46375 -3.4675,3.93625 -2.99375,4.25125 -2.5225,4.565 -2.04875,4.88125 -1.4175,4.88125 -0.78875,5.195 -0.315,5.195 0.315,5.195 0.78875,5.195 1.4175,5.03875 2.04875,4.72375 2.5225,4.565 2.99375,4.25125 3.4675,3.93625 3.94,3.4625 4.255,2.99125 4.57,2.51875 4.885,2.0475 4.88625,1.41625 5.2,0.7875 5.20125,0.315 5.2,-0.315 5.20125,-0.7875 5.0425,-1.41625 4.7275,-2.0475 4.57,-2.51875 4.255,-2.99125 3.94,-3.4625 3.4675,-3.93625 2.99375,-4.25125 2.5225,-4.565 2.04875,-4.72375 1.4175,-5.03875 0.78875,-5.195 0.315,-5.195 z m -11.18875,0 -0.15875,-4.56625 -0.945,-4.565 L 79.1625,32.955 77.11375,28.86125 74.5925,25.0825 71.59875,21.61875 68.13125,18.47 l -3.94,-2.52 -4.0975,-2.045 -4.4125,-1.575 -4.57,-0.78625 -4.57,-0.31625 L 41.97,11.54375 37.4,12.33 32.9875,13.905 28.89,15.95 l -3.7825,2.52 -3.62375,3.14875 -2.995,3.46375 -2.52125,3.77875 -2.04875,4.09375 -1.57625,4.4075 -0.7875,4.565 -0.315,4.56625 0.315,4.56625 0.7875,4.565 1.57625,4.4075 2.04875,4.09375 2.52125,3.93625 2.995,3.46375 3.62375,2.99125 3.7825,2.51875 4.0975,2.04625 4.4125,1.575 4.57,0.78625 4.57125,0.31625 4.57,-0.31625 4.57,-0.78625 4.4125,-1.575 4.0975,-2.04625 3.94,-2.51875 3.4675,-2.99125 2.99375,-3.46375 2.52125,-3.93625 2.04875,-4.09375 1.57625,-4.4075 0.945,-4.565 0.15875,-4.56625"
     style="fill:#ef2c30;fill-opacity:1;fill-rule:evenodd;stroke:none"
     id="path4591"
     inkscape:connector-curvature="0" /></svg>