<?xml version="1.0" encoding="UTF-8" standalone="no"?>
<!-- Created with Inkscape (http://www.inkscape.org/) -->

<svg
   xmlns:dc="http://purl.org/dc/elements/1.1/"
   xmlns:cc="http://creativecommons.org/ns#"
   xmlns:rdf="http://www.w3.org/1999/02/22-rdf-syntax-ns#"
   xmlns:svg="http://www.w3.org/2000/svg"
   xmlns="http://www.w3.org/2000/svg"
   xmlns:sodipodi="http://sodipodi.sourceforge.net/DTD/sodipodi-0.dtd"
   xmlns:inkscape="http://www.inkscape.org/namespaces/inkscape"
   version="1.1"
   width="96.660004"
   height="96.644997"
   id="svg2"
   xml:space="preserve"
   inkscape:version="0.48.2 r9819"
   sodipodi:docname="AJAX1.svg"><sodipodi:namedview
     pagecolor="#ffffff"
     bordercolor="#666666"
     borderopacity="1"
     objecttolerance="10"
     gridtolerance="10"
     guidetolerance="10"
     inkscape:pageopacity="0"
     inkscape:pageshadow="2"
     inkscape:window-width="1280"
     inkscape:window-height="1004"
     id="namedview19"
     showgrid="false"
     inkscape:zoom="4.0569855"
     inkscape:cx="35.017619"
     inkscape:cy="45.99018"
     inkscape:window-x="-8"
     inkscape:window-y="-8"
     inkscape:window-maximized="1"
     inkscape:current-layer="svg2"
     fit-margin-top="0.05"
     fit-margin-left="0.05"
     fit-margin-right="0.05"
     fit-margin-bottom="0.05" /><defs
     id="defs20" /><metadata
     id="metadata8"><rdf:RDF><cc:Work
         rdf:about=""><dc:format>image/svg+xml</dc:format><dc:type
           rdf:resource="http://purl.org/dc/dcmitype/StillImage" /><dc:title></dc:title></cc:Work></rdf:RDF></metadata><path
     d="m 48.35111,4.7872435 c 24.0045,0 43.47275,19.4758325 43.47275,43.4896835 0,24.035044 -19.46825,43.510877 -43.47275,43.532071 C 24.32544,91.787804 4.857185,72.311971 4.836,48.276927 4.857185,24.263076 24.32544,4.7872435 48.35111,4.7872435"
     inkscape:connector-curvature="0"
     id="path18"
     style="fill:#ffffff;fill-opacity:1" /><path
     d="m 59.195,74.34125 8.66,0 0,-40.0925 4.57375,0.81875 1.14375,-0.32625 0.65375,-0.81875 0.3275,-1.145 -0.3275,-0.9825 -10.62,-13.09125 -10.62,13.09125 -0.32625,0.9825 0.1625,1.145 0.8175,0.81875 0.98,0.32625 4.575,-0.81875 0,40.0925"
     style="fill:#231f20;fill-opacity:1;fill-rule:nonzero;stroke:none"
     id="path3030"
     inkscape:connector-curvature="0" /><path
     d="m 29.1325,22.14 8.8225,0 0,40.09125 4.41125,-0.65375 1.14375,0.1625 0.8175,0.81875 0.1625,1.145 -0.32625,0.9825 -10.62,13.09125 -10.62,-13.09125 -0.32625,-0.9825 0.1625,-1.145 0.8175,-0.81875 1.14375,-0.1625 4.41125,0.65375 0,-40.09125"
     style="fill:#000000;fill-opacity:1;fill-rule:nonzero;stroke:none"
     id="path3032"
     inkscape:connector-curvature="0" /><path
     d="m 96.61,48.3225 -0.32625,-5.4 -0.98,-5.4 -1.47125,-5.23625 -2.12375,-4.91 L 89.095,22.63125 85.99,18.21375 82.39625,14.1225 78.475,10.5225 74.06375,7.41375 69.325,4.795 64.26,2.66875 59.03125,1.195 53.80375,0.21375 48.41125,0.05 42.85625,0.21375 37.62875,1.195 32.4,2.66875 27.335,4.795 22.5975,7.41375 18.185,10.5225 l -3.92,3.6 -3.595,4.09125 -3.105,4.4175 -2.61375,4.745 -2.12375,4.91 -1.47,5.23625 -0.98125,5.4 -0.32625,5.4 0.32625,5.4 0.98125,5.23625 1.47,5.23625 2.12375,5.07375 2.61375,4.745 3.105,4.255 3.595,4.09 3.92,3.6 4.4125,3.11 4.7375,2.6175 5.065,2.1275 5.22875,1.4725 5.2275,0.98125 5.555,0.3275 5.3925,-0.3275 5.2275,-0.98125 5.22875,-1.4725 5.065,-2.1275 4.73875,-2.6175 4.41125,-3.11 3.92125,-3.6 3.59375,-4.09 3.105,-4.255 2.61375,-4.745 2.12375,-5.07375 1.47125,-5.23625 0.98,-5.23625 0.32625,-5.4 z m -11.6,0 -0.32625,-4.90875 -0.98125,-4.5825 -1.47,-4.5825 -2.12375,-4.4175 -2.7775,-3.9275 -3.105,-3.6 L 70.6325,19.195 66.71125,16.41375 62.3,14.28625 l -4.4125,-1.4725 -4.7375,-0.9825 -4.73875,-0.3275 -4.90125,0.3275 -4.7375,0.9825 -4.41125,1.4725 -4.4125,2.1275 -3.92125,2.78125 -3.59375,3.10875 -3.105,3.6 -2.7775,3.9275 -2.12375,4.4175 -1.47,4.5825 -0.98,4.5825 -0.3275,4.90875 0.3275,4.74625 0.98,4.745 1.47,4.4175 2.12375,4.4175 2.7775,3.92875 3.105,3.6 3.59375,3.10875 3.92125,2.78125 4.4125,2.1275 4.41125,1.47375 4.7375,0.98 4.90125,0.32875 4.73875,-0.32875 4.7375,-0.98 4.4125,-1.47375 4.41125,-2.1275 3.92125,-2.78125 3.59375,-3.10875 3.105,-3.6 2.7775,-3.92875 2.12375,-4.4175 1.47,-4.4175 0.98125,-4.745 L 85.01,48.3225"
     style="fill:#ef2c30;fill-opacity:1;fill-rule:evenodd;stroke:none"
     id="path3034"
     inkscape:connector-curvature="0" /></svg>