<?xml version="1.0" encoding="UTF-8" standalone="no"?>
<!-- Created with Inkscape (http://www.inkscape.org/) -->

<svg
   xmlns:dc="http://purl.org/dc/elements/1.1/"
   xmlns:cc="http://creativecommons.org/ns#"
   xmlns:rdf="http://www.w3.org/1999/02/22-rdf-syntax-ns#"
   xmlns:svg="http://www.w3.org/2000/svg"
   xmlns="http://www.w3.org/2000/svg"
   xmlns:sodipodi="http://sodipodi.sourceforge.net/DTD/sodipodi-0.dtd"
   xmlns:inkscape="http://www.inkscape.org/namespaces/inkscape"
   version="1.1"
   width="98.7575"
   height="98.7575"
   id="svg2"
   xml:space="preserve"
   inkscape:version="0.48.2 r9819"
   sodipodi:docname="Chile RR-3.svg"><sodipodi:namedview
     pagecolor="#ffffff"
     bordercolor="#666666"
     borderopacity="1"
     objecttolerance="10"
     gridtolerance="10"
     guidetolerance="10"
     inkscape:pageopacity="0"
     inkscape:pageshadow="2"
     inkscape:window-width="1280"
     inkscape:window-height="1004"
     id="namedview19"
     showgrid="false"
     inkscape:zoom="4.0569855"
     inkscape:cx="35.067619"
     inkscape:cy="46.040179"
     inkscape:window-x="-8"
     inkscape:window-y="-8"
     inkscape:window-maximized="1"
     inkscape:current-layer="svg2"
     fit-margin-top="0.05"
     fit-margin-left="0.05"
     fit-margin-right="0.05"
     fit-margin-bottom="0.05" /><defs
     id="defs20" /><metadata
     id="metadata8"><rdf:RDF><cc:Work
         rdf:about=""><dc:format>image/svg+xml</dc:format><dc:type
           rdf:resource="http://purl.org/dc/dcmitype/StillImage" /><dc:title></dc:title></cc:Work></rdf:RDF></metadata><path
     d="m 49.39911,5.8517465 c 24.0045,0 43.47275,19.4758325 43.47275,43.4896835 0,24.035044 -19.46825,43.510877 -43.47275,43.532071 C 25.37344,92.852307 5.905185,73.376474 5.884,49.34143 5.905185,25.327579 25.37344,5.8517465 49.39911,5.8517465"
     inkscape:connector-curvature="0"
     id="path18"
     style="fill:#ffffff;fill-opacity:1" /><path
     d="M 98.7075,49.4425 98.45,44.555 l -0.6425,-4.75875 -1.15875,-4.76 -1.67125,-4.5025 -2.05875,-4.3725 -2.44375,-4.245 -2.95875,-3.85875 -3.215,-3.60125 L 80.7,11.24 76.84125,8.28125 72.59625,5.8375 68.2225,3.78 63.72125,2.1075 59.09,0.95 54.2025,0.3075 49.4425,0.05 44.555,0.3075 39.79625,0.95 35.0375,2.1075 30.535,3.78 26.16125,5.8375 22.045,8.28125 18.0575,11.24 l -3.4725,3.21625 -3.34375,3.60125 -2.83,3.85875 -2.5725,4.245 -2.05875,4.3725 -1.5425,4.5025 -1.15875,4.76 L 0.3075,44.555 0.05,49.4425 l 0.2575,4.75875 0.77125,4.76 1.15875,4.75875 1.5425,4.5025 2.05875,4.3725 2.5725,4.245 2.83,3.85875 3.34375,3.60125 3.4725,3.21625 3.9875,2.95875 4.11625,2.4425 4.37375,2.05875 4.5025,1.67125 4.75875,1.15875 4.75875,0.6425 4.8875,0.25875 4.76,-0.25875 4.8875,-0.6425 4.63125,-1.15875 4.50125,-1.67125 4.37375,-2.05875 4.245,-2.4425 L 80.7,87.51625 84.30125,84.3 87.51625,80.69875 90.475,76.84 l 2.44375,-4.245 2.05875,-4.3725 1.67125,-4.5025 1.15875,-4.75875 0.6425,-4.76 0.2575,-4.75875 z m -11.83375,0 -0.2575,-4.245 -0.6425,-4.11625 L 84.815,36.965 83.14375,33.10625 81.085,29.37625 78.77,26.0325 75.94,22.81625 72.725,19.9875 69.38,17.67125 l -3.73,-2.0575 -3.85875,-1.6725 -3.9875,-1.1575 -4.245,-0.64375 -4.11625,-0.25625 -4.24375,0.25625 -4.11625,0.64375 -4.11625,1.1575 -3.85875,1.6725 -3.60125,2.0575 -3.47375,2.31625 -3.08625,2.82875 -2.83,3.21625 -2.44375,3.34375 -2.05875,3.73 -1.5425,3.85875 -1.15875,4.11625 -0.77125,4.11625 -0.2575,4.245 0.2575,4.11625 0.77125,4.11625 1.15875,4.115 1.5425,3.85875 2.05875,3.73125 2.44375,3.34375 2.83,3.215 3.08625,2.83 3.47375,2.31625 3.60125,2.0575 3.85875,1.6725 4.11625,1.1575 4.11625,0.6425 4.24375,0.2575 4.11625,-0.2575 4.245,-0.6425 3.9875,-1.1575 3.85875,-1.6725 3.73,-2.0575 3.345,-2.31625 3.215,-2.83 2.83,-3.215 L 81.085,69.38 83.14375,65.64875 84.815,61.79 l 1.15875,-4.115 0.6425,-4.11625 0.2575,-4.11625"
     style="fill:#ef2c30;fill-opacity:1;fill-rule:evenodd;stroke:none"
     id="path3834"
     inkscape:connector-curvature="0" /><path
     d="m 45.84125,71.30875 -0.385,1.80125 0,1.92875 0.385,1.80125 0.64375,1.1575 1.02875,0.90125 1.415,0.25625 1.28625,-0.25625 1.1575,-0.90125 0.64375,-1.1575 0.385,-2.83 -0.385,-2.70125 -0.64375,-1.28625 -1.1575,-0.77125 -1.28625,-0.2575 -1.415,0.2575 -1.02875,0.77125 -0.64375,1.28625 z m 0.7725,-38.07375 -1.03,4.5025 -0.51375,4.50125 0,4.5025 0.51375,4.5025 1.03,4.3725 0.9,2.1875 1.1575,1.92875 1.6725,1.80125 1.8,1.41375 2.05875,1.02875 2.315,0.64375 2.315,0.2575 2.31625,-0.2575 2.315,-0.64375 2.0575,-1.02875 1.93,-1.41375 1.54375,-1.80125 1.28625,-1.92875 0.9,-2.1875 1.02875,-4.3725 0.515,-4.5025 0,-4.5025 -0.515,-4.50125 -1.02875,-4.5025 -0.9,-2.18625 -1.28625,-1.93 -1.54375,-1.8 -1.93,-1.41625 -2.0575,-1.02875 -2.315,-0.6425 -2.31625,-0.1275 -2.315,0.1275 -2.315,0.6425 -2.05875,1.02875 -1.8,1.41625 -1.6725,1.8 -1.1575,1.93 -0.9,2.18625 z m 7.975,35.8875 1.41375,0 3.6025,6.56 0,-6.56 1.54375,0 0,9.90375 -1.415,0 -3.6025,-6.55875 0,6.55875 -1.5425,0 0,-9.90375 z m -14.66375,1.54375 -2.315,0 0,-1.54375 6.045,0 0,1.54375 -2.18625,0 0,8.36 -1.54375,0 0,-8.36 z m 7.33125,5.7875 0.64375,0.7725 1.02875,0.385 0.9,-0.2575 0.64375,-0.9 0.2575,-1.54375 0,-1.6725 -0.2575,-1.5425 -0.64375,-0.9 -0.9,-0.2575 -1.02875,0.2575 -0.64375,0.9 -0.2575,2.315 0.2575,2.44375 z m 5.27375,-22.51 0.64375,1.54375 1.02875,1.2875 1.415,1.02875 1.54375,0.6425 1.67125,0.2575 1.6725,-0.2575 1.54375,-0.6425 1.415,-1.02875 1.02875,-1.2875 0.6425,-1.54375 0.90125,-3.73 L 66.55,46.355 66.55,42.4975 66.03625,38.76625 65.135,34.9075 64.4925,33.365 63.46375,32.0775 62.04875,31.04875 60.505,30.405 58.8325,30.14875 57.16125,30.405 55.6175,31.04875 54.2025,32.0775 53.17375,33.365 52.53,34.9075 l -0.9,3.85875 -0.38625,3.73125 0,3.8575 0.38625,3.85875 0.9,3.73 z M 31.82125,32.0775 l -3.4725,0 0,-4.8875 1.8,-0.2575 1.54375,-0.9 1.28625,-1.28625 4.8875,0 0,39.48875 -6.045,0 0,-32.1575"
     style="fill:#000000;fill-opacity:1;fill-rule:evenodd;stroke:none"
     id="path3836"
     inkscape:connector-curvature="0" /></svg>