<?xml version="1.0" encoding="UTF-8" standalone="no"?>
<!-- Created with Inkscape (http://www.inkscape.org/) -->

<svg
   xmlns:dc="http://purl.org/dc/elements/1.1/"
   xmlns:cc="http://creativecommons.org/ns#"
   xmlns:rdf="http://www.w3.org/1999/02/22-rdf-syntax-ns#"
   xmlns:svg="http://www.w3.org/2000/svg"
   xmlns="http://www.w3.org/2000/svg"
   xmlns:sodipodi="http://sodipodi.sourceforge.net/DTD/sodipodi-0.dtd"
   xmlns:inkscape="http://www.inkscape.org/namespaces/inkscape"
   version="1.1"
   width="100.06125"
   height="100.38"
   id="svg2"
   xml:space="preserve"
   inkscape:version="0.48.2 r9819"
   sodipodi:docname="Chile RR-4.svg"><sodipodi:namedview
     pagecolor="#ffffff"
     bordercolor="#666666"
     borderopacity="1"
     objecttolerance="10"
     gridtolerance="10"
     guidetolerance="10"
     inkscape:pageopacity="0"
     inkscape:pageshadow="2"
     inkscape:window-width="1280"
     inkscape:window-height="1004"
     id="namedview19"
     showgrid="false"
     inkscape:zoom="4.0569855"
     inkscape:cx="35.117619"
     inkscape:cy="46.090182"
     inkscape:window-x="-8"
     inkscape:window-y="-8"
     inkscape:window-maximized="1"
     inkscape:current-layer="svg2"
     fit-margin-top="0.05"
     fit-margin-left="0.05"
     fit-margin-right="0.05"
     fit-margin-bottom="0.05" /><defs
     id="defs20" /><metadata
     id="metadata8"><rdf:RDF><cc:Work
         rdf:about=""><dc:format>image/svg+xml</dc:format><dc:type
           rdf:resource="http://purl.org/dc/dcmitype/StillImage" /><dc:title></dc:title></cc:Work></rdf:RDF></metadata><path
     d="m 50.05111,6.8222455 c 24.0045,0 43.47275,19.4758325 43.47275,43.4896835 0,24.035044 -19.46825,43.510877 -43.47275,43.532071 C 26.02544,93.822806 6.557185,74.346973 6.536,50.311929 6.557185,26.298078 26.02544,6.8222455 50.05111,6.8222455"
     inkscape:connector-curvature="0"
     id="path18"
     style="fill:#ffffff;fill-opacity:1" /><path
     d="m 48.1675,23.466251 -2.3725,0 0,-1.5275 6.09875,0 0,1.5275 -2.2025,0 0,8.48375 -1.52375,0 0,-8.48375"
     style="fill:#000000;fill-opacity:1;fill-rule:evenodd;stroke:none"
     id="path4237"
     inkscape:connector-curvature="0" /><path
     d="m 62.9075,21.938751 1.525,0 3.72625,6.61875 0,-6.61875 1.525,0 0,10.01125 -1.525,0 -3.5575,-6.78625 0,6.78625 -1.69375,0 0,-10.01125"
     style="fill:#000000;fill-opacity:1;fill-rule:evenodd;stroke:none"
     id="path4239"
     inkscape:connector-curvature="0" /><path
     d="m 70.0225,68.770001 1.525,1.01875 1.86375,0.67875 1.86375,0 1.86375,-0.67875 1.695,-1.01875 0,-22.2275 -1.695,-1.0175 -1.86375,-0.67875 -1.86375,0 -1.86375,0.67875 -1.525,1.0175 0,22.2275"
     style="fill:#000000;fill-opacity:1;fill-rule:nonzero;stroke:none"
     id="path4241"
     inkscape:connector-curvature="0" /><path
     d="m 70.0225,54.686251 -15.58625,0 -0.34,-1.69625 -1.01625,-1.5275 -1.355,-0.8475 -1.69375,-0.34 -1.695,0.34 -1.525,0.8475 -0.84625,1.5275 -0.34,1.69625 -15.58625,0 0,5.43125 15.58625,0 0.34,1.69625 0.84625,1.3575 1.525,1.0175 1.695,0.33875 1.69375,-0.33875 1.355,-1.0175 1.01625,-1.3575 0.34,-1.69625 15.58625,0 0,-5.43125"
     style="fill:#000000;fill-opacity:1;fill-rule:nonzero;stroke:none"
     id="path4245"
     inkscape:connector-curvature="0" /><path
     d="m 21.2275,68.770001 1.525,1.01875 1.86375,0.67875 1.86375,0 1.86375,-0.67875 1.695,-1.01875 0,-22.2275 -1.695,-1.0175 -1.86375,-0.67875 -1.86375,0 -1.86375,0.67875 -1.525,1.0175 0,22.2275"
     style="fill:#000000;fill-opacity:1;fill-rule:nonzero;stroke:none"
     id="path4247"
     inkscape:connector-curvature="0" /><path
     d="m 50.03125,48.068751 6.6075,-12.21625 -13.21625,0 6.60875,12.21625"
     style="fill:#000000;fill-opacity:1;fill-rule:nonzero;stroke:none"
     id="path4249"
     inkscape:connector-curvature="0" /><path
     d="m 33.59625,21.768751 -1.355,0.34 -1.18625,0.8475 -0.6775,1.35875 1.525,0.33875 0.33875,-0.67875 0.6775,-0.50875 0.6775,-0.17 1.525,0.50875 0.33875,0.51 0,0.67875 -0.17,0.67875 -0.6775,0.33875 -1.69375,0.8475 -1.525,1.35875 -0.8475,1.69625 -0.33875,2.03625 6.94625,0 0,-1.6975 -5.0825,0 1.18625,-1.695 1.86375,-1.01875 1.18625,-0.85 0.6775,-1.35625 0,-1.5275 -1.01625,-1.35625 -1.0175,-0.51 -1.355,-0.17"
     style="fill:#000000;fill-opacity:1;fill-rule:nonzero;stroke:none"
     id="path4251"
     inkscape:connector-curvature="0" /><path
     d="m 57.31625,21.768751 -1.35625,0.17 -1.185,0.84875 -0.67875,1.1875 -0.33875,2.88375 0.33875,2.885 0.67875,1.1875 1.185,0.84875 1.35625,0.34 1.355,-0.34 1.01625,-0.84875 0.67875,-1.1875 0.5075,-2.885 -0.5075,-2.88375 -0.67875,-1.1875 -1.01625,-0.84875 -1.355,-0.17 z m -1.695,7.4675 0.67875,0.8475 1.01625,0.33875 1.01625,-0.33875 0.50875,-0.8475 0.33875,-2.3775 -0.33875,-2.37375 -0.50875,-0.84875 -1.01625,-0.34 -1.01625,0.34 -0.67875,0.84875 -0.33875,2.37375 0.33875,2.3775"
     style="fill:#000000;fill-opacity:1;fill-rule:evenodd;stroke:none"
     id="path4253"
     inkscape:connector-curvature="0" /><path
     d="m 87.9825,50.275 -0.33875,-5.09 -1.0175,-4.75125 -1.52375,-4.75 -2.20375,-4.5825 -2.71,-4.0725 L 76.8,23.29625 73.0725,20.0725 69.00625,17.1875 64.4325,14.9825 59.8575,13.455 54.94375,12.4375 50.03125,12.09875 44.9475,12.4375 40.20375,13.455 35.46,14.9825 l -4.405,2.205 -4.23625,2.885 -3.7275,3.22375 -3.21875,3.7325 -2.71125,4.0725 -2.2025,4.5825 -1.69375,4.75 -1.01625,4.75125 -0.33875,5.09 0.33875,4.92125 1.01625,4.92125 1.69375,4.58 2.2025,4.58125 2.71125,4.0725 3.21875,3.73375 3.7275,3.39375 4.23625,2.715 4.405,2.205 4.74375,1.5275 4.74375,1.0175 5.08375,0.33875 4.9125,-0.33875 4.91375,-1.0175 4.575,-1.5275 4.57375,-2.205 4.06625,-2.715 3.7275,-3.39375 3.38875,-3.73375 2.71,-4.0725 2.20375,-4.58125 1.52375,-4.58 1.0175,-4.92125 0.33875,-4.92125 z m 12.02875,0 L 99.6725,44.67625 98.65625,39.0775 97.13125,33.64625 94.92875,28.5575 92.2175,23.63625 88.99875,19.055 85.27125,14.8125 81.205,11.08 76.63,7.85625 71.7175,5.14125 66.465,2.935 61.04375,1.40875 55.62125,0.39 50.03125,0.05 44.44,0.39 38.84875,1.40875 33.42625,2.935 28.34375,5.14125 23.43125,7.85625 18.85625,11.08 14.62,14.8125 10.8925,19.055 7.67375,23.63625 4.9625,28.5575 2.76,33.64625 1.23625,39.0775 0.38875,44.67625 0.05,50.275 l 0.33875,5.6 0.8475,5.42875 1.52375,5.43125 2.2025,5.25875 2.71125,4.92125 3.21875,4.58125 3.7275,4.07125 4.23625,3.73375 4.575,3.39375 4.9125,2.71375 5.0825,2.0375 5.4225,1.52625 5.59125,1.01875 5.59125,0.33875 5.59,-0.33875 5.4225,-1.01875 5.42125,-1.52625 5.2525,-2.0375 4.9125,-2.71375 4.575,-3.39375 4.06625,-3.73375 3.7275,-4.07125 3.21875,-4.58125 2.71125,-4.92125 2.2025,-5.25875 1.525,-5.43125 1.01625,-5.42875 0.33875,-5.6"
     style="fill:#ef2c30;fill-opacity:1;fill-rule:evenodd;stroke:none"
     id="path4243"
     inkscape:connector-curvature="0" /></svg>