<?xml version="1.0" encoding="UTF-8" standalone="no"?>
<!-- Created with Inkscape (http://www.inkscape.org/) -->

<svg
   xmlns:dc="http://purl.org/dc/elements/1.1/"
   xmlns:cc="http://creativecommons.org/ns#"
   xmlns:rdf="http://www.w3.org/1999/02/22-rdf-syntax-ns#"
   xmlns:svg="http://www.w3.org/2000/svg"
   xmlns="http://www.w3.org/2000/svg"
   xmlns:sodipodi="http://sodipodi.sourceforge.net/DTD/sodipodi-0.dtd"
   xmlns:inkscape="http://www.inkscape.org/namespaces/inkscape"
   version="1.1"
   width="102.58375"
   height="102.5875"
   id="svg2"
   xml:space="preserve"
   inkscape:version="0.48.2 r9819"
   sodipodi:docname="Chile RR-5.svg"><sodipodi:namedview
     pagecolor="#ffffff"
     bordercolor="#666666"
     borderopacity="1"
     objecttolerance="10"
     gridtolerance="10"
     guidetolerance="10"
     inkscape:pageopacity="0"
     inkscape:pageshadow="2"
     inkscape:window-width="1280"
     inkscape:window-height="1004"
     id="namedview19"
     showgrid="false"
     inkscape:zoom="4.0569855"
     inkscape:cx="35.167619"
     inkscape:cy="46.140185"
     inkscape:window-x="-8"
     inkscape:window-y="-8"
     inkscape:window-maximized="1"
     inkscape:current-layer="svg2"
     fit-margin-top="0.05"
     fit-margin-left="0.05"
     fit-margin-right="0.05"
     fit-margin-bottom="0.05" /><defs
     id="defs20" /><metadata
     id="metadata8"><rdf:RDF><cc:Work
         rdf:about=""><dc:format>image/svg+xml</dc:format><dc:type
           rdf:resource="http://purl.org/dc/dcmitype/StillImage" /><dc:title></dc:title></cc:Work></rdf:RDF></metadata><path
     d="m 51.31311,7.7677455 c 24.0045,0 43.47275,19.4758325 43.47275,43.4896835 0,24.035044 -19.46825,43.510877 -43.47275,43.532071 C 27.28744,94.768306 7.819185,75.292473 7.798,51.257429 7.819185,27.243578 27.28744,7.7677455 51.31311,7.7677455"
     inkscape:connector-curvature="0"
     id="path18"
     style="fill:#ffffff;fill-opacity:1" /><path
     d="m 62.9975,88.46625 -11.61875,-11.6375 -11.79125,11.6375 23.41,0"
     style="fill:#000000;fill-opacity:1;fill-rule:evenodd;stroke:none"
     id="path5445"
     inkscape:connector-curvature="0" /><path
     d="M 62.9975,14.295 51.37875,25.9325 39.5875,14.295 l 23.41,0"
     style="fill:#000000;fill-opacity:1;fill-rule:evenodd;stroke:none"
     id="path5447"
     inkscape:connector-curvature="0" /><path
     d="m 90.2225,51.295 -0.3475,-5.03875 -1.04,-5.0375 -1.56,-4.69 -2.255,-4.69 L 82.245,27.67 78.7775,23.8475 74.9625,20.54875 70.8,17.595 66.11875,15.33625 61.43625,13.77375 56.4075,12.73 51.37875,12.38375 46.17625,12.73 l -5.02875,1.04375 -4.68125,1.5625 -4.6825,2.25875 -4.16125,2.95375 -3.815,3.29875 -3.295,3.8225 -2.94875,4.16875 -2.25375,4.69 -1.56125,4.69 -1.04,5.0375 -0.34625,5.03875 0.34625,5.21 1.04,4.86375 1.56125,4.86375 2.25375,4.69125 2.94875,4.1675 3.295,3.8225 3.815,3.3 4.16125,2.9525 4.6825,2.25875 4.68125,1.5625 5.02875,1.0425 5.2025,0.3475 5.02875,-0.3475 5.02875,-1.0425 4.6825,-1.5625 4.68125,-2.25875 4.1625,-2.9525 3.815,-3.3 3.4675,-3.8225 2.775,-4.1675 2.255,-4.69125 1.56,-4.86375 1.04,-4.86375 0.3475,-5.21 z m 12.31125,0 -0.34625,-5.73375 -1.04,-5.55875 -1.56125,-5.55875 -2.25375,-5.38375 -2.775,-5.03875 -3.295,-4.515 -3.815,-4.3425 -4.16125,-3.8225 -4.6825,-3.3 L 73.575,5.26125 68.2,3.0024999 62.65,1.4412499 57.10125,0.3975 51.37875,0.05 l -5.7225,0.3475 -5.7225,1.0437499 -5.54875,1.56125 -5.37625,2.2587501 -4.855,2.78 -4.6825,3.3 -4.335,3.8225 -3.815,4.3425 -3.295,4.515 L 5.2525,29.06 2.9975,34.44375 1.4375,40.0025 0.39625,45.56125 0.05,51.295 l 0.34625,5.73125 1.04125,5.7325 1.56,5.55875 2.255,5.21125 2.77375,5.03625 3.295,4.69 3.815,4.3425 4.335,3.8225 4.6825,3.30125 4.855,2.7775 5.37625,2.26 5.54875,1.56375 5.7225,1.04125 5.7225,0.17375 5.7225,-0.17375 5.54875,-1.04125 5.55,-1.56375 5.375,-2.26 5.02875,-2.7775 4.6825,-3.30125 4.16125,-3.8225 3.815,-4.3425 3.295,-4.69 2.775,-5.03625 2.25375,-5.21125 1.56125,-5.55875 1.04,-5.7325 0.34625,-5.73125"
     style="fill:#ef2c30;fill-opacity:1;fill-rule:evenodd;stroke:none"
     id="path5449"
     inkscape:connector-curvature="0" /><path
     d="m 83.98,57.5475 -0.8675,-1.56375 -1.56,-1.0425 -1.735,-0.34625 -1.73375,0.52 -1.3875,1.0425 -1.21375,-0.8675 -1.3875,-0.5225 -1.56,0 -1.3875,0.53625 0,-0.53625 -2.9475,0 0,11.98625 2.9475,0 0,-7.1225 0.17375,-0.86875 0.69375,-0.695 0.86625,-0.1725 1.04125,0.1725 0.6925,0.695 0.17375,0.86875 0,7.1225 2.94875,0 0,-7.1225 0.34625,-0.86875 0.69375,-0.695 0.8675,-0.1725 0.86625,0.1725 0.69375,0.695 0.3475,0.86875 0,7.1225 2.9475,0 0,-7.1225 -0.52,-2.08375"
     style="fill:#000000;fill-opacity:1;fill-rule:evenodd;stroke:none"
     id="path5451"
     inkscape:connector-curvature="0" /><path
     d="m 59.87625,53.205 -2.94875,1.39 -2.60125,1.91 -2.08,2.43125 -1.56125,2.95375 15.43375,0 0,4.86375 -20.9825,0 0.34625,-3.995 1.3875,-3.8225 1.9075,-3.47375 2.775,-2.9525 3.295,-2.43125 3.815,-1.565 L 60.39625,47.4725 61.2625,45.56125 61.09,43.4775 59.87625,41.74 57.795,40.6975 55.54125,40.35 53.80625,40.6975 52.0725,41.56625 50.85875,42.955 50.165,44.86625 45.4825,43.825 l 0.8675,-2.78 1.73375,-2.2575 2.08125,-1.73875 2.60125,-1.215 2.775,-0.3475 2.6,0.3475 2.42875,0.86875 2.25375,1.39 1.56125,1.5625 1.21375,2.085 0.52,2.4325 L 65.945,46.43 65.25125,48.68875 63.86375,50.6 62.13,52.16125 59.87625,53.205"
     style="fill:#000000;fill-opacity:1;fill-rule:nonzero;stroke:none"
     id="path5453"
     inkscape:connector-curvature="0" /><path
     d="m 40.28125,70.40125 0,-1.21625 -0.52125,-1.215 -0.52,-0.86875 0.17375,-1.0425 0.52,-0.695 1.04,-0.52125 0.8675,0.175 0.8675,0.695 0.1725,1.04125 -0.1725,1.56375 -1.04125,1.39 -1.38625,0.69375"
     style="fill:#000000;fill-opacity:1;fill-rule:nonzero;stroke:none"
     id="path5455"
     inkscape:connector-curvature="0" /><path
     d="m 29.87625,43.30375 -8.4975,11.11625 8.4975,0 0,-11.11625 z m 0,15.45875 -15.08625,0 0,-2.77875 15.08625,-19.97625 4.855,0 0,18.4125 2.775,0 0,4.3425 -2.775,0 0,7.99125 -4.855,0 0,-7.99125"
     style="fill:#000000;fill-opacity:1;fill-rule:evenodd;stroke:none"
     id="path5457"
     inkscape:connector-curvature="0" /></svg>