<?xml version="1.0" encoding="UTF-8" standalone="no"?>
<!-- Created with Inkscape (http://www.inkscape.org/) -->

<svg
   xmlns:dc="http://purl.org/dc/elements/1.1/"
   xmlns:cc="http://creativecommons.org/ns#"
   xmlns:rdf="http://www.w3.org/1999/02/22-rdf-syntax-ns#"
   xmlns:svg="http://www.w3.org/2000/svg"
   xmlns="http://www.w3.org/2000/svg"
   xmlns:sodipodi="http://sodipodi.sourceforge.net/DTD/sodipodi-0.dtd"
   xmlns:inkscape="http://www.inkscape.org/namespaces/inkscape"
   version="1.1"
   width="100.06125"
   height="100.21"
   id="svg2"
   xml:space="preserve"
   inkscape:version="0.48.2 r9819"
   sodipodi:docname="Chile RR-6.svg"><sodipodi:namedview
     pagecolor="#ffffff"
     bordercolor="#666666"
     borderopacity="1"
     objecttolerance="10"
     gridtolerance="10"
     guidetolerance="10"
     inkscape:pageopacity="0"
     inkscape:pageshadow="2"
     inkscape:window-width="1280"
     inkscape:window-height="1004"
     id="namedview19"
     showgrid="false"
     inkscape:zoom="4.0569855"
     inkscape:cx="35.217619"
     inkscape:cy="46.190183"
     inkscape:window-x="-8"
     inkscape:window-y="-8"
     inkscape:window-maximized="1"
     inkscape:current-layer="svg2"
     fit-margin-top="0.05"
     fit-margin-left="0.05"
     fit-margin-right="0.05"
     fit-margin-bottom="0.05" /><defs
     id="defs20" /><metadata
     id="metadata8"><rdf:RDF><cc:Work
         rdf:about=""><dc:format>image/svg+xml</dc:format><dc:type
           rdf:resource="http://purl.org/dc/dcmitype/StillImage" /><dc:title></dc:title></cc:Work></rdf:RDF></metadata><path
     d="m 50.05111,6.6522455 c 24.0045,0 43.47275,19.4758325 43.47275,43.4896835 0,24.035044 -19.46825,43.510877 -43.47275,43.532071 C 26.02544,93.652806 6.557185,74.176973 6.536,50.141929 6.557185,26.128078 26.02544,6.6522455 50.05111,6.6522455"
     inkscape:connector-curvature="0"
     id="path18"
     style="fill:#ffffff;fill-opacity:1" /><path
     d="M 13.9425,38.73625 25.29375,50.105 13.9425,61.6425 l 0,-22.90625"
     style="fill:#000000;fill-opacity:1;fill-rule:evenodd;stroke:none"
     id="path6062"
     inkscape:connector-curvature="0" /><path
     d="M 86.2875,38.73625 74.93625,50.105 86.2875,61.6425 l 0,-22.90625"
     style="fill:#000000;fill-opacity:1;fill-rule:evenodd;stroke:none"
     id="path6064"
     inkscape:connector-curvature="0" /><path
     d="m 87.9825,50.105 -0.17,-4.92 -1.01625,-4.92125 -1.695,-4.5825 -2.2025,-4.58 -2.71,-4.0725 -3.22,-3.7325 -3.7275,-3.39375 -4.235,-2.715 -4.405,-2.20625 -4.74375,-1.5275 -4.74375,-1.0175 -5.08375,-0.34 -4.9125,0.34 -4.91375,1.0175 -4.575,1.5275 -4.57375,2.20625 -4.06625,2.715 -3.7275,3.39375 -3.21875,3.7325 -2.88125,4.0725 -2.2025,4.58 -1.525,4.5825 -1.01625,4.92125 -0.33875,4.92 0.33875,5.09 1.01625,4.75125 1.525,4.75125 2.2025,4.41125 2.88125,4.24125 3.21875,3.7325 3.7275,3.225 4.06625,2.71375 4.57375,2.2075 4.575,1.69625 4.91375,1.0175 4.9125,0.34 5.08375,-0.34 4.74375,-1.0175 4.74375,-1.69625 4.405,-2.2075 4.235,-2.71375 3.7275,-3.225 3.22,-3.7325 2.71,-4.24125 2.2025,-4.41125 1.695,-4.75125 1.01625,-4.75125 0.17,-5.09 z m 12.02875,0 L 99.6725,44.50625 98.825,39.075 97.3,33.64625 95.0975,28.385 l -2.71,-4.92 -3.22,-4.58125 L 85.44,14.81125 81.205,11.07875 76.63,7.8537505 71.7175,5.14 66.63375,2.93375 61.2125,1.40625 55.62125,0.39 50.03,0.05 44.43875,0.39 39.0175,1.40625 33.59625,2.93375 28.34375,5.14 23.43,7.8537505 18.85625,11.07875 14.79,14.81125 11.0625,18.88375 7.84375,23.465 5.1325,28.385 2.93,33.64625 1.405,39.075 0.38875,44.50625 0.05,50.105 l 0.33875,5.59875 1.01625,5.6 1.525,5.42875 2.2025,5.091251 2.71125,4.92 3.21875,4.58125 3.7275,4.242499 4.06625,3.73375 4.57375,3.22375 4.91375,2.715 5.2525,2.205 5.42125,1.527498 5.42125,0.84875 L 50.03,100.16 55.62125,99.821248 61.2125,98.972498 66.63375,97.445 71.7175,95.24 76.63,92.525 l 4.575,-3.22375 4.235,-3.73375 3.7275,-4.2425 3.22,-4.58125 2.71,-4.92 2.2025,-5.09125 1.525,-5.42875 0.8475,-5.6 0.33875,-5.59875"
     style="fill:#ef2c30;fill-opacity:1;fill-rule:evenodd;stroke:none"
     id="path6066"
     inkscape:connector-curvature="0" /><path
     d="m 37.83125,47.39 -3.5575,1.52625 -3.21875,2.37625 -2.71125,2.885 -2.0325,3.39375 -1.18625,3.7325 -0.50875,3.9025 20.50125,0 0,-4.75125 -15.08,0 1.525,-2.88375 2.03375,-2.37625 2.54125,-1.86625 2.88,-1.3575 2.2025,-1.01875 1.695,-1.52625 1.355,-1.86625 0.8475,-2.2075 0,-2.205 -0.50875,-2.375 L 43.5925,38.73625 41.8975,37.21 39.865,35.85125 37.4925,35.0025 34.95125,34.66375 32.24,35.0025 l -2.54125,1.18875 -2.2025,1.6975 -1.525,2.205 -1.01625,2.715 4.575,0.84875 0.6775,-1.6975 1.355,-1.3575 1.525,-1.01875 1.86375,-0.16875 2.2025,0.33875 1.86375,1.01875 1.18625,1.69625 0.16875,2.0375 -0.84625,1.865 -1.695,1.01875"
     style="fill:#000000;fill-opacity:1;fill-rule:nonzero;stroke:none"
     id="path6068"
     inkscape:connector-curvature="0" /><path
     d="m 44.77875,72.16375 -2.88125,0 0,12.04625 2.88125,0 0,-7.1275 0.33875,-0.8475 0.6775,-0.847499 0.84625,-0.170001 1.0175,0.170001 0.6775,0.847499 0.16875,0.8475 0,7.1275 3.05,0 0,-7.1275 0.33875,-0.8475 0.6775,-0.847499 0.8475,-0.170001 1.01625,0.170001 0.67875,0.847499 0.16875,0.8475 0,7.1275 3.05,0 0,-7.1275 -0.50875,-2.20375 -0.84625,-1.52875 -1.525,-1.0175 -1.86375,-0.33875 -1.695,0.50875 -1.525,1.0175 -1.185,-1.0175 -1.35625,-0.50875 -1.525,0 -1.52375,0.50875 0,-0.33875"
     style="fill:#000000;fill-opacity:1;fill-rule:evenodd;stroke:none"
     id="path6070"
     inkscape:connector-curvature="0" /><path
     d="m 47.8275,68.77 0,-1.18875 -0.33875,-1.1875 -0.5075,-0.8475 0,-1.018749 0.6775,-0.67875 0.84625,-0.50875 1.0175,0.17 0.6775,0.678749 0.33875,1.0175 L 50.2,66.7325 49.3525,68.09125 47.8275,68.77"
     style="fill:#000000;fill-opacity:1;fill-rule:nonzero;stroke:none"
     id="path6072"
     inkscape:connector-curvature="0" /><path
     d="m 65.7875,42.3 -8.3025,10.85875 8.3025,0 0,-10.85875 z m 0,15.10125 -14.74,0 0,-2.715 14.74,-19.51375 4.57375,0 0,17.98625 2.71125,0 0,4.2425 -2.71125,0 0,7.805 -4.57375,0 0,-7.805"
     style="fill:#000000;fill-opacity:1;fill-rule:evenodd;stroke:none"
     id="path6074"
     inkscape:connector-curvature="0" /></svg>