<?xml version="1.0" encoding="UTF-8" standalone="no"?>
<!-- Created with Inkscape (http://www.inkscape.org/) -->

<svg
   xmlns:dc="http://purl.org/dc/elements/1.1/"
   xmlns:cc="http://creativecommons.org/ns#"
   xmlns:rdf="http://www.w3.org/1999/02/22-rdf-syntax-ns#"
   xmlns:svg="http://www.w3.org/2000/svg"
   xmlns="http://www.w3.org/2000/svg"
   xmlns:sodipodi="http://sodipodi.sourceforge.net/DTD/sodipodi-0.dtd"
   xmlns:inkscape="http://www.inkscape.org/namespaces/inkscape"
   version="1.1"
   width="105.175"
   height="105.02625"
   id="svg2"
   xml:space="preserve"
   inkscape:version="0.48.2 r9819"
   sodipodi:docname="Chile RR-7.svg"><sodipodi:namedview
     pagecolor="#ffffff"
     bordercolor="#666666"
     borderopacity="1"
     objecttolerance="10"
     gridtolerance="10"
     guidetolerance="10"
     inkscape:pageopacity="0"
     inkscape:pageshadow="2"
     inkscape:window-width="1280"
     inkscape:window-height="1004"
     id="namedview19"
     showgrid="false"
     inkscape:zoom="4.0569855"
     inkscape:cx="35.267619"
     inkscape:cy="46.240184"
     inkscape:window-x="-8"
     inkscape:window-y="-8"
     inkscape:window-maximized="1"
     inkscape:current-layer="svg2"
     fit-margin-top="0.05"
     fit-margin-left="0.05"
     fit-margin-right="0.05"
     fit-margin-bottom="0.05" /><defs
     id="defs20" /><metadata
     id="metadata8"><rdf:RDF><cc:Work
         rdf:about=""><dc:format>image/svg+xml</dc:format><dc:type
           rdf:resource="http://purl.org/dc/dcmitype/StillImage" /><dc:title></dc:title></cc:Work></rdf:RDF></metadata><path
     d="m 52.60811,8.9114955 c 24.0045,0 43.47275,19.4758325 43.47275,43.4896835 0,24.035044 -19.46825,43.510877 -43.47275,43.532071 C 28.58244,95.912056 9.114185,76.436223 9.093,52.401179 9.114185,28.387328 28.58244,8.9114955 52.60811,8.9114955"
     inkscape:connector-curvature="0"
     id="path18"
     style="fill:#ffffff;fill-opacity:1" /><path
     d="M 70.19125,74.60625 69.78,72.8275 68.95875,71.46 67.725,70.64 l -1.37,-0.1375 -1.50625,0.27375 -1.09625,0.9575 -0.95875,-0.82125 -1.23375,-0.41 -1.2325,0 -1.2325,0.41 0,-0.2725 -2.46625,0 0,9.84875 2.46625,0 0,-5.8825 0.27375,-0.82125 0.5475,-0.54625 0.685,-0.1375 0.8225,0.1375 0.5475,0.54625 0.27375,0.82125 0,5.8825 2.46625,0 0,-5.8825 0.1375,-0.82125 0.5475,-0.54625 0.8225,-0.1375 0.685,0.1375 0.5475,0.54625 0.27375,0.82125 0,5.8825 2.46625,0 0,-5.8825 z m -27.125,-5.745 -0.5475,2.8725 0,2.73625 0.5475,2.735 0.5475,1.36875 1.09625,1.095 1.37,0.68375 1.5075,0.2725 1.50625,-0.13625 1.37,-0.82 1.09625,-1.095 0.5475,-1.36875 0.54875,-2.735 0,-2.73625 -0.54875,-2.8725 -0.5475,-1.36875 -1.09625,-1.09375 -1.37,-0.685 -1.50625,-0.2725 -1.5075,0.2725 -1.37,0.685 -1.09625,1.09375 -0.5475,1.36875 z m 32.19375,-3.1475 7.3975,7.3875 -7.3975,7.3875 0,-6.15625 -2.46625,0 0,-2.4625 2.46625,0 0,-6.15625 z m -43.56375,0 -7.26125,7.3875 7.26125,7.3875 0,-6.15625 2.6025,0 0,-2.4625 -2.6025,0 0,-6.15625 z m 5.3425,2.73625 -1.23375,0 0,-1.7775 0.96,-0.27375 0.82125,-0.685 1.78125,0 0,14.775 -2.32875,0 0,-12.03875 z m 8.22,8.20875 0.41,0.82125 0.8225,0.6825 1.09625,0.275 0.95875,-0.275 0.95875,-0.6825 0.41125,-0.82125 0.5475,-2.4625 0,-2.32625 -0.5475,-2.325 L 49.505,68.5875 48.54625,68.04 47.5875,67.76625 46.49125,68.04 l -0.8225,0.5475 -0.41,0.9575 -0.54875,2.325 0,2.32625 0.54875,2.4625"
     style="fill:#000000;fill-opacity:1;fill-rule:evenodd;stroke:none"
     id="path6551"
     inkscape:connector-curvature="0" /><path
     d="m 80.88,52.44375 -0.2775,-1.64125 -0.82125,-1.64125 -1.37,-1.23125 -1.5075,-0.82 -1.78125,-0.27375 -1.78,0.27375 -1.5075,0.82 -1.37,1.23125 -0.82125,1.64125 -0.275,1.77875 -29.0425,0 L 40.0525,50.8025 39.23,49.16125 37.9975,47.93 36.35375,47.11 34.5725,46.83625 32.79125,47.11 31.285,47.93 30.05125,49.16125 29.23,50.8025 l -0.27375,1.77875 -4.52125,0 0,-24.89625 37.81,0 0,5.745 8.63125,0 3.01375,8.755 8.63125,0 0,7.93375 2.87625,0 0,2.32625 -4.52125,0 4.52125,0 L 80.88,52.4437 z M 72.24625,42.185 l -10.00125,0 0,-7.25125 7.6725,0 2.32875,7.25125 z M 39.3675,52.445 39.23,51.07625 38.545,49.70875 37.45,48.61375 36.08,47.93 l -1.5075,-0.27375 -1.37,0.27375 -1.37,0.68375 -1.09625,1.095 -0.685,1.3675 -0.27375,1.36875 0.27375,1.505 0.685,1.3675 1.09625,1.095 1.37,0.68375 1.37,0.13625 1.5075,-0.13625 1.37,-0.68375 1.095,-1.095 0.685,-1.3675 0.1375,-1.505 z m 40.55,0 -0.27375,-1.36875 -0.685,-1.3675 L 78,48.61375 76.63,47.93 75.1225,47.65625 73.61625,47.93 l -1.37,0.68375 -0.95875,1.095 -0.685,1.3675 -0.27375,1.36875 0.27375,1.505 0.685,1.3675 0.95875,1.095 1.37,0.68375 1.50625,0.13625 1.5075,-0.13625 1.37,-0.68375 0.95875,-1.095 0.685,-1.3675 0.27375,-1.505"
     style="fill:#000000;fill-opacity:1;fill-rule:evenodd;stroke:none"
     id="path6553"
     inkscape:connector-curvature="0" /><path
     d="M 92.52125,52.58125 92.2475,48.0675 91.5625,43.69 l -1.23375,-4.3775 -1.78,-4.10375 -2.055,-3.9675 -2.6025,-3.55625 -3.015,-3.42125 -3.42375,-3.01 L 73.89,18.7925 69.9175,16.6025 65.8075,14.825 61.56,13.59375 57.04,12.91 52.65625,12.63625 48.135,12.91 43.75125,13.59375 39.3675,14.825 l -4.11,1.7775 -3.83625,2.19 -3.69875,2.46125 -3.2875,3.01 -3.01375,3.42125 -2.6025,3.55625 -2.1925,3.9675 -1.78125,4.10375 -1.2325,4.3775 -0.685,4.3775 -0.27375,4.51375 0.27375,4.37875 0.685,4.3775 1.2325,4.37625 1.78125,4.105 2.1925,3.96625 2.6025,3.5575 3.01375,3.42 3.2875,3.01 3.69875,2.59875 3.83625,2.0525 4.11,1.7775 4.38375,1.23125 4.38375,0.685 4.52125,0.2725 4.38375,-0.2725 4.52,-0.685 4.2475,-1.23125 4.11,-1.7775 3.9725,-2.0525 3.5625,-2.59875 3.42375,-3.01 3.015,-3.42 2.6025,-3.5575 2.055,-3.96625 1.78,-4.105 1.23375,-4.37625 0.685,-4.3775 0.27375,-4.37875 z m 12.60375,0 -0.27375,-5.19875 -0.685,-5.06125 -1.23375,-5.06125 -1.78,-4.7875 -2.1925,-4.65125 -2.6025,-4.515 -3.15125,-4.10375 -3.425,-3.83 L 85.945,11.9525 81.83625,8.805 77.4525,6.20625 72.6575,4.0175 67.8625,2.24 62.93,1.00875 57.725,0.32375 52.65625,0.05 47.45,0.32375 42.38125,1.00875 37.3125,2.24 32.5175,4.0175 27.86,6.20625 23.47625,8.805 l -4.2475,3.1475 -3.835,3.42 -3.425,3.83 -3.01375,4.10375 -2.74,4.515 -2.1925,4.65125 -1.64375,4.7875 -1.37,5.06125 -0.685,5.06125 -0.27375,5.19875 0.27375,5.06125 0.685,5.0625 1.37,5.06125 1.64375,4.7875 2.1925,4.65125 2.74,4.515 3.01375,4.10375 3.425,3.83 3.835,3.42125 4.2475,3.14625 4.38375,2.59875 4.6575,2.18875 4.795,1.77875 5.06875,1.23125 5.06875,0.82125 5.20625,0.13625 5.06875,-0.13625 5.205,-0.82125 4.9325,-1.23125 4.795,-1.77875 4.795,-2.18875 4.38375,-2.59875 4.10875,-3.14625 3.83625,-3.42125 3.425,-3.83 3.15125,-4.10375 2.6025,-4.515 2.1925,-4.65125 1.78,-4.7875 1.23375,-5.06125 0.685,-5.0625 0.27375,-5.06125"
     style="fill:#ef2c30;fill-opacity:1;fill-rule:evenodd;stroke:none"
     id="path6555"
     inkscape:connector-curvature="0" /></svg>