<?xml version="1.0" encoding="UTF-8" standalone="no"?>
<!-- Created with Inkscape (http://www.inkscape.org/) -->

<svg
   xmlns:dc="http://purl.org/dc/elements/1.1/"
   xmlns:cc="http://creativecommons.org/ns#"
   xmlns:rdf="http://www.w3.org/1999/02/22-rdf-syntax-ns#"
   xmlns:svg="http://www.w3.org/2000/svg"
   xmlns="http://www.w3.org/2000/svg"
   xmlns:sodipodi="http://sodipodi.sourceforge.net/DTD/sodipodi-0.dtd"
   xmlns:inkscape="http://www.inkscape.org/namespaces/inkscape"
   version="1.1"
   width="314.9718"
   height="472.0968"
   id="svg2"
   xml:space="preserve"
   inkscape:version="0.48.2 r9819"
   sodipodi:docname="Chile RR-8.svg"><sodipodi:namedview
     pagecolor="#ffffff"
     bordercolor="#666666"
     borderopacity="1"
     objecttolerance="10"
     gridtolerance="10"
     guidetolerance="10"
     inkscape:pageopacity="0"
     inkscape:pageshadow="2"
     inkscape:window-width="1280"
     inkscape:window-height="1004"
     id="namedview19"
     showgrid="false"
     inkscape:zoom="1.0142464"
     inkscape:cx="68.008103"
     inkscape:cy="228.40222"
     inkscape:window-x="-8"
     inkscape:window-y="-8"
     inkscape:window-maximized="1"
     inkscape:current-layer="svg2"
     fit-margin-top="0"
     fit-margin-left="0"
     fit-margin-right="0"
     fit-margin-bottom="0" /><defs
     id="defs20" /><metadata
     id="metadata8"><rdf:RDF><cc:Work
         rdf:about=""><dc:format>image/svg+xml</dc:format><dc:type
           rdf:resource="http://purl.org/dc/dcmitype/StillImage" /><dc:title></dc:title></cc:Work></rdf:RDF></metadata><path
     inkscape:connector-curvature="0"
     d="m 288.84844,471.09006 6.39606,-0.91254 5.93773,-2.74591 5.02934,-3.65849 4.10848,-5.48769 2.74177,-5.94606 0.91669,-6.40023 0,-419.773573 -0.91669,-6.4044 -2.74177,-5.946049 -4.10848,-5.4876992 -5.02934,-4.112649 -5.93773,-2.287583 -6.39606,-0.916699 -262.709543,0 -6.39608,0.916699 -6.39605,2.287583 -5.0251902,4.112649 -4.11265,5.4876992 -2.2834,5.946049 -0.91254,6.4044 0,419.773573 0.91254,6.40023 2.2834,5.94606 4.11265,5.48769 5.0251902,3.65849 6.39605,2.74591 6.39608,0.91254 262.709543,0 z"
     style="fill:#ffffff;stroke:#000000;stroke-width:1.99953806;stroke-linecap:round;stroke-linejoin:round;stroke-miterlimit:10;stroke-opacity:1;stroke-dasharray:none"
     id="path8051" /><path
     inkscape:connector-curvature="0"
     d="m 288.84844,464.68983 5.48352,-0.91671 5.47939,-2.74176 4.11264,-4.11682 2.74175,-5.02934 0.91254,-5.94606 0,-419.773573 -0.91254,-5.946049 -2.74175,-5.02935 -4.11264,-4.116816 -5.47939,-2.7459332 -5.48352,-0.912532 -262.709543,0 -5.93771,0.912532 -5.02519,2.7459332 -4.11265,4.116816 -2.7417702,5.02935 -0.91253,5.946049 0,419.773573 0.91253,5.94606 2.7417702,5.02934 4.11265,4.11682 5.02519,2.74176 5.93771,0.91671 262.709543,0 z m 0,-12.35046 3.19595,-0.90836 2.28757,-2.28757 0.45419,-3.2043 0,-419.773573 -0.45419,-3.204284 -2.28757,-2.287583 -3.19595,-0.912533 -262.709543,0 -3.19595,0.912533 -2.28759,2.287583 -0.91254,3.204284 0,419.773573 0.91254,3.2043 2.28759,2.28757 3.19595,0.90836 262.709543,0"
     style="fill:#000000;fill-opacity:1;fill-rule:evenodd;stroke:none"
     id="path8055" /><path
     inkscape:connector-curvature="0"
     style="fill:#000000;fill-opacity:1;fill-rule:evenodd;stroke:none"
     d="m 118.37975,317.85533 0,41.66818 6.45856,0 0,-18.33401 12.29212,0 0,-6.35438 -12.29212,0 0,-10.52122 19.16736,0 0,-6.45857 -25.62592,0 z m 32.91786,0 0,41.66818 6.45856,0 0,-41.66818 -6.45856,0 z m 16.45893,0 0,41.66818 6.45857,0 0,-27.39684 15.5214,27.39684 5.93771,0 0,-41.66818 -6.45858,0 0,27.91768 -15.00053,-27.91768 -6.45857,0 z m 70.83591,64.48152 -2.29174,4.58348 2.29174,0 4.06264,-4.58348 -4.06264,0 z m -134.2757,5.52103 -2.29177,0.93752 -2.291743,1.7709 -1.87507,2.29176 -0.41668,3.22929 0.93753,2.70842 0.52085,0.83336 1.250053,1.45839 2.70842,1.45838 4.16683,0.83337 1.7709,0.93753 0.93754,2.70844 -0.93754,2.81261 -1.7709,0.93752 -1.87507,0 -2.29176,-0.52084 -1.77088,-1.35423 -0.93754,-1.87506 -3.645973,0.93752 0.93754,2.81261 2.29175,2.29174 2.708423,1.35423 2.70844,0.41668 3.64597,-0.41668 2.8126,-1.87507 1.77088,-2.29174 0.52087,-3.22929 -0.93752,-3.64597 -2.29177,-2.70844 -2.50009,-1.0417 -0.72919,-0.31234 -3.64597,-0.9377 -1.7709,-0.93754 -0.52084,-1.3542 0.52084,-1.77091 1.35422,-1.45838 1.35422,-0.83337 2.70843,0.83337 1.87507,2.29174 3.64598,-1.35422 -0.93755,-2.29175 -2.29174,-2.29174 -2.29176,-0.93753 -3.1251,-0.41668 z m 78.54451,0 -3.22929,0.93752 -2.70842,1.7709 -1.87509,2.29176 -1.3542,5.93771 0,0.83336 0,4.68767 1.3542,5.52105 1.87509,2.70842 2.70842,1.87507 3.64597,0.41668 3.22928,-0.93754 2.70842,-1.77089 1.35423,-2.81261 -3.64597,-1.35422 -1.3542,1.87509 -2.70844,0.93752 -2.29176,-0.52084 -1.87506,-1.77091 -1.35421,-4.5835 0,-4.27099 0,-0.31234 1.35421,-4.5835 1.87506,-1.87507 2.29176,-0.83336 2.29176,0.83336 1.77088,1.87507 3.64597,-1.35423 -1.77091,-2.81258 -2.70842,-1.77091 -3.22928,-0.93754 z m 22.39665,0 -3.22929,0.93752 -2.70842,1.7709 -2.29177,2.29176 -1.35421,5.93771 0,0.83336 0,4.68767 1.35421,5.52105 2.29177,2.70842 2.70842,1.87507 3.22929,0.41668 3.22928,-0.93754 2.70842,-1.77089 1.77091,-2.81261 -4.06265,-1.35422 -1.35421,1.87509 -2.29175,0.93752 -2.81261,-0.52084 -1.35422,-1.77091 -1.3542,-4.5835 0,-4.27099 0,-0.31234 1.3542,-4.5835 1.35422,-1.87507 2.81261,-0.83336 2.29175,0.83336 1.35421,1.87507 4.06265,-1.35423 -1.77091,-2.81258 -2.70842,-1.77091 -3.22928,-0.93754 z m 31.98032,0 -3.64597,0.93752 -2.81259,2.29175 -1.77091,3.22929 -0.72919,5.31269 -0.20835,1.97925 0.93754,7.29192 1.77091,3.22929 2.81259,2.29175 3.64597,0.41668 3.22929,-0.41668 3.1251,-2.29175 1.87508,-3.22929 0.93753,-7.29192 -0.31236,-1.97925 -0.62501,-5.31269 -1.87506,-3.22929 -3.12512,-2.29175 -3.22929,-0.93752 z m -185.006723,0.41668 0,11.35457 0,14.79221 4.06265,0 0,-11.45876 4.5835,0 4.58349,11.45876 4.06266,0 -4.5835,-11.87544 2.81261,-2.29175 0.31233,-0.62502 1.0417,-2.18758 0,-3.12511 -1.3542,-3.22929 -2.81261,-1.87506 -3.12511,-0.93753 -9.58368,0 z m 23.75087,0 0,11.35457 0,14.79221 15.93807,0 0,-4.16681 -11.87543,0 0,-7.29195 7.81278,0 0,-3.33345 0,-0.83336 -7.81278,0 0,-6.35439 10.9379,0 0,-4.16682 -15.00054,0 z m 42.397373,0 0,4.16682 6.04188,0 0,7.18775 0,14.79221 4.06265,0 0,-14.79221 0,-7.18775 5.93772,0 0,-4.16682 -16.04225,0 z m 21.04242,0 0,11.35457 0,14.79221 3.64597,0 0,-11.45876 5.10436,0 4.06265,11.45876 4.58349,0 -4.58349,-11.87544 2.29175,-2.29175 0.31234,-0.62502 1.04169,-2.18758 0,-3.12511 -1.3542,-3.22929 -2.29175,-1.87506 -3.22929,-0.93753 -9.58368,0 z m 23.3342,0 0,11.35457 0,14.79221 4.06263,0 0,-14.79221 0,-11.35457 -4.06263,0 z m 54.79365,0 0,11.35457 0,14.79221 4.16682,0 0,-14.79221 0,-11.35457 -4.16682,0 z m 34.79294,0 0,11.35457 0,14.79221 4.06263,0 0,-14.79221 0,-2.18758 1.25005,2.18758 8.33363,14.79221 4.16682,0 0,-14.79221 0,-11.35457 -4.16682,0 0,11.35457 0,6.04189 -3.33345,-6.04189 -6.25023,-11.35457 -4.06263,0 z m -15.10473,3.75013 2.29174,0.83337 1.77091,2.29174 0.62502,4.47933 0.31234,1.97925 -0.93752,5.9377 -1.77091,2.29177 -2.29176,0.93752 -2.70842,-0.93752 -1.45838,-2.29177 -0.83336,-5.9377 0.20832,-1.97925 0.62504,-4.47933 1.45838,-2.29174 2.70842,-0.83337 z m -180.944073,0.41669 5.52104,0 2.29175,0.93753 0.83336,2.29176 -0.83336,2.29174 -2.29175,0.83336 -5.52104,0 0,-6.35439 z m 86.773983,0 5.93773,0 2.29174,0.93753 0.93754,2.29176 -0.93754,2.29174 -2.29174,0.83336 -5.93773,0 0,-6.35439 z"
     id="path8057" /><path
     inkscape:connector-curvature="0"
     d="m 185.13634,125.39 -5.02518,0 -1.82924,6.85859 0,8.69198 60.31053,0 -4.11266,-15.55057 -49.34345,0 z m -3.24179,-5.02935 56.6979,0 5.02518,20.57992 5.48353,5.48353 0,20.57991 -5.48353,5.48354 0,10.52121 -10.05454,0 0,-10.52121 -52.08105,0 0,10.52121 -10.50873,0 0,-5.02935 -1.82922,-7.31693 -2.74177,-2.74176 -0.91252,-8.23364 0,-5.94605 5.93771,-14.17551 2.81678,-11.28791 7.65026,-7.91696 z m -43.81825,20.57992 -62.593943,0 4.11265,-15.55057 54.368633,0 4.11266,15.55057 z m -73.102663,5.48353 5.02518,-5.48353 5.48354,-20.57992 62.593943,0 4.571,18.29234 3.19593,5.48769 2.28343,2.28342 0,16.00475 -5.02519,14.17968 -0.45417,6.40023 -5.94188,0 -4.11266,-5.02935 0,-5.49186 -52.085213,0 0,10.52121 -10.50873,0 0,-10.52121 -5.02518,-5.48354 0,-20.57991"
     style="fill:#999999;fill-opacity:1;fill-rule:evenodd;stroke:none"
     id="path8049" /><path
     inkscape:connector-curvature="0"
     d="M 59.494277,221.87685 221.68767,59.545946 l -12.33796,-6.862749 -12.79212,-5.483531 -13.25047,-4.116817 -13.70468,-2.287584 -13.70882,-0.454182 -14.16302,0.912533 -13.70466,2.741766 -13.25048,4.116816 -12.33796,5.941883 -11.875433,7.321098 -10.96706,8.687817 -10.05036,9.600348 -8.2253,10.975398 -7.30861,11.887928 -5.94188,12.80463 -4.11266,13.25882 -2.73759,13.72133 -0.91671,13.71717 0.45837,13.71716 2.28341,14.17552 4.11264,13.26298 5.02519,12.80463 7.31277,11.88794 z M 230.36716,65.487829 226.71285,63.200246 62.690227,227.36038 65.431977,230.56466 230.36716,65.487829 z M 69.544647,235.59401 72.286397,238.33994 238.13409,72.346411 234.93399,69.604644 69.544647,235.59401 z M 245.44269,80.121694 242.70093,76.917411 76.853237,242.91094 79.595007,245.6527 245.44269,80.121694 z M 84.620177,249.76952 87.820307,252.51545 251.83877,88.351159 249.55535,84.692693 84.620177,249.76952 z m 8.68367,6.40441 162.193393,-162.789256 6.85024,11.883766 5.48352,12.8088 4.11265,13.71716 2.28342,13.71717 0.45835,13.71716 -0.91253,14.17552 -2.74176,13.72133 -4.11266,13.25882 -5.94189,12.34628 -7.30859,11.88793 -8.67948,10.9754 -9.59618,10.05869 -10.9629,8.68783 -11.87959,6.86274 -12.79215,5.94189 -13.25047,4.11681 -13.70883,2.74593 -13.70467,0.91254 -14.163,-0.45835 -13.70884,-2.28759 -13.24632,-3.6543 -12.7963,-5.48769 -11.875413,-6.85858 z m 194.173693,-98.31608 -0.45834,-14.6297 -2.74176,-14.63803 -4.10849,-14.17135 -5.48353,-13.26298 L 267.831,88.351159 259.15153,76.463227 249.55535,65.487829 238.59245,55.42913 226.71285,47.199666 213.92072,39.882732 200.21189,34.395034 186.50722,30.278217 171.88585,27.990634 157.2645,27.0781 l -14.6172,0.912534 -14.16718,2.287583 -14.16302,4.116817 -13.24632,5.487698 -12.796303,7.316934 -12.33378,8.229464 -10.50872,10.058699 -10.05036,10.975398 -8.2253,11.887932 -7.30859,12.804631 -5.48353,13.26298 -4.11266,14.17135 -2.28342,14.63803 -0.91251,14.6297 0.91251,14.6297 2.28342,14.17968 4.11266,14.17552 5.48353,13.25881 7.30859,12.80463 8.2253,12.34629 10.05036,10.51704 10.50872,10.06287 12.33378,8.22946 12.796303,7.31693 13.24632,5.48354 14.16302,4.11681 14.16718,2.28759 14.6172,0.91253 14.62135,-0.91253 14.62137,-2.28759 13.70467,-4.11681 13.70883,-5.48354 12.79213,-7.31693 11.8796,-8.22946 10.9629,-10.06287 9.59618,-10.51704 8.67947,-12.34629 6.85442,-12.80463 5.48353,-13.25881 4.10849,-14.17552 2.74176,-14.17968 0.45834,-14.6297"
     style="fill:#000000;fill-opacity:1;fill-rule:evenodd;stroke:none"
     id="path8053" /></svg>